<?xml version="1.0" encoding="UTF-8"?><svg id="a" xmlns="http://www.w3.org/2000/svg" viewBox="0 0 24 24"><defs><style>.b{fill:#272525;}</style></defs><path class="b" d="M19.94,8.74c0-2.51-2.04-4.56-4.56-4.56-1.58,0-3.02,.82-3.86,2.15-1.31-.74-3.05-.49-4.06,.62-.56,.61-.87,1.41-.87,2.23-1.44,.25-2.54,1.53-2.54,3.02,0,1.69,1.38,3.07,3.07,3.07h.77c-.07,.28,.03,.58,.28,.75,.12,.08,.26,.12,.4,.12,.04,0,.09,0,.13-.01,.18-.04,.34-.14,.45-.29l.37-.54s0-.02,0-.02h6.6c1.31,0,2.38-1.07,2.38-2.38,0-.25-.05-.49-.13-.73,.99-.87,1.57-2.1,1.57-3.43Zm-10.91,6.22l-.37,.54s-.05,.04-.07,.04c-.02,0-.05,0-.08-.02-.05-.03-.06-.1-.03-.14l.37-.54s.05-.04,.09-.04c.02,0,.04,0,.05,.01,.04,.03,.06,.1,.03,.14Zm7.1-.28h-6.53c-.05-.14-.13-.26-.25-.35-.32-.22-.76-.14-.98,.18l-.13,.18s-.01,0-.02,0h-1.09c-1.36,0-2.47-1.11-2.47-2.47,0-1.28,1-2.36,2.27-2.46,.08,0,.15-.04,.21-.11,.05-.06,.08-.14,.07-.22-.07-.77,.18-1.5,.7-2.06,.89-.97,2.46-1.15,3.55-.38,.49,.35,.86,.85,1.03,1.41,.03,.09,.09,.15,.17,.19,.08,.03,.17,.03,.25,0,.69-.35,1.51-.28,2.13,.19,.63,.48,.91,1.22,.75,2-.02,.09,0,.18,.06,.25,.06,.07,.14,.11,.23,.11,.75,0,1.39,.41,1.67,1.07h0c.1,.23,.15,.47,.15,.71,0,.98-.8,1.78-1.78,1.78Z"/><path class="b" d="M11.39,17.87l-.37,.54c-.22,.32-.14,.76,.18,.98,.12,.08,.26,.12,.4,.12,.22,0,.44-.11,.58-.3l.37-.54c.22-.32,.14-.76-.18-.98-.32-.22-.76-.14-.98,.18Zm.15,1.02s-.06-.1-.03-.14l.37-.54s.1-.06,.14-.03c.05,.03,.06,.1,.03,.14l-.37,.54s-.1,.05-.14,.03Z"/><path class="b" d="M12.74,15.91l-.37,.54c-.11,.15-.15,.34-.11,.53,.03,.18,.14,.34,.29,.45,.12,.08,.25,.12,.39,.12,.04,0,.09,0,.13-.01,.18-.04,.34-.14,.45-.29l.37-.54c.22-.32,.14-.76-.18-.98-.32-.22-.76-.14-.98,.18Zm.66,.46l-.37,.54s-.05,.04-.07,.04c-.02,0-.05,0-.08-.02h0s-.04-.05-.04-.07,0-.05,.02-.08l.37-.54s.05-.04,.09-.04c.02,0,.04,0,.05,.01,.05,.03,.06,.1,.03,.14Z"/><path class="b" d="M10.92,16.09c-.15-.11-.34-.15-.53-.11-.18,.03-.34,.14-.45,.29l-.37,.54c-.11,.15-.15,.34-.11,.53,.03,.18,.14,.34,.29,.45,.12,.08,.25,.12,.39,.12,.04,0,.09,0,.13-.01,.18-.04,.34-.14,.45-.29l.37-.54c.22-.32,.14-.76-.18-.98Zm-.31,.64l-.37,.54s-.05,.04-.07,.04c-.01,0-.05,0-.08-.02h0s-.04-.05-.04-.07,0-.05,.02-.08l.37-.54s.05-.04,.07-.04h.02s.04,0,.06,.02c.05,.03,.06,.1,.03,.14Z"/><path class="b" d="M8.55,18.27l-.14,.21c-.22,.32-.14,.76,.18,.98,.12,.08,.26,.12,.4,.12,.22,0,.44-.11,.58-.3l.14-.21c.11-.15,.15-.34,.11-.53-.04-.18-.14-.34-.29-.45-.32-.22-.76-.14-.98,.18Zm.35,.55l.14-.21s.05-.04,.08-.04c.02,0,.04,0,.06,.02,.03,.02,.04,.05,.04,.07s0,.05-.02,.08l-.14,.21s-.1,.05-.14,.03c-.04-.03-.05-.1-.03-.14Z"/><path class="b" d="M8.03,16.26c-.15-.11-.34-.14-.53-.11-.18,.04-.34,.14-.45,.29l-.37,.54c-.22,.32-.14,.76,.18,.98,.12,.08,.25,.12,.4,.12,.04,0,.09,0,.13-.01,.18-.03,.34-.14,.45-.29l.37-.54c.22-.32,.14-.76-.18-.98Zm-.31,.64l-.37,.54s-.05,.04-.07,.04c-.02,0-.05,0-.08-.02h0s-.06-.1-.03-.14l.37-.54s.05-.04,.07-.04h.02s.04,0,.06,.02c.05,.03,.06,.1,.03,.14Z"/></svg>