<?xml version="1.0" encoding="UTF-8"?><svg id="a" xmlns="http://www.w3.org/2000/svg" viewBox="0 0 24 24"><path d="M6.07,19.96c-.17,0-.3-.13-.3-.3v-4.74c0-.17,.13-.3,.3-.3s.3,.13,.3,.3v4.74c0,.17-.13,.3-.3,.3Z" style="fill:#272525;"/><path d="M9.02,19.97c-.17,0-.3-.13-.3-.3v-6.76c0-.17,.13-.3,.3-.3s.3,.13,.3,.3v6.76c0,.17-.13,.3-.3,.3Z" style="fill:#272525;"/><path d="M11.99,19.9c-.17,0-.3-.13-.3-.3V11c0-.17,.13-.3,.3-.3s.3,.13,.3,.3v8.59c0,.17-.13,.3-.3,.3Z" style="fill:#272525;"/><path d="M14.97,19.91c-.17,0-.3-.13-.3-.3V9.12c0-.17,.13-.3,.3-.3s.3,.13,.3,.3v10.5c0,.17-.13,.3-.3,.3Z" style="fill:#272525;"/><path d="M17.94,19.94c-.17,0-.3-.13-.3-.3V7.11c0-.17,.13-.3,.3-.3s.3,.13,.3,.3v12.53c0,.17-.13,.3-.3,.3Z" style="fill:#272525;"/><path d="M4.32,15.17c-.1,0-.19-.05-.25-.13-.09-.14-.05-.32,.09-.42L19.39,4.57c.14-.09,.32-.05,.42,.08,.09,.14,.05,.32-.08,.42L4.49,15.12c-.05,.03-.11,.05-.16,.05Z" style="fill:#272525;"/><path d="M19.25,7s-.04,0-.06,0c-.16-.04-.26-.2-.23-.36l.36-1.65-1.68-.37c-.16-.04-.26-.2-.23-.36,.04-.16,.2-.27,.36-.23l1.97,.43c.16,.04,.26,.2,.23,.36l-.43,1.94c-.03,.14-.16,.24-.29,.24Z" style="fill:#272525;"/></svg>