<?xml version="1.0" encoding="UTF-8"?><svg id="a" xmlns="http://www.w3.org/2000/svg" viewBox="0 0 24 24"><g><path d="M11.87,5.61c-.17,0-.3-.13-.3-.3v-.62s-.07-.04-.21-.04h-3.78c-.13,0-.2,.05-.21,.07v.6c0,.17-.13,.3-.29,.3s-.3-.13-.3-.3v-.62c0-.36,.35-.64,.81-.64h3.78c.45,0,.81,.28,.81,.64v.62c0,.17-.13,.3-.3,.3Z" style="fill:#272525;"/><g><path d="M14.37,14.79H4.57c-.56,0-1.02-.46-1.02-1.02V6.31c0-.56,.46-1.02,1.02-1.02H14.37c.56,0,1.02,.46,1.02,1.02v7.46c0,.56-.46,1.02-1.02,1.02ZM4.57,5.89c-.23,0-.42,.19-.42,.42v7.46c0,.23,.19,.42,.42,.42H14.37c.23,0,.42-.19,.42-.42V6.31c0-.23-.19-.42-.42-.42H4.57Z" style="fill:#272525;"/><path d="M10.4,11.31h-1.8c-.4,0-.72-.32-.72-.72v-1.01c0-.4,.32-.72,.72-.72h1.8c.4,0,.72,.32,.72,.72v1.01c0,.4-.32,.72-.72,.72Zm-1.8-1.85c-.07,0-.12,.05-.12,.12v1.01c0,.07,.05,.12,.12,.12h1.8c.06,0,.12-.05,.12-.12v-1.01c0-.06-.05-.12-.12-.12h-1.8Z" style="fill:#272525;"/><path d="M8,9.88s-.09,0-.13-.03L3.75,7.8c-.15-.07-.21-.25-.13-.4s.25-.21,.4-.13l4.11,2.05c.15,.07,.21,.25,.13,.4-.05,.11-.16,.17-.27,.17Z" style="fill:#272525;"/><path d="M10.91,9.97c-.11,0-.22-.06-.27-.17-.07-.15-.01-.33,.13-.4l4.11-2.05c.15-.07,.33-.01,.4,.13,.07,.15,.01,.33-.13,.4l-4.11,2.05s-.09,.03-.13,.03Z" style="fill:#272525;"/></g></g><path d="M18.61,12.29c-.13,0-.28-.07-.34-.18-.07-.15,0-.39,.16-.47h0c.15-.07,.39,0,.46,.16,.07,.15,0,.39-.16,.47-.04,.02-.08,.03-.13,.03Zm.08-.13v0Z" style="fill:#272525;"/><path d="M10.42,16.3c-.13,0-.28-.07-.34-.18-.04-.07-.04-.19-.02-.27,.03-.07,.1-.16,.17-.2h0c.07-.04,.19-.04,.26-.02,.08,.03,.17,.11,.2,.18,.03,.07,.04,.19,.01,.27-.03,.08-.11,.17-.18,.2-.04,.02-.08,.02-.12,.02Z" style="fill:#272525;"/><path d="M16.52,18.38c-.13,0-.28-.07-.34-.18-.04-.07-.03-.19,0-.26,.03-.08,.09-.17,.16-.2h0c.07-.04,.19-.04,.26-.02,.08,.03,.17,.11,.2,.18,.07,.15-.01,.39-.16,.46-.04,.02-.08,.03-.13,.03Zm-.05-.38h0Z" style="fill:#272525;"/><path d="M18.8,15.77s-.08,0-.11-.02c-.08-.03-.17-.11-.2-.19-.06-.15,.02-.38,.16-.45,.14-.07,.39,0,.47,.16,.04,.07,.04,.19,.02,.27s-.11,.17-.18,.2c-.04,.02-.1,.03-.16,.03Zm.12-.12h0Zm-.11-.22h0Z" style="fill:#272525;"/><path d="M13.01,18.62c-.13,0-.28-.07-.34-.18-.04-.07-.04-.19-.02-.27,.03-.07,.1-.16,.17-.2h0c.07-.04,.19-.04,.27-.02s.17,.11,.2,.18c.07,.15-.01,.39-.16,.46-.04,.02-.08,.03-.13,.03Zm-.03-.34-.02-.04h0Z" style="fill:#272525;"/><path d="M19.19,14.29c-.15,0-.28-.12-.3-.27l-.07-.72c0-.1,.04-.2,.12-.27l.74-.56-.84-1.73-.96,.21c-.08,.02-.17,0-.24-.05l-.6-.42c-.13-.09-.17-.28-.07-.42,.1-.14,.28-.17,.42-.07l.49,.34,1.06-.23c.13-.03,.27,.04,.33,.16l1.06,2.16c.06,.13,.03,.28-.09,.37l-.8,.61,.05,.55c.01,.17-.11,.31-.27,.33h-.03Z" style="fill:#272525;"/><path d="M11.67,18.01c-.07,0-.14-.02-.2-.07l-.41-.37-1.04,.23c-.13,.03-.27-.04-.33-.16l-1.06-2.16c-.06-.13-.03-.28,.09-.37l.94-.71c.13-.1,.32-.07,.42,.06s.07,.32-.06,.42l-.74,.56,.84,1.73,.96-.21c.09-.02,.19,0,.26,.07l.53,.46c.12,.11,.14,.3,.03,.42-.06,.07-.14,.1-.23,.1Z" style="fill:#272525;"/><path d="M15.81,19.82c-.09,0-.18-.04-.24-.12l-.61-.81-.55,.05c-.18,.02-.31-.11-.33-.27-.01-.17,.11-.31,.27-.33l.72-.07c.1-.01,.2,.04,.27,.12l.56,.74,1.73-.84-.21-.96c-.02-.1,0-.21,.09-.28l.49-.46c.12-.11,.31-.11,.42,.01,.11,.12,.11,.31-.01,.42l-.36,.34,.23,1.03c.03,.14-.04,.27-.16,.33l-2.16,1.06s-.09,.03-.13,.03Z" style="fill:#272525;"/><path d="M13.78,19.96s-.07,0-.1-.02l-2.27-.78c-.14-.05-.22-.18-.2-.33l.14-1-.43-.36c-.13-.11-.14-.3-.04-.42,.11-.13,.3-.14,.42-.04l.55,.46c.08,.07,.12,.17,.1,.27l-.13,.92,1.82,.62,.53-.83c.05-.08,.14-.13,.23-.14l.66-.05c.16-.02,.31,.11,.32,.28,.01,.17-.11,.31-.28,.32l-.51,.04-.58,.9c-.06,.09-.15,.14-.25,.14Z" style="fill:#272525;"/><path d="M17.74,17.66c-.07,0-.14-.02-.19-.07-.13-.11-.14-.29-.04-.42l.46-.55c.07-.08,.17-.12,.27-.1l.92,.13,.62-1.82-.83-.53c-.09-.06-.14-.16-.14-.27l.03-.65c0-.17,.14-.29,.31-.29,.17,0,.29,.15,.29,.31l-.02,.48,.88,.56c.12,.08,.17,.22,.12,.35l-.78,2.27c-.05,.13-.19,.22-.33,.2l-1-.14-.35,.43c-.06,.07-.14,.11-.23,.11Z" style="fill:#272525;"/><path d="M17.7,10.93c-.07,0-.13-.02-.19-.07l-.47-.38c-.08-.07-.12-.17-.11-.27l.13-.92-1.83-.64c-.16-.05-.24-.22-.18-.38,.05-.16,.22-.24,.38-.19l.13,.04h.02l1.92,.68c.13,.05,.22,.18,.2,.32l-.14,1,.34,.27c.13,.1,.15,.29,.04,.42-.06,.07-.15,.11-.23,.11Z" style="fill:#272525;"/><path d="M14.46,16.47c-.17,0-.35-.02-.52-.06-.64-.14-1.19-.52-1.54-1.06-.14-.22-.25-.47-.32-.73-.04-.16,.06-.32,.22-.36,.16-.04,.32,.06,.36,.22,.05,.19,.13,.38,.24,.55,.55,.86,1.7,1.1,2.56,.55s1.1-1.7,.55-2.56c-.24-.37-.58-.63-.99-.76-.16-.05-.25-.22-.2-.38,.05-.16,.22-.25,.38-.2,.54,.17,1.01,.53,1.32,1,.73,1.13,.41,2.65-.73,3.39-.4,.26-.86,.39-1.32,.39Z" style="fill:#272525;"/></svg>