<?xml version="1.0" encoding="UTF-8"?><svg id="a" xmlns="http://www.w3.org/2000/svg" viewBox="0 0 24 24"><g><path d="M4.19,19.97c-.07,0-.14-.02-.2-.07-.12-.11-.14-.3-.03-.42,.05-.06,5.49-6.17,15.82-6.94,.19-.01,.31,.11,.32,.28,.01,.17-.11,.31-.28,.32-10.07,.76-15.36,6.68-15.41,6.74-.06,.07-.14,.1-.23,.1Z" style="fill:#272525;"/><path d="M6.94,19.97c-.07,0-.15-.03-.21-.08-.12-.11-.13-.3-.01-.42,.18-.19,4.53-4.7,13.03-5.29,.17-.02,.31,.11,.32,.28,.01,.17-.11,.31-.28,.32-8.26,.57-12.59,5.05-12.64,5.1-.06,.06-.14,.09-.22,.09Z" style="fill:#272525;"/><path d="M10.12,19.97c-.08,0-.16-.03-.22-.1-.11-.12-.1-.31,.02-.42,.15-.13,3.67-3.29,9.87-3.62,.17,0,.31,.12,.32,.28s-.12,.31-.28,.32c-5.98,.32-9.46,3.43-9.5,3.46-.06,.05-.13,.08-.2,.08Z" style="fill:#272525;"/><path d="M13.63,19.97c-.1,0-.19-.05-.25-.13-.09-.14-.05-.32,.08-.42,.12-.08,2.88-1.89,6.38-1.96,.18,.02,.3,.13,.31,.29,0,.17-.13,.3-.29,.31-3.32,.07-6.04,1.84-6.06,1.86-.05,.03-.11,.05-.17,.05Z" style="fill:#272525;"/><path d="M7.09,17.07s-.08,0-.12-.03c-1.53-.69-2.79-.89-2.8-.9-.16-.03-.27-.18-.25-.34,.03-.16,.17-.28,.34-.25,.05,0,1.34,.22,2.95,.94,.15,.07,.22,.25,.15,.4-.05,.11-.16,.18-.27,.18Z" style="fill:#272525;"/><path d="M9.48,16.04s-.08,0-.12-.03c-2.93-1.34-5.22-1.65-5.25-1.65-.16-.02-.28-.17-.26-.34,.02-.16,.16-.27,.34-.26,.1,.01,2.4,.32,5.42,1.7,.15,.07,.22,.25,.15,.4-.05,.11-.16,.17-.27,.17Z" style="fill:#272525;"/><path d="M11.51,14.97c-.05,0-.1-.01-.15-.04-3.18-1.84-7.16-2.37-7.2-2.37-.16-.02-.28-.17-.26-.34,.02-.16,.18-.27,.34-.26,.17,.02,4.14,.54,7.42,2.45,.14,.08,.19,.27,.11,.41-.06,.1-.16,.15-.26,.15Z" style="fill:#272525;"/><path d="M14.17,13.89s-.1-.01-.14-.04c-4.67-2.52-9.82-3.23-9.88-3.23-.16-.02-.28-.17-.26-.34,.02-.16,.18-.27,.34-.26,.05,0,5.31,.73,10.08,3.3,.15,.08,.2,.26,.12,.41-.05,.1-.16,.16-.26,.16Z" style="fill:#272525;"/></g><path d="M13.75,9.72h-4.78c-.15,0-.28-.12-.3-.27-.02-.21,.02-.41,.11-.58,.15-.26,.42-.44,.71-.48,.2-.6,.76-1.02,1.41-1.02,.47,0,.9,.22,1.18,.58,.41-.21,.9-.21,1.31,.03h0c.53,.3,.78,.91,.64,1.5-.03,.14-.15,.23-.29,.23Zm-4.41-.6h4.13c-.02-.25-.15-.48-.38-.61-.29-.17-.65-.13-.9,.1-.07,.07-.17,.09-.26,.07-.09-.02-.17-.08-.21-.17-.14-.32-.46-.53-.82-.53-.44,0-.81,.32-.88,.76-.02,.16-.17,.28-.34,.25-.13-.02-.26,.03-.35,.13Z" style="fill:#272525;"/><path d="M19.81,7.01h-6.53c-.16,0-.29-.12-.3-.27-.02-.27,.02-.51,.14-.72,.2-.35,.56-.57,.96-.61,.24-.8,.99-1.38,1.84-1.38,.64,0,1.23,.32,1.58,.83,.54-.32,1.21-.33,1.76,0,.68,.39,1.01,1.17,.82,1.93-.03,.13-.15,.23-.29,.23Zm-6.2-.6h5.94c.02-.42-.2-.82-.57-1.04h0c-.44-.25-.98-.19-1.36,.15-.07,.07-.17,.09-.26,.07-.09-.02-.17-.08-.21-.17-.21-.48-.69-.79-1.21-.79-.65,0-1.21,.49-1.31,1.13-.02,.16-.18,.28-.34,.25-.27-.03-.51,.08-.63,.3-.02,.03-.03,.06-.04,.09Z" style="fill:#272525;"/></svg>