<?xml version="1.0" encoding="UTF-8"?><svg id="a" xmlns="http://www.w3.org/2000/svg" viewBox="0 0 24 24"><path d="M16.55,19.94H7.43c-.88,0-1.59-.7-1.59-1.56V5.61c0-.86,.71-1.56,1.59-1.56h6.77c.42,0,.82,.16,1.12,.46l2.36,2.31c.3,.29,.47,.69,.47,1.11v10.45c0,.86-.71,1.56-1.59,1.56ZM7.43,4.65c-.54,0-.99,.43-.99,.96v12.76c0,.53,.44,.96,.99,.96h9.12c.54,0,.99-.43,.99-.96V7.92c0-.25-.1-.5-.29-.68l-2.36-2.31c-.19-.18-.44-.28-.7-.28H7.43Z" style="fill:#272525;"/><g><path d="M12.57,14.21h-3.17c-.17,0-.3-.13-.3-.3s.13-.3,.3-.3h3.17c.17,0,.3,.13,.3,.3s-.13,.3-.3,.3Z" style="fill:#272525;"/><path d="M8.41,14.21h-.46c-.17,0-.3-.13-.3-.3s.13-.3,.3-.3h.46c.17,0,.3,.13,.3,.3s-.13,.3-.3,.3Z" style="fill:#272525;"/><path d="M8.41,15.61h-.46c-.17,0-.3-.13-.3-.3s.13-.3,.3-.3h.46c.17,0,.3,.13,.3,.3s-.13,.3-.3,.3Z" style="fill:#272525;"/><path d="M16.03,15.61h-6.56c-.17,0-.3-.13-.3-.3s.13-.3,.3-.3h6.56c.17,0,.3,.13,.3,.3s-.13,.3-.3,.3Z" style="fill:#272525;"/><path d="M8.41,16.93h-.46c-.17,0-.3-.13-.3-.3s.13-.3,.3-.3h.46c.17,0,.3,.13,.3,.3s-.13,.3-.3,.3Z" style="fill:#272525;"/><path d="M16.03,16.93h-6.56c-.17,0-.3-.13-.3-.3s.13-.3,.3-.3h6.56c.17,0,.3,.13,.3,.3s-.13,.3-.3,.3Z" style="fill:#272525;"/><path d="M8.41,18.24h-.46c-.17,0-.3-.13-.3-.3s.13-.3,.3-.3h.46c.17,0,.3,.13,.3,.3s-.13,.3-.3,.3Z" style="fill:#272525;"/><path d="M16.03,18.24h-6.56c-.17,0-.3-.13-.3-.3s.13-.3,.3-.3h6.56c.17,0,.3,.13,.3,.3s-.13,.3-.3,.3Z" style="fill:#272525;"/></g><path d="M17.4,7.81h-2.52c-.17,0-.3-.13-.3-.3v-2.72c0-.17,.13-.3,.3-.3s.3,.13,.3,.3v2.42h2.22c.17,0,.3,.13,.3,.3s-.13,.3-.3,.3Z" style="fill:#272525;"/><path d="M11.31,12.1c-1.52,0-2.75-1.23-2.75-2.75s1.23-2.75,2.75-2.75,2.75,1.23,2.75,2.75-1.23,2.75-2.75,2.75Zm0-4.91c-1.19,0-2.15,.97-2.15,2.15s.97,2.15,2.15,2.15,2.15-.97,2.15-2.15-.97-2.15-2.15-2.15Z" style="fill:#272525;"/><path d="M10.92,10.22c-.08,0-.16-.03-.22-.1l-.88-.96c-.11-.12-.1-.31,.02-.42,.12-.11,.31-.1,.42,.02l.68,.75,1.23-1c.13-.1,.32-.08,.42,.04,.1,.13,.09,.32-.04,.42l-1.45,1.18c-.06,.04-.12,.07-.19,.07Z" style="fill:#272525;"/></svg>