<?xml version="1.0" encoding="UTF-8"?><svg id="a" xmlns="http://www.w3.org/2000/svg" viewBox="0 0 24 24"><path d="M12,19.96c-1.44,0-2.85-.39-4.08-1.12-2.4-1.43-3.88-4.05-3.88-6.84,0-4.39,3.57-7.96,7.96-7.96s7.96,3.57,7.96,7.96-3.57,7.96-7.96,7.96Zm0-15.33c-4.06,0-7.36,3.3-7.36,7.36,0,2.58,1.38,5,3.59,6.33,1.14,.68,2.44,1.04,3.77,1.04,4.06,0,7.36-3.3,7.36-7.36s-3.3-7.36-7.36-7.36Z" style="fill:#272525;"/><path d="M8.22,18.61h0c-.17,0-.3-.14-.3-.3,0-.09,.2-9.05,9.69-11.53,.16-.04,.32,.05,.37,.21,.04,.16-.05,.32-.21,.37-9.04,2.36-9.24,10.6-9.24,10.95,0,.17-.14,.3-.3,.3Z" style="fill:#272525;"/><path d="M19.17,10.67h-.01c-6.14-.26-5.99-5.83-5.99-5.89,0-.17,.11-.3,.31-.29,.17,0,.29,.15,.29,.31,0,.21-.12,5.03,5.42,5.27,.17,0,.29,.15,.29,.31,0,.16-.14,.29-.3,.29Z" style="fill:#272525;"/><path d="M16.89,17.85c-.16,0-.29-.13-.3-.29-.28-9.39-9.21-10.73-9.59-10.78-.16-.02-.28-.17-.26-.34,.02-.17,.17-.28,.34-.26,.1,.01,9.81,1.46,10.11,11.36,0,.17-.12,.3-.29,.31h0Z" style="fill:#272525;"/><path d="M12.33,19.79c-.07,0-.14-.02-.19-.07-.13-.11-.14-.3-.04-.42,.79-.94,1.23-2.14,1.23-3.38,0-2.9-2.36-5.25-5.25-5.25-1.27,0-2.49,.46-3.45,1.29-.13,.11-.32,.1-.42-.03-.11-.12-.1-.31,.03-.42,1.07-.93,2.43-1.44,3.84-1.44,3.23,0,5.85,2.63,5.85,5.85,0,1.38-.49,2.71-1.37,3.76-.06,.07-.14,.11-.23,.11Z" style="fill:#272525;"/></svg>