<?xml version="1.0" encoding="UTF-8"?><svg id="b" xmlns="http://www.w3.org/2000/svg" viewBox="0 0 24 24"><path d="M10.64,16.51h-1.92c-2.49,0-4.51-2.02-4.51-4.51s2.02-4.51,4.51-4.51h1.96c.17,0,.3,.13,.3,.3s-.13,.3-.3,.3h-1.96c-2.16,0-3.91,1.75-3.91,3.91s1.75,3.91,3.91,3.91h1.92c.17,0,.3,.13,.3,.3s-.13,.3-.3,.3Z" style="fill:#272525;"/><path d="M15.28,16.51h-1.7c-.17,0-.3-.13-.3-.3s.13-.3,.3-.3h1.7c2.16,0,3.91-1.75,3.91-3.91s-1.75-3.91-3.91-3.91h-1.78c-.17,0-.3-.13-.3-.3s.13-.3,.3-.3h1.78c2.49,0,4.51,2.02,4.51,4.51s-2.02,4.51-4.51,4.51Z" style="fill:#272525;"/><path d="M14.83,12.3h-5.66c-.17,0-.3-.13-.3-.3s.13-.3,.3-.3h5.66c.17,0,.3,.13,.3,.3s-.13,.3-.3,.3Z" style="fill:#272525;"/></svg>