<?xml version="1.0" encoding="UTF-8"?><svg id="b" xmlns="http://www.w3.org/2000/svg" viewBox="0 0 24 24"><path d="M12,19.92c-.41,0-.82-.16-1.13-.47l-6.33-6.33c-.62-.62-.62-1.63,0-2.26l6.33-6.33c.62-.62,1.63-.62,2.26,0l6.33,6.33c.62,.62,.62,1.63,0,2.26l-6.33,6.33c-.31,.31-.72,.47-1.13,.47Zm0-15.25c-.25,0-.51,.1-.7,.29l-6.33,6.33c-.39,.39-.39,1.02,0,1.41l6.33,6.33c.39,.39,1.02,.39,1.41,0l6.33-6.33c.39-.39,.39-1.02,0-1.41l-6.33-6.33c-.19-.19-.45-.29-.7-.29Z" style="fill:#272525;"/><path d="M10.49,14.62h-1.52c-.16,0-.3-.13-.3-.29,0,0-.03-1.3-.03-2.71,0-.52,.16-.93,.46-1.21,.47-.43,1.13-.38,1.16-.38h3.23v-1.51c0-.12,.07-.23,.19-.28s.24-.02,.33,.07l2.74,2.74c.06,.06,.09,.13,.09,.22s-.03,.16-.09,.21l-2.78,2.64c-.09,.08-.21,.11-.32,.06-.11-.05-.18-.16-.18-.28v-1.56h-2.66v1.98c0,.17-.13,.3-.3,.3Zm-1.22-.6h.92v-1.98c0-.17,.13-.3,.3-.3h3.26c.17,0,.3,.13,.3,.3v1.16l2.05-1.95-2.01-2.01v1.09c0,.17-.13,.3-.3,.3h-3.56s-.45-.03-.73,.23c-.18,.16-.27,.42-.27,.77,0,1,.01,1.94,.02,2.4Z" style="fill:#272525;"/></svg>