<?xml version="1.0" encoding="UTF-8"?><svg id="b" xmlns="http://www.w3.org/2000/svg" viewBox="0 0 24 24"><path d="M7.7,8.84h-2.67c-.63,0-1.15-.52-1.15-1.15v-2.67c0-.63,.52-1.15,1.15-1.15h2.67c.63,0,1.15,.52,1.15,1.15v2.67c0,.63-.52,1.15-1.15,1.15Zm-2.67-4.37c-.3,0-.55,.25-.55,.55v2.67c0,.3,.25,.55,.55,.55h2.67c.3,0,.55-.25,.55-.55v-2.67c0-.3-.25-.55-.55-.55h-2.67Z" style="fill:#272525;"/><path d="M13.33,8.84h-2.67c-.63,0-1.15-.52-1.15-1.15v-2.67c0-.63,.52-1.15,1.15-1.15h2.67c.63,0,1.15,.52,1.15,1.15v2.67c0,.63-.52,1.15-1.15,1.15Zm-2.67-4.37c-.3,0-.55,.25-.55,.55v2.67c0,.3,.25,.55,.55,.55h2.67c.3,0,.55-.25,.55-.55v-2.67c0-.3-.25-.55-.55-.55h-2.67Z" style="fill:#272525;"/><path d="M18.97,8.84h-2.67c-.63,0-1.15-.52-1.15-1.15v-2.67c0-.63,.52-1.15,1.15-1.15h2.67c.63,0,1.15,.52,1.15,1.15v2.67c0,.63-.52,1.15-1.15,1.15Zm-2.67-4.37c-.3,0-.55,.25-.55,.55v2.67c0,.3,.25,.55,.55,.55h2.67c.3,0,.55-.25,.55-.55v-2.67c0-.3-.25-.55-.55-.55h-2.67Z" style="fill:#272525;"/><path d="M7.7,14.48h-2.67c-.63,0-1.15-.52-1.15-1.15v-2.67c0-.63,.52-1.15,1.15-1.15h2.67c.63,0,1.15,.52,1.15,1.15v2.67c0,.63-.52,1.15-1.15,1.15Zm-2.67-4.37c-.3,0-.55,.25-.55,.55v2.67c0,.3,.25,.55,.55,.55h2.67c.3,0,.55-.25,.55-.55v-2.67c0-.3-.25-.55-.55-.55h-2.67Z" style="fill:#272525;"/><path d="M13.33,14.48h-2.67c-.63,0-1.15-.52-1.15-1.15v-2.67c0-.63,.52-1.15,1.15-1.15h2.67c.63,0,1.15,.52,1.15,1.15v2.67c0,.63-.52,1.15-1.15,1.15Zm-2.67-4.37c-.3,0-.55,.25-.55,.55v2.67c0,.3,.25,.55,.55,.55h2.67c.3,0,.55-.25,.55-.55v-2.67c0-.3-.25-.55-.55-.55h-2.67Z" style="fill:#272525;"/><path d="M18.97,14.48h-2.67c-.63,0-1.15-.52-1.15-1.15v-2.67c0-.63,.52-1.15,1.15-1.15h2.67c.63,0,1.15,.52,1.15,1.15v2.67c0,.63-.52,1.15-1.15,1.15Zm-2.67-4.37c-.3,0-.55,.25-.55,.55v2.67c0,.3,.25,.55,.55,.55h2.67c.3,0,.55-.25,.55-.55v-2.67c0-.3-.25-.55-.55-.55h-2.67Z" style="fill:#272525;"/><path d="M7.7,20.12h-2.67c-.63,0-1.15-.52-1.15-1.15v-2.67c0-.63,.52-1.15,1.15-1.15h2.67c.63,0,1.15,.52,1.15,1.15v2.67c0,.63-.52,1.15-1.15,1.15Zm-2.67-4.37c-.3,0-.55,.25-.55,.55v2.67c0,.3,.25,.55,.55,.55h2.67c.3,0,.55-.25,.55-.55v-2.67c0-.3-.25-.55-.55-.55h-2.67Z" style="fill:#272525;"/><path d="M13.33,20.12h-2.67c-.63,0-1.15-.52-1.15-1.15v-2.67c0-.63,.52-1.15,1.15-1.15h2.67c.63,0,1.15,.52,1.15,1.15v2.67c0,.63-.52,1.15-1.15,1.15Zm-2.67-4.37c-.3,0-.55,.25-.55,.55v2.67c0,.3,.25,.55,.55,.55h2.67c.3,0,.55-.25,.55-.55v-2.67c0-.3-.25-.55-.55-.55h-2.67Z" style="fill:#272525;"/><path d="M18.97,20.12h-2.67c-.63,0-1.15-.52-1.15-1.15v-2.67c0-.63,.52-1.15,1.15-1.15h2.67c.63,0,1.15,.52,1.15,1.15v2.67c0,.63-.52,1.15-1.15,1.15Zm-2.67-4.37c-.3,0-.55,.25-.55,.55v2.67c0,.3,.25,.55,.55,.55h2.67c.3,0,.55-.25,.55-.55v-2.67c0-.3-.25-.55-.55-.55h-2.67Z" style="fill:#272525;"/></svg>