<?xml version="1.0" encoding="UTF-8"?><svg id="b" xmlns="http://www.w3.org/2000/svg" viewBox="0 0 24 24"><path d="M17.6,19.92h-5.09c-.17,0-.3-.13-.3-.3s.13-.3,.3-.3h5.09c.93,0,1.69-.75,1.69-1.67V6.35c0-.92-.76-1.67-1.69-1.67h-5.09c-.17,0-.3-.13-.3-.3s.13-.3,.3-.3h5.09c1.26,0,2.29,1.02,2.29,2.27v11.29c0,1.25-1.03,2.27-2.29,2.27Z" style="fill:#272525;"/><g><path d="M12.2,15.01c-.08,0-.16-.03-.21-.09-.12-.12-.11-.31,0-.42l2.72-2.66c.12-.12,.31-.11,.42,0,.12,.12,.11,.31,0,.42l-2.72,2.66c-.06,.06-.13,.09-.21,.09Z" style="fill:#272525;"/><path d="M14.92,12.3c-.08,0-.16-.03-.21-.09l-2.66-2.72c-.12-.12-.11-.31,0-.42,.12-.12,.31-.11,.42,0l2.66,2.72c.12,.12,.11,.31,0,.42-.06,.06-.13,.09-.21,.09Z" style="fill:#272525;"/><path d="M14.59,12.27H4.27c-.17,0-.3-.13-.3-.3s.13-.3,.3-.3H14.59c.17,0,.3,.13,.3,.3s-.13,.3-.3,.3Z" style="fill:#272525;"/></g></svg>