<?xml version="1.0" encoding="UTF-8"?><svg id="a" xmlns="http://www.w3.org/2000/svg" viewBox="0 0 24 24"><path d="M9.53,6.8c0,.08-.03,.15-.09,.21l-4.6,4.6c-.11,.11-.17,.27-.16,.43,.01,.13,.07,.25,.16,.34l4.6,4.6c.12,.12,.12,.31,0,.42s-.31,.12-.42,0l-4.6-4.6c-.19-.19-.31-.45-.33-.72-.03-.33,.09-.67,.33-.91l4.6-4.6c.12-.12,.31-.12,.42,0,.06,.06,.09,.13,.09,.21Z" style="fill:#272525;"/><path d="M19.92,12c0,.17-.13,.3-.3,.3H4.63c-.17,0-.3-.13-.3-.3s.13-.3,.3-.3h14.98c.17,0,.3,.13,.3,.3Z" style="fill:#272525;"/></svg>