<?xml version="1.0" encoding="UTF-8"?><svg id="a" xmlns="http://www.w3.org/2000/svg" viewBox="0 0 24 24"><path d="M18.83,13.49c-.17,0-.3-.13-.3-.3,0-3.44-2.93-6.23-6.53-6.23s-6.53,2.79-6.53,6.23c0,.17-.13,.3-.3,.3s-.3-.13-.3-.3c0-3.77,3.2-6.83,7.13-6.83s7.13,3.06,7.13,6.83c0,.17-.13,.3-.3,.3Z" style="fill:#272525;"/><path d="M12,6.96c-.66,0-1.19-.53-1.19-1.19s.53-1.19,1.19-1.19,1.19,.53,1.19,1.19-.53,1.19-1.19,1.19Zm0-1.78c-.33,0-.59,.27-.59,.59s.27,.59,.59,.59,.59-.26,.59-.59-.27-.59-.59-.59Z" style="fill:#272525;"/><path d="M19.72,13.49H4.28c-.17,0-.3-.13-.3-.3s.13-.3,.3-.3h15.43c.17,0,.3,.13,.3,.3s-.13,.3-.3,.3Z" style="fill:#272525;"/><path d="M12.89,17.64H7.82c-.17,0-.3-.13-.3-.3s.13-.3,.3-.3h5.07c.37,0,.71-.09,1.04-.28,.01,0,2.33-1.22,2.41-1.27,.06-.04,.11-.13,.11-.23,0-.19-.18-.35-.39-.27-.08,.03-2.63,1.1-2.63,1.1-.1,.04-.26,.07-.36,.07h-2.66c-.17,0-.3-.13-.3-.3s.13-.3,.3-.3h2.66s.11-.01,.13-.02c2.64-1.1,2.65-1.11,2.66-1.11,.09-.04,.19-.05,.3-.05,.49,0,.89,.4,.89,.89,0,.3-.15,.57-.39,.74-.02,.01-.04,.02-2.44,1.28-.4,.23-.86,.36-1.33,.36Z" style="fill:#272525;"/><path d="M13.04,16.16c-.17,0-.3-.13-.3-.3s.13-.3,.3-.3c.24,0,.44-.2,.44-.44s-.2-.44-.44-.44h-3.99c-.31,0-.61,.05-.91,.16l-1.1,.4c-.16,.05-.33-.02-.38-.18-.06-.16,.02-.33,.18-.38l1.1-.4c.36-.13,.73-.19,1.11-.19h3.99c.57,0,1.04,.47,1.04,1.04s-.47,1.04-1.04,1.04Z" style="fill:#272525;"/><path d="M6.37,19.42s-.08,0-.12-.03c-.07-.03-.13-.09-.16-.17l-1.5-4.05c-.06-.15,.02-.33,.18-.38l1.85-.7c.07-.03,.16-.03,.23,0,.07,.03,.13,.09,.16,.17l1.5,4.05c.06,.15-.02,.33-.18,.38l-1.85,.7s-.07,.02-.11,.02Zm-1.11-4.17l1.29,3.49,1.29-.49-1.29-3.49-1.29,.49Z" style="fill:#272525;"/></svg>