<?xml version="1.0" encoding="UTF-8"?><svg id="a" xmlns="http://www.w3.org/2000/svg" viewBox="0 0 24 24"><defs><style>.b{fill:#272525;}</style></defs><path class="b" d="M8.46,19.86c-.82,0-1.72-.34-2.66-1.25l-.08-.07c-2.33-2.77,.06-5.36,.08-5.39L13.97,5.05s2.12-2.03,4.29,0c0,0,.05,.05,.05,.06,1.23,1.38,1.32,2.82,.24,4.07-1.8,1.8-8.07,7.97-8.07,7.97-.55,.48-1.91,1.05-3.19-.2-.45-.55-1.03-2.04,.04-3.06,.93-.9,5.75-5.71,5.8-5.76,.12-.12,.31-.12,.42,0s.12,.31,0,.42c-.05,.05-4.87,4.87-5.8,5.77-.84,.81-.18,2.02,0,2.22,1.17,1.14,2.29,.21,2.34,.17,0,0,6.26-6.16,8.04-7.94,.87-1,.79-2.1-.25-3.26-1.77-1.65-3.41-.09-3.48-.02L6.23,13.57c-.08,.08-2.04,2.23-.08,4.55l.06,.06c.55,.53,2.21,2.13,4.5,.05,2.59-2.46,6.26-6.22,6.29-6.26,.11-.12,.31-.12,.42,0,.12,.12,.12,.31,0,.42-.04,.04-3.71,3.81-6.31,6.28-.7,.63-1.61,1.2-2.66,1.2Z"/></svg>