<?xml version="1.0" encoding="UTF-8"?><svg id="a" xmlns="http://www.w3.org/2000/svg" viewBox="0 0 24 24"><defs><style>.b{fill:#272525;}</style></defs><path class="b" d="M18.41,12.34c.09-.07,.14-.18,.12-.29-.11-.75-.48-2.61-1.59-3.67-.55-.52-2.57-1.05-2.8-1.11-.09-.02-.19,0-.26,.05-.03,.03-.06,.06-.08,.1-.03-.05-.05-.1-.1-.12l-1.27-.69c.19-.3,.45-.75,.51-1.02,.08-.38,0-.74-.23-1.04-.24-.3-.62-.49-.99-.49-.68,0-1.23,.55-1.23,1.23,0,.17,.13,.3,.3,.3s.3-.13,.3-.3c0-.35,.28-.63,.63-.63,.19,0,.4,.1,.52,.26,.08,.1,.17,.28,.12,.53-.04,.2-.35,.7-.57,1.04l-1.43,.77c-.06,.03-.1,.09-.13,.15-.02-.04-.04-.07-.08-.1-.07-.06-.17-.08-.26-.05-.23,.06-2.29,.59-2.84,1.11-1.11,1.06-1.48,2.92-1.59,3.67-.02,.11,.03,.22,.12,.28,.05,.04,1.17,.88,2.39,.89,.07,1.62,0,3.33-.06,5.13l-.03,.81c-.02,.31,.22,.59,.53,.61,1.18,.1,2.38,.15,3.57,.15s2.39-.05,3.57-.15c.31-.03,.55-.3,.53-.61-.02-.51-.04-1-.06-1.5-.06-1.56-.13-3.04-.06-4.49,1.22,0,2.38-.8,2.43-.84Zm-7.76-4.55l1.36-.73,1.42,.76s.09,.04,.14,.04c.08,0,.15-.04,.21-.1v.14s-.04,.09-.07,.12c-.21,.21-.83,.45-1.7,.45s-1.46-.21-1.67-.41c-.04-.04-.06-.08-.06-.12v-.24c.09,.12,.24,.17,.37,.09Zm5.23,3.14c-.16-.03-.31,.1-.33,.26-.07,.51-.12,1.04-.15,1.63v.02h0c-.09,1.59-.02,3.17,.05,4.86,.02,.49,.04,.99,.08,1.48-2.35,.2-4.72,.19-7.03,0l.03-.81c.07-1.92,.14-3.74,.04-5.48,0-.02,0-.05-.01-.07,0-.02,0-.05,0-.07-.03-.5-.07-.99-.13-1.48-.02-.16-.18-.29-.33-.26-.16,.02-.28,.16-.27,.32l.11,1.29c-.78-.03-1.54-.47-1.84-.67,.22-1.37,.72-2.51,1.38-3.14,.28-.27,1.37-.64,2.2-.87,0,.19,.08,.37,.24,.53,.36,.37,1.15,.59,2.09,.59s1.74-.24,2.12-.62c.17-.18,.23-.35,.24-.49,.81,.23,1.88,.59,2.16,.86,.66,.63,1.15,1.76,1.38,3.13-.32,.19-1.1,.61-1.89,.63l.12-1.32c.02-.16-.1-.31-.27-.33Z"/></svg>