<?xml version="1.0" encoding="UTF-8"?><svg id="a" xmlns="http://www.w3.org/2000/svg" viewBox="0 0 24 24"><defs><style>.b{fill:#272525;}</style></defs><g><g><path class="b" d="M18.73,13.83H5.32c-.17,0-.3,.14-.3,.3s.14,.3,.3,.3h13.41c.17,0,.3-.14,.3-.3s-.14-.3-.3-.3Z"/><path class="b" d="M17.35,15.51h-2.95c-.17,0-.3,.14-.3,.3s.14,.3,.3,.3h2.95c.17,0,.3-.14,.3-.3s-.14-.3-.3-.3Z"/><path class="b" d="M13.3,15.81c0-.17-.14-.3-.3-.3H6.69c-.17,0-.3,.14-.3,.3s.14,.3,.3,.3h6.31c.17,0,.3-.14,.3-.3Z"/><path class="b" d="M11.16,17.49c0-.17-.14-.3-.3-.3h-2.95c-.17,0-.3,.14-.3,.3s.14,.3,.3,.3h2.95c.17,0,.3-.14,.3-.3Z"/><path class="b" d="M16.14,17.19h-3.81c-.17,0-.3,.14-.3,.3s.14,.3,.3,.3h3.81c.17,0,.3-.14,.3-.3s-.14-.3-.3-.3Z"/><path class="b" d="M13.93,18.86h-3.81c-.17,0-.3,.14-.3,.3s.14,.3,.3,.3h3.81c.17,0,.3-.14,.3-.3s-.14-.3-.3-.3Z"/></g><g><path class="b" d="M12.02,8.19c.17,0,.3-.14,.3-.3v-3.05c0-.17-.14-.3-.3-.3s-.3,.14-.3,.3v3.05c0,.17,.14,.3,.3,.3Z"/><path class="b" d="M7.45,12.16h-3.05c-.17,0-.3,.14-.3,.3s.14,.3,.3,.3h3.05c.17,0,.3-.14,.3-.3s-.14-.3-.3-.3Z"/><path class="b" d="M7.94,10.43l-1.37-.53c-.16-.06-.33,.02-.39,.17-.06,.16,.02,.33,.17,.39l1.37,.53s.07,.02,.11,.02c.12,0,.24-.07,.28-.19,.06-.16-.02-.33-.17-.39Z"/><path class="b" d="M9.91,8.31c.05,.12,.16,.19,.28,.19,.04,0,.08,0,.12-.02,.16-.06,.23-.24,.17-.4l-.53-1.3c-.06-.16-.24-.23-.4-.17-.16,.06-.23,.24-.17,.4l.53,1.3Z"/><path class="b" d="M13.74,8.55s.07,.02,.11,.02c.12,0,.24-.07,.28-.19l.53-1.37c.06-.16-.02-.33-.17-.39-.16-.06-.33,.02-.39,.17l-.53,1.37c-.06,.16,.02,.33,.17,.39Z"/><path class="b" d="M17.69,10.46c.16-.06,.23-.24,.17-.39-.06-.16-.24-.23-.39-.17l-1.37,.53c-.16,.06-.23,.24-.17,.39,.05,.12,.16,.19,.28,.19,.04,0,.07,0,.11-.02l1.37-.53Z"/><path class="b" d="M19.64,12.16h-3.05c-.17,0-.3,.14-.3,.3s.14,.3,.3,.3h3.05c.17,0,.3-.14,.3-.3s-.14-.3-.3-.3Z"/><path class="b" d="M8.53,9.4c.06,.06,.14,.09,.22,.09s.16-.03,.22-.09c.12-.12,.12-.31,0-.43l-2.13-2.13c-.12-.12-.31-.12-.43,0-.12,.12-.12,.31,0,.43l2.13,2.13Z"/><path class="b" d="M15.22,9.49c.08,0,.16-.03,.22-.09l2.17-2.17c.12-.12,.12-.31,0-.43-.12-.12-.31-.12-.43,0l-2.17,2.17c-.12,.12-.12,.31,0,.43,.06,.06,.14,.09,.22,.09Z"/><path class="b" d="M12.02,8.8c-2.02,0-3.66,1.64-3.66,3.66,0,.21,.02,.42,.05,.62,.03,.17,.19,.28,.35,.25,.17-.03,.28-.19,.25-.35-.03-.17-.04-.34-.04-.52,0-1.68,1.37-3.05,3.05-3.05s3.05,1.37,3.05,3.05c0,.17-.01,.35-.04,.52-.03,.17,.08,.32,.25,.35,.02,0,.03,0,.05,0,.15,0,.27-.1,.3-.25,.03-.2,.05-.41,.05-.62,0-2.02-1.64-3.66-3.66-3.66Z"/></g></g><g><path class="b" d="M12.01,8.19c-.17,0-.3-.13-.3-.3v-3.08c0-.17,.13-.3,.3-.3s.3,.13,.3,.3v3.08c0,.17-.13,.3-.3,.3Z"/><path class="b" d="M13.83,8.58s-.07,0-.11-.02c-.15-.06-.23-.24-.17-.39l.54-1.37c.06-.15,.24-.23,.39-.17,.15,.06,.23,.24,.17,.39l-.54,1.37c-.05,.12-.16,.19-.28,.19Z"/><path class="b" d="M15.23,9.49c-.08,0-.15-.03-.21-.09-.12-.12-.12-.31,0-.42l2.17-2.17c.12-.12,.31-.12,.42,0,.12,.12,.12,.31,0,.42l-2.17,2.17c-.06,.06-.14,.09-.21,.09Z"/><path class="b" d="M16.21,11.01c-.12,0-.23-.07-.28-.19-.06-.15,.02-.33,.17-.39l1.37-.54c.16-.06,.33,.02,.39,.17,.06,.15-.02,.33-.17,.39l-1.37,.54s-.07,.02-.11,.02Z"/><path class="b" d="M16.59,12.76c-.17,0-.3-.13-.3-.3s.13-.3,.3-.3h3.05c.17,0,.3,.13,.3,.3s-.13,.3-.3,.3h-3.05Z"/></g><path class="b" d="M10.22,8.58c-.12,0-.23-.07-.28-.19l-.54-1.37c-.06-.15,.02-.33,.17-.39,.15-.06,.33,.02,.39,.17l.54,1.37c.06,.15-.02,.33-.17,.39-.04,.01-.07,.02-.11,.02Z"/><path class="b" d="M8.83,9.49c-.08,0-.15-.03-.21-.09l-2.17-2.17c-.12-.12-.12-.31,0-.42,.12-.12,.31-.12,.42,0l2.17,2.17c.12,.12,.12,.31,0,.42-.06,.06-.14,.09-.21,.09Z"/><path class="b" d="M7.84,11.01s-.07,0-.11-.02l-1.37-.54c-.15-.06-.23-.23-.17-.39s.23-.23,.39-.17l1.37,.54c.15,.06,.23,.23,.17,.39-.05,.12-.16,.19-.28,.19Z"/><path class="b" d="M7.47,12.76h-3.05c-.17,0-.3-.14-.3-.3s.13-.3,.3-.3h3.05c.17,0,.3,.14,.3,.3s-.13,.3-.3,.3Z"/><path class="b" d="M18.73,14.43H5.33c-.17,0-.3-.13-.3-.3s.13-.3,.3-.3h13.4c.17,0,.3,.13,.3,.3s-.13,.3-.3,.3Z"/><path class="b" d="M13,16.11H6.71c-.17,0-.3-.14-.3-.3s.13-.3,.3-.3h6.28c.17,0,.3,.14,.3,.3s-.13,.3-.3,.3Z"/><path class="b" d="M14.4,16.12c-.17,0-.3-.13-.3-.3,0-.17,.13-.3,.3-.3h2.96c.17,0,.3,.13,.3,.29,0,.17-.13,.3-.3,.3h-2.96Z"/><path class="b" d="M12.32,17.79c-.17,0-.3-.13-.3-.3,0-.17,.13-.3,.3-.3h3.81c.17,0,.3,.13,.3,.29,0,.17-.13,.3-.3,.3h-3.81Z"/><path class="b" d="M13.91,19.47h-3.8c-.17,0-.3-.13-.3-.3s.13-.3,.3-.3h3.8c.17,0,.3,.13,.3,.3s-.13,.3-.3,.3Z"/><path class="b" d="M7.93,17.81c-.16,0-.3-.13-.3-.3,0-.17,.13-.3,.3-.3l2.92-.03h0c.16,0,.3,.13,.3,.3,0,.17-.13,.3-.3,.3l-2.92,.03h0Z"/><path class="b" d="M8.71,13.32c-.15,0-.27-.11-.3-.26,0-.07-.23-1.72,.77-2.95,.62-.77,1.57-1.2,2.82-1.28,.19,0,.31,.12,.32,.28,.01,.17-.12,.31-.28,.32-1.07,.07-1.88,.42-2.39,1.06-.84,1.03-.65,2.48-.64,2.5,.02,.16-.09,.32-.25,.34-.01,0-.03,0-.04,0Z"/><path class="b" d="M15.32,13.32s-.03,0-.04,0c-.16-.02-.28-.18-.25-.34,0-.01,.19-1.46-.64-2.49-.51-.63-1.32-.99-2.39-1.06-.17-.01-.29-.15-.28-.32,.01-.16,.13-.28,.32-.28,1.25,.08,2.2,.51,2.82,1.28,1,1.24,.78,2.88,.77,2.95-.02,.15-.15,.26-.3,.26Z"/></svg>