<?xml version="1.0" encoding="UTF-8"?><svg id="a" xmlns="http://www.w3.org/2000/svg" viewBox="0 0 24 24"><defs><style>.b{fill:#272525;}</style></defs><g><g><path class="b" d="M16.4,16.59c-.13,0-.24-.11-.24-.24h0c0-.62-.21-2.24-2.18-4.11-.72-.68-1.12-1.64-1.1-2.63,.02-.92,.39-1.78,1.05-2.43,.66-.65,1.53-1.01,2.44-1.02,.95,0,1.84,.36,2.51,1.02,.67,.67,1.04,1.55,1.04,2.5s-.39,1.88-1.1,2.56c-1.61,1.53-2.18,3.12-2.18,4.11,0,.13-.11,.24-.24,.24Zm0-9.95h-.02c-.79,0-1.54,.32-2.11,.88-.57,.56-.89,1.31-.91,2.1-.02,.86,.33,1.69,.95,2.27,.54,.51,1.62,1.67,2.1,3.09,.41-1.19,1.27-2.32,2.09-3.09,.61-.58,.95-1.36,.95-2.21s-.32-1.58-.9-2.16c-.57-.57-1.34-.88-2.14-.88Z"/><path class="b" d="M16.4,10.83c-.63,0-1.14-.51-1.14-1.14s.51-1.14,1.14-1.14,1.14,.51,1.14,1.14-.51,1.14-1.14,1.14Zm0-1.8c-.36,0-.66,.3-.66,.66s.3,.66,.66,.66,.66-.3,.66-.66-.3-.66-.66-.66Z"/></g><path class="b" d="M18.87,18.85H5.45c-.74,0-1.34-.6-1.34-1.34V6.52c0-.74,.6-1.34,1.34-1.34h.79c.13,0,.24,.11,.24,.24v11c0,.13-.11,.24-.24,.24h-.79c-.47,0-.86,.38-.86,.86s.38,.86,.86,.86h13.17v-5.15c0-.13,.11-.24,.24-.24s.24,.11,.24,.24v5.39c0,.13-.11,.24-.24,.24ZM5.45,5.66c-.47,0-.86,.38-.86,.86v9.98c.23-.19,.53-.31,.86-.31h.55V5.66h-.55Z"/><path class="b" d="M12.85,7.65H6.24c-.13,0-.24-.11-.24-.24s.11-.24,.24-.24h6.61c.13,0,.24,.11,.24,.24s-.11,.24-.24,.24Z"/><path class="b" d="M9.34,13.68h-2.11c-.13,0-.24-.11-.24-.24s.11-.24,.24-.24h1.87v-2.8l-1.92-1.49c-.1-.08-.12-.23-.04-.34,.08-.1,.23-.12,.34-.04l2.01,1.56c.06,.05,.09,.11,.09,.19v3.16c0,.13-.11,.24-.24,.24Z"/><path class="b" d="M9.34,17.95c-.13,0-.24-.11-.24-.24v-3h-1.87c-.13,0-.24-.11-.24-.24s.11-.24,.24-.24h2.11c.13,0,.24,.11,.24,.24v3.24c0,.13-.11,.24-.24,.24Z"/><path class="b" d="M13.84,13.68h-3.42c-.13,0-.24-.11-.24-.24v-2.93c0-.13,.11-.24,.24-.24h1.64c.13,0,.24,.11,.24,.24s-.11,.24-.24,.24h-1.4v2.45h3.18c.13,0,.24,.11,.24,.24s-.11,.24-.24,.24Z"/><path class="b" d="M14.3,17.95c-.09,0-.18-.05-.22-.14l-1.46-3.1h-1.96v3c0,.13-.11,.24-.24,.24s-.24-.11-.24-.24v-3.24c0-.13,.11-.24,.24-.24h2.35c.09,0,.18,.05,.22,.14l1.53,3.24c.06,.12,0,.26-.11,.32-.03,.02-.07,.02-.1,.02Z"/><path class="b" d="M15.37,17.95c-.09,0-.18-.05-.22-.14l-1.53-3.24c-.03-.07-.03-.16,.01-.23,.04-.07,.12-.11,.2-.11h.76c.13,0,.24,.11,.24,.24s-.11,.24-.24,.24h-.39l1.37,2.9c.06,.12,0,.26-.11,.32-.03,.02-.07,.02-.1,.02Z"/><path class="b" d="M11.77,9.6h-1.67c-.06,0-.11-.02-.16-.06l-1.08-.95c-.1-.09-.11-.24-.02-.34,.09-.1,.24-.11,.34-.02l1.02,.89h1.58c.13,0,.24,.11,.24,.24s-.11,.24-.24,.24Z"/></g><path class="b" d="M5.44,18.93s-.04,0-.06,0c-1.2-.24-1.46-1.21-1.3-2.03,.01-.06,.02-.1,.03-.13V6.24c.09-.48,.29-.79,.62-.98,.65-.38,1.54-.1,1.58-.09,.12,.04,.21,.16,.21,.28l.02,10.96c0,.09-.04,.18-.12,.24-.07,.06-.17,.08-.26,.05-.04,0-1.09-.27-1.49,.47,0,.01-.02,.03-.03,.04-.03,.46,.12,.96,.86,1.1,.16,.03,.27,.19,.24,.35-.03,.14-.15,.24-.29,.24Zm.11-13.26c-.18,0-.37,.03-.52,.12-.17,.1-.28,.27-.32,.52v10.01c.42-.24,.9-.26,1.22-.23l-.02-10.38c-.1-.02-.23-.03-.36-.03Z"/><path class="b" d="M5.44,18.93c-.17,0-.3-.13-.3-.3s.13-.3,.3-.3h13.44c.17,0,.3,.13,.3,.29s-.13,.3-.3,.3H5.44Z"/><path class="b" d="M18.88,18.92h0c-.17,0-.3-.13-.3-.3v-5.31c0-.17,.14-.3,.3-.3h0c.17,0,.3,.13,.3,.3v5.31c0,.17-.14,.3-.3,.3Z"/><path class="b" d="M12.78,7.68H6.5c-.17,0-.3-.13-.3-.3s.13-.3,.3-.3h6.28c.17,0,.3,.13,.3,.3s-.13,.3-.3,.3Z"/><path class="b" d="M10.03,9.64c-.07,0-.14-.03-.2-.07l-1-.87c-.12-.11-.14-.3-.03-.42,.11-.13,.3-.14,.42-.03l.91,.8,1.63-.02h0c.16,0,.3,.13,.3,.3,0,.17-.13,.3-.3,.3l-1.75,.02h0Z"/><path class="b" d="M9.33,13.71h0l-2.18-.02c-.17,0-.3-.14-.3-.3,0-.17,.14-.26,.3-.3l1.88,.02-.02-2.73-1.84-1.39c-.13-.1-.16-.29-.06-.42,.1-.13,.29-.16,.42-.06l1.95,1.48c.07,.06,.12,.14,.12,.24l.02,3.18c0,.08-.03,.16-.09,.21-.06,.06-.13,.09-.21,.09Z"/><path class="b" d="M13.86,13.77h-3.41c-.17,0-.3-.13-.3-.3v-2.93c0-.17,.13-.3,.3-.3h1.64c.17,0,.3,.13,.3,.3s-.13,.3-.3,.3h-1.34v2.33h3.11c.17,0,.3,.13,.3,.3s-.13,.3-.3,.3Z"/><path class="b" d="M9.33,18.01c-.17,0-.3-.13-.3-.3v-2.94h-1.82c-.17,0-.3-.13-.3-.3s.13-.3,.3-.3h2.12c.17,0,.3,.13,.3,.3v3.24c0,.17-.13,.3-.3,.3Z"/><path class="b" d="M10.43,18.05c-.17,0-.3-.13-.3-.3v-3.26c0-.17,.13-.3,.3-.3h2.33c.12,0,.22,.07,.27,.17l1.54,3.22c.07,.15,0,.33-.14,.4-.14,.07-.33,.01-.4-.14l-1.46-3.05h-1.84v2.96c0,.17-.13,.3-.3,.3Z"/><path class="b" d="M15.37,18.03c-.11,0-.22-.06-.27-.17l-1.54-3.26c-.04-.09-.04-.2,.02-.29,.05-.09,.15-.14,.25-.14h.81c.17,0,.3,.13,.3,.3s-.13,.3-.3,.3h-.34l1.34,2.83c.07,.15,0,.33-.14,.4-.04,.02-.08,.03-.13,.03Z"/><path class="b" d="M16.39,10.91c-.65,0-1.18-.53-1.18-1.18s.53-1.18,1.18-1.18,1.18,.53,1.18,1.18-.53,1.18-1.18,1.18Zm0-1.76c-.32,0-.58,.26-.58,.58s.26,.58,.58,.58,.58-.26,.58-.58-.26-.58-.58-.58Z"/><path class="b" d="M16.41,16.58h-.02c-.17-.01-.29-.16-.28-.32,0-.1,.2-2.37,1.86-3.9,1.44-1.33,1.4-2.3,1.4-2.31-.06-1.24-.42-2.15-1.07-2.73-.85-.75-1.93-.67-1.94-.67-.16,.03-.31-.11-.32-.27-.01-.16,.11-.31,.27-.32,.06,0,1.33-.11,2.38,.81,.79,.69,1.22,1.75,1.28,3.15,0,.04,.09,1.24-1.59,2.79-1.48,1.37-1.67,3.48-1.67,3.5-.01,.16-.14,.28-.3,.28Z"/><path class="b" d="M16.41,16.5c-.16,0-.29-.12-.3-.28,0-.02-.19-2.13-1.67-3.5-1.68-1.55-1.6-2.75-1.59-2.8,.06-1.34,.49-2.36,1.28-3.03,1.14-.97,2.59-.83,2.65-.82,.17,.02,.28,.17,.27,.33-.02,.16-.17,.29-.33,.27-.01,0-1.27-.12-2.2,.68-.65,.56-1.01,1.44-1.06,2.61,0,.02-.04,.99,1.4,2.32,1.66,1.53,1.86,3.8,1.86,3.9,.01,.17-.11,.31-.28,.32h-.02Z"/></svg>