<?xml version="1.0" encoding="UTF-8"?><svg id="a" xmlns="http://www.w3.org/2000/svg" viewBox="0 0 24 24"><defs><style>.b{fill:#272525;}</style></defs><g><path class="b" d="M11.78,7.53h-.03c-.13-.02-.22-.13-.21-.26l.15-1.29c.01-.11,0-.23-.04-.34l-.17-.43c-.14-.37-.49-.61-.89-.61h-.09c-.38,0-.72,.22-.87,.57l-.2,.45c-.15,.34-.13,.74,.07,1.07l.03,.06c.07,.11,.03,.26-.08,.33-.11,.07-.26,.03-.33-.08l-.03-.06c-.27-.45-.31-1.02-.09-1.5l.2-.45c.23-.52,.74-.85,1.31-.85h.09c.59,0,1.11,.36,1.33,.91l.17,.43c.07,.18,.1,.38,.07,.57l-.15,1.29c-.01,.12-.12,.21-.24,.21Z"/><path class="b" d="M10.29,17.01c-.11,0-.22-.03-.32-.09-.24-.16-.33-.48-.2-.73l.42-.84-2.15-1.44c-.07-.05-.13-.1-.19-.16-.27-.29-.42-.66-.42-1.05-.01-.65,.37-1.23,.96-1.48l1.29-.55c.12-.05,.26,0,.31,.13,.05,.12,0,.26-.13,.31l-1.29,.55c-.42,.18-.68,.58-.67,1.04,0,.27,.11,.53,.3,.73,.03,.03,.07,.06,.11,.09l2.33,1.55c.1,.07,.13,.2,.08,.3l-.51,1.03s0,.1,.03,.13c.04,.03,.1,.02,.13-.03l.53-.75c.08-.11,.22-.13,.33-.05,.11,.08,.13,.22,.05,.33l-.53,.75c-.11,.16-.29,.24-.47,.24Z"/><path class="b" d="M12.18,18.55c-.19,0-.37-.08-.49-.22-.13-.14-.19-.32-.17-.51l.09-.96-2.2-3.04h0c-.12-.18-.18-.38-.18-.59,0-.46,.31-.87,.75-1l.17-.05c.13-.04,.26,.03,.3,.16,.04,.13-.03,.26-.16,.3l-.17,.05c-.24,.07-.41,.3-.41,.55,0,.11,.03,.22,.1,.32l2.24,3.11s.05,.1,.04,.16l-.09,1.05c0,.05,.01,.11,.05,.15,.04,.04,.09,.06,.14,.06,.09,0,.17-.06,.19-.15l.24-1.09c.01-.05,0-.11-.05-.14-.15-.11-.34-.3-.45-.56-.08-.19-.12-.49-.18-.82-.06-.41-.13-.88-.27-1.16-.18-.36-.5-.6-.5-.6-.11-.08-.13-.22-.06-.33,.08-.11,.22-.13,.33-.06,.02,.01,.42,.3,.65,.77,.17,.35,.25,.85,.32,1.3,.04,.3,.09,.57,.15,.72,.07,.17,.2,.29,.3,.37,.19,.14,.28,.39,.23,.62l-.24,1.09c-.07,.3-.34,.52-.65,.52Z"/><g><path class="b" d="M10.64,12.92c-.1,0-.19-.02-.28-.07-.16-.08-.28-.23-.33-.4-.27-.97-.91-3.31-.99-4.2,0-.05,0-.1,.03-.14l.63-1.08c.05-.08,.15-.13,.24-.11l.74,.12c.27,.04,.48,.26,.51,.53l.05,.32c.05,.35-.13,.69-.45,.85l-.27,.14c.07,.27,.31,.63,.53,.95,.29,.43,.57,.84,.6,1.22,0,.13-.09,.24-.22,.25-.13,0-.24-.09-.25-.22-.02-.26-.27-.63-.52-.99-.31-.45-.63-.92-.63-1.35,0-.09,.05-.17,.13-.21l.42-.21c.13-.07,.21-.21,.19-.36l-.05-.32c0-.06-.06-.11-.12-.12l-.58-.09-.51,.87c.1,.9,.7,3.11,.96,4.04,.02,.06,.06,.09,.08,.1,.02,.01,.07,.03,.13,0,1.27-.51,1.84-.88,1.95-1.05,.41-.64,.32-2.27,.11-3.2-.03-.13,.05-.26,.18-.29,.13-.03,.26,.05,.29,.18,.16,.68,.23,1.43,.19,2.1-.04,.64-.16,1.16-.36,1.46-.21,.33-.94,.74-2.18,1.24-.08,.03-.16,.05-.24,.05Z"/><path class="b" d="M11.13,10.6c-.12,0-.23-.1-.24-.22-.05-.82,.65-1.47,.68-1.5,.1-.09,.25-.08,.34,.02,.09,.1,.08,.25-.01,.33,0,0-.56,.53-.52,1.12,0,.13-.09,.24-.22,.25h-.01Z"/></g><path class="b" d="M11.83,13.93c-.08,0-.15-.04-.2-.1-.07-.11-.05-.26,.06-.33l1.86-1.28c.53-.37,.84-.97,.82-1.62l-.07-2.31s0-.03,0-.04c.04-.32-.05-.64-.25-.89l-.6-.73c-.26-.32-.63-.53-1.03-.61l-.45-.09c-.13-.02-.21-.15-.19-.28,.02-.13,.15-.21,.28-.19l.45,.09c.51,.1,.98,.37,1.31,.77l.6,.73c.28,.34,.41,.79,.36,1.23l.06,2.29c.02,.81-.36,1.57-1.03,2.03l-1.86,1.28s-.09,.04-.13,.04Z"/><path class="b" d="M8.49,11.67s-.07,0-.1-.02c-.12-.05-.17-.19-.12-.31l.9-1.98c.05-.12,.19-.17,.31-.12,.12,.05,.17,.19,.12,.31l-.9,1.98c-.04,.09-.13,.14-.22,.14Z"/><path class="b" d="M14.78,17.86c-.08,0-.16-.04-.2-.12-.07-.11-.03-.26,.08-.33,.52-.31,.95-.75,1.25-1.27,.31-.54,.48-1.15,.48-1.77,0-1.33-.73-2.53-1.91-3.14-.12-.06-.16-.2-.1-.32,.06-.12,.2-.16,.32-.1,1.34,.69,2.17,2.06,2.17,3.56,0,.71-.19,1.4-.54,2.01-.34,.59-.83,1.09-1.42,1.44-.04,.02-.08,.03-.12,.03Z"/><path class="b" d="M9.87,17.89s-.08-.01-.12-.03c-.61-.37-1.1-.92-1.41-1.61-.33-.74-.45-1.6-.33-2.51,.02-.13,.14-.22,.27-.21,.13,.02,.22,.14,.21,.27-.1,.82,0,1.6,.29,2.26,.27,.6,.69,1.08,1.22,1.39,.11,.07,.15,.21,.08,.33-.04,.07-.12,.12-.2,.12Z"/><path class="b" d="M16.06,18.88c-.13,0-.24-.11-.24-.24v-.75h-2.31c-.13,0-.24-.11-.24-.24s.11-.24,.24-.24h2.55c.13,0,.24,.11,.24,.24v.99c0,.13-.11,.24-.24,.24Z"/><path class="b" d="M7.94,18.88c-.13,0-.24-.11-.24-.24v-.99c0-.13,.11-.24,.24-.24h3.83c.13,0,.24,.11,.24,.24s-.11,.24-.24,.24h-3.6v.75c0,.13-.11,.24-.24,.24Z"/><path class="b" d="M17.27,19.87H6.73c-.13,0-.24-.11-.24-.24v-.99c0-.13,.11-.24,.24-.24h10.53c.13,0,.24,.11,.24,.24v.99c0,.13-.11,.24-.24,.24Zm-10.29-.47h10.06v-.52H6.97v.52Z"/></g><path class="b" d="M17.2,19.91H6.76c-.17,0-.3-.13-.3-.3v-.97c0-.17,.13-.3,.3-.3h10.36s.08,0,.12,.03c.15,.02,.26,.15,.26,.3v.95c0,.17-.13,.3-.3,.3Zm-10.14-.6h9.84v-.37H7.06v.37Z"/><path class="b" d="M7.93,18.86c-.17,0-.3-.13-.3-.3v-.9c0-.17,.13-.3,.3-.3s.3,.13,.3,.3v.9c0,.17-.13,.3-.3,.3Z"/><path class="b" d="M11.72,17.96h-3.78c-.17,0-.3-.13-.3-.3s.13-.3,.3-.3h3.78c.17,0,.3,.13,.3,.3s-.13,.3-.3,.3Z"/><path class="b" d="M16.05,18.92c-.17,0-.3-.13-.3-.3v-.65h-2.24c-.17,0-.3-.13-.3-.3s.13-.3,.3-.3h2.54c.17,0,.3,.13,.3,.3v.95c0,.17-.13,.3-.3,.3Z"/><path class="b" d="M12.13,18.63c-.16,0-.33-.04-.49-.16-.36-.27-.25-1.02-.12-1.52l-2.22-3.17c-.05-.1-.28-.6-.05-1.05,.14-.29,.42-.47,.83-.55,.16-.02,.32,.08,.35,.24,.03,.16-.08,.32-.24,.35-.21,.04-.35,.12-.41,.23-.08,.16,0,.41,.03,.49l2.28,3.24c.05,.07,.07,.17,.04,.25-.12,.43-.17,.93-.11,1.04,.06,.04,.14,.02,.21,0l.3-1.12h0s-.04-.2-.27-.48c-.18-.21-.27-.61-.38-1.11-.11-.48-.22-1.03-.43-1.37-.08-.13-.17-.21-.26-.25-.15-.06-.23-.24-.16-.39,.06-.15,.24-.23,.39-.16,.21,.09,.39,.25,.54,.49,.26,.42,.39,1.02,.51,1.56,.07,.33,.16,.75,.25,.85,.42,.5,.41,.91,.4,.95l-.34,1.33c-.02,.08-.07,.14-.14,.18-.12,.07-.31,.14-.52,.14Z"/><path class="b" d="M11.85,13.93c-.09,0-.19-.04-.24-.12-.1-.13-.07-.32,.07-.42l2.24-1.61c.16-.1,.33-.62,.41-1.04,.03-.16,.18-.27,.35-.24,.16,.03,.27,.18,.24,.35-.05,.27-.23,1.16-.66,1.43l-2.22,1.6c-.05,.04-.11,.06-.17,.06Z"/><path class="b" d="M15.03,17.85c-.07,0-.13-.02-.19-.06-.13-.1-.15-.29-.05-.42,.19-.24,.36-.41,.52-.58,.46-.46,.79-.79,1.01-2.35,.26-1.95-1.71-3.02-1.8-3.07-.15-.08-.2-.26-.12-.41,.08-.15,.26-.2,.4-.12,.1,.05,2.44,1.31,2.11,3.68-.24,1.75-.67,2.19-1.17,2.69-.15,.15-.31,.31-.48,.52-.06,.08-.15,.11-.24,.11Z"/><path class="b" d="M9.48,17.75c-.07,0-.13-.02-.19-.07-1.77-1.41-1.33-3.82-1.31-3.92,.02-.1,.09-.18,.18-.22,.09-.04,.2-.03,.28,.03l2.2,1.44c.12,.08,.17,.24,.11,.37,0,.02-.24,.54-.47,.9-.09,.13-.08,.19-.08,.19h0s.02,.03,.1,.07c0-.01,.09-.11,.14-.2l.34-.57c.08-.14,.27-.19,.41-.1,.14,.08,.19,.27,.1,.41l-.33,.56c-.17,.34-.55,.63-.93,.44-.22-.11-.36-.26-.41-.45-.05-.2,0-.42,.16-.68,.12-.18,.24-.42,.32-.59l-1.57-1.03c-.03,.7,.08,2.03,1.14,2.87,.13,.1,.15,.29,.05,.42-.06,.07-.15,.11-.23,.11Z"/><path class="b" d="M8.11,14c-.08,0-.17-.03-.22-.1-.43-.48-.61-.97-.54-1.45,.11-.72,.77-1.11,.8-1.13l1.55-.69c.15-.07,.33,0,.4,.15,.07,.15,0,.33-.15,.4l-1.52,.67h0s-.42,.27-.48,.69c-.04,.29,.09,.61,.39,.96,.11,.12,.1,.31-.02,.42-.06,.05-.13,.08-.2,.08Z"/><path class="b" d="M12.94,11.69c-.07,0-.14-.02-.2-.07-.12-.11-.14-.3-.03-.42,.34-.39,.19-2-.03-3.01-.04-.16,.07-.32,.23-.36,.17-.04,.32,.07,.36,.23,.1,.46,.56,2.77-.1,3.53-.06,.07-.14,.1-.23,.1Z"/><path class="b" d="M10.72,12.97c-.13,0-.24-.08-.28-.21-.05-.16,.03-.33,.19-.38,.62-.21,1.7-.66,1.97-.99,.1-.13,.3-.15,.42-.04,.13,.11,.15,.29,.04,.42-.48,.57-2.07,1.12-2.25,1.18-.03,.01-.06,.02-.09,.02Z"/><path class="b" d="M10.68,12.97c-.08,0-.17-.02-.27-.09-.7-.46-1.26-3.53-1.42-4.46-.03-.16,.08-.32,.25-.35,.17-.03,.32,.08,.35,.25,.29,1.76,.81,3.76,1.13,4.04,.13-.01,.27,.09,.3,.23,.04,.16-.06,.32-.22,.37-.03,0-.07,.01-.12,.01Z"/><path class="b" d="M11.45,11.47s-.07,0-.1-.02c-.16-.06-.24-.23-.18-.38,0-.02,.02-.12-.1-.23-.33-.28-.93-1.58-1.11-1.97-.06-.14-.01-.3,.12-.38,.01,0,.25-.15,.58-.28,.03-.04,.05-.29,.04-.52l-.05-.05-.6-.12-.49,.85c-.08,.14-.27,.19-.41,.11-.14-.08-.19-.27-.11-.41l.6-1.04c.06-.11,.19-.17,.32-.14l.89,.18c.06,.01,.11,.04,.15,.08l.2,.19c.05,.05,.08,.12,.09,.19,.03,.25,.08,1.06-.41,1.25-.1,.04-.18,.08-.25,.11,.32,.68,.69,1.39,.83,1.5,.36,.31,.34,.71,.28,.89-.04,.12-.16,.2-.28,.2Z"/><path class="b" d="M11.09,10.4s-.06,0-.1-.02c-.16-.05-.24-.22-.19-.38,.11-.32,.39-1.07,.76-1.24,.15-.07,.33,0,.4,.15s0,.33-.15,.4c-.09,.06-.31,.49-.44,.88-.04,.12-.16,.2-.28,.2Z"/><path class="b" d="M8.42,11.78s-.09,0-.13-.03c-.15-.07-.21-.25-.13-.4l.97-1.94c.07-.15,.25-.21,.4-.13s.21,.25,.13,.4l-.97,1.94c-.05,.11-.16,.17-.27,.17Z"/><path class="b" d="M11.82,7.59h-.02c-.17-.01-.29-.16-.28-.32l.12-1.66c.01-.17,.15-.3,.32-.28,.17,.01,.29,.16,.28,.32l-.12,1.66c-.01,.16-.14,.28-.3,.28Z"/><path class="b" d="M14.63,11c-.16,0-.29-.13-.3-.29l-.07-2.27s-.03-1.12-.91-1.83c-.86-.69-1.36-.6-1.37-.6-.08,.02-.17,0-.24-.06-.07-.05-.11-.13-.12-.22,0,0-.06-.71-.54-.91-.6-.25-.96-.14-1.05-.07-.11,.08-.35,.34-.47,.73-.16,.49-.26,.89,0,1.07,.14,.09,.17,.28,.07,.42-.09,.14-.28,.17-.42,.07-.63-.44-.37-1.26-.23-1.69,.17-.55,.48-.92,.7-1.08,.28-.21,.86-.33,1.64,0,.57,.24,.78,.79,.86,1.14,.32,.03,.86,.17,1.56,.74,1.11,.89,1.14,2.23,1.14,2.29l.07,2.26c0,.17-.12,.3-.29,.31h0Z"/></svg>