<?xml version="1.0" encoding="UTF-8"?><svg id="a" xmlns="http://www.w3.org/2000/svg" viewBox="0 0 24 24"><defs><style>.b{fill:#272525;}</style></defs><g><path class="b" d="M7.12,16.2h-2.77c-.16,0-.29-.13-.29-.29v-7.82c0-.16,.13-.29,.29-.29h2.77c.16,0,.29,.13,.29,.29v7.82c0,.16-.13,.29-.29,.29Zm-2.48-.58h2.19v-7.24h-2.19v7.24Z"/><path class="b" d="M16.54,13.94H7.11c-.16,0-.29-.13-.29-.29v-3.65c0-.16,.13-.29,.29-.29h9.43c.16,0,.29,.13,.29,.29v3.65c0,.16-.13,.29-.29,.29Zm-9.14-.58h8.85v-3.07H7.4v3.07Z"/><path class="b" d="M19.65,16.16h-5.85c-.16,0-.29-.13-.29-.29v-1.91c0-.16,.13-.29,.29-.29s.29,.13,.29,.29v1.62h5.27v-6.26h-5.27v.54c0,.16-.13,.29-.29,.29s-.29-.13-.29-.29v-.83c0-.16,.13-.29,.29-.29h5.85c.16,0,.29,.13,.29,.29v6.84c0,.16-.13,.29-.29,.29Z"/><path class="b" d="M16.55,11.64H7.15c-.16,0-.29-.13-.29-.29s.13-.29,.29-.29h9.39c.16,0,.29,.13,.29,.29s-.13,.29-.29,.29Z"/><path class="b" d="M16.55,12.83H7.15c-.16,0-.29-.13-.29-.29s.13-.29,.29-.29h9.39c.16,0,.29,.13,.29,.29s-.13,.29-.29,.29Z"/></g><path class="b" d="M16.47,13.96H7.29c-.17,0-.3-.13-.3-.3s.13-.3,.3-.3h9.18c.17,0,.3,.13,.3,.3s-.13,.3-.3,.3Z"/><path class="b" d="M16.47,12.84H7.29c-.17,0-.3-.13-.3-.3s.13-.3,.3-.3h9.18c.17,0,.3,.13,.3,.3s-.13,.3-.3,.3Z"/><path class="b" d="M16.47,11.64H7.29c-.17,0-.3-.13-.3-.3s.13-.3,.3-.3h9.18c.17,0,.3,.13,.3,.3s-.13,.3-.3,.3Z"/><path class="b" d="M16.47,10.3H7.29c-.17,0-.3-.13-.3-.3s.13-.3,.3-.3h9.18c.17,0,.3,.13,.3,.3s-.13,.3-.3,.3Z"/><path class="b" d="M7.09,16.15h-2.7c-.17,0-.3-.13-.3-.3v-7.74c0-.17,.13-.3,.3-.3h2.7c.17,0,.3,.13,.3,.3v7.74c0,.17-.13,.3-.3,.3Zm-2.4-.6h2.1v-7.14h-2.1v7.14Z"/><path class="b" d="M19.64,16.15h-5.87c-.08,0-.16-.03-.21-.09s-.09-.13-.09-.21l.04-6.78c0-.17,.13-.3,.3-.3h5.83c.17,0,.3,.13,.3,.3v6.78c0,.17-.13,.3-.3,.3Zm-5.56-.6h5.26v-6.18h-5.23l-.04,6.18Z"/><path class="b" d="M16.54,13.95c-.17,0-.3-.13-.3-.3v-3.66c-.01-.17,.12-.3,.29-.3h0c.17,0,.3,.13,.3,.3v3.66c.01,.17-.12,.3-.29,.3h0Z"/></svg>