<?xml version="1.0" encoding="UTF-8"?><svg id="a" xmlns="http://www.w3.org/2000/svg" viewBox="0 0 24 24"><defs><style>.b{fill:#272525;}</style></defs><g><path class="b" d="M16.12,19.93H7.88c-.17,0-.3-.13-.3-.3s.13-.3,.3-.3h8.23c.17,0,.3,.13,.3,.3s-.13,.3-.3,.3Z"/><g><path class="b" d="M12,18.09c-.14,0-.28-.07-.36-.19-1.04-1.54-4.45-6.75-4.45-9.02,0-2.65,2.16-4.81,4.81-4.81s4.81,2.16,4.81,4.81c0,2.27-3.4,7.48-4.45,9.02-.08,.12-.22,.19-.36,.19Zm0-13.43c-2.32,0-4.21,1.89-4.21,4.21,0,1.63,2.24,5.55,4.21,8.49,1.97-2.94,4.21-6.86,4.21-8.49,0-2.32-1.89-4.21-4.21-4.21Z"/><path class="b" d="M12,11.43c-1.41,0-2.55-1.15-2.55-2.55s1.15-2.55,2.55-2.55,2.55,1.14,2.55,2.55-1.15,2.55-2.55,2.55Zm0-4.51c-1.08,0-1.96,.88-1.96,1.96s.88,1.96,1.96,1.96,1.96-.88,1.96-1.96-.88-1.96-1.96-1.96Z"/></g></g><path class="b" d="M7.87,19.98c-.17,0-.3-.13-.3-.3,0-.17,.13-.3,.3-.3l8.27-.03h0c.17,0,.3,.13,.3,.3,0,.17-.13,.3-.3,.3l-8.27,.03h0Z"/><path class="b" d="M11.87,17.99c-.1,0-.19-.05-.25-.13-.18-.27-4.36-6.56-4.38-8.91,0-.17,.13-.3,.3-.3h0c.16,0,.3,.13,.3,.3,.03,2.18,4.24,8.53,4.29,8.59,.09,.14,.05,.32-.08,.42-.05,.03-.11,.05-.17,.05Z"/><path class="b" d="M7.53,9.24h-.01c-.17,0-.29-.14-.29-.31,.17-4.79,4.7-4.87,4.74-4.87h0c.17,0,.3,.13,.3,.3s-.13,.3-.3,.3c-.16,0-4,.09-4.15,4.29,0,.16-.14,.29-.3,.29Z"/><path class="b" d="M12.15,18c-.06,0-.12-.02-.17-.05-.14-.09-.18-.28-.08-.42,.04-.06,4.26-6.41,4.29-8.59,0-.16,.14-.3,.3-.3h0c.17,0,.3,.14,.3,.3-.03,2.36-4.21,8.65-4.38,8.91-.06,.09-.15,.13-.25,.13Z"/><path class="b" d="M16.49,9.25c-.16,0-.3-.13-.3-.29-.09-4.18-4-4.29-4.17-4.3-.17,0-.3-.14-.29-.3,0-.16,.14-.29,.3-.29h0s4.66,.12,4.76,4.88c0,.17-.13,.3-.29,.31h0Z"/><path class="b" d="M11.99,11.42c-1.39,0-2.53-1.13-2.53-2.53s1.13-2.53,2.53-2.53,2.53,1.13,2.53,2.53-1.13,2.53-2.53,2.53Zm0-4.45c-1.06,0-1.93,.86-1.93,1.93s.86,1.93,1.93,1.93,1.93-.87,1.93-1.93-.86-1.93-1.93-1.93Z"/></svg>