<?xml version="1.0" encoding="UTF-8"?><svg id="a" xmlns="http://www.w3.org/2000/svg" viewBox="0 0 24 24"><path d="M9.61,16.59s-.05,0-.08-.01c-.16-.05-.25-.21-.21-.37,.35-1.22,1.38-2.01,2.64-2.01,.17,0,.3,.13,.3,.3s-.13,.3-.3,.3c-.98,0-1.79,.62-2.06,1.57-.04,.13-.16,.22-.29,.22Z" style="fill:#272525;"/><path d="M14.31,16.59c-.13,0-.25-.09-.29-.22-.27-.96-1.08-1.57-2.06-1.57-.17,0-.3-.13-.3-.3s.13-.3,.3-.3c1.26,0,2.29,.79,2.64,2.01,.04,.16-.05,.33-.21,.37-.03,0-.05,.01-.08,.01Z" style="fill:#272525;"/><path d="M11.96,13.95c-.7,0-1.27-.57-1.27-1.27v-.54c0-.7,.57-1.27,1.27-1.27s1.27,.57,1.27,1.27v.54c0,.7-.57,1.27-1.27,1.27Zm0-2.49c-.37,0-.67,.3-.67,.67v.54c0,.37,.3,.67,.67,.67s.67-.3,.67-.67v-.54c0-.37-.3-.67-.67-.67Z" style="fill:#272525;"/><path d="M7.05,14.59c-.7,0-1.26-.57-1.26-1.26v-.54c0-.7,.57-1.26,1.26-1.26s1.26,.57,1.26,1.26v.54c0,.7-.57,1.26-1.26,1.26Zm0-2.46c-.37,0-.66,.3-.66,.66v.54c0,.37,.3,.66,.66,.66s.66-.3,.66-.66v-.54c0-.37-.3-.66-.66-.66Z" style="fill:#272525;"/><path d="M7.05,19.85h-.83c-.1,0-.19-.05-.25-.13s-.07-.19-.03-.28l1.06-2.5c.07-.15,.24-.22,.39-.16,.15,.07,.22,.24,.16,.39l-.89,2.08h.37c.17,0,.3,.13,.3,.3s-.13,.3-.3,.3Z" style="fill:#272525;"/><path d="M4.26,19.83s-.02,0-.02,0c-.17-.01-.29-.16-.27-.32,.03-.37,.32-3.6,1.57-4.37,.33-.2,.7-.23,1.07-.08,.14,.06,.29,.14,.46,.22,.67,.34,1.66,.85,3.35,.81,.28,0,.48,.12,.62,.34,.15,.25,.16,.6,.02,.85-.12,.22-.34,.36-.6,.36-1.78,.03-3.05-.18-3.97-.66-.15-.08-.2-.26-.13-.41,.08-.15,.26-.2,.41-.13,.83,.44,1.99,.62,3.68,.6,.11,0,.11-.15,.11-.18,0-.04-.01-.17-.12-.17h0c-1.83,.07-2.92-.51-3.64-.88-.15-.08-.29-.15-.41-.2-.2-.08-.37-.07-.53,.04-.84,.52-1.22,3-1.29,3.91-.01,.16-.14,.28-.3,.28Z" style="fill:#272525;"/><path d="M15.22,18.65h-6.3c-.17,0-.3-.13-.3-.3s.13-.3,.3-.3h6.3c.17,0,.3,.13,.3,.3s-.13,.3-.3,.3Z" style="fill:#272525;"/><path d="M16.95,14.59c-.7,0-1.26-.57-1.26-1.26v-.54c0-.7,.57-1.26,1.26-1.26s1.26,.57,1.26,1.26v.54c0,.7-.57,1.26-1.26,1.26Zm0-2.46c-.37,0-.66,.3-.66,.66v.54c0,.37,.3,.66,.66,.66s.66-.3,.66-.66v-.54c0-.37-.3-.66-.66-.66Z" style="fill:#272525;"/><path d="M17.78,19.85h-.84c-.17,0-.3-.13-.3-.3s.13-.3,.3-.3h.39l-.89-2.08c-.06-.15,0-.33,.16-.39,.15-.06,.33,0,.39,.16l1.06,2.5c.04,.09,.03,.2-.03,.28s-.15,.13-.25,.13Z" style="fill:#272525;"/><path d="M19.74,19.83c-.16,0-.29-.12-.3-.28-.07-.91-.45-3.39-1.29-3.91-.16-.1-.33-.11-.53-.03-.12,.05-.25,.12-.41,.2-.72,.37-1.81,.92-3.64,.88h0c-.1,0-.11,.13-.12,.17,0,.03,0,.18,.11,.18,1.7,.03,2.86-.16,3.68-.6,.14-.08,.33-.02,.41,.13,.08,.15,.02,.33-.13,.41-.92,.48-2.18,.69-3.97,.66-.26,0-.48-.14-.6-.36-.14-.26-.13-.6,.02-.85,.13-.22,.35-.35,.61-.34,1.68,.04,2.68-.47,3.35-.81,.17-.09,.32-.16,.45-.22,.38-.15,.75-.12,1.08,.08,1.25,.78,1.54,4.01,1.57,4.37,.01,.17-.11,.31-.27,.32,0,0-.02,0-.02,0Z" style="fill:#272525;"/><path d="M8.69,11.08c-.06,0-.11-.02-.16-.05-.11-.07-.16-.2-.13-.32l.36-1.47c-.59-.09-1.05-.6-1.05-1.22v-2.77c0-.68,.55-1.23,1.23-1.23h4.98c.68,0,1.23,.55,1.23,1.23v2.77c0,.68-.55,1.24-1.23,1.24h-2.86l-2.18,1.76c-.05,.04-.12,.07-.19,.07Zm.25-6.46c-.35,0-.63,.29-.63,.63v2.77c0,.35,.28,.64,.63,.64h.2c.09,0,.18,.04,.24,.11,.06,.07,.08,.17,.05,.26l-.24,.96,1.57-1.27c.05-.04,.12-.07,.19-.07h2.97c.35,0,.63-.29,.63-.64v-2.77c0-.35-.29-.63-.63-.63h-4.98Z" style="fill:#272525;"/><path d="M10.51,6.89h-.11c-.17,0-.3-.13-.3-.3s.13-.3,.3-.3h.11c.17,0,.3,.13,.3,.3s-.13,.3-.3,.3Z" style="fill:#272525;"/><path d="M11.57,6.9h-.11c-.17,0-.3-.13-.3-.3s.13-.3,.3-.3h.11c.17,0,.3,.13,.3,.3s-.13,.3-.3,.3Z" style="fill:#272525;"/><path d="M12.62,6.91h-.11c-.17,0-.3-.13-.3-.3s.13-.3,.3-.3h.11c.17,0,.3,.13,.3,.3s-.13,.3-.3,.3Z" style="fill:#272525;"/></svg>