<?xml version="1.0" encoding="utf-8"?>
<!-- Generator: Adobe Illustrator 26.4.1, SVG Export Plug-In . SVG Version: 6.00 Build 0)  -->
<svg version="1.1" id="a" xmlns="http://www.w3.org/2000/svg" xmlns:xlink="http://www.w3.org/1999/xlink" x="0px" y="0px"
	 viewBox="0 0 24 24" style="enable-background:new 0 0 24 24;" xml:space="preserve">
<style type="text/css">
	.st0{fill:#272525;}
</style>
<path class="st0" d="M17.7,5.5h-1.2V5c0-0.5-0.4-0.9-0.9-0.9H8.4C7.9,4.1,7.5,4.5,7.5,5v0.5H6.3C6,5.5,5.8,5.8,5.8,6.1v0.6C5.8,7,6,7.2,6.3,7.2h0.2l1.4,10.6C8,18.5,8.4,19,9,19.2H8.9v0.3c0,0.2,0.2,0.4,0.4,0.4h1c0.2,0,0.4-0.2,0.4-0.4v-0.1h2.8v0.1c0,0.2,0.2,0.4,0.4,0.4h1c0.2,0,0.4-0.2,0.4-0.4v-0.3h-0.1c0.6-0.2,1-0.8,1-1.4l1.4-10.6h0.1c0.3,0,0.6-0.2,0.6-0.6V6.1C18.3,5.8,18,5.5,17.7,5.5L17.7,5.5z M15.6,17.8c-0.1,0.6-0.6,1.1-1.3,1.1H9.7c-0.6,0-1.2-0.5-1.3-1.1L7,7.2h10.1L15.6,17.8zM17.8,6.7C17.8,6.7,17.7,6.7,17.8,6.7l-0.4,0.1c0,0,0,0-0.1,0H6.7c0,0-0.1,0-0.1,0H6.3c0,0-0.1,0-0.1-0.1V6.1c0,0,0-0.1,0.1-0.1h8.3c0.1,0,0.2-0.1,0.2-0.2s-0.1-0.2-0.2-0.2H7.9V5c0-0.2,0.2-0.4,0.4-0.4h7.3C15.9,4.6,16,4.8,16,5v0.5h-0.3c-0.1,0-0.2,0.1-0.2,0.2S15.6,6,15.7,6h2c0,0,0.1,0,0.1,0.1C17.8,6.1,17.8,6.7,17.8,6.7z"/>
</svg>
