<?xml version="1.0" encoding="UTF-8"?><svg id="a" xmlns="http://www.w3.org/2000/svg" viewBox="0 0 24 24"><path d="M13.74,4.04H6.81c-.58,0-1.05,.47-1.05,1.05v13.82c0,.58,.47,1.05,1.05,1.05h10.38c.58,0,1.05-.47,1.05-1.05V8.54l-4.5-4.49Zm.26,1.11l3.11,3.11h-3.11v-3.11Zm3.19,14.21H6.81c-.25,0-.45-.2-.45-.45V5.09c0-.25,.2-.45,.45-.45h6.59s0,.01,0,.02v3.89c0,.17,.13,.3,.3,.3h3.94v10.06c0,.25-.2,.45-.45,.45Z" style="fill:#272525;"/><path d="M14.87,10.67h-4.23c-.17,0-.3,.13-.3,.3v3.63c-.25-.19-.56-.31-.91-.31-.83,0-1.51,.68-1.51,1.51s.68,1.51,1.51,1.51,1.51-.68,1.51-1.51c0-.03,0-.07-.01-.1,0,0,0,0,0,0v-4.43h3.63v3.34c-.25-.19-.57-.31-.91-.31-.83,0-1.51,.68-1.51,1.51s.68,1.51,1.51,1.51,1.51-.68,1.51-1.51c0-.03,0-.06,0-.08,0,0,0-.01,0-.02v-4.73c0-.17-.13-.3-.3-.3Zm-5.43,6.05c-.5,0-.91-.41-.91-.91s.41-.91,.91-.91,.91,.41,.91,.91-.41,.91-.91,.91Zm4.22,0c-.5,0-.91-.41-.91-.91s.41-.91,.91-.91,.91,.41,.91,.91-.41,.91-.91,.91Z" style="fill:#272525;"/></svg>