<?xml version="1.0" encoding="UTF-8"?><svg id="a" xmlns="http://www.w3.org/2000/svg" viewBox="0 0 24 24"><path d="M19.89,14.79c-.05-.09-.15-.14-.25-.14h-1.79v-4.55c0-.17-.13-.3-.3-.3s-.3,.13-.3,.3v4.55h-4.82l-1.74-1.3c-.05-.04-.12-.06-.18-.06h-3.36c-.12,0-.22,.07-.27,.17l-2.19,4.61v-7.97c0-.17-.13-.3-.3-.3s-.3,.13-.3,.3v9.31s.02,.03,.02,.05c0,.04,.02,.07,.04,.1,.02,.03,.04,.06,.07,.08,.02,.01,.02,.03,.04,.04,.02,.01,.04,0,.07,0,.02,0,.04,.03,.06,.03h13.16c.07,0,.13-.03,.19-.08,.02-.01,.03-.03,.04-.04,.01-.02,.04-.03,.05-.05l2.09-4.46c.04-.09,.04-.2-.02-.29Zm-2.53,4.32H4.86l2.48-5.22h3.08l1.74,1.3c.05,.04,.12,.06,.18,.06h6.84l-1.81,3.86Z" style="fill:#272525;"/><path d="M7.89,11.04c-.17,0-.3,.13-.3,.3s.13,.3,.3,.3h4.48c.17,0,.3-.13,.3-.3s-.13-.3-.3-.3H7.89Z" style="fill:#272525;"/><path d="M13.94,7.46h-3.08c-.17,0-.3,.13-.3,.3s.13,.3,.3,.3h3.08c.17,0,.3-.13,.3-.3s-.13-.3-.3-.3Z" style="fill:#272525;"/><path d="M14.24,9.55c0-.17-.13-.3-.3-.3H7.89c-.17,0-.3,.13-.3,.3s.13,.3,.3,.3h6.05c.17,0,.3-.13,.3-.3Z" style="fill:#272525;"/><path d="M5.71,14.52h0c.17,0,.3-.13,.3-.3,0-2.03,.02-5.41,.02-6.44,.02,0,.04,.03,.06,.03h1.66c.5-.09,1.43-.62,1.43-2,0-.76,0-1.18,.02-1.4h5.51c.11,0,1.08,.05,1.08,1.2V13.84c0,.17,.13,.3,.3,.3s.3-.13,.3-.3V5.6c0-1.42-1.1-1.79-1.68-1.79h-5.79s-.05,.03-.08,.03c-.04,.01-.08,.02-.11,.05,0,0-.02,0-.03,.01l-3.19,3.37c-.05,.06-.08,.13-.08,.21,0,0-.01,4.33-.02,6.74,0,.17,.13,.3,.3,.3Zm2-7.31h-1.31l2.2-2.33c0,.24,0,.53,0,.92,0,1.19-.84,1.39-.88,1.4Z" style="fill:#272525;"/></svg>