<?xml version="1.0" encoding="UTF-8"?><svg id="a" xmlns="http://www.w3.org/2000/svg" viewBox="0 0 24 24"><path d="M18.02,10.81h-.38c-.32,0-.53-.21-.53-.53v-.11c-.51-.05-.94-.17-1.29-.36-.27-.13-.38-.39-.27-.68l.24-.64c.07-.17,.17-.28,.3-.33,.09-.04,.23-.06,.42,.02,.31,.13,.63,.2,.92,.2,.11,0,.19,0,.26-.01-.1-.04-.21-.08-.34-.12-.25-.07-.45-.15-.62-.22-.17-.08-.35-.18-.54-.32-.21-.16-.37-.35-.48-.59-.1-.23-.16-.5-.16-.8,0-.65,.27-1.44,1.53-1.66v-.14c0-.32,.21-.53,.53-.53h.38c.32,0,.53,.21,.53,.53v.14c.39,.06,.71,.16,.96,.3,.27,.14,.37,.4,.27,.68l-.23,.61c-.12,.3-.39,.42-.69,.32-.29-.1-.65-.13-.95-.14,.09,.04,.19,.07,.31,.12l.35,.12c.09,.03,.2,.07,.34,.14,.16,.06,.28,.13,.37,.2,.07,.05,.16,.12,.26,.21,.12,.1,.21,.22,.27,.34,.06,.11,.1,.24,.14,.38,.04,.15,.06,.31,.06,.48,0,.51-.17,.92-.5,1.22-.25,.23-.57,.39-.94,.49v.18c0,.32-.21,.53-.53,.53Zm-.32-.6h.25s0-.36,0-.36c0-.15,.11-.27,.25-.3,.37-.06,.67-.19,.89-.39,.2-.18,.3-.44,.3-.78,0-.12-.01-.23-.04-.32h0c-.03-.1-.06-.18-.09-.25-.03-.05-.07-.11-.14-.16-.08-.07-.16-.13-.22-.18-.04-.03-.11-.07-.25-.13-.13-.05-.23-.09-.3-.12l-.35-.12c-.3-.1-.5-.18-.63-.25-.28-.15-.33-.34-.33-.48,0-.25,.16-.55,.92-.55,.36,0,.7,.05,1.02,.15l.2-.51c-.25-.13-.57-.21-.98-.26-.15-.02-.27-.15-.27-.3v-.33h-.25s0,.33,0,.33c0,.15-.12,.28-.27,.3-1.12,.12-1.26,.65-1.26,1.1,0,.21,.04,.4,.1,.55,.07,.14,.16,.26,.29,.35,.15,.11,.3,.2,.43,.26,.15,.07,.33,.13,.55,.2,.29,.09,.49,.17,.63,.23,.31,.15,.36,.37,.36,.48,0,.39-.36,.59-1.08,.59-.36,0-.72-.07-1.1-.22l-.2,.54c.35,.17,.78,.27,1.3,.3,.16,0,.28,.14,.28,.3v.32Z" style="fill:#272525;"/><path d="M15.09,6.64c-.02-.06-.04-.12-.06-.17-.02-.05-.06-.09-.11-.13-.05-.04-.09-.08-.13-.1s-.09-.06-.16-.09c-.07-.03-.13-.05-.17-.07-.04-.01-.1-.04-.19-.07-.14-.05-.25-.09-.31-.12-.06-.03-.09-.07-.09-.12,0-.09,.11-.13,.33-.13,.18,0,.35,.03,.51,.08,.08,.03,.14,0,.17-.08l.12-.32c.03-.07,0-.13-.07-.16-.14-.08-.34-.13-.59-.16v-.21c0-.08-.04-.12-.12-.12h-.2c-.08,0-.12,.04-.12,.12v.21c-.54,.06-.81,.3-.81,.74,0,.14,.02,.26,.07,.36,.05,.1,.11,.19,.2,.25,.09,.07,.18,.12,.26,.16,.08,.04,.19,.07,.31,.11,.14,.04,.24,.08,.31,.11,.07,.03,.1,.07,.1,.11,0,.1-.14,.15-.41,.15-.18,0-.36-.04-.55-.12-.08-.03-.13,0-.17,.08l-.13,.34c-.03,.07,0,.13,.07,.16,.2,.1,.46,.17,.77,.18v.21c0,.08,.04,.12,.12,.12h.2c.08,0,.12-.04,.12-.12v-.23c.23-.04,.41-.12,.55-.25,.14-.13,.21-.3,.21-.53,0-.08,0-.15-.03-.21Z" style="fill:#272525;"/><g><path d="M12.86,13.07c-.01-.08-.31-2.01-1.27-3.48-.06-.08-.15-.14-.25-.14h-3.97c-.17,0-.3,.13-.3,.3v2.82c0,.17,.13,.3,.3,.3h.23c1.38-.09,2.73,.57,3.51,1.72,.06,.08,.15,.13,.25,.13h1.25c.17,0,.3-.13,.3-.3v-1.05s-.05-.31-.05-.31Zm-1.34,1.06c-.86-1.16-2.22-1.85-3.67-1.85-.06,0-.12,0-.18,0v-2.22h3.5c.82,1.34,1.08,3.03,1.09,3.1l.04,.27v.7s-.79,0-.79,0Z" style="fill:#272525;"/><path d="M19.91,16.41c-.32-.58-.78-1.04-1.36-1.36-.06-.53-.21-1-.43-1.39-.02-.04-.06-.08-.1-.1-.04-.02-.92-.58-3.16-.76v-1.35c0-.17-.13-.3-.3-.3h-.72c-.17,0-.3,.13-.3,.3v1.3s-.06,0-.09,0c-.1-.54-.4-1.85-1.06-3.05,.05-.09,.07-.2,.07-.3v-.24c0-.37-.3-.68-.68-.68H6.5c-.37,0-.68,.3-.68,.68v.24c0,.17,.06,.32,.17,.44v2.85c-.74,.33-1.38,.86-1.85,1.52-.22,.31-.15,.75,.17,.98,.15,.1,.32,.14,.5,.12,.19-.03,.37-.13,.48-.29,.3-.42,.69-.76,1.15-.99,.31-.16,.65-.27,.99-.31,.14-.02,.29-.03,.44-.03,1.38,0,2.58,.88,3.02,2.23,0,0,0,.02,0,.03,.09,.3,.13,.6,.13,.91,0,.47-.1,.93-.31,1.36-.04,.09-.04,.2,.02,.29s.15,.14,.25,.14h3.53c.09,0,.17-.04,.23-.1,.06-.07,.08-.15,.07-.24-.02-.1-.03-.2-.03-.31,0-.38,.1-.75,.3-1.07,.39-.62,1.07-1,1.81-1,.44,0,.86,.13,1.22,.38,.11,.08,.21,.16,.31,.26,.14,.14,.26,.31,.36,.48,.17,.31,.56,.43,.88,.26,.15-.08,.26-.22,.31-.38s.03-.34-.05-.49Zm-.61,.33c-.12-.22-.28-.43-.46-.61-.12-.12-.25-.23-.4-.33-.46-.32-1-.48-1.56-.48-.95,0-1.82,.48-2.32,1.28-.25,.42-.39,.9-.39,1.39,0,.02,0,.04,0,.05h-2.76c.13-.39,.19-.78,.19-1.19,0-.36-.05-.72-.16-1.08h0s0-.04-.01-.06c-.5-1.57-1.94-2.63-3.59-2.63-.18,0-.35,.01-.52,.04-.41,.06-.81,.18-1.18,.37-.54,.28-1.01,.68-1.37,1.18-.02,.03-.05,.04-.14,.02-.04-.03-.06-.09-.02-.14,.44-.62,1.06-1.11,1.78-1.39,.11-.05,.19-.16,.19-.28v-3.18c0-.1-.08-.26-.17-.31v-.24s.04-.08,.08-.08h5.29s.08,.04,.08,.08l-.03,.29c-.11,.09-.13,.25-.06,.38,.87,1.47,1.12,3.24,1.13,3.25,.02,.15,.15,.26,.3,.26,.22,0,.43,0,.63,.01,.07,0,.16-.03,.22-.08,.06-.06,.09-.13,.09-.22v-1.31h.12v1.33c0,.16,.12,.29,.28,.3,1.94,.12,2.86,.54,3.09,.66,.18,.34,.29,.76,.33,1.24,0,.11,.07,.2,.17,.24,.53,.26,.96,.67,1.24,1.19,0,0-.08,.04-.08,.04Z" style="fill:#272525;"/></g><path d="M16.88,20.02c-.35,0-.7-.1-1.02-.29-.61-.36-.97-1-.97-1.7,0-1.1,.89-1.99,1.99-1.99s1.99,.89,1.99,1.99c0,.7-.36,1.34-.97,1.7-.31,.19-.67,.29-1.02,.29Zm0-3.38c-.76,0-1.39,.62-1.39,1.39,0,.49,.25,.93,.68,1.19,.45,.27,.97,.27,1.42,0,.43-.25,.68-.7,.68-1.19,0-.76-.62-1.39-1.39-1.39Z" style="fill:#272525;"/><path d="M16.92,18.6c-.11,0-.22-.03-.32-.09-.19-.11-.3-.31-.3-.52,0-.34,.27-.61,.61-.61s.61,.28,.61,.61c0,.22-.11,.41-.3,.53-.1,.06-.21,.09-.31,.09Zm0-.63s-.01,0-.01,.01h.01Z" style="fill:#272525;"/><path d="M7.8,18.53c-.3,0-.59-.08-.85-.24-.51-.31-.81-.84-.81-1.42,0-.92,.75-1.67,1.66-1.67s1.67,.75,1.67,1.67c0,.58-.3,1.12-.81,1.42-.26,.16-.56,.24-.85,.24Zm0-2.73c-.59,0-1.06,.48-1.06,1.07,0,.37,.19,.71,.52,.91,.34,.21,.74,.2,1.09,0,.33-.2,.52-.54,.52-.91,0-.59-.48-1.07-1.07-1.07Z" style="fill:#272525;"/><path d="M7.8,19.94c-.54,0-1.09-.15-1.57-.45-.94-.56-1.5-1.54-1.5-2.63,0-1.69,1.38-3.07,3.07-3.07s3.07,1.38,3.07,3.07c0,1.08-.56,2.06-1.5,2.63-.49,.29-1.03,.45-1.57,.45Zm0-5.55c-1.36,0-2.47,1.11-2.47,2.47,0,.87,.45,1.66,1.21,2.11,.79,.47,1.74,.48,2.53,0,.76-.46,1.21-1.25,1.21-2.11,0-1.36-1.11-2.47-2.47-2.47Z" style="fill:#272525;"/></svg>