<?xml version="1.0" encoding="UTF-8"?><svg id="a" xmlns="http://www.w3.org/2000/svg" viewBox="0 0 24 24"><path d="M9.01,18.38h-2.08c.05-.13,.06-.3-.03-.52l-.18-.41,1.94-2.08s.04-.06,.06-.09c.14-.35,.38-.98,.38-1.21,0-.16-.13-.29-.29-.29-.15,0-.3,.12-.31,.29,0,.11-.17,.56-.32,.94l-2.03,2.18c-.08,.09-.1,.21-.06,.32l.26,.59c.02,.05,.02,.08,.02,.08-.02,.03-.12,.08-.25,.1-.13-.17-.38-.49-.73-.9-.15-.18-.18-.29-.16-.34,.04-.02,.07-.04,.1-.07,.07-.07,1.72-1.8,2.05-2.18,.38-.44,.5-1.09,.51-1.13l.61-4.45c.02-.16-.09-.32-.26-.34-.17-.02-.32,.09-.34,.26l-.61,4.44s-.09,.51-.37,.83c-.3,.34-1.76,1.87-2,2.13-.12,.07-.26,.21-.3,.41-.06,.26,.04,.55,.31,.85,.22,.25,.38,.45,.51,.61h-1.11c-.17,0-.3,.13-.3,.3s.13,.3,.3,.3h4.68c.17,0,.3-.13,.3-.3s-.13-.3-.3-.3Z" style="fill:#272525;"/><path d="M18.4,18.38h-.2c-.17,0-.3,.13-.3,.3s.13,.3,.3,.3h.2c.17,0,.3-.13,.3-.3s-.13-.3-.3-.3Z" style="fill:#272525;"/><path d="M5.9,11.29s.06,0,.09,0c.28,0,.56-.18,.9-.45,.52-.42,.81-.7,.82-.71,.12-.12,.12-.31,0-.42-.12-.12-.31-.12-.42,0,0,0-.28,.28-.77,.67-.4,.32-.51,.31-.52,.32l-.05-.07c-.16-.21-.08-.35,.02-.43l2.14-1.91s.34-.34,.91-.24c.03,0,.06-.02,.09-.02,.09,.08,.19,.16,.3,.21h.03s0,.02,0,.02c.18,.08,.36,.11,.54,.11,.3,0,.59-.11,.83-.29l2.39,.87c0,.11,.02,.21,.03,.31l-.29,.14-1.92-.79c-.15-.06-.33,0-.39,.16s.01,.33,.16,.39l1.42,.58-.95,.45s-.06,.03-.08,.05c-.25,.24-.61,.81-.2,1.28,.21,.24,.42,.31,.61,.31s.39-.08,.52-.14c.05-.02,.1-.04,.15-.06,.35-.13,.98-.49,1.01-.5,.14-.08,.2-.26,.12-.41-.08-.14-.26-.2-.41-.12,0,0-.62,.35-.93,.47-.06,.02-.12,.05-.17,.07-.27,.12-.31,.13-.44-.02-.11-.13,.06-.35,.13-.43l2.15-1.02c.15-.07,.21-.24,.15-.39-.09-.2-.09-.77-.07-1.21,.2-.01,.41-.07,.59-.17l.03-.02c.08-.05,.14-.12,.21-.18,.07-.01,.6-.1,1.37,.28,.91,.46,2.68,1.37,2.68,1.37,.13,.09,.06,.21,0,.31-.02,.05-.03,.07-.03,.07-.02,0-.1,.01-.31-.08-.48-.25-1.53-.84-1.53-.84l-.29,.52s1.05,.59,1.56,.86c.16,.07,.36,.14,.55,.14,.09,0,.18-.01,.26-.05,.16-.07,.28-.21,.33-.37,.3-.51,.02-.92-.25-1.08,0,0-1.79-.92-2.71-1.38-.49-.24-.91-.33-1.23-.35,.11-.35,.08-.74-.11-1.08l-.32-.56c-.38-.65-1.22-.88-1.9-.48-.32,.18-.54,.48-.64,.83-.1,.35-.05,.72,.14,1.04l.32,.56c.16,.27,.4,.45,.69,.57,0,.09-.01,.2-.01,.32l-1.97-.72s.02-.02,.02-.04l.26-.59c.3-.69-.02-1.5-.74-1.82-.69-.3-1.5,.02-1.8,.71l-.26,.59c-.14,.32-.14,.68-.03,1.01-.62,.05-.98,.42-.99,.42l-2.11,1.88c-.27,.22-.51,.74-.11,1.24,.12,.17,.27,.28,.44,.3Zm6.8-4.74c-.1-.18-.13-.38-.08-.58,.05-.2,.18-.37,.39-.48,.12-.07,.25-.1,.38-.1,.27,0,.53,.14,.67,.38l.32,.56c.21,.37,.09,.84-.28,1.05l-.03,.02c-.18,.1-.38,.13-.58,.08-.2-.05-.37-.18-.47-.36l-.32-.56Zm-3.46,.12l.26-.59c.12-.29,.4-.46,.71-.46,.11,0,.23,.02,.34,.07,.39,.17,.57,.62,.4,1.01l-.26,.59c-.17,.39-.63,.57-1.01,.4l-.12,.28,.09-.29c-.19-.08-.33-.23-.41-.42s-.07-.4,0-.59Z" style="fill:#272525;"/><path d="M19.95,16.93s-.21-.77-.4-1.19c-.21-.47-.52-.57-.65-.58l-1.58-.42-.55-1.2c-.06-.13-.2-.18-.33-.15,.05-.03,.08-.06,.13-.09,.78-.55,.57-1.45,.36-1.81l-.97-2.49,.04-.47c.02-.17-.11-.31-.27-.33-.16-.02-.31,.1-.33,.27l-.05,.54s0,.09,.02,.14l1.01,2.59c.04,.07,.36,.7-.16,1.07-.77,.54-1.16,.82-1.16,.82-.11,.08-.15,.22-.1,.35l1.33,3.45s0,0,0,0c-.03,.03-.07,.08-.15,.14-.44,.37-.86,.64-.87,.65-.13,.09-.28,.14-.37,.16h-.08s-.03-.05-.03-.19c.02-.18,.35-.44,.58-.56,.14-.07,.2-.25,.13-.4l-1.49-3.11s-.13-.28,.17-.55c.52-.46,1.24-1.27,1.27-1.3,.11-.12,.1-.31-.02-.42-.12-.11-.31-.1-.42,.02,0,0-.11,.12-.27,.3l-.78-1.99c-.06-.15-.24-.23-.39-.17-.15,.06-.23,.23-.17,.39l.88,2.25c-.17,.17-.35,.35-.5,.48-.55,.5-.43,1.07-.3,1.27l1.37,2.85c-.26,.18-.61,.49-.65,.9,0,.09,0,.16,.02,.23h-1.71c.16-.26,.25-.56,.25-.89,0-.64-.36-1.2-.88-1.49v-1.75c0-.07-.02-.14-.07-.19l-1.53-1.85,.19-2.3,.1-.14c.1-.13,.07-.32-.06-.42-.13-.1-.32-.07-.42,.06l-.15,.21s-.05,.1-.06,.16l-.2,2.5c0,.08,.02,.16,.07,.22l1.54,1.86v1.44c-.08-.01-.16-.02-.24-.02-.11,0-.21,.01-.31,.03v-1.12c0-.08-.03-.16-.09-.21l-1.46-1.43c-.12-.12-.31-.11-.42,0-.12,.12-.11,.31,0,.42l1.37,1.34v1.23c-.48,.3-.81,.84-.81,1.45,0,.95,.77,1.72,1.72,1.72,.36,0,.69-.11,.97-.3,.05,.04,.1,.07,.17,.07h2.64s.02,0,.02,0c.01,0,.03,0,.04,0h2.37c.17,0,.3-.13,.3-.3s-.13-.3-.3-.3h-1.18c.14-.1,.29-.22,.45-.35,.19-.16,.43-.39,.39-.68-.01-.09-.05-.16-.1-.22l-1.22-3.17c.13-.1,.37-.26,.65-.46-.05,.08-.08,.18-.03,.27l.61,1.33c.04,.08,.11,.14,.2,.16l1.79,.47s.1,.02,.19,.23c.14,.32,.31,.89,.35,1.06,0,.03-.01,.06-.02,.08-.01,0-.03-.02-.04-.03-.45-.31-.77-.91-.78-.92-.04-.08-.12-.14-.21-.15l-1.51-.28c-.16-.03-.32,.08-.35,.24-.03,.16,.08,.32,.24,.35l1.37,.26c.14,.23,.46,.7,.89,1,.17,.12,.31,.16,.43,.16,.09,0,.17-.02,.22-.05,.32-.16,.35-.59,.35-.67,0-.03,0-.06-.01-.09Zm-8.91,1.68c-.62,0-1.12-.5-1.12-1.12s.5-1.12,1.12-1.12,1.12,.5,1.12,1.12-.5,1.12-1.12,1.12Z" style="fill:#272525;"/></svg>