<?xml version="1.0" encoding="UTF-8"?><svg id="a" xmlns="http://www.w3.org/2000/svg" viewBox="0 0 24 24"><path d="M20.43,19.31H6.19l6.05-2.22c.05,0,1.26-.23,1.57-1.73,.23-1.15,.71-2.94,.81-3.34l1.25-1.25,.88,.88c.17,.17,.4,.26,.62,.26s.45-.09,.62-.26l.82-.82c.34-.34,.34-.9,0-1.24l-5.23-5.23c-.17-.17-.39-.26-.62-.26h0c-.24,0-.46,.09-.62,.26l-.82,.82c-.34,.34-.34,.9,0,1.24l.78,.78-1.06,1.29-3.74,1.07s-.79,.12-1.16,1.07c-.31,.79-2.99,7.75-3,7.77-.02,.06-.18,.62,.15,1.06,.01,.01,.03,.02,.04,.03,.01,.05,.02,.1,.06,.14,.06,.06,.13,.08,.21,.08,0,0,.01,0,.02,0,.1,.05,.21,.09,.33,.12,.05,.07,.13,.11,.22,.11H20.43c.17,0,.3-.13,.3-.3s-.13-.3-.3-.3ZM11.94,5.59l.82-.82c.05-.05,.12-.08,.2-.08h0c.07,0,.14,.03,.2,.08l5.23,5.23c.11,.11,.11,.29,0,.4l-.82,.82c-.11,.11-.29,.11-.4,0l-5.23-5.23c-.11-.11-.11-.29,0-.4ZM3.9,18.58s2.68-6.95,2.99-7.74c.24-.61,.67-.69,.73-.7l3.87-1.1c.06-.02,.11-.05,.15-.1l1.09-1.32,2.73,2.73-1.31,1.31s-.06,.08-.08,.13c0,.02-.58,2.14-.84,3.45-.22,1.09-1.04,1.25-1.13,1.27l-7.52,2.75c-.07,0-.15-.01-.22-.02l4.95-5.12c.21,.14,.45,.24,.71,.24,.74,0,1.33-.6,1.33-1.33s-.6-1.33-1.33-1.33-1.33,.6-1.33,1.33c0,.25,.09,.47,.2,.66l-5,5.17c-.02-.12,0-.25,.01-.29Zm5.39-5.54c0-.41,.33-.73,.73-.73s.73,.33,.73,.73-.33,.73-.73,.73-.73-.33-.73-.73Z" style="fill:#272525;"/></svg>