<?xml version="1.0" encoding="UTF-8"?><svg id="a" xmlns="http://www.w3.org/2000/svg" viewBox="0 0 24 24"><path d="M7.47,11.3c1.27,0,2.31-1.04,2.31-2.31s-1.03-2.31-2.31-2.31-2.31,1.03-2.31,2.31,1.04,2.31,2.31,2.31Zm0-4.01c.94,0,1.71,.77,1.71,1.71s-.77,1.71-1.71,1.71-1.71-.77-1.71-1.71,.77-1.71,1.71-1.71Z" style="fill:#272525;"/><path d="M6.69,11.63c-1.44,0-2.6,1.17-2.6,2.6v4.16c0,.17,.13,.3,.3,.3s.3-.13,.3-.3v-4.16c0-1.11,.9-2,2-2s2,.9,2,2v4.24c0,.17,.13,.3,.3,.3s.3-.13,.3-.3v-4.24c0-1.44-1.17-2.6-2.6-2.6Z" style="fill:#272525;"/><path d="M7.43,14.01c-.17,.02-.29,.16-.27,.33l.28,3.04c.01,.15-.03,.3-.13,.42s-.23,.19-.39,.2c-.31,.03-.59-.2-.62-.52l-.24-2.6s0,0,0,0l-.07-.76c-.02-.16-.15-.29-.33-.27-.17,.01-.29,.16-.27,.33l.31,3.38c.06,.61,.57,1.06,1.16,1.06,.04,0,.07,0,.11,0,.31-.03,.59-.18,.79-.42,.2-.24,.29-.54,.27-.85l-.28-3.04c-.02-.16-.16-.29-.33-.27Z" style="fill:#272525;"/><path d="M13.15,6.68c-1.27,0-2.31,1.03-2.31,2.31s1.04,2.31,2.31,2.31,2.31-1.04,2.31-2.31-1.03-2.31-2.31-2.31Zm0,4.01c-.94,0-1.71-.77-1.71-1.71s.77-1.71,1.71-1.71,1.71,.77,1.71,1.71-.77,1.71-1.71,1.71Z" style="fill:#272525;"/><path d="M12.37,11.63c-1.44,0-2.6,1.17-2.6,2.6v4.16c0,.17,.13,.3,.3,.3s.3-.13,.3-.3v-4.16c0-1.11,.9-2,2-2s2.01,.9,2.01,2v4.24c0,.17,.13,.3,.3,.3s.3-.13,.3-.3v-4.24c0-1.44-1.17-2.6-2.61-2.6Z" style="fill:#272525;"/><path d="M13.12,14.01c-.17,.02-.29,.16-.27,.33l.28,3.04c.01,.15-.03,.3-.13,.42s-.23,.19-.39,.2c-.15,.01-.3-.03-.42-.13-.12-.1-.19-.24-.2-.39l-.24-2.6s0,0,0,0l-.07-.76c-.02-.16-.15-.29-.33-.27-.17,.01-.29,.16-.27,.33l.31,3.38c.03,.31,.18,.59,.42,.79,.21,.18,.47,.27,.75,.27,.04,0,.07,0,.11,0,.31-.03,.59-.18,.79-.42,.2-.24,.29-.54,.27-.85l-.28-3.04c-.02-.16-.17-.29-.33-.27Z" style="fill:#272525;"/><path d="M17.05,17.49c-.12,.12-.12,.31,0,.42,.06,.06,.14,.09,.22,.09s.15-.03,.21-.08l.99-.96s0-.02,0-.02c.08-.05,.14-.13,.14-.23,0-.1-.05-.17-.12-.23,0,0,0-.02-.01-.03l-.97-.97c-.12-.12-.31-.12-.42,0s-.12,.31,0,.42l.5,.5h-1.59c-.17,0-.3,.13-.3,.3s.13,.3,.3,.3h1.56l-.5,.49Z" style="fill:#272525;"/><path d="M16.16,14.34h2.16c.17,0,.3-.13,.3-.3s-.13-.3-.3-.3h-2.16c-.17,0-.3,.13-.3,.3s.13,.3,.3,.3Z" style="fill:#272525;"/><path d="M16.16,12.39h2.16c.17,0,.3-.13,.3-.3s-.13-.3-.3-.3h-2.16c-.17,0-.3,.13-.3,.3s.13,.3,.3,.3Z" style="fill:#272525;"/><path d="M16.16,10.44h2.16c.17,0,.3-.13,.3-.3s-.13-.3-.3-.3h-2.16c-.17,0-.3,.13-.3,.3s.13,.3,.3,.3Z" style="fill:#272525;"/><path d="M19.99,7.6c0-.08-.03-.15-.08-.21l-3.08-3.25s-.01,0-.02,0c-.03-.03-.07-.04-.11-.05-.03,0-.05-.04-.08-.04h-6.45c-.17,0-.3,.13-.3,.3s.13,.3,.3,.3h6.16c0,.22,.02,.62,.02,1.34,0,1.34,.91,1.85,1.44,1.94h1.55s.03-.02,.05-.02c0,1.6,.03,9.22,.03,10.33,0,.95-1.11,1.07-1.13,1.07h-1.71c-.17,0-.3,.13-.3,.3s.13,.3,.3,.3h1.74c.59-.06,1.7-.48,1.7-1.67s-.03-10.64-.03-10.64Zm-3.04-1.61c0-.36,0-.64,0-.86l2.08,2.2h-1.19s-.89-.17-.89-1.34Z" style="fill:#272525;"/></svg>