<?xml version="1.0" encoding="UTF-8"?><svg id="a" xmlns="http://www.w3.org/2000/svg" viewBox="0 0 24 24"><path d="M16.68,14.43h-6.4c-1.37,0-2.49,1.12-2.49,2.49v.46c0,1.37,1.12,2.49,2.49,2.49h6.4c1.37,0,2.49-1.12,2.49-2.49v-.46c0-1.37-1.12-2.49-2.49-2.49Zm-8.29,2.95v-.46c0-1.04,.85-1.89,1.89-1.89h2.77v4.24h-2.77c-1.04,0-1.89-.85-1.89-1.89Zm10.18,0c0,1.04-.85,1.89-1.89,1.89h-3.03v-4.24h3.03c1.04,0,1.89,.85,1.89,1.89v.46Z" style="fill:#272525;"/><path d="M7.69,19.27h-1.21c-.92,0-1.05-1.08-1.05-1.1v-7.27c0-1.55,1.65-1.93,1.72-1.94,.14-.03,.24-.15,.24-.29v-1.7h3.83v1.75c0,.15,.11,.28,.26,.3,.07,0,1.69,.22,1.69,1.75v2.52c0,.17,.13,.3,.3,.3s.3-.13,.3-.3v-2.52c0-1.47-1.16-2.12-1.96-2.3v-1.5h.5c.37,0,.67-.3,.67-.67v-1.5c0-.37-.3-.67-.67-.67H6.34c-.37,0-.67,.3-.67,.67v1.5c0,.37,.3,.67,.67,.67h.45v1.47c-.79,.25-1.96,.99-1.96,2.46v7.3c.06,.58,.48,1.67,1.65,1.67h1.21c.17,0,.3-.13,.3-.3s-.13-.3-.3-.3Zm-1.42-12.97v-1.5s.03-.07,.07-.07h5.97s.07,.03,.07,.07v1.5s-.03,.07-.07,.07H6.34s-.07-.03-.07-.07Z" style="fill:#272525;"/><path d="M6.57,11.3c-.17,0-.3,.13-.3,.3s.13,.3,.3,.3h5.45c.17,0,.3-.13,.3-.3s-.13-.3-.3-.3H6.57Z" style="fill:#272525;"/></svg>