<?xml version="1.0" encoding="UTF-8"?><svg id="a" xmlns="http://www.w3.org/2000/svg" viewBox="0 0 24 24"><path d="M6.86,7.84c.79,0,1.44-.64,1.44-1.44s-.64-1.44-1.44-1.44-1.44,.64-1.44,1.44,.64,1.44,1.44,1.44Zm0-2.27c.46,0,.84,.38,.84,.84s-.38,.84-.84,.84-.84-.38-.84-.84,.38-.84,.84-.84Z" style="fill:#272525;"/><path d="M13.06,8.59c-.01-.08-.05-.15-.12-.2-.16-.12-.43-.2-1.24-.2H5.23s-1.41,.12-1.32,2.03c.08,1.62,.2,2.79,.21,2.84,0,.03,.2,.8,1.21,1.03l.33,4.42c.01,.16,.14,.28,.3,.28h2.11c.16,0,.29-.12,.3-.28l.7-8.65h2.76c.47-.08,1.33-.45,1.23-1.28Zm-4.26,.68c-.16,0-.29,.12-.3,.28l-.7,8.65h-.42v-4.76c0-.17-.13-.3-.3-.3s-.3,.13-.3,.3v4.76h-.54l-.62-8.13c-.01-.17-.13-.3-.32-.28-.17,.01-.29,.16-.28,.32l.25,3.35c-.46-.17-.57-.5-.57-.5,0-.01-.12-1.17-.2-2.77-.06-1.28,.68-1.39,.74-1.4h6.46c.4,0,.62,.02,.74,.04-.11,.32-.67,.43-.67,.43h-2.99Z" style="fill:#272525;"/><path d="M10.69,17.04c-.17,0-.3,.13-.3,.3v1.39c0,.17,.13,.3,.3,.3s.3-.13,.3-.3v-1.39c0-.17-.13-.3-.3-.3Z" style="fill:#272525;"/><path d="M13.04,17.04c-.17,0-.3,.13-.3,.3v1.39c0,.17,.13,.3,.3,.3s.3-.13,.3-.3v-1.39c0-.17-.13-.3-.3-.3Z" style="fill:#272525;"/><path d="M13.26,13.89c0-.77-.63-1.4-1.4-1.4s-1.4,.63-1.4,1.4,.63,1.4,1.4,1.4,1.4-.63,1.4-1.4Zm-2.19,0c0-.44,.36-.8,.8-.8s.8,.36,.8,.8-.36,.8-.8,.8-.8-.36-.8-.8Z" style="fill:#272525;"/><path d="M15.43,17.04c-.17,0-.3,.13-.3,.3v1.39c0,.17,.13,.3,.3,.3s.3-.13,.3-.3v-1.39c0-.17-.13-.3-.3-.3Z" style="fill:#272525;"/><path d="M17.78,17.04c-.17,0-.3,.13-.3,.3v1.39c0,.17,.13,.3,.3,.3s.3-.13,.3-.3v-1.39c0-.17-.13-.3-.3-.3Z" style="fill:#272525;"/><path d="M17.52,15.65h-1.83c-.75,0-1.2,.31-1.45,.67-.25-.36-.7-.67-1.46-.67h-1.83c-1.29,0-1.7,.91-1.74,1.42v1.67c0,.17,.13,.3,.3,.3s.3-.13,.3-.3v-1.65c0-.09,.1-.84,1.14-.84h1.83c1.03,0,1.13,.75,1.13,.82v1.67c0,.17,.13,.3,.3,.3,0,0,.01,0,.02,0,0,0,.01,0,.02,0,.17,0,.3-.13,.3-.3v-1.65c0-.09,.1-.84,1.13-.84h1.83c1.03,0,1.13,.75,1.13,.82v1.67c0,.17,.13,.3,.3,.3s.3-.13,.3-.3v-1.7c-.04-.48-.44-1.39-1.73-1.39Z" style="fill:#272525;"/><path d="M18,13.89c0-.77-.63-1.4-1.4-1.4s-1.4,.63-1.4,1.4,.63,1.4,1.4,1.4,1.4-.63,1.4-1.4Zm-2.19,0c0-.44,.36-.8,.8-.8s.8,.36,.8,.8-.36,.8-.8,.8-.8-.36-.8-.8Z" style="fill:#272525;"/><path d="M18.82,5.12H8.75c-.17,0-.3,.13-.3,.3s.13,.3,.3,.3h10.06c.37,0,.68,.3,.68,.68v4.47c0,.37-.3,.68-.68,.68H9.67c-.17,0-.3,.13-.3,.3s.13,.3,.3,.3h9.15c.7,0,1.28-.57,1.28-1.28V6.4c0-.7-.57-1.28-1.28-1.28Z" style="fill:#272525;"/></svg>