<?xml version="1.0" encoding="UTF-8"?><svg id="a" xmlns="http://www.w3.org/2000/svg" viewBox="0 0 24 24"><path d="M12,20.64c-.81,0-1.47-.66-1.47-1.47s.66-1.47,1.47-1.47c.69,0,1.26,.47,1.42,1.11,.81-.15,1.82-.48,2.51-1.17,.93-.93,1.57-2.46,1.57-3.72v-4.82c0-.65-.17-1.34-.47-1.99-.86,.44-1.82,.67-2.79,.67-1.54,0-2.99-.56-4.13-1.6-.83,1.32-2.11,2.27-3.61,2.67,0,.08,0,.16,0,.24v4.82c0,.15-.12,.28-.27,.3-.06,.05-.14,.08-.22,.08-1.5-.11-2.67-1.45-2.67-3.04s1.16-2.92,2.65-3.04c.21-1.12,.81-2.25,1.66-3.1,1.08-1.08,2.61-1.75,4-1.75h.71c1.39,0,2.92,.67,4,1.75,.85,.85,1.45,1.98,1.66,3.1,1.48,.13,2.63,1.46,2.63,3.04s-1.12,2.86-2.56,3.03c-.11,1.34-.78,2.82-1.73,3.78-.82,.82-2,1.19-2.91,1.35-.12,.69-.72,1.22-1.45,1.22Zm0-2.33c-.48,0-.87,.39-.87,.87s.39,.87,.87,.87,.87-.39,.87-.87-.39-.87-.87-.87ZM5.87,8.83c-1.09,.19-1.92,1.21-1.92,2.42s.85,2.26,1.96,2.43v-4.58c0-.07,0-.15,0-.23-.02-.01-.03-.03-.05-.05Zm12.23,0c0,.09,0,.19,0,.28v4.58c1.1-.18,1.95-1.21,1.95-2.43s-.85-2.26-1.95-2.43ZM11.65,3.96c-1.23,0-2.6,.6-3.57,1.57-.74,.74-1.27,1.71-1.48,2.68,1.36-.43,2.5-1.37,3.19-2.64,.05-.08,.13-.14,.22-.15,.09-.01,.19,.02,.26,.09,1.05,1.09,2.46,1.69,3.98,1.69,.87,0,1.73-.21,2.51-.6-.23-.38-.51-.74-.82-1.06-.97-.97-2.34-1.57-3.57-1.57h-.71Zm.35,12.18c-.38,0-.75-.07-1.1-.22-.34-.14-.64-.35-.9-.6-.26-.26-.46-.56-.6-.9-.06-.15,0-.33,.16-.39,.15-.07,.33,0,.39,.16,.11,.26,.27,.5,.48,.71,.2,.2,.44,.36,.71,.48,.55,.23,1.18,.23,1.73,0,.26-.11,.5-.27,.71-.48,.2-.2,.36-.44,.48-.71,.06-.15,.24-.22,.39-.16,.15,.06,.22,.24,.16,.39-.14,.34-.35,.64-.6,.9-.26,.26-.56,.46-.9,.6-.35,.15-.72,.22-1.1,.22Zm2.56-4.33c-.12,0-.23-.07-.28-.18-.02-.06-.06-.1-.1-.15-.04-.04-.09-.08-.15-.1-.11-.05-.25-.05-.36,0-.06,.02-.1,.06-.15,.1-.04,.04-.08,.09-.1,.15-.06,.15-.24,.22-.39,.16-.15-.06-.22-.24-.16-.39,.05-.13,.13-.24,.23-.34,.1-.1,.21-.17,.34-.23,.26-.11,.56-.11,.83,0,.13,.05,.24,.13,.34,.23,.1,.1,.17,.21,.23,.34,.06,.15,0,.33-.16,.39-.04,.02-.08,.02-.12,.02Zm-3.72,0c-.12,0-.23-.07-.28-.18-.02-.06-.06-.1-.1-.15-.04-.04-.09-.08-.15-.1-.11-.05-.25-.05-.36,0-.05,.02-.1,.06-.15,.1-.04,.04-.08,.09-.1,.15-.07,.15-.24,.22-.39,.16-.15-.06-.22-.24-.16-.39,.05-.13,.13-.24,.23-.34,.1-.1,.21-.17,.34-.23,.26-.11,.57-.11,.83,0,.13,.05,.24,.13,.34,.23,.1,.1,.17,.21,.23,.34,.06,.15,0,.33-.16,.39-.04,.02-.08,.02-.12,.02Z" style="fill:#272525;"/></svg>