<?xml version="1.0" encoding="UTF-8"?><svg id="a" xmlns="http://www.w3.org/2000/svg" viewBox="0 0 24 24"><g><g><path d="M12.62,16.93H5.56c-.84,0-1.52-.68-1.52-1.52V5.57c0-.81,.77-1.52,1.66-1.52h10.46c.84,0,1.52,.68,1.52,1.52v7.95c0,.17-.13,.3-.3,.3s-.3-.13-.3-.3V5.57c0-.51-.41-.92-.92-.92H5.7c-.49,0-1.06,.4-1.06,.92V15.4c0,.51,.41,.92,.92,.92h7.06c.17,0,.3,.13,.3,.3s-.13,.3-.3,.3Z" style="fill:#272525;"/><path d="M17.3,6.75H4.34c-.17,0-.3-.13-.3-.3s.13-.3,.3-.3h12.96c.17,0,.3,.13,.3,.3s-.13,.3-.3,.3Z" style="fill:#272525;"/></g><path d="M15.53,12.68c-.12,0-.23-.07-.28-.18-.06-.15,0-.33,.16-.39,.6-.26,1-.84,1-1.5,0-.9-.73-1.63-1.63-1.63s-1.63,.73-1.63,1.63c0,.66,.39,1.25,1,1.5,.15,.06,.22,.24,.16,.39-.07,.15-.24,.22-.39,.16-.83-.35-1.36-1.16-1.36-2.05,0-1.23,1-2.23,2.23-2.23s2.23,1,2.23,2.23c0,.9-.53,1.7-1.36,2.05-.04,.02-.08,.02-.12,.02Z" style="fill:#272525;"/><path d="M13.25,13.73s-.1-.01-.14-.04c-1.14-.62-1.84-1.8-1.84-3.09,0-1.94,1.58-3.52,3.52-3.52,1.06,0,2.05,.47,2.72,1.29,.1,.13,.09,.32-.04,.42-.13,.1-.32,.09-.42-.04-.56-.68-1.38-1.07-2.26-1.07-1.61,0-2.92,1.31-2.92,2.92,0,1.07,.58,2.05,1.53,2.56,.15,.08,.2,.26,.12,.41-.05,.1-.16,.16-.26,.16Z" style="fill:#272525;"/><g><path d="M15.48,14.84c-.17,0-.3-.13-.3-.3v-.6c0-.54,.45-.98,1-.98s1,.44,1,.98v.58c0,.17-.13,.3-.3,.3s-.3-.13-.3-.3v-.58c0-.21-.18-.38-.4-.38s-.4,.17-.4,.38v.6c0,.17-.13,.3-.3,.3Z" style="fill:#272525;"/><path d="M18.27,15.12c-.17,0-.3-.13-.3-.3v-.69c0-.16-.18-.3-.4-.3s-.4,.14-.4,.3v.53c0,.17-.13,.3-.3,.3s-.3-.13-.3-.3v-.53c0-.5,.45-.9,1-.9s1,.4,1,.9v.69c0,.17-.13,.3-.3,.3Z" style="fill:#272525;"/><path d="M16.48,19.94c-1.05,0-1.94-.42-2.67-1.27-.03-.04-.78-.93-1.19-1.56-.08-.13-.18-.28-.29-.43-.44-.61-.92-1.17-1.04-1.25-.23-.15-.4-.54-.38-.87,.02-.3,.17-.53,.43-.66,.28-.14,1.29-.52,2.3,.62,.02,.03,.04,.06,.05,.09,0,.01,.03,.04,.07,.07v-4.15c0-.54,.45-.98,1-.98s1,.44,1,.98v4.03c0,.17-.13,.3-.3,.3s-.3-.13-.3-.3v-4.03c0-.21-.18-.38-.4-.38s-.4,.17-.4,.38v4.83c0,.12-.07,.22-.18,.27-.11,.05-.23,.03-.32-.05-.48-.42-.64-.61-.69-.69-.68-.74-1.27-.61-1.57-.46-.06,.03-.09,.07-.1,.15-.02,.15,.07,.32,.11,.36,.24,.16,.85,.92,1.19,1.39,.12,.16,.22,.32,.31,.46,.38,.6,1.13,1.49,1.13,1.5,1.18,1.37,2.58,1.06,3.04,.96l.11-.02c2.03-.65,1.94-2.15,1.94-2.16v-2.78c0-.16-.18-.3-.4-.3s-.4,.14-.4,.3v.53c0,.17-.13,.3-.3,.3s-.3-.13-.3-.3v-.53c0-.5,.45-.9,1-.9s1,.4,1,.9v2.75h0s.12,1.96-2.39,2.77l-.12,.03c-.33,.07-.65,.11-.96,.11Z" style="fill:#272525;"/></g></g><path d="M5.88,13s-.09,0-.13-.03c-.15-.07-.21-.25-.14-.4l2.02-4.26c.07-.15,.25-.21,.4-.14,.15,.07,.21,.25,.14,.4l-2.02,4.26c-.05,.11-.16,.17-.27,.17Z" style="fill:#272525;"/><path d="M9.96,13c-.11,0-.22-.06-.27-.17l-2.02-4.26c-.07-.15,0-.33,.14-.4,.15-.07,.33,0,.4,.14l2.02,4.26c.07,.15,0,.33-.14,.4-.04,.02-.09,.03-.13,.03Z" style="fill:#272525;"/><path d="M9.22,11.81h-1.89c-.17,0-.3-.13-.3-.3s.13-.3,.3-.3h1.89c.17,0,.3,.13,.3,.3s-.13,.3-.3,.3Z" style="fill:#272525;"/></svg>