<?xml version="1.0" encoding="UTF-8"?><svg id="a" xmlns="http://www.w3.org/2000/svg" viewBox="0 0 24 24"><path d="M12.1,10.26c-1.69,0-3.07-1.38-3.07-3.07s1.38-3.07,3.07-3.07,3.07,1.38,3.07,3.07-1.38,3.07-3.07,3.07Zm0-5.54c-1.36,0-2.47,1.11-2.47,2.47s1.11,2.47,2.47,2.47,2.47-1.11,2.47-2.47-1.11-2.47-2.47-2.47Z" style="fill:#272525;"/><g><path d="M7.54,11.98s-.09,0-.13-.03c-.15-.07-.21-.25-.14-.4,.03-.06,.73-1.5,1.7-2.2,.13-.1,.32-.07,.42,.07,.1,.13,.07,.32-.07,.42-.84,.61-1.5,1.96-1.51,1.97-.05,.11-.16,.17-.27,.17Z" style="fill:#272525;"/><path d="M6.14,18.69c-.45,0-.93-.15-1.31-.59-.74-.96-.3-1.6,.09-2.17,.07-.1,.14-.21,.21-.32,.27-.44,2.36-3.48,3.61-4.08l.11-.05c1.01-.48,1.37-.67,3.12-.64,.17,0,.3,.14,.29,.3,0,.16-.14,.29-.3,.29h0c-1.59-.03-1.89,.12-2.85,.58l-.11,.05c-.96,.46-2.88,3.08-3.36,3.85-.08,.12-.15,.24-.23,.35-.39,.57-.58,.85-.12,1.45,.63,.73,1.66,.18,1.7,.15,0,0,2.26-1.46,3.12-2.22,.56-.51,.32-.86,.11-1.17l-.06-.1c-.5-.51-1.21,.05-1.24,.07l-1.34,.91c-.13,.09-.32,.06-.42-.08-.09-.14-.06-.32,.08-.42l1.32-.89c.38-.31,1.33-.72,2.06,.04l.09,.13c.21,.3,.75,1.09-.21,1.96-.9,.8-3.12,2.23-3.22,2.29-.27,.15-.7,.3-1.16,.3Z" style="fill:#272525;"/><path d="M9.96,14.04c-.16,0-.29-.12-.3-.29l-.1-2.19c0-.17,.12-.31,.29-.31,.18,0,.31,.12,.31,.29l.1,2.19c0,.17-.12,.31-.29,.31h-.01Z" style="fill:#272525;"/><path d="M8.74,14.52c-.15,0-.28-.12-.3-.27l-.2-2.16c-.02-.17,.11-.31,.27-.33,.18-.02,.31,.11,.33,.27l.2,2.16c.02,.17-.11,.31-.27,.33,0,0-.02,0-.03,0Z" style="fill:#272525;"/><path d="M8.66,19.89c-.17,0-.3-.13-.3-.3v-2.49c0-.17,.13-.3,.3-.3s.3,.13,.3,.3v2.49c0,.17-.13,.3-.3,.3Z" style="fill:#272525;"/></g><g><path d="M16.46,11.98c-.11,0-.22-.06-.27-.17,0-.01-.67-1.36-1.51-1.97-.13-.1-.16-.28-.07-.42,.1-.13,.29-.16,.42-.07,.97,.7,1.67,2.14,1.7,2.2,.07,.15,0,.33-.14,.4-.04,.02-.09,.03-.13,.03Z" style="fill:#272525;"/><path d="M17.85,18.69c-.46,0-.88-.15-1.13-.29-.11-.07-2.33-1.51-3.23-2.3-.96-.87-.41-1.66-.21-1.96l.05-.08c.77-.81,1.72-.39,2.12-.07l1.3,.87c.14,.09,.17,.28,.08,.42-.09,.14-.28,.17-.42,.08l-1.32-.89c-.1-.08-.77-.58-1.29-.04l-.03,.05c-.21,.31-.45,.66,.12,1.17,.86,.76,3.11,2.22,3.14,2.23,.03,.01,1.05,.57,1.7-.17,.45-.58,.26-.87-.13-1.43-.08-.11-.15-.23-.23-.35-.48-.77-2.4-3.4-3.36-3.85l-.11-.05c-.97-.46-1.28-.61-2.85-.58h0c-.16,0-.3-.13-.3-.29,0-.17,.13-.3,.29-.3,1.75-.03,2.11,.15,3.12,.64l.11,.05c1.25,.59,3.34,3.64,3.61,4.08,.07,.11,.14,.22,.21,.32,.39,.57,.83,1.21,.1,2.15-.39,.45-.88,.6-1.33,.6Z" style="fill:#272525;"/><path d="M14.04,14.04h-.01c-.17,0-.29-.15-.29-.31l.1-2.19c0-.17,.15-.28,.31-.29,.17,0,.29,.15,.29,.31l-.1,2.19c0,.16-.14,.29-.3,.29Z" style="fill:#272525;"/><path d="M15.26,14.52s-.02,0-.03,0c-.17-.02-.29-.16-.27-.33l.2-2.16c.02-.16,.15-.29,.33-.27,.17,.02,.29,.16,.27,.33l-.2,2.16c-.01,.16-.15,.27-.3,.27Z" style="fill:#272525;"/><path d="M15.34,19.89c-.17,0-.3-.13-.3-.3v-2.49c0-.17,.13-.3,.3-.3s.3,.13,.3,.3v2.49c0,.17-.13,.3-.3,.3Z" style="fill:#272525;"/></g></svg>