<?xml version="1.0" encoding="UTF-8"?><svg id="a" xmlns="http://www.w3.org/2000/svg" viewBox="0 0 24 24"><path d="M15.37,12.17h-2.91c-.17,0-.3-.13-.3-.3s.13-.3,.3-.3h2.91c.17,0,.3,.13,.3,.3s-.13,.3-.3,.3Z" style="fill:#272525;"/><path d="M12.82,15.24s-.02,0-.04,0c-.16-.02-.28-.17-.26-.33l.34-2.8c.02-.16,.16-.28,.33-.26,.16,.02,.28,.17,.26,.33l-.34,2.8c-.02,.15-.15,.26-.3,.26Z" style="fill:#272525;"/><path d="M15.46,17.61c-.17,0-.3-.13-.3-.3v-5.45c0-.17,.13-.3,.3-.3s.3,.13,.3,.3v5.45c0,.17-.13,.3-.3,.3Z" style="fill:#272525;"/><path d="M19.54,17.73H9.74c-.09,0-.17-.04-.23-.1-.06-.07-.08-.15-.07-.24l.29-1.98c.02-.12,.11-.22,.23-.25l1.35-.29h3.98c.17,0,.3,.13,.3,.29s-.13,.3-.3,.3h-3.92l-1.08,.24-.21,1.43h9.22c-.11-2.41-2.01-3.07-2.31-3.15l-1.49,.02h0c-.16,0-.3-.13-.3-.3,0-.17,.13-.3,.3-.3l1.54-.02s.05,0,.08,0c.03,0,2.74,.73,2.8,3.86,0,.04,0,.08-.02,.12l-.07,.18c-.04,.11-.16,.19-.28,.19Z" style="fill:#272525;"/><path d="M19.19,19.94H9.92c-.46,0-.83-.37-.83-.83v-.3c0-.46,.37-.83,.83-.83h9.27c.46,0,.83,.37,.83,.83v.3c0,.46-.37,.83-.83,.83Zm-9.27-1.37c-.13,0-.23,.11-.23,.23v.3c0,.13,.11,.23,.23,.23h9.27c.13,0,.23-.11,.23-.23v-.3c0-.13-.11-.23-.23-.23H9.92Z" style="fill:#272525;"/><path d="M8.91,17.98c-.14,0-.26-.09-.29-.23-.04-.16,.06-.32,.22-.36l.8-.19c.16-.04,.32,.06,.36,.22s-.06,.32-.22,.36l-.8,.19s-.05,0-.07,0Z" style="fill:#272525;"/><path d="M8.44,19.91s-.06,0-.09-.01c-.16-.05-.24-.22-.19-.38,.62-1.92-.39-2.55-.4-2.56-.14-.08-.19-.27-.1-.41,.08-.14,.27-.19,.41-.1,.06,.03,1.44,.88,.67,3.26-.04,.13-.16,.21-.29,.21Z" style="fill:#272525;"/><path d="M13.62,6.75h-2.53c-.17,0-.3-.13-.3-.3s.13-.3,.3-.3h2.53c.17,0,.3,.13,.3,.3s-.13,.3-.3,.3Z" style="fill:#272525;"/><path d="M13.62,8.32h-2.53c-.17,0-.3-.13-.3-.3s.13-.3,.3-.3h2.53c.17,0,.3,.13,.3,.3s-.13,.3-.3,.3Z" style="fill:#272525;"/><path d="M13.62,9.84h-2.53c-.17,0-.3-.13-.3-.3s.13-.3,.3-.3h2.53c.17,0,.3,.13,.3,.3s-.13,.3-.3,.3Z" style="fill:#272525;"/><g><path d="M7.68,10.43c-1.36,0-2.46-1.1-2.46-2.46s1.1-2.46,2.46-2.46,2.46,1.1,2.46,2.46-1.1,2.46-2.46,2.46Zm0-4.31c-1.02,0-1.86,.83-1.86,1.86s.83,1.86,1.86,1.86,1.86-.83,1.86-1.86-.83-1.86-1.86-1.86Z" style="fill:#272525;"/><path d="M6.48,12.68c-.05,0-.1-.01-.15-.04-.09-.05-.15-.15-.15-.26v-2.52c0-.17,.13-.3,.3-.3s.3,.13,.3,.3v2l.76-.44c.09-.05,.21-.05,.3,0l.76,.44v-2c0-.17,.13-.3,.3-.3s.3,.13,.3,.3v2.52c0,.11-.06,.21-.15,.26-.09,.05-.21,.05-.3,0l-1.06-.61-1.06,.61s-.1,.04-.15,.04Z" style="fill:#272525;"/></g><path d="M7.55,8.84c-.08,0-.15-.03-.21-.09l-.58-.58c-.12-.12-.12-.31,0-.42s.31-.12,.42,0l.37,.37,.92-.92c.12-.12,.31-.12,.42,0s.12,.31,0,.42l-1.13,1.13c-.06,.06-.13,.09-.21,.09Z" style="fill:#272525;"/><path d="M7.5,19.95h-1.94c-.88,0-1.59-.76-1.59-1.7V5.75c0-.94,.71-1.7,1.59-1.7H13.68c.88,0,1.59,.76,1.59,1.7v5.23c0,.17-.13,.3-.3,.3s-.3-.13-.3-.3V5.75c0-.61-.44-1.1-.99-1.1H5.56c-.54,0-.99,.49-.99,1.1v12.51c0,.61,.44,1.1,.99,1.1h1.94c.17,0,.3,.13,.3,.3s-.13,.3-.3,.3Z" style="fill:#272525;"/></svg>