<?xml version="1.0" encoding="UTF-8"?><svg id="a" xmlns="http://www.w3.org/2000/svg" viewBox="0 0 24 24"><path d="M18.79,17.19c-.07-.05-.15-.07-.24-.08v-5.26c.18-.14,.28-.3,.28-.49,0-.22-.01-.74-2.21-1.13-.17-.21-.42-.36-.71-.37h-.07l-2.61-1.96,3.32-2.49c.16-.12,.26-.29,.28-.49,.03-.2-.03-.39-.15-.55s-.29-.26-.49-.28c-.2-.03-.39,.03-.55,.15l-3.65,2.74-3.65-2.74c-.16-.12-.35-.18-.55-.15-.2,.03-.37,.13-.49,.28s-.17,.35-.15,.55c.03,.2,.13,.37,.29,.49l3.32,2.49-2.61,1.96s-.05,0-.07,0c-.29,.01-.53,.15-.7,.36-1.22,.22-2.18,.57-2.18,1.14,0,.18,.1,.35,.28,.49v5.51s-.05,0-.08,.02c-.29,.11-.61,.51-.47,.87,.36,1.19,3.88,1.68,7.17,1.68,1.51,0,2.97-.1,4.06-.29,1.97-.34,2.95-.92,2.92-1.72,0-.12-.02-.53-.3-.72Zm-3.21-6.78c.07,.05,.15,.07,.24,.05,.03,0,.04,0,.08,0,.2,0,.35,.18,.35,.37,0,.19-.17,.35-.36,.35h-.01c-.19,0-.33-.15-.35-.34,0-.09-.05-.17-.12-.22l-2.9-2.18h0s.23-.17,.23-.17l2.85,2.14Zm-2.15-.51c-1.15-.05-2.2-.03-2.87,0l1.44-1.08,1.43,1.08ZM7.81,4.93c-.05-.04-.07-.14-.03-.2,.03-.04,.07-.05,.09-.05,0,0,.01,0,.02,0,.02,0,.05,0,.08,.03,0,0,0,0,0,0l3.51,2.64-.23,.17-3.45-2.59Zm.29,5.53h.01s.04,0,.06,0c.08,.01,.17,0,.24-.05l7.59-5.7s0,0,0,0c.04-.03,.08-.03,.1-.03,.02,0,.06,.01,.09,.05,.04,.05,.03,.16-.02,.19l-3.64,2.73s0,0,0,0l-.73,.55s0,0,0,0l-3.22,2.42c-.07,.05-.11,.13-.12,.22-.01,.19-.16,.33-.35,.34-.18,0-.37-.15-.38-.35,0-.2,.15-.37,.35-.38Zm-.94,.42c.03,.5,.45,.9,.95,.9,.01,0,.02,0,.04,0,.44-.02,.81-.33,.9-.75l.63-.47c.05,0,.1,0,.15-.01,.01,0,.98-.08,2.26-.08,.65,0,1.38,.02,2.1,.08,.04,0,.07,0,.11,.01l.63,.47c.09,.42,.46,.73,.9,.75,.01,0,.02,0,.04,0,.5,0,.92-.39,.95-.9,.98,.2,1.35,.39,1.4,.45-.02,.03-.07,.07-.13,.11,0,0,0,0,0,0-.13,.08-.34,.16-.6,.24-.08,.02-.15,.05-.24,.07-.05,.01-.12,.03-.17,.04-.17,.04-.34,.08-.54,.11-.03,0-.07,.01-.1,.02-.23,.04-.48,.08-.75,.11-.04,0-.09,.01-.13,.02-.26,.03-.54,.06-.84,.08-.08,0-.15,.01-.22,.02-.28,.02-.59,.04-.9,.05-.1,0-.19,.01-.29,.01-.41,.02-.84,.02-1.29,.02s-.88,0-1.29-.02c-.11,0-.21-.01-.32-.02-.29-.01-.58-.03-.84-.05-.11,0-.22-.02-.32-.03-.23-.02-.45-.04-.66-.07-.13-.02-.26-.03-.39-.05-.13-.02-.25-.03-.36-.05-.94-.15-1.59-.34-1.9-.52-.03-.02-.06-.02-.09-.03-.01-.01-.04-.02-.05-.03,.06-.11,.48-.32,1.37-.5Zm10.82,6.65s-.01,.08-.01,.12c-.09,.05-.34,.16-.91,.28-.15,.03-.33,.07-.54,.11-1.2,.22-2.8,.34-4.51,.34-1.62,0-3.17-.11-4.35-.31-.16-.03-.3-.05-.44-.08-.06-.01-.1-.02-.16-.03-.07-.01-.14-.03-.2-.04-.05-.01-.09-.02-.14-.03-.05-.01-.1-.03-.14-.04-.04-.01-.08-.02-.11-.03-.04-.01-.07-.02-.11-.03-.03,0-.06-.02-.08-.03-.03-.01-.06-.02-.08-.03-.02,0-.03-.01-.05-.02-.03-.01-.06-.03-.08-.04,0,0,0,0,0,0-.02-.01-.03-.02-.04-.02,.03-.05,.05-.11,.05-.16v-5.3s.02,0,.04,.01c.79,.29,1.96,.46,3.06,.55,.11,0,.21,.02,.32,.03,.06,0,.12,0,.18,.01,.63,.04,1.21,.06,1.64,.07,.33,0,.59,0,.7,0s.36,0,.7,0c.43,0,1-.03,1.63-.07,.06,0,.13,0,.19-.01,.11,0,.21-.02,.32-.03,1.1-.09,2.28-.26,3.06-.55,.01,0,.03,0,.04-.01v5.23s.01,.09,.03,.13Zm-1.91,1.5c-3.92,.68-10.23,.1-10.56-.97,0-.02,.02-.05,.04-.07,.01,.02,.03,.03,.05,.05,.01,.01,.02,.02,.03,.03,.04,.03,.08,.06,.13,.09,.02,.01,.04,.02,.06,.03,.04,.02,.07,.04,.12,.06,.03,.01,.06,.02,.09,.04,.05,.02,.1,.04,.15,.06,.04,.01,.07,.02,.11,.04,.06,.02,.13,.04,.21,.06,.04,.01,.08,.02,.13,.03,.09,.02,.19,.04,.29,.07,.04,0,.08,.02,.13,.03,.15,.03,.32,.06,.51,.09,1.21,.21,2.79,.32,4.45,.32,1.75,0,3.39-.12,4.62-.35,.18-.03,.34-.07,.49-.1,.04,0,.08-.02,.12-.03,.12-.03,.22-.05,.32-.08,.02,0,.05-.01,.07-.02,.11-.03,.22-.06,.31-.1,.02,0,.03-.01,.05-.02,.07-.03,.13-.05,.19-.08,.02,0,.04-.02,.05-.03,.06-.03,.11-.06,.15-.09,0,0,0,0,0,0,.03-.03,.06-.05,.09-.08-.08,.33-.74,.75-2.41,1.04Z" style="fill:#272525;"/><path d="M7.69,13.12c-.16,0-.29,.13-.29,.29v3.51c0,.16,.13,.29,.29,.29s.29-.13,.29-.29v-3.51c0-.16-.13-.29-.29-.29Z" style="fill:#272525;"/><path d="M16.35,13.12c-.16,0-.29,.13-.29,.29v3.51c0,.16,.13,.29,.29,.29s.29-.13,.29-.29v-3.51c0-.16-.13-.29-.29-.29Z" style="fill:#272525;"/><path d="M13.61,13.56c-.16,0-.29,.13-.29,.29v3.51c0,.16,.13,.29,.29,.29s.29-.13,.29-.29v-3.51c0-.16-.13-.29-.29-.29Z" style="fill:#272525;"/><path d="M10.71,13.56c-.16,0-.29,.13-.29,.29v3.51c0,.16,.13,.29,.29,.29s.29-.13,.29-.29v-3.51c0-.16-.13-.29-.29-.29Z" style="fill:#272525;"/></svg>