<?xml version="1.0" encoding="UTF-8"?><svg id="a" xmlns="http://www.w3.org/2000/svg" viewBox="0 0 24 24"><path d="M9.53,17.3c.05,.13,.12,.26,.22,.36,.19,.19,.44,.29,.71,.29h0c.27,0,.52-.1,.7-.29,.11-.11,.18-.23,.23-.37h.1c.12,0,.24-.05,.32-.14l.27-.3c.07-.08,.11-.18,.11-.28v-.7c0-.33-.25-.63-.54-.68l-1.01-.31c-.17-.14-.77-.62-.99-.79-.34-.28-.59-.41-1.05-.41h-1.36c-.36,0-.53,.11-.69,.22-.37,.23-.93,.74-1.12,.93l-.25,.04c-.33,.06-.59,.35-.58,.69v.93c0,.11,.05,.22,.13,.3l.4,.4c.08,.08,.19,.12,.3,.12h.13c.14,.38,.5,.65,.93,.65h0c.27,0,.52-.1,.7-.29,.11-.11,.18-.23,.23-.37h2.11Zm.93,.04h0c-.11,0-.21-.04-.29-.12-.07-.07-.11-.17-.11-.27s.04-.19,.11-.26c.08-.08,.18-.12,.29-.12h0c.22,0,.4,.17,.4,.38,0,.1-.04,.2-.11,.27-.08,.07-.18,.12-.29,.12Zm-5.27-.93v-.86s.04-.09,.08-.1l.35-.06c.06,0,.11-.04,.16-.08,.19-.19,.76-.71,1.1-.92,.12-.08,.18-.11,.37-.11h1.36c.25,.02,.39,.04,.67,.28,.25,.2,1.03,.83,1.03,.83,.03,.02,.06,.04,.1,.05l1.09,.33s.08,.06,.08,.1v.63s-.17,.19-.17,.19h-.01c-.12-.41-.49-.71-.94-.71h0c-.27,0-.52,.11-.71,.3-.12,.12-.19,.26-.23,.42h-2.08c-.12-.4-.49-.7-.94-.7h0c-.27,0-.51,.1-.7,.29-.12,.12-.19,.27-.24,.43h-.05s-.3-.3-.3-.3Zm1.29,.95h0c-.22,0-.4-.17-.4-.38,0-.1,.04-.2,.11-.27,.08-.07,.18-.12,.29-.12h0c.22,0,.4,.17,.4,.38,0,0,0,.01,0,.02,0,0,0,0,0,0,0,0,0,0,0,0,0,.09-.04,.17-.11,.24-.08,.07-.18,.12-.29,.12Z" style="fill:#272525;"/><path d="M12.28,9.6h4.75c.17,0,.3-.13,.3-.3s-.13-.3-.3-.3h-4.75c-.17,0-.3,.13-.3,.3s.13,.3,.3,.3Z" style="fill:#272525;"/><path d="M10.77,9.95c.35,0,.64-.29,.64-.64s-.29-.64-.64-.64-.64,.29-.64,.64,.29,.64,.64,.64Zm0-.69s.04,.02,.04,.04l-.04,.04v-.09Z" style="fill:#272525;"/><path d="M12.28,11.55h4.75c.17,0,.3-.13,.3-.3s-.13-.3-.3-.3h-4.75c-.17,0-.3,.13-.3,.3s.13,.3,.3,.3Z" style="fill:#272525;"/><path d="M10.77,11.89c.35,0,.64-.29,.64-.64s-.29-.64-.64-.64-.64,.29-.64,.64,.29,.64,.64,.64Zm0-.69s.04,.02,.04,.04l-.04,.04v-.09Z" style="fill:#272525;"/><path d="M12.28,13.5h4.75c.17,0,.3-.13,.3-.3s-.13-.3-.3-.3h-4.75c-.17,0-.3,.13-.3,.3s.13,.3,.3,.3Z" style="fill:#272525;"/><path d="M10.77,13.84c.35,0,.64-.29,.64-.64s-.29-.64-.64-.64-.64,.29-.64,.64,.29,.64,.64,.64Zm0-.69s.04,.02,.04,.04l-.04,.04v-.09Z" style="fill:#272525;"/><path d="M17.04,14.84h-4c-.17,0-.3,.13-.3,.3s.13,.3,.3,.3h4c.17,0,.3-.13,.3-.3s-.13-.3-.3-.3Z" style="fill:#272525;"/><path d="M17.6,5.51h-7.73c-.49,0-.89,.15-1.18,.46-.49,.51-.46,1.27-.46,1.28v5.62c0,.17,.13,.3,.3,.3s.3-.13,.3-.3V7.24s-.02-.53,.3-.86c.17-.18,.42-.27,.74-.27h7.71s1.23,.12,1.23,1.07c0,1.1-.03,7.46-.03,8.9-.02,0-.04-.03-.07-.03h-1.69c-.5,.09-1.46,.6-1.46,1.94,0,.72,0,1.12-.02,1.34h-5.61c-.11,0-1.11-.04-1.11-1.14,0-.17-.13-.3-.3-.3s-.3,.13-.3,.3c0,1.38,1.12,1.74,1.71,1.74h5.89c.08,0,.15-.03,.2-.08,0,0,0,0,.01,0l3.25-3.25c.06-.06,.09-.13,.09-.21,0,0,.03-7.97,.03-9.21s-1.16-1.62-1.81-1.67Zm-.54,11.14h1.32l-2.23,2.23c0-.23,0-.52,0-.89,0-1.14,.86-1.33,.91-1.34Z" style="fill:#272525;"/><path d="M6.99,13.19c.17,0,.3-.13,.3-.3V6.72c0-1.14,.92-2.06,2.06-2.06h6.93c.17,0,.3-.13,.3-.3s-.13-.3-.3-.3h-6.93c-1.47,0-2.66,1.19-2.66,2.66v6.17c0,.17,.13,.3,.3,.3Z" style="fill:#272525;"/></svg>