<?xml version="1.0" encoding="UTF-8"?><svg id="a" xmlns="http://www.w3.org/2000/svg" viewBox="0 0 24 24"><path d="M18.55,10.6c0-.48-.35-.91-.79-.99l-1.85-.56c-.24-.19-1.4-1.12-1.8-1.44-.6-.49-1-.69-1.74-.69h-2.42c-.57,0-.82,.17-1.11,.35-.68,.42-1.74,1.41-2.01,1.68l-.52,.09c-.48,.08-.85,.52-.85,1.01v1.67c0,.14,.06,.27,.16,.37l.71,.71c.1,.1,.24,.16,.38,.16h.4c.17,.66,.77,1.16,1.5,1.16,.39,0,.81-.16,1.1-.45,.21-.2,.34-.46,.41-.73h4.1c.17,.65,.78,1.15,1.5,1.15h0c.41,0,.8-.16,1.09-.45,.21-.2,.34-.46,.41-.73h.33c.15,0,.3-.07,.4-.18l.47-.53c.09-.1,.13-.22,.13-.35v-1.25Zm-9.95,2.91h0c-.52,0-.95-.41-.95-.92,0-.24,.1-.47,.27-.65,.18-.18,.42-.27,.67-.27h0c.52,0,.95,.41,.95,.92,0,.01,0,.03,0,.04,0,0,0,0,0,.01,0,0,0,0,0,0-.01,.22-.1,.43-.26,.59-.18,.18-.42,.27-.67,.27Zm7.11-.02h0c-.52,0-.95-.41-.95-.92,0-.24,.1-.47,.27-.65,.18-.18,.44-.3,.68-.27,.52,0,.95,.41,.95,.92,0,.24-.1,.47-.27,.65-.18,.18-.42,.27-.67,.27Zm1.84-1.18h-.32c-.12-.72-.76-1.27-1.52-1.27h0c-.41,0-.8,.16-1.09,.45-.23,.23-.38,.52-.43,.83h-4.05c-.12-.7-.76-1.25-1.53-1.25h0c-.41,0-.8,.16-1.09,.45-.23,.23-.38,.52-.43,.84h-.33s-.69-.65-.69-.65v-1.67c0-.2,.15-.38,.34-.41l.62-.11c.06-.01,.11-.04,.16-.08,.43-.42,1.41-1.31,2-1.68,.24-.15,.38-.24,.78-.24h2.42s.01,0,.02,0c.57,0,.82,.13,1.34,.55,.45,.36,1.85,1.48,1.85,1.48,.03,.02,.06,.04,.1,.05l1.93,.59c.19,.04,.34,.22,.34,.41l.02,1.2-.43,.51Z" style="fill:#272525;"/><path d="M13.25,8.26c-.47-.31-.63-.42-1.1-.42h-2.2c-.08,.03-.52,.15-1.02,.77-.32,.4-.5,.75-.5,.75-.08,.16-.07,.35,.04,.51,.1,.13,.26,.22,.43,.22l5.28-.02c.22,0,.41-.12,.5-.31,.09-.21,.03-.45-.16-.59-.05-.04-.95-.7-1.27-.91Zm-4.22,1.26c.07-.12,.2-.32,.37-.53,.34-.43,.63-.53,.62-.54h.73s0,.88,0,.88c0,.06,.03,.11,.06,.15h-.03s-1.76,.04-1.76,.04Zm2.26-.04s.06-.09,.06-.15v-.88s.79,0,.79,0h.01c.29,0,.33,.03,.77,.32,.21,.14,.69,.49,.99,.71h-2.62Z" style="fill:#272525;"/><path d="M12.29,10.36h-.47c-.17,0-.3,.14-.3,.3,0,.17,.13,.3,.3,.3h.47c.17,0,.3-.14,.3-.3,0-.17-.13-.3-.3-.3Z" style="fill:#272525;"/><path d="M6.69,8.39c.17,0,.3-.13,.3-.3v-2.34c0-.14,.04-.54,.3-.81,.17-.18,.42-.27,.74-.27h7.71c.05,0,1.23,.13,1.23,1.07,0,1.24-.03,2.81-.03,2.81h.6s.03-1.57,.03-2.81-1.16-1.62-1.81-1.67h-7.73c-.49,0-.89,.15-1.18,.46-.39,.41-.45,.97-.46,1.2v.02s0,.06,0,.07v2.27c0,.17,.13,.3,.3,.3Z" style="fill:#272525;"/><path d="M15.2,15.43c.17,0,.3-.13,.3-.3s-.13-.3-.3-.3h-4.75c-.17,0-.3,.13-.3,.3s.13,.3,.3,.3h4.75Z" style="fill:#272525;"/><path d="M8.94,15.78c.35,0,.64-.29,.64-.64s-.29-.64-.64-.64-.64,.29-.64,.64,.29,.64,.64,.64Zm0-.69s.04,.02,.04,.04l-.04,.04v-.09Z" style="fill:#272525;"/><path d="M9.99,16.87c0,.17,.13,.3,.3,.3h2.27c.17,0,.3-.13,.3-.3s-.13-.3-.3-.3h-2.27c-.17,0-.3,.13-.3,.3Z" style="fill:#272525;"/><path d="M8.94,17.52c.35,0,.64-.29,.64-.64s-.29-.64-.64-.64-.64,.29-.64,.64,.29,.64,.64,.64Zm0-.69s.04,.02,.04,.04l-.04,.04v-.09Z" style="fill:#272525;"/><path d="M17.27,14.19c-.17,0-.3,.13-.3,.3,0,.77-.01,1.29-.02,1.59-.03,0-.05-.03-.08-.03h-1.69c-.5,.09-1.46,.6-1.46,1.94,0,.72,0,1.12-.02,1.34h-5.61c-.11,0-1.11-.04-1.11-1.14v-3.63c0-.17-.13-.3-.3-.3s-.3,.13-.3,.3v3.63c0,1.38,1.12,1.74,1.71,1.74h5.89c.08,0,.15-.03,.2-.08,0,0,0,0,.01,0l3.25-3.25c.05-.05,.08-.12,.09-.2,0,0,.03-.66,.03-1.9,0-.17-.13-.3-.3-.3Zm-2.04,2.46h1.32l-2.23,2.23c0-.23,0-.52,0-.89,0-1.14,.86-1.33,.91-1.34Z" style="fill:#272525;"/></svg>