<?xml version="1.0" encoding="UTF-8"?><svg id="a" xmlns="http://www.w3.org/2000/svg" viewBox="0 0 24 24"><path d="M15.53,19.94c-.13,0-.24-.08-.28-.21l-.31-.93c-.15-.43-.49-.78-.93-.92l-.93-.31c-.12-.04-.21-.16-.21-.28s.08-.24,.21-.28l.93-.31c.43-.14,.78-.49,.93-.92l.31-.93c.08-.24,.49-.24,.57,0l.31,.93c.15,.43,.49,.78,.93,.93l.93,.31c.12,.04,.21,.16,.21,.28s-.08,.24-.21,.28l-.93,.31c-.43,.14-.78,.49-.93,.93l-.31,.93c-.04,.12-.16,.21-.29,.21Zm-1.4-2.65l.07,.03c.61,.2,1.1,.69,1.31,1.3l.02,.07,.02-.07h0c.21-.61,.69-1.1,1.31-1.31l.07-.02-.07-.02c-.61-.2-1.1-.69-1.31-1.3l-.02-.07-.02,.07c-.2,.61-.69,1.1-1.31,1.3l-.07,.02Zm-4.48,.3h0c-.13,0-.25-.09-.29-.22l-.64-2.23c-.31-1.08-1.14-1.91-2.22-2.22l-2.23-.64c-.13-.04-.22-.15-.22-.29s.09-.25,.22-.29l2.23-.64c1.08-.31,1.91-1.14,2.22-2.22l.64-2.23c.07-.26,.5-.26,.58,0l.64,2.23c.31,1.08,1.14,1.91,2.22,2.22l2.23,.64c.13,.04,.22,.15,.22,.29s-.09,.25-.22,.29l-2.23,.64c-1.08,.31-1.91,1.14-2.22,2.22l-.29-.08,.29,.08-.64,2.23c-.04,.13-.15,.22-.29,.22Zm-4.2-5.59l1.22,.35c1.28,.37,2.26,1.35,2.63,2.63l.35,1.22,.35-1.22h0c.37-1.28,1.35-2.26,2.63-2.63l1.22-.35-1.22-.35c-1.28-.37-2.26-1.35-2.63-2.63l-.35-1.22-.35,1.22c-.37,1.28-1.35,2.26-2.63,2.63l-1.22,.35Zm11.26-1.46c-.14,0-.26-.09-.29-.23l-.2-.81c-.21-.84-.86-1.5-1.71-1.71l-.81-.2c-.13-.03-.23-.15-.23-.29s.09-.26,.23-.29l.81-.2c.84-.21,1.5-.87,1.71-1.71l.2-.81c.07-.27,.52-.27,.58,0l.2,.81c.21,.84,.87,1.5,1.71,1.71l.81,.2c.13,.03,.23,.15,.23,.29s-.09,.26-.23,.29l-.81,.2c-.84,.21-1.5,.86-1.71,1.71h0l-.2,.81c-.03,.13-.15,.23-.29,.23Zm.2-1.11h0Zm-1.97-2.13c.82,.3,1.47,.94,1.77,1.77,.3-.82,.94-1.47,1.77-1.77-.82-.3-1.47-.94-1.77-1.77-.3,.82-.94,1.47-1.77,1.77Z" style="fill:#272525;"/></svg>