<?xml version="1.0" encoding="UTF-8"?><svg id="a" xmlns="http://www.w3.org/2000/svg" viewBox="0 0 24 24"><path d="M7.95,11.89c-1.6,0-2.51-.67-2.91-1.08-.27-.27-.39-.58-.32-.82,.03-.11,.13-.3,.42-.38,2.36-.57,6,.24,6.15,.27,.16,.04,.26,.2,.23,.36-.02,.08-.07,.15-.14,.19,.09,0,.23,.06,.28,.18,.07,.15,0,.33-.15,.4-1.44,.65-2.62,.88-3.55,.88Zm-2.63-1.7s.07,.12,.14,.19c.57,.57,2.23,1.69,5.77,.1-.02,0-.04,0-.06,0-.04,0-3.62-.8-5.84-.28Z" style="fill:#272525;"/><path d="M12,18.36c-.08,0-.16-.03-.22-.1-.04-.04-.91-1.05-.82-4.24,.04-1.09,.17-2.25,.86-2.6,.03-.02,.07-.03,.11-.03l.35-.03v-1.72c0-.1,.05-.19,.13-.25l.18-.12c-.05-.03-.2-.07-.52-.06-.02,0-.05,0-.07,0-.12,0-.19,0-.23-.3h-.06c0-.05,.01-.1,.04-.15-.04-.47-.05-1.44-.05-3.41,0-.17,.13-.3,.3-.3,.15,0,.3,.13,.3,.3,0,0,0,2.4,.01,3.26,.42,.02,.7,.14,.83,.36,.13,.22,.08,.48-.01,.62-.02,.04-.05,.07-.09,.1l-.16,.11v1.84c0,.15-.12,.28-.27,.3l-.56,.05c-.21,.15-.44,.63-.49,2.06-.08,2.91,.66,3.82,.67,3.83,.11,.12,.09,.31-.03,.42-.06,.05-.13,.07-.2,.07Z" style="fill:#272525;"/><path d="M10.89,10.02s-1.17-.8-1.41-.98c-.07-.05-.11-.13-.12-.21-.06-.7,.1-1.4,.19-1.79-.46-1.17-1.89-2.81-1.9-2.83-.11-.12-.1-.31,.03-.42,.12-.11,.31-.1,.42,.03,.06,.07,1.59,1.82,2.05,3.11,.02,.06,.02,.12,0,.17-.08,.31-.23,.93-.21,1.55,.37,.26,1.28,.88,1.28,.88l-.34,.5Z" style="fill:#272525;"/><path d="M6.28,16.46s-.07,0-.1-.02c-.15-.06-.23-.23-.18-.38,.02-.06,.55-1.43,2.76-2.47,.1-.62,.48-1.4,.64-1.59,.38-.29,1.49-1.01,1.49-1.01l.33,.5s-1.09,.71-1.41,.94c-.06,.08-.44,.89-.47,1.37,0,.11-.07,.21-.18,.26-2.09,.94-2.59,2.19-2.6,2.2-.05,.12-.16,.19-.28,.19Z" style="fill:#272525;"/><path d="M7.52,20.28s-.05,0-.08-.01c-.16-.04-.25-.21-.21-.37,.58-2.09,2.06-3.69,2.55-4.18-.58-1.74,.16-2.86,.19-2.9l1.18-1.39c.11-.13,.3-.14,.42-.04,.13,.11,.14,.3,.04,.42l-1.16,1.36s-.62,.98-.04,2.52c.04,.11,.01,.24-.08,.33-.08,.07-1.9,1.78-2.52,4.04-.04,.13-.16,.22-.29,.22Z" style="fill:#272525;"/><path d="M16.05,11.89c-.94,0-2.11-.23-3.55-.88-.15-.07-.22-.25-.15-.4,.05-.11,.16-.18,.27-.18h0c-.07-.04-.12-.11-.14-.19-.04-.16,.06-.32,.23-.36,.15-.04,3.8-.85,6.15-.27,.3,.07,.39,.27,.42,.38,.07,.24-.05,.55-.31,.81-.41,.42-1.33,1.09-2.93,1.09Zm-3.27-1.41c3.54,1.58,5.2,.47,5.76-.09,.08-.08,.13-.15,.15-.2-2.24-.52-5.8,.27-5.84,.28-.02,0-.04,0-.06,0Z" style="fill:#272525;"/><path d="M12,18.36c-.07,0-.14-.03-.2-.08-.12-.11-.13-.3-.02-.42,.02-.02,.75-.94,.67-3.83-.05-1.43-.29-1.91-.49-2.06l-.56-.05c-.15-.01-.27-.14-.27-.3v-1.84l-.16-.11s-.07-.06-.09-.1c-.09-.15-.15-.4-.01-.62,.13-.22,.41-.34,.83-.36,0-.86,.01-3.26,.01-3.26,0-.17,.13-.3,.3-.3h0c.17,0,.3,.14,.3,.3,0,1.97-.01,2.94-.05,3.41,.02,.04,.04,.09,.04,.15h-.06c-.04,.3-.11,.31-.25,.3-.02,0-.04,0-.06,0-.32-.01-.47,.03-.52,.06l.19,.13c.08,.06,.13,.15,.13,.25v1.72l.35,.03s.07,.01,.11,.03c.69,.35,.82,1.51,.86,2.6,.09,3.2-.78,4.2-.82,4.24-.06,.07-.14,.1-.22,.1Z" style="fill:#272525;"/><path d="M13.11,10.02l-.34-.5s.91-.62,1.28-.88c.02-.62-.13-1.24-.21-1.55-.01-.06-.01-.12,0-.17,.46-1.28,1.98-3.03,2.05-3.11,.11-.13,.3-.14,.42-.03,.12,.11,.14,.3,.03,.42-.01,.02-1.45,1.66-1.9,2.83,.1,.39,.25,1.08,.19,1.79,0,.09-.05,.16-.12,.21-.24,.18-1.41,.98-1.41,.98Z" style="fill:#272525;"/><path d="M17.72,16.46c-.12,0-.24-.07-.28-.19,0-.02-.51-1.27-2.6-2.2-.1-.05-.17-.15-.18-.26-.03-.49-.41-1.29-.52-1.42-.27-.19-1.36-.89-1.36-.89l.33-.5s1.11,.72,1.43,.96c.21,.24,.6,1.02,.7,1.64,2.21,1.04,2.74,2.41,2.76,2.47,.06,.16-.02,.33-.18,.39-.03,.01-.07,.02-.1,.02Z" style="fill:#272525;"/><path d="M16.48,20.28c-.13,0-.25-.09-.29-.22-.63-2.26-2.45-3.97-2.52-4.04-.09-.08-.12-.21-.08-.33,.58-1.54-.03-2.5-.06-2.54l-1.14-1.34c-.11-.13-.09-.32,.04-.42,.13-.11,.32-.09,.42,.04l1.16,1.36c.05,.07,.79,1.19,.21,2.93,.49,.49,1.97,2.09,2.55,4.18,.04,.16-.05,.32-.21,.37-.03,0-.05,.01-.08,.01Z" style="fill:#272525;"/></svg>