<?xml version="1.0" encoding="UTF-8"?><svg id="a" xmlns="http://www.w3.org/2000/svg" viewBox="0 0 24 24"><path d="M19.34,17.98H5.35c-.17,0-.3-.13-.3-.3s.13-.3,.3-.3h13.99c.17,0,.3,.13,.3,.3s-.13,.3-.3,.3Z" style="fill:#272525;"/><path d="M18.46,17.98h0c-.17,0-.3-.14-.29-.31,0-.16,.11-3.41,1.65-6.3-1.05,.94-2.49,2.79-3.5,6.32-.04,.14-.17,.23-.31,.22-.14-.01-.26-.12-.28-.26l-.03-.19c-.13-.93-.46-3.2,.5-6.14-1.02,1.3-2.17,3.41-2.01,6.26,0,.16-.11,.3-.28,.32-.18,.02-.3-.11-.32-.27,0-.09-.01-.21-.02-.36-.04-.85-.14-2.83-1.11-4.75-.43-.85-.99-1.6-1.67-2.23,.49,1.6,1.24,4.7,.85,7.38-.02,.15-.14,.25-.29,.26-.14-.01-.27-.1-.3-.25-.16-.86-1.05-4.9-4.41-7.49,1.04,1.76,2.62,4.9,2.4,7.39-.01,.14-.12,.26-.27,.27-.15,.01-.28-.07-.32-.21-.25-.78-1.59-3.66-4.16-5.44,.79,1.17,1.85,3.07,2.35,5.23,.04,.16-.06,.32-.22,.36-.16,.03-.32-.06-.36-.22-.74-3.21-2.84-5.9-3.1-6.14-.11-.1-.12-.26-.04-.39,.08-.12,.24-.17,.37-.1,2.53,1.18,4.2,3.43,5.07,5.04-.47-2.82-2.5-5.95-2.97-6.64-.08-.12-.07-.28,.02-.38,.09-.1,.24-.13,.37-.06,3.17,1.81,4.67,4.76,5.36,6.8-.08-3.14-1.25-6.16-1.26-6.19-.06-.12-.03-.27,.08-.36,.1-.09,.25-.1,.37-.02,1.13,.81,2.03,1.86,2.67,3.12,.43,.85,.7,1.7,.87,2.47,.64-2.56,2.19-4.24,2.98-4.97,.11-.1,.27-.11,.38-.02,.12,.08,.16,.23,.1,.36-1.15,2.56-1.25,4.72-1.16,6.11,1.52-4.28,3.65-5.73,4.55-6.16,.13-.06,.27-.03,.36,.08,.09,.11,.09,.26,.01,.37-2.19,2.95-2.32,7.18-2.32,7.22,0,.16-.14,.29-.3,.29Z" style="fill:#272525;"/><path d="M14.91,12.96h0c-.17,0-.3-.14-.29-.31,0-.14,.07-3.04,.64-5.47-1.03,1.11-1.77,2.98-2.15,5.47-.02,.16-.18,.28-.34,.25-.16-.02-.28-.18-.25-.34,.49-3.21,1.57-5.45,3.12-6.49,.11-.07,.25-.07,.35,0,.1,.08,.14,.21,.11,.33-.78,2.47-.87,6.22-.87,6.25,0,.16-.14,.29-.3,.29Z" style="fill:#272525;"/></svg>