<?xml version="1.0" encoding="UTF-8"?><svg id="a" xmlns="http://www.w3.org/2000/svg" viewBox="0 0 24 24"><path d="M7.9,18.58c-1.18,0-1.8-.89-1.96-1.36h0s-1.03-1.98-1.66-3.15c-.64-1.21-.07-1.9-.04-1.93l.84-1.36-1.01-.63c-.12-.07-.17-.21-.13-.34s.13-.22,.29-.22l3.92,.03c.11,0,.21,.06,.26,.16l1.7,3.19c.06,.12,.04,.26-.06,.36-.1,.09-.24,.11-.36,.04l-.88-.5-.77,1.32h3.31c.17,0,.3,.13,.3,.3v3.78c0,.08-.03,.16-.09,.21-.06,.06-.15,.07-.21,.09,0,0-2.05-.01-3.43,0h-.02Zm-1.46-1.69l.05,.09c.03,.08,.37,1,1.42,1h.02c1.06-.01,2.51,0,3.13,0v-3.18h-3.37l-1.18,2.01s-.04,.06-.07,.08Zm-1.15-6.68l.36,.22c.07,.04,.12,.11,.13,.19s0,.16-.04,.23l-1.03,1.65s-.35,.47,.09,1.29c.39,.74,.95,1.8,1.31,2.49l2.33-3.96c.08-.14,.27-.19,.41-.11l.23,.13-1.13-2.11-2.67-.02Z" style="fill:#272525;"/><path d="M10.2,10.42s-.09-.01-.14-.03l-3.35-1.76c-.07-.04-.12-.1-.15-.18-.02-.08-.02-.16,.02-.23,0,0,.97-1.81,1.59-3.03,.54-1.07,1.63-1.2,2.13-1.13,0,0,.88,0,1.87,0,.58,0,1.19,0,1.68,0h.02c1.35,0,1.7,.82,1.71,.86l.81,1.38,1.03-.61c.11-.07,.26-.05,.36,.04,.1,.09,.12,.24,.06,.36l-1.85,3.46c-.05,.1-.15,.16-.26,.16l-3.61,.02h0c-.13,0-.25-.09-.29-.21-.04-.13,.01-.27,.13-.34l.85-.54-.81-1.3-1.54,2.93c-.05,.1-.16,.16-.27,.16Zm-2.94-2.18l2.82,1.48,1.56-2.96v-.02l-1.22-1.98s-.03-.06-.04-.1c-.07,0-.1,0-.1,0-.08,0-1.07-.14-1.55,.8-.48,.94-1.16,2.23-1.46,2.78Zm3.8-3.58l2.43,3.9c.09,.14,.04,.32-.09,.41l-.22,.14,2.39-.02,1.26-2.35-.36,.21c-.07,.04-.15,.05-.23,.03-.08-.02-.14-.07-.18-.14l-.98-1.68c-.03-.05-.25-.52-1.17-.52h-.02c-.84,0-2.04,0-2.82,0Z" style="fill:#272525;"/><path d="M14.34,19.96c-.1,0-.2-.05-.26-.14l-2.05-3.34c-.06-.09-.06-.21,0-.31l1.81-3.13c.07-.12,.2-.18,.33-.14,.13,.03,.22,.15,.23,.28l.04,1.01,1.53-.04-1.75-2.81c-.09-.14-.04-.33,.1-.41l3.21-2c.07-.04,.15-.05,.23-.04,.08,.02,.14,.07,.19,.14,0,0,1.07,1.75,1.81,2.91,.64,1.01,.21,2.02-.11,2.41,0,0-1.13,1.92-1.8,3.07-.69,1.18-1.58,1.06-1.62,1.06h-1.6v1.19c0,.13-.08,.25-.21,.29-.03,0-.05,.01-.08,.01Zm-1.7-3.65l1.39,2.27v-.42c0-.08,.03-.16,.09-.21,.06-.06,.13-.09,.21-.09h1.94c.06,0,.58,.05,1.05-.76,.42-.73,1.03-1.76,1.42-2.43l-4.59,.12c-.17,0-.3-.12-.31-.29v-.27l-1.21,2.07Zm2.24-5.04l1.77,2.84v.02l2.34-.06s.07,0,.1,.02l.05-.09c.05-.07,.66-.85,.09-1.75-.57-.89-1.33-2.13-1.66-2.66l-2.7,1.68Z" style="fill:#272525;"/></svg>