<?xml version="1.0" encoding="UTF-8"?><svg id="a" xmlns="http://www.w3.org/2000/svg" viewBox="0 0 24 24"><path d="M16.54,16.21c-1.18,0-2.15-.96-2.15-2.15s.96-2.15,2.15-2.15,2.15,.96,2.15,2.15-.96,2.15-2.15,2.15Zm0-3.69c-.85,0-1.55,.69-1.55,1.55s.69,1.55,1.55,1.55,1.55-.69,1.55-1.55-.69-1.55-1.55-1.55Z" style="fill:#272525;"/><path d="M19.65,19.95h-6.22c-.08,0-.16-.04-.22-.1-.06-.06-.09-.14-.08-.23,.15-1.8,1.62-3.15,3.41-3.15s3.26,1.35,3.41,3.15c0,.08-.02,.17-.08,.23-.06,.06-.14,.1-.22,.1Zm-5.88-.6h5.53c-.26-1.32-1.4-2.28-2.77-2.28s-2.51,.96-2.77,2.28Z" style="fill:#272525;"/><path d="M8.19,15.52c-1.42,0-2.58-1.16-2.58-2.58s1.16-2.58,2.58-2.58,2.58,1.16,2.58,2.58-1.16,2.58-2.58,2.58Zm0-4.56c-1.09,0-1.98,.89-1.98,1.98s.89,1.98,1.98,1.98,1.98-.89,1.98-1.98-.89-1.98-1.98-1.98Z" style="fill:#272525;"/><path d="M12.03,19.96H4.35c-.08,0-.16-.04-.22-.1-.06-.06-.09-.14-.08-.23,.18-2.18,1.96-3.82,4.14-3.82s3.96,1.64,4.14,3.82c0,.08-.02,.17-.08,.23-.06,.06-.14,.1-.22,.1Zm-7.34-.6h7c-.3-1.7-1.75-2.95-3.5-2.95s-3.2,1.25-3.5,2.95Z" style="fill:#272525;"/><path d="M7.08,7.81c-.07,0-.13-.02-.19-.07l-.92-.74c-.13-.1-.15-.29-.04-.42,.1-.13,.29-.15,.42-.04l.71,.57,1.39-1.39c.12-.12,.31-.12,.42,0,.12,.12,.12,.31,0,.42l-1.58,1.58c-.06,.06-.14,.09-.21,.09Z" style="fill:#272525;"/><path d="M13.86,12.63c-.06,0-.12-.02-.17-.06l-2.16-1.55h-.39c-.62,0-1.12-.5-1.12-1.12V5.09c0-.62,.5-1.12,1.12-1.12h7.78c.62,0,1.12,.5,1.12,1.12v4.82c0,.62-.5,1.12-1.12,1.12h-4.75v1.3c-.01,.11-.08,.21-.18,.27-.04,.02-.09,.03-.14,.03Zm-2.72-8.06c-.29,0-.52,.23-.52,.52v4.82c0,.29,.23,.52,.52,.52h.48c.06,0,.12,.02,.17,.06l1.77,1.27v-1.02c.01-.17,.14-.3,.31-.3h5.04c.29,0,.52-.23,.52-.52V5.09c0-.29-.23-.52-.52-.52h-7.78Z" style="fill:#272525;"/><path d="M9.9,9.53H5.05c-.62,0-1.12-.5-1.12-1.12v-3.32c0-.62,.5-1.12,1.12-1.12h4.85c.3,0,.58,.12,.8,.33,.12,.12,.12,.31,0,.42-.12,.12-.31,.12-.42,0-.1-.1-.23-.16-.37-.16H5.05c-.29,0-.52,.23-.52,.52v3.32c0,.29,.23,.52,.52,.52h4.85c.07,0,.14-.01,.2-.04,.15-.07,.33,0,.39,.16,.06,.15,0,.33-.16,.39-.14,.06-.28,.09-.44,.09Z" style="fill:#272525;"/><g><path d="M15.55,9.02h-1.02c-.17,0-.3-.13-.3-.3s.13-.3,.3-.3h1.03v-.53h-.82c-.37,0-.57-.31-.57-.59v-.55c0-.43,.34-.63,.58-.66h1.15c.17,0,.3,.13,.3,.3s-.13,.3-.3,.3h-1.11s-.01,.03-.01,.06v.55h.79c.3,.01,.6,.19,.6,.52v.68c0,.21-.16,.52-.6,.52Z" style="fill:#272525;"/><path d="M15.18,6.54c-.17,0-.3-.13-.3-.3v-.44c0-.17,.13-.3,.3-.3s.3,.13,.3,.3v.44c0,.17-.13,.3-.3,.3Z" style="fill:#272525;"/><path d="M15.18,9.56c-.17,0-.3-.13-.3-.3v-.44c0-.17,.13-.3,.3-.3s.3,.13,.3,.3v.44c0,.17-.13,.3-.3,.3Z" style="fill:#272525;"/></g></svg>