<?xml version="1.0" encoding="UTF-8"?><svg id="a" xmlns="http://www.w3.org/2000/svg" viewBox="0 0 24 24"><path d="M11.52,17.45s-.06,0-.08-.01c-1.34-.39-2.23-1.08-2.64-2.03-.65-1.52,.16-3.14,.19-3.21,.08-.15,.26-.21,.4-.13,.15,.08,.21,.26,.13,.4,0,.01-.72,1.44-.18,2.7,.34,.78,1.1,1.35,2.26,1.69,.16,.05,.25,.21,.2,.37-.04,.13-.16,.22-.29,.22Z" style="fill:#272525;"/><path d="M12,19.94c-3.07,0-5.56-2.56-5.56-5.7,0-.93,.23-1.83,.69-2.7,1.38-3.51,4.4-7.21,4.53-7.36,.06-.07,.14-.11,.23-.11h0c.09,0,.17,.04,.23,.11,2.41,2.93,4.06,5.5,4.9,7.64,.21,.46,.37,.96,.45,1.47,.13,.63,.09,.95,.09,.99,0,3.11-2.49,5.66-5.56,5.66Zm-.11-15.1c-.74,.94-3.08,4.05-4.22,6.94-.42,.81-.63,1.62-.63,2.45,0,2.81,2.22,5.1,4.96,5.1s4.96-2.29,4.96-5.1c0-.04,.03-.3-.08-.83h0c-.08-.47-.21-.93-.41-1.35-.55-1.41-1.79-3.78-4.57-7.21Z" style="fill:#272525;"/></svg>