<?xml version="1.0" encoding="UTF-8"?><svg id="a" xmlns="http://www.w3.org/2000/svg" viewBox="0 0 24 24"><path d="M12,18.59c-3.63,0-6.59-2.95-6.59-6.59s2.96-6.59,6.59-6.59,6.59,2.95,6.59,6.59-2.96,6.59-6.59,6.59Zm0-12.57c-3.3,0-5.99,2.69-5.99,5.99s2.69,5.99,5.99,5.99,5.99-2.69,5.99-5.99-2.69-5.99-5.99-5.99Z" style="fill:#272525;"/><path d="M12,19.93c-4.37,0-7.93-3.56-7.93-7.93s3.56-7.93,7.93-7.93,7.93,3.56,7.93,7.93-3.56,7.93-7.93,7.93Zm0-15.26c-4.04,0-7.33,3.29-7.33,7.33s3.29,7.33,7.33,7.33,7.33-3.29,7.33-7.33-3.29-7.33-7.33-7.33Z" style="fill:#272525;"/><path d="M12,17.01c-.17,0-.3-.13-.3-.3V7.29c0-.17,.13-.3,.3-.3s.3,.13,.3,.3v9.41c0,.17-.13,.3-.3,.3Z" style="fill:#272525;"/><path d="M14.62,16.34c-.17,0-.3-.13-.3-.3v-7.96c0-.17,.13-.3,.3-.3s.3,.13,.3,.3v7.96c0,.17-.13,.3-.3,.3Z" style="fill:#272525;"/><path d="M9.44,16.34c-.17,0-.3-.13-.3-.3v-7.96c0-.17,.13-.3,.3-.3s.3,.13,.3,.3v7.96c0,.17-.13,.3-.3,.3Z" style="fill:#272525;"/><g><path d="M15.76,9.53h-7.59c-.17,0-.3-.13-.3-.3s.13-.3,.3-.3h7.59c.17,0,.3,.13,.3,.3s-.13,.3-.3,.3Z" style="fill:#272525;"/><path d="M15.76,15.07h-7.59c-.17,0-.3-.13-.3-.3s.13-.3,.3-.3h7.59c.17,0,.3,.13,.3,.3s-.13,.3-.3,.3Z" style="fill:#272525;"/></g><path d="M16.77,12.3H7.23c-.17,0-.3-.13-.3-.3s.13-.3,.3-.3h9.54c.17,0,.3,.13,.3,.3s-.13,.3-.3,.3Z" style="fill:#272525;"/><g><path d="M5.6,7.64c-.08,0-.15-.03-.21-.09l-.74-.74c-.12-.12-.12-.31,0-.42l1.64-1.64c.12-.12,.31-.12,.42,0l.77,.77c.12,.12,.12,.31,0,.42-.12,.12-.31,.12-.42,0l-.55-.55-1.21,1.21,.53,.53c.12,.12,.12,.31,0,.42-.06,.06-.13,.09-.21,.09Z" style="fill:#272525;"/><path d="M18.37,7.67c-.08,0-.15-.03-.21-.09-.12-.12-.12-.31,0-.42l.55-.55-1.21-1.21-.53,.53c-.12,.12-.31,.12-.42,0-.12-.12-.12-.31,0-.42l.74-.74c.06-.06,.13-.09,.21-.09h0c.08,0,.16,.03,.21,.09l1.64,1.64c.12,.12,.12,.31,0,.42l-.77,.77c-.06,.06-.13,.09-.21,.09Z" style="fill:#272525;"/></g><g><path d="M17.5,19.53c-.08,0-.16-.03-.21-.09l-.77-.77c-.12-.12-.12-.31,0-.42,.12-.12,.31-.12,.42,0l.55,.55,1.21-1.21-.53-.53c-.12-.12-.12-.31,0-.42,.12-.12,.31-.12,.42,0l.74,.74c.12,.12,.12,.31,0,.42l-1.64,1.64c-.06,.06-.13,.09-.21,.09Z" style="fill:#272525;"/><path d="M6.5,19.53c-.08,0-.15-.03-.21-.09l-1.64-1.64c-.12-.12-.12-.31,0-.42l.77-.77c.12-.12,.31-.12,.42,0,.12,.12,.12,.31,0,.42l-.55,.55,1.21,1.21,.53-.53c.12-.12,.31-.12,.42,0,.12,.12,.12,.31,0,.42l-.74,.74c-.06,.06-.13,.09-.21,.09Z" style="fill:#272525;"/></g></svg>