<?xml version="1.0" encoding="UTF-8"?><svg id="a" xmlns="http://www.w3.org/2000/svg" viewBox="0 0 24 24"><path d="M16.18,7.82c-.08,0-.15-.03-.21-.09-.12-.12-.12-.31,0-.42l1.38-1.38c.12-.12,.31-.12,.42,0,.12,.12,.12,.31,0,.42l-1.38,1.38c-.06,.06-.13,.09-.21,.09Z" style="fill:#272525;"/><path d="M17.77,11.18c-.15,0-.28-.11-.3-.26-.02-.16,.1-.31,.26-.33l1.94-.24c.18-.02,.31,.1,.33,.26,.02,.16-.1,.31-.26,.33l-1.94,.24s-.02,0-.04,0Z" style="fill:#272525;"/><path d="M7.82,7.82c-.08,0-.15-.03-.21-.09l-1.38-1.38c-.12-.12-.12-.31,0-.42,.12-.12,.31-.12,.42,0l1.38,1.38c.12,.12,.12,.31,0,.42-.06,.06-.13,.09-.21,.09Z" style="fill:#272525;"/><path d="M6.23,11.18s-.02,0-.04,0l-1.94-.24c-.16-.02-.28-.17-.26-.33s.16-.28,.33-.26l1.94,.24c.16,.02,.28,.17,.26,.33-.02,.15-.15,.26-.3,.26Z" style="fill:#272525;"/><path d="M11.99,5.98c-.17,0-.3-.13-.3-.3v-1.93c0-.17,.13-.3,.3-.3s.3,.13,.3,.3v1.93c0,.17-.13,.3-.3,.3Z" style="fill:#272525;"/><path d="M13.56,20.55h-3.13c-.45,0-.82-.37-.82-.82v-.76c0-.45,.37-.82,.82-.82h3.13c.45,0,.82,.37,.82,.82v.76c0,.45-.37,.82-.82,.82Zm-3.13-1.8c-.12,0-.22,.1-.22,.22v.76c0,.12,.1,.22,.22,.22h3.13c.12,0,.22-.1,.22-.22v-.76c0-.12-.1-.22-.22-.22h-3.13Z" style="fill:#272525;"/><path d="M13.54,17.82h-3.09c-.46,0-.84-.38-.84-.84v-.67c-.04-.47-.28-.98-.75-1.55-.13-.12-.26-.28-.4-.45-.05-.06-.1-.11-.13-.14-.01-.02-.03-.05-.04-.07-.53-.73-.82-1.64-.82-2.58,0-2.5,2.03-4.53,4.53-4.53s4.53,2.03,4.53,4.53c0,.92-.28,1.81-.81,2.58-.01,.03-.03,.06-.04,.08-.04,.05-.11,.13-.2,.23l-.06,.08c-.08,.1-.17,.2-.26,.29-.46,.55-.71,1.07-.75,1.57v.65c-.01,.46-.39,.84-.85,.84Zm-4.7-3.97s.03,.03,.06,.06c.14,.18,.26,.32,.39,.44,.58,.69,.87,1.32,.91,1.94v.69c0,.13,.11,.24,.24,.24h3.09c.13,0,.24-.11,.24-.24v-.68c.06-.64,.36-1.27,.92-1.95,.1-.1,.17-.18,.24-.27l.05-.06c.11-.12,.17-.18,.2-.22,0-.02,0-.02,.01-.03,.47-.67,.72-1.45,.72-2.26,0-2.17-1.76-3.93-3.93-3.93s-3.93,1.76-3.93,3.93c0,.82,.26,1.6,.74,2.28,.01,.02,.03,.05,.04,.07,0,0,0,0,0,0Zm6.6,.09l.27,.12-.27-.12Z" style="fill:#272525;"/></svg>