<?xml version="1.0" encoding="UTF-8"?><svg id="a" xmlns="http://www.w3.org/2000/svg" viewBox="0 0 24 24"><path d="M15.2,19.91H6.84c-.49,0-.89-.4-.89-.89s.4-.89,.89-.89h.51v-1.95c-1.9-.49-1.85-2.53-1.79-3.17V5.4c0-.72,.59-1.31,1.31-1.31h1.81c.72,0,1.31,.59,1.31,1.31v6.31h8.12c.08,0,.16,.03,.21,.09,.06,.06,.09,.13,.09,.21-.03,3.23-2.57,4.02-3.55,4.2v1.92h.34c.49,0,.89,.4,.89,.89s-.4,.89-.89,.89Zm-8.36-1.19c-.16,0-.29,.13-.29,.29s.13,.29,.29,.29H15.2c.16,0,.29-.13,.29-.29s-.13-.29-.29-.29h-.64c-.17,0-.3-.13-.3-.3v-2.47c0-.15,.11-.28,.26-.3,.53-.06,3.08-.52,3.27-3.35H9.68c-.17,0-.3-.13-.3-.3V5.4c0-.39-.32-.71-.71-.71h-1.81c-.39,0-.71,.32-.71,.71v7.63c-.07,.71-.05,2.33,1.55,2.6,.14,.02,.25,.15,.25,.3v2.49c0,.17-.13,.3-.3,.3h-.81Z" style="fill:#272525;"/><path d="M17.58,11.43h-7.04c-.17,0-.3-.13-.3-.3v-1.19c0-.17,.13-.3,.3-.3h7.04c.49,0,.89,.4,.89,.89s-.4,.89-.89,.89Zm-6.74-.6h6.74c.16,0,.29-.13,.29-.29s-.13-.29-.29-.29h-6.74v.59Z" style="fill:#272525;"/></svg>