<?xml version="1.0" encoding="UTF-8"?><svg id="a" xmlns="http://www.w3.org/2000/svg" viewBox="0 0 24 24"><path d="M17.26,11.59h-2.98c-.17,0-.3-.13-.3-.3v-1.9c0-.17,.13-.3,.3-.3h2.98c.17,0,.3,.13,.3,.3v1.9c0,.17-.13,.3-.3,.3Zm-2.68-.6h2.38v-1.3h-2.38v1.3Z" style="fill:#272525;"/><path d="M9.78,15.82c-1.66,0-3-1.35-3-3s1.35-3,3-3,3,1.35,3,3-1.35,3-3,3Zm0-5.41c-1.33,0-2.4,1.08-2.4,2.4s1.08,2.4,2.4,2.4,2.4-1.08,2.4-2.4-1.08-2.4-2.4-2.4Z" style="fill:#272525;"/><path d="M19.59,18.21H5.78c-.98,0-1.77-.79-1.77-1.77v-6.93c0-.98,.79-1.77,1.77-1.77h12.43c.98,0,1.77,.79,1.77,1.77v7.22c0,.17-.13,.3-.3,.3s-.3-.13-.3-.3v-7.22c0-.65-.53-1.17-1.17-1.17H5.78c-.65,0-1.17,.53-1.17,1.17v6.93c0,.65,.53,1.17,1.17,1.17h13.8c.17,0,.3,.13,.3,.3s-.13,.3-.3,.3Z" style="fill:#272525;"/><path d="M11.85,8.25c-.17,0-.3-.13-.3-.3v-.69c0-.48-.39-.87-.87-.87h-2.92c-.48,0-.87,.39-.87,.87v.58c0,.17-.13,.3-.3,.3s-.3-.13-.3-.3v-.58c0-.81,.66-1.47,1.47-1.47h2.92c.81,0,1.47,.66,1.47,1.47v.69c0,.17-.13,.3-.3,.3Z" style="fill:#272525;"/></svg>