<?xml version="1.0" encoding="UTF-8"?><svg id="a" xmlns="http://www.w3.org/2000/svg" viewBox="0 0 24 24"><g><path d="M13.91,17.26c-.17,0-.3-.13-.3-.3V8.57c0-.17,.13-.3,.3-.3s.3,.13,.3,.3v8.39c0,.17-.13,.3-.3,.3Z" style="fill:#272525;"/><path d="M13.14,21.08h-2.29c-.59,0-1.06-.48-1.06-1.06V8.57c0-.17,.13-.3,.3-.3h3.82c.17,0,.3,.13,.3,.3s-.13,.3-.3,.3h-3.52v11.15c0,.26,.21,.46,.46,.46h2.29c.26,0,.46-.21,.46-.46v-1.53c0-.17,.13-.3,.3-.3s.3,.13,.3,.3v1.53c0,.59-.48,1.06-1.06,1.06Z" style="fill:#272525;"/><path d="M13.91,18.79h-3.82c-.17,0-.3-.13-.3-.3s.13-.3,.3-.3h3.82c.17,0,.3,.13,.3,.3s-.13,.3-.3,.3Z" style="fill:#272525;"/><path d="M13.91,8.87c-.1,0-.2-.05-.25-.14l-1.65-2.65-1.65,2.65c-.09,.14-.27,.18-.41,.1-.14-.09-.18-.27-.09-.41l1.91-3.05c.11-.17,.4-.17,.51,0l1.91,3.05c.09,.14,.05,.33-.09,.41-.05,.03-.1,.05-.16,.05Z" style="fill:#272525;"/><path d="M12,18.79c-.17,0-.3-.13-.3-.3V8.57c0-.17,.13-.3,.3-.3s.3,.13,.3,.3v9.92c0,.17-.13,.3-.3,.3Z" style="fill:#272525;"/></g><path d="M12,4.29c-.17,0-.3-.13-.3-.3v-.76c0-.17,.13-.3,.3-.3s.3,.13,.3,.3v.76c0,.17-.13,.3-.3,.3Z" style="fill:#272525;"/><path d="M8.95,5.1c-.1,0-.2-.05-.26-.15l-.38-.66c-.08-.14-.03-.33,.11-.41,.14-.08,.33-.03,.41,.11l.38,.66c.08,.14,.03,.33-.11,.41-.05,.03-.1,.04-.15,.04Z" style="fill:#272525;"/><path d="M6.71,7.34c-.05,0-.1-.01-.15-.04l-.66-.38c-.14-.08-.19-.27-.11-.41,.08-.14,.27-.19,.41-.11l.66,.38c.14,.08,.19,.27,.11,.41-.06,.1-.16,.15-.26,.15Z" style="fill:#272525;"/><path d="M5.89,10.39h-.76c-.17,0-.3-.13-.3-.3s.13-.3,.3-.3h.76c.17,0,.3,.13,.3,.3s-.13,.3-.3,.3Z" style="fill:#272525;"/><path d="M6.05,13.83c-.1,0-.2-.05-.26-.15-.08-.14-.03-.33,.11-.41l.66-.38c.15-.08,.33-.03,.41,.11,.08,.14,.03,.33-.11,.41l-.66,.38s-.1,.04-.15,.04Z" style="fill:#272525;"/><path d="M15.05,5.1c-.05,0-.1-.01-.15-.04-.14-.08-.19-.27-.11-.41l.38-.66c.08-.14,.27-.19,.41-.11,.14,.08,.19,.27,.11,.41l-.38,.66c-.06,.1-.16,.15-.26,.15Z" style="fill:#272525;"/><path d="M17.29,7.34c-.1,0-.2-.05-.26-.15-.08-.14-.03-.33,.11-.41l.66-.38c.14-.08,.33-.03,.41,.11,.08,.14,.03,.33-.11,.41l-.66,.38s-.1,.04-.15,.04Z" style="fill:#272525;"/><path d="M18.87,10.39h-.76c-.17,0-.3-.13-.3-.3s.13-.3,.3-.3h.76c.17,0,.3,.13,.3,.3s-.13,.3-.3,.3Z" style="fill:#272525;"/><path d="M17.95,13.83c-.05,0-.1-.01-.15-.04l-.66-.38c-.14-.08-.19-.27-.11-.41,.08-.14,.27-.19,.41-.11l.66,.38c.14,.08,.19,.27,.11,.41-.06,.1-.16,.15-.26,.15Z" style="fill:#272525;"/></svg>