<?xml version="1.0" encoding="UTF-8"?><svg id="a" xmlns="http://www.w3.org/2000/svg" viewBox="0 0 24 24"><path d="M8.42,17.57h-.02c-.17-.01-.29-.16-.28-.32,.13-1.92,1.02-3.53,2.31-4.28-.55-.46-.87-1.13-.87-1.86,0-1.34,1.09-2.44,2.44-2.44s2.44,1.09,2.44,2.44c0,.73-.33,1.41-.88,1.86,1.25,.73,2.13,2.28,2.3,4.12,.02,.17-.11,.31-.27,.33-.16,.02-.31-.11-.33-.27-.17-1.85-1.12-3.36-2.41-3.85-.11-.04-.19-.15-.19-.26,0-.12,.06-.23,.16-.28,.63-.32,1.02-.94,1.02-1.63,0-1.01-.82-1.84-1.84-1.84s-1.84,.82-1.84,1.84c0,.69,.39,1.32,1.02,1.63,.11,.05,.17,.17,.16,.28,0,.12-.08,.22-.19,.26-1.32,.5-2.29,2.11-2.43,4-.01,.16-.14,.28-.3,.28Z" style="fill:#272525;"/><path d="M4.3,15.33h-.02c-.17-.01-.29-.16-.28-.32,.13-1.92,1.02-3.53,2.31-4.28-.55-.46-.87-1.13-.87-1.86,0-1.34,1.09-2.44,2.44-2.44s2.44,1.09,2.44,2.44c0,.73-.33,1.41-.88,1.86,.05,.03,.1,.06,.15,.1,.14,.09,.18,.28,.09,.42-.09,.14-.28,.18-.42,.09-.17-.11-.35-.21-.54-.28-.11-.04-.19-.15-.19-.27,0-.12,.06-.23,.17-.28,.63-.32,1.02-.94,1.02-1.63,0-1.01-.82-1.84-1.84-1.84s-1.84,.82-1.84,1.84c0,.69,.39,1.32,1.02,1.63,.11,.05,.17,.16,.17,.28,0,.12-.08,.22-.19,.27-1.32,.5-2.29,2.11-2.43,4-.01,.16-.14,.28-.3,.28Z" style="fill:#272525;"/><path d="M19.7,15.18c-.15,0-.28-.12-.3-.27-.17-1.85-1.12-3.36-2.41-3.86-.11-.04-.19-.15-.19-.27,0-.12,.06-.23,.17-.28,.63-.32,1.02-.94,1.02-1.63,0-1.01-.82-1.84-1.84-1.84s-1.84,.82-1.84,1.84c0,.69,.39,1.32,1.02,1.63,.11,.05,.17,.16,.17,.28,0,.12-.08,.22-.19,.27-.28,.11-.55,.27-.8,.47-.13,.11-.32,.09-.42-.04-.1-.13-.09-.32,.04-.42,.15-.12,.31-.23,.47-.33-.55-.46-.88-1.13-.88-1.86,0-1.34,1.09-2.44,2.44-2.44s2.44,1.09,2.44,2.44c0,.73-.33,1.4-.88,1.86,1.25,.73,2.13,2.28,2.3,4.12,.02,.17-.11,.31-.27,.33h-.03Z" style="fill:#272525;"/></svg>