<?xml version="1.0" encoding="UTF-8"?><svg id="a" xmlns="http://www.w3.org/2000/svg" viewBox="0 0 24 24"><defs><style>.b{fill:#272525;}</style></defs><path class="b" d="M15.79,16.45c0-.08-.03-.14-.08-.19-.05-.06-.13-.1-.22-.1h-6.86c-.17,0-.3,.13-.3,.3s.13,.3,.3,.3h6.86c.17,0,.3-.13,.3-.3h0Z"/><path class="b" d="M19.96,11.11h0c0-.17-.13-.31-.3-.31H8.84c-.17,0-.3,.13-.3,.3,0,0,0,.01,0,.02h0c0,.08,.03,.14,.08,.19,.05,.05,.13,.09,.21,.09h10.82s.02-.01,.03-.01h0c.15,0,.27-.12,.27-.27,0,0,0,0,0-.01Z"/><path class="b" d="M8.8,7.86h5.35c.17,0,.3-.13,.3-.3s-.13-.3-.3-.3h-5.35c-.17,0-.3,.13-.3,.3s.13,.3,.3,.3Z"/><path class="b" d="M17.81,14.42H6.98c-.08,0-.16,.03-.21,.09-.05,.05-.09,.12-.09,.19,0,0,0,0,0,.01h0c0,.17,.13,.3,.3,.3h10.82c.17,0,.3-.13,.3-.3s-.13-.3-.3-.3Z"/><path class="b" d="M15.46,13c0-.17-.13-.3-.3-.3H4.34c-.09,0-.16,.04-.22,.1-.05,.05-.09,.12-.09,.19h0c0,.18,.13,.31,.3,.31H15.16c.17,0,.3-.13,.3-.3Z"/><path class="b" d="M5.64,9.55H14.33c.17,0,.3-.13,.3-.3s-.13-.3-.3-.3H5.64c-.17,0-.3,.13-.3,.3s.13,.3,.3,.3Z"/></svg>