<?xml version="1.0" encoding="UTF-8"?><svg id="a" xmlns="http://www.w3.org/2000/svg" viewBox="0 0 24 24"><g><path d="M7.8,20c-.63,0-1.14-.51-1.14-1.14v-1.07c0-.17,.13-.3,.3-.3s.3,.13,.3,.3v1.07c0,.3,.24,.54,.54,.54s.54-.24,.54-.54v-1.07c0-.17,.13-.3,.3-.3s.3,.13,.3,.3v1.07c0,.63-.51,1.14-1.14,1.14Z" style="fill:#272525;"/><path d="M15.33,20c-.63,0-1.14-.51-1.14-1.14v-1.07c0-.17,.13-.3,.3-.3s.3,.13,.3,.3v1.07c0,.3,.24,.54,.54,.54s.54-.24,.54-.54v-1.07c0-.17,.13-.3,.3-.3s.3,.13,.3,.3v1.07c0,.63-.51,1.14-1.14,1.14Z" style="fill:#272525;"/></g><g><path d="M15.45,6.19H7.69c-.17,0-.3-.13-.3-.3s.13-.3,.3-.3h7.75c.17,0,.3,.13,.3,.3s-.13,.3-.3,.3Z" style="fill:#272525;"/><path d="M13.94,13.06h-4.74c-1.31,0-2.37-1.06-2.37-2.37v-1.32c0-1.31,1.06-2.37,2.37-2.37h4.74c1.31,0,2.37,1.06,2.37,2.37v1.32c0,1.31-1.06,2.37-2.37,2.37Zm-4.74-5.47c-.98,0-1.77,.8-1.77,1.77v1.32c0,.98,.8,1.77,1.77,1.77h4.74c.98,0,1.77-.8,1.77-1.77v-1.32c0-.98-.8-1.77-1.77-1.77h-4.74Z" style="fill:#272525;"/><path d="M16.03,17.87H7.1c-1.02,0-1.84-.83-1.84-1.84V5.93c0-1.02,.83-1.84,1.84-1.84h8.93c1.02,0,1.84,.83,1.84,1.84v10.09c0,1.02-.83,1.84-1.84,1.84ZM7.1,4.69c-.69,0-1.24,.56-1.24,1.24v10.09c0,.69,.56,1.24,1.24,1.24h8.93c.69,0,1.24-.56,1.24-1.24V5.93c0-.69-.56-1.24-1.24-1.24H7.1Z" style="fill:#272525;"/><g><path d="M7.82,16.64c-.45,0-.82-.37-.82-.82s.37-.82,.82-.82,.82,.37,.82,.82-.37,.82-.82,.82Zm0-1.04c-.12,0-.22,.1-.22,.22s.1,.22,.22,.22,.22-.1,.22-.22-.1-.22-.22-.22Z" style="fill:#272525;"/><path d="M15.32,16.64c-.45,0-.82-.37-.82-.82s.37-.82,.82-.82,.82,.37,.82,.82-.37,.82-.82,.82Zm0-1.04c-.12,0-.22,.1-.22,.22s.1,.22,.22,.22,.22-.1,.22-.22-.1-.22-.22-.22Z" style="fill:#272525;"/></g></g></svg>