<?xml version="1.0" encoding="UTF-8"?><svg id="a" xmlns="http://www.w3.org/2000/svg" viewBox="0 0 24 24"><path d="M16.99,17.1H7.01c-.71,0-1.29-.58-1.29-1.29v-3.27c0-.71,.58-1.29,1.29-1.29h9.97c.71,0,1.29,.58,1.29,1.29v3.27c0,.71-.58,1.29-1.29,1.29ZM7.01,11.85c-.38,0-.69,.31-.69,.69v3.27c0,.38,.31,.69,.69,.69h9.97c.38,0,.69-.31,.69-.69v-3.27c0-.38-.31-.69-.69-.69H7.01Z" style="fill:#272525;"/><path d="M16.56,11.79c-.17,0-.3-.13-.3-.3v-3.09c0-.43-.35-.78-.78-.78h-7.05c-.43,0-.78,.35-.78,.78v3.09c0,.17-.13,.3-.3,.3s-.3-.13-.3-.3v-3.09c0-.76,.62-1.38,1.38-1.38h7.05c.76,0,1.38,.62,1.38,1.38v3.09c0,.17-.13,.3-.3,.3Z" style="fill:#272525;"/><g><path d="M8.41,19.27h-.37c-.51,0-.93-.42-.93-.93v-1.41c0-.17,.13-.3,.3-.3s.3,.13,.3,.3v1.41c0,.18,.15,.33,.33,.33h.37c.18,0,.33-.15,.33-.33v-1.54c0-.17,.13-.3,.3-.3s.3,.13,.3,.3v1.54c0,.52-.42,.93-.93,.93Z" style="fill:#272525;"/><path d="M15.87,19.27h-.37c-.52,0-.93-.42-.93-.93v-1.41c0-.17,.13-.3,.3-.3s.3,.13,.3,.3v1.41c0,.18,.15,.33,.33,.33h.37c.18,0,.33-.15,.33-.33v-1.54c0-.17,.13-.3,.3-.3s.3,.13,.3,.3v1.54c0,.52-.42,.93-.93,.93Z" style="fill:#272525;"/></g><path d="M14.59,6.32h-5.28c-.42,0-.76-.34-.76-.76v-.08c0-.42,.34-.76,.76-.76h5.28c.42,0,.76,.34,.76,.76v.08c0,.42-.34,.76-.76,.76Zm-5.28-1c-.08,0-.16,.07-.16,.16v.08c0,.08,.07,.16,.16,.16h5.28c.08,0,.16-.07,.16-.16v-.08c0-.08-.07-.16-.16-.16h-5.28Z" style="fill:#272525;"/><g><path d="M9,16.01c-.69,0-1.25-.56-1.25-1.25s.56-1.25,1.25-1.25,1.25,.56,1.25,1.25-.56,1.25-1.25,1.25Zm0-1.9c-.36,0-.65,.29-.65,.65s.29,.65,.65,.65,.65-.29,.65-.65-.29-.65-.65-.65Z" style="fill:#272525;"/><path d="M14.92,16.01c-.69,0-1.25-.56-1.25-1.25s.56-1.25,1.25-1.25,1.25,.56,1.25,1.25-.56,1.25-1.25,1.25Zm0-1.9c-.36,0-.65,.29-.65,.65s.29,.65,.65,.65,.65-.29,.65-.65-.29-.65-.65-.65Z" style="fill:#272525;"/></g></svg>