<?xml version="1.0" encoding="UTF-8"?><svg id="a" xmlns="http://www.w3.org/2000/svg" viewBox="0 0 24 24"><path d="M16.76,20.66H7.24c-1,0-1.81-.81-1.81-1.81V6.54c0-1,.81-1.81,1.81-1.81h9.52c1,0,1.81,.81,1.81,1.81v12.3c0,1-.81,1.81-1.81,1.81ZM7.24,5.34c-.67,0-1.21,.54-1.21,1.21v12.3c0,.67,.54,1.21,1.21,1.21h9.52c.67,0,1.21-.54,1.21-1.21V6.54c0-.67-.54-1.21-1.21-1.21H7.24Z" style="fill:#272525;"/><path d="M13.74,7.42h-3.48c-.74,0-1.34-.6-1.34-1.34v-1.04c0-.17,.13-.3,.3-.3s.3,.13,.3,.3v1.04c0,.41,.33,.75,.74,.75h3.48c.41,0,.74-.33,.74-.75v-1.04c0-.17,.13-.3,.3-.3s.3,.13,.3,.3v1.04c0,.74-.6,1.34-1.34,1.34Z" style="fill:#272525;"/><path d="M13.39,5.34c-.17,0-.3-.13-.3-.3,0-.6-.49-1.09-1.09-1.09s-1.09,.49-1.09,1.09c0,.17-.13,.3-.3,.3s-.3-.13-.3-.3c0-.93,.76-1.69,1.69-1.69s1.69,.76,1.69,1.69c0,.17-.13,.3-.3,.3Z" style="fill:#272525;"/><path d="M8.52,17.87c-.17,0-.3-.13-.3-.3v-1.04c0-.93,.76-1.69,1.69-1.69h3.48c.6,0,1.09-.49,1.09-1.09v-1.04c0-.17,.13-.3,.3-.3s.3,.13,.3,.3v1.04c0,.93-.76,1.69-1.69,1.69h-3.48c-.6,0-1.09,.49-1.09,1.09v1.04c0,.17-.13,.3-.3,.3Z" style="fill:#272525;"/><path d="M14.79,13c-1.32,0-2.39-1.07-2.39-2.39s1.07-2.39,2.39-2.39,2.39,1.07,2.39,2.39-1.07,2.39-2.39,2.39Zm0-4.18c-.99,0-1.79,.8-1.79,1.79s.8,1.79,1.79,1.79,1.79-.8,1.79-1.79-.8-1.79-1.79-1.79Z" style="fill:#272525;"/><path d="M8.52,19.26c-.55,0-1-.45-1-1s.45-1,1-1,1,.45,1,1-.45,1-1,1Zm0-1.39c-.22,0-.4,.18-.4,.4s.18,.4,.4,.4,.4-.18,.4-.4-.18-.4-.4-.4Z" style="fill:#272525;"/><path d="M14.39,11.56c-.08,0-.15-.03-.21-.09l-.5-.5c-.12-.12-.12-.31,0-.42s.31-.12,.42,0l.28,.28,1.03-1.03c.12-.12,.31-.12,.42,0s.12,.31,0,.42l-1.24,1.24c-.06,.06-.14,.09-.21,.09Z" style="fill:#272525;"/><path d="M11.3,13h-3.48c-.17,0-.3-.13-.3-.3s.13-.3,.3-.3h3.48c.17,0,.3,.13,.3,.3s-.13,.3-.3,.3Z" style="fill:#272525;"/><path d="M11.3,11.6h-3.48c-.17,0-.3-.13-.3-.3s.13-.3,.3-.3h3.48c.17,0,.3,.13,.3,.3s-.13,.3-.3,.3Z" style="fill:#272525;"/><path d="M11.3,10.21h-3.48c-.17,0-.3-.13-.3-.3s.13-.3,.3-.3h3.48c.17,0,.3,.13,.3,.3s-.13,.3-.3,.3Z" style="fill:#272525;"/><path d="M15.48,18.57c-.08,0-.15-.03-.21-.09l-2.09-2.09c-.12-.12-.12-.31,0-.42s.31-.12,.42,0l2.09,2.09c.12,.12,.12,.31,0,.42-.06,.06-.14,.09-.21,.09Z" style="fill:#272525;"/><path d="M13.39,18.57c-.08,0-.15-.03-.21-.09-.12-.12-.12-.31,0-.42l2.09-2.09c.12-.12,.31-.12,.42,0s.12,.31,0,.42l-2.09,2.09c-.06,.06-.14,.09-.21,.09Z" style="fill:#272525;"/></svg>