<?xml version="1.0" encoding="UTF-8"?><svg id="a" xmlns="http://www.w3.org/2000/svg" viewBox="0 0 24 24"><path d="M16.75,17.85H6.32c-.49,0-.89-.4-.89-.9v-7.14c0-.5,.4-.9,.89-.9h3.77c.17,0,.3,.13,.3,.3s-.13,.3-.3,.3h-3.77c-.16,0-.29,.13-.29,.3v7.14c0,.16,.14,.3,.29,.3h10.43c.16,0,.29-.14,.29-.3v-4.57c0-.17,.13-.3,.3-.3s.3,.13,.3,.3v4.57c0,.49-.41,.9-.89,.9Zm-4.35-.99c-.16,0-.29-.12-.3-.29l-.09-1.72c0-.08-.32-.33-1.32-.43-1.67-.17-3.18,.2-3.25,.46-.09,.42-.13,.85-.15,1.68,0,.17-.12,.31-.31,.29-.17,0-.3-.14-.29-.31,.02-.88,.06-1.33,.16-1.79,.16-.96,2.63-1.03,3.57-.97,.98,.06,2.16,.29,2.19,1.03l.09,1.71c0,.17-.12,.31-.28,.31h-.02Zm-1.07,0c-.16,0-.3-.13-.3-.3v-.71c0-.17,.12-.3,.29-.3h0c.16,0,.3,.13,.3,.3v.71c0,.17-.12,.3-.29,.3h0Zm-3.19,0h0c-.17,0-.3-.14-.3-.3v-.71c0-.17,.14-.3,.31-.3h0c.17,0,.3,.14,.3,.3v.71c0,.17-.14,.3-.31,.3Zm1.54-3.45c-.79,0-1.44-.69-1.44-1.55,0-.55,.28-1.06,.72-1.34,.22-.14,.48-.22,.74-.22,.79,0,1.44,.69,1.44,1.55,0,.55-.28,1.06-.72,1.34-.22,.14-.47,.22-.74,.22Zm.02-2.5c-.15,0-.29,.04-.42,.12-.27,.17-.44,.49-.44,.83,0,.52,.38,.95,.84,.95,.15,0,.29-.04,.42-.12,.27-.17,.44-.49,.44-.83,0-.52-.38-.95-.84-.95Zm2.57,2.03c-.06,0-.11-.01-.16-.04-.09-.05-.14-.15-.14-.25v-1.74c-.87-.75-1.34-1.74-1.34-2.8,0-2.21,2.09-4,4.65-4s4.65,1.8,4.65,4-2.09,4-4.65,4c-.44,0-.88-.05-1.29-.16-.44,.38-.76,.56-1.59,.96-.04,.02-.09,.03-.13,.03Zm3.02-8.24c-2.23,0-4.05,1.53-4.05,3.4,0,.92,.43,1.78,1.22,2.43,.07,.06,.11,.14,.11,.23v1.4c.54-.27,.77-.42,1.15-.77,.08-.07,.18-.09,.28-.07,.42,.12,.85,.18,1.29,.18,2.23,0,4.05-1.53,4.05-3.4s-1.82-3.4-4.05-3.4Zm.93,4.33h-3.29c-.17,0-.3-.13-.3-.3s.13-.3,.3-.3h3.29c.17,0,.3,.13,.3,.3s-.13,.3-.3,.3Zm1.42-1.38h-4.71c-.17,0-.3-.13-.3-.3s.13-.3,.3-.3h4.71c.17,0,.3,.13,.3,.3s-.13,.3-.3,.3Z" style="fill:#272525;"/><path d="M17.66,19.9H4.35c-.12,0-.23-.07-.28-.18s-.02-.24,.06-.33l1.23-1.26c.12-.12,.31-.12,.42,0,.12,.12,.12,.31,0,.42l-.73,.75h12.6c.17,0,.3,.13,.3,.3s-.13,.3-.3,.3Z" style="fill:#272525;"/><path d="M18.81,19.9H5.5c-.17,0-.3-.13-.3-.3s.13-.3,.3-.3h12.6l-.73-.75c-.12-.12-.11-.31,0-.42,.12-.12,.31-.11,.42,0l1.23,1.26c.08,.09,.11,.21,.06,.33s-.16,.18-.28,.18Z" style="fill:#272525;"/></svg>