<?xml version="1.0" encoding="UTF-8"?><svg id="a" xmlns="http://www.w3.org/2000/svg" viewBox="0 0 24 24"><path d="M14.27,17.01s-.1-.01-.14-.03l-2.13-1.12-2.13,1.12c-.1,.05-.22,.04-.32-.02-.09-.07-.14-.18-.12-.29l.41-2.37-1.72-1.68c-.08-.08-.11-.2-.08-.31,.04-.11,.13-.19,.24-.2l2.38-.35,1.06-2.16c.1-.21,.44-.21,.54,0l1.06,2.16,2.38,.35c.11,.02,.21,.1,.24,.2,.04,.11,0,.23-.08,.31l-1.72,1.68,.41,2.37c.02,.11-.03,.23-.12,.29-.05,.04-.11,.06-.18,.06Zm-2.27-1.79s.1,.01,.14,.03l1.73,.91-.33-1.93c-.02-.1,.02-.2,.09-.27l1.4-1.36-1.93-.28c-.1-.01-.18-.08-.23-.16l-.86-1.75-.86,1.75c-.04,.09-.13,.15-.23,.16l-1.93,.28,1.4,1.36c.07,.07,.1,.17,.09,.27l-.33,1.93,1.73-.91s.09-.03,.14-.03Z" style="fill:#272525;"/><g><path d="M17.86,20.01H6.14c-.9,0-1.64-.74-1.64-1.64V8.02c0-.9,.74-1.64,1.64-1.64h11.72c.9,0,1.64,.74,1.64,1.64v10.35c0,.9-.74,1.64-1.64,1.64ZM6.14,6.98c-.57,0-1.04,.47-1.04,1.04v10.35c0,.57,.47,1.04,1.04,1.04h11.72c.57,0,1.04-.47,1.04-1.04V8.02c0-.57-.47-1.04-1.04-1.04H6.14Z" style="fill:#272525;"/><g><path d="M6.75,6.83c-.17,0-.3-.13-.3-.3v-1.39c0-.64,.5-1.15,1.12-1.15s1.12,.52,1.12,1.15v1.33c0,.17-.13,.3-.3,.3s-.3-.13-.3-.3v-1.33c0-.31-.24-.55-.53-.55s-.53,.25-.53,.55v1.39c0,.17-.13,.3-.3,.3Z" style="fill:#272525;"/><path d="M17.26,6.89c-.17,0-.3-.13-.3-.3v-1.45c0-.31-.24-.55-.53-.55s-.52,.25-.52,.55v1.45c0,.17-.13,.3-.3,.3s-.3-.13-.3-.3v-1.45c0-.64,.5-1.15,1.12-1.15s1.12,.52,1.12,1.15v1.45c0,.17-.13,.3-.3,.3Z" style="fill:#272525;"/></g></g></svg>