<?xml version="1.0" encoding="UTF-8"?><svg id="a" xmlns="http://www.w3.org/2000/svg" viewBox="0 0 24 24"><path d="M17.86,20.01H6.14c-.9,0-1.64-.74-1.64-1.64V8.02c0-.9,.74-1.64,1.64-1.64h11.72c.9,0,1.64,.74,1.64,1.64v10.35c0,.9-.74,1.64-1.64,1.64ZM6.14,6.98c-.57,0-1.04,.47-1.04,1.04v10.35c0,.57,.47,1.04,1.04,1.04h11.72c.57,0,1.04-.47,1.04-1.04V8.02c0-.57-.47-1.04-1.04-1.04H6.14Z" style="fill:#272525;"/><g><path d="M6.75,6.83c-.17,0-.3-.13-.3-.3v-1.39c0-.64,.5-1.15,1.12-1.15s1.12,.52,1.12,1.15v1.33c0,.17-.13,.3-.3,.3s-.3-.13-.3-.3v-1.33c0-.31-.24-.55-.53-.55s-.53,.25-.53,.55v1.39c0,.17-.13,.3-.3,.3Z" style="fill:#272525;"/><path d="M17.26,6.89c-.17,0-.3-.13-.3-.3v-1.45c0-.31-.24-.55-.53-.55s-.52,.25-.52,.55v1.45c0,.17-.13,.3-.3,.3s-.3-.13-.3-.3v-1.45c0-.64,.5-1.15,1.12-1.15s1.12,.52,1.12,1.15v1.45c0,.17-.13,.3-.3,.3Z" style="fill:#272525;"/></g></svg>