<?xml version="1.0" encoding="UTF-8"?><svg id="a" xmlns="http://www.w3.org/2000/svg" viewBox="0 0 24 24"><path d="M9.77,15.63c-3.2,0-5.8-2.6-5.8-5.8s2.6-5.8,5.8-5.8,5.8,2.6,5.8,5.8-2.6,5.8-5.8,5.8Zm0-11c-2.87,0-5.2,2.33-5.2,5.2s2.33,5.2,5.2,5.2,5.2-2.33,5.2-5.2-2.33-5.2-5.2-5.2Z" style="fill:#272525;"/><path d="M18.93,19.97c-.29,0-.57-.11-.78-.32l-4.58-4.41,.25-.21c.39-.33,.76-.7,1.08-1.1l.21-.25,4.6,4.42c.21,.21,.32,.48,.32,.78s-.11,.57-.32,.78c-.21,.21-.48,.32-.78,.32Zm-4.47-4.7l4.11,3.95c.2,.2,.52,.19,.71,0,.09-.09,.15-.22,.15-.35s-.05-.26-.14-.35l-4.12-3.96c-.22,.25-.45,.49-.7,.71Z" style="fill:#272525;"/></svg>