<?xml version="1.0" encoding="UTF-8"?><svg id="a" xmlns="http://www.w3.org/2000/svg" viewBox="0 0 24 24"><path d="M7.85,19.94c-.3,0-.81-.06-1.22-.4-.38-.32-.58-.81-.58-1.46v-6.09h-1.74c-.12,0-.23-.07-.28-.18-.05-.11-.02-.24,.06-.32l6.33-6.67h0s.53-.72,1.46-.75h.23c.93,.06,1.46,.75,1.48,.78l6.3,6.64c.08,.09,.11,.21,.06,.32-.05,.11-.16,.18-.28,.18h-1.74v6.09c0,.64-.19,1.13-.57,1.46-.62,.52-1.49,.39-1.52,.38h-7.73s-.1,.02-.26,.02Zm-2.83-8.55h1.35c.08,0,.16,.03,.21,.09,.06,.06,.09,.13,.09,.21v6.39c0,.46,.12,.79,.36,1,.4,.34,1.03,.25,1.04,.25h7.83c.05,0,.69,.09,1.09-.25,.24-.21,.36-.54,.36-1v-6.39c0-.08,.02-.16,.08-.21,.06-.06,.13-.09,.21-.09h1.35l-5.85-6.16s-.41-.52-1.06-.56h-.17c-.64,.02-1.02,.53-1.02,.54l-5.87,6.19Z" style="fill:#272525;"/></svg>