<?xml version="1.0" encoding="UTF-8"?><svg id="a" xmlns="http://www.w3.org/2000/svg" viewBox="0 0 24 24"><path d="M17.2,9.53c-.08,0-.15-.03-.21-.09l-4.6-4.6c-.11-.11-.27-.17-.43-.16-.13,.01-.25,.07-.34,.16l-4.6,4.6c-.12,.12-.31,.12-.42,0s-.12-.31,0-.42l4.6-4.6c.19-.19,.45-.31,.72-.33,.33-.03,.67,.09,.91,.33l4.6,4.6c.12,.12,.12,.31,0,.42-.06,.06-.13,.09-.21,.09Z" style="fill:#272525;"/><path d="M12,19.92c-.17,0-.3-.13-.3-.3V4.63c0-.17,.13-.3,.3-.3s.3,.13,.3,.3v14.98c0,.17-.13,.3-.3,.3Z" style="fill:#272525;"/></svg>