<?xml version="1.0" encoding="UTF-8"?><svg id="a" xmlns="http://www.w3.org/2000/svg" viewBox="0 0 24 24"><path d="M12,19.97c-.26,0-.52-.01-.77-.04-.17-.02-.29-.16-.27-.33,.02-.16,.15-.28,.33-.27,.23,.02,.47,.03,.71,.03,4.07,0,7.37-3.31,7.37-7.37s-3.31-7.37-7.37-7.37-7.37,3.31-7.37,7.37c0,.14,0,.28,.01,.42,0,.17-.12,.31-.28,.32-.19,.02-.31-.12-.32-.28,0-.15-.01-.3-.01-.45,0-4.4,3.58-7.97,7.97-7.97s7.97,3.58,7.97,7.97-3.58,7.97-7.97,7.97Z"/><g><path d="M12.08,15.74c-.29,0-.52-.23-.52-.52s.23-.52,.52-.52,.52,.23,.52,.52-.23,.52-.52,.52Zm0-.6s-.08,.03-.08,.08c0,.09,.16,.09,.16,0,0-.04-.04-.08-.08-.08Z"/><path d="M12.04,13.68c-.17,0-.3-.13-.3-.3v-.75c-.02-.23,.07-.74,.55-1.04,.63-.42,.92-1,.86-1.8-.02-.25-.15-.48-.37-.66-.26-.21-.6-.31-.95-.26-.15,0-.76,.02-1.03,.44-.09,.14-.27,.18-.42,.09-.14-.09-.18-.27-.09-.41,.43-.67,1.25-.72,1.5-.72,.47-.06,.98,.08,1.37,.4,.35,.28,.56,.67,.59,1.08,.08,1.02-.3,1.81-1.13,2.35-.29,.19-.28,.5-.28,.52v.77c0,.17-.13,.3-.3,.3Z"/></g></svg>