<?xml version="1.0" encoding="UTF-8"?><svg id="a" xmlns="http://www.w3.org/2000/svg" viewBox="0 0 24 24"><g><path d="M12,18.2c-3.44,0-6.25-2.78-6.25-6.2s2.8-6.2,6.25-6.2,6.25,2.78,6.25,6.2-2.8,6.2-6.25,6.2Zm0-11.83c-3.13,0-5.68,2.53-5.68,5.63s2.55,5.63,5.68,5.63,5.68-2.53,5.68-5.63-2.55-5.63-5.68-5.63Z"/><path d="M12,19.46c-4.15,0-7.52-3.35-7.52-7.46s3.37-7.46,7.52-7.46,7.52,3.35,7.52,7.46-3.37,7.46-7.52,7.46Zm0-14.36c-3.83,0-6.95,3.09-6.95,6.9s3.12,6.9,6.95,6.9,6.95-3.09,6.95-6.9-3.12-6.9-6.95-6.9Z"/><path d="M17.71,8.05l-.2-.25c-.35-.46-.77-.87-1.22-1.22l-.25-.2,.79-.78c.19-.18,.49-.18,.67,0l1.01,1c.09,.09,.14,.21,.14,.34s-.05,.25-.14,.34l-.79,.79Zm-.82-1.72c.31,.27,.6,.56,.87,.87l.27-.27-.87-.87-.27,.27Z"/><path d="M6.29,8.05l-.79-.79c-.09-.09-.14-.21-.14-.34,0-.13,.05-.25,.14-.34l1.01-1c.19-.18,.49-.18,.67,0l.79,.78-.25,.2c-.46,.35-.87,.77-1.22,1.22l-.2,.25Zm-.32-1.12l.27,.27c.27-.31,.56-.61,.87-.87l-.27-.27-.87,.87Z"/><path d="M6.84,18.54c-.12,0-.24-.05-.34-.14l-1.01-1c-.09-.09-.14-.21-.14-.34,0-.13,.05-.25,.14-.34l.79-.79,.2,.25c.35,.46,.77,.87,1.22,1.22l.25,.2-.79,.78c-.09,.09-.21,.14-.34,.14Zm-.87-1.47l.87,.87,.27-.27c-.31-.27-.6-.56-.87-.87l-.27,.27Z"/><path d="M17.16,18.54c-.12,0-.24-.05-.34-.14l-.79-.78,.25-.2c.46-.35,.87-.77,1.22-1.22l.2-.25,.79,.79c.09,.09,.14,.21,.14,.34s-.05,.25-.14,.34l-1.01,1c-.09,.09-.21,.14-.34,.14Zm-.27-.87l.27,.27,.87-.87-.27-.27c-.27,.31-.56,.61-.87,.87Z"/></g><g><g><path d="M8.98,16.09c-.16,0-.28-.13-.28-.28v-7.51c0-.16,.13-.28,.28-.28s.28,.13,.28,.28v7.51c0,.16-.13,.28-.28,.28Z"/><path d="M10.99,16.98c-.16,0-.28-.13-.28-.28V7.3c0-.16,.13-.28,.28-.28s.28,.13,.28,.28v9.4c0,.16-.13,.28-.28,.28Z"/><path d="M13.01,16.98c-.16,0-.28-.13-.28-.28V7.3c0-.16,.13-.28,.28-.28s.28,.13,.28,.28v9.4c0,.16-.13,.28-.28,.28Z"/><path d="M15.02,16.09c-.16,0-.28-.13-.28-.28v-7.51c0-.16,.13-.28,.28-.28s.28,.13,.28,.28v7.51c0,.16-.13,.28-.28,.28Z"/></g><g><path d="M15.84,15.25h-7.57c-.16,0-.28-.13-.28-.28s.13-.28,.28-.28h7.57c.16,0,.28,.13,.28,.28s-.13,.28-.28,.28Z"/><path d="M16.74,13.25H7.26c-.16,0-.28-.13-.28-.28s.13-.28,.28-.28h9.47c.16,0,.28,.13,.28,.28s-.13,.28-.28,.28Z"/><path d="M16.74,11.26H7.26c-.16,0-.28-.13-.28-.28s.13-.28,.28-.28h9.47c.16,0,.28,.13,.28,.28s-.13,.28-.28,.28Z"/><path d="M15.84,9.26h-7.57c-.16,0-.28-.13-.28-.28s.13-.28,.28-.28h7.57c.16,0,.28,.13,.28,.28s-.13,.28-.28,.28Z"/></g></g></svg>