<?xml version="1.0" encoding="UTF-8"?><svg id="a" xmlns="http://www.w3.org/2000/svg" viewBox="0 0 24 24"><path d="M12,18.36c-3.51,0-6.36-2.85-6.36-6.36s2.85-6.36,6.36-6.36,6.36,2.85,6.36,6.36-2.85,6.36-6.36,6.36Zm0-12.13c-3.18,0-5.77,2.59-5.77,5.77s2.59,5.77,5.77,5.77,5.77-2.59,5.77-5.77-2.59-5.77-5.77-5.77Z"/><path d="M6.57,14l-.44-.06c-1.01-.13-1.77-1-1.77-2.02s.78-1.92,1.83-2.03l.44-.05-.13,.42c-.17,.55-.26,1.13-.26,1.72,0,.54,.07,1.07,.22,1.58l.12,.43Zm-.77-3.4c-.51,.23-.86,.74-.86,1.32s.33,1.07,.82,1.31c-.08-.41-.12-.82-.12-1.24,0-.47,.05-.94,.15-1.4Z"/><path d="M17.43,14l.12-.43c.14-.51,.22-1.04,.22-1.58,0-.59-.09-1.16-.26-1.72l-.13-.42,.44,.05c1.04,.11,1.83,.98,1.83,2.03s-.76,1.89-1.77,2.02l-.44,.06Zm.77-3.4c.1,.46,.15,.92,.15,1.4,0,.42-.04,.83-.12,1.24,.49-.24,.82-.74,.82-1.31s-.35-1.1-.86-1.32Z"/><path d="M10.52,13.18c-.16,0-.29-.13-.29-.29,0-.38-.31-.69-.69-.69s-.69,.31-.69,.69c0,.16-.13,.29-.29,.29s-.29-.13-.29-.29c0-.7,.57-1.27,1.27-1.27s1.27,.57,1.27,1.27c0,.16-.13,.29-.29,.29Z"/><path d="M15.29,13.18c-.16,0-.29-.13-.29-.29,0-.38-.31-.69-.69-.69s-.69,.31-.69,.69c0,.16-.13,.29-.29,.29s-.29-.13-.29-.29c0-.7,.57-1.27,1.27-1.27s1.27,.57,1.27,1.27c0,.16-.13,.29-.29,.29Z"/><path d="M12.03,15.83c-.69,0-1.35-.29-1.81-.81-.11-.12-.1-.31,.02-.41,.12-.11,.31-.1,.41,.02,.35,.39,.85,.61,1.38,.61s.98-.2,1.33-.56c.11-.12,.3-.12,.41,0s.12,.3,0,.41c-.46,.48-1.09,.74-1.75,.74Z"/><path d="M12.49,9.79s-.07,0-.11-.02c-1.44-.57-2.64-1.7-3.29-3.12-.07-.15,0-.32,.14-.39,.15-.07,.32,0,.39,.14,.58,1.27,1.66,2.3,2.97,2.81,.15,.06,.22,.23,.17,.38-.05,.12-.16,.19-.27,.19Z"/><path d="M13.84,8.06s-.09-.01-.14-.03c-.83-.44-1.51-1.11-1.95-1.93-.08-.14-.02-.32,.12-.4,.14-.08,.32-.02,.4,.12,.39,.72,.99,1.31,1.71,1.69,.14,.08,.2,.25,.12,.4-.05,.1-.15,.16-.26,.16Z"/></svg>