<?xml version="1.0" encoding="UTF-8"?><svg id="a" xmlns="http://www.w3.org/2000/svg" viewBox="0 0 24 24"><path d="M18.15,12.86l-.75-2.37c-.13-.4-.46-.67-.85-.74l1.02-.53-2.38-4.61-7.25,3.75,.7,1.36h-1.05c-.49,0-.93,.33-1.06,.8l-.66,2.34c-.3,.22-.51,.56-.51,.96v4.36c0,.67,.54,1.21,1.21,1.21h10.89c.67,0,1.21-.54,1.21-1.21v-4.36c0-.4-.21-.74-.51-.96Zm-9.44-4.26l6.23-3.22,1.86,3.59-1.44,.74h0l-3.96,2.05h-1.06l-1.06-2.05h0l-.58-1.11Zm-2.18,4.01l.55-1.93c.06-.23,.28-.39,.51-.39h1.35l.76,1.47h-.62c-.16,0-.29,.13-.29,.29s.13,.29,.29,.29h5.76c.16,0,.29-.13,.29-.29s-.13-.29-.29-.29h-2.19l2.85-1.47h.84c.23,0,.44,.15,.51,.37l.62,1.94H6.52Zm11.56,5.57c0,.35-.29,.64-.64,.64H6.56c-.35,0-.64-.29-.64-.64v-4.36c0-.35,.29-.64,.64-.64h10.89c.35,0,.64,.29,.64,.64v4.36Z"/></svg>