<?xml version="1.0" encoding="UTF-8"?><svg id="a" xmlns="http://www.w3.org/2000/svg" viewBox="0 0 24 24"><g><path d="M6.24,15.96c-.17,0-.3-.13-.3-.3v-1.26c0-.17,.13-.3,.3-.3s.3,.13,.3,.3v1.26c0,.17-.13,.3-.3,.3Z"/><path d="M6.87,15.33h-1.26c-.17,0-.3-.13-.3-.3s.13-.3,.3-.3h1.26c.17,0,.3,.13,.3,.3s-.13,.3-.3,.3Z"/></g><g><path d="M7.65,12.42c-.17,0-.3-.13-.3-.3v-1.26c0-.17,.13-.3,.3-.3s.3,.13,.3,.3v1.26c0,.17-.13,.3-.3,.3Z"/><path d="M8.28,11.79h-1.26c-.17,0-.3-.13-.3-.3s.13-.3,.3-.3h1.26c.17,0,.3,.13,.3,.3s-.13,.3-.3,.3Z"/></g><g><path d="M17.49,12.14c-.17,0-.3-.13-.3-.3v-1.26c0-.17,.13-.3,.3-.3s.3,.13,.3,.3v1.26c0,.17-.13,.3-.3,.3Z"/><path d="M18.12,11.51h-1.26c-.17,0-.3-.13-.3-.3s.13-.3,.3-.3h1.26c.17,0,.3,.13,.3,.3s-.13,.3-.3,.3Z"/></g><g><path d="M15.69,13.72c-.17,0-.3-.13-.3-.3v-1.26c0-.17,.13-.3,.3-.3s.3,.13,.3,.3v1.26c0,.17-.13,.3-.3,.3Z"/><path d="M16.32,13.09h-1.26c-.17,0-.3-.13-.3-.3s.13-.3,.3-.3h1.26c.17,0,.3,.13,.3,.3s-.13,.3-.3,.3Z"/></g><g><path d="M17.82,16.9c-.17,0-.3-.13-.3-.3v-1.26c0-.17,.13-.3,.3-.3s.3,.13,.3,.3v1.26c0,.17-.13,.3-.3,.3Z"/><path d="M18.45,16.27h-1.26c-.17,0-.3-.13-.3-.3s.13-.3,.3-.3h1.26c.17,0,.3,.13,.3,.3s-.13,.3-.3,.3Z"/></g><path d="M10.12,19.18c-.17,0-.32-.15-.32-.32s.15-.32,.32-.32,.32,.15,.32,.32-.15,.32-.32,.32Z"/><path d="M10.93,17.04c-.17,0-.32-.15-.32-.32s.15-.32,.32-.32,.32,.15,.32,.32-.15,.32-.32,.32Z"/><path d="M12.87,16.73c-.17,0-.32-.15-.32-.32s.15-.32,.32-.32,.32,.15,.32,.32-.15,.32-.32,.32Z"/><path d="M11.75,15.92c-.17,0-.32-.15-.32-.32s.15-.32,.32-.32,.32,.15,.32,.32-.15,.32-.32,.32Z"/><path d="M11.18,14.82c-.17,0-.32-.15-.32-.32s.15-.32,.32-.32,.32,.15,.32,.32-.15,.32-.32,.32Z"/><path d="M12.54,14.56c-.17,0-.32-.15-.32-.32s.15-.32,.32-.32,.32,.15,.32,.32-.15,.32-.32,.32Z"/><path d="M11.99,12.89c-.17,0-.32-.15-.32-.32s.15-.32,.32-.32,.32,.15,.32,.32-.15,.32-.32,.32Z"/><path d="M9.04,19.18c-.17,0-.32-.15-.32-.32s.15-.32,.32-.32,.32,.15,.32,.32-.15,.32-.32,.32Z"/><path d="M7.96,19.18c-.17,0-.32-.15-.32-.32s.15-.32,.32-.32,.32,.15,.32,.32-.15,.32-.32,.32Z"/><path d="M18.91,20.28H5.09c-.73,0-1.33-.6-1.33-1.33V6.19c0-.73,.6-1.33,1.33-1.33h2.18c.17,0,.3,.13,.3,.3s-.13,.3-.3,.3h-2.18c-.4,0-.73,.33-.73,.73v12.76c0,.4,.33,.73,.73,.73h13.81c.4,0,.73-.33,.73-.73V6.19c0-.4-.33-.73-.73-.73h-2.04c-.17,0-.3-.13-.3-.3s.13-.3,.3-.3h2.04c.73,0,1.33,.6,1.33,1.33v12.76c0,.73-.6,1.33-1.33,1.33Z"/><path d="M15.35,5.46h-6.83c-.17,0-.3-.13-.3-.3s.13-.3,.3-.3h6.83c.17,0,.3,.13,.3,.3s-.13,.3-.3,.3Z"/><path d="M19.69,9.85H4.26c-.17,0-.3-.13-.3-.3s.13-.3,.3-.3h15.43c.17,0,.3,.13,.3,.3s-.13,.3-.3,.3Z"/><g><path d="M8.72,8.5h-1.66c-.63,0-1.14-.51-1.14-1.14s.51-1.14,1.14-1.14h.32c.17,0,.3,.13,.3,.3v.29c0,.13,.11,.24,.24,.24s.24-.11,.24-.24v-.29c0-.17,.13-.3,.3-.3h.26c.63,0,1.14,.51,1.14,1.14s-.51,1.14-1.14,1.14Zm-1.66-1.69c-.3,0-.54,.24-.54,.54s.24,.54,.54,.54h1.66c.3,0,.54-.24,.54-.54s-.22-.52-.51-.54c0,.46-.38,.83-.84,.83s-.83-.37-.84-.83h-.02Z"/><path d="M7.92,7.64c-.46,0-.84-.38-.84-.84v-2.24c0-.46,.38-.84,.84-.84s.84,.38,.84,.84v2.24c0,.46-.38,.84-.84,.84Zm0-3.32c-.13,0-.24,.11-.24,.24v2.24c0,.13,.11,.24,.24,.24s.24-.11,.24-.24v-2.24c0-.13-.11-.24-.24-.24Z"/><path d="M17,8.5h-1.66c-.63,0-1.14-.51-1.14-1.14s.51-1.14,1.14-1.14h.32c.17,0,.3,.13,.3,.3v.29c0,.13,.11,.24,.24,.24s.24-.11,.24-.24v-.29c0-.17,.13-.3,.3-.3h.26c.63,0,1.14,.51,1.14,1.14s-.51,1.14-1.14,1.14Zm-1.66-1.69c-.3,0-.54,.24-.54,.54s.24,.54,.54,.54h1.66c.3,0,.54-.24,.54-.54s-.22-.52-.51-.54c0,.46-.38,.83-.84,.83s-.83-.37-.84-.83h-.02Z"/><path d="M16.2,7.64c-.46,0-.84-.38-.84-.84v-2.24c0-.46,.38-.84,.84-.84s.84,.38,.84,.84v2.24c0,.46-.38,.84-.84,.84Zm0-3.32c-.13,0-.24,.11-.24,.24v2.24c0,.13,.11,.24,.24,.24s.24-.11,.24-.24v-2.24c0-.13-.11-.24-.24-.24Z"/></g><path d="M13.22,18.09h-4.7c-.12,0-.22-.07-.27-.17s-.03-.23,.04-.32l1.62-2h-.84c-.12,0-.22-.07-.27-.17-.05-.1-.04-.23,.04-.32l1.38-1.72h-.4c-.11,0-.22-.07-.27-.17s-.04-.23,.03-.32l2.01-2.59c.1-.13,.29-.16,.42-.05s.15,.29,.05,.42l-1.64,2.11h.41c.12,0,.22,.07,.27,.17,.05,.1,.04,.23-.04,.32l-1.38,1.72h.84c.12,0,.22,.07,.27,.17s.03,.23-.04,.32l-1.62,2h4.07c.17,0,.3,.13,.3,.3s-.13,.3-.3,.3Z"/><path d="M15.15,18.09h-4.7c-.17,0-.3-.13-.3-.3s.13-.3,.3-.3h4.07l-1.62-2c-.07-.09-.09-.21-.04-.32s.16-.17,.27-.17h.84l-1.38-1.72c-.07-.09-.09-.21-.04-.32,.05-.1,.16-.17,.27-.17h.41l-1.64-2.11c-.1-.13-.08-.32,.05-.42,.13-.1,.32-.08,.42,.05l2.01,2.59c.07,.09,.08,.21,.03,.32s-.15,.17-.27,.17h-.4l1.38,1.72c.07,.09,.09,.21,.04,.32-.05,.1-.16,.17-.27,.17h-.84l1.62,2c.07,.09,.09,.21,.04,.32s-.16,.17-.27,.17Z"/><path d="M11.17,20.06c-.17,0-.3-.13-.3-.3v-1.91c0-.17,.13-.3,.3-.3s.3,.13,.3,.3v1.91c0,.17-.13,.3-.3,.3Z"/><path d="M12.8,20.06c-.17,0-.3-.13-.3-.3v-1.91c0-.17,.13-.3,.3-.3s.3,.13,.3,.3v1.91c0,.17-.13,.3-.3,.3Z"/></svg>