<?xml version="1.0" encoding="UTF-8"?><svg id="a" xmlns="http://www.w3.org/2000/svg" viewBox="0 0 24 24"><path d="M10.72,10.92c-.16,0-.29-.12-.3-.29l-.18-3.97c0-.05,0-.1,.03-.15,.02-.04,.21-.39,.75-.39h1.78c.17,0,.3,.13,.3,.3s-.13,.3-.3,.3h-1.78c-.09,0-.14,.02-.17,.04l.18,3.85c0,.17-.12,.31-.29,.31h-.01Z"/><path d="M9.4,9.89c-.16,0-.29-.12-.3-.28l-.11-2.26c0-.08,.03-.16,.08-.22s.14-.09,.22-.09h1.12c.17,0,.3,.13,.3,.3s-.13,.3-.3,.3h-.8l.1,1.94c0,.17-.12,.31-.28,.32h-.02Z"/><path d="M12.22,16.02c-2.79,0-5.07-.35-5.51-.45-.31-.07-1.23-.42-1.37-.9-.36-5.04,3.66-6.95,3.7-6.97,.15-.07,.33,0,.4,.15,.07,.15,0,.33-.15,.4s-3.69,1.76-3.36,6.32c.05,.05,.53,.33,.91,.41,.55,.12,4.45,.7,8.35,.29,.16-.02,.31,.1,.33,.27,.02,.16-.1,.31-.27,.33-1.03,.11-2.06,.15-3.03,.15Z"/><path d="M13.32,10.92h-.01c-.17,0-.29-.15-.29-.31l.18-3.85s-.09-.04-.17-.04h-1.78c-.17,0-.3-.13-.3-.3s.13-.3,.3-.3h1.78c.53,0,.73,.35,.75,.39,.02,.05,.03,.1,.03,.15l-.18,3.97c0,.16-.14,.29-.3,.29Z"/><path d="M14.65,9.89h-.02c-.17,0-.29-.15-.28-.31l.1-1.95h-.8c-.17,0-.3-.13-.3-.3s.13-.3,.3-.3h1.12c.08,0,.16,.03,.22,.09s.09,.14,.08,.22l-.11,2.26c0,.16-.14,.29-.3,.29Z"/><path d="M17.27,15.57c-.14,0-.26-.09-.29-.24-.04-.16,.07-.32,.23-.36,.38-.08,.86-.37,.92-.48,.31-4.49-3.23-6.18-3.38-6.25s-.22-.25-.15-.4c.07-.15,.25-.22,.4-.15,.04,.02,4.06,1.92,3.71,6.91-.14,.54-1.07,.89-1.38,.96-.02,0-.04,0-.07,0Z"/><path d="M11.68,17.88c-.96,0-4.56-.12-6.52-1.83-.38-.42-.52-.84-.41-1.17,.07-.21,.27-.48,.82-.58,.16-.04,.32,.08,.35,.24s-.08,.32-.24,.35c-.2,.04-.34,.11-.36,.18-.03,.09,.04,.3,.26,.55,2.03,1.77,6.28,1.66,6.32,1.66,.16-.02,.3,.12,.31,.29,0,.17-.12,.3-.29,.31-.02,0-.1,0-.24,0Z"/><path d="M12.31,17.88c-.13,0-.21,0-.23,0-.17,0-.3-.14-.29-.31,0-.17,.14-.31,.31-.29,.04,0,4.29,.11,6.34-1.68,.2-.22,.26-.43,.23-.53-.03-.08-.16-.15-.36-.18-.16-.03-.27-.19-.24-.35,.03-.16,.18-.28,.35-.24,.55,.1,.75,.37,.82,.58,.11,.33-.03,.75-.38,1.15-1.99,1.74-5.59,1.86-6.55,1.86Z"/><path d="M7.05,13.09s-.02,0-.04,0c-.16-.02-.28-.17-.26-.33,.22-1.79,1.35-2.67,1.39-2.71,.13-.1,.32-.08,.42,.06,.1,.13,.08,.32-.05,.42,0,0-.98,.78-1.16,2.31-.02,.15-.15,.26-.3,.26Z"/></svg>