<?xml version="1.0" encoding="UTF-8"?><svg id="a" xmlns="http://www.w3.org/2000/svg" viewBox="0 0 24 24"><path d="M19.39,19.05c0-.17-.14-.32-.32-.32h-.64c.18-3.29,1.52-7.21,2.98-8.75l.54-.69-.94,.2c-2.37,1.58-4.23,4.6-5.1,7.29,0-2.42,.45-5.37,1.25-6.67l1.03-1.66-1.5,1.25c-.69,.57-1.29,1.37-1.8,2.32,.09-1.86,.34-4.89,1-6.09l.71-1.29-1.18,.88c-1.77,1.33-2.65,4.79-3,6.58-.84-1.82-1.88-2.85-2.69-3.05l-.67-.16,.31,.61c1.02,1.98,1.43,4.73,1.5,7.11-1.34-4.18-4-7.22-5.65-7.87l-.97-.38,.59,.85c1.88,2.72,3.01,5.89,3.3,8.14-.82-1.79-1.8-3.3-2.87-4.44-1.16-1.23-2.1-1.68-2.47-1.76l-.77-.15,.44,.64c2.39,3.45,3.08,6.16,3.26,7.06h-.69c-.17,0-.32,.14-.32,.32,0,.15,.12,.27,.26,.29h14.13c.15-.03,.26-.14,.26-.29Zm-13.01-.32c-.14-.77-.69-3.17-2.69-6.38,1.12,.83,2.88,2.73,4.34,6.38h-1.65Zm2.45,0c.1-1.99-.77-5.39-2.67-8.61,.67,.58,1.39,1.41,2.02,2.35,.88,1.31,2.01,3.45,2.56,6.26h-1.92Zm2.64,0c.09-1.53,.04-3.18-.17-4.71-.2-1.46-.52-2.77-.95-3.87,1.17,1.08,2.66,3.94,2.87,8.57h-1.75Zm1.4-5.5c.05-.37,.59-3.93,1.94-6.07-.56,2.45-.61,6.16-.61,6.39-.05,.12-.1,.24-.14,.36-.21,.62-.38,1.27-.51,1.94-.17-.98-.41-1.86-.69-2.63Zm1.03,5.5c.05-2.41,.68-5.26,2.03-7.22-.62,2.24-.77,5.39-.52,7.22h-1.5Zm2.21,0c.34-2.25,1.64-5.16,3.54-7.22-1.02,2.09-1.72,5-1.84,7.22h-1.7Z"/></svg>