<?xml version="1.0" encoding="UTF-8"?><svg id="a" xmlns="http://www.w3.org/2000/svg" viewBox="0 0 24 24"><path d="M8.06,19.56c-.29,0-.78-.06-1.16-.38-.37-.31-.55-.78-.55-1.4v-5.04h-1.64c-.12,0-.22-.07-.27-.17-.05-.11-.03-.23,.04-.32l6-7.08s.51-.7,1.41-.73h.22c.89,.06,1.39,.72,1.41,.75l5.99,7.06c.08,.09,.09,.21,.04,.32-.05,.11-.16,.17-.27,.17h-1.64v5.04c0,.62-.18,1.09-.55,1.4-.59,.5-1.42,.37-1.45,.36h-7.33s-.09,.02-.24,.02Zm-2.7-7.42h1.29c.08,0,.16,.03,.21,.09,.06,.06,.09,.13,.09,.21v5.33c0,.43,.11,.75,.33,.94,.38,.32,.97,.23,.97,.23h7.43c.05,0,.64,.09,1.02-.23,.22-.19,.34-.51,.34-.94v-5.33c0-.08,.02-.16,.08-.21,.06-.06,.13-.09,.21-.09h1.29l-5.58-6.58s-.38-.48-.98-.52h-.16c-.6,.02-.95,.5-.96,.5l-5.59,6.6Z"/></svg>