<?xml version="1.0" encoding="UTF-8"?><svg id="a" xmlns="http://www.w3.org/2000/svg" viewBox="0 0 24 24"><path d="M12,16.81c-2.65,0-4.81-2.16-4.81-4.81s2.16-4.81,4.81-4.81,4.81,2.16,4.81,4.81-2.16,4.81-4.81,4.81Zm0-9.02c-2.32,0-4.21,1.89-4.21,4.21s1.89,4.21,4.21,4.21,4.21-1.89,4.21-4.21-1.89-4.21-4.21-4.21Z"/><g><path d="M19.02,13.32c-.73,0-1.32-.59-1.32-1.32s.59-1.32,1.32-1.32,1.32,.59,1.32,1.32-.59,1.32-1.32,1.32Zm0-2.05c-.4,0-.72,.33-.72,.72s.32,.72,.72,.72,.72-.33,.72-.72-.32-.72-.72-.72Z"/><path d="M4.98,13.32c-.73,0-1.32-.59-1.32-1.32s.59-1.32,1.32-1.32,1.32,.59,1.32,1.32-.59,1.32-1.32,1.32Zm0-2.05c-.4,0-.72,.33-.72,.72s.32,.72,.72,.72,.72-.33,.72-.72-.32-.72-.72-.72Z"/></g><g><path d="M12,6.3c-.73,0-1.32-.59-1.32-1.32s.59-1.32,1.32-1.32,1.32,.59,1.32,1.32-.59,1.32-1.32,1.32Zm0-2.05c-.4,0-.72,.33-.72,.72s.32,.72,.72,.72,.72-.32,.72-.72-.32-.72-.72-.72Z"/><path d="M12,20.34c-.73,0-1.32-.59-1.32-1.32s.59-1.32,1.32-1.32,1.32,.59,1.32,1.32-.59,1.32-1.32,1.32Zm0-2.05c-.4,0-.72,.32-.72,.72s.32,.72,.72,.72,.72-.33,.72-.72-.32-.72-.72-.72Z"/></g><g><path d="M16.96,8.36c-.34,0-.68-.13-.94-.39-.25-.25-.39-.58-.39-.94s.14-.69,.39-.94c.52-.51,1.36-.52,1.87,0h0c.25,.25,.39,.58,.39,.94s-.14,.69-.39,.94c-.26,.26-.6,.39-.94,.39Zm0-2.04c-.19,0-.37,.07-.51,.21-.14,.14-.21,.32-.21,.51s.08,.38,.21,.51c.28,.28,.74,.28,1.02,0,.14-.14,.21-.32,.21-.51s-.08-.38-.21-.51c-.14-.14-.33-.21-.51-.21Z"/><path d="M7.04,18.29c-.34,0-.68-.13-.94-.39-.25-.25-.39-.58-.39-.94s.14-.69,.39-.94c.52-.52,1.36-.52,1.87,0h0c.25,.25,.39,.58,.39,.94s-.14,.69-.39,.94c-.26,.26-.6,.39-.94,.39Zm0-2.04c-.19,0-.37,.07-.51,.21-.14,.14-.21,.32-.21,.51s.08,.38,.21,.51c.28,.28,.74,.28,1.02,0,.14-.14,.21-.32,.21-.51s-.08-.38-.21-.51h0c-.14-.14-.33-.21-.51-.21Z"/></g><g><path d="M16.96,18.29c-.34,0-.68-.13-.94-.39-.25-.25-.39-.58-.39-.94s.14-.69,.39-.94c.52-.52,1.35-.52,1.87,0,.25,.25,.39,.58,.39,.94s-.14,.69-.39,.94h0c-.26,.26-.6,.39-.94,.39Zm.72-.6h0Zm-.72-1.45c-.19,0-.37,.07-.51,.21-.14,.14-.21,.32-.21,.51s.08,.38,.21,.51c.28,.28,.74,.28,1.02,0,.14-.14,.21-.32,.21-.51s-.08-.38-.21-.51c-.14-.14-.33-.21-.51-.21Z"/><path d="M7.04,8.36c-.34,0-.68-.13-.94-.39-.25-.25-.39-.58-.39-.94s.14-.69,.39-.94c.52-.51,1.35-.52,1.87,0,.25,.25,.39,.58,.39,.94s-.14,.69-.39,.94c-.26,.26-.6,.39-.94,.39Zm0-2.04c-.19,0-.37,.07-.51,.21-.14,.14-.21,.32-.21,.51s.08,.38,.21,.51c.28,.28,.74,.28,1.02,0h0c.14-.14,.21-.32,.21-.51s-.08-.38-.21-.51c-.14-.14-.33-.21-.51-.21Z"/></g><path d="M12,7.67c-.17,0-.3-.13-.3-.3v-1.16c0-.17,.13-.3,.3-.3s.3,.13,.3,.3v1.16c0,.17-.13,.3-.3,.3Z"/><path d="M12,18.15c-.17,0-.3-.13-.3-.3v-1.16c0-.17,.13-.3,.3-.3s.3,.13,.3,.3v1.16c0,.17-.13,.3-.3,.3Z"/><path d="M17.89,12.3h-1.16c-.17,0-.3-.13-.3-.3s.13-.3,.3-.3h1.16c.17,0,.3,.13,.3,.3s-.13,.3-.3,.3Z"/><path d="M7.27,12.3h-1.16c-.17,0-.3-.13-.3-.3s.13-.3,.3-.3h1.16c.17,0,.3,.13,.3,.3s-.13,.3-.3,.3Z"/><path d="M8.65,8.97c-.08,0-.15-.03-.21-.09l-.82-.82c-.12-.12-.12-.31,0-.42,.12-.12,.31-.12,.42,0l.82,.82c.12,.12,.12,.31,0,.42-.06,.06-.14,.09-.21,.09Z"/><path d="M16.19,16.43c-.08,0-.15-.03-.21-.09l-.82-.82c-.12-.12-.12-.31,0-.42,.12-.12,.31-.12,.42,0l.82,.82c.12,.12,.12,.31,0,.42-.06,.06-.14,.09-.21,.09Z"/><path d="M15.3,8.99c-.08,0-.15-.03-.21-.09-.12-.12-.12-.31,0-.42l.82-.82c.12-.12,.31-.12,.42,0s.12,.31,0,.42l-.82,.82c-.06,.06-.14,.09-.21,.09Z"/><path d="M7.88,16.41c-.08,0-.15-.03-.21-.09-.12-.12-.12-.31,0-.42l.82-.82c.12-.12,.31-.12,.42,0s.12,.31,0,.42l-.82,.82c-.06,.06-.14,.09-.21,.09Z"/></svg>