<?xml version="1.0" encoding="UTF-8"?><svg id="a" xmlns="http://www.w3.org/2000/svg" viewBox="0 0 24 24"><path d="M13.52,13.86h-2.9c-.33,0-.62-.17-.78-.45-.16-.28-.16-.62,.01-.9l1.45-2.41c.16-.27,.45-.43,.77-.43s.6,.16,.77,.43l1.45,2.41c.17,.28,.17,.62,.01,.9-.16,.28-.45,.45-.78,.45Zm-1.45-3.61c-.05,0-.18,.01-.26,.15l-1.45,2.41c-.08,.14-.03,.26,0,.31,.03,.05,.1,.15,.26,.15h2.9c.16,0,.24-.11,.26-.15,.03-.05,.08-.17,0-.31l-1.45-2.41c-.08-.13-.21-.15-.26-.15Zm-.51,0h0Z"/><path d="M14.66,18.08h-5.86c-.3,0-.57-.15-.74-.39l-.61-.89c-.07-.11-.21-.16-.33-.12l-2.06,.56c-.49,.13-1-.08-1.25-.51-.37-.65-.67-1.34-.88-2.06-.07-.24-.02-.49,.13-.69,.15-.2,.38-.32,.64-.32h4.89c.34,0,.66,.2,.8,.5l.49,1.01c.05,.1,.16,.17,.27,.17h3.66c.12,0,.22-.06,.27-.17l1.41-2.79c.14-.29,.42-.48,.73-.5h0c.31-.02,.6,.11,.79,.35,.19,.25,.23,.56,.12,.85l-1.65,4.41c-.13,.35-.47,.58-.84,.58Zm-7.46-2c.29,0,.57,.14,.74,.39l.61,.89c.06,.08,.15,.13,.25,.13h5.86c.13,0,.24-.08,.29-.2l1.65-4.41c.04-.1,.02-.21-.04-.29-.06-.08-.16-.13-.27-.12-.1,0-.2,.08-.25,.18l-1.41,2.79c-.15,.3-.46,.49-.8,.49h-3.66c-.34,0-.66-.2-.8-.5l-.49-1.01c-.05-.1-.16-.17-.27-.17H3.7c-.07,0-.13,.03-.17,.08-.02,.03-.06,.09-.03,.17,.2,.67,.48,1.32,.83,1.93,.12,.2,.36,.3,.59,.24l2.06-.56c.08-.02,.16-.03,.23-.03Z"/><path d="M7.69,12.12c-.28,0-.54-.13-.71-.35-.19-.25-.23-.56-.12-.85l1.65-4.41c.13-.35,.47-.58,.84-.58h5.86c.3,0,.57,.15,.74,.39l.61,.89c.07,.11,.21,.16,.33,.12l2.06-.56c.49-.13,1,.08,1.25,.51,.37,.65,.67,1.34,.88,2.06,.07,.24,.02,.49-.13,.69-.15,.2-.38,.32-.64,.32h-4.89c-.34,0-.66-.2-.8-.5l-.49-1.01c-.05-.1-.16-.17-.27-.17h-3.66c-.12,0-.22,.06-.27,.17l-1.41,2.79c-.15,.29-.42,.48-.73,.5h0s-.05,0-.08,0Zm.05-.3h0Zm1.6-5.31c-.13,0-.24,.08-.29,.2l-1.65,4.41c-.04,.1-.02,.21,.04,.29,.06,.08,.16,.13,.27,.12,.1,0,.2-.08,.25-.18l1.41-2.79c.15-.3,.46-.49,.8-.49h3.66c.34,0,.66,.2,.8,.5l.49,1.01c.05,.1,.16,.17,.27,.17h4.89c.07,0,.13-.03,.17-.08,.02-.03,.06-.09,.03-.17-.2-.67-.48-1.32-.83-1.93-.12-.2-.36-.3-.59-.24l-2.06,.56c-.37,.1-.76-.04-.97-.36l-.61-.89c-.06-.08-.15-.13-.25-.13h-5.86Z"/></svg>