<?xml version="1.0" encoding="UTF-8"?><svg id="a" xmlns="http://www.w3.org/2000/svg" viewBox="0 0 24 24"><path d="M17.57,8h-3.18v-1.26c0-.67-.54-1.21-1.21-1.21h-2.29c-.67,0-1.21,.54-1.21,1.21v1.26h-3.25c-.89,0-1.62,.72-1.62,1.62v7.23c0,.89,.72,1.62,1.62,1.62h11.14c.89,0,1.62-.72,1.62-1.62v-7.23c0-.89-.72-1.62-1.62-1.62Zm-7.29-1.26c0-.34,.28-.61,.61-.61h2.29c.34,0,.61,.28,.61,.61v1.26h-1.45v-.66c0-.17-.13-.3-.3-.3s-.3,.13-.3,.3v.66h-1.46v-1.26Zm8.31,10.1c0,.56-.46,1.02-1.02,1.02H6.43c-.56,0-1.02-.46-1.02-1.02v-7.23c0-.56,.46-1.02,1.02-1.02h11.14c.56,0,1.02,.46,1.02,1.02v7.23Z"/><path d="M16.93,11.63h-2.95c-.17,0-.3,.13-.3,.3s.13,.3,.3,.3h2.95c.17,0,.3-.13,.3-.3s-.13-.3-.3-.3Z"/><path d="M15.71,14.1h-1.83c-.17,0-.3,.13-.3,.3s.13,.3,.3,.3h1.83c.17,0,.3-.13,.3-.3s-.13-.3-.3-.3Z"/><path d="M9.61,13.37c.83,0,1.5-.67,1.5-1.5s-.67-1.5-1.5-1.5-1.5,.67-1.5,1.5,.67,1.5,1.5,1.5Zm0-2.4c.5,0,.9,.41,.9,.9s-.41,.9-.9,.9-.9-.4-.9-.9,.41-.9,.9-.9Z"/><path d="M11.5,13.83h-.72c-.06,0-.13,.02-.18,.06l-.9,.66-.9-.66c-.05-.04-.11-.06-.18-.06h-.72c-.83,0-1.13,.7-1.18,1.11v1.04c0,.17,.13,.3,.3,.3s.3-.13,.3-.3v-1s.07-.55,.58-.55h.62l.96,.71c.06,.04,.13,.05,.19,.05h.02s.01,0,.02,0c.07,0,.14,0,.19-.05l.96-.71h.62c.48,0,.57,.46,.58,.51v1.04c0,.17,.13,.3,.3,.3s.3-.13,.3-.3v-1.07c-.05-.37-.35-1.07-1.18-1.07Z"/></svg>