<?xml version="1.0" encoding="UTF-8"?><svg id="a" xmlns="http://www.w3.org/2000/svg" viewBox="0 0 24 24"><path d="M12,19.85c-4.33,0-7.85-3.52-7.85-7.85s3.52-7.85,7.85-7.85,7.85,3.52,7.85,7.85-3.52,7.85-7.85,7.85Zm0-15.1c-4,0-7.25,3.25-7.25,7.25s3.25,7.25,7.25,7.25,7.25-3.25,7.25-7.25-3.25-7.25-7.25-7.25Z"/><g><path d="M9.64,12.2c-.62,0-1.13-.51-1.13-1.13s.51-1.13,1.13-1.13,1.13,.51,1.13,1.13-.51,1.13-1.13,1.13Zm0-1.66c-.29,0-.53,.24-.53,.53s.24,.53,.53,.53,.53-.24,.53-.53-.24-.53-.53-.53Z"/><path d="M14.36,12.2c-.62,0-1.13-.51-1.13-1.13s.51-1.13,1.13-1.13,1.13,.51,1.13,1.13-.51,1.13-1.13,1.13Zm0-1.66c-.29,0-.53,.24-.53,.53s.24,.53,.53,.53,.53-.24,.53-.53-.24-.53-.53-.53Z"/></g><path d="M11.79,17.28c-.87,0-2.97-.54-3.65-3.13-.02-.09,0-.19,.05-.26s.14-.12,.24-.12h6.75c.08,0,.16,.03,.22,.09,.06,.06,.09,.14,.08,.22,0,.03-.13,3.14-3.53,3.19-.05,0-.1,0-.16,0Zm-2.96-2.91c.71,2.03,2.49,2.37,3.08,2.3,2.27-.04,2.8-1.62,2.93-2.3h-6Z"/></svg>