<?xml version="1.0" encoding="UTF-8"?><svg id="a" xmlns="http://www.w3.org/2000/svg" viewBox="0 0 24 24"><g><path d="M5.45,9.63s0-.21,0-.24c0-.04-.03-.06-.03-.06l-.36-.03c-.02-.09-.06-.17-.1-.24h.02s.17-.23,.21-.29c.04-.05-.02-.08-.02-.08,0,0-.15-.14-.18-.16-.03-.02-.06-.01-.06-.01l-.27,.24c-.07-.04-.15-.08-.24-.1h0s-.05-.29-.06-.36c-.01-.06-.07-.04-.07-.04,0,0-.21,.01-.24,.01-.04,0-.05,.04-.05,.04l-.02,.36c-.07,.02-.14,.05-.2,.09h0s-.23-.19-.28-.23-.08,.02-.08,.02c0,0-.15,.15-.17,.17-.02,.03-.02,.06-.02,.06l.23,.28h0c-.04,.07-.08,.15-.1,.24h-.01s-.29,.04-.35,.05c-.06,0-.05,.07-.05,.07,0,0,0,.21,0,.24,0,.04,.03,.06,.03,.06l.36,.03c.02,.08,.05,.16,.1,.23-.04,.04-.19,.22-.22,.26-.04,.05,.01,.08,.01,.08,0,0,.14,.15,.17,.18,.03,.03,.06,.02,.06,.02l.29-.22c.08,.05,.16,.08,.25,.1,0,.07,.02,.28,.03,.33,0,.06,.07,.05,.07,.05,0,0,.21,0,.24,0s.06-.03,.06-.03l.05-.36c.07-.02,.14-.05,.21-.09h.01s.24,.17,.29,.2c.05,.03,.08-.02,.08-.02,0,0,.14-.16,.16-.18,.02-.03,.01-.06,.01-.06l-.23-.25c.04-.07,.08-.15,.1-.24h0s.29-.04,.35-.05c.06,0,.05-.07,.05-.07Zm-1.26,.48c-.33,0-.6-.27-.6-.59s.27-.59,.6-.59,.6,.27,.6,.59-.27,.59-.6,.59Z"/><path d="M4.19,9.08c-.25,0-.44,.2-.44,.44s.2,.44,.44,.44,.44-.2,.44-.44-.2-.44-.44-.44Z"/><path d="M6.49,8.53s0-.11,0-.13-.02-.03-.02-.03l-.19-.02s-.03-.09-.05-.13h0s.09-.12,.11-.15c.02-.03-.01-.04-.01-.04,0,0-.08-.07-.09-.09-.01-.01-.03,0-.03,0l-.14,.13s-.08-.04-.13-.05h0s-.02-.16-.03-.19c0-.03-.04-.02-.04-.02,0,0-.11,0-.13,0-.02,0-.03,.02-.03,.02v.19s-.08,.03-.12,.05h0s-.12-.1-.15-.12c-.03-.02-.04,0-.04,0,0,0-.08,.08-.09,.09s0,.03,0,.03l.12,.15h0s-.04,.08-.05,.12h0s-.15,.02-.18,.03c-.03,0-.02,.04-.02,.04,0,0,0,.11,0,.13,0,.02,.02,.03,.02,.03l.19,.02s.03,.08,.05,.12c-.02,.02-.1,.11-.12,.14-.02,.03,0,.04,0,.04,0,0,.07,.08,.09,.09,.01,.01,.03,0,.03,0l.15-.12s.09,.04,.13,.05c0,.04,.01,.15,.01,.17,0,.03,.04,.03,.04,.03,0,0,.11,0,.13,0s.03-.02,.03-.02l.02-.19s.08-.03,.11-.05h0s.13,.09,.15,.11,.04-.01,.04-.01c0,0,.07-.08,.08-.1,.01-.01,0-.03,0-.03l-.12-.13s.04-.08,.05-.12h0s.15-.02,.18-.02c.03,0,.02-.04,.02-.04Zm-.67,.25c-.17,0-.31-.14-.31-.31s.14-.31,.31-.31,.32,.14,.32,.31c0,.17-.14,.31-.32,.31Z"/></g><path d="M6.65,12.09h-2.19c-.17,0-.3-.13-.3-.3s.13-.3,.3-.3h2.19c.5,0,.9-.4,.9-.9v-2.6c0-.5-.41-.9-.9-.9H2.75c-.5,0-.9,.4-.9,.9v2.6c0,.5,.41,.9,.9,.9h.39c.17,0,.3,.13,.3,.3s-.13,.3-.3,.3h-.39c-.83,0-1.5-.67-1.5-1.5v-2.6c0-.83,.67-1.5,1.5-1.5h3.9c.83,0,1.5,.67,1.5,1.5v2.6c0,.83-.67,1.5-1.5,1.5Z"/><path d="M18.36,10.63c-.17,0-.3-.13-.3-.3V5.65c0-.5-.41-.9-.9-.9H7.8c-.5,0-.9,.4-.9,.9v1.14c0,.17-.13,.3-.3,.3s-.3-.13-.3-.3v-1.14c0-.83,.67-1.5,1.5-1.5h9.36c.83,0,1.5,.67,1.5,1.5v4.68c0,.17-.13,.3-.3,.3Z"/><path d="M14.22,14.8h-2.94c-.17,0-.3-.13-.3-.3s.13-.3,.3-.3h2.94c.17,0,.3,.13,.3,.3s-.13,.3-.3,.3Z"/><path d="M8.39,14.8h-.59c-.83,0-1.5-.67-1.5-1.5v-1.51c0-.17,.13-.3,.3-.3s.3,.13,.3,.3v1.51c0,.5,.41,.9,.9,.9h.59c.17,0,.3,.13,.3,.3s-.13,.3-.3,.3Z"/><path d="M7.87,18.15s-.09-.01-.14-.03c-.12-.06-.18-.19-.16-.32l.55-3.27c.03-.16,.19-.27,.35-.25,.16,.03,.27,.18,.25,.35l-.4,2.36,2.7-2.65c.12-.12,.31-.12,.42,0,.12,.12,.11,.31,0,.42l-3.36,3.3c-.06,.06-.13,.09-.21,.09Z"/><path d="M2.96,13.57s-.09-.01-.13-.03c-.12-.06-.18-.18-.16-.31l.2-1.39c.02-.16,.17-.28,.34-.25,.16,.02,.28,.18,.25,.34l-.07,.51,.87-.86c.12-.12,.31-.12,.42,0,.12,.12,.11,.31,0,.42l-1.5,1.48c-.06,.06-.13,.09-.21,.09Z"/><path d="M15.32,19.85s-.09-.01-.14-.03c-.12-.06-.18-.19-.16-.32l.33-1.98c-.78-.06-1.39-.71-1.39-1.5v-4.45c0-.83,.67-1.5,1.5-1.5h5.78c.83,0,1.5,.67,1.5,1.5v4.45c0,.83-.67,1.5-1.5,1.5h-3.46l-2.25,2.24c-.06,.06-.13,.09-.21,.09Zm.14-9.18c-.5,0-.9,.4-.9,.9v4.45c0,.5,.41,.9,.9,.9h.24c.09,0,.17,.04,.23,.11,.06,.07,.08,.16,.07,.24l-.23,1.41,1.68-1.67c.06-.06,.13-.09,.21-.09h3.58c.5,0,.9-.4,.9-.9v-4.45c0-.5-.41-.9-.9-.9h-5.78Z"/><g><path d="M16.87,13.64h-.47c-.06,0-.11-.05-.11-.11,0-.06,.05-.11,.11-.11h.48c.06,0,.11,.05,.11,.11,0,.06-.05,.11-.11,.11Z"/><path d="M16.56,12.47c.03-.05,.1-.07,.15-.04l.41,.24s.06,.06,.06,.1c0,.02,0,.04-.01,.06-.03,.05-.1,.07-.15,.04l-.41-.24c-.05-.03-.07-.1-.04-.15Z"/><path d="M17.18,14.25c.03,.05,.01,.12-.04,.15l-.41,.24c-.05,.03-.12,.01-.15-.04-.03-.05-.01-.12,.04-.15l.41-.24s.04-.01,.06-.01c.04,0,.08,.02,.1,.06Z"/><path d="M17.31,11.85c-.03-.05-.02-.12,.04-.15,.05-.03,.12-.02,.15,.04l.25,.4s.02,.04,.02,.06c0,.04-.02,.07-.05,.09-.05,.03-.12,.02-.15-.04l-.25-.4Z"/><path d="M18.31,11.98v-.47c0-.06,.05-.11,.11-.11s.11,.05,.11,.11v.47s-.01,.06-.03,.08c-.02,.02-.05,.03-.08,.03-.06,0-.11-.05-.11-.11Z"/><path d="M19.1,12.13l.24-.41c.03-.05,.1-.07,.15-.04,.05,.03,.07,.1,.04,.15l-.24,.41s-.06,.05-.1,.05c-.02,0-.04,0-.06-.01-.05-.03-.07-.1-.04-.15Z"/><path d="M19.65,13.56c0,.37-.16,.7-.42,.92h0s-.11,.13-.13,.32c-.01,.19-.02,.56-.02,.56,0,0-.02,.19-.23,.2-.11,0-.23,0-.31,0h-.18c-.09,0-.21,0-.31,0-.21,0-.23-.2-.23-.2,0,0,0-.37-.02-.56-.01-.15-.08-.25-.11-.3-.27-.22-.45-.56-.45-.94,0-.67,.54-1.21,1.21-1.21,.67,0,1.21,.54,1.21,1.21Z"/><path d="M19.68,12.83c-.03-.05-.02-.12,.03-.15l.4-.25c.05-.03,.12-.02,.15,.03,.03,.05,.02,.12-.03,.15l-.4,.25s-.04,.02-.06,.02c-.04,0-.07-.02-.09-.05Z"/><path d="M20.28,14.61c-.03,.05-.1,.07-.15,.04l-.41-.24s-.06-.06-.06-.1c0-.02,0-.04,.01-.06,.03-.05,.1-.07,.15-.04l.41,.24c.05,.03,.07,.1,.04,.15Z"/><path d="M20.56,13.53c0,.06-.05,.11-.11,.11h-.47s-.06-.01-.08-.03-.03-.05-.03-.08c0-.06,.05-.11,.11-.11h.47c.06,0,.11,.05,.11,.11Z"/><path d="M20.23,12.61l-.4,.25s-.04,.02-.06,.02c-.04,0-.07-.02-.09-.05-.03-.05-.02-.12,.03-.15l.4-.25c.05-.03,.12-.02,.15,.03,.03,.05,.02,.12-.03,.15Z"/><path d="M20.28,14.61c-.03,.05-.1,.07-.15,.04l-.41-.24s-.06-.06-.06-.1c0-.02,0-.04,.01-.06,.03-.05,.1-.07,.15-.04l.41,.24c.05,.03,.07,.1,.04,.15Z"/><path d="M20.56,13.53c0,.06-.05,.11-.11,.11h-.47s-.06-.01-.08-.03-.03-.05-.03-.08c0-.06,.05-.11,.11-.11h.47c.06,0,.11,.05,.11,.11Z"/><path d="M19.53,11.83l-.24,.41s-.06,.05-.1,.05c-.02,0-.04,0-.06-.01-.05-.03-.07-.1-.04-.15l.24-.41c.03-.05,.1-.07,.15-.04,.05,.03,.07,.1,.04,.15Z"/><path d="M18.53,11.51v.47s-.01,.06-.03,.08c-.02,.02-.05,.03-.08,.03-.06,0-.11-.05-.11-.11v-.47c0-.06,.05-.11,.11-.11s.11,.05,.11,.11Z"/><path d="M17.76,12.19s-.02,.07-.05,.09c-.05,.03-.12,.02-.15-.04l-.25-.4c-.03-.05-.02-.12,.04-.15,.05-.03,.12-.02,.15,.04l.25,.4s.02,.04,.02,.06Z"/><path d="M17.18,12.76s0,.04-.01,.06c-.03,.05-.1,.07-.15,.04l-.41-.24c-.05-.03-.07-.1-.04-.15,.03-.05,.1-.07,.15-.04l.41,.24s.06,.06,.06,.1Z"/><path d="M16.98,13.53c0,.06-.05,.11-.11,.11h-.47c-.06,0-.11-.05-.11-.11,0-.06,.05-.11,.11-.11h.48c.06,0,.11,.05,.11,.11Z"/><path d="M17.14,14.4l-.41,.24c-.05,.03-.12,.01-.15-.04-.03-.05-.01-.12,.04-.15l.41-.24s.04-.01,.06-.01c.04,0,.08,.02,.1,.06,.03,.05,.01,.12-.04,.15Z"/><rect x="17.86" y="15.74" width="1.27" height=".46" rx=".21" ry=".21"/></g><path d="M10.09,13.62h-1.04c-.17,0-.3-.13-.3-.3v-3.04c0-.17,.13-.3,.3-.3h1.04c.17,0,.3,.13,.3,.3v3.04c0,.17-.13,.3-.3,.3Zm-.74-.6h.44v-2.44h-.44v2.44Z"/><path d="M12.28,13.62h-1.04c-.17,0-.3-.13-.3-.3v-3.84c0-.17,.13-.3,.3-.3h1.04c.17,0,.3,.13,.3,.3v3.84c0,.17-.13,.3-.3,.3Zm-.74-.6h.44v-3.24h-.44v3.24Z"/><path d="M14.26,13.62h-.84c-.17,0-.3-.13-.3-.3V6.69c0-.17,.13-.3,.3-.3h1.49c.17,0,.3,.13,.3,.3v3.67c0,.17-.13,.3-.3,.3s-.3-.13-.3-.3v-3.37h-.89v6.03h.54c.17,0,.3,.13,.3,.3s-.13,.3-.3,.3Z"/><path d="M9.34,8.99c-.08,0-.15-.03-.21-.09-.12-.12-.12-.31,0-.42l2.29-2.33-.76-.03c-.17,0-.29-.15-.29-.31,0-.16,.14-.29,.3-.29h.01l1.43,.06c.12,0,.22,.08,.27,.19,.04,.11,.02,.24-.06,.32l-2.76,2.82c-.06,.06-.14,.09-.21,.09Z"/><path d="M12.12,7.65h0c-.17,0-.3-.14-.3-.3v-1.46c.02-.16,.15-.3,.31-.3h0c.17,0,.3,.14,.3,.3v1.46c-.02,.16-.15,.3-.31,.3Z"/></svg>