<?xml version="1.0" encoding="UTF-8"?><svg id="a" xmlns="http://www.w3.org/2000/svg" viewBox="0 0 24 24"><path d="M16.5,10.15H7.39c-.17,0-.3,.13-.3,.3s.13,.3,.3,.3h9.11c.17,0,.3-.13,.3-.3s-.13-.3-.3-.3Z"/><path d="M16.5,12.84H7.39c-.17,0-.3,.13-.3,.3s.13,.3,.3,.3h9.11c.17,0,.3-.13,.3-.3s-.13-.3-.3-.3Z"/><path d="M11.31,15.15l-1.46,1.31-.75-.72c-.12-.12-.31-.11-.42,0-.12,.12-.11,.31,0,.42l.95,.92c.06,.06,.13,.08,.21,.08,.07,0,.14-.03,.2-.08l1.67-1.5c.12-.11,.13-.3,.02-.42-.11-.12-.3-.13-.42-.02Z"/><path d="M15.32,15.17c-.12-.12-.31-.12-.42,0l-.62,.62-.62-.62c-.12-.12-.31-.12-.42,0s-.12,.31,0,.42l.62,.62-.62,.62c-.12,.12-.12,.31,0,.42,.06,.06,.13,.09,.21,.09s.15-.03,.21-.09l.62-.62,.62,.62c.06,.06,.13,.09,.21,.09s.15-.03,.21-.09c.12-.12,.12-.31,0-.42l-.62-.62,.62-.62c.12-.12,.12-.31,0-.42Z"/><path d="M16.73,5.13H8.51c-.08,0-.16,.03-.21,.09l-3.07,3.07c-.06,.06-.09,.13-.09,.21v8.25c0,1.17,.95,2.12,2.12,2.12h9.47c1.17,0,2.12-.95,2.12-2.12V7.25c0-1.17-.95-2.12-2.12-2.12Zm-8.4,.9v1.35s0,.43-.27,.7c-.17,.17-.41,.26-.73,.26h-1.31l2.31-2.31Zm9.93,10.72c0,.84-.68,1.52-1.53,1.52H7.27c-.84,0-1.53-.68-1.53-1.52v-7.81h1.59c.49,0,.88-.15,1.16-.44,.45-.46,.45-1.11,.45-1.13v-1.65h7.8c.84,0,1.53,.68,1.53,1.52v9.5Z"/></svg>