<?xml version="1.0" encoding="UTF-8"?><svg id="a" xmlns="http://www.w3.org/2000/svg" viewBox="0 0 24 24"><path d="M12.07,19.92c-.26,0-.52-.02-.8-.05-.94-.11-1.82-.48-2.59-1.07-.77-.59-1.34-1.32-1.7-2.18-.2-.46-.33-.96-.43-1.56-.07-.45-.06-.91,.03-1.46,.06-.38,.18-.74,.26-.98l.04-.11c.14-.4,.28-.82,.47-1.21,.34-.71,.7-1.4,1.08-2.05,.33-.58,.71-1.19,1.2-1.92,.29-.44,.61-.87,.92-1.29l.17-.24c.24-.33,.48-.65,.74-.98,.11-.15,.22-.29,.34-.44l.22-.29,.23,.28c.05,.05,.09,.11,.13,.16,.1,.12,.19,.22,.28,.34,.08,.11,.17,.22,.25,.33,.29,.38,.58,.77,.86,1.16l.05,.08c.51,.74,1.04,1.5,1.52,2.27,.4,.64,.75,1.3,1.15,2.09,.25,.5,.48,1.02,.68,1.54,.15,.4,.25,.81,.3,1.2h0c.07,.53,.09,1.03,.06,1.49-.02,.4-.15,.79-.26,1.12-.14,.41-.29,.75-.46,1.05-.47,.81-1.13,1.47-1.95,1.95-.5,.29-1.05,.51-1.64,.65-.35,.08-.72,.12-1.12,.12Zm-.05-14.91l-.12,.16c-.25,.33-.49,.65-.73,.97l-.17,.24c-.3,.41-.62,.83-.9,1.26-.48,.73-.86,1.33-1.18,1.89-.37,.64-.72,1.32-1.06,2.01-.17,.36-.31,.76-.44,1.15l-.04,.11c-.12,.36-.19,.63-.24,.89-.08,.48-.09,.89-.03,1.27,.09,.56,.21,1.01,.39,1.43,.33,.76,.84,1.42,1.52,1.95,.69,.53,1.47,.86,2.31,.96,.64,.08,1.2,.06,1.72-.06,.53-.12,1.03-.32,1.47-.58,.74-.43,1.32-1.02,1.75-1.75,.15-.26,.29-.57,.41-.94,.1-.3,.21-.65,.23-.97,.03-.42,0-.89-.05-1.38h0c-.04-.35-.13-.71-.27-1.07-.19-.5-.41-1-.65-1.48-.4-.78-.74-1.42-1.12-2.05-.47-.76-.99-1.52-1.5-2.25l-.05-.08c-.27-.39-.56-.77-.84-1.14-.08-.11-.17-.22-.25-.33-.05-.07-.1-.13-.16-.2Z"/><path d="M11.53,17.44s-.02,0-.04,0c-.57-.07-1.09-.29-1.55-.64-.46-.35-.8-.79-1.02-1.3-.12-.28-.2-.57-.25-.93-.04-.27-.04-.55,.02-.88,.04-.23,.11-.44,.15-.58l.02-.06c.08-.24,.16-.48,.27-.71,.07-.14,.24-.2,.38-.13,.14,.07,.2,.24,.13,.38-.1,.2-.17,.42-.25,.65l-.02,.06c-.07,.2-.11,.35-.13,.49-.04,.26-.05,.49-.02,.7,.05,.31,.12,.56,.22,.79,.18,.42,.46,.78,.84,1.07,.38,.29,.81,.47,1.27,.53,.16,.02,.27,.16,.25,.32-.02,.15-.14,.25-.29,.25Z"/></svg>