<?xml version="1.0" encoding="UTF-8"?><svg id="a" xmlns="http://www.w3.org/2000/svg" viewBox="0 0 24 24"><path d="M7.25,16.36h1.9c.17,0,.34-.17,.34-.34v-4.98c0-.17-.17-.34-.34-.34h-1.9c-.17,0-.34,.17-.34,.34v4.98c0,.17,.17,.34,.34,.34Zm.26-5.06h1.38v4.46h-1.38v-4.46Z"/><path d="M11.32,16.36h1.9c.17,0,.34-.17,.34-.34V7.57c0-.17-.17-.34-.34-.34h-1.9c-.17,0-.34,.17-.34,.34v8.45c0,.17,.17,.34,.34,.34Zm.26-8.53h1.38v7.93h-1.38V7.83Z"/><path d="M15.36,16.36h1.9c.17,0,.34-.17,.34-.34V6.11c0-.17-.17-.34-.34-.34h-1.9c-.17,0-.34,.17-.34,.34v9.91c0,.17,.17,.34,.34,.34Zm.26-9.99h1.38V15.76h-1.38V6.38Z"/><path d="M19.03,17.62H7.65s-.99-.02-1.74-1.03c-.7-.95-.63-1.9-.63-1.94V7.85c0-.17-.13-.3-.3-.3s-.3,.13-.3,.3v6.78s-.09,1.19,.75,2.32c.93,1.26,2.17,1.27,2.22,1.27h11.38c.17,0,.3-.13,.3-.3s-.13-.3-.3-.3Z"/></svg>