<?xml version="1.0" encoding="UTF-8"?><svg id="a" xmlns="http://www.w3.org/2000/svg" viewBox="0 0 24 24"><path d="M15.65,8.39c-.08,0-.15-.03-.21-.09-.12-.12-.12-.31,0-.42l1.21-1.21c.12-.12,.31-.12,.42,0,.12,.12,.12,.31,0,.42l-1.21,1.21c-.06,.06-.14,.09-.21,.09Z"/><path d="M17.04,11.32c-.15,0-.28-.11-.3-.26-.02-.16,.1-.31,.26-.33l1.69-.21c.16-.02,.31,.1,.33,.26,.02,.16-.1,.31-.26,.33l-1.69,.21s-.02,0-.04,0Z"/><path d="M8.35,8.39c-.08,0-.15-.03-.21-.09l-1.21-1.21c-.12-.12-.12-.31,0-.42,.12-.12,.31-.12,.42,0l1.21,1.21c.12,.12,.12,.31,0,.42-.06,.06-.14,.09-.21,.09Z"/><path d="M6.96,11.32s-.02,0-.04,0l-1.69-.21c-.16-.02-.28-.17-.26-.33,.02-.16,.17-.28,.33-.26l1.69,.21c.16,.02,.28,.17,.26,.33-.02,.15-.15,.26-.3,.26Z"/><path d="M11.99,6.78c-.17,0-.3-.13-.3-.3v-1.68c0-.17,.13-.3,.3-.3s.3,.13,.3,.3v1.68c0,.17-.13,.3-.3,.3Z"/><path d="M13.29,19.5h-2.6c-.45,0-.82-.37-.82-.82v-.53c0-.45,.37-.82,.82-.82h2.6c.45,0,.82,.37,.82,.82v.53c0,.45-.37,.82-.82,.82Zm-2.6-1.57c-.12,0-.22,.1-.22,.22v.53c0,.12,.1,.22,.22,.22h2.6c.12,0,.22-.1,.22-.22v-.53c0-.12-.1-.22-.22-.22h-2.6Z"/><path d="M13.34,17.12h-2.7c-.42,0-.77-.35-.77-.77v-.58c-.03-.4-.24-.84-.65-1.33-.11-.1-.23-.25-.35-.39-.04-.04-.08-.09-.11-.12-.02-.02-.03-.05-.04-.08-.46-.64-.72-1.44-.72-2.27,0-2.2,1.79-3.99,3.99-3.99s3.99,1.79,3.99,3.99c0,.81-.25,1.6-.72,2.27-.01,.02-.03,.06-.04,.07-.03,.04-.09,.11-.16,.18l-.08,.09c-.07,.09-.14,.17-.23,.25-.39,.47-.61,.92-.64,1.35v.56c-.01,.42-.36,.77-.78,.77Zm-1.35-8.94c-1.87,0-3.39,1.52-3.39,3.39,0,.7,.22,1.38,.64,1.97,.02,.03,.05,.07,.09,.11,.11,.14,.21,.27,.33,.37,.51,.62,.77,1.17,.81,1.72v.61c0,.09,.08,.17,.17,.17h2.7c.09,0,.17-.08,.17-.17v-.59c.06-.57,.32-1.13,.81-1.72,.09-.09,.15-.16,.2-.23l.05-.06c.1-.11,.15-.16,.17-.19,0-.01,0-.01,0-.03,.41-.58,.62-1.25,.62-1.95,0-1.87-1.52-3.39-3.39-3.39Zm3.28,5.64h0Zm-.27-.13h0Z"/></svg>