<?xml version="1.0" encoding="UTF-8"?><svg id="a" xmlns="http://www.w3.org/2000/svg" viewBox="0 0 24 24"><path d="M13.17,19.63h-4.37c-.45,0-.81-.37-.81-.82v-4.59c0-.07-.03-.14-.08-.19l-.4-.4c-.16-.16-.24-.36-.24-.59v-4.53c0-.39,.31-.7,.7-.7h6.02c.16,0,.28,.13,.28,.28s-.13,.28-.28,.28H7.96c-.08,0-.14,.06-.14,.14v4.53c0,.07,.03,.14,.08,.19l.4,.4c.16,.16,.24,.36,.24,.59v4.59c0,.14,.11,.25,.25,.25h3.37c-.16-.35-.24-.73-.24-1.13,0-.75,.29-1.46,.82-1.99,.11-.11,.29-.11,.4,0,.11,.11,.11,.29,0,.4-.42,.42-.66,.99-.66,1.59,0,.45,.13,.89,.38,1.26l.3,.44Z"/><path d="M14.74,19.84c-1.05,0-1.91-.86-1.91-1.91s.86-1.91,1.91-1.91,1.91,.86,1.91,1.91-.86,1.91-1.91,1.91Zm0-3.25c-.74,0-1.34,.6-1.34,1.34s.6,1.34,1.34,1.34,1.34-.6,1.34-1.34-.6-1.34-1.34-1.34Z"/><path d="M15.22,15.93c-.16,0-.28-.13-.28-.28v-1.32c0-.23,.09-.45,.25-.62l.44-.44c.06-.06,.09-.14,.09-.22v-3.25c0-.12,.02-.23,.07-.34l.38-.83s0-.05-.02-.06l-.57-.36c-.18-.11-.28-.3-.28-.51v-.23c0-.06-.03-.12-.09-.15l-4.08-2.39c-.05-.03-.12-.03-.17,0l-.27,.12c-.18,.08-.4,.08-.58-.02l-.58-.31s-.08,0-.1,.02l-.43,.63,2.63,1.54c.13,.08,.18,.25,.1,.38-.08,.13-.25,.18-.38,.1l-2.63-1.53c-.14-.08-.23-.21-.27-.36-.03-.15,0-.31,.08-.44l.43-.63c.18-.27,.54-.36,.82-.2l.58,.31s.06,.01,.08,0l.27-.12c.22-.1,.48-.09,.69,.04l4.08,2.39c.22,.13,.36,.38,.36,.64v.23s0,.02,.02,.03l.57,.36c.26,.16,.36,.49,.23,.77l-.38,.83s-.02,.07-.02,.11v3.25c0,.23-.09,.45-.26,.62l-.44,.44c-.06,.06-.09,.14-.09,.22v1.32c0,.16-.13,.28-.28,.28Z"/></svg>