<?xml version="1.0" encoding="UTF-8"?><svg id="a" xmlns="http://www.w3.org/2000/svg" viewBox="0 0 24 24"><path d="M15.17,10.1c0-2.83-2.3-5.13-5.13-5.13s-5.13,2.3-5.13,5.13,2.3,5.13,5.13,5.13,5.13-2.3,5.13-5.13Zm-5.13,4.53c-2.5,0-4.53-2.03-4.53-4.53s2.03-4.53,4.53-4.53,4.53,2.03,4.53,4.53-2.03,4.53-4.53,4.53Z"/><path d="M18.79,17.32l-4.07-3.91-.21,.25c-.28,.35-.6,.67-.94,.96l-.25,.21,4.05,3.89c.19,.19,.44,.29,.71,.29s.52-.1,.71-.29c.19-.19,.29-.44,.29-.71s-.1-.52-.29-.71Zm-.42,.99c-.15,.15-.41,.16-.57,0l-3.58-3.44c.2-.18,.38-.37,.56-.57l3.59,3.45c.07,.08,.12,.18,.12,.28,0,.11-.04,.21-.12,.29Z"/></svg>