<?xml version="1.0" encoding="UTF-8"?><svg id="a" xmlns="http://www.w3.org/2000/svg" viewBox="0 0 24 24"><g><path d="M6.42,17.95h-1.65c-.44,0-.79-.35-.79-.79v-5.62c0-.44,.35-.79,.79-.79h1.65c.44,0,.79,.35,.79,.79v5.62c0,.44-.35,.79-.79,.79Zm-1.65-6.62c-.11,0-.2,.09-.2,.2v5.62c0,.11,.09,.2,.2,.2h1.65c.11,0,.2-.09,.2-.2v-5.62c0-.11-.09-.2-.2-.2h-1.65Z"/><g><path d="M14.79,15.12c-.16,0-.29-.13-.29-.29v-.45c0-.31-.08-.54-.24-.7-.26-.25-.66-.23-.67-.23h-2.52c-1.99,0-4.18-1.04-4.27-1.08-.15-.07-.21-.24-.14-.39,.07-.15,.24-.21,.39-.14,.02,.01,2.16,1.03,4.02,1.03h2.5c.09,0,.67,0,1.09,.39,.28,.27,.43,.65,.43,1.12v.45c0,.16-.13,.29-.29,.29Z"/><path d="M12.93,18.54s-.05,0-.07,0h-1.73c-2.9,0-4.39-1.95-4.45-2.03-.1-.13-.07-.31,.06-.41,.13-.1,.31-.07,.41,.06h0s1.38,1.8,3.98,1.8h1.76s1.05,.05,2.33-.79c1.37-.89,3.86-2.69,3.89-2.71,.09-.06,.51-.42,.21-.85-.29-.41-.54-.33-.9-.14l-.06,.03c-.14,.07-.91,.43-1.72,.81-.77,.36-1.56,.73-1.7,.8-.34,.17-1.24,.45-3.54,.45-.16,0-.29-.13-.29-.29s.13-.29,.29-.29c2.26,0,3.05-.27,3.28-.39,.14-.07,.91-.43,1.71-.8,.77-.36,1.56-.73,1.7-.8l.05-.03c.28-.15,1.04-.53,1.64,.33,.27,.38,.29,.81,.06,1.2-.16,.27-.38,.44-.4,.46-.03,.02-2.53,1.83-3.91,2.73-1.27,.82-2.32,.88-2.61,.88Z"/></g></g><path d="M12.97,12.17l-.16-.1c-1.68-1.07-2.88-2.24-3.48-3.37-.3-.56-.34-1.22-.11-1.8,.24-.61,.72-1.08,1.37-1.31,1.04-.37,1.91,.08,2.38,.5,.47-.42,1.35-.87,2.38-.5,.65,.23,1.13,.7,1.37,1.31,.23,.58,.19,1.24-.11,1.8-.41,.78-1.35,2-3.49,3.36l-.16,.1Zm-1.59-6.13c-.18,0-.38,.03-.59,.11-.48,.17-.85,.52-1.02,.97-.16,.43-.14,.9,.08,1.31,.37,.71,1.22,1.8,3.12,3.04,1.91-1.25,2.76-2.34,3.13-3.04,.22-.41,.25-.89,.08-1.31-.17-.45-.54-.79-1.02-.97-1.15-.42-1.93,.52-1.96,.56l-.23,.29-.23-.29s-.54-.66-1.36-.66Z"/></svg>