<?xml version="1.0" encoding="UTF-8"?><svg id="a" xmlns="http://www.w3.org/2000/svg" viewBox="0 0 24 24"><path d="M21.26,11.16h-1.41c-.17,0-.3,.13-.3,.3s.13,.3,.3,.3h1.41c.17,0,.3-.13,.3-.3s-.13-.3-.3-.3Z"/><path d="M19.23,10.07c.08,0,.15-.03,.21-.09l1-1c.12-.12,.12-.31,0-.42s-.31-.12-.42,0l-1,1c-.12,.12-.12,.31,0,.42,.06,.06,.13,.09,.21,.09Z"/><path d="M19.44,12.85c-.12-.12-.31-.12-.42,0s-.12,.31,0,.42l1,1c.06,.06,.13,.09,.21,.09s.15-.03,.21-.09c.12-.12,.12-.31,0-.42l-1-1Z"/><path d="M17.66,9.91V5.65c0-.55-.44-.99-.99-.99s-.99,.44-.99,.99v.19s-.04,0-.05,0l-6.11,2.27s0,0-.02,.01c-.03,0-.04-.03-.07-.03h-2.31c-1.26,0-2.35,.7-2.92,1.73-.04,0-.09-.01-.13-.01-.9,0-1.63,.73-1.63,1.63s.73,1.64,1.63,1.64c.04,0,.07-.03,.11-.05,.39,.71,1.02,1.27,1.79,1.55v3.76c0,.55,.44,.99,.99,.99s.99-.44,.99-.99v-3.54h1.44s.08-.03,.11-.05h0l6.06,2.27s.07,.02,.11,.02h0v.21c0,.55,.44,.99,.99,.99s.99-.44,.99-.99v-4.29s.05,0,.07-.01c.61-.26,1-.85,1-1.51s-.43-1.29-1.07-1.53Zm-14.63,1.53c0-.52,.4-.94,.9-1.01-.1,.32-.17,.65-.17,1.01s.07,.69,.17,1.01c-.5-.07-.9-.49-.9-1.01Zm1.33,0c0-1.52,1.24-2.76,2.76-2.76h2.2v5.51h-2.2c-1.52,0-2.76-1.24-2.76-2.76Zm3,6.9c0,.22-.18,.39-.39,.39s-.39-.18-.39-.39v-3.6c.18,.03,.36,.05,.54,.05h.24v3.54Zm2.56-4.08v-5.67l5.76-2.14v9.96l-5.76-2.16Zm7.14,2.99c0,.22-.18,.39-.39,.39s-.39-.18-.39-.39V5.65c0-.22,.18-.39,.39-.39s.39,.18,.39,.39v11.6Zm.6-4.96v-1.71c.28,.19,.47,.5,.47,.85s-.18,.66-.47,.85Z"/></svg>