<?xml version="1.0" encoding="UTF-8"?><svg id="a" xmlns="http://www.w3.org/2000/svg" viewBox="0 0 24 24"><path d="M12,9.3c-.16,0-.29-.13-.29-.29v-3.21c0-.16,.13-.29,.29-.29s.29,.13,.29,.29v3.21c0,.16-.13,.29-.29,.29Z"/><path d="M12,11.9c-.6,0-.9-.15-.9-.45v-.28c-.75,.3-1.85,.66-2.8,.66-.81,0-1.6-.18-2.22-.52-.6-.32-.95-.75-.95-1.14,0-.16,.06-.31,.17-.42,.3-.29,.88-.26,1.7-.24,.26,0,.53,.02,.81,.02,.91,0,2.43,.17,3.29,.27-.15-.11-.25-.29-.25-.49,0-.34,.27-.61,.61-.61h1.07c.34,0,.61,.27,.61,.61,0,.2-.1,.38-.25,.49,.86-.11,2.38-.27,3.29-.27,.28,0,.55,0,.81-.02,.81-.03,1.4-.05,1.7,.24,.11,.11,.17,.25,.17,.42,0,.39-.36,.82-.95,1.14-.61,.33-1.4,.52-2.22,.52-.95,0-2.05-.36-2.8-.66v.28c0,.3-.3,.45-.9,.45Zm-.32-.61c.17,.03,.46,.03,.63,0v-1.28s-.04-.08-.08-.08v-.59h.3s.02-.01,.02-.02-.01-.02-.02-.02h-1.07s-.02,.01-.02,.02,.01,.02,.02,.02h.3v.59s-.08,.04-.08,.08v1.28Zm.97-.86l.07,.03c.54,.23,1.9,.78,2.98,.78,1.67,0,2.58-.8,2.58-1.07h0c-.13-.11-.81-.08-1.26-.07-.27,0-.54,.02-.83,.02-1.03,0-2.94,.23-3.53,.31Zm-6.94-.26c.01,.28,.93,1.07,2.58,1.07,1.08,0,2.44-.55,2.98-.78l.07-.03c-.59-.07-2.5-.31-3.53-.31-.29,0-.56,0-.83-.02-.45-.02-1.13-.04-1.26,.07Z"/><path d="M6.69,16.04s-.09-.01-.13-.03c-.14-.07-.2-.25-.13-.39,.59-1.18,1.8-1.86,2.38-2.19,.05-.03,.11-.06,.16-.09,.12-.73,.55-1.39,.57-1.42l.03-.05,1.65-1.2c.13-.1,.31-.07,.41,.06,.1,.13,.07,.31-.06,.41l-1.56,1.14c-.1,.16-.41,.72-.47,1.27v.12l-.11,.08c-.07,.05-.17,.11-.32,.2-.53,.3-1.64,.92-2.15,1.94-.05,.1-.15,.16-.26,.16Z"/><path d="M7.8,19.62s-.07,0-.1-.02c-.15-.06-.23-.22-.18-.38,.75-2.08,1.4-2.76,1.96-3.37,.13-.14,.26-.28,.38-.42-.23-.85-.19-1.72,.12-2.63h0c.11-.28,.87-1.12,1.19-1.47,.11-.12,.3-.13,.41-.02,.12,.11,.13,.3,.02,.41-.46,.5-1,1.12-1.07,1.27-.29,.86-.31,1.62-.07,2.41l.04,.15-.09,.12c-.17,.21-.34,.4-.51,.58-.55,.59-1.13,1.21-1.84,3.17-.04,.12-.16,.19-.28,.19Z"/><path d="M17.38,16.04c-.11,0-.21-.06-.26-.16-.51-1.02-1.62-1.64-2.15-1.94-.16-.09-.26-.14-.32-.2l-.09-.08v-.12c-.07-.54-.39-1.11-.49-1.27l-1.56-1.14c-.13-.1-.16-.28-.06-.41,.1-.13,.28-.16,.41-.06l1.65,1.2,.03,.05s.45,.7,.57,1.42c.05,.03,.1,.06,.16,.09,.58,.33,1.8,1.01,2.38,2.19,.07,.14,.01,.32-.13,.39-.04,.02-.09,.03-.13,.03Z"/><path d="M16.26,19.62c-.12,0-.23-.07-.28-.19-.71-1.96-1.29-2.58-1.84-3.17-.17-.18-.34-.36-.51-.58l-.09-.12,.04-.15c.24-.79,.22-1.55-.07-2.41-.07-.14-.61-.77-1.07-1.27-.11-.12-.1-.3,.02-.41,.12-.11,.3-.1,.41,.02,.32,.35,1.08,1.19,1.19,1.45h0c.31,.93,.35,1.79,.12,2.65,.12,.15,.25,.28,.38,.42,.57,.61,1.21,1.29,1.96,3.37,.06,.15-.02,.32-.18,.38-.03,.01-.07,.02-.1,.02Z"/><path d="M11.4,10.22s-.1-.01-.14-.04c-.05-.03-1.16-.65-1.66-1.05l-.11-.09v-.14c0-.69,.1-1.15,.16-1.46,0-.04,.02-.07,.02-.11-.7-1.42-1.57-2.47-1.58-2.49-.1-.12-.09-.31,.04-.41s.31-.09,.41,.04c.04,.05,.96,1.17,1.69,2.69l.04,.08-.02,.09c-.01,.06-.03,.14-.04,.22-.06,.28-.13,.65-.15,1.19,.51,.37,1.46,.91,1.47,.91,.14,.08,.19,.26,.11,.4-.05,.1-.15,.15-.26,.15Z"/><path d="M12.61,10.22c-.1,0-.2-.05-.26-.15-.08-.14-.03-.32,.11-.4,.01,0,.96-.54,1.47-.91-.01-.55-.09-.92-.15-1.19-.02-.08-.03-.16-.04-.22l-.02-.09,.04-.08c.74-1.52,1.66-2.64,1.69-2.69,.1-.12,.29-.14,.41-.04,.12,.1,.14,.29,.04,.41,0,.01-.88,1.07-1.58,2.49,0,.03,.01,.07,.02,.11,.06,.31,.16,.77,.16,1.46v.14l-.11,.09c-.5,.4-1.61,1.02-1.66,1.05-.05,.03-.09,.04-.14,.04Z"/><path d="M12,17.87c-.8,0-.97-2.04-.97-3.76,0-2.1,.24-2.8,.97-2.8s.97,.71,.97,2.8c0,1.72-.17,3.76-.97,3.76Zm0-5.98c-.06,0-.12,0-.2,.23-.12,.34-.18,1.01-.18,1.99,0,2.01,.24,2.86,.38,3.11,.14-.25,.38-1.1,.38-3.11,0-.98-.06-1.65-.18-1.99-.08-.23-.14-.23-.2-.23Z"/></svg>