<?xml version="1.0" encoding="UTF-8"?><svg id="a" xmlns="http://www.w3.org/2000/svg" viewBox="0 0 24 24"><path d="M17.39,11.42c-.58-1.07-1.68-1.73-2.9-1.73-.39,0-.77,.07-1.14,.21-.71-1.29-2.08-2.11-3.55-2.11-2.16,0-3.94,1.7-4.06,3.83-1.4,.55-2.32,1.89-2.32,3.39,0,2.02,1.64,3.66,3.66,3.66h9.7c2.02,0,3.66-1.64,3.66-3.66,0-1.77-1.3-3.29-3.04-3.59Zm-.62,6.65H7.07c-1.69,0-3.06-1.37-3.06-3.06,0-1.31,.85-2.47,2.11-2.89l.21-.07v-.22c0-1.9,1.56-3.45,3.46-3.45,1.34,0,2.57,.79,3.14,2.02l.13,.27,.27-.13c1.37-.64,2.95-.03,3.59,1.27l.07,.15,.16,.02c1.53,.2,2.68,1.49,2.68,3.02,0,1.69-1.37,3.06-3.06,3.06Z"/><path d="M20.37,10.7l-1.34-.38c.02-.15,.06-.31,.06-.46,0-.33-.07-.65-.17-.95l1.35-.61c.15-.07,.22-.25,.15-.4-.07-.15-.25-.22-.4-.15l-1.35,.61c-.24-.4-.57-.74-.97-.99l.65-1.28c.08-.15,.02-.33-.13-.4-.15-.07-.33-.02-.4,.13l-.65,1.28c-.31-.12-.65-.19-1-.19-.11,0-.22,.01-.33,.02l-.33-1.39c-.04-.16-.2-.27-.36-.22-.16,.04-.26,.2-.22,.36l.33,1.38c-.43,.14-.82,.38-1.14,.7l-1.22-.85c-.14-.09-.32-.06-.42,.07-.09,.14-.06,.32,.07,.42l1.18,.83c-.1,.15-.19,.31-.26,.48-.06,.15,0,.33,.16,.39,.15,.06,.33,0,.39-.16,.36-.87,1.21-1.43,2.15-1.43,1.29,0,2.33,1.05,2.33,2.33,0,.4-.1,.79-.29,1.13-.08,.14-.03,.33,.12,.41,.05,.03,.1,.04,.15,.04,.11,0,.21-.06,.26-.15,.07-.12,.1-.25,.15-.38l1.33,.38s.05,.01,.08,.01c.13,0,.25-.09,.29-.22,.04-.16-.05-.33-.21-.37Z"/></svg>