<?xml version="1.0" encoding="UTF-8"?><svg id="a" xmlns="http://www.w3.org/2000/svg" viewBox="0 0 24 24"><path d="M12.04,16.05c-2.24,0-4.06-1.82-4.06-4.06s1.82-4.06,4.06-4.06,4.06,1.82,4.06,4.06-1.82,4.06-4.06,4.06Zm0-7.52c-1.91,0-3.46,1.55-3.46,3.46s1.55,3.46,3.46,3.46,3.46-1.55,3.46-3.46-1.55-3.46-3.46-3.46Z"/><path d="M12.04,13.89c-1.05,0-1.9-.85-1.9-1.9s.85-1.9,1.9-1.9,1.9,.85,1.9,1.9-.85,1.9-1.9,1.9Zm0-3.19c-.72,0-1.3,.58-1.3,1.3s.58,1.3,1.3,1.3,1.3-.58,1.3-1.3-.58-1.3-1.3-1.3Z"/><path d="M12.02,16.18c-2.92,0-5.77-1.35-8.48-4.01-.11-.11-.12-.29-.01-.41,.14-.15,3.38-3.76,8.16-3.94,3.04-.12,6,1.21,8.79,3.92,.11,.11,.12,.29,.02,.41-.13,.16-3.29,3.8-8.04,4.02-.14,0-.28,0-.43,0Zm-7.85-4.23c2.65,2.53,5.43,3.75,8.25,3.62,3.85-.17,6.68-2.83,7.42-3.6-2.6-2.46-5.31-3.65-8.13-3.55-3.88,.14-6.77,2.76-7.53,3.53Z"/></svg>