<?xml version="1.0" encoding="UTF-8"?><svg id="a" xmlns="http://www.w3.org/2000/svg" viewBox="0 0 24 24"><path d="M8.75,18.6h-.02c-.17-.01-.29-.16-.28-.32,.12-1.74,.92-3.21,2.09-3.91-.49-.42-.78-1.03-.78-1.69,0-1.24,1.01-2.25,2.25-2.25s2.25,1.01,2.25,2.25c0,.66-.29,1.27-.78,1.69,1.13,.68,1.92,2.09,2.08,3.76,.02,.17-.11,.31-.27,.33-.17,.02-.31-.11-.33-.27-.16-1.68-1.01-3.05-2.18-3.49-.11-.04-.19-.15-.19-.27,0-.12,.06-.23,.16-.28,.56-.28,.91-.85,.91-1.47,0-.91-.74-1.65-1.65-1.65s-1.65,.74-1.65,1.65c0,.62,.35,1.18,.91,1.47,.11,.05,.17,.16,.16,.28,0,.12-.08,.22-.19,.26-1.19,.46-2.08,1.91-2.19,3.63-.01,.16-.14,.28-.3,.28Z"/><path d="M10.24,10.23c-.08,0-.17-.03-.23-.1-.11-.12-.1-.31,.03-.42,.16-.14,.32-.26,.5-.37-.49-.42-.78-1.03-.78-1.69,0-1.24,1.01-2.25,2.25-2.25s2.25,1.01,2.25,2.25c0,.66-.29,1.27-.78,1.69,.17,.1,.33,.22,.48,.35,.12,.11,.14,.3,.03,.42-.11,.12-.3,.14-.42,.03-.25-.22-.51-.38-.79-.49-.11-.04-.19-.15-.19-.26,0-.12,.06-.23,.16-.28,.56-.28,.91-.85,.91-1.47,0-.91-.74-1.65-1.65-1.65s-1.65,.74-1.65,1.65c0,.62,.35,1.18,.91,1.47,.11,.05,.17,.16,.16,.28,0,.12-.08,.22-.19,.27-.28,.11-.55,.27-.81,.5-.06,.05-.13,.07-.2,.07Z"/><path d="M21.39,13.43c-.15,0-.28-.12-.3-.27-.16-1.68-1.01-3.05-2.18-3.49-.11-.04-.19-.15-.19-.27,0-.12,.06-.23,.16-.28,.56-.28,.91-.85,.91-1.47,0-.91-.74-1.65-1.65-1.65s-1.65,.74-1.65,1.65c0,.27,.07,.54,.2,.78,.08,.15,.03,.33-.12,.41-.15,.08-.33,.03-.41-.12-.18-.33-.27-.69-.27-1.07,0-1.24,1.01-2.25,2.25-2.25s2.25,1.01,2.25,2.25c0,.66-.29,1.27-.78,1.69,1.13,.68,1.92,2.09,2.08,3.76,.02,.17-.11,.31-.27,.33h-.03Z"/><path d="M2.61,13.57h-.02c-.17-.01-.29-.16-.28-.32,.12-1.74,.92-3.21,2.09-3.91-.49-.42-.78-1.03-.78-1.69,0-1.24,1.01-2.25,2.25-2.25s2.25,1.01,2.25,2.25c0,.43-.12,.85-.36,1.21-.09,.14-.28,.18-.42,.09-.14-.09-.18-.28-.09-.42,.17-.26,.26-.57,.26-.88,0-.91-.74-1.65-1.65-1.65s-1.65,.74-1.65,1.65c0,.62,.35,1.18,.91,1.47,.11,.05,.17,.16,.16,.28,0,.12-.08,.22-.19,.27-1.19,.46-2.07,1.91-2.19,3.63-.01,.16-.14,.28-.3,.28Z"/><path d="M4.99,16.56h-.02c-.17-.01-.29-.16-.28-.32,.12-1.74,.92-3.21,2.09-3.91-.49-.42-.78-1.03-.78-1.69,0-1.24,1.01-2.25,2.25-2.25s2.25,1.01,2.25,2.25c0,.66-.29,1.27-.78,1.69,.04,.02,.07,.05,.11,.07,.14,.09,.18,.28,.09,.42-.09,.14-.28,.18-.42,.09-.16-.1-.32-.19-.48-.25-.11-.04-.19-.15-.19-.27,0-.12,.06-.23,.16-.28,.56-.28,.91-.85,.91-1.47,0-.91-.74-1.65-1.65-1.65s-1.65,.74-1.65,1.65c0,.62,.35,1.18,.91,1.47,.11,.05,.17,.16,.16,.28,0,.12-.08,.22-.19,.26-1.19,.46-2.07,1.91-2.19,3.63-.01,.16-.14,.28-.3,.28Z"/><path d="M19.03,16.42c-.15,0-.28-.12-.3-.27-.16-1.68-1.01-3.05-2.18-3.49-.11-.04-.19-.15-.19-.26,0-.12,.06-.23,.16-.28,.56-.28,.91-.85,.91-1.47,0-.91-.74-1.65-1.65-1.65s-1.65,.74-1.65,1.65c0,.62,.35,1.18,.91,1.47,.11,.05,.17,.16,.16,.28,0,.12-.08,.22-.19,.26-.25,.1-.5,.24-.72,.42-.13,.11-.32,.09-.42-.04-.1-.13-.09-.32,.04-.42,.13-.1,.26-.2,.4-.28-.49-.42-.78-1.03-.78-1.69,0-1.24,1.01-2.25,2.25-2.25s2.25,1.01,2.25,2.25c0,.66-.29,1.27-.78,1.69,1.13,.68,1.92,2.09,2.08,3.76,.02,.17-.11,.31-.27,.33h-.03Z"/></svg>