<?xml version="1.0" encoding="UTF-8"?><svg id="a" xmlns="http://www.w3.org/2000/svg" viewBox="0 0 24 24"><path d="M17.39,11.7h-6.8c-.22,0-.4-.18-.4-.41V5.9c0-.68-.55-1.24-1.24-1.24h-1.64c-.68,0-1.24,.55-1.24,1.24v7.97c0,.96,.7,1.77,1.64,1.92v1.77h-.29c-.49,0-.88,.4-.88,.88s.4,.88,.88,.88h7.5c.49,0,.88-.4,.88-.88s-.4-.88-.88-.88h-.29v-1.76c1.85-.15,3.28-1.71,3.28-3.57,0-.29-.24-.53-.53-.53Zm-3.05,3.52h-.3v2.94h.88c.16,0,.29,.13,.29,.29s-.13,.29-.29,.29H7.43c-.16,0-.29-.13-.29-.29s.13-.29,.29-.29h.88v-2.94h-.3c-.74,0-1.34-.6-1.34-1.34V5.9c0-.35,.29-.64,.64-.64h1.64c.35,0,.64,.29,.64,.64v5.39c0,.55,.45,1,1,1h6.74c-.04,1.62-1.36,2.92-2.98,2.92Z"/><path d="M10.83,11.59h6.21c.49,0,.88-.4,.88-.88s-.4-.88-.88-.88h-6.21c-.29,0-.53,.24-.53,.53v.7c0,.29,.24,.53,.53,.53Zm.06-.61v-.57h6.15c.16,0,.29,.13,.29,.29s-.13,.29-.29,.29h-6.15Z"/></svg>