<?xml version="1.0" encoding="UTF-8"?><svg id="a" xmlns="http://www.w3.org/2000/svg" viewBox="0 0 24 24"><path d="M11.23,15.76H4.37c-.49,0-.88-.39-.88-.88v-.72c0-.49,.39-.88,.88-.88h6.86c.49,0,.88,.39,.88,.88v.72c0,.49-.39,.88-.88,.88Zm-6.86-1.86c-.14,0-.26,.12-.26,.26v.72c0,.14,.12,.26,.26,.26h6.86c.14,0,.26-.12,.26-.26v-.72c0-.14-.12-.26-.26-.26H4.37Z"/><path d="M16.53,17.52c-1.64,0-2.98-1.33-2.98-2.98s1.33-2.98,2.98-2.98,2.98,1.33,2.98,2.98-1.33,2.98-2.98,2.98Zm0-5.33c-1.3,0-2.36,1.06-2.36,2.36s1.06,2.36,2.36,2.36,2.36-1.06,2.36-2.36-1.06-2.36-2.36-2.36Z"/><path d="M13.68,15.23h-1.88c-.17,0-.31-.14-.31-.31s.14-.31,.31-.31h1.75v-2.45H7.52c-.17,0-.31-.14-.31-.31s.14-.31,.31-.31h6.16c.27,0,.49,.22,.49,.49v2.7c0,.27-.22,.49-.49,.49Zm0-3.07h0Z"/><path d="M13.86,12.13c-.17,0-.31-.14-.31-.31V7.1h-4.27c-.17,0-.31-.14-.31-.31s.14-.31,.31-.31h4.39c.27,0,.49,.22,.49,.49v4.85c0,.17-.14,.31-.31,.31Zm-.18-5.03h0Z"/><path d="M20.02,14.85h-.82c-.17,0-.31-.14-.31-.31s.14-.31,.31-.31h.7v-.39c0-2.19-1.78-3.98-3.98-3.98h-2.05c-.17,0-.31-.14-.31-.31s.14-.31,.31-.31h2.05c2.53,0,4.6,2.06,4.6,4.59v.51c0,.27-.22,.49-.49,.49Z"/><path d="M15.93,9.87c-.17,0-.31-.14-.31-.31v-2.77c0-.17,.14-.31,.31-.31s.31,.14,.31,.31v2.77c0,.17-.14,.31-.31,.31Z"/><path d="M9.69,12.13s-.02,0-.04,0c-.17-.02-.29-.17-.27-.34l.59-5.03c.02-.17,.17-.29,.34-.27,.17,.02,.29,.17,.27,.34l-.59,5.03c-.02,.16-.15,.27-.31,.27Z"/><g><path d="M10.02,13.89c-.13,0-.24-.08-.29-.2-.34-.92-1.23-1.54-2.21-1.54s-1.87,.62-2.21,1.54c-.06,.16-.24,.24-.4,.18-.16-.06-.24-.24-.18-.4,.43-1.16,1.55-1.94,2.79-1.94s2.36,.78,2.79,1.94c.06,.16-.02,.34-.18,.4-.04,.01-.07,.02-.11,.02Z"/><path d="M7.52,17.49c-1.24,0-2.36-.78-2.79-1.94-.06-.16,.02-.34,.18-.4,.16-.06,.34,.02,.4,.18,.34,.92,1.23,1.54,2.21,1.54s1.87-.62,2.21-1.54c.06-.16,.24-.24,.4-.18,.16,.06,.24,.24,.18,.4-.43,1.16-1.55,1.94-2.79,1.94Z"/></g></svg>