<?xml version="1.0" encoding="UTF-8"?><svg id="a" xmlns="http://www.w3.org/2000/svg" viewBox="0 0 24 24"><path d="M16.48,16.7H7.52c-.71,0-1.29-.58-1.29-1.29v-2.83c0-.71,.58-1.29,1.29-1.29h8.96c.71,0,1.29,.58,1.29,1.29v2.83c0,.71-.58,1.29-1.29,1.29ZM7.52,11.89c-.38,0-.69,.31-.69,.69v2.83c0,.38,.31,.69,.69,.69h8.96c.38,0,.69-.31,.69-.69v-2.83c0-.38-.31-.69-.69-.69H7.52Z"/><path d="M16.18,11.83c-.17,0-.3-.13-.3-.3v-2.83c0-.38-.31-.69-.69-.69h-6.45c-.38,0-.69,.31-.69,.69v2.83c0,.17-.13,.3-.3,.3s-.3-.13-.3-.3v-2.83c0-.71,.58-1.29,1.29-1.29h6.45c.71,0,1.29,.58,1.29,1.29v2.83c0,.17-.13,.3-.3,.3Z"/><g><path d="M8.71,18.69h-.34c-.49,0-.88-.39-.88-.88v-1.29c0-.17,.13-.3,.3-.3s.3,.13,.3,.3v1.29c0,.15,.13,.28,.28,.28h.34c.16,0,.28-.13,.28-.28v-1.41c0-.17,.13-.3,.3-.3s.3,.13,.3,.3v1.41c0,.49-.4,.88-.88,.88Z"/><path d="M15.54,18.69h-.34c-.49,0-.88-.39-.88-.88v-1.29c0-.17,.13-.3,.3-.3s.3,.13,.3,.3v1.29c0,.15,.13,.28,.28,.28h.34c.16,0,.28-.13,.28-.28v-1.41c0-.17,.13-.3,.3-.3s.3,.13,.3,.3v1.41c0,.49-.4,.88-.88,.88Z"/></g><path d="M14.34,6.83h-4.75c-.42,0-.76-.34-.76-.76s.34-.76,.76-.76h4.75c.42,0,.76,.34,.76,.76s-.34,.76-.76,.76Zm-4.75-.91c-.08,0-.16,.07-.16,.16s.07,.16,.16,.16h4.75c.08,0,.16-.07,.16-.16s-.07-.16-.16-.16h-4.75Z"/><g><path d="M9.25,15.69c-.64,0-1.17-.52-1.17-1.17s.52-1.17,1.17-1.17,1.17,.52,1.17,1.17-.52,1.17-1.17,1.17Zm0-1.74c-.31,0-.57,.26-.57,.57s.26,.57,.57,.57,.57-.26,.57-.57-.26-.57-.57-.57Z"/><path d="M14.67,15.69c-.65,0-1.17-.52-1.17-1.17s.52-1.17,1.17-1.17,1.17,.52,1.17,1.17-.52,1.17-1.17,1.17Zm0-1.74c-.31,0-.57,.26-.57,.57s.26,.57,.57,.57,.57-.26,.57-.57-.26-.57-.57-.57Z"/></g></svg>