<?xml version="1.0" encoding="UTF-8"?><svg id="a" xmlns="http://www.w3.org/2000/svg" viewBox="0 0 24 24"><path d="M18.4,18.86c-.07,0-.14-.02-.19-.07l-1.58-1.35c-.07-.06-.1-.14-.1-.23,0-.09,.04-.17,.1-.23l.78-.67c.09-.09,.14-.22,.14-.37,0-.13-.05-.25-.13-.33l-1.97-1.97c-.19-.19-.51-.18-.72,.03l-1.1,1.1c-.1,.09-.24,.12-.36,.05l-.42-.23c-.71-.39-1.53-.88-2.41-1.76-.87-.87-1.37-1.7-1.76-2.41l-.23-.42c-.06-.12-.04-.26,.05-.36l1.1-1.1c.2-.2,.22-.53,.03-.72l-1.96-1.96c-.18-.18-.5-.18-.7,.02l-.62,.75c-.22,.34-.26,.43-.27,.45-.09,.23-.15,.46-.17,.69,0,0,0,.06,0,.16,0,.69,.23,3.19,3.25,6.2,2.54,2.54,4.38,3.48,6.35,3.24,.42-.05,.67,.16,1,.44l.18,.15c.13,.11,.14,.3,.04,.42-.11,.13-.29,.14-.42,.04l-.19-.16c-.32-.28-.38-.32-.54-.3-2.18,.26-4.16-.72-6.85-3.41-3.18-3.18-3.42-5.88-3.42-6.63,0-.14,0-.22,0-.22,.03-.29,.1-.57,.21-.84,.04-.1,.14-.28,.35-.59l.67-.81c.47-.45,1.15-.45,1.56-.03l1.96,1.96c.42,.43,.41,1.13-.03,1.56l-.94,.94,.12,.22c.37,.67,.84,1.46,1.66,2.28,.82,.82,1.61,1.29,2.28,1.66l.22,.12,.94-.94c.44-.44,1.14-.45,1.56-.03l1.96,1.96c.2,.2,.31,.46,.31,.75,0,.3-.12,.59-.34,.81l-.53,.45,1.32,1.12c.13,.11,.14,.3,.03,.42-.06,.07-.14,.1-.23,.1Z"/></svg>