<?xml version="1.0" encoding="UTF-8"?><svg id="a" xmlns="http://www.w3.org/2000/svg" viewBox="0 0 24 24"><path d="M12.86,14.02c-.28,0-.55-.11-.75-.31l-2.31-2.31c-.41-.41-.41-1.08,0-1.49l.06-.06c.41-.41,1.08-.41,1.49,0l2.31,2.31c.2,.2,.31,.46,.31,.75s-.11,.55-.31,.75h0l-.06,.06c-.2,.2-.46,.31-.75,.31h0Zm.6-.58h0Zm-2.84-3.3c-.12,0-.23,.04-.32,.13l-.06,.06c-.18,.18-.18,.47,0,.65l2.31,2.31c.09,.09,.2,.13,.32,.13h0c.12,0,.24-.05,.32-.13l.06-.06c.09-.08,.13-.2,.13-.32s-.05-.24-.13-.32l-2.31-2.31c-.09-.09-.21-.13-.32-.13Z"/><path d="M8.85,9.97h0c-.3,0-.59-.12-.8-.33-.21-.21-.33-.5-.33-.8s.12-.59,.33-.8c.44-.44,1.16-.44,1.6,0h0c.44,.44,.44,1.16,0,1.6-.21,.21-.5,.33-.8,.33Zm0-1.66c-.14,0-.27,.05-.38,.16-.1,.1-.16,.23-.16,.38s.06,.28,.16,.38c.1,.1,.23,.16,.38,.16h0c.14,0,.28-.06,.38-.16,.21-.21,.21-.54,0-.75-.1-.1-.24-.16-.38-.16Z"/><path d="M6.26,9.13c-.08,0-.15-.03-.21-.09-.12-.12-.12-.31,0-.42l2.69-2.69c.12-.12,.31-.12,.42,0s.12,.31,0,.42l-2.69,2.69c-.06,.06-.14,.09-.21,.09Z"/><path d="M16.17,17.75c-.08,0-.15-.03-.21-.09-.12-.12-.12-.31,0-.42l1.12-1.12c.12-.12,.31-.12,.42,0,.12,.12,.12,.31,0,.42l-1.12,1.12c-.06,.06-.14,.09-.21,.09Z"/><path d="M11.22,12.45c-.08,0-.15-.03-.21-.09-.12-.12-.12-.31,0-.42l.97-.97c.12-.12,.31-.12,.42,0,.12,.12,.12,.31,0,.42l-.97,.97c-.06,.06-.14,.09-.21,.09Z"/><path d="M18.38,19.53c-.28,0-.56-.11-.78-.32l-1.48-1.48s-.09,0-.14-.03l-.25-.11-4.59-3.11-1.33-1.16-4.59-4.59c-.91-.91-.91-2.4,0-3.31l.25-.25c.91-.91,2.4-.91,3.31,0h0l4.57,4.58s.07,.08,.1,.12l1.04,1.25,3.15,5.01s.02,.04,.03,.06l1.48,1.48c.43,.43,.43,1.12,0,1.55-.21,.21-.5,.32-.78,.32Zm-2.2-2.47c.08,0,.15,.03,.21,.09l1.64,1.64c.2,.19,.51,.19,.71,0,.19-.19,.19-.51,0-.71l-1.57-1.57s-.08-.11-.09-.18l-3.06-4.88-1.04-1.24-4.62-4.63c-.68-.68-1.79-.68-2.47,0l-.25,.25c-.68,.68-.68,1.79,0,2.47l4.57,4.57,1.29,1.12,4.56,3.08s.08-.02,.12-.02Z"/><path d="M6.33,6.3c-.07,0-.14-.02-.2-.08-.12-.11-.14-.3-.03-.42,.26-.29,.97-.71,1.81-.2,.14,.09,.19,.27,.1,.41-.09,.14-.27,.19-.41,.1-.61-.37-1.01,.04-1.05,.08-.06,.07-.14,.1-.22,.1Z"/></svg>