<?xml version="1.0" encoding="UTF-8"?><svg id="a" xmlns="http://www.w3.org/2000/svg" viewBox="0 0 24 24"><path d="M20.49,16.97H3.51c-.17,0-.3-.13-.3-.3v-2.61c0-.14,.09-.26,.23-.29,1.03-.26,1.72-.98,1.72-1.79s-.69-1.53-1.72-1.8c-.13-.03-.23-.15-.23-.29v-2.56c0-.17,.13-.3,.3-.3H20.49c.17,0,.3,.13,.3,.3v2.53c0,.14-.1,.26-.24,.29-1.08,.23-1.83,.98-1.83,1.82s.75,1.59,1.83,1.82c.14,.03,.24,.15,.24,.29v2.58c0,.17-.13,.3-.3,.3Zm-16.68-.6H20.19v-2.04c-1.23-.35-2.06-1.29-2.06-2.35s.84-2,2.06-2.35v-2H3.81v2.04c1.17,.38,1.95,1.29,1.95,2.31s-.77,1.93-1.95,2.31v2.08Z"/><path d="M7.75,9.55c-.17,0-.3-.13-.3-.3v-1.92c0-.17,.13-.3,.3-.3s.3,.13,.3,.3v1.92c0,.17-.13,.3-.3,.3Z"/><path d="M7.75,13.36c-.17,0-.3-.13-.3-.3v-2.34c0-.17,.13-.3,.3-.3s.3,.13,.3,.3v2.34c0,.17-.13,.3-.3,.3Z"/><path d="M7.75,16.58c-.17,0-.3-.13-.3-.3v-1.92c0-.17,.13-.3,.3-.3s.3,.13,.3,.3v1.92c0,.17-.13,.3-.3,.3Z"/><g><path d="M9.8,15.81c-.08,0-.15-.03-.21-.09-.12-.12-.12-.31,0-.42l.85-.85c.12-.12,.31-.12,.42,0s.12,.31,0,.42l-.85,.85c-.06,.06-.13,.09-.21,.09Z"/><path d="M17,10.23c-.08,0-.15-.03-.21-.09l-1.47-1.47c-.12-.12-.12-.31,0-.42s.31-.12,.42,0l1.47,1.47c.12,.12,.12,.31,0,.42-.06,.06-.13,.09-.21,.09Z"/><path d="M12.39,13.08c-.08,0-.15-.03-.21-.09l-.9-.9c-.12-.12-.12-.31,0-.42s.31-.12,.42,0l.9,.9c.12,.12,.12,.31,0,.42-.06,.06-.13,.09-.21,.09Z"/><path d="M13.16,12.31c-.08,0-.15-.03-.21-.09l-.9-.9c-.12-.12-.12-.31,0-.42s.31-.12,.42,0l.9,.9c.12,.12,.12,.31,0,.42-.06,.06-.13,.09-.21,.09Z"/><path d="M13.93,11.54c-.08,0-.15-.03-.21-.09l-.9-.9c-.12-.12-.12-.31,0-.42s.31-.12,.42,0l.9,.9c.12,.12,.12,.31,0,.42-.06,.06-.13,.09-.21,.09Z"/><path d="M12.55,15.17c-.08,0-.15-.03-.21-.09l-2.12-2.12c-.12-.12-.12-.31,0-.42l3.29-3.29c.12-.12,.31-.12,.42,0l2.12,2.12c.12,.12,.12,.31,0,.42l-3.29,3.29c-.06,.06-.13,.09-.21,.09Zm-1.7-2.42l1.7,1.7,2.87-2.87-1.7-1.7-2.87,2.87Z"/><path d="M15.24,11.06c-.08,0-.15-.03-.21-.09l-.7-.7c-.06-.06-.09-.13-.09-.21s.03-.16,.09-.21l1.26-1.26c.06-.06,.13-.09,.21-.09h0c.08,0,.16,.03,.21,.09l.7,.7c.12,.12,.12,.31,0,.42l-1.25,1.25c-.06,.06-.13,.09-.21,.09Zm-.27-1l.27,.27,.83-.83-.27-.27-.83,.83Z"/><path d="M11.4,15.4c-.08,0-.16-.03-.21-.09l-1.19-1.19c-.12-.12-.12-.31,0-.42l.68-.68c.12-.12,.31-.12,.42,0l1.19,1.19c.12,.12,.12,.31,0,.42l-.68,.68c-.06,.06-.13,.09-.21,.09Zm-.77-1.49l.77,.77,.26-.26-.77-.77-.26,.26Z"/></g></svg>