<svg viewBox="0 0 24 24" fill="#000000" xmlns="http://www.w3.org/2000/svg">
  <path d="M19.95,11.01c0-2.52-2.05-4.56-4.56-4.56-1.58,0-3.03,.82-3.86,2.15-1.31-.74-3.05-.49-4.07,.62-.56,.61-.87,1.41-.87,2.24-1.45,.25-2.54,1.53-2.54,3.03,0,1.69,1.38,3.07,3.07,3.07h9.01c1.31,0,2.38-1.07,2.38-2.38,0-.25-.05-.49-.13-.73,1-.87,1.57-2.1,1.57-3.43Zm-4.56-3.96c2.18,0,3.96,1.78,3.96,3.96,0,1.09-.44,2.12-1.23,2.86-.02-.04-.06-.06-.08-.1-.04-.06-.09-.11-.14-.17-.08-.09-.17-.17-.26-.25-.05-.04-.11-.09-.16-.13-.11-.07-.22-.13-.34-.19-.05-.03-.11-.06-.16-.08-.18-.07-.36-.12-.56-.15,.06-.87-.31-1.72-1.02-2.26-.72-.54-1.63-.68-2.46-.38-.09-.22-.21-.42-.35-.61-.02-.03-.04-.06-.07-.1-.14-.18-.29-.35-.47-.5-.02-.01-.03-.03-.04-.04,.72-1.16,1.99-1.88,3.37-1.88Zm.75,9.9H7.12c-1.36,0-2.47-1.11-2.47-2.47,0-1.28,1-2.37,2.28-2.46,.08,0,.15-.04,.21-.11s.08-.14,.07-.22c-.07-.77,.18-1.5,.7-2.07,.51-.56,1.24-.88,1.99-.88,.56,0,1.1,.17,1.56,.5,.49,.35,.86,.85,1.03,1.42,.03,.08,.09,.15,.17,.19,.08,.03,.17,.03,.25,0,.69-.35,1.51-.28,2.13,.19,.63,.48,.91,1.22,.75,2-.02,.09,0,.18,.06,.25,.06,.07,.14,.11,.23,.11,.19,0,.37,.03,.54,.07,.34,.1,.64,.29,.86,.55,.11,.13,.21,.28,.28,.45,.1,.23,.15,.47,.15,.71,0,.98-.8,1.78-1.78,1.78Z"/>
</svg>
