<svg xmlns="http://www.w3.org/2000/svg" viewBox="0 0 24 24" fill="#000000">
  <path d="M19.74,13.61c-.37-.86-1.16-1.43-2.09-1.55,.08-.97-.33-1.9-1.12-2.5-.79-.6-1.81-.75-2.72-.41-.26-.63-.7-1.18-1.26-1.58-1.46-1.03-3.58-.8-4.77,.51-.62,.68-.96,1.57-.95,2.48-1.6,.27-2.81,1.67-2.81,3.32,0,1.86,1.51,3.37,3.37,3.37h9.97c1.44,0,2.6-1.17,2.6-2.6,0-.35-.07-.7-.22-1.04Zm-2.38,3.04H7.38c-1.53,0-2.77-1.24-2.77-2.77,0-1.44,1.12-2.65,2.55-2.76,.08,0,.15-.04,.21-.11s.08-.14,.07-.22c-.08-.86,.2-1.68,.78-2.31,.57-.62,1.39-.98,2.23-.98,.62,0,1.23,.19,1.74,.56,.55,.39,.96,.95,1.15,1.58,.03,.09,.09,.15,.17,.19,.08,.03,.18,.03,.25,0,.78-.4,1.69-.32,2.4,.22,.71,.54,1.02,1.37,.85,2.24-.02,.09,0,.18,.06,.25,.06,.07,.14,.11,.23,.11,.84,0,1.56,.46,1.88,1.21,.11,.26,.17,.53,.17,.8,0,1.1-.9,2-2,2Z" class="b"/>
</svg>
