<?xml version="1.0" encoding="UTF-8"?>
<svg xmlns="http://www.w3.org/2000/svg" viewBox="0 0 24 24" fill="#000000">
  <defs>
    <style>
      .b{fill:#272525;}
    </style>
  </defs>
  <path d="M19.82,11.81c-.27-.63-.83-1.05-1.5-1.16,.03-.7-.28-1.37-.85-1.8-.58-.44-1.31-.56-1.97-.33-.2-.44-.51-.83-.91-1.11-.46-.33-1-.5-1.56-.5-1.14,0-2.14,.72-2.53,1.77-1.15-.44-2.53-.16-3.37,.75-.51,.56-.79,1.29-.8,2.04-1.32,.24-2.32,1.41-2.32,2.79,0,1.56,1.27,2.83,2.83,2.83H15.07c1.21,0,2.2-.99,2.2-2.2,0-.11-.02-.22-.03-.33h.79c1.08,0,1.96-.88,1.96-1.96,0-.27-.06-.53-.17-.78Zm-4.75,4.68H6.84c-1.23,0-2.23-1-2.23-2.23,0-1.16,.9-2.14,2.06-2.23,.08,0,.15-.04,.21-.11s.08-.14,.07-.22c-.06-.69,.16-1.36,.63-1.87,.46-.5,1.12-.79,1.8-.79,.5,0,.99,.16,1.41,.45,.44,.32,.77,.77,.93,1.28,.03,.08,.09,.15,.17,.19,.08,.03,.17,.03,.25,0,.62-.32,1.36-.25,1.92,.17,.57,.43,.82,1.1,.68,1.8-.02,.09,0,.18,.06,.25,.06,.07,.14,.11,.23,.11,.67,0,1.25,.37,1.51,.96,.09,.21,.14,.42,.14,.64,0,.88-.72,1.6-1.6,1.6Zm2.95-2.53h-.97c-.32-.68-.94-1.14-1.68-1.24,.05-.8-.3-1.57-.95-2.06-.66-.5-1.49-.63-2.25-.36-.22-.51-.58-.96-1.04-1.28-.03-.02-.06-.03-.1-.05,.28-.86,1.08-1.45,1.99-1.45,.43,0,.85,.14,1.21,.39,.38,.27,.67,.66,.8,1.1,.03,.08,.09,.15,.17,.19,.08,.03,.18,.03,.25,0,.53-.27,1.16-.22,1.64,.15,.48,.37,.7,.94,.58,1.54-.02,.09,0,.18,.06,.25,.06,.07,.14,.11,.23,.11,.57,0,1.07,.31,1.29,.82,.08,.18,.12,.36,.12,.54,0,.75-.61,1.36-1.37,1.36Z" class="b"/>
</svg>
