<svg xmlns="http://www.w3.org/2000/svg" viewBox="0 0 24 24" fill="#000000">
  <path d="M19.82,11.82c-.27-.63-.83-1.05-1.5-1.16,.03-.7-.28-1.37-.85-1.8-.58-.44-1.31-.55-1.97-.33-.2-.44-.51-.83-.91-1.11-.46-.33-1-.5-1.56-.5-1.14,0-2.14,.72-2.53,1.77-1.15-.44-2.53-.16-3.37,.75-.51,.56-.79,1.29-.8,2.04-1.32,.24-2.32,1.41-2.32,2.79,0,1.56,1.27,2.83,2.83,2.83H15.07c1.21,0,2.2-.99,2.2-2.2,0-.11-.02-.22-.03-.33h.79c1.08,0,1.96-.88,1.96-1.96,0-.27-.06-.53-.17-.78Zm-4.75,4.68H6.84c-1.23,0-2.23-1-2.23-2.23,0-1.16,.9-2.14,2.06-2.23,.08,0,.15-.04,.21-.11s.08-.14,.07-.22c-.06-.69,.16-1.36,.63-1.87,.46-.5,1.12-.79,1.8-.79,.5,0,.99,.16,1.41,.45,.44,.32,.77,.77,.93,1.28,.03,.08,.09,.15,.17,.19,.08,.03,.17,.03,.25,0,.62-.32,1.36-.25,1.92,.17,.57,.43,.82,1.1,.68,1.8-.02,.09,0,.18,.06,.25,.06,.07,.14,.11,.23,.11,.67,0,1.25,.37,1.51,.96,.09,.21,.14,.42,.14,.64,0,.88-.72,1.6-1.6,1.6Z" class="b"/>
</svg>
