<svg viewBox="0 0 24 24" fill="#000000" xmlns="http://www.w3.org/2000/svg">
  <path d="M19.82,9.7c-.27-.63-.83-1.05-1.5-1.16,.03-.7-.28-1.37-.85-1.8-.58-.44-1.31-.56-1.97-.33-.2-.44-.51-.82-.91-1.11-.46-.33-1-.5-1.56-.5-1.14,0-2.14,.72-2.53,1.78-1.15-.44-2.53-.16-3.37,.75-.51,.56-.79,1.29-.8,2.04-1.32,.24-2.32,1.42-2.32,2.79,0,1.56,1.27,2.83,2.83,2.83h.55c0,.07-.02,.15,0,.22,.03,.18,.14,.34,.29,.45,.12,.08,.25,.12,.4,.12,.04,0,.09,0,.13-.01,.19-.04,.34-.14,.45-.29l.34-.49h6.07c1.21,0,2.2-.99,2.2-2.2,0-.11-.02-.22-.03-.33h.79c1.08,0,1.96-.88,1.96-1.96,0-.27-.06-.53-.17-.78Zm-11.28,4.89l-.37,.54s-.05,.04-.07,.04c-.01,0-.05,0-.08-.02h0s-.04-.05-.04-.07,0-.05,.02-.08l.37-.54s.05-.04,.08-.04c.02,0,.04,0,.06,.02,.05,.03,.06,.1,.03,.14Zm6.53-.21h-5.94c-.04-.17-.13-.32-.28-.43-.32-.22-.76-.14-.98,.18l-.17,.25h-.86c-1.23,0-2.23-1-2.23-2.23,0-1.16,.9-2.14,2.06-2.23,.08,0,.15-.04,.21-.11s.08-.14,.07-.22c-.06-.69,.16-1.36,.63-1.87,.8-.88,2.23-1.04,3.21-.34,.44,.31,.77,.77,.93,1.28,.03,.08,.09,.15,.17,.19,.08,.03,.17,.03,.25,0,.62-.32,1.36-.25,1.92,.17,.57,.43,.82,1.1,.68,1.8-.02,.09,0,.18,.06,.25s.14,.11,.23,.11c.67,0,1.25,.37,1.51,.96,.09,.21,.14,.42,.14,.64,0,.88-.72,1.6-1.6,1.6Z"/>
  <path d="M10.9,17.5l-.37,.54c-.11,.15-.15,.34-.11,.52,.03,.19,.14,.35,.29,.45,.12,.08,.25,.12,.4,.12,.04,0,.09,0,.13-.01,.19-.04,.34-.14,.45-.29l.37-.54c.22-.32,.14-.76-.18-.98-.32-.22-.76-.14-.98,.18Zm.66,.46l-.37,.54s-.05,.04-.07,.04c-.01,0-.05,0-.08-.02-.03-.02-.04-.05-.04-.07,0-.02,0-.05,.02-.08l.37-.54s.05-.04,.08-.04c.02,0,.04,0,.06,.02,.05,.03,.06,.1,.03,.14Z"/>
  <path d="M12.71,15.25c-.18,.03-.34,.14-.45,.29l-.37,.54c-.11,.15-.15,.34-.11,.53,.03,.18,.14,.34,.29,.45,.12,.08,.26,.12,.4,.12,.22,0,.44-.11,.58-.3l.37-.54c.11-.15,.15-.34,.11-.53-.04-.18-.14-.34-.29-.45-.15-.11-.34-.14-.52-.11Zm.21,.75l-.37,.54s-.1,.06-.14,.03h0s-.04-.05-.04-.07,0-.05,.02-.08l.37-.54s.05-.04,.09-.04c.02,0,.04,0,.05,.01,.03,.02,.04,.05,.04,.07s0,.05-.02,.08Z"/>
  <path d="M10.72,16.17c-.03-.18-.14-.34-.29-.45-.32-.22-.76-.14-.98,.18l-.37,.54c-.11,.15-.15,.34-.11,.53s.14,.34,.29,.45h0c.12,.08,.26,.12,.4,.12,.22,0,.44-.11,.58-.3l.37-.54c.11-.15,.15-.34,.11-.53Zm-.61,.19l-.37,.54s-.1,.06-.14,.03c-.03-.02-.04-.05-.04-.07s0-.05,.02-.08l.37-.54s.1-.06,.14-.03c.04,.03,.05,.1,.03,.14Z"/>
  <path d="M8.51,17.61c-.19,.04-.34,.14-.45,.29l-.14,.21c-.22,.32-.14,.76,.18,.98,.12,.08,.26,.12,.4,.12,.04,0,.09,0,.13-.01,.19-.03,.35-.14,.45-.29l.14-.21c.11-.15,.15-.34,.11-.52-.03-.19-.14-.35-.29-.45-.15-.11-.34-.14-.53-.11Zm.21,.75l-.14,.21s-.05,.04-.06,.04c-.02,0-.05,0-.08-.02h0s-.06-.1-.03-.14l.14-.21s.05-.04,.07-.04h.02s.04,0,.06,.02c.03,.02,.04,.05,.04,.07,0,.02,0,.05-.02,.08Z"/>
  <path d="M7.54,15.89c-.32-.22-.76-.14-.98,.18l-.37,.54c-.11,.15-.15,.34-.11,.52,.03,.19,.14,.35,.29,.45,.12,.08,.25,.12,.4,.12,.04,0,.09,0,.13-.01,.19-.04,.34-.14,.45-.29l.37-.54c.22-.32,.14-.76-.18-.98Zm-.31,.64l-.37,.54s-.05,.04-.07,.04c-.01,0-.05,0-.08-.02-.03-.02-.04-.05-.04-.07,0-.02,0-.05,.02-.08l.37-.54s.05-.04,.08-.04c.02,0,.04,0,.06,.02,.05,.03,.06,.1,.03,.14Z"/>
</svg>
