<?xml version="1.0" encoding="UTF-8"?>
<svg xmlns="http://www.w3.org/2000/svg" viewBox="0 0 24 24" fill="#000000">
  <path d="M12,11.18c-1.97,0-3.58-1.6-3.58-3.58s1.6-3.58,3.58-3.58,3.58,1.6,3.58,3.58-1.6,3.58-3.58,3.58Zm0-6.55c-1.64,0-2.98,1.34-2.98,2.98s1.34,2.98,2.98,2.98,2.98-1.34,2.98-2.98-1.34-2.98-2.98-2.98Z"/>
  <path d="M18.46,19.97H5.54v-6.02c0-1,.81-1.82,1.82-1.82h9.29c1,0,1.82,.82,1.82,1.82v6.02Zm-12.33-.6h11.73v-5.42c0-.67-.55-1.22-1.22-1.22H7.35c-.67,0-1.22,.55-1.22,1.22v5.42Z"/>
</svg>
