<svg viewBox="0 0 24 24" fill="#000000" xmlns="http://www.w3.org/2000/svg">
  <path d="M16.42,12.48c-.17,0-.3-.13-.3-.3v-.81c0-1.23-.97-2.15-1.96-2.47l-.7,1.39c-.04,.09-.12,.15-.22,.16-.1,.02-.19-.02-.26-.08l-1-1-1,1c-.07,.07-.16,.1-.26,.08-.1-.02-.18-.08-.22-.16l-.7-1.39c-.99,.32-1.96,1.24-1.96,2.47v.81c0,.17-.13,.3-.3,.3s-.3-.13-.3-.3v-.81c0-1.64,1.37-2.83,2.65-3.12,.13-.03,.27,.04,.33,.16l.62,1.24,.92-.92c.12-.12,.31-.12,.42,0l.92,.92,.62-1.24c.06-.12,.2-.19,.33-.16,1.29,.29,2.65,1.48,2.65,3.12v.81c0,.17-.13,.3-.3,.3Z"/>
  <path d="M11.99,8.05c-1.05,0-1.91-.86-1.91-1.91v-.86c0-1.04,.84-1.85,1.91-1.85s1.91,.81,1.91,1.85v.86c0,1.06-.86,1.91-1.91,1.91Zm0-4.03c-.74,0-1.31,.55-1.31,1.26v.86c0,.72,.59,1.31,1.31,1.31s1.31-.59,1.31-1.31v-.86c0-.7-.58-1.26-1.31-1.26Z"/>
  <path d="M18.44,16.92h-.4c-.17,0-.3-.13-.3-.3s.13-.3,.3-.3h.22l1.1-2.19v-.84H4.63v.84l1.1,2.19h.22c.17,0,.3,.13,.3,.3s-.13,.3-.3,.3h-.4c-.11,0-.22-.06-.27-.17l-1.21-2.42s-.03-.09-.03-.13v-1.21c0-.17,.13-.3,.3-.3h15.32c.17,0,.3,.13,.3,.3v1.21s-.01,.09-.03,.13l-1.21,2.42c-.05,.1-.16,.17-.27,.17Z"/>
  <path d="M6.75,20.69c-.17,0-.3-.13-.3-.3v-5.78c0-.17,.13-.3,.3-.3s.3,.13,.3,.3v5.78c0,.17-.13,.3-.3,.3Z"/>
  <path d="M17.23,20.69c-.17,0-.3-.13-.3-.3v-5.78c0-.17,.13-.3,.3-.3s.3,.13,.3,.3v5.78c0,.17-.13,.3-.3,.3Z"/>
  <path d="M15.21,20.59h-6.45c-.17,0-.3-.13-.3-.3v-5.28c0-.17,.13-.3,.3-.3h6.45c.17,0,.3,.13,.3,.3v5.28c0,.17-.13,.3-.3,.3Zm-6.15-.6h5.85v-4.68h-5.85v4.68Z"/>
</svg>
