<svg viewBox="0 0 24 24" fill="#000000" xmlns="http://www.w3.org/2000/svg">
  <path d="M12,15.97c-.17,0-.3-.13-.3-.3v-5.02c0-.17,.13-.3,.3-.3s.3,.13,.3,.3v5.02c0,.17-.13,.3-.3,.3Z"/>
  <path d="M12,19.93c-.26,0-.51-.01-.76-.04-.17-.02-.29-.16-.27-.33s.16-.29,.33-.27c.23,.02,.47,.03,.71,.03,4.04,0,7.33-3.29,7.33-7.33s-3.29-7.33-7.33-7.33-7.33,3.29-7.33,7.33c0,.14,0,.28,.01,.42,0,.17-.12,.31-.28,.32-.2,0-.31-.12-.32-.28,0-.15-.01-.3-.01-.45,0-4.37,3.56-7.93,7.93-7.93s7.93,3.56,7.93,7.93-3.56,7.93-7.93,7.93Z"/>
  <path d="M12,9.17c-.29,0-.52-.23-.52-.52s.23-.52,.52-.52,.52,.23,.52,.52-.23,.52-.52,.52Zm0-.6s-.08,.04-.08,.08c0,.09,.16,.09,.16,0,0-.04-.04-.08-.08-.08Z"/>
</svg>
