<?xml version="1.0" encoding="UTF-8"?>
<svg xmlns="http://www.w3.org/2000/svg" viewBox="0 0 24 24" fill="#000000">
  <path d="M16.14,19.97H7.86c-.17,0-.3-.13-.3-.3s.13-.3,.3-.3h8.28c.17,0,.3,.13,.3,.3s-.13,.3-.3,.3Z"/>
  <g>
    <path d="M12,18.12c-.14,0-.28-.07-.36-.19-1.05-1.55-4.47-6.79-4.47-9.07,0-2.66,2.17-4.83,4.83-4.83s4.83,2.17,4.83,4.83c0,2.28-3.42,7.52-4.47,9.07-.08,.12-.22,.19-.36,.19Zm0-13.49c-2.33,0-4.23,1.9-4.23,4.23,0,1.64,2.25,5.57,4.23,8.53,1.98-2.96,4.23-6.89,4.23-8.53,0-2.33-1.9-4.23-4.23-4.23Z"/>
    <path d="M12,11.43c-1.42,0-2.57-1.15-2.57-2.57s1.15-2.57,2.57-2.57,2.57,1.15,2.57,2.57-1.15,2.57-2.57,2.57Zm0-4.53c-1.08,0-1.97,.88-1.97,1.97s.88,1.97,1.97,1.97,1.97-.88,1.97-1.97-.88-1.97-1.97-1.97Z"/>
  </g>
</svg>
