<svg viewBox="0 0 24 24" fill="#000000" xmlns="http://www.w3.org/2000/svg">
  <path d="M8.88,16.44h-2.08c-.17,0-.34-.17-.34-.34v-5.35c0-.17,.17-.34,.34-.34h2.08c.17,0,.34,.17,.34,.34v5.35c0,.17-.17,.34-.34,.34Zm-1.82-.6h1.56v-4.83h-1.56v4.83Z"/>
  <path d="M13.34,16.44h-2.08c-.17,0-.34-.17-.34-.34V7.42c0-.17,.17-.34,.34-.34h2.08c.17,0,.34,.17,.34,.34v8.68c0,.17-.17,.34-.34,.34Zm-1.82-.6h1.56V7.68h-1.56V15.84Z"/>
  <path d="M17.76,16.44h-2.08c-.17,0-.34-.17-.34-.34V6.02c0-.17,.17-.34,.34-.34h2.08c.17,0,.34,.17,.34,.34v10.08c0,.17-.17,.34-.34,.34Zm-1.82-.6h1.56V6.28h-1.56V15.84Z"/>
  <path d="M7.65,18.4c-.07,0-1.79-.01-2.8-1.22-.92-1.11-.83-2.23-.82-2.28V5.9c0-.17,.13-.3,.3-.3s.3,.13,.3,.3V14.93c0,.07-.07,.95,.69,1.86,.83,.99,2.33,1.01,2.34,1.01h12.04c.17,0,.3,.13,.3,.3s-.13,.3-.3,.3H7.65Z"/>
</svg>
