<?xml version="1.0" encoding="UTF-8"?>
<svg xmlns="http://www.w3.org/2000/svg" viewBox="0 0 24 24" fill="#000000">
  <path d="M12,19.95s-.05,0-.08,0c-3.89-1-6.6-4.51-6.6-8.53V6.9c0-.12,.07-.23,.19-.28l6.38-2.55c.07-.03,.15-.03,.22,0l6.38,2.55c.11,.04,.19,.16,.19,.28v4.52c0,4.02-2.71,7.53-6.6,8.53-.03,0-.05,0-.08,0ZM5.92,7.1v4.32c0,3.72,2.5,6.97,6.08,7.93,3.58-.96,6.08-4.21,6.08-7.93V7.1l-6.08-2.43-6.08,2.43Z"/>
  <path d="M14.32,15.37s-.1-.01-.14-.03l-2.18-1.15-2.18,1.15c-.1,.05-.22,.04-.32-.02-.09-.07-.14-.18-.12-.29l.42-2.43-1.76-1.72c-.08-.08-.11-.2-.08-.31s.13-.19,.24-.2l2.44-.35,1.09-2.21c.1-.21,.44-.21,.54,0l1.09,2.21,2.44,.35c.11,.02,.21,.1,.24,.2s0,.23-.08,.31l-1.76,1.72,.42,2.43c.02,.11-.03,.23-.12,.29-.05,.04-.11,.06-.18,.06Zm-2.32-1.82s.1,.01,.14,.03l1.78,.94-.34-1.98c-.02-.1,.02-.2,.09-.27l1.44-1.41-1.99-.29c-.1-.01-.18-.08-.23-.16l-.89-1.8-.89,1.8c-.04,.09-.13,.15-.23,.16l-1.99,.29,1.44,1.41c.07,.07,.1,.17,.09,.27l-.34,1.98,1.78-.94s.09-.03,.14-.03Z"/>
</svg>
