<?xml version="1.0" encoding="UTF-8"?>
<svg xmlns="http://www.w3.org/2000/svg" viewBox="0 0 24 24" fill="#000000">
  <path d="M19.74,17.69H4.26c-.17,0-.3-.13-.3-.3V6.61c0-.17,.13-.3,.3-.3h15.48c.17,0,.3,.13,.3,.3v10.79c0,.17-.13,.3-.3,.3Zm-15.18-.6h14.88V6.91H4.56v10.19Z"/>
  <path d="M12,17.6c-.17,0-.3-.13-.3-.3V6.67c0-.17,.13-.3,.3-.3s.3,.13,.3,.3v10.63c0,.17-.13,.3-.3,.3Z"/>
  <path d="M7.11,15.18h-2.65c-.17,0-.3-.13-.3-.3s.13-.3,.3-.3h2.35v-5.16h-2.35c-.17,0-.3-.13-.3-.3s.13-.3,.3-.3h2.65c.17,0,.3,.13,.3,.3v5.76c0,.17-.13,.3-.3,.3Z"/>
  <path d="M19.51,15.18h-2.65c-.17,0-.3-.13-.3-.3v-5.76c0-.17,.13-.3,.3-.3h2.65c.17,0,.3,.13,.3,.3s-.13,.3-.3,.3h-2.35v5.16h2.35c.17,0,.3,.13,.3,.3s-.13,.3-.3,.3Z"/>
  <path d="M12,14.51c-1.38,0-2.51-1.12-2.51-2.51s1.12-2.51,2.51-2.51,2.51,1.12,2.51,2.51-1.12,2.51-2.51,2.51Zm0-4.42c-1.05,0-1.91,.86-1.91,1.91s.86,1.91,1.91,1.91,1.91-.86,1.91-1.91-.86-1.91-1.91-1.91Z"/>
</svg>
