<svg xmlns="http://www.w3.org/2000/svg" viewBox="0 0 24 24" fill="#000000">
  <path d="M5.77,19.93c-.17,0-.3-.13-.3-.3V4.37c0-.17,.13-.3,.3-.3s.3,.13,.3,.3v15.26c0,.17-.13,.3-.3,.3Z"/>
  <g>
    <path d="M7.89,19.93c-.17,0-.3-.13-.3-.3V4.37c0-.17,.13-.3,.3-.3s.3,.13,.3,.3v15.26c0,.17-.13,.3-.3,.3Z"/>
    <path d="M16.11,19.93c-.17,0-.3-.13-.3-.3V4.37c0-.17,.13-.3,.3-.3s.3,.13,.3,.3v15.26c0,.17-.13,.3-.3,.3Z"/>
  </g>
  <g>
    <path d="M12,5.87c-.17,0-.3-.13-.3-.3v-1.19c0-.17,.13-.3,.3-.3s.3,.13,.3,.3v1.19c0,.17-.13,.3-.3,.3Z"/>
    <path d="M12,8.21c-.17,0-.3-.13-.3-.3v-1.19c0-.17,.13-.3,.3-.3s.3,.13,.3,.3v1.19c0,.17-.13,.3-.3,.3Z"/>
    <path d="M12,10.54c-.17,0-.3-.13-.3-.3v-1.19c0-.17,.13-.3,.3-.3s.3,.13,.3,.3v1.19c0,.17-.13,.3-.3,.3Z"/>
    <path d="M12,12.89c-.17,0-.3-.13-.3-.3v-1.2c0-.17,.13-.3,.3-.3s.3,.13,.3,.3v1.2c0,.17-.13,.3-.3,.3Z"/>
    <path d="M12,15.23c-.17,0-.3-.13-.3-.3v-1.19c0-.17,.13-.3,.3-.3s.3,.13,.3,.3v1.19c0,.17-.13,.3-.3,.3Z"/>
    <path d="M12,17.57c-.17,0-.3-.13-.3-.3v-1.19c0-.17,.13-.3,.3-.3s.3,.13,.3,.3v1.19c0,.17-.13,.3-.3,.3Z"/>
    <path d="M12,19.91c-.17,0-.3-.13-.3-.3v-1.19c0-.17,.13-.3,.3-.3s.3,.13,.3,.3v1.19c0,.17-.13,.3-.3,.3Z"/>
  </g>
  <path d="M18.23,19.93c-.17,0-.3-.13-.3-.3V4.37c0-.17,.13-.3,.3-.3s.3,.13,.3,.3v15.26c0,.17-.13,.3-.3,.3Z"/>
</svg>
