<svg viewBox="0 0 24 24" fill="#000000" xmlns="http://www.w3.org/2000/svg">
  <path d="M10.78,18.94s-.03,0-.05,0c-.16-.03-.27-.18-.25-.34l.75-4.62c.02-.15,.15-.25,.3-.25h.58c.15,0,.27,.1,.3,.25l.78,4.44c.03,.16-.08,.32-.24,.35-.17,.03-.32-.08-.35-.24l-.73-4.19h-.07l-.71,4.37c-.02,.15-.15,.25-.3,.25Z"/>
  <path d="M12,11.18c-1.97,0-3.58-1.6-3.58-3.58s1.6-3.58,3.58-3.58,3.58,1.6,3.58,3.58-1.6,3.58-3.58,3.58Zm0-6.55c-1.64,0-2.98,1.33-2.98,2.98s1.34,2.98,2.98,2.98,2.98-1.33,2.98-2.98-1.34-2.98-2.98-2.98Z"/>
  <path d="M18.46,19.97H5.54v-6.02c0-1,.81-1.82,1.82-1.82h9.29c1,0,1.82,.82,1.82,1.82v6.02Zm-12.33-.6h11.73v-5.42c0-.67-.55-1.22-1.22-1.22H7.35c-.67,0-1.22,.55-1.22,1.22v5.42Z"/>
  <path transform="translate(-5.84 5.5) rotate(-24.78)" d="M9.31 12.09H9.91V20.009999999999998H9.31z"/>
  <path transform="translate(-6.4 22.1) rotate(-65.19)" d="M10.13 15.75H18.05V16.35H10.13z"/>
  <path d="M11.25,14.2c-.14,0-.26-.09-.29-.23l-.33-1.39c-.04-.16,.06-.32,.22-.36,.16-.04,.32,.06,.36,.22l.33,1.39c.04,.16-.06,.32-.22,.36-.02,0-.05,0-.07,0Z"/>
  <path d="M12.35,14.2s-.05,0-.07,0c-.16-.04-.26-.2-.22-.36l.33-1.39c.04-.16,.21-.26,.36-.22,.16,.04,.26,.2,.22,.36l-.33,1.39c-.03,.14-.16,.23-.29,.23Z"/>
  <path d="M16.44,18.5h-1.37c-.17,0-.3-.13-.3-.3s.13-.3,.3-.3h1.37c.17,0,.3,.13,.3,.3s-.13,.3-.3,.3Z"/>
</svg>
