<svg viewBox="0 0 24 24" fill="#000000" xmlns="http://www.w3.org/2000/svg">
  <path d="M19.94,8.86c0-2.51-2.04-4.56-4.56-4.56-1.58,0-3.02,.82-3.86,2.15-1.31-.74-3.05-.49-4.06,.62-.56,.61-.87,1.41-.87,2.23-1.44,.25-2.54,1.53-2.54,3.02,0,1.69,1.38,3.07,3.07,3.07h.76c-.02,.1-.03,.2-.01,.29,.03,.18,.14,.34,.29,.45,.12,.08,.26,.12,.4,.12,.22,0,.44-.11,.58-.3l.37-.54s0-.02,0-.02h6.6c1.31,0,2.38-1.07,2.38-2.38,0-.25-.05-.49-.13-.73,.99-.87,1.57-2.1,1.57-3.43Zm-4.56-3.96c2.18,0,3.96,1.78,3.96,3.96,0,1.09-.44,2.11-1.22,2.86-.02-.04-.06-.06-.08-.1-.04-.06-.09-.11-.14-.17-.08-.09-.16-.17-.25-.25-.05-.05-.11-.09-.17-.13-.1-.07-.22-.13-.33-.19-.06-.03-.11-.06-.17-.08-.18-.07-.36-.12-.56-.15,.06-.87-.31-1.72-1.03-2.26-.72-.54-1.63-.68-2.46-.38-.09-.22-.21-.42-.35-.61-.02-.03-.04-.06-.07-.1-.14-.18-.29-.35-.47-.5-.01-.01-.03-.03-.04-.04,.72-1.16,1.99-1.87,3.36-1.87Zm-6.36,10.17l-.37,.54s-.1,.06-.14,.03c-.03-.02-.04-.05-.04-.06s0-.05,.02-.08l.37-.54s.05-.04,.08-.04c.02,0,.04,0,.06,.02,.04,.03,.06,.1,.03,.14Zm7.1-.28h-6.53c-.05-.14-.13-.27-.25-.35-.32-.22-.76-.14-.98,.18l-.13,.18s-.01,0-.02,0h-1.09c-1.36,0-2.47-1.11-2.47-2.47,0-1.28,1-2.36,2.27-2.46,.08,0,.15-.04,.21-.11,.05-.06,.08-.14,.07-.22-.07-.77,.18-1.5,.7-2.06,.89-.97,2.46-1.15,3.55-.38,.49,.35,.86,.85,1.03,1.41,.03,.09,.09,.15,.17,.19,.08,.03,.17,.03,.25,0,.69-.35,1.5-.28,2.13,.19,.63,.48,.91,1.22,.75,2-.02,.09,0,.18,.06,.25,.06,.07,.14,.11,.23,.11,.75,0,1.39,.41,1.67,1.07h0c.1,.23,.15,.47,.15,.71,0,.98-.8,1.78-1.78,1.78Z"/>
  <path d="M11.39,17.99l-.37,.54c-.22,.32-.14,.76,.18,.98h0c.12,.08,.26,.12,.4,.12,.22,0,.44-.11,.58-.3l.37-.54c.11-.15,.15-.34,.11-.53s-.14-.34-.29-.45c-.32-.22-.76-.14-.98,.18Zm.66,.45l-.37,.54s-.1,.06-.14,.03c-.05-.03-.06-.1-.03-.14l.37-.54s.1-.06,.14-.03c.03,.02,.04,.05,.04,.06s0,.05-.02,.08Z"/>
  <path d="M13.19,15.74c-.18,.03-.34,.14-.45,.29l-.37,.54c-.22,.32-.14,.76,.18,.98,.12,.08,.25,.12,.39,.12,.04,0,.09,0,.13-.01,.19-.03,.35-.14,.45-.29l.37-.54c.11-.15,.15-.34,.11-.53-.04-.19-.14-.34-.29-.45-.15-.11-.34-.15-.53-.11Zm.21,.75l-.37,.54s-.05,.04-.07,.04c-.02,0-.05,0-.08-.02-.05-.03-.06-.1-.03-.14l.37-.54s.05-.04,.07-.04h.02s.04,0,.06,.02c.03,.02,.04,.05,.04,.07s0,.05-.02,.08Z"/>
  <path d="M10.92,16.21c-.15-.11-.34-.15-.52-.11-.19,.03-.35,.14-.45,.29l-.37,.54c-.11,.15-.15,.34-.11,.53,.04,.18,.14,.34,.29,.45,.12,.08,.25,.12,.4,.12,.04,0,.09,0,.13-.01,.18-.03,.34-.14,.45-.29l.37-.54c.22-.32,.14-.76-.18-.98Zm-.31,.64l-.37,.54s-.05,.04-.07,.04c-.02,0-.05,0-.08-.02h0s-.04-.05-.04-.07,0-.05,.02-.08l.37-.54s.05-.04,.07-.04h.02s.04,0,.06,.02c.05,.03,.06,.1,.03,.14Z"/>
  <path d="M9,18.1c-.19,.03-.35,.14-.45,.29l-.14,.21c-.22,.32-.14,.76,.18,.98,.12,.08,.25,.12,.39,.12,.04,0,.09,0,.13-.01,.19-.03,.35-.14,.45-.29l.14-.21c.11-.15,.15-.34,.11-.53-.04-.19-.14-.34-.29-.45-.15-.11-.34-.15-.52-.11Zm.21,.75l-.14,.21s-.05,.04-.07,.04c-.02,0-.05,0-.08-.02-.05-.03-.06-.1-.03-.14l.14-.21s.05-.04,.07-.04h.02s.04,0,.06,.02c.03,.02,.04,.05,.04,.07s0,.05-.02,.08Z"/>
  <path d="M8.03,16.38c-.15-.11-.34-.15-.52-.11-.19,.03-.35,.14-.45,.29l-.37,.54c-.11,.15-.15,.34-.11,.53,.04,.18,.14,.34,.29,.45,.12,.08,.25,.12,.39,.12,.04,0,.09,0,.13-.01,.19-.03,.35-.14,.45-.29l.37-.54c.11-.15,.15-.34,.11-.53-.04-.19-.14-.34-.29-.45Zm-.31,.64l-.37,.54s-.05,.04-.07,.04c-.02,0-.05,0-.08-.02h0s-.04-.05-.04-.07,0-.05,.02-.08l.37-.54s.05-.04,.07-.04h.02s.04,0,.06,.02c.03,.02,.04,.05,.04,.07s0,.05-.02,.08Z"/>
</svg>
