<?xml version="1.0" encoding="UTF-8"?>
<svg xmlns="http://www.w3.org/2000/svg" viewBox="0 0 24 24" fill="#000000">
  <path d="M4.11,19c-.15,0-.28-.11-.3-.26-.02-.16,.09-.32,.25-.34l1.74-.25c-.35-1.09-.35-2.23,.03-3.38l-1.68-.61c-.16-.06-.24-.23-.18-.38,.06-.16,.23-.24,.38-.18l1.96,.71c.08,.03,.14,.08,.17,.16,.03,.07,.04,.16,0,.23-.47,1.25-.47,2.43,0,3.59,.03,.09,.03,.18-.02,.26-.05,.08-.13,.13-.22,.15l-2.11,.3s-.03,0-.04,0Z"/>
  <path d="M11,16.95c-.13,0-.26-.09-.29-.23-.04-.16,.06-.32,.22-.36,.25-.06,.47-.11,.67-.16,1.15-.26,1.63-.37,2.79-1.59,.28-.28,.4-.6,.32-.89-.05-.2-.2-.35-.38-.4-.25-.07-.58,.06-.87,.35-.46,.51-1.17,.4-1.93,.29-.85-.13-1.72-.27-2.48,.37l-.47,.47c-.06,.06-.13,.09-.21,.09h-2.15c-.17,0-.3-.13-.3-.3s.13-.3,.3-.3h2.03l.4-.4c.98-.83,2.08-.66,2.97-.52,.71,.11,1.15,.16,1.4-.11,.46-.46,.99-.65,1.46-.52,.4,.11,.7,.41,.81,.82,.13,.5-.04,1.03-.47,1.46-1.29,1.34-1.93,1.49-3.09,1.75-.2,.05-.42,.09-.66,.15-.02,0-.05,0-.07,0Z"/>
  <path d="M6.22,18.7c-.16,0-.29-.12-.3-.28,0-.17,.12-.31,.28-.31l7.7-.39h0s2.46-.63,3.22-1.72l.56-.72,1.78-2.35c.1-.14,.15-.3,.12-.47s-.11-.32-.25-.42c-.14-.1-.3-.14-.47-.12-.17,.02-.32,.11-.42,.25l-2.02,2.68c-.18,.23-.42,.37-.72,.42h-1.12c-.17,0-.3-.13-.3-.3s.13-.3,.3-.3h1.07c.1-.02,.2-.08,.29-.19l2.02-2.67c.2-.26,.49-.43,.81-.48,.32-.05,.65,.04,.92,.24,.26,.2,.43,.49,.48,.81,.04,.33-.04,.65-.24,.92l-2.34,3.07c-.88,1.26-3.5,1.93-3.61,1.96l-7.76,.4h-.02Z"/>
  <path d="M13.96,9.75c-.05,0-.11-.01-.16-.04-1.01-.61-2.39-.62-3.4,0-.14,.08-.33,.04-.41-.1-.09-.14-.04-.33,.1-.41,1.19-.72,2.84-.71,4.02,0,.14,.09,.19,.27,.1,.41-.06,.09-.16,.14-.26,.14Z"/>
  <path d="M12.1,9.24c-.95,0-1.73-.77-1.73-1.73v-.79c0-.95,.77-1.73,1.73-1.73s1.73,.77,1.73,1.73v.79c0,.95-.77,1.73-1.73,1.73Zm0-3.65c-.62,0-1.13,.51-1.13,1.13v.79c0,.62,.51,1.13,1.13,1.13s1.13-.51,1.13-1.13v-.79c0-.62-.51-1.13-1.13-1.13Z"/>
  <path d="M13.62,12.38c-.17,0-.3-.13-.3-.3v-.57s.01-.09,.03-.14c.67-1.31,1.95-2.1,3.44-2.1,.93,0,1.91,.38,2.62,1.02,.12,.11,.13,.3,.02,.42-.11,.12-.3,.13-.42,.02-.6-.54-1.43-.86-2.21-.86-1.23,0-2.3,.64-2.87,1.71v.5c0,.17-.13,.3-.3,.3Z"/>
  <path d="M16.78,9.87c-.95,0-1.73-.77-1.73-1.73v-.79c0-.95,.77-1.73,1.73-1.73s1.73,.77,1.73,1.73v.79c0,.95-.77,1.73-1.73,1.73Zm0-3.65c-.62,0-1.13,.51-1.13,1.13v.79c0,.62,.51,1.13,1.13,1.13s1.13-.51,1.13-1.13v-.79c0-.62-.51-1.13-1.13-1.13Z"/>
  <path d="M4.19,13.21h0c-.17,0-.3-.13-.3-.3v-1.4s.01-.09,.04-.14c.67-1.31,1.95-2.1,3.44-2.1s2.77,.78,3.44,2.1c.02,.04,.03,.09,.03,.13v1.04c0,.17-.13,.3-.3,.3h0c-.17,0-.3-.13-.3-.3v-.97c-.57-1.07-1.64-1.71-2.87-1.71s-2.3,.64-2.87,1.71v1.33c0,.17-.14,.3-.3,.3Z"/>
  <path d="M7.36,9.87c-.95,0-1.73-.77-1.73-1.73v-.79c0-.95,.77-1.73,1.73-1.73s1.73,.77,1.73,1.73v.79c0,.95-.77,1.73-1.73,1.73Zm0-3.65c-.62,0-1.13,.51-1.13,1.13v.79c0,.62,.51,1.13,1.13,1.13s1.13-.51,1.13-1.13v-.79c0-.62-.51-1.13-1.13-1.13Z"/>
</svg>
