<svg viewBox="0 0 24 24" fill="#000000" xmlns="http://www.w3.org/2000/svg">
  <path d="M7.32,15.81s-.1-.01-.14-.04c-.15-.08-.2-.26-.12-.41,2.78-5.21,7.65-8.11,12.72-7.57,.16,.02,.28,.17,.27,.33-.02,.17-.17,.29-.33,.27-4.82-.51-9.47,2.27-12.13,7.26-.05,.1-.16,.16-.27,.16Z"/>
  <path d="M8.89,16.06c-.05,0-.1-.01-.15-.04-.14-.08-.19-.27-.11-.41,.17-.28,.34-.56,.52-.83,2.57-3.8,6.51-5.81,10.55-5.36,.16,.02,.28,.17,.27,.33-.02,.17-.17,.29-.33,.27-3.81-.41-7.54,1.49-9.98,5.1-.17,.26-.34,.52-.5,.79-.06,.1-.16,.15-.26,.15Z"/>
  <path d="M10.42,16.3c-.06,0-.11-.02-.17-.05-.14-.09-.17-.28-.08-.42,2.29-3.43,5.84-5.22,9.48-4.79,.16,.02,.28,.17,.26,.33-.02,.17-.17,.29-.33,.26-3.42-.4-6.75,1.29-8.91,4.53-.06,.09-.15,.13-.25,.13Z"/>
  <path d="M12.26,16.52c-.07,0-.13-.02-.19-.07-.13-.11-.15-.29-.04-.42,1.97-2.4,4.75-3.55,7.62-3.16,.16,.02,.28,.17,.26,.34-.02,.16-.18,.28-.34,.26-2.66-.35-5.24,.72-7.08,2.95-.06,.07-.15,.11-.23,.11Z"/>
  <path d="M12.21,10.23c-.06,0-.12-.02-.17-.06-2.36-1.69-5.04-2.37-7.73-1.98-.17,.02-.32-.09-.34-.25-.02-.16,.09-.32,.25-.34,2.85-.41,5.68,.3,8.17,2.09,.13,.1,.17,.28,.07,.42-.06,.08-.15,.12-.24,.12Z"/>
  <path d="M10.85,11.03c-.05,0-.1-.01-.15-.04-1.97-1.16-4.15-1.59-6.31-1.26-.16,.02-.32-.09-.34-.25-.03-.16,.09-.32,.25-.34,2.3-.35,4.62,.1,6.71,1.33,.14,.08,.19,.27,.11,.41-.06,.09-.16,.15-.26,.15Z"/>
  <path d="M9.68,12.1s-.09,0-.13-.03c-1.66-.8-3.47-1.05-5.23-.73-.16,.03-.32-.08-.35-.24-.03-.16,.08-.32,.24-.35,1.89-.35,3.83-.09,5.6,.78,.15,.07,.21,.25,.14,.4-.05,.11-.16,.17-.27,.17Z"/>
  <path d="M8.69,13.42s-.07,0-.1-.02c-1.35-.48-2.81-.57-4.22-.27-.16,.04-.32-.07-.36-.23-.03-.16,.07-.32,.23-.36,1.52-.32,3.09-.22,4.54,.29,.16,.06,.24,.23,.18,.38-.04,.12-.16,.2-.28,.2Z"/>
  <path d="M4.36,14.85c-.13,0-.25-.09-.29-.22-.04-.16,.05-.33,.21-.37,1.15-.32,2.32-.34,3.46-.06,.16,.04,.26,.2,.22,.36-.04,.16-.2,.26-.36,.22-1.04-.25-2.1-.23-3.16,.06-.03,0-.05,.01-.08,.01Z"/>
</svg>
