<svg xmlns="http://www.w3.org/2000/svg" viewBox="0 0 24 24" fill="#000000">
  <path d="M14.62,20.01h-5.2c-.41,0-.74-.33-.74-.74V6.01c0-.41,.33-.73,.74-.73h5.2c.41,0,.74,.33,.74,.73v13.26c0,.41-.33,.74-.74,.74ZM9.42,5.88c-.07,0-.14,.06-.14,.13v13.26c0,.07,.06,.14,.14,.14h5.2c.07,0,.14-.06,.14-.14V6.01c0-.07-.06-.13-.14-.13h-5.2Z"/>
  <g>
    <path d="M15.95,9.59c-.11,0-.22-.06-.27-.17-.07-.15-.01-.33,.14-.4,1.27-.62,1.52-1.5,1.56-1.93h-1.4c-.17,0-.3-.13-.3-.3s.13-.3,.3-.3h1.7c.15,0,.28,.11,.3,.26,.01,.07,.22,1.77-1.89,2.81-.04,.02-.09,.03-.13,.03Z"/>
    <path d="M15.95,14.12c-.11,0-.22-.06-.27-.17-.07-.15-.01-.33,.14-.4,1.27-.62,1.52-1.5,1.56-1.93h-1.4c-.17,0-.3-.13-.3-.3s.13-.3,.3-.3h1.7c.15,0,.28,.11,.3,.26,.01,.07,.22,1.77-1.89,2.81-.04,.02-.09,.03-.13,.03Z"/>
    <path d="M15.95,18.66c-.11,0-.22-.06-.27-.17-.07-.15-.01-.33,.14-.4,1.27-.62,1.52-1.5,1.56-1.93h-1.4c-.17,0-.3-.13-.3-.3s.13-.3,.3-.3h1.7c.15,0,.28,.11,.3,.26,.01,.07,.22,1.77-1.89,2.81-.04,.02-.09,.03-.13,.03Z"/>
  </g>
  <g>
    <path d="M8.05,9.59s-.09,0-.13-.03c-2.11-1.04-1.9-2.74-1.89-2.81,.02-.15,.15-.26,.3-.26h1.7c.17,0,.3,.13,.3,.3s-.13,.3-.3,.3h-1.4c.04,.43,.29,1.31,1.56,1.93,.15,.07,.21,.25,.14,.4-.05,.11-.16,.17-.27,.17Z"/>
    <path d="M8.05,14.12s-.09,0-.13-.03c-2.11-1.04-1.9-2.74-1.89-2.81,.02-.15,.15-.26,.3-.26h1.7c.17,0,.3,.13,.3,.3s-.13,.3-.3,.3h-1.4c.04,.43,.29,1.3,1.56,1.93,.15,.07,.21,.25,.14,.4-.05,.11-.16,.17-.27,.17Z"/>
    <path d="M8.05,18.66s-.09,0-.13-.03c-2.11-1.04-1.9-2.74-1.89-2.81,.02-.15,.15-.26,.3-.26h1.7c.17,0,.3,.13,.3,.3s-.13,.3-.3,.3h-1.4c.04,.43,.29,1.31,1.56,1.93,.15,.07,.21,.25,.14,.4-.05,.11-.16,.17-.27,.17Z"/>
  </g>
  <path d="M13.22,5.88c-.17,0-.3-.13-.3-.3v-.34c0-.36-.29-.65-.65-.65h-.5c-.36,0-.65,.29-.65,.65v.34c0,.17-.13,.3-.3,.3s-.3-.13-.3-.3v-.34c0-.69,.56-1.25,1.25-1.25h.5c.69,0,1.25,.56,1.25,1.25v.34c0,.17-.13,.3-.3,.3Z"/>
  <path d="M12.02,10.18c-.98,0-1.78-.8-1.78-1.78s.8-1.78,1.78-1.78,1.78,.8,1.78,1.78-.8,1.78-1.78,1.78Zm0-2.97c-.65,0-1.18,.53-1.18,1.18s.53,1.18,1.18,1.18,1.18-.53,1.18-1.18-.53-1.18-1.18-1.18Z"/>
  <path d="M12.02,14.43c-.98,0-1.78-.8-1.78-1.78s.8-1.78,1.78-1.78,1.78,.8,1.78,1.78-.8,1.78-1.78,1.78Zm0-2.96c-.65,0-1.18,.53-1.18,1.18s.53,1.18,1.18,1.18,1.18-.53,1.18-1.18-.53-1.18-1.18-1.18Z"/>
  <path d="M12.02,18.69c-.98,0-1.78-.8-1.78-1.78s.8-1.78,1.78-1.78,1.78,.8,1.78,1.78-.8,1.78-1.78,1.78Zm0-2.96c-.65,0-1.18,.53-1.18,1.18s.53,1.18,1.18,1.18,1.18-.53,1.18-1.18-.53-1.18-1.18-1.18Z"/>
</svg>
