<svg viewBox="0 0 24 24" fill="#000000" xmlns="http://www.w3.org/2000/svg">
  <path d="M12,17.19c-2.92,0-5.29-2.37-5.29-5.29s2.37-5.29,5.29-5.29,5.29,2.37,5.29,5.29-2.37,5.29-5.29,5.29Zm0-9.99c-2.59,0-4.69,2.11-4.69,4.69s2.11,4.69,4.69,4.69,4.69-2.11,4.69-4.69-2.11-4.69-4.69-4.69Z"/>
  <path d="M9.87,10.08c-.29,0-.53-.24-.53-.53s.24-.53,.53-.53,.53,.24,.53,.53-.24,.53-.53,.53Zm0-.6s-.07,.03-.07,.07c0,.07,.14,.08,.14,0,0-.04-.03-.07-.07-.07Z"/>
  <path d="M13.64,14.69c-.29,0-.53-.24-.53-.53s.24-.53,.53-.53,.53,.24,.53,.53-.24,.53-.53,.53Zm0-.6s-.07,.03-.07,.07c0,.08,.14,.08,.14,0,0-.04-.03-.07-.07-.07Z"/>
  <path d="M13.62,11.86c-.65,0-1.18-.53-1.18-1.18s.53-1.18,1.18-1.18,1.18,.53,1.18,1.18-.53,1.18-1.18,1.18Zm0-1.76c-.32,0-.58,.26-.58,.58s.26,.58,.58,.58,.58-.26,.58-.58-.26-.58-.58-.58Z"/>
  <path d="M9.71,14.24c-.65,0-1.18-.53-1.18-1.18s.53-1.18,1.18-1.18,1.18,.53,1.18,1.18-.53,1.18-1.18,1.18Zm0-1.76c-.32,0-.58,.26-.58,.58s.26,.58,.58,.58,.58-.26,.58-.58-.26-.58-.58-.58Z"/>
  <path d="M12,7.2c-.17,0-.3-.13-.3-.3v-2.28c0-.17,.13-.3,.3-.3s.3,.13,.3,.3v2.28c0,.17-.13,.3-.3,.3Z"/>
  <path d="M12.89,4.62h-1.78c-.17,0-.3-.13-.3-.3s.13-.3,.3-.3h1.78c.17,0,.3,.13,.3,.3s-.13,.3-.3,.3Z"/>
  <path d="M12,19.67c-.17,0-.3-.13-.3-.3v-2.28c0-.17,.13-.3,.3-.3s.3,.13,.3,.3v2.28c0,.17-.13,.3-.3,.3Z"/>
  <path d="M12.89,19.98h-1.78c-.17,0-.3-.13-.3-.3s.13-.3,.3-.3h1.78c.17,0,.3,.13,.3,.3s-.13,.3-.3,.3Z"/>
  <path d="M19.38,12.19h-2.28c-.17,0-.3-.13-.3-.3s.13-.3,.3-.3h2.28c.17,0,.3,.13,.3,.3s-.13,.3-.3,.3Z"/>
  <path d="M19.68,13.08c-.17,0-.3-.13-.3-.3v-1.78c0-.17,.13-.3,.3-.3s.3,.13,.3,.3v1.78c0,.17-.13,.3-.3,.3Z"/>
  <path d="M6.9,12.19h-2.28c-.17,0-.3-.13-.3-.3s.13-.3,.3-.3h2.28c.17,0,.3,.13,.3,.3s-.13,.3-.3,.3Z"/>
  <path d="M4.32,13.08c-.17,0-.3-.13-.3-.3v-1.78c0-.17,.13-.3,.3-.3s.3,.13,.3,.3v1.78c0,.17-.13,.3-.3,.3Z"/>
  <path d="M15.6,8.59c-.08,0-.15-.03-.21-.09-.12-.12-.12-.31,0-.42l1.61-1.61c.12-.12,.31-.12,.42,0s.12,.31,0,.42l-1.61,1.61c-.06,.06-.14,.09-.21,.09Z"/>
  <path d="M18.06,7.39c-.08,0-.15-.03-.21-.09l-1.26-1.26c-.12-.12-.12-.31,0-.42s.31-.12,.42,0l1.26,1.26c.12,.12,.12,.31,0,.42-.06,.06-.14,.09-.21,.09Z"/>
  <path d="M6.79,17.41c-.08,0-.15-.03-.21-.09-.12-.12-.12-.31,0-.42l1.61-1.61c.12-.12,.31-.12,.42,0s.12,.31,0,.42l-1.61,1.61c-.06,.06-.14,.09-.21,.09Z"/>
  <path d="M7.2,18.25c-.08,0-.15-.03-.21-.09l-1.26-1.26c-.12-.12-.12-.31,0-.42s.31-.12,.42,0l1.26,1.26c.12,.12,.12,.31,0,.42-.06,.06-.14,.09-.21,.09Z"/>
  <path d="M17.21,17.41c-.08,0-.15-.03-.21-.09l-1.61-1.61c-.12-.12-.12-.31,0-.42s.31-.12,.42,0l1.61,1.61c.12,.12,.12,.31,0,.42-.06,.06-.14,.09-.21,.09Z"/>
  <path d="M16.8,18.25c-.08,0-.15-.03-.21-.09-.12-.12-.12-.31,0-.42l1.26-1.26c.12-.12,.31-.12,.42,0s.12,.31,0,.42l-1.26,1.26c-.06,.06-.14,.09-.21,.09Z"/>
  <path d="M8.4,8.59c-.08,0-.15-.03-.21-.09l-1.61-1.61c-.12-.12-.12-.31,0-.42s.31-.12,.42,0l1.61,1.61c.12,.12,.12,.31,0,.42-.06,.06-.14,.09-.21,.09Z"/>
  <path d="M5.94,7.39c-.08,0-.15-.03-.21-.09-.12-.12-.12-.31,0-.42l1.26-1.26c.12-.12,.31-.12,.42,0s.12,.31,0,.42l-1.26,1.26c-.06,.06-.14,.09-.21,.09Z"/>
</svg>
