<?xml version="1.0" encoding="UTF-8"?>
<svg xmlns="http://www.w3.org/2000/svg" viewBox="0 0 24 24" fill="#000000">
  <path d="M19.66,9.64h-3.53c-.74,0-1.4-.5-2.01-1.04l-.72-.65c-.81-.73-2.04-.73-2.84,0l-.72,.65c-.61,.54-1.27,1.04-2.01,1.04h-3.52c-.17,0-.3-.13-.3-.3v-.83c0-.17,.13-.3,.3-.3h1.54c1.41,0,2.69-.79,3.36-2.07l.34-.64c.35-.67,.94-1.16,1.65-1.38,.7-.21,1.45-.14,2.09,.22,.49,.27,.88,.67,1.14,1.16l.33,.64c.66,1.28,1.95,2.07,3.36,2.07h1.54c.17,0,.3,.13,.3,.3v.83c0,.17-.13,.3-.3,.3Zm-7.68-2.83c.65,0,1.3,.23,1.82,.7l.72,.65c.49,.44,1.07,.89,1.61,.89h3.23v-.23h-1.24c-1.63,0-3.12-.92-3.89-2.39l-.33-.64c-.2-.39-.51-.71-.89-.92-.5-.28-1.08-.34-1.63-.17-.56,.17-1.02,.55-1.3,1.08l-.33,.64c-.77,1.47-2.25,2.39-3.89,2.39h-1.24v.23h3.22c.54,0,1.11-.45,1.61-.89l.72-.65c.52-.46,1.17-.7,1.82-.7Z"/>
  <path d="M6.91,16.06s-.05,0-.08,0c-1.41-.04-2.59-1.08-2.83-2.5-.01-.09,0-.18,.07-.24,.06-.07,.14-.11,.23-.11h.78l1.41-3.97c.04-.12,.16-.2,.28-.2h.26c.13,0,.24,.08,.28,.2l1.42,3.97h.78c.09,0,.17,.04,.23,.11,.06,.07,.08,.16,.07,.24-.24,1.45-1.46,2.51-2.91,2.51h0Zm0-.61s.04,0,.07,0c1-.03,1.85-.71,2.16-1.66H4.68c.31,.98,1.2,1.65,2.23,1.65h0Zm-1.16-2.36h2.31l-1.16-3.24-1.15,3.24Z"/>
  <path d="M17.04,16.06s-.05,0-.08,0c-1.41-.04-2.59-1.08-2.83-2.5-.01-.09,0-.18,.07-.24,.06-.07,.14-.11,.23-.11h.78l1.41-3.97c.04-.12,.16-.2,.28-.2h.26c.13,0,.24,.08,.28,.2l1.42,3.97h.78c.09,0,.17,.04,.23,.11,.06,.07,.08,.16,.07,.24-.24,1.45-1.46,2.51-2.91,2.51h0Zm0-.61s.04,0,.07,0c1-.03,1.85-.71,2.16-1.66h-4.46c.31,.98,1.2,1.65,2.23,1.65h0Zm-1.16-2.36h2.31l-1.16-3.24-1.15,3.24Z"/>
  <path d="M10.6,18.87c-.06,0-.12-.02-.17-.05-.14-.09-.17-.28-.07-.42l.58-.82V7.5c0-.17,.13-.3,.3-.3s.3,.13,.3,.3v10.18c0,.06-.02,.12-.05,.17l-.63,.9c-.06,.08-.15,.13-.25,.13Z"/>
  <path d="M13.36,18.87c-.09,0-.19-.04-.25-.13l-.63-.9c-.04-.05-.05-.11-.05-.17V7.5c0-.17,.13-.3,.3-.3s.3,.13,.3,.3v10.08l.58,.82c.1,.14,.06,.32-.07,.42-.05,.04-.11,.05-.17,.05Z"/>
  <path d="M14.97,19.16h-5.98c-.17,0-.3-.13-.3-.3s.13-.3,.3-.3h5.98c.17,0,.3,.13,.3,.3s-.13,.3-.3,.3Z"/>
</svg>
