<svg viewBox="0 0 24 24" fill="#000000" xmlns="http://www.w3.org/2000/svg">
  <path d="M15.77,17.35c-.08,0-.15-.03-.21-.09L6.49,8.19c-.12-.12-.12-.31,0-.42l1.28-1.28c.12-.12,.31-.12,.42,0l9.07,9.07c.12,.12,.12,.31,0,.42l-1.28,1.28c-.06,.06-.13,.09-.21,.09ZM7.12,7.98l8.65,8.65,.86-.86L7.98,7.12l-.86,.86Z"/>
  <path d="M6.25,8.73h0c-.08,0-.16-.03-.21-.09l-1.92-1.92c-.12-.12-.12-.31,0-.42l2.18-2.18c.12-.12,.31-.12,.42,0l1.92,1.92c.06,.06,.09,.13,.09,.21s-.03,.16-.09,.21l-2.18,2.18c-.06,.06-.13,.09-.21,.09Zm-1.49-2.22l1.49,1.5,1.76-1.76-1.5-1.49-1.76,1.76Z"/>
  <path d="M4.61,8.45c-.08,0-.15-.03-.21-.09-.12-.12-.12-.31,0-.42l3.54-3.54c.12-.12,.31-.12,.42,0s.12,.31,0,.42l-3.54,3.54c-.06,.06-.13,.09-.21,.09Z"/>
  <path d="M15.26,17.86c-.08,0-.15-.03-.21-.09-.12-.12-.12-.31,0-.42l2.31-2.31c.12-.12,.31-.12,.42,0s.12,.31,0,.42l-2.31,2.31c-.06,.06-.13,.09-.21,.09Z"/>
  <path d="M13.57,16.09c-.64,0-1.29-.25-1.78-.74-.98-.98-.98-2.58,0-3.56,.98-.98,2.58-.98,3.56,0,.98,.98,.98,2.58,0,3.56-.49,.49-1.14,.74-1.78,.74Zm0-4.43c-.49,0-.98,.19-1.36,.56-.75,.75-.75,1.96,0,2.71s1.96,.75,2.71,0,.75-1.96,0-2.71c-.37-.37-.87-.56-1.36-.56Z"/>
  <path d="M15.01,19.97c-1.19,0-2.36-.44-3.25-1.33-.61-.61-1.02-1.38-1.21-2.23,0-.02-.01-.04-.02-.06-.1-.5-.34-.95-.72-1.35-.26-.16-.5-.34-.71-.55-.71-.71-1.11-1.66-1.11-2.67s.39-1.96,1.11-2.67,1.66-1.11,2.67-1.11,1.96,.39,2.67,1.11c.17,.17,.33,.38,.48,.61,.39,.4,.89,.68,1.44,.79,.04,0,.09,.03,.13,.06,.81,.2,1.55,.61,2.13,1.19,1.82,1.82,1.76,4.85-.13,6.75-.97,.97-2.24,1.46-3.49,1.46Zm-3.9-3.78s.01,.04,.02,.06c.16,.75,.53,1.44,1.06,1.97,1.59,1.59,4.23,1.53,5.9-.13,1.66-1.66,1.72-4.31,.13-5.9-.52-.52-1.17-.88-1.9-1.04-.03,0-.05-.02-.08-.03,0,0-.02-.01-.04-.02-.64-.14-1.25-.49-1.74-1-.17-.25-.3-.42-.44-.56-1.24-1.24-3.26-1.24-4.5,0-1.24,1.24-1.24,3.26,0,4.5,.18,.18,.39,.34,.63,.48,.02,.01,.05,.03,.07,.05,.46,.48,.76,1.03,.89,1.64Z"/>
</svg>
