<?xml version="1.0" encoding="UTF-8"?>
<svg xmlns="http://www.w3.org/2000/svg" viewBox="0 0 24 24" fill="#000000">
  <path d="M19.64,19.94H4.36c-.17,0-.3-.13-.3-.3s.13-.3,.3-.3h15.28c.17,0,.3,.13,.3,.3s-.13,.3-.3,.3Z"/>
  <path d="M12.19,19.65c-.17,0-.3-.13-.3-.3V4.62H7.78v14.68c0,.17-.13,.3-.3,.3s-.3-.13-.3-.3V4.32c0-.17,.13-.3,.3-.3h4.71c.17,0,.3,.13,.3,.3v15.03c0,.17-.13,.3-.3,.3Z"/>
  <path d="M16.78,19.73c-.17,0-.3-.13-.3-.3V10.64h-4.04c-.17,0-.3-.13-.3-.3s.13-.3,.3-.3h4.33c.17,0,.3,.13,.3,.3v9.09c0,.17-.13,.3-.3,.3Z"/>
  <path d="M16.52,14.34h-4.08c-.17,0-.3-.13-.3-.3s.13-.3,.3-.3h4.08c.17,0,.3,.13,.3,.3s-.13,.3-.3,.3Z"/>
  <path d="M18.48,19.69c-.17,0-.3-.13-.3-.3v-1.18c0-.17,.13-.3,.3-.3s.3,.13,.3,.3v1.18c0,.17-.13,.3-.3,.3Z"/>
  <path d="M8.72,7.1c-.17,0-.3-.13-.3-.3v-1.18c0-.17,.13-.3,.3-.3s.3,.13,.3,.3v1.18c0,.17-.13,.3-.3,.3Z"/>
  <path d="M8.72,9.55c-.17,0-.3-.13-.3-.3v-1.18c0-.17,.13-.3,.3-.3s.3,.13,.3,.3v1.18c0,.17-.13,.3-.3,.3Z"/>
  <path d="M8.72,11.99c-.17,0-.3-.13-.3-.3v-1.18c0-.17,.13-.3,.3-.3s.3,.13,.3,.3v1.18c0,.17-.13,.3-.3,.3Z"/>
  <path d="M8.72,14.43c-.17,0-.3-.13-.3-.3v-1.18c0-.17,.13-.3,.3-.3s.3,.13,.3,.3v1.18c0,.17-.13,.3-.3,.3Z"/>
  <path d="M8.72,16.87c-.17,0-.3-.13-.3-.3v-1.18c0-.17,.13-.3,.3-.3s.3,.13,.3,.3v1.18c0,.17-.13,.3-.3,.3Z"/>
  <path d="M9.85,7.1c-.17,0-.3-.13-.3-.3v-1.18c0-.17,.13-.3,.3-.3s.3,.13,.3,.3v1.18c0,.17-.13,.3-.3,.3Z"/>
  <path d="M9.85,9.55c-.17,0-.3-.13-.3-.3v-1.18c0-.17,.13-.3,.3-.3s.3,.13,.3,.3v1.18c0,.17-.13,.3-.3,.3Z"/>
  <path d="M9.85,11.99c-.17,0-.3-.13-.3-.3v-1.18c0-.17,.13-.3,.3-.3s.3,.13,.3,.3v1.18c0,.17-.13,.3-.3,.3Z"/>
  <path d="M9.85,14.43c-.17,0-.3-.13-.3-.3v-1.18c0-.17,.13-.3,.3-.3s.3,.13,.3,.3v1.18c0,.17-.13,.3-.3,.3Z"/>
  <path d="M9.85,16.87c-.17,0-.3-.13-.3-.3v-1.18c0-.17,.13-.3,.3-.3s.3,.13,.3,.3v1.18c0,.17-.13,.3-.3,.3Z"/>
  <path d="M10.99,7.1c-.17,0-.3-.13-.3-.3v-1.18c0-.17,.13-.3,.3-.3s.3,.13,.3,.3v1.18c0,.17-.13,.3-.3,.3Z"/>
  <path d="M10.99,9.55c-.17,0-.3-.13-.3-.3v-1.18c0-.17,.13-.3,.3-.3s.3,.13,.3,.3v1.18c0,.17-.13,.3-.3,.3Z"/>
  <path d="M10.99,11.99c-.17,0-.3-.13-.3-.3v-1.18c0-.17,.13-.3,.3-.3s.3,.13,.3,.3v1.18c0,.17-.13,.3-.3,.3Z"/>
  <path d="M10.99,14.43c-.17,0-.3-.13-.3-.3v-1.18c0-.17,.13-.3,.3-.3s.3,.13,.3,.3v1.18c0,.17-.13,.3-.3,.3Z"/>
  <path d="M10.99,16.87c-.17,0-.3-.13-.3-.3v-1.18c0-.17,.13-.3,.3-.3s.3,.13,.3,.3v1.18c0,.17-.13,.3-.3,.3Z"/>
  <path d="M18.48,18.51c-.73,0-1.33-.6-1.33-1.33s.6-1.33,1.33-1.33,1.33,.6,1.33,1.33-.6,1.33-1.33,1.33Zm0-2.06c-.4,0-.73,.33-.73,.73s.33,.73,.73,.73,.73-.33,.73-.73-.33-.73-.73-.73Z"/>
  <path d="M5.6,19.69c-.17,0-.3-.13-.3-.3v-1.18c0-.17,.13-.3,.3-.3s.3,.13,.3,.3v1.18c0,.17-.13,.3-.3,.3Z"/>
  <path d="M5.6,18.51c-.73,0-1.33-.6-1.33-1.33s.6-1.33,1.33-1.33,1.33,.6,1.33,1.33-.6,1.33-1.33,1.33Zm0-2.06c-.4,0-.73,.33-.73,.73s.33,.73,.73,.73,.73-.33,.73-.73-.33-.73-.73-.73Z"/>
  <path d="M15.85,19.98h-2.65c-.17,0-.3-.13-.3-.3v-1.83c-.03-.07-.04-.19-.04-.32,0-.91,.74-1.65,1.65-1.65s1.65,.74,1.65,1.65c0,.01,0,.1,0,.11v2.04c0,.17-.14,.3-.3,.3Zm-2.35-.6h2.05v-1.72s0-.08,0-.09v-.04c0-.58-.47-1.05-1.05-1.05s-1.05,.47-1.05,1.05c0,.07,.01,.15,.03,.25v1.6Z"/>
</svg>
