<svg viewBox="0 0 24 24" fill="#000000" xmlns="http://www.w3.org/2000/svg">
  <path d="M11.03,11.02H6.37c-.17,0-.3-.13-.3-.3s.13-.3,.3-.3h4.66c.17,0,.3,.13,.3,.3s-.13,.3-.3,.3Z"/>
  <path d="M12.48,13.57H6.44c-.17,0-.3-.13-.3-.3s.13-.3,.3-.3h6.04c.17,0,.3,.13,.3,.3s-.13,.3-.3,.3Z"/>
  <path d="M5.84,19.95s-.07,0-.11-.02c-.12-.04-.19-.16-.19-.28v-2.89h-.48c-1.05,0-1.9-.88-1.9-1.95v-5.61c0-1.08,.85-1.95,1.9-1.95H14.01c1.05,0,1.9,.88,1.9,1.95v5.61c0,1.08-.85,1.95-1.9,1.95h-5.16l-2.79,3.09c-.06,.06-.14,.1-.22,.1Zm-.78-12.11c-.72,0-1.3,.61-1.3,1.35v5.61c0,.75,.58,1.35,1.3,1.35h.78c.17,0,.3,.13,.3,.3v2.41l2.35-2.61c.06-.06,.14-.1,.22-.1h5.29c.72,0,1.3-.61,1.3-1.35v-5.61c0-.75-.58-1.35-1.3-1.35H5.06Z"/>
  <path d="M17.85,16.85c-.09,0-.17-.04-.23-.1l-2.24-2.61c-.11-.13-.09-.32,.03-.42s.31-.09,.42,.03l1.71,1.99v-2.47c0-.17,.13-.3,.3-.3h.25c.72,0,1.3-.61,1.3-1.35V6.01c0-.75-.58-1.35-1.3-1.35H9.46c-.72,0-1.3,.61-1.3,1.35v1.53c0,.17-.13,.3-.3,.3s-.3-.13-.3-.3v-1.53c0-1.08,.85-1.95,1.9-1.95h8.64c1.05,0,1.9,.88,1.9,1.95v5.61c0,1.06-.83,1.93-1.85,1.95v2.98c0,.13-.08,.24-.2,.28-.03,.01-.07,.02-.1,.02Z"/>
</svg>
