<svg viewBox="0 0 24 24" fill="#000000" xmlns="http://www.w3.org/2000/svg">
  <path d="M19.82,9.79c-.27-.63-.83-1.05-1.5-1.15,.03-.7-.28-1.37-.85-1.8-.58-.44-1.31-.55-1.97-.33-.2-.44-.51-.82-.91-1.11-.46-.33-1-.5-1.56-.5h0c-1.14,0-2.14,.72-2.52,1.77-.36-.14-.73-.23-1.12-.23h0c-.85,0-1.67,.36-2.24,1-.51,.56-.79,1.29-.79,2.04-1.32,.25-2.32,1.42-2.31,2.79,0,1.56,1.27,2.82,2.83,2.82h.86l-.13,.31c-.04,.09-.03,.2,.03,.28,.06,.08,.15,.13,.25,.13h.68l-1.19,2.85c-.06,.14,0,.29,.12,.37,.05,.03,.1,.05,.16,.05,.08,0,.17-.03,.22-.1l3.52-3.94s.05,.03,.08,.03h3.95c.88-.02,1.9-.98,1.89-2.22,0-.11-.02-.22-.04-.33h.79c.52,0,1.02-.21,1.39-.58s.57-.87,.57-1.39c0-.27-.06-.53-.17-.78Zm-11.24,7.48l.68-1.62c.04-.09,.03-.2-.03-.28-.06-.08-.15-.13-.25-.13h-.68l1.14-2.71h1.42l-.96,1.73c-.05,.09-.05,.21,0,.3,.05,.09,.15,.15,.26,.15h.7l-2.29,2.57Zm6.81-2.78h-3.57c.02-.06,.03-.13,0-.2-.05-.11-.16-.18-.27-.18h-.86l.96-1.73c.05-.09,.05-.21,0-.3-.05-.09-.15-.15-.26-.15h-2.13c-.12,0-.23,.07-.28,.18l-1.01,2.4s0,0-.01,0h-1.1c-1.23,0-2.23-1-2.23-2.22,0-1.16,.9-2.14,2.05-2.23,.08,0,.15-.04,.21-.11,.05-.06,.08-.14,.07-.22-.06-.69,.16-1.36,.63-1.87,.46-.51,1.12-.8,1.8-.8h0c.5,0,.99,.16,1.41,.45,.44,.31,.78,.77,.93,1.28,.03,.08,.09,.15,.17,.19,.08,.03,.17,.03,.25,0,.62-.32,1.36-.26,1.92,.17,.57,.43,.82,1.1,.68,1.8-.02,.09,0,.18,.06,.25,.06,.07,.14,.11,.23,.11h0c.67,0,1.24,.37,1.5,.96,.09,.21,.14,.42,.14,.64,0,.89-.71,1.6-1.29,1.6Zm3.61-2.94c-.26,.26-.6,.4-.96,.4h-.97c-.32-.68-.94-1.13-1.69-1.24,.05-.8-.3-1.57-.95-2.06-.66-.5-1.49-.62-2.25-.36-.22-.51-.58-.95-1.04-1.28-.03-.02-.06-.04-.1-.06,.28-.86,1.08-1.45,1.99-1.45h0c.43,0,.85,.13,1.21,.39,.38,.27,.67,.66,.8,1.1,.03,.08,.09,.15,.17,.19,.08,.03,.18,.03,.25,0,.53-.27,1.16-.22,1.65,.14,.49,.37,.7,.94,.58,1.54-.02,.09,0,.18,.06,.25,.06,.07,.14,.11,.23,.11h0c.57,0,1.06,.31,1.28,.82,.08,.18,.12,.36,.12,.54,0,.36-.14,.71-.4,.97Z"/>
</svg>
