<svg viewBox="0 0 24 24" fill="#000000" xmlns="http://www.w3.org/2000/svg">
  <path d="M19.82,9.79c-.27-.63-.83-1.05-1.5-1.15,.03-.7-.28-1.37-.85-1.8-.58-.44-1.31-.55-1.97-.33-.2-.44-.51-.82-.91-1.11-.46-.33-1-.5-1.56-.5h0c-1.14,0-2.14,.72-2.52,1.77-.36-.14-.73-.23-1.12-.23h0c-.85,0-1.67,.36-2.24,1-.51,.56-.79,1.29-.79,2.04-1.32,.25-2.32,1.42-2.31,2.79,0,.76,.3,1.47,.83,2,.53,.53,1.24,.83,2,.83h.86l-.13,.31c-.04,.09-.03,.2,.03,.28s.15,.13,.25,.13h.68l-1.19,2.85c-.06,.14,0,.29,.12,.37,.05,.03,.1,.05,.16,.05,.08,0,.17-.03,.22-.1l3.52-3.94s.05,.03,.08,.03h3.95c.88-.02,1.9-.98,1.89-2.22,0-.11-.02-.22-.04-.33h.79c.52,0,1.02-.21,1.39-.58s.57-.87,.57-1.39c0-.27-.06-.53-.17-.78Zm-8.29-2.39c-.05-.05-.1-.1-.16-.15,.06,.05,.1,.1,.16,.15Zm.57,.8c-.1-.2-.21-.39-.35-.57,.14,.17,.25,.36,.35,.57Zm-3.53,9.07l.68-1.62c.04-.09,.03-.2-.03-.28-.06-.08-.15-.13-.25-.13h-.68l1.14-2.71h1.42l-.96,1.73c-.05,.09-.05,.21,0,.3,.05,.09,.15,.15,.26,.15h.7l-2.29,2.57Zm6.81-2.78h-3.57c.02-.06,.03-.13,0-.2-.05-.11-.16-.18-.27-.18h-.86l.96-1.74c.05-.09,.05-.21,0-.3-.05-.09-.15-.15-.26-.15h-2.13c-.12,0-.23,.07-.28,.18l-1.01,2.4s0,0-.01,0h-1.1c-.6,0-1.15-.23-1.58-.65s-.66-.98-.66-1.58c0-1.16,.9-2.14,2.05-2.23,.08,0,.15-.04,.21-.11,.05-.06,.08-.14,.07-.22-.06-.69,.16-1.36,.63-1.87,.46-.51,1.12-.8,1.8-.8h0c.5,0,.99,.16,1.4,.45,.45,.31,.78,.77,.93,1.28,.03,.08,.09,.15,.17,.19,.08,.03,.17,.03,.25,0,.62-.32,1.36-.26,1.92,.17,.57,.43,.82,1.1,.68,1.8-.02,.09,0,.18,.06,.25,.06,.07,.14,.11,.23,.11h0c.66-.01,1.25,.37,1.51,.96,.09,.21,.14,.42,.14,.64,0,.89-.71,1.6-1.29,1.6Z"/>
</svg>
