<?xml version="1.0" encoding="UTF-8"?>
<svg xmlns="http://www.w3.org/2000/svg" viewBox="0 0 24 24" fill="#000000">
  <path d="M5.51,11.9s-.05,0-.07,0c-.16-.04-.26-.2-.22-.36,.28-1.1,.87-2.27,1.55-3.05,.11-.13,.3-.14,.42-.03,.12,.11,.14,.3,.03,.42-.61,.7-1.17,1.8-1.42,2.81-.03,.14-.16,.23-.29,.23Z"/>
  <path d="M18.27,11.78c-.13,0-.25-.09-.29-.22-.25-.94-.8-1.99-1.41-2.69-.11-.12-.1-.31,.03-.42,.12-.11,.31-.1,.42,.03,.67,.77,1.26,1.89,1.54,2.93,.04,.16-.05,.32-.21,.37-.03,0-.05,.01-.08,.01Z"/>
  <path d="M11.89,19.92c-.23,0-.57-.03-.79-.05-.17-.02-.29-.16-.27-.33,.02-.16,.17-.28,.33-.27,.21,.02,.52,.05,.73,.05,.28,0,.62-.02,.84-.05,.18-.02,.31,.1,.33,.26,.02,.16-.1,.31-.26,.33-.25,.03-.61,.05-.92,.05Z"/>
  <path d="M11.9,8.85c-1.31,0-2.38-1.07-2.38-2.38s1.07-2.38,2.38-2.38,2.38,1.07,2.38,2.38-1.07,2.38-2.38,2.38Zm0-4.16c-.98,0-1.78,.8-1.78,1.78s.8,1.78,1.78,1.78,1.78-.8,1.78-1.78-.8-1.78-1.78-1.78Z"/>
  <path d="M9.53,10.57s-.02,0-.04,0c-.17-.02-.28-.17-.26-.33l.03-.21c.08-.7,.17-1.48,.72-1.83,.33-.21,.75-.23,1.3-.05,.16,.05,.24,.22,.19,.38s-.22,.25-.38,.19c-.36-.12-.62-.12-.79-.01-.31,.2-.38,.84-.45,1.4l-.03,.22c-.02,.15-.15,.26-.3,.26Z"/>
  <path d="M8.21,10.75c-.14,0-.26-.1-.29-.23-.59-2.67,.17-4.65,2.11-5.43,.16-.06,.33,.01,.39,.17,.06,.15-.01,.33-.17,.39-1.66,.67-2.28,2.35-1.75,4.74,.04,.16-.07,.32-.23,.36-.02,0-.04,0-.07,0Z"/>
  <path d="M15.22,12.01s-.05,0-.07,0c-.99-.25-1.11-1.28-1.21-2.1-.06-.52-.12-1.06-.38-1.23-.16-.11-.44-.09-.83,.03-.16,.06-.33-.03-.38-.19-.05-.16,.04-.33,.19-.38,.58-.19,1.01-.18,1.34,.03,.5,.32,.58,1,.66,1.67,.08,.72,.17,1.24,.5,1.48,.69-2.11,.93-4.69-1.47-5.66-.15-.06-.23-.24-.17-.39,.06-.15,.23-.23,.39-.17,1.64,.66,3.26,2.36,1.71,6.72-.04,.12-.16,.2-.28,.2Z"/>
  <path d="M17.62,18.99c-.38,0-.76-.09-1.12-.28-1.16-.62-1.6-2.06-.98-3.22,.3-.56,.8-.97,1.41-1.16,.61-.19,1.25-.12,1.81,.18,1.16,.62,1.6,2.06,.98,3.22-.43,.8-1.25,1.26-2.11,1.26Zm0-4.16c-.17,0-.35,.03-.52,.08-.46,.14-.83,.45-1.05,.87-.46,.87-.13,1.95,.74,2.41,.87,.46,1.95,.13,2.41-.74,.46-.87,.13-1.95-.74-2.41-.26-.14-.55-.21-.84-.21Z"/>
  <path d="M16.24,15.35c-.08,0-.16-.03-.22-.09-.12-.12-.11-.31,0-.42,.27-.26,.4-.5,.38-.7-.03-.39-.58-.78-1.07-1.11l.32-.51-.17,.25,.19-.23c.6,.41,1.28,.88,1.33,1.56,.03,.39-.16,.79-.56,1.18-.06,.06-.13,.08-.21,.08Z"/>
  <path d="M19.42,15.86h-.03c-.17-.02-.28-.17-.27-.33,.17-1.61-.84-2.89-2.84-3.61-.16-.06-.24-.23-.18-.38,.05-.16,.23-.24,.38-.18,2.26,.8,3.44,2.35,3.24,4.23-.02,.15-.15,.27-.3,.27Z"/>
  <path d="M15.64,19.82c-1.2,0-2.68-.65-4.42-2.56-.1-.11-.1-.29,0-.4,.69-.76,1.65-.38,2.42-.08,.49,.19,.99,.39,1.27,.24,.17-.09,.29-.35,.36-.75,.03-.16,.18-.27,.35-.24,.16,.03,.27,.18,.24,.35-.11,.6-.32,.98-.66,1.17-.52,.29-1.16,.04-1.78-.21-.67-.26-1.17-.43-1.54-.25,1.54,1.61,3.71,3.03,5.69,1.36,.13-.11,.32-.09,.42,.04,.11,.13,.09,.32-.04,.42-.6,.5-1.37,.9-2.32,.9Z"/>
  <path d="M6.38,18.99c-.85,0-1.68-.46-2.11-1.26-.62-1.16-.18-2.6,.98-3.22,.56-.3,1.21-.36,1.81-.18,.61,.19,1.11,.6,1.41,1.16,.62,1.16,.18,2.6-.98,3.22-.36,.19-.74,.28-1.12,.28Zm0-4.16c-.29,0-.57,.07-.84,.21-.87,.46-1.2,1.54-.74,2.41,.46,.87,1.54,1.2,2.41,.74,.87-.46,1.2-1.54,.74-2.41-.22-.42-.6-.73-1.05-.87-.17-.05-.35-.08-.52-.08Z"/>
  <path d="M4.58,15.86c-.15,0-.28-.11-.3-.27-.19-1.75,.55-3.99,5.13-4.67,.15-.02,.3,.07,.33,.22,.25,.99-.6,1.58-1.29,2.05-.43,.3-.88,.61-.91,.92-.02,.19,.12,.43,.42,.72,.12,.11,.12,.3,0,.42-.11,.12-.31,.12-.42,0-.44-.42-.63-.81-.6-1.2,.05-.59,.62-.98,1.16-1.36,.59-.41,1.01-.73,1.07-1.14-2.19,.38-4.58,1.38-4.31,3.96,.02,.16-.1,.31-.27,.33h-.03Z"/>
  <path d="M9.39,17.65c-.21,0-.4-.04-.59-.14-.34-.19-.56-.56-.66-1.13-.03-.16,.08-.32,.24-.35,.17-.03,.32,.08,.35,.24,.07,.37,.19,.61,.36,.71,.27,.16,.73,.01,1.19-.16,.15-.06,.33,.02,.39,.17,.06,.15-.02,.33-.17,.39-.35,.14-.74,.27-1.11,.27Z"/>
  <path d="M8.36,19.81c-.97,0-1.74-.42-2.31-.9-.13-.11-.14-.3-.04-.42,.11-.13,.3-.14,.42-.04,1.32,1.1,2.85,.99,4.55-.32,.13-.1,.32-.08,.42,.05,.1,.13,.08,.32-.05,.42-1.14,.88-2.14,1.2-2.99,1.2Z"/>
</svg>
