<svg xmlns="http://www.w3.org/2000/svg" viewBox="0 0 24 24" fill="#000000">
  <path d="M7.8,15.92c-.14,0-.28-.03-.41-.08-.63-.27-.93-1.07-.97-1.17h0s-.64-1.5-1.76-3.92c-1.07-2.31-.08-4.41,1.1-5.5,2.43-1.95,4.55-.84,4.64-.79,.04,.03,3,1.85,3.97,2.47,.98,.64,1.19,1.33,.66,2.18-.5,.63-1.31,.38-1.67,.16l-1.63-.9c-1.31,.54-2.39,.64-3.19,.31-.72-.3-.95-.85-.96-.88-.06-.15,.01-.33,.17-.39,.15-.06,.33,.01,.39,.16,.03,.06,.65,1.4,3.5,.18,.09-.04,.18-.03,.26,.01l1.77,.97s.61,.36,.88,.02c.24-.4,.38-.77-.5-1.34-.96-.62-3.91-2.44-3.94-2.46-.06-.03-1.85-.95-3.95,.72-.36,.33-2.16,2.19-.95,4.79,1.13,2.44,1.77,3.94,1.78,3.96,.07,.2,.31,.69,.64,.83,.12,.05,.25,.05,.39-.02,.23-.08,.36-.18,.42-.32,.08-.19,.04-.48-.11-.83-.45-1.01-1.38-3.15-1.38-3.15l.55-.24s.92,2.14,1.37,3.14c.23,.52,.27,.96,.11,1.32-.13,.29-.39,.51-.75,.63-.14,.06-.28,.09-.43,.09Z"/>
  <path d="M13.94,12.82c-.11,0-.22-.06-.27-.17l-2.03-4.22c-.07-.15,0-.33,.14-.4,.15-.07,.33,0,.4,.14l2.03,4.22c.07,.15,0,.33-.14,.4-.04,.02-.09,.03-.13,.03Z"/>
  <path d="M11.75,12.43c-.12,0-.22-.07-.27-.18l-.74-1.69c-.07-.15,0-.33,.15-.4,.15-.07,.33,0,.4,.15l.74,1.69c.07,.15,0,.33-.15,.4-.04,.02-.08,.03-.12,.03Z"/>
  <path d="M10.25,13.42c-.11,0-.22-.07-.27-.18l-.57-1.26c-.07-.15,0-.33,.15-.4,.15-.07,.33,0,.4,.15l.57,1.26c.07,.15,0,.33-.15,.4-.04,.02-.08,.03-.12,.03Z"/>
  <path d="M10.13,16.51c-.27,0-.66-.11-1.02-.6-.41-.82-1.7-3.93-1.75-4.06-.06-.15,0-.33,.16-.39,.15-.06,.33,0,.39,.16,.01,.03,1.33,3.22,1.71,3.97,.31,.41,.6,.3,.63,.29,.15-.06,.33,0,.39,.15,.07,.15,.01,.32-.13,.39-.01,0-.16,.08-.39,.08Z"/>
  <path d="M16.17,19.9c-.69,0-1.07-.05-2.26-.54-1.16-.47-2.96-1.16-2.96-1.16-.03-.01-.05-.02-.08-.04-.03-.02-.72-.57-.49-1.31,.09-.28,.24-.48,.46-.6,.27-.14,.63-.14,1.08,.01,.52,.17,2.45,.86,2.45,.86l-.2,.56s-1.93-.68-2.44-.86c-.36-.12-.53-.09-.61-.05-.03,.01-.11,.06-.17,.24-.09,.29,.17,.56,.25,.64,.3,.11,1.87,.71,2.92,1.14,1.11,.45,1.42,.49,2.03,.49,1.43-.15,1.91-.85,2.53-1.75l.1-.14c.83-1.29,.12-2.63,.11-2.65-.05-.06-1.54-2.22-1.92-2.81-.16-.25-.36-.41-.55-.43-.12-.02-.23,.02-.33,.11-.34,.3-.13,.65-.08,.72l.8,1.19c.09,.14,.06,.32-.08,.42-.14,.09-.33,.06-.42-.08l-.79-1.18c-.2-.28-.43-.97,.18-1.51,.23-.2,.51-.29,.81-.25,.37,.05,.71,.3,.97,.7,.38,.59,1.91,2.8,1.93,2.82,.05,.1,.91,1.7-.12,3.3l-.1,.15c-.65,.94-1.26,1.83-3,2.01h-.03Z"/>
  <path d="M13.69,16.14s-.07,0-.11-.02l-3.2-1.27c-.24-.08-.87-.5-.58-1.44,.18-.59,.83-.82,1.34-.67,.37,.11,3.45,1.33,3.8,1.47,.15,.06,.23,.24,.17,.39-.06,.15-.24,.23-.39,.17-.95-.38-3.46-1.37-3.75-1.45-.22-.06-.52,.04-.59,.27-.16,.52,.13,.67,.22,.7l3.21,1.27c.15,.06,.23,.24,.17,.39-.05,.12-.16,.19-.28,.19Z"/>
  <path d="M16.58,14s-.07,0-.11-.02c-.95-.38-3.46-1.37-3.75-1.45-.21-.06-.52,.04-.59,.27-.04,.12-.05,.23-.04,.32,0,.17-.12,.31-.28,.32-.19,0-.31-.12-.32-.28,0-.17,.01-.34,.07-.53,.18-.58,.83-.82,1.34-.67,.37,.11,3.45,1.33,3.8,1.47,.15,.06,.23,.24,.17,.39-.05,.12-.16,.19-.28,.19Z"/>
  <path d="M12.23,17.02s-.07,0-.1-.02l-1.41-.51c-.42-.16-1.19-.46-.94-1.43,.25-.56,.69-.7,.91-.7,.17,0,.3,.13,.3,.3s-.13,.3-.29,.3c-.03,0-.23,.02-.35,.3-.09,.37,.09,.48,.59,.67l.1,.04,1.3,.47c.16,.06,.24,.23,.18,.38-.04,.12-.16,.2-.28,.2Z"/>
</svg>
