<svg xmlns="http://www.w3.org/2000/svg" viewBox="0 0 24 24" fill="#000000">
  <path d="M6.8,12.21l2.66,2.72c.06,.06,.14,.09,.21,.09s.15-.03,.21-.09c.12-.12,.12-.31,0-.42l-2.48-2.53,2.53-2.48c.12-.12,.12-.31,0-.42s-.31-.12-.42,0l-2.72,2.66c-.07,.06-.09,.15-.08,.23,0,.08,.01,.17,.08,.24Z"/>
  <path d="M14.05,14.92c.06,.06,.14,.09,.21,.09s.15-.03,.21-.09l2.72-2.66c.07-.06,.09-.15,.08-.23,0-.08-.01-.17-.08-.24l-2.66-2.72c-.12-.12-.31-.12-.42,0-.12,.12-.12,.31,0,.42l2.48,2.53-2.53,2.48c-.12,.12-.12,.31,0,.42Z"/>
  <path d="M15.71,4h-7.42c-.88,0-1.6,.72-1.6,1.6v2.81c0,.17,.13,.3,.3,.3h1.42c.17,0,.3-.13,.3-.3v-1.19h6.59v1.19c0,.17,.13,.3,.3,.3h1.42c.17,0,.3-.13,.3-.3v-2.81c0-.88-.72-1.6-1.6-1.6Zm1,4.1h-.82v-1.19c0-.17-.13-.3-.3-.3h-7.19c-.17,0-.3,.13-.3,.3v1.19h-.82v-2.51c0-.55,.45-1,1-1h7.42c.55,0,1,.45,1,1v2.51Z"/>
  <path d="M17.01,15.29h-1.42c-.17,0-.3,.13-.3,.3v1.19h-6.59v-1.19c0-.17-.13-.3-.3-.3h-1.42c-.17,0-.3,.13-.3,.3v2.81c0,.88,.72,1.6,1.6,1.6h7.42c.88,0,1.6-.72,1.6-1.6v-2.81c0-.17-.13-.3-.3-.3Zm-.3,3.11c0,.55-.45,1-1,1h-7.42c-.55,0-1-.45-1-1v-2.51h.82v1.19c0,.17,.13,.3,.3,.3h7.19c.17,0,.3-.13,.3-.3v-1.19h.82v2.51Z"/>
</svg>
