<svg viewBox="0 0 24 24" fill="#000000" xmlns="http://www.w3.org/2000/svg">
  <path d="M12,19.9c-4.36,0-7.91-3.55-7.91-7.91s3.55-7.91,7.91-7.91,7.91,3.55,7.91,7.91-3.55,7.91-7.91,7.91Zm0-15.22c-4.03,0-7.31,3.28-7.31,7.31s3.28,7.31,7.31,7.31,7.31-3.28,7.31-7.31-3.28-7.31-7.31-7.31Z"/>
  <path d="M9.62,12.19c-.63,0-1.14-.51-1.14-1.14s.51-1.14,1.14-1.14,1.14,.51,1.14,1.14-.51,1.14-1.14,1.14Zm0-1.67c-.3,0-.54,.24-.54,.54s.24,.54,.54,.54,.54-.24,.54-.54-.24-.54-.54-.54Z"/>
  <path d="M14.38,12.19c-.63,0-1.14-.51-1.14-1.14s.51-1.14,1.14-1.14,1.14,.51,1.14,1.14-.51,1.14-1.14,1.14Zm0-1.67c-.3,0-.54,.24-.54,.54s.24,.54,.54,.54,.54-.24,.54-.54-.24-.54-.54-.54Z"/>
  <path d="M12.1,17.07s-.04,0-.07,0c-1.98-.04-3.36-2-3.42-2.09-.09-.14-.06-.32,.08-.42,.14-.09,.32-.06,.42,.08,.01,.02,1.26,1.79,2.94,1.83h.05c.99,0,1.95-.61,2.86-1.82,.1-.13,.29-.16,.42-.06,.13,.1,.16,.29,.06,.42-1.03,1.36-2.16,2.06-3.34,2.06Z"/>
</svg>
