<svg viewBox="0 0 24 24" fill="#000000" xmlns="http://www.w3.org/2000/svg">
  <path d="M7.79,18.73c-.15,0-.31-.03-.5-.11-.67-.27-.73-.83-.67-1.09l2.11-4.74c.07-.15,.24-.22,.4-.15,.15,.07,.22,.25,.15,.4l-2.09,4.69s0,.21,.32,.34c.36,.14,.47,0,.49-.05l2.18-3.47c.09-.14,.27-.18,.41-.09,.14,.09,.18,.27,.09,.41l-2.16,3.43c-.06,.16-.3,.43-.73,.43Z"/>
  <path d="M13.09,7.79c-1.03,0-1.87-.84-1.87-1.87s.84-1.87,1.87-1.87,1.87,.84,1.87,1.87-.84,1.87-1.87,1.87Zm0-3.14c-.7,0-1.27,.57-1.27,1.27s.57,1.27,1.27,1.27,1.27-.57,1.27-1.27-.57-1.27-1.27-1.27Z"/>
  <path d="M11.13,19.56c-.23,0-.46-.07-.62-.16-.62-.36-.59-.94-.49-1.2l.77-2.6c-.34-.4-1.4-1.66-1.76-2.11-.42-.52-.57-1.12-.43-1.69l.5-1.73-.13,.02-.77,2.1c-.21,.53-.73,.63-1.13,.52-.34-.1-.5-.29-.58-.43-.16-.3-.06-.59-.05-.63l.67-2.82c.08-.32,.22-.65,.69-.78,.39-.1,2.97-.68,3.61-.68h0c.44,0,.81,.18,1.06,.5,.28,.35,.38,.84,.26,1.35l-.81,3.05,1.49,2.61c.13,.22,.13,.51,0,.82-.04,.11-1.1,2.77-1.61,3.54-.16,.24-.42,.33-.69,.33Zm-1.62-10.16c.08,0,.17,.04,.22,.1,.07,.08,.09,.18,.06,.28l-.62,2.18c-.09,.38,.02,.79,.32,1.16,.43,.53,1.86,2.22,1.86,2.22,.06,.08,.09,.18,.06,.28l-.83,2.78c-.03,.08-.08,.31,.22,.48,.18,.1,.46,.1,.51,.02,.47-.72,1.54-3.41,1.55-3.44,.06-.14,.06-.25,.03-.29l-1.56-2.71c-.04-.07-.05-.15-.03-.23l.83-3.16c.07-.31,.01-.62-.15-.83-.14-.17-.34-.27-.6-.27h0c-.52,0-2.96,.53-3.46,.66-.13,.03-.19,.08-.26,.34l-.68,2.84c-.07,.24,.15,.3,.22,.32,.07,.02,.31,.07,.4-.16l.83-2.26c.04-.1,.13-.18,.23-.19l.77-.12s.03,0,.05,0Z"/>
  <path d="M15.5,11.55s-.05,0-.08,0c-.16-.04-.26-.21-.21-.37l.1-.37c.04-.16,.21-.25,.37-.21,.16,.04,.26,.21,.21,.37l-.1,.37c-.04,.13-.16,.22-.29,.22Z"/>
  <path d="M16.71,20.08c-.36,0-.55-.11-.7-.21-.12-.07-.2-.12-.4-.12s-.27,.05-.4,.12c-.15,.09-.35,.21-.71,.21s-.55-.11-.7-.21c-.12-.07-.2-.12-.4-.12s-.27,.05-.4,.12c-.15,.09-.35,.21-.7,.21-.17,0-.3-.13-.3-.3s.13-.3,.3-.3c.19,0,.27-.05,.4-.12,.15-.09,.35-.21,.7-.21s.55,.11,.7,.21c.12,.07,.2,.12,.4,.12s.27-.05,.4-.12c.15-.09,.35-.21,.7-.21s.55,.11,.71,.21c.12,.07,.2,.12,.4,.12,.17,0,.3,.13,.3,.3s-.13,.3-.3,.3Z"/>
  <path d="M8.38,7.88s-.1-.01-.14-.04c-.15-.08-.2-.26-.12-.41,.04-.07,.08-.15,.13-.22,.41-.68,1.01-.96,1.77-.81,.39,.07,.69,.22,.89,.44,.11,.12,.1,.31-.02,.42-.12,.11-.31,.1-.42-.02-.1-.11-.29-.2-.55-.25-.52-.09-.86,.06-1.15,.54-.04,.07-.08,.13-.12,.2-.05,.1-.16,.16-.26,.16Z"/>
  <path d="M7.02,16.28c-.36,0-.55-.11-.7-.21-.12-.07-.2-.12-.4-.12s-.27,.05-.4,.12c-.15,.09-.35,.21-.7,.21-.17,0-.3-.13-.3-.3s.13-.3,.3-.3c.19,0,.27-.05,.4-.12,.15-.09,.35-.21,.7-.21s.55,.11,.7,.21c.12,.07,.2,.12,.4,.12s.27-.05,.4-.12c.07-.04,.13-.08,.21-.11,.15-.06,.33,0,.39,.16,.07,.15,0,.33-.16,.39-.05,.02-.09,.05-.14,.08-.15,.09-.35,.21-.7,.21Z"/>
  <path d="M15.44,13.29c-.07,0-.14,0-.21-.02-.12-.02-.26-.04-.4-.11h0c-.48-.23-.73-.85-.57-1.4,.17-.58,.78-.91,1.44-.8,.2,.03,.26,.04,.36,.09,.15,.07,.26,.19,.33,.33,.13,.3,.02,.66-.08,.97-.13,.43-.28,.92-.87,.92Zm.02-1.74c-.29,0-.55,.12-.63,.39-.09,.29,.06,.59,.25,.68h0c.06,.03,.14,.04,.2,.05,.27,.04,.3,.05,.45-.45,.06-.21,.15-.5,.11-.6-.06-.04-.06-.04-.17-.06-.07-.01-.14-.02-.2-.02Z"/>
  <path d="M15.09,11.61s-.1-.01-.14-.04l-1.39-.75s-.08-.06-.11-.1l-1.23-1.9c-.09-.14-.05-.33,.09-.42,.14-.09,.33-.05,.42,.09l1.19,1.84,1.33,.71c.15,.08,.2,.26,.12,.41-.05,.1-.16,.16-.26,.16Z"/>
  <path d="M14.53,12.84s-1.08-.32-1.52-.47c-.45-.16-.66-.42-.77-.55l-.51-.68c-.1-.13-.07-.32,.06-.42,.13-.1,.32-.07,.42,.06l.48,.64c.11,.13,.23,.28,.53,.39,.43,.15,1.48,.46,1.48,.46l-.17,.58Z"/>
  <path d="M13.42,18.98s-.05,0-.08-.01c-.16-.04-.25-.21-.21-.37l1.65-5.74c.04-.16,.21-.25,.37-.21,.16,.04,.25,.21,.21,.37l-1.65,5.74c-.04,.13-.16,.22-.29,.22Z"/>
</svg>
