<svg xmlns="http://www.w3.org/2000/svg" viewBox="0 0 24 24" fill="#000000">
  <path d="M5.9,19.99c-.11,0-.21-.06-.27-.16-.08-.15-.02-.33,.13-.4l10.48-5.38s.05-.02,.08-.03c.29-.05,.61,.11,.74,.37l2.7,4.03c.09,.14,.06,.32-.08,.42s-.32,.06-.42-.08l-2.72-4.06s-.07-.07-.1-.08l-10.42,5.34s-.09,.03-.14,.03Z"/>
  <path d="M6.94,17.81c-.09,0-.17-.01-.25-.04-.44-.15-.67-.58-.58-1.08,.07-.37,.37-2.09,.37-2.09l-.14-2.06c-.01-.17,.12-.31,.28-.32,.19,0,.31,.12,.32,.28l.14,2.13c0,.07-.31,1.8-.38,2.17-.04,.21,.03,.35,.18,.41,0,0,.19,.06,.29-.16,.11-.26,.54-1.69,.71-2.26l.04-1.65c0-.16,.14-.29,.3-.29h0c.17,0,.3,.14,.29,.31l-.04,1.68s0,.05-.01,.08c-.06,.21-.59,2.02-.75,2.37-.16,.37-.48,.53-.78,.53Z"/>
  <path d="M10.67,16.43c-.55,0-.85-.37-.92-.76l-.3-1.85c-.53-.15-2.01-.58-2.63-.84-.79-.33-.74-1.04-.72-1.34,.04-.75,.41-2.91,1.54-3.9h0c.44-.38,1.12-.42,1.6-.32l2.13,.35,1.43-.35c.27-.08,.55-.06,.77,.07,.19,.11,.33,.3,.39,.52,.12,.48-.17,.9-.73,1.06l-1.64,.58c-.2,.06-.35,.06-.52,.05l-1.49-.11-.52,1.63c.49,.19,1.54,.61,1.95,.84,.32,.17,.35,.49,.37,.65,.04,.32,.21,1.96,.26,2.61,.04,.6-.28,1.04-.82,1.1-.05,0-.1,0-.14,0Zm-2.63-8.24h0c-.97,.85-1.3,2.85-1.34,3.48-.02,.35,0,.6,.36,.75,.71,.3,2.72,.86,2.74,.87,.11,.03,.2,.13,.22,.24l.33,2.04c.03,.19,.17,.26,.4,.25,.27-.03,.29-.3,.28-.46-.05-.66-.22-2.29-.25-2.52-.02-.18-.03-.23-.07-.25-.5-.28-2.13-.9-2.14-.91-.15-.06-.23-.22-.18-.37l.68-2.12c.04-.13,.17-.22,.31-.21l1.72,.13c.12,0,.2,0,.3-.03l1.64-.58c.19-.05,.38-.15,.33-.34-.02-.07-.05-.12-.1-.15-.08-.04-.19-.05-.31-.01l-1.5,.36s-.08,.01-.12,0l-2.2-.37c-.37-.07-.84-.04-1.09,.18Z"/>
  <path d="M10.09,7.27c-.9,0-1.63-.73-1.63-1.62,0-.43,.17-.84,.47-1.15s.71-.48,1.15-.48h0c.43,0,.84,.17,1.15,.47,.31,.31,.48,.71,.48,1.15,0,.9-.72,1.63-1.62,1.64h0Zm0-.3h0Zm0-2.36h0c-.28,0-.53,.11-.73,.3-.19,.2-.3,.46-.3,.73,0,.57,.46,1.03,1.03,1.03h0c.28,0,.53-.11,.73-.31s.3-.45,.3-.73c0-.28-.11-.53-.3-.73-.19-.19-.45-.3-.72-.3Z"/>
  <path d="M5.81,11.66c-.23,0-.47-.06-.7-.17-1.08-.53-.96-1.29-.86-1.59,.14-.42,.54-1.5,1.24-2.35,.42-.51,.94-.67,1.55-.47,.41,.14,.67,.35,.77,.63,.1,.29,.04,.61-.2,.98-.09,.14-.27,.18-.41,.09s-.18-.27-.09-.41c.13-.2,.18-.36,.14-.46-.03-.1-.17-.19-.39-.26-.37-.12-.64-.04-.89,.28-.63,.78-1,1.77-1.13,2.16-.04,.12-.17,.5,.56,.86,.24,.12,.5,.14,.66,.07,.09-.04,.14-.1,.17-.19,.04-.16,.21-.25,.37-.21,.16,.04,.25,.21,.21,.37-.07,.26-.25,.47-.5,.58-.14,.06-.3,.1-.47,.1Z"/>
  <path d="M14.08,14.24c-.14,0-.27-.1-.29-.25l-.95-5.15c-.03-.16,.08-.32,.24-.35,.17-.03,.32,.08,.35,.24l.95,5.15c.03,.16-.08,.32-.24,.35-.02,0-.04,0-.05,0Z"/>
  <path d="M12.92,8c-.14,0-.27-.1-.29-.24l-.08-.41c-.03-.16,.08-.32,.24-.35,.17-.02,.32,.08,.35,.24l.08,.41c.03,.16-.08,.32-.24,.35-.02,0-.04,0-.06,0Z"/>
  <path d="M16.44,18.89c-.13,0-.25-.08-.29-.21l-.42-1.29c-.05-.16,.04-.33,.19-.38,.16-.05,.33,.04,.38,.19l.42,1.29c.05,.16-.04,.33-.19,.38-.03,0-.06,.01-.09,.01Z"/>
  <path d="M9.53,19.99c-.1,0-.19-.05-.25-.13-.09-.14-.06-.32,.08-.42l2.46-1.66c.14-.09,.32-.06,.42,.08,.09,.14,.06,.32-.08,.42l-2.46,1.66c-.05,.03-.11,.05-.17,.05Z"/>
</svg>
