<?xml version="1.0" encoding="UTF-8"?>
<svg xmlns="http://www.w3.org/2000/svg" viewBox="0 0 24 24" fill="#000000">
  <g>
    <path d="M16.98,17.23c-.13,0-.24-.06-.32-.17-.62-.92-2.66-4.04-2.66-5.43,0-1.64,1.34-2.98,2.98-2.98s2.98,1.34,2.98,2.98c0,1.38-2.04,4.51-2.66,5.43-.07,.11-.19,.17-.32,.17Zm0-7.98c-1.31,0-2.38,1.07-2.38,2.38,0,.98,1.42,3.37,2.38,4.82,1.14-1.71,2.38-3.91,2.38-4.82,0-1.31-1.07-2.38-2.38-2.38Z"/>
    <path d="M16.98,13.27c-.9,0-1.64-.74-1.64-1.64s.74-1.64,1.64-1.64,1.64,.74,1.64,1.64-.74,1.64-1.64,1.64Zm0-2.68c-.57,0-1.04,.47-1.04,1.04s.47,1.04,1.04,1.04,1.04-.47,1.04-1.04-.47-1.04-1.04-1.04Z"/>
  </g>
  <path d="M8.48,19.97s-.08,0-.12-.02l-4.14-1.8c-.11-.05-.18-.16-.18-.28V4.33c0-.1,.05-.2,.14-.25,.08-.06,.19-.06,.28-.02l4.14,1.8c.11,.05,.18,.16,.18,.28v13.54c0,.1-.05,.2-.14,.25-.05,.03-.11,.05-.16,.05Zm-3.84-2.3l3.54,1.54V6.33l-3.54-1.54v12.89Z"/>
  <path d="M16.97,19.97s-.08,0-.12-.02l-4.14-1.8c-.15-.07-.22-.24-.16-.4,.07-.15,.24-.22,.4-.16l3.72,1.62v-1.29c0-.17,.13-.3,.3-.3s.3,.13,.3,.3v1.75c0,.1-.05,.2-.14,.25-.05,.03-.11,.05-.16,.05Z"/>
  <path d="M16.97,8.27c-.17,0-.3-.13-.3-.3v-1.64l-3.96-1.72c-.15-.07-.22-.24-.16-.4,.07-.15,.24-.22,.4-.16l4.14,1.8c.11,.05,.18,.16,.18,.28v1.84c0,.17-.13,.3-.3,.3Z"/>
  <path d="M8.63,19.97c-.12,0-.23-.07-.28-.18-.07-.15,0-.33,.16-.4l3.96-1.72V4.79l-3.72,1.62c-.15,.06-.33,0-.4-.16-.07-.15,0-.33,.16-.4l4.14-1.8c.09-.04,.2-.03,.28,.02,.08,.06,.14,.15,.14,.25v13.54c0,.12-.07,.23-.18,.28l-4.14,1.8s-.08,.02-.12,.02Z"/>
</svg>
