<svg xmlns="http://www.w3.org/2000/svg" viewBox="0 0 24 24" fill="#000000">
  <path d="M18.14,8.4c-.14,0-.26-.09-.29-.23-.46-1.98-2.16-3.37-4.13-3.37s-3.68,1.38-4.13,3.37c-.04,.16-.2,.27-.36,.22-.16-.04-.26-.2-.22-.36,.52-2.26,2.46-3.83,4.72-3.83s4.2,1.58,4.72,3.83c.04,.16-.06,.32-.22,.36-.02,0-.04,0-.07,0Z"/>
  <path d="M11.95,9.59c-.26,0-.46-.25-.46-.57s.2-.57,.46-.57,.45,.25,.45,.57-.2,.57-.45,.57Zm-.1-.57c.05,.03,.16,.03,.21,0-.05-.03-.16-.03-.21,0Z"/>
  <path d="M15.47,9.59c-.26,0-.46-.25-.46-.57s.2-.57,.46-.57,.45,.25,.45,.57-.2,.57-.45,.57Zm-.11-.57c.05,.03,.15,.03,.21,0-.05-.03-.16-.03-.21,0Z"/>
  <path d="M13.69,12s-.03,0-.05,0c-.66-.01-1.28-.31-1.74-.83-.11-.12-.1-.31,.03-.42,.12-.11,.31-.1,.42,.03,.35,.4,.81,.62,1.3,.63,.51,0,1.02-.22,1.42-.64,.11-.12,.3-.12,.42,0,.12,.11,.12,.3,0,.42-.51,.53-1.15,.83-1.82,.83Z"/>
  <path d="M11.79,6.8c-.05,0-.11-.01-.16-.04-.14-.09-.19-.27-.1-.41,.65-1.07,1.91-1.77,3.45-1.94,.16-.03,.31,.1,.33,.27,.02,.17-.1,.31-.27,.33-1.35,.15-2.45,.75-3,1.65-.06,.09-.16,.14-.26,.14Z"/>
  <path d="M13.6,6.8s-.07,0-.11-.02c-.16-.06-.23-.23-.17-.39,.31-.83,.95-1.52,1.75-1.9,.15-.07,.33,0,.4,.14,.07,.15,0,.33-.14,.4-.66,.32-1.19,.89-1.45,1.58-.05,.12-.16,.19-.28,.19Z"/>
  <path d="M15.38,7.05s-.05,0-.08,0c-.16-.04-.25-.21-.21-.37,.18-.67,.02-1.34-.14-1.8-.06-.16,.03-.33,.18-.38,.16-.06,.33,.03,.38,.18,.27,.76,.33,1.5,.15,2.15-.04,.13-.16,.22-.29,.22Z"/>
  <g>
    <path d="M10.06,14.71c-.07,0-.13-.02-.19-.07-.13-.11-.15-.29-.04-.42,.41-.49,.9-.89,1.46-1.2,.14-.08,.34-.03,.42,.11,.08,.15,.04,.32-.1,.4-.53,.28-.96,.64-1.31,1.07-.06,.07-.15,.11-.23,.11Z"/>
    <path d="M18.6,17.54c-.17,0-.3-.13-.3-.3,0-1.45-.97-2.9-2.48-3.71-.15-.08-.2-.26-.12-.41,.08-.15,.26-.2,.41-.12,1.7,.91,2.8,2.57,2.8,4.24,0,.17-.13,.3-.3,.3Z"/>
  </g>
  <path d="M13.71,14.17c-2.2,0-4.09-1.49-4.67-3.64-.4-.08-.8-.48-1.02-1.08-.15-.4-.14-.84,.02-1.2,.11-.25,.29-.43,.5-.5,.25-.09,.53-.14,.91,.11,.14,.09,.18,.28,.08,.42-.09,.14-.28,.18-.42,.08-.17-.11-.23-.1-.37-.05-.04,.02-.11,.08-.16,.19-.1,.21-.1,.49,0,.74,.18,.49,.5,.74,.62,.7,.08-.02,.16,0,.24,.03,.07,.04,.12,.11,.14,.19,.44,2.01,2.15,3.41,4.14,3.41s3.71-1.43,4.14-3.41c.02-.08,.07-.15,.14-.19,.07-.04,.15-.06,.24-.03,.12,.04,.43-.21,.62-.7,.09-.25,.09-.53,0-.74-.05-.12-.12-.18-.16-.19-.14-.05-.21-.06-.37,.05-.13,.09-.32,.06-.42-.08-.09-.14-.05-.32,.08-.42,.38-.25,.66-.2,.91-.11,.21,.08,.38,.26,.5,.5,.16,.36,.17,.8,.02,1.2-.22,.6-.62,1-1.02,1.08-.58,2.13-2.5,3.64-4.67,3.64Z"/>
  <path d="M13.71,16.05c-1.41,0-2.6-1.15-2.6-2.5,0-.12,0-.24,.03-.35,.02-.16,.16-.28,.34-.25,.16,.03,.28,.18,.25,.34-.01,.08-.02,.17-.02,.26,0,1.03,.92,1.9,2,1.9s2-.87,2-1.9c0-.09,0-.17-.02-.26-.03-.16,.08-.32,.25-.34,.18-.03,.32,.08,.35,.25,.02,.12,.03,.24,.03,.36,0,1.36-1.19,2.5-2.6,2.5Z"/>
  <g>
    <path d="M11.07,19.23s-.07,0-.1,0l-1.23-.19c-.2-.03-.38-.13-.51-.28l-3.54-3.83c-.11-.12-.1-.31,.02-.42,.12-.11,.31-.11,.42,.02l3.54,3.83s.11,.08,.17,.09l1.23,.19-.06-1.28c0-.06-.03-.12-.08-.17l-3.54-3.84c-.11-.12-.1-.31,.02-.42,.12-.11,.31-.11,.42,.02l3.54,3.84c.14,.15,.22,.34,.23,.53l.1,1.24c.02,.19-.06,.38-.2,.52-.12,.11-.27,.17-.43,.17Z"/>
    <path d="M13.03,21.01c-.08,0-.16-.03-.22-.1l-1.73-1.87c-.11-.12-.1-.31,.02-.42,.12-.11,.31-.11,.42,.02l1.73,1.87c.11,.12,.1,.31-.02,.42-.06,.05-.13,.08-.2,.08Z"/>
    <path d="M4.79,13.69c-.08,0-.16-.03-.22-.1-.11-.12-.1-.31,.02-.42l1.6-1.48c.12-.11,.31-.11,.42,.02,.11,.12,.1,.31-.02,.42l-1.6,1.48c-.06,.05-.13,.08-.2,.08Z"/>
    <path d="M6.76,14.23c-.08,0-.16-.03-.22-.1l-1.12-1.22c-.11-.12-.1-.31,.02-.42,.12-.11,.31-.11,.42,.02l1.12,1.22c.11,.12,.1,.31-.02,.42-.06,.05-.13,.08-.2,.08Z"/>
    <path d="M5.56,15.34c-.08,0-.16-.03-.22-.1-.11-.12-.1-.31,.02-.42l2.4-2.21c.12-.11,.31-.11,.42,.02,.11,.12,.1,.31-.02,.42l-2.4,2.21c-.06,.05-.13,.08-.2,.08Z"/>
    <path d="M8.74,18.08c-.08,0-.16-.03-.22-.09-.11-.12-.11-.31,.01-.42l.64-.6c.12-.11,.31-.11,.42,.01,.11,.12,.11,.31-.01,.42l-.64,.6c-.06,.05-.13,.08-.21,.08Z"/>
    <path d="M8.05,17.33c-.08,0-.16-.03-.22-.09-.11-.12-.11-.31,.01-.42l.64-.6c.12-.11,.31-.11,.42,.01,.11,.12,.11,.31-.01,.42l-.64,.6c-.06,.05-.13,.08-.21,.08Z"/>
    <path d="M7.35,16.58c-.08,0-.16-.03-.22-.09-.11-.12-.11-.31,.01-.42l.64-.6c.12-.11,.31-.11,.42,.01,.11,.12,.11,.31-.01,.42l-.64,.6c-.06,.05-.13,.08-.21,.08Z"/>
  </g>
  <path d="M15.3,5.1c-.11,0-.21-.06-.26-.16-.08-.15-.03-.33,.12-.41,.31-.17,.3-.47,.19-.67-.1-.2-.34-.38-.66-.22-.14,.07-.33,.01-.4-.14-.07-.15-.01-.33,.14-.4,.63-.31,1.21,0,1.46,.48,.25,.48,.18,1.13-.43,1.47-.05,.03-.1,.04-.14,.04Z"/>
</svg>
