<?xml version="1.0" encoding="UTF-8"?>
<svg xmlns="http://www.w3.org/2000/svg" viewBox="0 0 24 24" fill="#000000">
  <path d="M17.86,15.43c-.6,0-.93-.24-1.19-.43-.24-.17-.42-.31-.83-.31s-.59,.14-.83,.31c-.26,.19-.58,.43-1.19,.43s-.93-.24-1.19-.43c-.24-.17-.42-.31-.83-.31s-.59,.14-.83,.31c-.26,.19-.58,.43-1.19,.43s-.92-.24-1.18-.43c-.24-.17-.42-.31-.83-.31s-.59,.14-.83,.31c-.26,.19-.58,.43-1.19,.43s-.93-.24-1.19-.43c-.24-.17-.42-.31-.83-.31-.17,0-.3-.13-.3-.3s.13-.3,.3-.3c.6,0,.93,.24,1.19,.43,.24,.17,.42,.31,.83,.31s.59-.14,.83-.31c.26-.19,.58-.43,1.19-.43s.93,.24,1.19,.43c.24,.17,.42,.31,.83,.31s.59-.14,.83-.31c.26-.19,.58-.43,1.19-.43s.93,.24,1.19,.43c.24,.17,.42,.31,.83,.31s.59-.14,.83-.31c.26-.19,.58-.43,1.19-.43s.93,.24,1.19,.43c.24,.17,.42,.31,.83,.31s.59-.14,.83-.31c.26-.19,.58-.43,1.19-.43,.17,0,.3,.13,.3,.3s-.13,.3-.3,.3c-.41,0-.59,.14-.83,.31-.26,.19-.58,.43-1.19,.43Z"/>
  <path d="M17.86,17.65c-.6,0-.93-.24-1.19-.43-.24-.17-.42-.31-.83-.31s-.59,.14-.83,.31c-.26,.19-.58,.43-1.19,.43s-.93-.24-1.19-.43c-.24-.17-.42-.31-.83-.31s-.59,.14-.83,.31c-.26,.19-.58,.43-1.19,.43s-.92-.24-1.18-.43c-.24-.17-.42-.31-.83-.31s-.59,.14-.83,.31c-.26,.19-.58,.43-1.19,.43-.17,0-.3-.13-.3-.3s.13-.3,.3-.3c.41,0,.59-.14,.83-.31,.26-.19,.58-.43,1.19-.43s.93,.24,1.19,.43c.24,.17,.42,.31,.83,.31s.59-.14,.83-.31c.26-.19,.58-.43,1.19-.43s.93,.24,1.19,.43c.24,.17,.42,.31,.83,.31s.59-.14,.83-.31c.26-.19,.58-.43,1.19-.43s.93,.24,1.19,.43c.24,.17,.42,.31,.83,.31,.17,0,.3,.13,.3,.3s-.13,.3-.3,.3Z"/>
  <path d="M17.85,15.43c-.05,0-.1-.01-.15-.04-.14-.08-.19-.27-.11-.41l2.11-3.58-13.68,.78v2.95c0,.17-.13,.3-.3,.3s-.3-.13-.3-.3v-3.23c0-.16,.12-.29,.28-.3l14.52-.83c.11,0,.22,.05,.27,.14s.06,.21,0,.31l-2.4,4.06c-.06,.09-.16,.15-.26,.15Z"/>
  <path d="M16.74,11.39c-.11,0-.21-.06-.26-.15l-.66-1.19h-3.57c-.17,0-.3-.13-.3-.3s.13-.3,.3-.3h3.75c.11,0,.21,.06,.26,.15l.75,1.34c.08,.14,.03,.33-.12,.41-.05,.03-.1,.04-.15,.04Z"/>
  <path d="M9.22,10.03h-.71c-.17,0-.3-.13-.3-.3s.13-.3,.3-.3h.71c.17,0,.3,.13,.3,.3s-.13,.3-.3,.3Z"/>
  <path d="M11.09,10.03h-.76c-.17,0-.3-.13-.3-.3s.13-.3,.3-.3h.76c.17,0,.3,.13,.3,.3s-.13,.3-.3,.3Z"/>
  <path d="M6.68,11.98s-.05,0-.07,0c-.16-.04-.26-.2-.22-.36l.85-3.37c.03-.13,.15-.23,.29-.23h.68v-1.36c0-.17,.13-.3,.3-.3h1.6c.17,0,.3,.13,.3,.3v1.31l.32,.05h3.23c.11,0,.21,.05,.26,.15l.75,1.34c.08,.14,.03,.33-.12,.41-.14,.08-.33,.03-.41-.12l-.66-1.19h-3.1l-.62-.09c-.15-.02-.25-.15-.25-.3v-1.26h-1v1.36c0,.17-.13,.3-.3,.3h-.74l-.79,3.15c-.03,.14-.16,.23-.29,.23Z"/>
</svg>
