<svg xmlns="http://www.w3.org/2000/svg" viewBox="0 0 24 24" fill="#000000">
  <g>
    <g>
      <path d="M14.82,19.23c-.17,0-.3-.13-.3-.3V5.07c0-.24-.2-.44-.44-.44H7.95c-.24,0-.44,.2-.44,.44v13.87c0,.17-.13,.3-.3,.3s-.3-.13-.3-.3V5.07c0-.58,.47-1.04,1.04-1.04h6.13c.58,0,1.04,.47,1.04,1.04v13.87c0,.17-.13,.3-.3,.3Z"/>
    </g>
    <g>
      <path d="M15.81,19.98c-.17,0-.3-.13-.3-.3v-.25c0-.11-.09-.2-.2-.2H6.71c-.11,0-.2,.09-.2,.2v.25c0,.17-.13,.3-.3,.3s-.3-.13-.3-.3v-.25c0-.44,.36-.8,.79-.8H15.31c.44,0,.8,.36,.8,.8v.25c0,.17-.13,.3-.3,.3Z"/>
    </g>
    <g>
      <path d="M12.83,12.3h-3.65c-.57,0-1.04-.47-1.04-1.04V6.8c0-.58,.47-1.04,1.04-1.04h3.65c.58,0,1.04,.47,1.04,1.04v4.46c0,.58-.47,1.04-1.04,1.04Zm-3.65-5.94c-.24,0-.44,.2-.44,.44v4.46c0,.24,.2,.44,.44,.44h3.65c.24,0,.44-.2,.44-.44V6.8c0-.24-.2-.44-.44-.44h-3.65Z"/>
    </g>
    <g>
      <path d="M17.04,18.49c-.58,0-1.04-.47-1.04-1.04v-3.96c0-.24-.2-.44-.44-.44h-.74c-.17,0-.3-.13-.3-.3s.13-.3,.3-.3h.74c.58,0,1.04,.47,1.04,1.04v3.96c0,.24,.2,.44,.44,.44s.44-.2,.44-.44V8.61l-1.45-2.66c-.08-.15-.03-.33,.12-.41,.14-.08,.33-.03,.41,.12l1.49,2.72s.04,.09,.04,.14v8.92c0,.57-.47,1.04-1.04,1.04Z"/>
    </g>
    <g>
      <path d="M17.04,9.58c-.06,0-.11-.02-.17-.05l-.74-.5c-.11-.07-.16-.2-.12-.32l.25-.99c.04-.16,.2-.26,.36-.22,.16,.04,.26,.2,.22,.36l-.2,.78,.57,.38c.14,.09,.17,.28,.08,.42-.06,.09-.15,.13-.25,.13Z"/>
    </g>
  </g>
</svg>
