<?xml version="1.0" encoding="UTF-8"?>
<svg xmlns="http://www.w3.org/2000/svg" viewBox="0 0 24 24" fill="#000000">
  <path d="M12.18,19.95H5.2c-.08,0-.16-.03-.22-.09s-.09-.14-.08-.22l.49-12.75c0-.16,.14-.29,.3-.29h11.67c.16,0,.29,.13,.3,.29l.17,5.39h.67c.16,0,.29,.13,.3,.29l.3,7.07c0,.08-.03,.16-.08,.22-.06,.06-.14,.09-.22,.09h-6.62Zm.32-.6h5.99l-.27-6.47h-5.38l-.34,6.47Zm-6.98,0h6.38l.36-6.79c0-.16,.14-.28,.3-.28h4.67l-.16-5.08H5.98l-.47,12.15Z"/>
  <path d="M15.57,15.82c-.83,0-1.5-.67-1.5-1.5v-.44c0-.17,.13-.3,.3-.3s.3,.13,.3,.3v.44c0,.5,.41,.9,.9,.9s.9-.41,.9-.9v-.44c0-.17,.13-.3,.3-.3s.3,.13,.3,.3v.44c0,.83-.67,1.5-1.5,1.5Z"/>
  <path d="M12.86,9.43c-.17,0-.3-.13-.3-.3v-2.63c0-1.02-.83-1.85-1.85-1.85s-1.85,.83-1.85,1.85v2.63c0,.17-.13,.3-.3,.3s-.3-.13-.3-.3v-2.63c0-1.35,1.1-2.45,2.45-2.45s2.45,1.1,2.45,2.45v2.63c0,.17-.13,.3-.3,.3Z"/>
  <path d="M14.59,7.16c-.17,0-.3-.13-.3-.3v-.36c0-1.02-.83-1.85-1.85-1.85s-1.85,.83-1.85,1.85v.36c0,.17-.13,.3-.3,.3s-.3-.13-.3-.3v-.36c0-1.35,1.1-2.45,2.45-2.45s2.45,1.1,2.45,2.45v.36c0,.17-.13,.3-.3,.3Z"/>
  <path d="M9.31,9.59h-1.5c-.17,0-.3-.13-.3-.3s.13-.3,.3-.3h1.5c.17,0,.3,.13,.3,.3s-.13,.3-.3,.3Z"/>
  <path d="M13.66,9.59h-1.5c-.17,0-.3-.13-.3-.3s.13-.3,.3-.3h1.5c.17,0,.3,.13,.3,.3s-.13,.3-.3,.3Z"/>
  <path d="M15.68,12.84c-.16,0-.29-.13-.3-.29l-.17-5.65c0-.17,.12-.3,.29-.31,.19,0,.3,.12,.31,.29l.17,5.65c0,.17-.12,.3-.29,.31h0Z"/>
</svg>
