<?xml version="1.0" encoding="UTF-8"?>
<svg xmlns="http://www.w3.org/2000/svg" viewBox="0 0 24 24" fill="#000000">
  <path d="M16.09,20.18c-.54,0-1.05-.24-1.46-.69-.83,.9-2.09,.9-2.92,0-.83,.9-2.09,.9-2.92,0-.41,.45-.92,.69-1.46,.69-.65,0-1.26-.36-1.71-1-.09-.14-.06-.32,.08-.42,.14-.09,.32-.06,.42,.08,.67,.96,1.76,.96,2.43,0,.11-.16,.38-.16,.49,0,.66,.96,1.76,.96,2.43,0,.11-.16,.38-.16,.49,0,.66,.96,1.76,.96,2.43,0,.11-.16,.38-.16,.49,0,.66,.96,1.76,.96,2.43,0,.09-.14,.28-.17,.42-.08,.14,.09,.17,.28,.08,.42-.45,.65-1.05,1-1.71,1Z"/>
  <path d="M14.04,18.43c-.07,0-.13-.02-.19-.07-1.3-1.04-3.24-1.69-5.06-1.69h0c-1.24,0-2.4,.32-3.34,.93-.14,.09-.32,.05-.41-.09-.09-.14-.05-.32,.09-.41,1.04-.67,2.31-1.02,3.67-1.02h0c1.95,0,4.04,.7,5.44,1.82,.13,.1,.15,.29,.05,.42-.06,.07-.15,.11-.23,.11Z"/>
  <path d="M17.55,13.18h0c-.1,0-.19-.05-.25-.13,0-.01-.71-1.04-1.5-1.04-.17,0-.3-.13-.3-.3s.13-.3,.3-.3c.77,0,1.42,.6,1.75,.98,.34-.39,.98-.98,1.75-.98,.17,0,.3,.13,.3,.3s-.13,.3-.3,.3c-.79,0-1.5,1.03-1.5,1.04-.06,.08-.15,.13-.25,.13Z"/>
  <path d="M14.63,15.8c-.1,0-.2-.06-.26-.15-.11-.19-.53-.73-.91-.73-.17,0-.3-.13-.3-.3s.13-.3,.3-.3c.5,0,.92,.37,1.17,.67,.25-.3,.66-.67,1.17-.67,.17,0,.3,.13,.3,.3s-.13,.3-.3,.3c-.38,0-.8,.54-.91,.73-.05,.09-.15,.15-.26,.15Z"/>
  <path d="M5.9,11.72s-.08,0-.12-.02c-.09-.04-.16-.13-.18-.23-.2-1.23,.42-2.49,1.55-3.14,.87-.5,2.01-.96,3.13-.05,.07,.06,.11,.15,.11,.24,0,.09-.05,.18-.13,.23l-4.19,2.91c-.05,.04-.11,.05-.17,.05Zm2.99-3.36c-.41,0-.88,.16-1.44,.49-.76,.44-1.23,1.21-1.28,2.02l3.38-2.35c-.21-.11-.43-.16-.66-.16Z"/>
  <path d="M10.09,8.81s-.03,0-.05,0c-.1-.02-.18-.08-.22-.17-.49-1.08-.06-2.9,.92-3.88,.92-.92,2.3-1.2,3.43-.68,.09,.04,.15,.12,.17,.22,.02,.1-.01,.19-.08,.26l-3.95,4.16c-.06,.06-.14,.09-.22,.09Zm2.88-4.39c-.65,0-1.31,.27-1.81,.76-.67,.67-1.05,1.87-.93,2.74l3.27-3.44c-.18-.04-.36-.06-.54-.06Z"/>
  <path d="M13.52,12.59c-.08,0-.17-.04-.22-.1l-3.43-3.78c-.08-.09-.1-.21-.05-.32s.16-.18,.27-.18h1.85s0,0,0,0c.04,0,.09,0,.12,.03,.36,.17,.71,.42,1.05,.75,.92,.92,1.19,2.3,.68,3.43-.04,.09-.13,.16-.23,.17-.02,0-.03,0-.05,0Zm-2.76-3.78l2.63,2.9c.17-.8-.09-1.68-.71-2.3-.26-.26-.54-.47-.81-.6h-1.11Z"/>
  <path d="M10.09,8.81c-.12,0-.23-.07-.28-.18-.05-.11-.02-.24,.06-.33l1.5-1.58s.07-.06,.11-.07c.35-.14,.72-.21,1.11-.21,1.3,0,2.47,.78,2.91,1.95,.03,.09,.02,.2-.03,.28-.06,.08-.15,.13-.25,.13h-5.12s0,.01,0,.01Zm1.67-1.62l-.97,1.02h3.94c-.44-.71-1.25-1.16-2.15-1.16-.29,0-.57,.05-.83,.14Z"/>
  <path d="M10.09,8.81c-.11,0-.22-.07-.27-.18-.02-.04-.04-.08-.05-.13-.23-.52-.71-.97-1.32-1.23-.03-.01-.07-.04-.09-.06l-2.1-2.07c-.07-.07-.1-.17-.08-.27,.02-.1,.08-.18,.17-.22,1.13-.51,2.51-.24,3.43,.68,.27,.27,.48,.57,.63,.91,.03,.07,.04,.15,.01,.22-.23,.68-.26,1.35-.09,1.82,.02,.04,.03,.08,.05,.12,.06,.15-.02,.32-.17,.38-.04,.02-.08,.02-.11,.02Zm-1.36-2.06c.34,.15,.64,.35,.89,.58,.02-.3,.08-.62,.18-.94-.12-.23-.27-.44-.46-.63-.63-.63-1.52-.89-2.33-.71l1.72,1.69Z"/>
  <path d="M10.09,8.81c-.07,0-.14-.02-.19-.07-.63-.52-1.32-.51-2.31,.03-.04,.02-.09,.04-.14,.04h-2.75c-.1,0-.19-.06-.25-.14-.06-.08-.07-.18-.03-.28,.44-1.16,1.61-1.95,2.91-1.95s2.61,.82,3.04,1.96c.05,.13,0,.27-.11,.35-.05,.04-.11,.06-.17,.06Zm-4.91-.61h2.19c.51-.26,1.17-.52,1.86-.41-.49-.46-1.19-.74-1.91-.74-.89,0-1.71,.45-2.15,1.15Z"/>
  <path d="M7.64,16.78c-.07,0-.14-.03-.2-.07-.07-.06-.1-.14-.1-.23,.08-3.29,.46-5.4,1.32-7.28,.02-.05,.06-.09,.1-.12l1.16-.8c.12-.09,.29-.07,.39,.04l.2,.22c.07,.08,.09,.19,.06,.29-.51,1.71-.83,3.58-.89,7.6,0,.08-.04,.16-.1,.22-.06,.06-.15,.08-.22,.08-.56-.04-1.1-.02-1.68,.07-.02,0-.03,0-.05,0Zm1.54-7.26c-.77,1.72-1.13,3.66-1.23,6.62,.39-.05,.76-.06,1.14-.04,.07-3.59,.36-5.45,.8-7.08l-.72,.5Z"/>
</svg>
