<svg viewBox="0 0 24 24" fill="#000000" xmlns="http://www.w3.org/2000/svg">
  <path d="M18.88,12.93l-3.36,.9h0l-1.7-.98c.12-.26,.2-.54,.2-.85s-.08-.6-.21-.86l1.7-.97s0,.01,.02,.01l3.35,.92s.05,.01,.08,.01c.13,0,.25-.09,.29-.22,.04-.16-.05-.32-.21-.37l-2.8-.77,2.49-1.41c.14-.08,.19-.26,.11-.41-.08-.15-.27-.2-.41-.11l-2.48,1.41,.77-2.78c.04-.16-.05-.32-.21-.37-.16-.04-.33,.05-.37,.21l-.92,3.35h0l-1.75,1c-.31-.32-.72-.54-1.18-.61v-1.98s.01,0,.02,0l2.46-2.46c.12-.12,.12-.31,0-.42-.12-.12-.31-.12-.42,0l-2.05,2.05v-2.86c0-.17-.13-.3-.3-.3s-.3,.13-.3,.3v2.85l-2.04-2.04c-.12-.12-.31-.12-.42,0-.12,.12-.12,.31,0,.42l2.46,2.46h0v1.99c-.47,.07-.88,.3-1.18,.64l-1.72-1s0-.01,0-.02l-.9-3.36c-.04-.16-.21-.25-.37-.21-.16,.04-.26,.21-.21,.37l.75,2.8-2.47-1.44c-.14-.08-.33-.04-.41,.11-.08,.14-.04,.33,.11,.41l2.47,1.44-2.8,.75c-.16,.04-.26,.21-.21,.37,.04,.13,.16,.22,.29,.22,.03,0,.05,0,.08-.01l3.36-.9h0l1.69,.98c-.12,.25-.19,.53-.19,.83,0,.32,.08,.61,.22,.88l-1.71,.97s0-.01-.02-.01l-3.35-.92c-.17-.04-.33,.05-.37,.21s.05,.32,.21,.37l2.8,.77-2.49,1.41c-.14,.08-.19,.26-.11,.41,.05,.1,.16,.15,.26,.15,.05,0,.1-.01,.15-.04l2.48-1.41-.77,2.78c-.04,.16,.05,.32,.21,.37,.03,0,.05,.01,.08,.01,.13,0,.25-.09,.29-.22l.92-3.35h0l1.77-1.01c.3,.32,.71,.53,1.17,.59v2s-.01,0-.02,0l-2.46,2.46c-.12,.12-.12,.31,0,.42,.06,.06,.13,.09,.21,.09s.15-.03,.21-.09l2.06-2.06v2.86c0,.17,.13,.3,.3,.3s.3-.13,.3-.3v-2.85l2.04,2.04c.06,.06,.13,.09,.21,.09s.15-.03,.21-.09c.12-.12,.12-.31,0-.42l-2.46-2.46h0v-2.02c.46-.07,.86-.3,1.16-.62l1.73,1.01s0,.01,0,.02l.9,3.36c.04,.13,.16,.22,.29,.22,.03,0,.05,0,.08-.01,.16-.04,.26-.21,.21-.37l-.75-2.8,2.47,1.44s.1,.04,.15,.04c.1,0,.2-.05,.26-.15,.08-.14,.04-.33-.11-.41l-2.47-1.44,2.8-.75c.16-.04,.26-.21,.21-.37-.04-.16-.21-.25-.37-.21Zm-6.88,.46c-.78,0-1.42-.63-1.42-1.39s.63-1.39,1.42-1.39,1.42,.63,1.42,1.39-.63,1.39-1.42,1.39Z"/>
</svg>
