<svg viewBox="0 0 24 24" fill="#000000" xmlns="http://www.w3.org/2000/svg">
  <path d="M19.35,12.97c-.04-.15-.19-.24-.34-.2l-3.2,.86c-.06,.01-.09,.06-.13,.1l-1.8-1.04c.08-.21,.13-.44,.13-.68,0-.31-.08-.6-.2-.86l.43-.25,1.27-.72s0,.01,.02,.01l.12,.03s.01,.01,.02,.01l1.27,.34,1.94,.53s.05,.01,.08,.01c.13,0,.25-.09,.29-.22,.04-.16-.05-.32-.21-.37l-2.8-.77,2.49-1.41c.14-.08,.19-.26,.11-.41-.08-.15-.27-.19-.41-.11l-.03,.02s-.01,0-.01,0l-.49,.29-1.94,1.1,.77-2.78c.04-.16-.05-.32-.21-.37-.1-.03-.19,0-.26,.06-.07,.03-.13,.09-.15,.17l-.86,3.2s0,0,0,.01l-.03,.11h0l-1.75,1c-.29-.3-.67-.52-1.1-.6-.03,0-.06,0-.08,0v-1.98s.01,0,.02,0l2.46-2.46c.12-.12,.12-.31,0-.42-.12-.12-.31-.12-.42,0l-2.05,2.05v-2.86c0-.17-.13-.3-.3-.3s-.3,.13-.3,.3v2.85l-2.04-2.04c-.12-.12-.31-.12-.42,0-.12,.12-.12,.31,0,.42l2.46,2.46h0v1.99c-.47,.07-.88,.3-1.18,.64l-1.72-1s0-.01,0-.02l-.9-3.36c-.04-.16-.21-.25-.37-.21-.16,.04-.26,.21-.21,.37l.75,2.8-2.47-1.44c-.14-.08-.33-.04-.41,.11-.08,.14-.04,.33,.11,.41l2.47,1.44-2.8,.75c-.16,.04-.26,.21-.21,.37,.04,.13,.16,.22,.29,.22,.03,0,.05,0,.08-.01h.01l.54-.15,2.81-.75h0l1.69,.98c-.12,.25-.19,.53-.19,.83,0,.24,.05,.47,.13,.68l-1.8,1.04s-.07-.08-.13-.1l-3.2-.86c-.15-.04-.3,.05-.34,.2-.03,.11,.03,.21,.12,.28,.02,.11,.08,.22,.19,.25l2.55,.7-2.31,1.34c-.13,.08-.18,.25-.1,.38,.01,.02,.03,.03,.05,.05,0,.04,0,.08,.01,.12,.05,.1,.16,.15,.26,.15,.05,0,.1-.01,.15-.04l2.33-1.32-.68,2.52c-.02,.09,.01,.17,.07,.24,0,.13,.07,.26,.2,.3,.03,0,.05,.01,.08,.01,.13,0,.25-.09,.29-.22l.92-3.35h0l1.76-1.01c.31,.32,.72,.53,1.18,.6v2s-.01,0-.02,0l-.83,.83-1.62,1.61c-.06,.06-.08,.13-.08,.2,0,.08,.01,.17,.08,.24,.06,.06,.13,.09,.21,.09s.15-.03,.21-.09l2.06-2.06v2.86c0,.17,.13,.3,.3,.3s.3-.13,.3-.3v-2.85l2.04,2.04c.06,.06,.13,.09,.21,.09s.15-.03,.21-.09c.12-.12,.12-.31,0-.42l-2.46-2.46h0v-2.01c.15-.03,.3-.06,.43-.12,.28-.11,.53-.29,.73-.51l1.73,1.01s0,.01,0,.02l.9,3.36c.04,.13,.16,.22,.29,.22,.03,0,.05,0,.08,0,.12-.03,.19-.14,.2-.26,.08-.07,.14-.16,.11-.27l-.68-2.53,2.3,1.34s.1,.04,.15,.04c.1,0,.2-.05,.26-.15,.02-.03,0-.07,.01-.11,.03-.02,.06-.04,.08-.08,.08-.13,.03-.3-.1-.38l-2.32-1.35,2.55-.68c.12-.03,.19-.15,.2-.27,.09-.07,.14-.17,.11-.28Zm-7.35,.43c-.78,0-1.42-.63-1.42-1.39s.63-1.39,1.42-1.39,1.42,.63,1.42,1.39-.63,1.39-1.42,1.39Z"/>
</svg>
