<svg xmlns="http://www.w3.org/2000/svg" viewBox="0 0 24 24" fill="#000000">
  <path d="M12,19.91c-4.36,0-7.91-3.55-7.91-7.91s3.55-7.91,7.91-7.91,7.91,3.55,7.91,7.91-3.55,7.91-7.91,7.91Zm0-15.22c-4.03,0-7.31,3.28-7.31,7.31s3.28,7.31,7.31,7.31,7.31-3.28,7.31-7.31-3.28-7.31-7.31-7.31Z"/>
  <g>
    <path d="M9.62,12.19c-.63,0-1.14-.51-1.14-1.14s.51-1.14,1.14-1.14,1.14,.51,1.14,1.14-.51,1.14-1.14,1.14Zm0-1.67c-.3,0-.54,.24-.54,.54s.24,.54,.54,.54,.54-.24,.54-.54-.24-.54-.54-.54Z"/>
    <path d="M14.38,12.19c-.63,0-1.14-.51-1.14-1.14s.51-1.14,1.14-1.14,1.14,.51,1.14,1.14-.51,1.14-1.14,1.14Zm0-1.67c-.3,0-.54,.24-.54,.54s.24,.54,.54,.54,.54-.24,.54-.54-.24-.54-.54-.54Z"/>
  </g>
  <path d="M11.79,17.32c-.88,0-3-.54-3.68-3.16-.02-.09,0-.19,.05-.26,.06-.07,.14-.12,.24-.12h6.8c.08,0,.16,.03,.21,.09,.06,.06,.09,.14,.08,.22,0,.03-.13,3.16-3.56,3.22-.05,0-.1,0-.16,0Zm-2.98-2.93c.72,2.05,2.51,2.39,3.11,2.33,2.29-.04,2.83-1.64,2.95-2.33h-6.06Z"/>
</svg>
