<svg viewBox="0 0 24 24" fill="#000000" xmlns="http://www.w3.org/2000/svg">
  <path d="M17.76,16.92c-.58,0-.89-.23-1.14-.41-.22-.17-.4-.29-.78-.29s-.56,.13-.78,.29c-.25,.18-.56,.41-1.14,.41s-.89-.23-1.14-.41c-.22-.17-.4-.29-.78-.29s-.56,.13-.78,.29c-.25,.18-.56,.41-1.14,.41s-.89-.23-1.14-.41c-.22-.17-.4-.29-.78-.29s-.56,.13-.78,.29c-.25,.18-.56,.41-1.14,.41s-.89-.23-1.14-.41c-.22-.17-.4-.29-.78-.29-.17,0-.3-.13-.3-.3s.13-.3,.3-.3c.58,0,.89,.23,1.14,.41,.22,.17,.4,.29,.78,.29s.56-.13,.78-.29c.25-.18,.56-.41,1.14-.41s.89,.23,1.14,.41c.22,.17,.4,.29,.78,.29s.56-.13,.78-.29c.25-.18,.56-.41,1.14-.41s.89,.23,1.14,.41c.22,.17,.4,.29,.78,.29s.56-.13,.78-.29c.25-.18,.56-.41,1.14-.41s.89,.23,1.14,.41c.22,.17,.4,.29,.78,.29s.56-.13,.78-.29c.25-.18,.56-.41,1.14-.41,.17,0,.3,.13,.3,.3s-.13,.3-.3,.3c-.38,0-.56,.13-.78,.29-.25,.18-.56,.41-1.14,.41Z"/>
  <path d="M17.76,19.31c-.58,0-.89-.23-1.14-.41-.22-.17-.4-.29-.78-.29s-.56,.13-.78,.29c-.25,.18-.56,.41-1.14,.41s-.89-.23-1.14-.41c-.22-.17-.4-.29-.78-.29s-.56,.13-.78,.29c-.25,.18-.56,.41-1.14,.41s-.89-.23-1.14-.41c-.22-.17-.4-.29-.78-.29s-.56,.13-.78,.29c-.25,.18-.56,.41-1.14,.41-.17,0-.3-.13-.3-.3s.13-.3,.3-.3c.38,0,.56-.13,.78-.29,.25-.18,.56-.41,1.14-.41s.89,.23,1.14,.41c.22,.17,.4,.29,.78,.29s.56-.13,.78-.29c.25-.18,.56-.41,1.14-.41s.89,.23,1.14,.41c.22,.17,.4,.29,.78,.29s.56-.13,.78-.29c.25-.18,.56-.41,1.14-.41s.89,.23,1.14,.41c.22,.17,.4,.29,.78,.29,.17,0,.3,.13,.3,.3s-.13,.3-.3,.3Z"/>
  <path d="M10.64,12.25c-.08,0-.16-.03-.22-.08-.02-.03-.05-.06-.06-.1-.02-.04-.02-.08-.02-.12,0-.08,.03-.15,.08-.21,.11-.11,.32-.11,.43,0,.05,.06,.09,.13,.09,.21,0,.04-.01,.08-.03,.12,0,.04-.03,.07-.06,.1-.06,.05-.14,.08-.21,.08Z"/>
  <path d="M13.33,12.25c-.08,0-.16-.03-.21-.08-.06-.06-.09-.13-.09-.22,0-.07,.03-.15,.09-.21,.1-.11,.31-.11,.42,0,.06,.06,.09,.14,.09,.21,0,.08-.03,.16-.09,.22-.06,.05-.13,.08-.21,.08Z"/>
  <path d="M7.68,16.23c-.14,0-.26-.1-.29-.24l-.87-4.02c-.03-.14,.04-.28,.17-.34l5.17-2.24c.09-.04,.2-.03,.28,.02s.14,.15,.14,.25v4.8c0,.17-.13,.3-.3,.3s-.3-.13-.3-.3v-4.34l-4.53,1.96,.82,3.78c.03,.16-.07,.32-.23,.36-.02,0-.04,0-.06,0Z"/>
  <path d="M16.28,16.23s-.04,0-.06,0c-.16-.04-.26-.19-.23-.36l.82-3.78-4.53-1.96v4.34c0,.17-.13,.3-.3,.3s-.3-.13-.3-.3v-4.8c0-.1,.05-.2,.14-.25,.08-.06,.19-.06,.28-.02l5.17,2.24c.13,.06,.2,.2,.17,.34l-.87,4.02c-.03,.14-.15,.24-.29,.24Z"/>
  <path d="M8.42,11.43s-.02,0-.04,0c-.16-.02-.28-.17-.26-.33l.43-3.47c.02-.15,.15-.26,.3-.26h4.19c.17,0,.3,.13,.3,.3s-.13,.3-.3,.3h-3.92l-.4,3.21c-.02,.15-.15,.26-.3,.26Z"/>
  <path d="M15.55,11.43c-.15,0-.28-.11-.3-.26l-.4-3.21h-1.81c-.17,0-.3-.13-.3-.3s.13-.3,.3-.3h2.07c.15,0,.28,.11,.3,.26l.43,3.47c.02,.16-.1,.31-.26,.33-.01,0-.02,0-.04,0Z"/>
  <path d="M10.11,7.93s-.02,0-.04,0c-.16-.02-.28-.17-.26-.33l.17-1.35c.02-.15,.15-.26,.3-.26h.59v-1c0-.17,.13-.3,.3-.3h1.64c.17,0,.3,.13,.3,.3v1h.59c.15,0,.28,.11,.3,.26l.17,1.35c.02,.16-.1,.31-.26,.33-.17,0-.31-.1-.33-.26l-.13-1.08h-.63c-.17,0-.3-.13-.3-.3v-1h-1.04v1c0,.17-.13,.3-.3,.3h-.63l-.13,1.08c-.02,.15-.15,.26-.3,.26Z"/>
</svg>
