<?xml version="1.0" encoding="UTF-8"?>
<svg xmlns="http://www.w3.org/2000/svg" viewBox="0 0 24 24" fill="#000000">
  <defs>
    <style>
      .b{fill:#272525;}
    </style>
  </defs>
  <path d="M5.82,14.1c-1.16,0-2.1-.94-2.1-2.1s.94-2.1,2.1-2.1,2.1,.94,2.1,2.1-.94,2.1-2.1,2.1Zm0-3.6c-.83,0-1.5,.67-1.5,1.5s.67,1.5,1.5,1.5,1.5-.67,1.5-1.5-.67-1.5-1.5-1.5Z" class="b"/>
  <path d="M12,14.1c-1.16,0-2.1-.94-2.1-2.1s.94-2.1,2.1-2.1,2.1,.94,2.1,2.1-.94,2.1-2.1,2.1Zm0-3.6c-.83,0-1.5,.67-1.5,1.5s.67,1.5,1.5,1.5,1.5-.67,1.5-1.5-.67-1.5-1.5-1.5Z" class="b"/>
  <path d="M18.17,14.1c-1.16,0-2.1-.94-2.1-2.1s.94-2.1,2.1-2.1,2.1,.94,2.1,2.1-.94,2.1-2.1,2.1Zm0-3.6c-.83,0-1.5,.67-1.5,1.5s.67,1.5,1.5,1.5,1.5-.67,1.5-1.5-.67-1.5-1.5-1.5Z" class="b"/>
</svg>
