<?xml version="1.0" encoding="UTF-8"?>
<svg xmlns="http://www.w3.org/2000/svg" viewBox="0 0 24 24" fill="#000000">
  <defs>
    <style>
      .b{fill:#272525;}
    </style>
  </defs>
  <path d="M12,6.05c-.17,0-.3-.13-.3-.3v-1.45c0-.17,.13-.3,.29-.3,.17,0,.3,.13,.3,.3v1.45c0,.17-.13,.3-.29,.3h0Z" class="b"/>
  <path d="M16.4,7.88c-.08,0-.15-.03-.21-.09-.12-.12-.12-.31,0-.42l1-1.01c.12-.12,.31-.12,.42,0,.12,.12,.12,.31,0,.42l-1,1.01c-.06,.06-.14,.09-.21,.09Z" class="b"/>
  <path d="M19.64,12.3h-1.42c-.17,0-.3-.13-.3-.3s.13-.3,.3-.3h1.42c.17,0,.3,.13,.3,.3s-.13,.3-.3,.3Z" class="b"/>
  <path d="M17.41,17.72c-.08,0-.15-.03-.21-.09l-1-1c-.12-.12-.12-.31,0-.42s.31-.12,.42,0l1,1c.12,.12,.12,.31,0,.42-.06,.06-.14,.09-.21,.09Z" class="b"/>
  <path d="M12,19.99h0c-.17,0-.3-.14-.3-.3v-1.45c0-.17,.14-.3,.31-.3h0c.17,0,.3,.14,.3,.3v1.45c0,.17-.14,.3-.31,.3Z" class="b"/>
  <path d="M7.59,7.84c-.08,0-.15-.03-.21-.09l-1-1.01c-.12-.12-.12-.31,0-.42,.12-.12,.31-.12,.42,0l1,1.01c.12,.12,.12,.31,0,.42-.06,.06-.13,.09-.21,.09Z" class="b"/>
  <path d="M5.78,12.28h-1.42c-.17,0-.3-.13-.3-.3s.13-.3,.3-.3h1.42c.17,0,.3,.13,.3,.3s-.13,.3-.3,.3Z" class="b"/>
  <path d="M6.59,17.72c-.08,0-.15-.03-.21-.09-.12-.12-.12-.31,0-.42l1-1c.12-.12,.31-.12,.42,0s.12,.31,0,.42l-1,1c-.06,.06-.14,.09-.21,.09Z" class="b"/>
  <path d="M11.99,17.08c-2.83,0-5.13-2.3-5.13-5.13s2.3-5.13,5.13-5.13,5.13,2.3,5.13,5.13-2.3,5.13-5.13,5.13Zm0-9.65c-2.5,0-4.53,2.03-4.53,4.53s2.03,4.53,4.53,4.53,4.53-2.03,4.53-4.53-2.03-4.53-4.53-4.53Z" class="b"/>
</svg>
