<svg viewBox="0 0 24 24" fill="#000000" xmlns="http://www.w3.org/2000/svg">
  <path d="M8.67,7.91h0c.13,0,.24-.11,.24-.24,0-.08,0-.11,.02-.19,0-.02,0-.04,.01-.06,.1-.55,.41-.92,.96-1.12,.13-.05,.19-.19,.15-.31-.05-.13-.19-.19-.31-.15-.72,.26-1.15,.77-1.28,1.5,0,.02,0,.04-.01,.06-.02,.09-.03,.14-.03,.27,0,.13,.11,.24,.24,.25Z"/>
  <path d="M12.13,5.94l1.19,2.17s0,.01,.01,.02c.14,.21,.32,.33,.5,.35,.02,0,.04,0,.06,0,.12,0,.24-.05,.34-.14,0,0,0,0,.01-.01l1.43-1.48c.15-.14,.21-.34,.17-.54-.04-.2-.19-.36-.38-.42,0,0,0,0-.01,0l-2.63-.68s-.04,0-.06,0c-.22,0-.5,.08-.63,.29-.08,.13-.09,.29,0,.44,0,0,0,0,0,0Zm.6-.25l2.59,.67s.05,.04,.05,.06c0,.02,0,.05-.02,.08,0,0,0,0-.01,.01l-1.43,1.48s0,0,0,0c-.02,0-.08-.04-.15-.14l-1.17-2.12s.09-.04,.16-.04Z"/>
  <path d="M19.85,17.6c-.07-.42-.26-.81-.53-1.11-.26-.28-.57-.45-.91-.51-.02-.37-.06-.75-.12-1.11l1.52-1.86c.09-.1,.07-.26-.03-.34-.1-.09-.26-.07-.34,.03l-1.25,1.54c-.14-.74-.34-1.46-.59-2.17l1.2-1.87c.07-.11,.04-.26-.07-.34-.11-.07-.26-.04-.34,.07l-1.01,1.57c-.28-.69-.61-1.36-1-2l1.07-1.72c.07-.11,.04-.26-.08-.34s-.26-.04-.34,.08l-.95,1.52c-.26-.39-.52-.78-.82-1.15-.08-.11-.24-.12-.34-.04-.11,.08-.12,.24-.04,.34,.3,.37,.56,.76,.82,1.15l-2.18,.19c-.13,.01-.23,.13-.22,.26,.01,.13,.12,.22,.24,.22,0,0,.01,0,.02,0l2.42-.21c.39,.65,.72,1.33,.99,2.02l-2.24,.4c-.13,.02-.22,.15-.2,.28,.02,.12,.12,.2,.24,.2,.01,0,.03,0,.04,0l2.32-.41c.26,.73,.45,1.48,.58,2.25l-2.11,.14c-.13,0-.24,.13-.23,.26,0,.13,.12,.23,.24,.23,0,0,.01,0,.02,0l2.15-.15c.04,.32,.07,.64,.09,.97-.49,.09-.96,.41-1.19,.86-.25,.5-.34,.98-.28,1.56,0,.09,.06,.16,.15,.2,.03,.01,.06,.02,.1,.02,.05,0,.11-.02,.15-.05,.08-.06,.81-.52,1.33-.85,.13,.08,.34,.22,.55,.35,.2,.13,.35,.23,.47,.3,.07,.04,.12,.08,.16,.1,.06,.04,.22,.13,.36,0,.21-.22,.17-.64,.13-.88Zm-1.53-.35c-.08-.05-.18-.05-.26,0-.15,.1-.73,.45-1.12,.71,.02-.3,.1-.58,.24-.87,.18-.37,.6-.63,1.01-.63,0,0,.02,0,.03,0,.62,.02,1.06,.64,1.16,1.24,.02,.1,.02,.18,.03,.25-.26-.16-.69-.44-1.08-.69Z"/>
  <path d="M9.15,8.13c-.12,.05-.18,.2-.13,.32s.2,.18,.32,.13c.75-.32,1.62-.19,2.28,.35,.59,.48,.85,1.16,.72,1.81,0,.02,0,.04-.01,.07-.06,.33-.12,.46-.16,.51,0,0-.02-.01-.03-.02-.08-.06-.12-.18-.17-.33-.07-.22-.16-.49-.44-.65-.41-.22-.94-.16-1.29,.16-.03,.03-.06,.05-.08,.08-.03,.03-.06,.06-.09,.08-.23-.26-.56-.42-.9-.45-.36-.03-.72,.09-.99,.32-.07,.06-.13,.13-.19,.19-.08,.08-.15,.16-.24,.21-.04,.02-.08,.01-.09,0-.02,0-.05-.02-.06-.06-.11-.3-.33-.55-.62-.69-.25-.12-.55-.17-.89-.13-.4,.04-.86,.21-1.4,.54,0,0,0,0-.02,0,0,0,0,0,0,0,0-.94,.61-1.91,1.38-2.21,.95-.38,2.16,.03,2.69,.91,.07,.12,.22,.15,.33,.08,.12-.07,.15-.22,.08-.33-.31-.52-.83-.93-1.45-1.14-.62-.21-1.27-.2-1.84,.03-.95,.38-1.68,1.52-1.68,2.66,0,.18,.09,.34,.25,.43,.16,.09,.35,.09,.51,0,.12-.07,.21-.11,.32-.16,.57,.6,.87,.97,.91,1.94,.04,1.16-.32,1.94-.97,2.83-.06-.04-.13-.09-.18-.14-.15-.15-.36-.2-.56-.12-.2,.07-.33,.25-.34,.46-.04,.57,.11,1.09,.42,1.49,.52,.67,1.45,1.16,2.09,1.38,.25,.09,.5,.12,.74,.12,.29,0,.56-.04,.8-.08,.15-.02,.3-.05,.42-.06,.12,0,.3,.01,.49,.03,.38,.04,.81,.09,1.17-.03,.8-.25,1.46-.65,1.91-1.15,.53-.61,.73-1.44,.51-2.11-.03-.08-.09-.15-.16-.19-.08-.04-.17-.04-.25-.02-.05,.02-.1,.05-.14,.09-.1,.12-.24,.24-.39,.34-.66-.9-1.03-1.68-.98-2.85,.03-.86,.28-1.26,.73-1.75,.01,.03,.02,.05,.03,.09,.06,.19,.14,.41,.33,.57,.13,.1,.24,.13,.34,.13,.06,0,.11-.01,.15-.03,.32-.12,.42-.6,.47-.88,0-.02,0-.04,.01-.06,.17-.84-.16-1.69-.89-2.29-.8-.65-1.86-.81-2.78-.42Zm3.11,7.7c.04,.45-.13,.96-.48,1.35-.49,.56-1.19,.86-1.68,1.01-.27,.08-.65,.04-.98,0-.21-.02-.41-.04-.57-.03-.15,0-.3,.03-.47,.06-.4,.06-.86,.14-1.3-.01-.62-.21-1.44-.67-1.86-1.22-.24-.31-.35-.71-.32-1.16,0,0,0-.03,.03-.04,0,0,.01,0,.02,0,.02,0,.02,0,.03,.01,.23,.23,.52,.4,.83,.47,.31,.07,.64,.06,.95-.05,.11-.04,.21-.11,.31-.19,.06-.04,.15-.11,.19-.13,.04,.01,.09,.05,.14,.09,.02,.01,.03,.03,.05,.04,.3,.23,.77,.37,1.22,.38,.58,0,.8-.23,1.05-.51,.03-.04,.11-.05,.15-.01,.05,.04,.09,.09,.14,.14,.07,.08,.16,.17,.27,.24,.69,.44,1.7,.07,2.3-.44Zm-.96,.01c-.38,.15-.79,.2-1.07,.02-.06-.04-.11-.1-.17-.16-.06-.06-.12-.14-.21-.2-.24-.19-.6-.15-.81,.07-.23,.25-.32,.36-.69,.35-.34,0-.71-.11-.93-.28-.01-.01-.03-.02-.04-.03-.09-.07-.21-.16-.37-.19-.21-.04-.39,.1-.56,.22-.06,.04-.14,.11-.18,.12-.2,.07-.43,.08-.64,.04,.67-.92,1.05-1.79,1-3.05-.04-1.07-.39-1.57-.92-2.13,.14-.04,.28-.09,.4-.1,.26-.02,.47,0,.63,.08,.17,.08,.31,.24,.37,.42,.06,.16,.19,.29,.35,.35,.17,.06,.35,.04,.5-.05,.14-.08,.25-.2,.34-.3,.05-.06,.1-.11,.15-.15,.17-.15,.41-.22,.64-.21,.23,.02,.45,.14,.6,.31,.13,.16,.35,.2,.53,.11,.1-.05,.18-.13,.24-.19,.02-.02,.04-.04,.06-.06,.14-.13,.36-.18,.55-.15-.5,.54-.82,1.04-.86,2.07-.05,1.28,.35,2.15,1.04,3.09Z"/>
  <circle cx="14.47" cy="6.65" r=".3"/>
</svg>
