<svg viewBox="0 0 24 24" fill="#000000" xmlns="http://www.w3.org/2000/svg">
  <path d="M12.07,16.25c-2.01,0-3.65-1.64-3.65-3.65s1.64-3.65,3.65-3.65,3.65,1.64,3.65,3.65-1.64,3.65-3.65,3.65Zm0-6.69c-1.68,0-3.05,1.37-3.05,3.05s1.37,3.05,3.05,3.05,3.05-1.37,3.05-3.05-1.37-3.05-3.05-3.05Z"/>
  <path d="M18.82,18.95H5.18c-.58,0-1.05-.47-1.05-1.05V7.37c0-.58,.47-1.05,1.05-1.05h3.34l1.23-1.28h4.52l1.29,1.28h3.26c.58,0,1.05,.47,1.05,1.05v10.53c0,.58-.47,1.05-1.05,1.05ZM5.18,6.92c-.25,0-.45,.2-.45,.45v10.53c0,.25,.2,.45,.45,.45h13.64c.25,0,.45-.2,.45-.45V7.37c0-.25-.2-.45-.45-.45h-3.51l-1.29-1.28h-4.02l-1.23,1.28h-3.6Z"/>
</svg>
