<svg viewBox="0 0 24 24" fill="#000000" xmlns="http://www.w3.org/2000/svg">
  <path d="M18.82,19.89H5.18c-.58,0-1.05-.47-1.05-1.05V5.15c0-.58,.47-1.05,1.05-1.05h13.64c.58,0,1.05,.47,1.05,1.05v13.69c0,.58-.47,1.05-1.05,1.05ZM5.18,4.71c-.25,0-.45,.2-.45,.45v13.69c0,.25,.2,.45,.45,.45h13.64c.25,0,.45-.2,.45-.45V5.15c0-.25-.2-.45-.45-.45H5.18Z"/>
  <path d="M17.84,16.96H6.57c-.12,0-.22-.07-.27-.17s-.04-.23,.03-.32l2.65-3.36c.05-.07,.13-.11,.22-.11,.08,0,.17,.03,.23,.09l1.87,1.83,2.49-3.31c.06-.08,.17-.09,.24-.12,.09,0,.18,.04,.24,.12l3.8,4.87c.07,.09,.08,.21,.03,.32-.05,.1-.15,.17-.27,.17Zm-10.65-.6h10.04l-3.19-4.08-2.46,3.28c-.05,.07-.13,.11-.22,.12-.09,0-.17-.02-.23-.08l-1.88-1.84-2.06,2.61Z"/>
</svg>
