<svg xmlns="http://www.w3.org/2000/svg" viewBox="0 0 24 24" fill="#000000">
  <path d="M17.19,19.96H6.81c-.58,0-1.05-.47-1.05-1.05V5.09c0-.58,.47-1.05,1.05-1.05h6.92l4.5,4.49v10.38c0,.58-.47,1.05-1.05,1.05ZM6.81,4.64c-.25,0-.45,.2-.45,.45v13.82c0,.25,.2,.45,.45,.45h10.38c.25,0,.45-.2,.45-.45V8.78l-4.15-4.14H6.81Z"/>
  <path d="M17.69,8.85h-3.99c-.17,0-.3-.13-.3-.3v-3.89c0-.17,.13-.3,.3-.3s.3,.13,.3,.3v3.59h3.69c.17,0,.3,.13,.3,.3s-.13,.3-.3,.3Z"/>
  <g>
    <path d="M12.17,14.09c-.17,0-.3-.13-.3-.3v-4.77c0-.57-.47-1.04-1.04-1.04s-1.04,.47-1.04,1.04v4.77c0,.17-.13,.3-.3,.3s-.3-.13-.3-.3v-4.77c0-.9,.73-1.64,1.64-1.64s1.64,.73,1.64,1.64v4.77c0,.17-.13,.3-.3,.3Z"/>
    <path d="M12,17.52c-1.55,0-2.81-1.26-2.81-2.81v-4.78c0-.17,.13-.3,.3-.3s.3,.13,.3,.3v4.78c0,1.22,.99,2.21,2.21,2.21s2.21-.99,2.21-2.21v-4.78c0-.17,.13-.3,.3-.3s.3,.13,.3,.3v4.78c0,1.55-1.26,2.81-2.81,2.81Z"/>
  </g>
</svg>
