<svg viewBox="0 0 24 24" fill="#000000" xmlns="http://www.w3.org/2000/svg">
  <path d="M16.06,18.55H5.09c-.58,0-1.05-.47-1.05-1.05V6.5c0-.58,.47-1.05,1.05-1.05h10.97c.58,0,1.05,.47,1.05,1.05v11.01c0,.58-.47,1.05-1.05,1.05ZM5.09,6.05c-.25,0-.45,.2-.45,.45v11.01c0,.25,.2,.45,.45,.45h10.97c.25,0,.45-.2,.45-.45V6.5c0-.25-.2-.45-.45-.45H5.09Z"/>
  <path d="M15.38,16.14H6.1c-.12,0-.22-.07-.27-.17s-.04-.23,.03-.32l2.19-2.77c.05-.07,.13-.11,.22-.11,.09,0,.17,.03,.23,.09l1.5,1.47,2.01-2.68c.06-.07,.14-.12,.24-.12h0c.09,0,.18,.04,.24,.12l3.13,4.01c.07,.09,.08,.21,.03,.32-.05,.1-.15,.17-.27,.17Zm-8.66-.6H14.76l-2.51-3.22-1.98,2.64c-.05,.07-.13,.11-.22,.12-.09,0-.17-.02-.23-.08l-1.5-1.47-1.59,2.02Z"/>
  <path d="M19.66,14.47c-.17,0-.3-.13-.3-.3v-5.36l-2.34,2.12c-.12,.11-.31,.1-.42-.02-.11-.12-.1-.31,.02-.42l2.84-2.58c.09-.08,.21-.1,.32-.05,.11,.05,.18,.16,.18,.27v6.04c0,.17-.13,.3-.3,.3Z"/>
  <path d="M19.66,16.17c-.07,0-.15-.03-.2-.08l-2.84-2.58c-.12-.11-.13-.3-.02-.42,.11-.12,.3-.13,.42-.02l2.34,2.12v-5.36c0-.17,.13-.3,.3-.3s.3,.13,.3,.3v6.04c0,.12-.07,.23-.18,.27-.04,.02-.08,.03-.12,.03Z"/>
</svg>
