<svg viewBox="0 0 24 24" fill="#000000" xmlns="http://www.w3.org/2000/svg">
  <path d="M10.84,7.94c1.08,0,1.97-.88,1.97-1.97s-.88-1.97-1.97-1.97-1.97,.88-1.97,1.97,.88,1.97,1.97,1.97Zm0-3.33c.75,0,1.37,.61,1.37,1.37s-.61,1.37-1.37,1.37-1.37-.61-1.37-1.37,.61-1.37,1.37-1.37Z"/>
  <path d="M14.77,8.56c1.02,0,1.86-.83,1.86-1.86s-.83-1.86-1.86-1.86-1.86,.83-1.86,1.86,.83,1.86,1.86,1.86Zm0-3.12c.69,0,1.26,.56,1.26,1.26s-.56,1.26-1.26,1.26-1.26-.56-1.26-1.26,.56-1.26,1.26-1.26Z"/>
  <path d="M17.75,12.53h-1.17c-.67,.05-1.46,.38-1.46,1.69v1.64c0,.37,.21,.69,.54,.84v2.31s.01,.06,.02,.09c-.22,.34-.79,.38-1,.07-.05-.08-.15-.13-.25-.13-.09,.03-.19,.05-.25,.13-.11,.16-.29,.25-.5,.25-.35,0-.58-.25-.58-.65v-2.4c0-.16-.12-.29-.28-.3-.09,0-.23-.02-.31-.05,0,0-.03-.02-.03-.05l.71-3.24c.04-.16-.07-.32-.23-.36-.17-.04-.32,.07-.36,.23l-.37,1.69-.05-.02c-.31-.16-.46-.33-.46-.38,0-.02,.3-1.88,.76-3.36,.32-1.04,.55-1.07,1.21-1.13h1.62c.54,0,.9,.07,1.12,.33-.43,.26-.71,.72-.71,1.25,0,.8,.66,1.46,1.46,1.46s1.46-.66,1.46-1.46-.66-1.46-1.46-1.46c-.05,0-.1,.01-.15,.02-.42-.73-1.24-.74-1.71-.74h-1.65c-.05,0-.1,.01-.15,.02-.11-.07-.27-.19-.37-.25-.34-.21-.83-.34-1.31-.34h-1.22c-.65,0-1.14,.09-1.53,.28-.3-.36-.75-.6-1.26-.6-.91,0-1.64,.74-1.64,1.64s.74,1.64,1.64,1.64,1.64-.74,1.64-1.64c0-.18-.04-.36-.09-.52,.3-.14,.7-.2,1.24-.2h1.22c.26,0,.62,.07,.9,.21-.36,.21-.6,.58-.82,1.32-.46,1.51-.77,3.43-.77,3.43,0,.02,0,.07,0,.09,0,.43,.42,.75,.79,.94l.19,.09-.21,.97c-.05,.36,.17,.63,.41,.72,.06,.02,.12,.04,.2,.05v2.14c0,.09,.03,.16,.04,.24-.12,.25-.35,.4-.64,.4-.25,0-.47-.11-.6-.3-.06-.08-.15-.13-.25-.13h0c-.1,0-.19,.05-.25,.13-.28,.41-1,.4-1.27-.08,0,0-.01,0-.02-.01,0-.03,.02-.05,.02-.08v-2.75c.44-.17,.64-.57,.64-.94v-1.94c0-1.48-.9-1.86-1.68-1.92h-1.71s-.03-.05-.05-.06c-.15-.13-.32-.2-.52-.21-.35,0-.66,.25-.89,.44-.29,.23-.84,.67-.41,1.39,.04,.08,.13,.23,.27,.35,.08,.07,.18,.12,.29,.17v1.79c0,.43,.25,.78,.64,.93v2.75c0,.6,.49,1.09,1.09,1.09,.23,0,.45-.07,.63-.2,.18,.13,.4,.2,.63,.2,.33,0,.61-.15,.81-.38,.25,.24,.57,.38,.94,.38,.33,0,.63-.1,.86-.29,.23,.19,.53,.29,.85,.29,.36,0,.67-.14,.91-.37,.21,.24,.51,.38,.86,.38,.28,0,.53-.08,.74-.24,.2,.16,.45,.24,.72,.24,.29,0,.58-.12,.8-.31,.18,.19,.43,.31,.71,.31,.19,0,.37-.05,.53-.15,.16,.1,.34,.15,.53,.15,.55,0,.99-.44,.99-.99v-2.3c.37-.16,.54-.52,.54-.84v-1.64c0-1.31-.8-1.64-1.49-1.69Zm.29-1.58c0,.47-.39,.86-.86,.86s-.86-.39-.86-.86,.39-.86,.86-.86,.86,.39,.86,.86Zm-10.22-.38c-.58,0-1.04-.47-1.04-1.04s.47-1.04,1.04-1.04,1.04,.47,1.04,1.04-.47,1.04-1.04,1.04Zm-2.13,1.41c.14-.11,.38-.31,.51-.31,.05,0,.08,.02,.12,.05,.03,.03,.08,.11,.12,.18h0c.2,.33,.17,.69-.09,.89-.12,.09-.26,.15-.4,.14-.14,0-.29-.05-.38-.13-.05-.05-.11-.15-.14-.2-.15-.26-.09-.34,.26-.62Zm3.24,6.92c0,.27-.22,.49-.49,.49-.15,0-.3-.07-.39-.19-.11-.15-.37-.15-.48,0-.09,.12-.23,.19-.39,.19-.27,0-.49-.22-.49-.49v-2.98c0-.15-.11-.27-.26-.3-.14-.02-.38-.1-.38-.41v-1.69c.23-.02,.47-.1,.66-.25,.4-.32,.52-.82,.37-1.31h1.37c.78,.06,1.11,.45,1.11,1.32v1.94c0,.08-.03,.36-.38,.41-.15,.02-.26,.15-.26,.3v2.98Zm9.7-3.04c0,.08-.03,.28-.29,.32-.14,.02-.25,.15-.25,.3v2.53c0,.33-.48,.51-.7,.25-.06-.07-.14-.11-.23-.11s-.17,.04-.23,.11c-.22,.26-.69,.08-.69-.25v-2.53c0-.14-.1-.27-.25-.29-.18-.03-.29-.15-.29-.32v-1.64c0-.72,.27-1.04,.88-1.09h1.12c.64,.05,.92,.37,.92,1.09v1.64Z"/>
</svg>
