<svg viewBox="0 0 24 24" fill="#000000" xmlns="http://www.w3.org/2000/svg">
  <path d="M16.66,16.65v-3.2c0-.17-.13-.3-.3-.3s-.3,.13-.3,.3v3.2H7.76c-.17,0-.3,.13-.3,.3s.13,.3,.3,.3c.57,0,1.04,.47,1.04,1.04s-.47,1.04-1.04,1.04h-.29s-.03,.02-.04,.02c0,0,0,0,0,0-.11,0-1.09-.05-1.09-1.29V5.94s-.02-.66,.34-1.03c.17-.17,.39-.25,.68-.25h7.58s1.21,.14,1.21,1.22v2.01c0,.17,.13,.3,.3,.3s.3-.13,.3-.3v-2.01c0-1.3-1.15-1.76-1.78-1.82H7.36c-.46,0-.83,.15-1.12,.44-.53,.55-.5,1.43-.5,1.45v12.1c0,1.5,1.1,1.89,1.68,1.89,.02,0,.03-.02,.04-.02,0,0,0,0,0,0h9.14c.9,0,1.64-.73,1.64-1.64s-.71-1.61-1.6-1.63Zm-.04,2.67h-7.6c.23-.28,.38-.64,.38-1.04s-.15-.75-.38-1.04h7.6c.57,0,1.04,.47,1.04,1.04s-.47,1.04-1.04,1.04Z"/>
  <path d="M12.17,10.89c0-.17-.13-.3-.3-.3H7.53c-.17,0-.3,.13-.3,.3s.13,.3,.3,.3h4.33c.17,0,.3-.13,.3-.3Z"/>
  <path d="M13.73,8.76c0-.17-.13-.3-.3-.3H7.53c-.17,0-.3,.13-.3,.3s.13,.3,.3,.3h5.89c.17,0,.3-.13,.3-.3Z"/>
  <path d="M7.53,12.73c-.17,0-.3,.13-.3,.3s.13,.3,.3,.3h2.33c.17,0,.3-.13,.3-.3s-.13-.3-.3-.3h-2.33Z"/>
  <path d="M16.71,8.97c0-.17-.13-.3-.3-.3s-.3,.13-.3,.3v.21c-.12,.03-.24,.07-.33,.15-.17,.13-.27,.32-.28,.55,0,.03,0,.08,0,.1,0,.14,.02,.52,.52,.7,.11,.05,.22,.08,.34,.12,.46,.15,.53,.22,.51,.34-.03,.18-.09,.31-.57,.31-.2,0-.23-.02-.37-.07-.05-.02-.12-.05-.21-.08-.16-.06-.33,.03-.38,.19s.03,.33,.19,.38c.08,.03,.14,.05,.19,.07,.14,.05,.23,.08,.4,.1v.23c0,.17,.13,.3,.3,.3s.3-.13,.3-.3v-.26c.31-.07,.66-.26,.75-.78,.08-.67-.52-.87-.92-1-.1-.03-.2-.07-.31-.11-.13-.05-.13-.07-.14-.2,0-.08,.04-.11,.05-.12,.11-.08,.37-.08,.78,0,.09,.02,.14,.03,.2,.02,.16-.02,.28-.18,.25-.34-.02-.16-.17-.29-.34-.26-.08-.02-.2-.04-.33-.05v-.2Z"/>
</svg>
