<svg xmlns="http://www.w3.org/2000/svg" viewBox="0 0 24 24" fill="#000000">
  <path d="M12,19.91c-4.36,0-7.91-3.55-7.91-7.91s3.55-7.91,7.91-7.91,7.91,3.55,7.91,7.91-3.55,7.91-7.91,7.91Zm0-15.22c-4.03,0-7.31,3.28-7.31,7.31s3.28,7.31,7.31,7.31,7.31-3.28,7.31-7.31-3.28-7.31-7.31-7.31Z"/>
  <g>
    <path d="M9.62,12.19c-.63,0-1.14-.51-1.14-1.14s.51-1.14,1.14-1.14,1.14,.51,1.14,1.14-.51,1.14-1.14,1.14Zm0-1.67c-.3,0-.54,.24-.54,.54s.24,.54,.54,.54,.54-.24,.54-.54-.24-.54-.54-.54Z"/>
    <path d="M14.38,12.19c-.63,0-1.14-.51-1.14-1.14s.51-1.14,1.14-1.14,1.14,.51,1.14,1.14-.51,1.14-1.14,1.14Zm0-1.67c-.3,0-.54,.24-.54,.54s.24,.54,.54,.54,.54-.24,.54-.54-.24-.54-.54-.54Z"/>
  </g>
  <path d="M14.98,16.48s-.05,0-.08-.01l-6.61-1.76c-.16-.04-.26-.21-.21-.37,.04-.16,.21-.25,.37-.21l6.61,1.76c.16,.04,.26,.21,.21,.37-.04,.13-.16,.22-.29,.22Z"/>
</svg>
