<svg viewBox="0 0 24 24" fill="#000000" xmlns="http://www.w3.org/2000/svg">
  <path d="M11.24,9.6h4.75c.17,0,.3-.13,.3-.3s-.13-.3-.3-.3h-4.75c-.17,0-.3,.13-.3,.3s.13,.3,.3,.3Z"/>
  <path d="M9.73,8.66c-.35,0-.64,.29-.64,.64s.29,.64,.64,.64,.64-.29,.64-.64-.29-.64-.64-.64Zm0,.69v-.09s.04,.02,.04,.04l-.04,.04Z"/>
  <path d="M11.24,11.55h4.75c.17,0,.3-.13,.3-.3s-.13-.3-.3-.3h-4.75c-.17,0-.3,.13-.3,.3s.13,.3,.3,.3Z"/>
  <path d="M9.73,10.61c-.35,0-.64,.29-.64,.64s.29,.64,.64,.64,.64-.29,.64-.64-.29-.64-.64-.64Zm0,.69v-.09s.04,.02,.04,.04l-.04,.04Z"/>
  <path d="M11.24,13.5h4.75c.17,0,.3-.13,.3-.3s-.13-.3-.3-.3h-4.75c-.17,0-.3,.13-.3,.3s.13,.3,.3,.3Z"/>
  <path d="M9.73,12.55c-.35,0-.64,.29-.64,.64s.29,.64,.64,.64,.64-.29,.64-.64-.29-.64-.64-.64Zm0,.69v-.09s.04,.02,.04,.04l-.04,.04Z"/>
  <path d="M15.99,15.44c.17,0,.3-.13,.3-.3s-.13-.3-.3-.3h-4.75c-.17,0-.3,.13-.3,.3s.13,.3,.3,.3h4.75Z"/>
  <path d="M9.73,14.5c-.35,0-.64,.29-.64,.64s.29,.64,.64,.64,.64-.29,.64-.64-.29-.64-.64-.64Zm0,.69v-.09s.04,.02,.04,.04l-.04,.04Z"/>
  <path d="M16.55,5.51h-7.73c-.49,0-.89,.15-1.18,.46-.49,.51-.46,1.27-.46,1.28v10.95c0,1.38,1.12,1.74,1.71,1.74h5.89c.08,0,.15-.03,.2-.08,0,0,0,0,.01,0l3.25-3.25c.06-.06,.09-.13,.09-.21,0,0,.03-7.97,.03-9.21s-1.16-1.62-1.81-1.67ZM7.78,18.2V7.24s-.02-.53,.3-.86c.17-.18,.42-.27,.74-.27h7.71s1.23,.12,1.23,1.07c0,1.1-.03,7.46-.03,8.9-.02,0-.04-.03-.07-.03h-1.69c-.5,.09-1.46,.6-1.46,1.94,0,.72,0,1.12-.02,1.34h-5.61c-.11,0-1.11-.04-1.11-1.14Zm9.55-1.54l-2.23,2.23c0-.23,0-.52,0-.89,0-1.14,.86-1.33,.91-1.34h1.32Z"/>
  <path d="M15.24,4.66c.17,0,.3-.13,.3-.3s-.13-.3-.3-.3h-6.93c-1.47,0-2.66,1.19-2.66,2.66v10.96c0,.17,.13,.3,.3,.3s.3-.13,.3-.3V6.72c0-1.14,.92-2.06,2.06-2.06h6.93Z"/>
</svg>
