<svg viewBox="0 0 24 24" fill="#000000" xmlns="http://www.w3.org/2000/svg">
  <path d="M19.62,19.1H4.37c-.17,0-.3,.13-.3,.3s.13,.3,.3,.3h15.25c.17,0,.3-.13,.3-.3s-.13-.3-.3-.3Z"/>
  <path d="M19.62,17.54h-1.18s.05-.07,.05-.11V9.02c.81-.14,1.43-.85,1.43-1.7,0-.95-.78-1.73-1.73-1.73s-1.73,.78-1.73,1.73c0,.85,.62,1.56,1.43,1.7v8.4s.03,.08,.05,.11h-3.29c.15-.24,.23-.53,.23-.89v-5.96s1.26,0,1.26,0c.12,0,.22-.07,.27-.17,.05-.11,.03-.23-.04-.32l-4.84-5.71s-.44-.58-1.18-.63l-.02,.3-.07-.3s-.09,0-.1,0c-.75,.03-1.18,.61-1.18,.61l-4.85,5.72c-.08,.09-.09,.21-.04,.32,.05,.11,.16,.17,.27,.17h1.27v5.96c0,.36,.08,.65,.23,.89h-1.5c-.17,0-.3,.13-.3,.3s.13,.3,.3,.3h2.59s.09,0,.12,0c.06,0,.11,0,.15,0h6.07c.07,0,.16,0,.27,0h6.06c.17,0,.3-.13,.3-.3s-.13-.3-.3-.3Zm-2.56-10.22c0-.62,.51-1.13,1.13-1.13s1.13,.51,1.13,1.13-.51,1.13-1.13,1.13-1.13-.51-1.13-1.13ZM6.49,17.36c-.17-.14-.25-.38-.25-.71v-6.26c0-.08-.03-.16-.08-.21-.06-.06-.13-.09-.21-.09h-.92l4.44-5.25s.28-.37,.77-.38l.02-.3,.06,.3c.46,.03,.74,.38,.75,.4l4.43,5.23h-.92c-.08,0-.16,.03-.21,.09-.06,.06-.09,.13-.09,.21v6.25c0,.33-.08,.57-.25,.71-.14,.12-.32,.16-.48,.18h-.24s-.06,0-.07,0H7.23s-.02,0-.03,0h-.24c-.15-.01-.33-.06-.47-.18Z"/>
</svg>
