<svg viewBox="0 0 24 24" fill="#000000" xmlns="http://www.w3.org/2000/svg">
  <path d="M15.71,19.93H7.48c-.17,0-.3-.13-.3-.3s.13-.3,.3-.3H15.71c.17,0,.3,.13,.3,.3s-.13,.3-.3,.3Z"/>
  <path d="M16.62,19.93h-4.79c-.17,0-.3-.13-.3-.3s.13-.3,.3-.3h4.79c.57,0,1.04-.47,1.04-1.04s-.47-1.04-1.04-1.04H7.76c-.17,0-.3-.13-.3-.3s.13-.3,.3-.3h8.85c.9,0,1.64,.73,1.64,1.64s-.73,1.64-1.64,1.64Z"/>
  <path d="M7.76,19.93c-.17,0-.3-.13-.3-.3s.13-.3,.3-.3c.57,0,1.04-.47,1.04-1.04s-.47-1.04-1.04-1.04c-.17,0-.3-.13-.3-.3s.13-.3,.3-.3c.9,0,1.64,.73,1.64,1.64s-.73,1.64-1.64,1.64Z"/>
  <path d="M9.21,11.92c-.3-.01-.4-.05-.57-.11-.05-.02-.11-.04-.19-.07-.16-.05-.24-.22-.18-.38,.05-.16,.22-.24,.38-.18,.09,.03,.15,.06,.21,.08,.13,.05,.17,.06,.37,.07,.48,0,.54-.13,.57-.31,.02-.12-.05-.19-.52-.34-.12-.04-.23-.08-.34-.12-.5-.18-.51-.56-.52-.7,0-.03,0-.08,0-.1,.02-.23,.12-.42,.28-.55,.38-.29,1-.17,1.26-.11,.18-.01,.31,.1,.34,.27,.02,.17-.1,.32-.26,.34-.06,0-.1,0-.19-.02-.41-.08-.67-.08-.78,0-.01,0-.04,.03-.05,.1,0,.02,0,.05,0,.05,0,.09,0,.11,.14,.16,.1,.04,.21,.08,.3,.11,.4,.13,1,.33,.92,1-.14,.82-.92,.82-1.18,.82Z"/>
  <path d="M9.34,9.53c-.17,0-.3-.13-.3-.3v-.39c0-.17,.13-.3,.3-.3s.3,.13,.3,.3v.39c0,.17-.13,.3-.3,.3Z"/>
  <path d="M9.34,12.44c-.17,0-.3-.13-.3-.3v-.39c0-.17,.13-.3,.3-.3s.3,.13,.3,.3v.39c0,.17-.13,.3-.3,.3Z"/>
  <path d="M7.43,19.94c-.58,0-1.68-.4-1.68-1.89V5.95s-.03-.9,.5-1.45c.28-.29,.66-.44,1.12-.44h7.61c.64,.06,1.78,.52,1.78,1.82v10.85c0,.17-.13,.3-.3,.3s-.3-.13-.3-.3V5.88c0-1.08-1.16-1.21-1.21-1.22H7.36c-.29,0-.52,.08-.68,.26-.35,.37-.34,1.02-.34,1.03v12.11c0,1.24,.97,1.29,1.09,1.29,.17,0,.3,.14,.3,.3s-.13,.3-.3,.3Z"/>
  <path d="M10.48,8.31c-.06,0-.12-.02-.17-.05l-1.1-.78-.94,.73c-.09,.07-.21,.08-.32,.03-.1-.05-.17-.16-.17-.27v-3.49c0-.17,.13-.3,.3-.3s.3,.13,.3,.3v2.88l.63-.49c.11-.08,.25-.08,.36,0l.81,.58v-2.7c0-.17,.13-.3,.3-.3s.3,.13,.3,.3v3.28c0,.11-.06,.21-.16,.27-.04,.02-.09,.03-.14,.03Z"/>
</svg>
