<svg viewBox="0 0 24 24" fill="#000000" xmlns="http://www.w3.org/2000/svg">
  <path d="M19.91,18.17l-1.67-4.13c.31-.06,.65-.13,.82-.42,.17-.3,.05-.66-.07-.97-.06-.16-.14-.38-.11-.47,.02-.08,.2-.23,.32-.33,.26-.22,.56-.47,.56-.83s-.29-.61-.55-.83c-.12-.1-.3-.25-.32-.34-.02-.09,.06-.31,.11-.47,.11-.31,.24-.67,.07-.97-.18-.31-.55-.37-.88-.43-.17-.03-.4-.07-.46-.13-.06-.06-.1-.29-.13-.46-.06-.33-.12-.71-.43-.88-.3-.17-.66-.05-.97,.07-.16,.06-.38,.14-.47,.11-.08-.02-.23-.2-.33-.32-.22-.26-.47-.55-.83-.55s-.61,.29-.83,.55c-.1,.12-.25,.3-.34,.32-.08,.02-.31-.06-.47-.11-.31-.11-.67-.24-.97-.07-.31,.18-.37,.55-.43,.88-.03,.17-.07,.4-.13,.46s-.29,.1-.46,.13c-.33,.06-.71,.12-.88,.43-.17,.3-.05,.66,.07,.97,.06,.16,.14,.38,.11,.47-.02,.08-.2,.23-.32,.33-.26,.22-.56,.47-.56,.83s.29,.61,.56,.83c.13,.11,.3,.25,.32,.33,.02,.09-.06,.31-.11,.47-.11,.31-.24,.67-.07,.97,.17,.29,.5,.36,.82,.42l-1.67,4.13c-.04,.11-.02,.23,.05,.31,.08,.09,.19,.12,.3,.09l1.66-.46,.87,1.48c.05,.09,.15,.15,.26,.15,0,0,.01,0,.02,0,.11,0,.21-.08,.26-.19l1.43-3.55c.14,.12,.31,.22,.51,.22s.36-.09,.51-.22l1.43,3.55c.04,.11,.14,.18,.26,.19,0,0,.01,0,.02,0,.11,0,.2-.06,.26-.15l.87-1.48,1.66,.46c.11,.03,.23,0,.3-.09,.08-.08,.1-.21,.05-.31Zm-7.63,.59l-.68-1.16c-.07-.12-.2-.18-.34-.14l-1.29,.36,1.44-3.58c.04,.1,.07,.26,.1,.4,.06,.33,.12,.71,.43,.88,.3,.17,.66,.05,.97-.07,.16-.06,.38-.14,.47-.11,.05,.01,.13,.09,.2,.17l-1.31,3.24Zm2.26-3.14c-.08,0-.27-.22-.37-.34-.18-.22-.38-.45-.64-.52-.06-.02-.13-.02-.19-.02-.21,0-.43,.08-.64,.15-.13,.05-.4,.15-.47,.11-.06-.04-.11-.32-.14-.47-.05-.29-.1-.58-.3-.78-.2-.2-.49-.25-.78-.3-.14-.03-.43-.08-.47-.14-.04-.06,.06-.33,.11-.47,.1-.28,.2-.56,.13-.83-.07-.26-.3-.46-.52-.64-.12-.1-.34-.29-.34-.37s.22-.27,.34-.37c.22-.18,.45-.38,.52-.64,.07-.27-.03-.56-.13-.83-.05-.13-.15-.41-.11-.47,.04-.06,.32-.11,.47-.14,.29-.05,.58-.1,.78-.3,.2-.2,.25-.49,.3-.78,.03-.15,.08-.43,.14-.47,.06-.03,.33,.06,.47,.11,.28,.1,.56,.2,.83,.13,.26-.07,.46-.3,.64-.52,.1-.12,.29-.34,.37-.34s.27,.22,.37,.34c.18,.22,.38,.45,.64,.52,.27,.07,.56-.03,.83-.13,.13-.05,.41-.15,.47-.11,.06,.04,.12,.33,.14,.47,.05,.29,.1,.58,.3,.78s.49,.25,.78,.3c.15,.03,.43,.08,.47,.14,.04,.06-.06,.34-.11,.47-.1,.28-.2,.56-.13,.83,.07,.26,.3,.46,.52,.64,.12,.1,.34,.29,.34,.37s-.22,.27-.34,.37c-.22,.18-.45,.38-.52,.64-.07,.27,.03,.56,.13,.83,.05,.13,.15,.41,.11,.47-.04,.06-.33,.12-.47,.14-.29,.05-.58,.1-.78,.3-.2,.2-.25,.49-.3,.78-.03,.14-.08,.43-.14,.47-.06,.03-.34-.06-.47-.11-.28-.1-.56-.2-.83-.13-.26,.07-.46,.3-.64,.52-.1,.12-.29,.34-.37,.34Zm3.29,1.84c-.13-.04-.27,.02-.34,.14l-.68,1.16-1.31-3.24c.08-.08,.15-.16,.2-.17,.09-.02,.31,.06,.47,.11,.31,.11,.67,.24,.97,.07,.31-.18,.37-.55,.43-.88,.02-.13,.05-.3,.1-.4l1.44,3.59-1.29-.36Z"/>
  <path d="M16.18,13.32c.09-.07,.14-.18,.12-.29l-.25-1.47,1.06-1.04c.08-.08,.11-.2,.08-.31s-.13-.19-.24-.2l-1.47-.21-.66-1.33c-.05-.1-.16-.17-.27-.17s-.22,.06-.27,.17l-.66,1.33-1.47,.21c-.11,.02-.21,.1-.24,.2s0,.23,.08,.31l1.06,1.04-.25,1.47c-.02,.11,.03,.23,.12,.29,.05,.04,.11,.06,.18,.06,.05,0,.1-.01,.14-.03l1.32-.69,1.32,.69c.1,.05,.22,.04,.32-.02Zm-1.49-1.27c-.09-.04-.19-.04-.28,0l-.92,.48,.17-1.02c.02-.1-.02-.2-.09-.27l-.74-.72,1.03-.15c.1-.01,.18-.08,.23-.16l.46-.93,.46,.93c.04,.09,.13,.15,.23,.16l1.03,.15-.74,.72c-.07,.07-.1,.17-.09,.27l.18,1.02-.92-.48Z"/>
  <path d="M6.54,10.13c-.17,0-.3,.13-.3,.3s.13,.3,.3,.3h1.44c.17,0,.3-.13,.3-.3s-.13-.3-.3-.3h-1.44Z"/>
  <path d="M8.8,8.53c0-.17-.13-.3-.3-.3h-1.96c-.17,0-.3,.13-.3,.3s.13,.3,.3,.3h1.96c.17,0,.3-.13,.3-.3Z"/>
  <path d="M10.26,6.63c0-.17-.13-.3-.3-.3h-3.41c-.17,0-.3,.13-.3,.3s.13,.3,.3,.3h3.41c.17,0,.3-.13,.3-.3Z"/>
  <path d="M9.57,16.4c0-.17-.13-.3-.3-.3h-3.62c-.55,0-1-.41-1-.91V5.35c0-.5,.45-.91,1-.91H13.85c.55,0,1,.41,1,.91v.2c0,.17,.13,.3,.3,.3s.3-.13,.3-.3v-.2c0-.83-.72-1.51-1.6-1.51H5.64c-.88,0-1.6,.68-1.6,1.51V15.19c0,.83,.72,1.51,1.6,1.51h3.62c.17,0,.3-.13,.3-.3Z"/>
</svg>
