<svg viewBox="0 0 24 24" fill="#000000" xmlns="http://www.w3.org/2000/svg">
  <path d="M11.56,11.69c0-.17-.13-.3-.3-.3h-3.21c-.17,0-.3,.13-.3,.3s.13,.3,.3,.3h3.21c.17,0,.3-.13,.3-.3Z"/>
  <path d="M14.78,9.47c0-.17-.13-.3-.3-.3h-6.43c-.17,0-.3,.13-.3,.3s.13,.3,.3,.3h6.43c.17,0,.3-.13,.3-.3Z"/>
  <path d="M14.48,6.94h-6.43c-.17,0-.3,.13-.3,.3s.13,.3,.3,.3h6.43c.17,0,.3-.13,.3-.3s-.13-.3-.3-.3Z"/>
  <path d="M8.05,13.61c-.17,0-.3,.13-.3,.3s.13,.3,.3,.3h2.44c.17,0,.3-.13,.3-.3s-.13-.3-.3-.3h-2.44Z"/>
  <path d="M18.37,13.87c0-1.73-1.41-3.14-3.14-3.14s-3.14,1.41-3.14,3.14c0,1.02,.5,1.92,1.25,2.49v3.31c0,.11,.06,.21,.15,.26,.09,.05,.21,.05,.3,0l1.44-.83,1.44,.83s.1,.04,.15,.04,.1-.01,.15-.04c.09-.05,.15-.15,.15-.26v-3.31c.75-.57,1.25-1.47,1.25-2.49Zm-5.68,0c0-1.4,1.14-2.54,2.54-2.54s2.54,1.14,2.54,2.54-1.14,2.54-2.54,2.54-2.54-1.14-2.54-2.54Zm3.83,5.28l-1.14-.65c-.09-.05-.21-.05-.3,0l-1.14,.65v-2.42c.39,.18,.83,.29,1.29,.29s.9-.11,1.29-.28v2.42Z"/>
  <path d="M14.85,14.83c.06,.06,.13,.09,.21,.09s.15-.03,.21-.09l1.49-1.49c.12-.12,.12-.31,0-.42s-.31-.12-.42,0l-1.28,1.28-.55-.55c-.12-.12-.31-.12-.42,0s-.12,.31,0,.42l.76,.76Z"/>
  <path d="M12.67,18.25H7.22c-.54,0-.99-.49-.99-1.1V5.73c0-.61,.44-1.1,.99-1.1H15.33c.54,0,.99,.49,.99,1.1v4.59c0,.17,.13,.3,.3,.3s.3-.13,.3-.3V5.73c0-.94-.71-1.7-1.59-1.7H7.22c-.88,0-1.59,.76-1.59,1.7v11.42c0,.94,.71,1.7,1.59,1.7h5.46c.17,0,.3-.13,.3-.3s-.13-.3-.3-.3Z"/>
</svg>
