<svg viewBox="0 0 24 24" fill="#000000" xmlns="http://www.w3.org/2000/svg">
  <path d="M17.97,10.83h-.38c-.32,0-.53-.21-.53-.53v-.11c-.51-.05-.94-.17-1.29-.36-.27-.13-.38-.39-.27-.68l.24-.64c.07-.17,.17-.28,.3-.33,.09-.04,.23-.06,.42,.02,.31,.13,.63,.2,.92,.2,.11,0,.19,0,.26-.01-.1-.04-.21-.08-.34-.12-.25-.07-.45-.15-.62-.22-.17-.08-.35-.18-.54-.32-.21-.16-.37-.35-.48-.59-.1-.23-.16-.5-.16-.8,0-.65,.27-1.44,1.53-1.66v-.14c0-.32,.21-.53,.53-.53h.38c.32,0,.53,.21,.53,.53v.14c.39,.06,.71,.16,.96,.3,.27,.14,.37,.4,.27,.68l-.23,.61c-.12,.3-.39,.42-.69,.32-.29-.1-.65-.13-.95-.14,.09,.04,.19,.07,.31,.12l.35,.12c.09,.03,.2,.07,.34,.14,.16,.06,.28,.13,.37,.2,.07,.05,.16,.12,.26,.21,.12,.1,.21,.22,.27,.34,.06,.11,.1,.24,.14,.38,.04,.15,.06,.31,.06,.48,0,.51-.17,.92-.5,1.22-.25,.23-.57,.39-.94,.49v.18c0,.32-.21,.53-.53,.53Zm-.32-.6h.25s0-.36,0-.36c0-.15,.11-.27,.25-.3,.37-.06,.67-.19,.89-.39,.2-.18,.3-.44,.3-.78,0-.12-.01-.23-.04-.32h0c-.03-.1-.06-.18-.09-.25-.03-.05-.07-.11-.14-.16-.08-.07-.16-.13-.22-.18-.04-.03-.11-.07-.25-.13-.13-.05-.23-.09-.3-.12l-.35-.12c-.3-.1-.5-.18-.63-.25-.28-.15-.33-.34-.33-.48,0-.25,.16-.55,.92-.55,.36,0,.7,.05,1.02,.15l.2-.51c-.25-.13-.57-.21-.98-.26-.15-.02-.27-.15-.27-.3v-.33h-.25s0,.33,0,.33c0,.15-.12,.28-.27,.3-1.12,.12-1.26,.65-1.26,1.1,0,.21,.04,.4,.1,.55,.07,.14,.16,.26,.29,.35,.15,.11,.3,.2,.43,.26,.15,.07,.33,.13,.55,.2,.29,.09,.49,.17,.63,.23,.31,.15,.36,.37,.36,.48,0,.39-.36,.59-1.08,.59-.36,0-.72-.07-1.1-.22l-.2,.54c.35,.17,.78,.27,1.3,.3,.16,0,.28,.14,.28,.3v.32Z"/>
  <path d="M17.34,13.11c-.02-.06-.04-.12-.06-.17-.02-.05-.06-.09-.11-.13-.05-.04-.09-.08-.13-.1s-.09-.06-.16-.09c-.07-.03-.13-.05-.17-.07-.04-.01-.1-.04-.19-.07-.14-.05-.25-.09-.31-.12-.06-.03-.09-.07-.09-.12,0-.09,.11-.13,.33-.13,.18,0,.35,.03,.51,.08,.08,.03,.14,0,.17-.08l.12-.32c.03-.07,0-.13-.07-.16-.14-.08-.34-.13-.59-.16v-.21c0-.08-.04-.12-.12-.12h-.2c-.08,0-.12,.04-.12,.12v.21c-.54,.06-.81,.3-.81,.74,0,.14,.02,.26,.07,.36,.05,.1,.11,.19,.2,.25,.09,.07,.18,.12,.26,.16,.08,.04,.19,.07,.31,.11,.14,.04,.24,.08,.31,.11,.07,.03,.1,.07,.1,.11,0,.1-.14,.15-.41,.15-.18,0-.36-.04-.55-.12-.08-.03-.13,0-.17,.08l-.13,.34c-.03,.07,0,.13,.07,.16,.2,.1,.46,.17,.77,.18v.21c0,.08,.04,.12,.12,.12h.2c.08,0,.12-.04,.12-.12v-.23c.23-.04,.41-.12,.55-.25,.14-.13,.21-.3,.21-.53,0-.08,0-.15-.03-.21Z"/>
  <path d="M13.25,20H5.73c-.89,0-1.62-.73-1.62-1.62V9.67c0-.17,.13-.3,.3-.3H14.57c.17,0,.3,.13,.3,.3v8.72c0,.89-.73,1.62-1.62,1.62ZM4.71,9.97v8.42c0,.56,.46,1.02,1.02,1.02h7.52c.56,0,1.02-.46,1.02-1.02V9.97H4.71Z"/>
  <path d="M14.61,9.92H4.35c-.17,0-.3-.13-.3-.3v-3.43c0-.67,.54-1.21,1.21-1.21H13.71c.67,0,1.21,.54,1.21,1.21v3.43c0,.17-.13,.3-.3,.3Zm-9.96-.6H14.31v-3.13c0-.33-.27-.61-.61-.61H5.26c-.33,0-.61,.27-.61,.61v3.13Z"/>
  <path d="M6.55,11.21h-.65c-.25,0-.45,.22-.45,.48v.35c0,.27,.2,.48,.45,.48h.65c.25,0,.45-.22,.45-.48v-.35c0-.27-.2-.48-.45-.48Z"/>
  <path d="M6.55,13.12h-.65c-.25,0-.45,.22-.45,.48v.35c0,.27,.2,.48,.45,.48h.65c.25,0,.45-.22,.45-.48v-.35c0-.27-.2-.48-.45-.48Z"/>
  <path d="M6.55,15.03h-.65c-.25,0-.45,.22-.45,.48v.35c0,.27,.2,.48,.45,.48h.65c.25,0,.45-.22,.45-.48v-.35c0-.27-.2-.48-.45-.48Z"/>
  <path d="M6.55,16.95h-.65c-.25,0-.45,.22-.45,.48v.35c0,.27,.2,.48,.45,.48h.65c.25,0,.45-.22,.45-.48v-.35c0-.27-.2-.48-.45-.48Z"/>
  <path d="M8.71,11.21h-.65c-.25,0-.45,.22-.45,.48v.35c0,.27,.2,.48,.45,.48h.65c.25,0,.45-.22,.45-.48v-.35c0-.27-.2-.48-.45-.48Z"/>
  <path d="M8.71,13.12h-.65c-.25,0-.45,.22-.45,.48v.35c0,.27,.2,.48,.45,.48h.65c.25,0,.45-.22,.45-.48v-.35c0-.27-.2-.48-.45-.48Z"/>
  <path d="M8.71,15.03h-.65c-.25,0-.45,.22-.45,.48v.35c0,.27,.2,.48,.45,.48h.65c.25,0,.45-.22,.45-.48v-.35c0-.27-.2-.48-.45-.48Z"/>
  <path d="M8.71,16.95h-.65c-.25,0-.45,.22-.45,.48v.35c0,.27,.2,.48,.45,.48h.65c.25,0,.45-.22,.45-.48v-.35c0-.27-.2-.48-.45-.48Z"/>
  <path d="M10.86,11.21h-.65c-.25,0-.45,.22-.45,.48v.35c0,.27,.2,.48,.45,.48h.65c.25,0,.45-.22,.45-.48v-.35c0-.27-.2-.48-.45-.48Z"/>
  <path d="M10.86,13.12h-.65c-.25,0-.45,.22-.45,.48v.35c0,.27,.2,.48,.45,.48h.65c.25,0,.45-.22,.45-.48v-.35c0-.27-.2-.48-.45-.48Z"/>
  <path d="M10.86,15.03h-.65c-.25,0-.45,.22-.45,.48v.35c0,.27,.2,.48,.45,.48h.65c.25,0,.45-.22,.45-.48v-.35c0-.27-.2-.48-.45-.48Z"/>
  <path d="M10.86,16.95h-.65c-.25,0-.45,.22-.45,.48v.35c0,.27,.2,.48,.45,.48h.65c.25,0,.45-.22,.45-.48v-.35c0-.27-.2-.48-.45-.48Z"/>
  <path d="M13.23,12.53h-1.08c-.13,0-.23-.11-.23-.25v-.82c0-.14,.1-.25,.23-.25h1.08c.13,0,.23,.11,.23,.25v.82c0,.14-.1,.25-.23,.25Z"/>
  <path d="M13.23,7.6c-.14,0-.24,.04-.32,.12-.07,.08-.11,.19-.11,.33v.22c0,.14,.04,.25,.11,.33s.18,.12,.32,.12,.24-.04,.32-.12,.11-.19,.11-.34v-.22c0-.15-.04-.26-.11-.34-.07-.08-.18-.12-.32-.12Zm.13,.69s-.01,.09-.04,.11c-.02,.03-.06,.04-.1,.04s-.08-.01-.1-.04c-.02-.03-.03-.06-.03-.12v-.26s.01-.09,.03-.11c.02-.03,.06-.04,.1-.04s.07,.01,.1,.04c.02,.03,.04,.06,.04,.11v.26Z"/>
  <path d="M12.04 8.71 13.44 6.13 13.12 6.13 11.72 8.71 12.04 8.71z"/>
  <path d="M11.95,6.1c-.14,0-.24,.04-.32,.12-.07,.08-.11,.19-.11,.33v.22c0,.14,.04,.25,.11,.33,.07,.08,.18,.12,.32,.12s.24-.04,.32-.12c.08-.08,.11-.19,.11-.34v-.22c0-.15-.04-.26-.11-.34-.07-.08-.18-.12-.32-.12Zm.13,.69s-.01,.09-.04,.11c-.02,.03-.06,.04-.1,.04s-.08-.01-.1-.04c-.02-.03-.03-.06-.03-.12v-.26s.01-.09,.03-.11c.02-.03,.06-.04,.1-.04s.07,.01,.1,.04c.02,.03,.04,.06,.04,.11v.26Z"/>
  <path d="M13.23,14.44h-1.08c-.13,0-.23-.11-.23-.25v-.82c0-.14,.1-.25,.23-.25h1.08c.13,0,.23,.11,.23,.25v.82c0,.14-.1,.25-.23,.25Z"/>
  <path d="M13.17,18.27h-.95c-.16,0-.29-.14-.29-.32v-2.6c0-.18,.13-.32,.29-.32h.95c.16,0,.29,.14,.29,.32v2.6c0,.18-.13,.32-.29,.32Z"/>
</svg>
