<svg viewBox="0 0 24 24" fill="#000000" xmlns="http://www.w3.org/2000/svg">
  <path d="M16.39,19.99H7.79c-.7-.06-1.98-.52-1.98-1.83,0-1.38,.04-10.24,.04-10.24,0-.08,.03-.16,.09-.21l3.61-3.61c.06-.06,.13-.09,.21-.09h6.55c.64,0,1.86,.4,1.86,1.9v12.17s.03,.84-.5,1.41c-.31,.33-.75,.5-1.29,.5ZM6.45,8.05c0,1.08-.04,8.83-.04,10.11,0,1.08,1.35,1.22,1.4,1.23h8.57c.37,0,.65-.1,.85-.31,.36-.37,.34-.98,.34-.98V5.91c0-1.29-1.21-1.3-1.26-1.3h-6.43l-3.44,3.44Z"/>
  <path d="M6.56,8.26c-.17,0-.3-.13-.3-.3s.13-.3,.3-.3h1.82s1.04-.21,1.04-1.52c0-1.55,.03-1.83,.04-1.87,.03-.16,.19-.27,.35-.25,.16,.03,.27,.18,.25,.34,0,0-.03,.28-.03,1.78s-1.04,2.03-1.59,2.12h-1.87Z"/>
  <path d="M12.33,13.63c0-.17-.13-.3-.3-.3H7.7c-.17,0-.3,.13-.3,.3s.13,.3,.3,.3h4.33c.17,0,.3-.13,.3-.3Z"/>
  <path d="M13.89,11.5c0-.17-.13-.3-.3-.3H7.7c-.17,0-.3,.13-.3,.3s.13,.3,.3,.3h5.89c.17,0,.3-.13,.3-.3Z"/>
  <path d="M7.7,15.46c-.17,0-.3,.13-.3,.3s.13,.3,.3,.3h2.33c.17,0,.3-.13,.3-.3s-.13-.3-.3-.3h-2.33Z"/>
  <path d="M14.86,6.3c0-.17-.13-.3-.3-.3s-.3,.13-.3,.3v.21c-.12,.03-.24,.07-.33,.15-.17,.13-.27,.32-.28,.55,0,.03,0,.08,0,.1,0,.14,.02,.52,.52,.7,.11,.05,.22,.08,.34,.12,.46,.15,.53,.22,.51,.34-.03,.18-.09,.31-.57,.31-.2,0-.23-.02-.37-.07-.05-.02-.12-.05-.21-.08-.16-.06-.33,.03-.38,.19s.03,.33,.19,.38c.08,.03,.14,.05,.19,.07,.14,.05,.23,.08,.4,.1v.23c0,.17,.13,.3,.3,.3s.3-.13,.3-.3v-.26c.31-.07,.66-.26,.75-.78,.08-.67-.52-.87-.92-1-.1-.03-.2-.07-.31-.11-.13-.05-.13-.07-.14-.2,0-.08,.04-.11,.05-.12,.11-.08,.37-.08,.78,0,.09,.02,.14,.03,.2,.02,.16-.02,.28-.18,.25-.34-.02-.16-.17-.29-.34-.26-.08-.02-.2-.04-.33-.05v-.2Z"/>
</svg>
