<svg viewBox="0 0 24 24" fill="#000000" xmlns="http://www.w3.org/2000/svg">
  <path d="M19.87,13.75c-.31-.58-.78-1.04-1.35-1.35-.06-.53-.21-.99-.43-1.38-.02-.04-.06-.08-.1-.1-.04-.02-.91-.58-3.14-.76v-1.35c0-.17-.13-.3-.3-.3h-.72c-.17,0-.3,.13-.3,.3v1.29s-.06,0-.08,0c-.1-.54-.39-1.84-1.06-3.03,.05-.09,.07-.2,.07-.3v-.24c0-.37-.3-.68-.68-.68H6.53c-.37,0-.68,.3-.68,.68v.24c0,.16,.06,.32,.16,.44v2.84c-.74,.33-1.37,.85-1.84,1.51-.11,.15-.15,.34-.12,.52,.03,.18,.13,.34,.28,.45,.04,.03,.09,.04,.14,.06-.26,.51-.43,1.09-.43,1.7,0,1.32,.68,2.52,1.83,3.21,.6,.36,1.26,.54,1.92,.54s1.33-.19,1.92-.54c.41-.25,.76-.56,1.04-.92,.03,0,.05,.03,.08,.03h3.51s.05-.02,.08-.03c.23,.48,.58,.89,1.05,1.18,.43,.26,.91,.4,1.4,.4s.97-.14,1.4-.4c.83-.5,1.33-1.37,1.33-2.33,0-.27-.05-.52-.12-.77,.04-.01,.09-.01,.13-.03,.15-.08,.26-.22,.31-.38,.05-.17,.03-.34-.05-.49Zm-10.46,3.24c-1.02,.61-2.21,.61-3.23,0-.96-.58-1.54-1.59-1.54-2.7,0-1.74,1.41-3.15,3.15-3.15s3.15,1.42,3.15,3.15c0,1.11-.58,2.12-1.54,2.69Zm8.56,.26c-.68,.41-1.49,.41-2.17,0-.65-.39-1.04-1.07-1.04-1.82,0-1.17,.95-2.13,2.13-2.13s2.13,.95,2.13,2.13c0,.75-.39,1.43-1.04,1.82Zm-1.09-4.54c-1.5,0-2.73,1.22-2.73,2.73,0,.2,.03,.39,.08,.58h-3.1c.27-.52,.43-1.11,.43-1.72,0-2.07-1.68-3.75-3.75-3.75-1.2,0-2.26,.58-2.95,1.46,0,0-.02,0-.03,.02-.02,.03-.05,.04-.14,.02,0,0-.02-.14-.02-.14,.44-.62,1.05-1.1,1.77-1.38,.11-.05,.19-.16,.19-.28v-3.17c0-.1-.08-.26-.16-.31v-.24s.03-.08,.08-.08h5.26s.08,.03,.08,.08l-.03,.29c-.11,.09-.13,.25-.06,.38,.86,1.46,1.12,3.22,1.12,3.24,.02,.15,.15,.26,.3,.26,.22,0,.43,0,.63,.01,.07,0,.16-.03,.22-.08,.06-.06,.09-.13,.09-.22v-1.3h.12v1.33c0,.16,.12,.29,.28,.3,1.93,.12,2.85,.53,3.08,.65,.18,.34,.29,.76,.33,1.23,0,.11,.07,.2,.17,.24,.53,.26,.95,.67,1.22,1.24-.02,.01-.05,0-.06-.02-.01-.02-.04-.03-.06-.04-.48-.8-1.34-1.34-2.33-1.34Z"/>
  <path d="M12.65,10.62l-.04-.29c-.03-.19-.31-1.89-1.17-3.21-.06-.08-.15-.14-.25-.14h-3.66c-.17,0-.3,.13-.3,.3v2.6c0,.17,.13,.3,.3,.3h.22c1.27-.08,2.5,.52,3.22,1.57,.06,.08,.15,.13,.25,.13h1.15c.17,0,.3-.13,.3-.3v-.93s0-.02,0-.04Zm-1.29,.67c-.8-1.07-2.06-1.71-3.4-1.71-.05,0-.1,0-.14,0v-2h3.19c.74,1.22,.99,2.77,1,2.84l.04,.87h-.7Z"/>
  <path d="M16.93,14.61c-.41,0-.75,.34-.75,.75,0,.26,.14,.5,.37,.64,.12,.07,.25,.11,.38,.11s.26-.04,.39-.11c.23-.14,.36-.38,.36-.64,0-.41-.34-.75-.75-.75Zm.08,.88c-.05,.03-.1,.03-.15,0-.05-.03-.07-.08-.07-.13,0-.08,.07-.15,.15-.15s.15,.07,.15,.15c0,.05-.03,.1-.07,.13Z"/>
  <path d="M7.8,12.29c-1.1,0-2,.9-2,2,0,.7,.36,1.34,.97,1.71,.32,.19,.67,.29,1.02,.29s.71-.1,1.02-.29c.61-.37,.98-1.01,.98-1.71,0-1.1-.9-2-2-2Zm.72,3.2c-.45,.27-.98,.27-1.43,0-.43-.26-.68-.71-.68-1.2,0-.77,.63-1.4,1.4-1.4s1.4,.63,1.4,1.4c0,.49-.26,.94-.69,1.2Z"/>
</svg>
