<svg xmlns="http://www.w3.org/2000/svg" viewBox="0 0 24 24" fill="#000000">
  <path d="M12,19.91c-4.36,0-7.91-3.55-7.91-7.91s3.55-7.91,7.91-7.91,7.91,3.55,7.91,7.91-3.55,7.91-7.91,7.91Zm0-15.22c-4.03,0-7.31,3.28-7.31,7.31s3.28,7.31,7.31,7.31,7.31-3.28,7.31-7.31-3.28-7.31-7.31-7.31Z"/>
  <path d="M15.17,16.3c-.1,0-.19-.04-.25-.13-.01-.02-1.26-1.79-2.94-1.83-1.03,0-1.98,.59-2.91,1.82-.1,.13-.29,.16-.42,.06-.13-.1-.16-.29-.06-.42,1.05-1.39,2.2-2.08,3.41-2.06,1.98,.04,3.36,2,3.42,2.09,.09,.14,.06,.32-.08,.42-.05,.04-.11,.05-.17,.05Z"/>
  <g>
    <g>
      <path d="M9.62,12.19c-.63,0-1.14-.51-1.14-1.14s.51-1.14,1.14-1.14,1.14,.51,1.14,1.14-.51,1.14-1.14,1.14Zm0-1.67c-.3,0-.54,.24-.54,.54s.24,.54,.54,.54,.54-.24,.54-.54-.24-.54-.54-.54Z"/>
      <path d="M14.38,12.19c-.63,0-1.14-.51-1.14-1.14s.51-1.14,1.14-1.14,1.14,.51,1.14,1.14-.51,1.14-1.14,1.14Zm0-1.67c-.3,0-.54,.24-.54,.54s.24,.54,.54,.54,.54-.24,.54-.54-.24-.54-.54-.54Z"/>
    </g>
    <path d="M10.36,10.96c-.1,0-.2-.05-.25-.14l-1.39-2.17c-.09-.14-.05-.33,.09-.41,.14-.09,.33-.05,.41,.09l1.39,2.17c.09,.14,.05,.33-.09,.41-.05,.03-.11,.05-.16,.05Z"/>
    <path d="M13.62,10.96c-.06,0-.11-.02-.16-.05-.14-.09-.18-.27-.09-.41l1.39-2.17c.09-.14,.27-.18,.41-.09,.14,.09,.18,.27,.09,.41l-1.39,2.17c-.06,.09-.15,.14-.25,.14Z"/>
  </g>
</svg>
