<svg viewBox="0 0 24 24" fill="#000000" xmlns="http://www.w3.org/2000/svg">
  <path d="M18.5,19.4h-2.18l1.15-6.93c.03-.16-.08-.32-.25-.34-.16-.03-.32,.08-.35,.25l-1.17,7.03h-3.36l.59-3.48c.01-.09,0-.18-.07-.24s-.14-.11-.23-.11h-2.36c-.15,0-.27,.1-.3,.25l-.61,3.5s.01,.05,.02,.08h-3.23l1.15-6.93c.03-.16-.08-.32-.25-.34-.16-.03-.32,.08-.35,.25l-1.17,7.03h-1.18c-.17,0-.3,.13-.3,.3s.13,.3,.3,.3h14.14c.17,0,.3-.13,.3-.3s-.13-.3-.3-.3Zm-7.98-3.23h1.76l-.55,3.23h-1.78l.57-3.23Z"/>
  <path d="M19.14,10.07c-.1-.13-.28-.17-.42-.07-.13,.1-.16,.28-.07,.42,1.64,2.27-.09,4.57-.17,4.66-.1,.13-.08,.32,.05,.42,.05,.04,.12,.06,.18,.06,.09,0,.18-.04,.24-.12,.02-.03,2.09-2.75,.18-5.38Z"/>
  <path d="M5.37,12.08c.05,.1,.16,.17,.27,.17,.05,0,.09,0,.13-.03l6.9-3.47,5.63,3.46c.14,.09,.33,.04,.41-.1,.09-.14,.04-.33-.1-.41l-5.77-3.55c-.09-.05-.2-.06-.29-.01l-7.05,3.55c-.15,.07-.21,.25-.13,.4Z"/>
  <path d="M13.51,12.01c-.15,0-.27,.11-.3,.25l-.29,1.88c-.01,.09,.01,.17,.07,.24,.06,.07,.14,.1,.23,.1h1.88c.15,0,.27-.11,.3-.25l.29-1.88c.01-.09-.01-.17-.07-.24s-.14-.1-.23-.1h-1.88Zm1.33,1.88h-1.27l.2-1.28h1.27l-.2,1.28Z"/>
  <path d="M9.21,8.05c.37,.14,.75,.22,1.13,.22,.47,0,.94-.11,1.42-.33,.15-.07,.22-.25,.15-.4-.07-.15-.25-.21-.4-.15-.7,.32-1.4,.36-2.08,.1-1.82-.7-2.94-3.28-2.96-3.31-.07-.15-.24-.22-.39-.16-.15,.06-.22,.24-.16,.39,.05,.12,1.23,2.84,3.29,3.63Z"/>
  <path d="M8.88,9.26s.04,0,.05,0c.14,0,.27-.1,.29-.25,.03-.16-.08-.32-.24-.35-2.92-.53-4.31-4.38-4.32-4.42-.06-.16-.23-.24-.38-.18-.16,.06-.24,.23-.18,.38,.06,.17,1.51,4.21,4.78,4.81Z"/>
  <path d="M7.3,10.19s.03,0,.05,0c.14,0,.27-.1,.29-.25,.03-.16-.08-.32-.24-.35-1.62-.28-2.6-1.96-2.75-2.31,0-.06-.04-.12-.08-.16-.09-.09-.23-.12-.35-.06-.12,.06-.18,.19-.16,.32,.03,.18,1.11,2.44,3.25,2.81Z"/>
</svg>
