<svg viewBox="0 0 24 24" fill="#000000" xmlns="http://www.w3.org/2000/svg">
  <path d="M18.63,17.19h-1.5V8.55c-.34-3.48-3.89-4.47-5.08-4.42-4.92,.15-5.19,4.94-5.2,5v8.06h-1.5c-.17,0-.3,.13-.3,.3v2.07c0,.17,.13,.3,.3,.3h13.27c.17,0,.3-.13,.3-.3v-2.07c0-.17-.13-.3-.3-.3ZM7.46,9.15c0-.17,.24-4.28,4.62-4.41,1.04-.04,4.16,.82,4.45,3.85v8.61H7.46V9.15Zm10.87,10.12H5.67v-1.47h12.67v1.47Z"/>
  <path d="M13.86,9.32h-1.36v-1.63c0-.17-.13-.3-.3-.3s-.3,.13-.3,.3v1.63h-1.36c-.17,0-.3,.13-.3,.3s.13,.3,.3,.3h1.36v4.19c0,.17,.13,.3,.3,.3s.3-.13,.3-.3v-4.19h1.36c.17,0,.3-.13,.3-.3s-.13-.3-.3-.3Z"/>
</svg>
