<svg viewBox="0 0 24 24" fill="#000000" xmlns="http://www.w3.org/2000/svg">
  <path d="M18.62,16.57c0-.17-.13-.3-.3-.3h-2.16c-.17,0-.3,.13-.3,.3s.13,.3,.3,.3h2.16c.17,0,.3-.13,.3-.3Z"/>
  <path d="M18.32,14.32h-2.16c-.17,0-.3,.13-.3,.3s.13,.3,.3,.3h2.16c.17,0,.3-.13,.3-.3s-.13-.3-.3-.3Z"/>
  <path d="M18.32,12.37h-2.16c-.17,0-.3,.13-.3,.3s.13,.3,.3,.3h2.16c.17,0,.3-.13,.3-.3s-.13-.3-.3-.3Z"/>
  <path d="M17.49,11.03c.1,0,.2-.05,.26-.15,0,0,0,0,0-.01l.75-.9c.11-.13,.09-.32-.04-.42-.13-.11-.32-.09-.42,.04l-.63,.75-1.5-.87c-.14-.08-.33-.04-.41,.11-.08,.14-.03,.33,.11,.41l1.73,1.01s.1,.04,.15,.04Z"/>
  <path d="M19.98,7.6c0-.08-.03-.15-.08-.21l-3.08-3.25s-.02,0-.03-.01c-.03-.03-.07-.03-.11-.05-.03-.01-.05-.04-.09-.04h-6.45c-.17,0-.3,.13-.3,.3s.13,.3,.3,.3h6.16c0,.22,.02,.62,.02,1.34,0,1.34,.91,1.85,1.44,1.94h1.55s.03-.02,.05-.02c0,1.6,.03,9.22,.03,10.33,0,.95-1.11,1.07-1.13,1.07h-1.71c-.17,0-.3,.13-.3,.3s.13,.3,.3,.3h1.74c.59-.06,1.7-.48,1.7-1.67s-.03-10.64-.03-10.64Zm-3.04-1.61c0-.36,0-.64,0-.86l2.08,2.2h-1.19s-.89-.17-.89-1.34Z"/>
  <path d="M9.82,12.78c1.31,0,2.37-1.06,2.37-2.37s-1.06-2.37-2.37-2.37-2.37,1.06-2.37,2.37,1.06,2.37,2.37,2.37Zm0-4.14c.98,0,1.77,.79,1.77,1.77s-.79,1.77-1.77,1.77-1.77-.79-1.77-1.77,.79-1.77,1.77-1.77Z"/>
  <path d="M6.42,14.07c.11,0,.22-.06,.27-.17,0-.01,.49-1,1.1-1.44,.13-.1,.16-.28,.07-.42-.1-.14-.29-.16-.42-.07-.74,.53-1.27,1.62-1.29,1.67-.07,.15,0,.33,.14,.4,.04,.02,.09,.03,.13,.03Z"/>
  <path d="M11.64,12.03c-.1,.13-.07,.32,.07,.42,.61,.44,1.1,1.43,1.1,1.44,.05,.11,.16,.17,.27,.17,.04,0,.09,0,.13-.03,.15-.07,.21-.25,.14-.4-.02-.05-.55-1.14-1.29-1.67-.13-.1-.32-.07-.42,.07Z"/>
  <path d="M14.95,16.67c-.21-.33-1.78-2.62-2.73-3.07l-.08-.04c-.74-.35-1.04-.5-2.36-.48,0,0-.01,0-.02,.01,0,0-.01-.01-.02-.01-1.31-.01-1.62,.13-2.37,.48l-.08,.04c-.95,.45-2.52,2.74-2.73,3.07-.05,.08-.11,.16-.16,.24-.29,.42-.65,.95-.06,1.71,.3,.35,.68,.46,1.04,.46s.7-.12,.91-.24c.03-.02,.31-.2,.68-.45v1.28c0,.17,.13,.3,.3,.3s.3-.13,.3-.3v-1.69c.43-.3,.86-.62,1.14-.86,.76-.69,.31-1.35,.17-1.56l-.08-.1c-.08-.09-.17-.15-.26-.2l-.07-1.5c.3-.07,.65-.1,1.27-.09h0s.02-.01,.03-.01c.01,0,.02,.01,.03,.01h0c.62,0,.97,.02,1.27,.09l-.07,1.5c-.09,.05-.18,.12-.26,.2-.01,.01-.06,.09-.08,.1-.15,.21-.6,.87,.17,1.56,.27,.24,.71,.56,1.13,.86v1.69c0,.17,.13,.3,.3,.3s.3-.13,.3-.3v-1.28c.37,.25,.66,.44,.69,.46,.2,.11,.53,.23,.88,.23s.75-.12,1.05-.48c.58-.75,.22-1.27-.07-1.7-.05-.08-.11-.16-.16-.24Zm-6.66,0c-.28,.25-.76,.6-1.21,.91-.01,.01-.03,.01-.04,.03-.56,.39-1.07,.71-1.07,.71-.03,.02-.75,.4-1.17-.09-.31-.4-.19-.57,.09-.99,.06-.08,.12-.17,.17-.26,.33-.53,1.17-1.67,1.85-2.35l.08,.89-.84,.56c-.14,.09-.17,.28-.08,.42,.09,.14,.28,.17,.42,.08l1.01-.68c.05-.04,.51-.38,.81-.07l.05,.07c.16,.23,.3,.44-.07,.77Zm-.38-1.56c-.12,0-.24,.03-.35,.07l-.1-1.02s.04-.03,.06-.04l.08-.04c.09-.04,.17-.08,.24-.11l.05,1.14Zm3.97-1.03l.09,.04s.04,.03,.06,.04l-.1,1.02c-.11-.04-.22-.06-.35-.07l.05-1.14c.07,.03,.15,.07,.24,.11Zm2.84,4.13c-.44,.5-1.15,.12-1.17,.12,0,0-.52-.34-1.08-.73-.01-.01-.02-.01-.03-.02-.45-.31-.93-.66-1.21-.91-.37-.34-.24-.54-.07-.78v-.03c.36-.36,.81-.02,.88,.04l.99,.66c.14,.09,.32,.06,.42-.08,.09-.14,.06-.32-.08-.42l-.84-.56,.08-.89c.68,.68,1.52,1.82,1.85,2.35,.06,.09,.12,.18,.17,.26,.29,.42,.4,.59,.1,.98Z"/>
</svg>
