<svg viewBox="0 0 24 24" fill="#000000" xmlns="http://www.w3.org/2000/svg">
  <path d="M18.92,7.37h-2.27v-.35c0-.17-.13-.3-.3-.3h-3.38c-.17,0-.3,.13-.3,.3v.35h-2.27c-1.69,0-3.06,1.37-3.06,3.06v1.5c0,1.01,.5,1.9,1.26,2.46h-1.37c-.08,0-.15,.03-.21,.09-.07-.09-.15-.17-.23-.25,0-.02,.02-.03,.02-.05v-4.11s.08-.47-.18-.8c-.18-.23-.47-.34-.84-.34H3.4c-.12,0-.23,.07-.28,.18l-1.06,2.53s-.02,.08-.02,.12v3.55c0,.07,.02,.14,.07,.19l.51,.6c.06,.07,.14,.11,.23,.11h1.22c.27,.62,.88,1.06,1.6,1.06s1.34-.44,1.6-1.06h7.06c.27,.62,.88,1.06,1.6,1.06s1.34-.44,1.6-1.06h2.39c.17,0,.3-.13,.3-.3s-.13-.3-.3-.3h-.69v-.48c0-.07-.03-.12-.07-.17,1.56-.13,2.8-1.43,2.8-3.03v-1.5c0-1.69-1.37-3.06-3.06-3.06ZM3.6,9.53h2.21c.13,0,.3,.02,.37,.12,.09,.11,.06,.29,.05,.36v1.82H2.64s.96-2.29,.96-2.29Zm.33,6s0,.05,0,.08h-.95l-.35-.41v-2.78h3.6v1.46c-.18-.06-.37-.1-.57-.1-.96,0-1.74,.78-1.74,1.74Zm1.74,1.14c-.63,0-1.14-.51-1.14-1.14s.51-1.14,1.14-1.14,1.14,.51,1.14,1.14-.51,1.14-1.14,1.14Zm1.65-1.69h2.66s-.05,.07-.05,.12v.5h-2.52s0-.05,0-.08c0-.19-.04-.37-.1-.54Zm3.21,.63v-.5s-.03-.08-.05-.12h.25s0,0,0,0h3.55c-.06,.17-.1,.36-.1,.55,0,.03,0,.05,0,.08h-3.68Zm5.41,1.06c-.63,0-1.14-.51-1.14-1.14s.51-1.14,1.14-1.14,1.14,.51,1.14,1.14-.51,1.14-1.14,1.14Zm1.74-1.06s0-.05,0-.08c0-.19-.04-.37-.1-.55h1.12s-.06,.09-.06,.15v.48h-.97Zm3.7-3.69c0,1.35-1.1,2.46-2.46,2.46h-1.68c-.32-.36-.78-.6-1.3-.6s-.98,.23-1.3,.6h-4.22c-1.35,0-2.46-1.1-2.46-2.46v-1.5c0-1.35,1.1-2.46,2.46-2.46h2.57c.17,0,.3-.13,.3-.3v-.35h2.78v.35c0,.17,.13,.3,.3,.3h2.57c1.35,0,2.46,1.1,2.46,2.46v1.5Z"/>
</svg>
