<svg viewBox="0 0 24 24" fill="#000000" xmlns="http://www.w3.org/2000/svg">
  <path d="M16.64,18.19h-1.11c-.09,0-.18-.04-.24-.12-.06-.08-.08-.17-.05-.26l.19-.67,.03-.93c0-.09,.05-.18,.12-.23l.41-.3,.27-.15-.17-.14-.26,.07s-.07,.01-.11,0l-1.86-.19c-.09,0-.16-.05-.21-.13l-1.05-1.48-2.08-1.5-.74-.25c-.09-.03-.17-.11-.19-.2l-.09-.32-1.39-.13-1.36-.23-1.37-.38-1.83-.1c-.15,0-.27-.12-.28-.27l-.04-.41,.04-.68,.11-1.09,.27-1.01c.03-.12,.13-.2,.25-.22l.82-.11c.05,0,.11,0,.16,.02l.98,.42h.9l1.87,.34s.07,.02,.1,.04l.64,.37,1.3,.07c.05,0,.1,.02,.15,.05l.37,.24,.24-.13-.16-.63c-.03-.11,0-.22,.09-.3l.48-.45c.06-.05,.13-.08,.2-.08h1.05c.64-.78,.76-.78,.88-.78,.06,0,.17,0,.75,.29l1.24-.21c.08-.01,.17,0,.24,.07l.78,.66,1.07-.82s.11-.06,.17-.06l1.89-.07c.16,0,.28,.1,.31,.24l.15,.78s0,.09,0,.13l-.42,1.58,.3,.8s.02,.06,.02,.09c0,.06,.04,.63,0,.92-.02,.11,.05,.39,.09,.54,.04,.16,.06,.23,.06,.31,0,.08,.08,.6,.15,1.07,0,.05,0,.1-.01,.14l-1.15,3.38c-.02,.05-.05,.1-.09,.14l-2.67,2.19c-.05,.04-.12,.07-.19,.07Zm-.72-.6h.62l2.52-2.07,1.1-3.23c-.06-.39-.14-.98-.14-1.09,0-.02-.02-.08-.04-.16-.08-.3-.14-.56-.11-.77,.02-.17,0-.57,0-.75l-.32-.85c-.02-.06-.02-.12,0-.18l.43-1.6-.09-.46-1.54,.06-1.19,.91c-.11,.08-.27,.08-.38,0l-.86-.73-1.2,.2c-.06,.01-.13,0-.18-.03-.18-.09-.39-.19-.52-.24-.13,.12-.37,.4-.56,.64-.06,.07-.14,.11-.23,.11h-1.07l-.26,.25,.18,.68c.03,.13-.02,.27-.14,.34l-.59,.33c-.1,.05-.22,.05-.31,0l-.45-.29-1.29-.07s-.09-.02-.13-.04l-.66-.38-1.77-.33h-.91s-.08,0-.12-.02l-.96-.41-.54,.07-.21,.77-.14,1.65v.11s1.65,.1,1.65,.1l1.4,.38,1.31,.22,1.58,.15c.12,.01,.23,.1,.26,.22l.11,.37,.63,.21s.06,.02,.08,.04l2.15,1.56s.05,.04,.07,.07l1,1.41,1.67,.17,.35-.1c.1-.03,.19,0,.27,.06l.63,.52c.08,.06,.12,.16,.11,.26-.01,.1-.07,.19-.16,.24l-.63,.33-.25,.19-.03,.86-.09,.36Z"/>
</svg>
