<svg viewBox="0 0 24 24" fill="#000000" xmlns="http://www.w3.org/2000/svg">
  <path d="M8.62,19.9c-.05,0-.1-.01-.15-.04-.07-.04-.12-.11-.14-.19l-.42-1.8c-.03-.13,.03-.26,.14-.33l.51-.29-.41-1.07c-.02-.05-.02-.11-.02-.16l.12-.65c.02-.09,.07-.17,.15-.21l1.41-.75-1.54-1.96-.18,.17s-.05,.04-.08,.05l-1.08,.46s-.06,.02-.09,.02l-1.5,.15c-.15,.02-.29-.09-.32-.24l-.5-2.38c-.01-.05,0-.11,0-.16l.92-2.8c.04-.11,.13-.18,.24-.2l.22-.04,.06-1.1c0-.14,.11-.26,.25-.28l1.37-.21-.42-1.24c-.03-.08-.02-.17,.02-.25,.04-.07,.12-.13,.2-.15l.73-.15c.15-.03,.31,.06,.35,.21l.32,1.11,1.21-.1c.15-.02,.29,.09,.32,.24l.37,1.84h.11s.07-.01,.11,0l1.03,.27,1.64-1.01c-.08-.18-.13-.39-.04-.58,.04-.09,.15-.25,.41-.27,.43-.04,1.66-.04,1.72-.04l1.17,.24c.14,.03,.24,.15,.24,.29,0,.16,.05,.45,.16,.54,.06,.05,.1,.11,.12,.16h1.11c.15,0,.27,.11,.3,.25l.08,.46c.01,.08,0,.16-.05,.22l-.28,.39,.16,.32c.14,.07,.15,.28,.17,.83,0,.22,.01,.41-.04,.54,.02,.05,.04,.12,.07,.23,.06,.21,.17,.24,.28,.26,.07,.01,.27,.06,.31,.27,.04,.22-.08,.3-.48,.57-.08,.05-.13,.09-.18,.12-.06,.09-.18,.15-.29,.22l-.83,.47c-.1,1.06-.34,1.15-.55,1.15-.2,0-1.36-.1-1.49-.12-.08,0-.14-.04-.2-.1l-.3-.33-.17,1.18c0,.05-.03,.11-.07,.15l-3.61,4.3c-.07,.08-.18,.12-.28,.1l-.56-.09,.03,.71c0,.14-.08,.26-.22,.3l-1.57,.46s-.06,.01-.08,.01Zm-.08-1.96l.3,1.28,1.05-.31-.03-.84c0-.09,.03-.18,.1-.24,.07-.06,.16-.09,.25-.07l.75,.12,3.44-4.1,.26-1.72c.02-.12,.1-.21,.21-.24,.11-.03,.23,0,.31,.09l.65,.72c.39,.03,.91,.08,1.17,.1,.04-.16,.09-.46,.11-.75,0-.1,.06-.19,.15-.24l1.01-.58c.07-.08,.18-.16,.33-.25-.12-.1-.22-.25-.29-.47-.11-.35-.17-.55-.05-.67,0-.04,0-.12,0-.24,0-.19-.01-.32-.02-.41l-.33-.67c-.05-.1-.04-.22,.02-.31l.31-.44v-.09h-.91c-.67,0-.79,0-.82-.27-.01-.11,.06-.22,.16-.29-.09-.17-.13-.35-.15-.49l-.89-.18s-1.01,0-1.49,.03c.03,.06,.06,.13,.1,.19,.05,.07,.06,.15,.05,.23-.02,.08-.07,.15-.14,.19l-2,1.23c-.07,.04-.15,.06-.23,.03l-1.1-.29-.33,.03c-.15,.02-.29-.09-.32-.24l-.37-1.85-1.19,.09c-.14,.03-.27-.08-.31-.22l-.31-1.08-.12,.03,.43,1.25c.03,.08,.02,.18-.03,.25s-.12,.13-.21,.14l-1.49,.23-.06,1.1c0,.14-.11,.26-.25,.28l-.28,.05-.84,2.55,.43,2.04,1.18-.12,.99-.42,.38-.35c.06-.06,.14-.09,.23-.08,.08,0,.16,.05,.21,.11l1.96,2.5c.05,.07,.08,.16,.06,.25-.02,.09-.07,.16-.15,.2l-1.6,.85-.08,.43,.47,1.23c.05,.14,0,.29-.13,.37l-.54,.31Z"/>
</svg>
