<svg viewBox="0 0 24 24" fill="#000000" xmlns="http://www.w3.org/2000/svg">
  <path d="M18.37,6.17H5.63c-.89,0-1.62,.72-1.62,1.62v8.43c0,.89,.72,1.62,1.62,1.62h12.73c.89,0,1.62-.72,1.62-1.62V7.79c0-.89-.72-1.62-1.62-1.62Zm-12.73,.6h12.73c.56,0,1.02,.46,1.02,1.02v.86H4.68s-.04,.02-.06,.03v-.89c0-.56,.46-1.02,1.02-1.02Zm12.73,10.46H5.63c-.56,0-1.02-.46-1.02-1.02v-6.99s.04,.03,.06,.03h14.7v6.96c0,.56-.46,1.02-1.02,1.02Z"/>
  <path d="M17.91,12.1h-4.11c-.17,0-.3,.13-.3,.3s.13,.3,.3,.3h4.11c.17,0,.3-.13,.3-.3s-.13-.3-.3-.3Z"/>
  <path d="M16.2,14.85h-2.56c-.17,0-.3,.13-.3,.3s.13,.3,.3,.3h2.56c.17,0,.3-.13,.3-.3s-.13-.3-.3-.3Z"/>
  <path d="M11.61,9.82H6.06c-.17,0-.3,.13-.3,.3v5.81c0,.17,.13,.3,.3,.3h5.56c.17,0,.3-.13,.3-.3v-5.81c0-.17-.13-.3-.3-.3Zm-.3,.6v3.89l-1.18-.29c.21-.28,.35-.62,.35-1,0-.91-.74-1.64-1.64-1.64s-1.64,.74-1.64,1.64c0,.37,.13,.72,.34,.99l-1.18,.29v-3.89h4.96Zm-3.52,2.6c0-.57,.47-1.04,1.04-1.04s1.04,.47,1.04,1.04-.47,1.04-1.04,1.04-1.04-.47-1.04-1.04Zm-1.44,2.6v-.7l1.62-.4s.06-.04,.09-.06c.23,.13,.49,.2,.77,.2s.53-.08,.76-.2c.03,.02,.05,.05,.08,.06l1.64,.4v.7H6.36Z"/>
</svg>
