<svg viewBox="0 0 24 24" fill="#000000" xmlns="http://www.w3.org/2000/svg">
  <path d="M19.22,10.85c0-.33-.24-.63-.54-.68l-1.01-.31-.99-.79c-.34-.28-.59-.41-1.05-.41h-1.36c-.35,0-.53,.11-.69,.21-.37,.23-.92,.74-1.12,.93l-.25,.04c-.34,.05-.59,.35-.59,.69v.93c0,.11,.05,.22,.13,.3l.4,.4c.08,.08,.19,.13,.31,.13h.13c.14,.38,.5,.65,.93,.65h0c.43,0,.79-.28,.93-.66h2.11c.14,.37,.5,.64,.93,.64h0c.27,0,.51-.1,.7-.29,.11-.11,.18-.23,.23-.37h.1c.12,0,.24-.05,.32-.14l.27-.3c.07-.08,.11-.18,.11-.28v-.7Zm-5.7,1.5h0c-.22,0-.4-.17-.4-.38,0-.1,.04-.19,.11-.27,.08-.08,.18-.12,.29-.12h0c.22,0,.4,.17,.4,.38,0,0,0,.02,0,.02,0,0,0,0,0,0,0,0,0,0,0,0-.02,.2-.18,.35-.39,.36Zm3.97-.01h0c-.22,0-.4-.17-.4-.38,0-.1,.04-.19,.11-.26,.08-.08,.18-.12,.29-.12h0c.11,0,.21,.04,.29,.12,.07,.07,.11,.17,.11,.26s-.04,.2-.11,.27c-.08,.07-.18,.12-.28,.12Zm.95-.66h0c-.05-.15-.12-.3-.23-.42-.19-.19-.44-.29-.71-.29h0c-.27,0-.52,.11-.71,.3-.12,.12-.19,.26-.23,.42h-2.08c-.12-.4-.49-.7-.94-.7h0c-.27,0-.52,.11-.71,.3-.12,.12-.19,.26-.23,.42h-.05s-.3-.3-.3-.3v-.86s.04-.09,.08-.1l.35-.06c.06,0,.11-.04,.16-.08,.26-.25,.78-.72,1.1-.92,.12-.08,.18-.11,.36-.11h1.36s0,0,0,0c.27,0,.38,.05,.67,.28l1.03,.83s.06,.04,.1,.05l1.09,.33s.08,.06,.08,.1v.63s-.17,.19-.17,.19Z"/>
  <path d="M15.69,16.65v-3.2c0-.17-.13-.3-.3-.3s-.3,.13-.3,.3v3.2H6.8c-.17,0-.3,.13-.3,.3s.13,.3,.3,.3c.57,0,1.04,.47,1.04,1.04s-.47,1.04-1.04,1.04h-.28s-.03,.02-.04,.02c0,0,0,0,0,0-.11,0-1.09-.05-1.09-1.29V5.94s-.02-.66,.33-1.02c.17-.17,.39-.26,.68-.26h7.58s1.21,.14,1.21,1.22v2.01c0,.17,.13,.3,.3,.3s.3-.13,.3-.3v-2.01c0-1.3-1.15-1.76-1.78-1.82H6.4c-.46,0-.84,.15-1.12,.44-.53,.55-.5,1.43-.5,1.45v12.1c0,1.5,1.1,1.89,1.68,1.89,.02,0,.03-.02,.04-.02,0,0,0,0,0,0H15.65c.9,0,1.64-.73,1.64-1.64s-.71-1.61-1.6-1.63Zm-.04,2.67h-7.6c.23-.28,.38-.64,.38-1.04s-.15-.75-.38-1.04h7.6c.57,0,1.04,.47,1.04,1.04s-.47,1.04-1.04,1.04Z"/>
  <path d="M6.53,11.19h3.73c.17,0,.3-.13,.3-.3s-.13-.3-.3-.3h-3.73c-.17,0-.3,.13-.3,.3s.13,.3,.3,.3Z"/>
  <path d="M11.9,8.76c0-.17-.13-.3-.3-.3H6.53c-.17,0-.3,.13-.3,.3s.13,.3,.3,.3h5.07c.17,0,.3-.13,.3-.3Z"/>
  <path d="M11.6,6.58H6.53c-.17,0-.3,.13-.3,.3s.13,.3,.3,.3h5.07c.17,0,.3-.13,.3-.3s-.13-.3-.3-.3Z"/>
  <path d="M11.6,12.39H6.53c-.17,0-.3,.13-.3,.3s.13,.3,.3,.3h5.07c.17,0,.3-.13,.3-.3s-.13-.3-.3-.3Z"/>
  <path d="M11.6,14.19H6.53c-.17,0-.3,.13-.3,.3s.13,.3,.3,.3h5.07c.17,0,.3-.13,.3-.3s-.13-.3-.3-.3Z"/>
</svg>
