<?xml version="1.0" encoding="UTF-8"?>
<svg xmlns="http://www.w3.org/2000/svg" viewBox="0 0 24 24" fill="#000000">
  <g>
    <path d="M5.69,17.57s-.06,0-.09-.02c-.16-.05-.24-.22-.19-.38,.13-.41,.26-.81,.38-1.2,.89-2.85,1.59-5.1,4.68-6.8l1.69-.93,.34-1.49c.14-.62,.37-1.21,.67-1.77,.24-.44,.58-.75,.98-.91,.76-.3,1.62-.08,2.13,.56l.13,.16,2.02,.39c.14,.03,.24,.15,.24,.29v.35s0,.09-.03,.13c-.33,.69-.94,1.21-1.67,1.43l-.8,.24c-.15,.51-.24,.95-.24,1.55,0,.17-.13,.3-.3,.3s-.3-.13-.3-.3c0-.73,.11-1.24,.31-1.88,.03-.1,.1-.17,.2-.2l.96-.29c.55-.16,1.01-.55,1.27-1.05v-.03l-1.89-.36c-.07-.01-.13-.05-.18-.11l-.2-.25c-.35-.43-.93-.58-1.45-.37-.27,.1-.51,.33-.68,.64-.28,.51-.48,1.05-.61,1.62l-.37,1.62c-.02,.08-.07,.15-.15,.19l-1.8,.99c-2.88,1.58-3.51,3.63-4.39,6.45-.12,.39-.25,.79-.38,1.21-.04,.13-.16,.21-.29,.21Z"/>
    <path d="M14.51,7.88c-.35,0-.67-.22-.79-.57l-.22-.61c-.06-.16,.02-.33,.18-.38,.15-.06,.33,.02,.38,.18l.22,.62c.04,.12,.15,.18,.27,.16,.1-.02,.18-.13,.18-.26,0-.04,0-1.46,0-1.51,0-.16,.14-.29,.3-.29h0c.17,0,.3,.14,.29,.3,0,.06,0,1.46,0,1.5,0,.41-.28,.76-.65,.84-.06,.01-.12,.02-.17,.02Z"/>
    <path d="M9.58,20.04h-3.32c-.56,0-1.12-.33-1.12-1.06v-.39c-.44-.43-1.81-2.26-.72-7.54,.03-.16,.19-.26,.35-.23,.16,.03,.27,.19,.23,.35-1.16,5.62,.57,7.02,.59,7.04,.07,.05,.12,.14,.12,.23l.02,.52c0,.41,.32,.47,.52,.47h3.32c.17,0,.3,.13,.3,.3s-.13,.3-.3,.3Z"/>
  </g>
  <g>
    <path d="M18.21,20.04h-1.08c-.17,0-.3-.13-.3-.3s.13-.3,.3-.3h.78v-.19c0-.18-.14-.32-.32-.32-.17,0-.3-.13-.3-.3l-.02-2.36c0-.07,.02-.14,.07-.19,.42-.5,1.46-1.75,.66-3.14-.03-.05-.04-.1-.04-.15v-.24c0-.15,.11-.28,.27-.3,.53-.03,1.15-.18,1.15-1.23,0-.17,.13-.3,.3-.3s.3,.13,.3,.3c0,1.02-.48,1.65-1.36,1.8,.79,1.61-.31,3.02-.75,3.56v2.01c.37,.12,.63,.47,.63,.87v.49c0,.17-.13,.3-.3,.3Z"/>
    <path d="M11.3,15.09s-.04,0-.05,0c-.16-.03-.27-.19-.24-.35,.31-1.7,1.6-2.6,3.85-2.67,.37-.01,.68-.29,.72-.64,.01-.11,.03-.23,.07-.36,.22-.9,.78-1.5,.93-1.65l.23-.4c.18-.3,.45-.54,.77-.67,.08-.03,.16-.03,.24,0,.08,.03,.13,.1,.16,.18l.29,.85,.87,.55s.08,.07,.11,.12l.25,.5,.35,.21c.14,.08,.19,.27,.1,.41-.08,.14-.27,.19-.41,.1l-.43-.25s-.09-.07-.12-.13l-.25-.51-.88-.56c-.06-.04-.1-.09-.12-.16l-.2-.6c-.08,.07-.15,.16-.21,.25l-.26,.43s-.03,.05-.06,.07c0,0-.58,.55-.79,1.38-.03,.11-.04,.2-.05,.29-.08,.65-.63,1.15-1.3,1.17-1.96,.06-3.03,.77-3.28,2.17-.03,.15-.15,.25-.29,.25Z"/>
    <path d="M11.03,18.55c-.05,0-.1-.01-.15-.04-.51-.3-.6-1-.29-2.08,.19-.65,.33-1.26,.43-1.83,.03-.16,.19-.27,.35-.25,.16,.03,.27,.18,.25,.35-.1,.59-.25,1.23-.44,1.9-.22,.74-.21,1.26,.02,1.39,.14,.08,.19,.27,.11,.41-.06,.09-.16,.15-.26,.15Z"/>
    <path d="M16.07,20.04h-3.86c-.49,0-1.21-.09-1.93-.51-.98-.57-1.25-1.73-.83-3.43,.37-1.46,.19-2.06-.02-2.31-.16-.19-.42-.26-.78-.23-.16,.03-.31-.11-.32-.27s.11-.31,.27-.32c.57-.05,1,.1,1.29,.44,.45,.53,.5,1.46,.15,2.85-.35,1.41-.17,2.34,.55,2.77,.6,.35,1.21,.42,1.62,.42h3.56v-.13c0-.21-.17-.38-.38-.38h-.99c-.17,0-.3-.13-.3-.3s.13-.3,.3-.3h.99c.54,0,.98,.44,.98,.98v.43c0,.17-.13,.3-.3,.3Z"/>
    <path d="M14.4,18.94c-.06,0-.13-.02-.18-.06-.13-.1-.16-.29-.05-.42,0,0,.65-.85,.43-1.61-.13-.44-.53-.78-1.19-1.03-.16-.06-.24-.23-.18-.39,.06-.16,.23-.23,.39-.18,.85,.31,1.38,.79,1.56,1.43,.3,1.05-.49,2.1-.53,2.14-.06,.08-.15,.12-.24,.12Z"/>
  </g>
</svg>
