<svg viewBox="0 0 24 24" fill="#000000" xmlns="http://www.w3.org/2000/svg">
  <path d="M15.22,15.74c-.08,0-.15-.03-.21-.09-.12-.12-.12-.31,0-.42l3.02-3.02c.05-.05,.08-.13,.07-.2,0-.04-.02-.1-.07-.16l-3.02-3.02c-.12-.12-.12-.31,0-.42,.12-.12,.31-.12,.42,0l3.02,3.02c.14,.14,.23,.33,.25,.53,.02,.25-.07,.5-.25,.68l-3.02,3.02c-.06,.06-.13,.09-.21,.09Z"/>
  <path d="M18.24,12.33H8.41c-.17,0-.3-.13-.3-.3s.13-.3,.3-.3h9.83c.17,0,.3,.13,.3,.3s-.13,.3-.3,.3Z"/>
  <path d="M11.7,19.23H7.59c-.72,0-1.29-.22-1.69-.64-.66-.7-.61-1.71-.61-1.75V7.35c0-1.89,1.43-2.52,2.18-2.58h4.47c.17,0,.3,.13,.3,.3s-.13,.3-.3,.3H7.51s-1.61,.18-1.61,1.98v9.51s-.04,.81,.45,1.32c.28,.3,.7,.45,1.25,.45h4.11c.17,0,.3,.13,.3,.3s-.13,.3-.3,.3Z"/>
</svg>
