<svg viewBox="0 0 24 24" fill="#000000" xmlns="http://www.w3.org/2000/svg">
  <path d="M12.29,19.2c-.75,0-1.49-.12-2.22-.35-1.83-.59-3.31-1.87-4.19-3.58-1.8-3.54-.39-7.88,3.14-9.68,1.49-.76,3.2-.98,4.83-.61,.14,.03,.23,.15,.23,.29,0,.14-.09,.26-.23,.29-1.74,.43-3.11,1.71-3.66,3.41-.88,2.71,.61,5.63,3.31,6.51h0c1.7,.55,3.53,.19,4.91-.96,.11-.09,.26-.09,.37-.01,.11,.08,.15,.23,.1,.36-.66,1.53-1.84,2.8-3.33,3.56-1.03,.52-2.14,.79-3.25,.79Zm0-13.81c-1.03,0-2.06,.24-2.99,.72-3.24,1.65-4.53,5.64-2.88,8.88,.8,1.57,2.16,2.74,3.84,3.28,1.67,.54,3.45,.4,5.02-.4,1.01-.51,1.86-1.28,2.48-2.21-1.36,.72-2.95,.86-4.44,.38-3.02-.98-4.67-4.24-3.69-7.26,.49-1.5,1.54-2.7,2.91-3.38-.08,0-.17,0-.25,0Z"/>
</svg>
