<svg viewBox="0 0 24 24" fill="#000000" xmlns="http://www.w3.org/2000/svg">
  <path d="M9.52,7.22c.82,0,1.48-.66,1.48-1.48,0-.11-.02-.21-.04-.31,0,0,0,0,0-.02v-1.23c0-.17-.13-.3-.3-.3h-2.31c-.17,0-.3,.13-.3,.3v1.23s.02,.03,.02,.05c-.02,.09-.04,.18-.04,.27,0,.82,.66,1.48,1.48,1.48Zm0-.6c-.49,0-.88-.4-.88-.88,0,0,0-.01,0-.02h1.76s0,.01,0,.02c0,.49-.4,.88-.88,.88Zm-.86-2.14h1.71v.63h-1.71v-.63Z"/>
  <path d="M16.44,9.37c.79,0,1.43-.64,1.43-1.43s-.64-1.43-1.43-1.43-1.43,.64-1.43,1.43,.64,1.43,1.43,1.43Zm0-2.26c.46,0,.83,.37,.83,.83s-.37,.83-.83,.83-.83-.37-.83-.83,.37-.83,.83-.83Z"/>
  <path d="M11.92,18.78c.17,0,.3-.13,.3-.3v-2.34c0-.17-.13-.3-.3-.3s-.3,.13-.3,.3v2.34c0,.17,.13,.3,.3,.3Z"/>
  <path d="M13.11,18.78c.17,0,.3-.13,.3-.3v-2.34c0-.17-.13-.3-.3-.3s-.3,.13-.3,.3v2.34c0,.17,.13,.3,.3,.3Z"/>
  <path d="M17.82,9.76h-2.65c-.52,0-1,.31-1.22,.78l-.57,1.23c-.05-.09-.13-.16-.24-.16h-.97v-2.89c0-.62-.47-1.12-1.07-1.21-.03-.01-.06-.04-.09-.04h-3.13s-.02,0-.03,.01c-.66,.03-1.19,.58-1.19,1.24v2.89h-1.54c-.17,0-.3,.13-.3,.3v7.53c0,.17,.13,.3,.3,.3s.3-.13,.3-.3v-7.23h7.71s.03-.02,.04-.02l-.49,1.06c-.09,.2-.07,.41,0,.61h-1.02c-.17,0-.3,.13-.3,.3s.13,.3,.3,.3h.19v.35h-.38c-.52,0-.95,.42-.95,.95v3.15c0,.52,.42,.95,.95,.95h2.03c.52,0,.95-.42,.95-.95v-3.15c0-.52-.42-.95-.95-.95h-.23v-.35h.16c.11,0,.19-.07,.24-.16,.19-.06,.37-.17,.46-.36l.48-1v6.15c0,.56,.46,1.02,1.02,1.02,.28,0,.54-.11,.72-.3,.19,.18,.44,.3,.72,.3,.56,0,1.02-.46,1.02-1.02v-3.71c.07,.02,.14,.05,.22,.05,.45,0,.82-.37,.82-.82v-3.51c0-.74-.6-1.34-1.34-1.34Zm-7.61-1.69l-.73,1.05-.73-1.05h1.46Zm-2.95,.65c0-.35,.29-.64,.64-.65h.12s1.21,1.75,1.21,1.75c.06,.08,.15,.13,.25,.13s.19-.05,.25-.13l1.21-1.75c.35,0,.64,.3,.64,.65v2.89h-.48v-2.05c0-.17-.13-.3-.3-.3s-.3,.13-.3,.3v2.05h-2.16v-2.05c0-.17-.13-.3-.3-.3s-.3,.13-.3,.3v2.05h-.48v-2.89Zm6.6,7.04v3.15c0,.19-.16,.35-.35,.35h-2.03c-.19,0-.35-.16-.35-.35v-3.15c0-.19,.16-.35,.35-.35h2.03c.19,0,.35,.16,.35,.35Zm-1.17-.95h-.23v-.35h.23v.35Zm5.87-.2c0,.12-.1,.22-.22,.22s-.22-.1-.22-.22c0,0,0-.01,0-.02v-2.9c0-.17-.13-.3-.3-.3s-.3,.13-.3,.3v7.4c0,.23-.19,.42-.42,.42s-.42-.19-.42-.42v-4.81c0-.17-.13-.3-.3-.3s-.3,.13-.3,.3v4.81c0,.23-.19,.42-.42,.42s-.42-.19-.42-.42v-7.42s-.01-.02-.02-.04c0-.12-.03-.24-.15-.29-.15-.07-.33,0-.4,.14l-1.06,2.2c-.04,.07-.11,.12-.19,.12-.1,0-.16-.07-.17-.1-.02-.03-.06-.1-.01-.2l1.26-2.72c.12-.26,.39-.43,.67-.43h2.65c.41,0,.74,.33,.74,.74v3.51Z"/>
</svg>
