<svg viewBox="0 0 24 24" fill="#000000" xmlns="http://www.w3.org/2000/svg">
  <path d="M17.1,13.84c-.74,0-1.12-.28-1.45-.52-.3-.22-.56-.41-1.1-.41s-.8,.19-1.1,.41c-.34,.24-.72,.52-1.45,.52s-1.12-.28-1.45-.52c-.3-.22-.56-.41-1.1-.41s-.8,.19-1.1,.41c-.34,.24-.72,.52-1.45,.52s-1.11-.28-1.45-.52c-.3-.22-.56-.41-1.1-.41-.17,0-.3-.13-.3-.3s.13-.3,.3-.3c.73,0,1.11,.28,1.45,.52,.3,.22,.56,.41,1.1,.41s.8-.19,1.1-.41c.34-.24,.72-.52,1.45-.52s1.12,.28,1.45,.52c.3,.22,.56,.41,1.1,.41s.8-.19,1.1-.41c.34-.24,.72-.52,1.45-.52s1.12,.28,1.45,.52c.3,.22,.56,.41,1.1,.41s.8-.19,1.1-.41c.34-.24,.72-.52,1.45-.52,.17,0,.3,.13,.3,.3s-.13,.3-.3,.3c-.54,0-.8,.19-1.1,.41-.34,.24-.72,.52-1.45,.52Z"/>
  <path d="M17.1,16.56c-.74,0-1.12-.28-1.45-.52-.3-.22-.56-.41-1.1-.41s-.8,.19-1.1,.41c-.34,.24-.72,.52-1.45,.52s-1.12-.28-1.45-.52c-.3-.22-.56-.41-1.1-.41s-.8,.19-1.1,.41c-.34,.24-.72,.52-1.45,.52s-1.11-.28-1.45-.52c-.3-.22-.56-.41-1.1-.41-.17,0-.3-.13-.3-.3s.13-.3,.3-.3c.73,0,1.11,.28,1.45,.52,.3,.22,.56,.41,1.1,.41s.8-.19,1.1-.41c.34-.24,.72-.52,1.45-.52s1.12,.28,1.45,.52c.3,.22,.56,.41,1.1,.41s.8-.19,1.1-.41c.34-.24,.72-.52,1.45-.52s1.12,.28,1.45,.52c.3,.22,.56,.41,1.1,.41s.8-.19,1.1-.41c.34-.24,.72-.52,1.45-.52,.17,0,.3,.13,.3,.3s-.13,.3-.3,.3c-.54,0-.8,.19-1.1,.41-.34,.24-.72,.52-1.45,.52Z"/>
  <path d="M17.1,19.28c-.74,0-1.12-.28-1.45-.52-.3-.22-.56-.41-1.1-.41s-.8,.19-1.1,.41c-.34,.24-.72,.52-1.45,.52s-1.12-.28-1.45-.52c-.3-.22-.56-.41-1.1-.41s-.8,.19-1.1,.41c-.34,.24-.72,.52-1.45,.52s-1.11-.28-1.45-.52c-.3-.22-.56-.41-1.1-.41-.17,0-.3-.13-.3-.3s.13-.3,.3-.3c.73,0,1.11,.28,1.45,.52,.3,.22,.56,.41,1.1,.41s.8-.19,1.1-.41c.34-.24,.72-.52,1.45-.52s1.12,.28,1.45,.52c.3,.22,.56,.41,1.1,.41s.8-.19,1.1-.41c.34-.24,.72-.52,1.45-.52s1.12,.28,1.45,.52c.3,.22,.56,.41,1.1,.41s.8-.19,1.1-.41c.34-.24,.72-.52,1.45-.52,.17,0,.3,.13,.3,.3s-.13,.3-.3,.3c-.54,0-.8,.19-1.1,.41-.34,.24-.72,.52-1.45,.52Z"/>
  <path d="M7.27,7.67c-.08,0-.15-.03-.21-.09-.12-.12-.12-.31,0-.42l.94-.94c.12-.12,.31-.12,.42,0l.95,.94c.12,.12,.12,.31,0,.42-.12,.12-.31,.12-.42,0l-.73-.73-.73,.73c-.06,.06-.13,.09-.21,.09Z"/>
  <path d="M8.21,10.59c-.17,0-.3-.13-.3-.3v-3.86c0-.17,.13-.3,.3-.3s.3,.13,.3,.3v3.86c0,.17-.13,.3-.3,.3Z"/>
  <path d="M14.84,7.67c-.08,0-.15-.03-.21-.09-.12-.12-.12-.31,0-.42l.94-.94c.12-.12,.3-.12,.42,0l.95,.94c.12,.12,.12,.31,0,.42-.12,.12-.31,.12-.42,0l-.73-.73-.73,.73c-.06,.06-.13,.09-.21,.09Z"/>
  <path d="M15.78,10.59c-.17,0-.3-.13-.3-.3v-3.86c0-.17,.13-.3,.3-.3s.3,.13,.3,.3v3.86c0,.17-.13,.3-.3,.3Z"/>
  <path d="M11.06,6.25c-.08,0-.15-.03-.21-.09-.12-.12-.12-.31,0-.42l.94-.94c.12-.12,.3-.12,.42,0l.95,.94c.12,.12,.12,.31,0,.42-.12,.12-.31,.12-.42,0l-.73-.73-.73,.73c-.06,.06-.13,.09-.21,.09Z"/>
  <path d="M12,9.18c-.17,0-.3-.13-.3-.3v-3.86c0-.17,.13-.3,.3-.3s.3,.13,.3,.3v3.86c0,.17-.13,.3-.3,.3Z"/>
</svg>
