<svg viewBox="0 0 24 24" fill="#000000" xmlns="http://www.w3.org/2000/svg">
  <path d="M13.49,13.28c-.66,0-1.29-.27-1.88-.8-.68,.4-2.91,1.49-4.53,.02-.45,.04-1.79,.1-2.61-.61-.44-.38-.66-.9-.66-1.56,0-.75,.24-1.36,.7-1.8,.68-.65,1.65-.75,2.05-.77,.38-.56,1.88-2.4,4.41-1.26,.19-.71,.85-2.05,3.16-2.05s3.04,1.71,3.2,2.4c.45,.01,1.35,.13,2.03,.76,.56,.51,.84,1.25,.84,2.19,0,1.92-1.12,2.67-1.78,2.94-1.01,.42-2.27,.31-3.02-.23-.32,.28-.98,.74-1.83,.77-.02,0-.05,0-.07,0Zm-1.84-1.47c.08,0,.15,.03,.21,.09,.52,.52,1.07,.78,1.63,.78,.02,0,.03,0,.05,0,.93-.03,1.61-.76,1.61-.77,.06-.06,.13-.1,.21-.1,.08,0,.16,.03,.22,.09,.47,.47,1.62,.7,2.59,.29,.64-.27,1.41-.9,1.41-2.39,0-.76-.22-1.35-.64-1.75-.72-.67-1.84-.6-1.85-.6-.15,.02-.31-.11-.32-.27,0-.09-.22-2.12-2.65-2.12s-2.63,1.83-2.64,1.91c0,.1-.06,.2-.15,.25-.09,.05-.2,.05-.29,0-2.65-1.45-4.01,.89-4.06,1-.05,.1-.16,.15-.27,.15-.01,0-1.12-.04-1.79,.6-.34,.33-.51,.79-.51,1.36,0,.48,.15,.84,.45,1.11,.77,.66,2.27,.46,2.28,.45,.09-.01,.19,.02,.26,.08,1.57,1.57,4.06-.1,4.08-.12,.05-.04,.11-.05,.17-.05Z"/>
  <path d="M7.43,19.54c-.05,0-.1-.01-.15-.04-.14-.08-.19-.27-.11-.41l.92-1.56c.09-.14,.27-.19,.41-.11,.14,.08,.19,.27,.11,.41l-.92,1.56c-.06,.09-.16,.15-.26,.15Z"/>
  <path d="M10.48,19.54c-.05,0-.1-.01-.15-.04-.14-.08-.19-.27-.11-.41l.92-1.56c.08-.14,.27-.19,.41-.11,.14,.08,.19,.27,.11,.41l-.92,1.56c-.06,.09-.16,.15-.26,.15Z"/>
  <path d="M13.52,19.54c-.05,0-.1-.01-.15-.04-.14-.08-.19-.27-.11-.41l.92-1.56c.08-.14,.27-.19,.41-.11,.14,.08,.19,.27,.11,.41l-.92,1.56c-.06,.09-.16,.15-.26,.15Z"/>
  <path d="M10.02,16.73c-.05,0-.1-.01-.15-.04-.14-.08-.19-.27-.11-.41l.92-1.56c.08-.14,.27-.19,.41-.11,.14,.08,.19,.27,.11,.41l-.92,1.56c-.06,.09-.16,.15-.26,.15Z"/>
  <path d="M13.06,16.73c-.05,0-.1-.01-.15-.04-.14-.08-.19-.27-.11-.41l.92-1.56c.08-.14,.27-.19,.41-.11,.14,.08,.19,.27,.11,.41l-.92,1.56c-.06,.09-.16,.15-.26,.15Z"/>
  <path d="M16.11,16.73c-.05,0-.1-.01-.15-.04-.14-.08-.19-.27-.11-.41l.92-1.56c.08-.14,.27-.19,.41-.11,.14,.08,.19,.27,.11,.41l-.92,1.56c-.06,.09-.16,.15-.26,.15Z"/>
  <path d="M6.97,16.73c-.05,0-.1-.01-.15-.04-.14-.08-.19-.27-.11-.41l.92-1.56c.09-.14,.27-.19,.41-.11,.14,.08,.19,.27,.11,.41l-.92,1.56c-.06,.09-.16,.15-.26,.15Z"/>
</svg>
