<?xml version="1.0" encoding="UTF-8"?>
<svg xmlns="http://www.w3.org/2000/svg" viewBox="0 0 24 24" fill="#000000">
  <path d="M11.02,10.67c-.73,0-1.04-.17-1.17-.31-.61-.41-.96-2.24-1.09-3.03-.14-.67-.43-1.13-.85-1.35-.46-.24-.98-.14-1.21-.04-.15,.06-.33,0-.39-.16-.06-.15,0-.33,.16-.39,.41-.17,1.11-.26,1.72,.06,.58,.31,.97,.9,1.16,1.77,.21,1.3,.59,2.52,.83,2.64,.05,.02,.09,.06,.12,.11,0-.01,.15,.09,.71,.09,.14,0,.31,0,.5-.02l1.46-.05c.16,0,.3,.12,.31,.29,0,.17-.12,.3-.29,.31l-1.44,.05c-.2,.02-.38,.03-.53,.03Z"/>
  <path d="M6.12,7.03c-.08,0-.15-.03-.21-.08-.11-.03-.44-.02-.71,.02-.11,.01-.21-.03-.28-.12s-.08-.2-.03-.3c.07-.16,.22-.35,.36-.51-.06-.05-.12-.11-.16-.19-.15-.24-.16-.54-.04-.89,.04-.11,.13-.18,.24-.2l.39-.05,.1-.51c.03-.16,.2-.26,.35-.23,.16,.03,.27,.19,.23,.35l-.15,.71c-.03,.12-.13,.22-.25,.24l-.4,.05c-.01,.07,0,.15,.03,.2,.06,.09,.19,.12,.19,.12,.11,.02,.21,.09,.25,.2,.04,.11,0,.23-.08,.31-.05,.05-.11,.1-.17,.17,.46,.02,.54,.17,.58,.25,.08,.14,.03,.33-.11,.41-.05,.03-.1,.04-.15,.04Z"/>
  <path d="M7.24,5.77c-.09,0-.17-.04-.23-.11-.1-.13-.09-.31,.04-.42,.03-.02,.19-.19,.17-.5l-.11,.08c-.13,.1-.32,.07-.42-.06-.1-.13-.07-.32,.06-.42l.47-.35c.07-.06,.17-.07,.26-.05,.09,.02,.16,.09,.2,.17,.44,1.02-.21,1.56-.24,1.59-.06,.05-.12,.07-.19,.07Z"/>
  <path d="M6.1,8.44c-.25,0-.39-.13-.47-.24-.23-.34,.02-.87,.1-1.02,.02-.04,.05-.07,.08-.1,.02-.02,.05-.08,.07-.15-.03,0-.06,0-.08,0-.17,0-.29-.15-.29-.31s.13-.29,.31-.29c.14,0,.49,.04,.64,.29,.08,.13,.08,.29,.01,.44-.01,.06-.09,.3-.24,.45-.06,.12-.1,.26-.1,.34h.04s.18-.03,.39-.29c.11-.13,.29-.15,.42-.04,.13,.1,.15,.29,.04,.42-.41,.5-.77,.51-.84,.51-.03,0-.06,0-.09,0Zm-.12-1.48h0Zm-.07-.12h0Z"/>
  <path d="M9.65,16.36s-.06,0-.1-.02c-1.87-.63-3.1-1.58-3.67-2.82-.66-1.44-.15-2.75-.1-2.9,.22-.53,.35-1.38,.39-1.63,.02-.16,.18-.29,.34-.27,.16,.02,.27,.19,.25,.36v.08s-.02,.04-.02,.06c-.07,.41-.2,1.13-.41,1.63-.05,.12-.47,1.21,.09,2.42,.49,1.08,1.61,1.92,3.32,2.5,.16,.05,.24,.22,.19,.38-.04,.12-.16,.2-.28,.2Z"/>
  <path d="M10.87,17.95c-.25,0-.48-.1-.6-.18-.05-.03-.09-.08-.11-.14-.3-.77-.75-1.39-.75-1.39-.1-.13-.07-.32,.06-.42,.13-.1,.32-.07,.42,.06,.02,.03,.47,.63,.79,1.43,.08,.03,.21,.07,.34,0l.56-1.87c.05-.16,.21-.25,.37-.2,.16,.05,.25,.21,.2,.37l-.59,1.97c-.02,.06-.05,.11-.1,.15-.2,.16-.4,.21-.6,.21Z"/>
  <path d="M10.86,19.82c-.17,0-.3-.13-.3-.3v-1.82c0-.17,.13-.3,.3-.3s.3,.13,.3,.3v1.82c0,.17-.13,.3-.3,.3Z"/>
  <path d="M11.09,14.6c-.65,0-1.21-.18-1.66-.4-1.02-.5-1.62-1.3-1.65-1.34-.1-.13-.07-.32,.06-.42,.13-.1,.32-.07,.42,.06,.08,.11,1.96,2.56,4.62,.95-.48-.27-1.24-.76-1.83-1.38-.11-.12-.11-.31,0-.42,.12-.12,.31-.11,.42,0,.84,.88,2.1,1.49,2.11,1.49,.09,.05,.16,.14,.17,.24,0,.1-.04,.21-.12,.27-.94,.7-1.8,.94-2.55,.94Z"/>
  <path d="M11.9,10.55c-.12,0-.23-.07-.28-.18-.07-.15,0-.33,.16-.4,.24-.1,.51-.38,.6-.48,.4-.54,.54-.84,.66-1.11,.12-.28,.24-.54,.59-.94,.43-.5,1.71-1.04,3-.76,.85,.18,1.97,.78,2.5,2.59,.04,.13-.02,.27-.13,.34-.12,.07-.27,.05-.37-.05-.07-.07-1.63-1.59-3.37-.52-.14,.09-.33,.04-.41-.1-.09-.14-.04-.33,.1-.41,1.26-.77,2.44-.44,3.21-.03-.39-.67-.95-1.09-1.65-1.24-1.09-.23-2.14,.24-2.42,.57-.29,.34-.38,.54-.5,.79-.13,.28-.28,.63-.74,1.24-.05,.06-.42,.48-.83,.65-.04,.02-.08,.02-.12,.02Z"/>
  <path d="M18.39,11.07c-.08,0-.16-.03-.22-.1,0,0-.78-.85-2.07-1.17-.16-.04-.26-.2-.22-.36,.04-.16,.21-.26,.36-.22,1.47,.37,2.33,1.31,2.37,1.35,.11,.12,.1,.31-.02,.42-.06,.05-.13,.08-.2,.08Z"/>
  <path d="M17.65,12.66c-.11,0-.22-.07-.27-.18-.45-1-1.54-1.55-1.55-1.55h0c-.11-.06-.19-.19-.17-.32,.02-.13,.12-.23,.26-.25,.03,0,.09,0,.17,.04h0s.04,.01,.06,.03c.45,.21,1.36,.89,1.77,1.8,.07,.15,0,.33-.15,.4-.04,.02-.08,.03-.12,.03Z"/>
  <path d="M15.69,14.99s-.05,0-.07,0c-.1-.02-.18-.1-.21-.19-.17-.48-.51-1.34-.7-1.58-.1-.13-.08-.32,.05-.42,.13-.1,.32-.08,.42,.05,.17,.22,.38,.68,.54,1.08,.11-.43,.18-1.03,.2-1.55,0-.17,.12-.29,.31-.29,.17,0,.29,.15,.29,.31-.01,.33-.1,2.03-.62,2.52-.06,.05-.13,.08-.21,.08Z"/>
  <path d="M11.77,16.68c-.14,0-.26-.09-.29-.23-.04-.16,.06-.32,.22-.36,1.15-.28,2.52-1.91,2.53-1.93,.11-.13,.3-.14,.42-.04,.13,.11,.14,.3,.04,.42-.06,.07-1.51,1.8-2.85,2.12-.02,0-.05,0-.07,0Z"/>
  <path d="M11.76,20.07s-.08,0-.11-.02c-1.03-.42-2.02,0-2.03,0-.15,.07-.33,0-.39-.16-.06-.15,0-.33,.16-.39,.05-.02,1.23-.51,2.49,0,.15,.06,.23,.24,.17,.39-.05,.12-.16,.19-.28,.19Z"/>
</svg>
