<svg xmlns="http://www.w3.org/2000/svg" viewBox="0 0 24 24" fill="#000000">
  <path d="M21.22,19.92H2.78c-.09,0-.18-.04-.24-.12s-.08-.17-.05-.26l.49-1.87c.02-.08,.07-.14,.14-.18l.81-.47,.32-1.3c.03-.12,.13-.21,.25-.23l1.14-.16,.76-.76c.06-.06,.14-.09,.22-.09,.08,0,.16,.04,.22,.1l.55,.63,.31-.36s.08-.07,.13-.09l.82-.28,.7-1.66c.05-.11,.16-.18,.28-.18h1.27l.91-.74c.08-.07,.2-.08,.3-.05l.84,.33c.06,.02,.11,.06,.14,.11l.2,.3,.67-.37c.14-.08,.31-.03,.4,.1l.63,.96,4.02,.69c.1,.02,.18,.08,.22,.17l.75,1.58h.73c.15,0,.28,.11,.3,.26l.51,3.6c.01,.09-.01,.17-.07,.24-.06,.07-.14,.1-.23,.1Zm-18.05-.6H20.87l-.43-3h-.66c-.12,0-.22-.07-.27-.17l-.77-1.61-4-.69c-.08-.01-.15-.06-.2-.13l-.55-.84-.67,.37c-.14,.08-.31,.03-.4-.1l-.3-.46-.59-.23-.86,.7c-.05,.04-.12,.07-.19,.07h-1.18l-.68,1.6c-.03,.08-.1,.14-.18,.17l-.87,.3-.49,.56c-.06,.07-.14,.1-.23,.1h0c-.09,0-.17-.04-.23-.1l-.57-.65-.61,.61s-.1,.08-.17,.08l-1.04,.15-.3,1.23c-.02,.08-.07,.15-.14,.19l-.81,.47-.36,1.38Z"/>
  <path d="M4.96,18.71s-.1-.01-.14-.04c-.15-.08-.2-.26-.12-.41l.65-1.2c.04-.07,.1-.12,.18-.15,.08-.02,.16-.01,.23,.03l.69,.4c.14,.08,.19,.27,.11,.41-.08,.14-.27,.19-.41,.11l-.42-.24-.5,.93c-.05,.1-.16,.16-.26,.16Z"/>
  <path d="M11.62,19.18c-.07,0-.14-.02-.19-.07-.13-.11-.15-.29-.04-.42l.65-.78c.08-.09,.2-.13,.32-.1l.89,.27c.16,.05,.25,.21,.2,.37s-.21,.25-.37,.2l-.7-.21-.52,.63c-.06,.07-.15,.11-.23,.11Z"/>
  <path d="M18.09,19.07c-.09,0-.18-.04-.24-.12l-.88-1.16-2,.73c-.15,.06-.33-.02-.38-.18-.06-.16,.02-.33,.18-.38l2.2-.8c.12-.04,.26,0,.34,.1l1.01,1.34c.1,.13,.07,.32-.06,.42-.05,.04-.12,.06-.18,.06Z"/>
  <path d="M20.41,19.82c-.09,0-.18-.04-.24-.12l-2.54-3.36-5.61,.7-3.47,2.61c-.13,.1-.32,.07-.42-.06-.1-.13-.07-.32,.06-.42l3.54-2.65s.09-.05,.14-.06l5.86-.74c.11-.01,.21,.03,.28,.12l2.65,3.5c.1,.13,.07,.32-.06,.42-.05,.04-.12,.06-.18,.06Z"/>
  <path d="M9.94,18.2c-.06,0-.11-.02-.16-.05l-1.8-1.18s-.06-.05-.08-.08l-.75-1.05c-.1-.13-.06-.32,.07-.42,.14-.1,.32-.06,.42,.07l.72,1,1.75,1.15c.14,.09,.18,.28,.09,.42-.06,.09-.15,.14-.25,.14Z"/>
  <path d="M11.72,17.04c-.06,0-.12-.02-.17-.06l-2.84-2.02c-.14-.1-.17-.28-.07-.42,.1-.14,.28-.17,.42-.07l2.84,2.02c.14,.1,.17,.28,.07,.42-.06,.08-.15,.13-.25,.13Z"/>
  <path d="M10.18,15.07c-.08,0-.16-.03-.22-.1-.11-.12-.1-.31,.02-.42l.85-.78c.1-.1,.26-.1,.37-.03l.75,.51c.14,.09,.17,.28,.08,.42-.09,.14-.28,.17-.42,.08l-.55-.38-.67,.62c-.06,.05-.13,.08-.2,.08Z"/>
  <path d="M14,15.65c-.08,0-.17-.04-.23-.1l-1.01-1.18c-.11-.13-.09-.31,.03-.42,.13-.11,.31-.09,.42,.03l1.01,1.18c.11,.13,.09,.31-.03,.42-.06,.05-.13,.07-.19,.07Z"/>
  <path d="M17.24,16.12s-.04,0-.06,0l-2.39-.45c-.16-.03-.27-.19-.24-.35s.19-.27,.35-.24l2.39,.45c.16,.03,.27,.19,.24,.35-.03,.14-.15,.25-.29,.25Z"/>
  <path d="M14.63,16.52s-.03,0-.05,0c-.16-.03-.28-.18-.25-.34l.63-4.04c.01-.08,.06-.15,.12-.2,.06-.05,.15-.07,.22-.05l3.09,.51c.16,.03,.27,.18,.25,.34l-.49,3.48c-.02,.16-.17,.28-.34,.26-.16-.02-.28-.17-.26-.34l.45-3.19-2.51-.42-.58,3.74c-.02,.15-.15,.25-.3,.25Z"/>
  <path d="M3.28,15.83c-.09,0-.17-.04-.23-.11-.02-.03-.6-.79-.11-2.31,.15-.45,.13-1.03-.04-1.38-.07-.15-.01-.33,.13-.4,.15-.07,.33-.01,.4,.13,.28,.57,.24,1.33,.08,1.83-.38,1.19,0,1.73,.02,1.76,.1,.13,.07,.32-.06,.42-.05,.04-.12,.06-.18,.06Z"/>
  <path d="M5.33,14.34c-.11,0-.22-.06-.27-.17-.47-.94-.16-1.86-.05-2.12,.26-.77-.03-1.4-.03-1.41-.07-.15,0-.33,.15-.4s.33,0,.4,.15c.02,.03,.39,.86,.05,1.87-.09,.22-.33,.93,.02,1.65,.07,.15,.01,.33-.13,.4-.04,.02-.09,.03-.13,.03Z"/>
  <path d="M10.3,12.06c-.06,0-.13-.02-.18-.06-.13-.1-.16-.29-.06-.42,.03-.04,.6-.84,.12-2.15-.32-.71-.16-1.67,.1-2.33,.06-.15,.24-.23,.39-.17,.15,.06,.23,.24,.17,.39-.21,.52-.36,1.33-.11,1.88,.6,1.65-.16,2.69-.2,2.74-.06,.08-.15,.12-.24,.12Z"/>
  <path d="M12.32,11.5s-.07,0-.11-.02c-.15-.06-.23-.23-.17-.39,.61-1.62,.32-2.47-.13-3.76l-.03-.09c-.49-1.42,.02-2.9,.04-2.96,.05-.16,.22-.24,.38-.18,.16,.06,.24,.23,.18,.38,0,.01-.46,1.35-.04,2.57l.03,.09c.46,1.31,.82,2.35,.13,4.17-.05,.12-.16,.19-.28,.19Z"/>
  <path d="M14.14,11.48s-.09,0-.13-.03c-.15-.07-.21-.25-.14-.4,.21-.45,.38-.97,.15-1.73-.41-1.18,.03-2.25,.05-2.3,.06-.15,.24-.22,.39-.16,.15,.06,.22,.24,.16,.39,0,0-.37,.92-.03,1.88,.29,.97,.08,1.64-.17,2.17-.05,.11-.16,.17-.27,.17Z"/>
</svg>
