<svg xmlns="http://www.w3.org/2000/svg" viewBox="0 0 24 24" fill="#000000">
  <g>
    <path d="M12.1,9.17c-.12,0-.24-.08-.28-.2-.05-.16,.03-.33,.18-.38l1.67-.59c.16-.05,.33,.03,.38,.18,.05,.16-.03,.33-.18,.38l-1.67,.59s-.07,.02-.1,.02Z"/>
    <path d="M11.93,9.17s-.07,0-.1-.02l-1.67-.59c-.16-.05-.24-.23-.18-.38,.05-.16,.23-.24,.38-.18l1.67,.59c.16,.05,.24,.23,.18,.38-.04,.12-.16,.2-.28,.2Z"/>
  </g>
  <g>
    <path d="M12.1,15.96c-.12,0-.24-.08-.28-.2-.05-.16,.03-.33,.18-.38l1.67-.59c.16-.05,.33,.03,.38,.18,.05,.16-.03,.33-.18,.38l-1.67,.59s-.07,.02-.1,.02Z"/>
    <path d="M11.93,15.96s-.07,0-.1-.02l-1.67-.59c-.16-.05-.24-.23-.18-.38s.23-.24,.38-.18l1.67,.59c.16,.05,.24,.23,.18,.38-.04,.12-.16,.2-.28,.2Z"/>
  </g>
  <path d="M12.19,12.45c-.12,0-.24-.08-.28-.2-.05-.16,.03-.33,.18-.38l2.51-.88c.16-.05,.33,.03,.38,.18s-.03,.33-.18,.38l-2.51,.88s-.07,.02-.1,.02Z"/>
  <path d="M11.9,12.45s-.07,0-.1-.02l-2.51-.88c-.16-.05-.24-.23-.18-.38s.23-.24,.38-.18l2.51,.88c.16,.05,.24,.23,.18,.38-.04,.12-.16,.2-.28,.2Z"/>
  <path d="M12.04,20.45c-.17,0-.3-.13-.3-.3V3.85c0-.17,.13-.3,.3-.3s.3,.13,.3,.3V20.15c0,.17-.13,.3-.3,.3Z"/>
  <path d="M12.14,19.58c-.09,0-.18-.04-.24-.12-.1-.13-.07-.32,.06-.42,3.29-2.48,4.91-5.06,4.79-7.67-.19-4.18-4.8-7.1-4.85-7.13-.14-.09-.18-.27-.1-.41,.09-.14,.28-.18,.41-.1,.2,.12,4.93,3.11,5.13,7.61,.13,2.82-1.56,5.57-5.03,8.18-.05,.04-.12,.06-.18,.06Z"/>
  <path d="M11.84,19.58c-.06,0-.13-.02-.18-.06-3.46-2.6-5.14-5.35-5.01-8.16,.21-4.51,4.97-7.5,5.17-7.63,.14-.09,.33-.04,.41,.1s.04,.33-.1,.41c-.05,.03-4.7,2.95-4.89,7.15-.12,2.6,1.49,5.18,4.78,7.65,.13,.1,.16,.29,.06,.42-.06,.08-.15,.12-.24,.12Z"/>
</svg>
