<?xml version="1.0" encoding="UTF-8"?>
<svg xmlns="http://www.w3.org/2000/svg" viewBox="0 0 24 24" fill="#000000">
  <path d="M7.11,12.05c-.15,0-.32-.03-.52-.11-.53-.27-.67-.74-.43-1.38,.27-.71,1.86-4.8,1.86-4.8,.06-.2,.35-.59,1.03-.6h5.77s1.06-.07,1.5,.68c.25,.43,.36,.62,.41,.73h0s.15,.28,.73,.14c.85-.2,2.11-.57,2.12-.57,.42-.15,1.19-.06,1.51,.78l.8,2.09s.15,.39-.06,.7c-.16,.23-.46,.37-.84,.35h-5.21s-.73,.06-1.17-.86c-.28-.59-.36-.74-.38-.78-.01-.02-.03-.04-.04-.06,0-.01-.1-.18-.42-.18-1.05-.01-3.88,0-3.88,0-.02,0-.31,0-.54,.44-.4,.76-1.41,2.91-1.42,2.93-.09,.21-.36,.52-.84,.52Zm1.95-6.3c-.39,0-.47,.19-.48,.21,0,.01-1.6,4.1-1.86,4.81-.18,.48,0,.57,.11,.62,.4,.16,.54-.05,.57-.12,.04-.1,1.03-2.19,1.43-2.96,.34-.64,.84-.78,1.1-.76,0,0,2.81-.01,3.86,0,.58,0,.88,.35,.96,.55,.09,.15,.22,.41,.41,.82,.25,.52,.61,.5,.61,.52h5.23c.21-.01,.32-.05,.34-.08,.02-.03,0-.12,0-.15l-.81-2.09c-.21-.55-.64-.46-.77-.42-.02,0-1.29,.38-2.16,.58-1.05,.25-1.38-.4-1.42-.49-.02-.03-.09-.16-.38-.66-.25-.42-.95-.38-.96-.38h-5.78Z"/>
  <path d="M9.09,18.85c-.26,0-1.05-.06-1.41-.68-.25-.43-.36-.62-.41-.73h0s-.15-.27-.73-.14c-.85,.2-2.11,.57-2.12,.57-.37,.12-1.18,.11-1.51-.78-.37-.98-.8-2.08-.8-2.08-.01-.04-.15-.4,.06-.71,.15-.23,.44-.35,.84-.35h5.22s.73-.06,1.17,.86c.28,.59,.37,.74,.38,.78,.01,.02,.03,.04,.04,.06,0,.01,.1,.18,.41,.18,.48,0,3.88,0,3.88,0,.03,0,.31,0,.54-.44,.4-.76,1.41-2.91,1.42-2.93,.11-.27,.55-.73,1.36-.42,.53,.27,.67,.74,.43,1.38-.27,.71-1.86,4.8-1.86,4.8-.06,.2-.35,.59-1.03,.6h-5.77s-.04,0-.09,0Zm-1.27-1.64s.09,.16,.38,.66c.25,.42,.95,.38,.96,.38h5.78c.39,0,.47-.19,.48-.21,0-.01,1.6-4.1,1.86-4.81,.18-.48,0-.57-.11-.62-.4-.16-.54,.05-.57,.12-.04,.1-1.03,2.19-1.43,2.96-.34,.64-.84,.78-1.1,.76,0,0-3.37,0-3.86,0-.58,0-.88-.35-.96-.55-.09-.15-.22-.41-.41-.82-.25-.52-.61-.53-.61-.52H2.99c-.22,0-.32,.05-.34,.08-.02,.03,0,.12,0,.15,0,0,.44,1.11,.81,2.1,.21,.56,.68,.44,.78,.42,.02,0,1.29-.37,2.15-.58,1.05-.25,1.38,.4,1.42,.49Z"/>
  <path d="M12.33,13.94c-.87,0-1.85,0-2.03,0-.24,0-.71-.11-.87-.53-.15-.29-.12-.64,.07-.96h0l1.63-2.65c.07-.14,.33-.44,.79-.44,.29-.03,.69,.1,.88,.45,.11,.2,1.06,1.81,1.56,2.63,.01,.02,.28,.39,.14,.8-.15,.47-.48,.61-.76,.68-.15,.01-.75,.02-1.4,.02Zm-2.32-1.18c-.08,.14-.1,.27-.03,.4,.07,.17,.33,.18,.33,.18,1.22,0,3.12,.02,3.33,0,.16-.04,.24-.11,.29-.27,.04-.1-.04-.24-.07-.28-.07-.12-1.44-2.42-1.58-2.67-.07-.12-.23-.15-.33-.14-.22,0-.29,.12-.29,.12l-1.64,2.67Z"/>
</svg>
