<svg xmlns="http://www.w3.org/2000/svg" viewBox="0 0 24 24" fill="#000000">
  <path d="M19.64,19.94H4.35c-.17,0-.3-.13-.3-.3s.13-.3,.3-.3h15.3c.17,0,.3,.13,.3,.3s-.13,.3-.3,.3Z"/>
  <path d="M18.31,19.82c-.17,0-.3-.13-.3-.3v-2.98h-2.24c-.17,0-.3-.13-.3-.3s.13-.3,.3-.3h2.54c.17,0,.3,.13,.3,.3v3.28c0,.17-.13,.3-.3,.3Z"/>
  <path d="M15.45,19.77c-.17,0-.3-.13-.3-.3V10.28h-3.93v9.11c0,.17-.13,.3-.3,.3s-.3-.13-.3-.3V9.98c0-.17,.13-.3,.3-.3h4.53c.17,0,.3,.13,.3,.3v9.49c0,.17-.13,.3-.3,.3Z"/>
  <path d="M5.97,19.69c-.17,0-.3-.13-.3-.3v-5.86c0-.17,.13-.3,.3-.3h4.57c.17,0,.3,.13,.3,.3s-.13,.3-.3,.3H6.27v5.56c0,.17-.13,.3-.3,.3Z"/>
  <path d="M8.37,13.66c-.17,0-.3-.13-.3-.3V7.86c0-.12,.07-.23,.18-.28l4.85-2.01c.09-.04,.2-.03,.28,.03,.08,.06,.13,.15,.13,.25v4.1c0,.17-.13,.3-.3,.3s-.3-.13-.3-.3v-3.66l-4.25,1.76v5.3c0,.17-.13,.3-.3,.3Z"/>
  <path d="M10.8,6.93c-.17,0-.3-.13-.3-.3v-2.28c0-.17,.13-.3,.3-.3s.3,.13,.3,.3v2.28c0,.17-.13,.3-.3,.3Z"/>
  <path d="M12.18,8.95h-2.55c-.17,0-.3-.13-.3-.3s.13-.3,.3-.3h2.55c.17,0,.3,.13,.3,.3s-.13,.3-.3,.3Z"/>
  <path d="M14.23,11.91h-1.71c-.17,0-.3-.13-.3-.3s.13-.3,.3-.3h1.71c.17,0,.3,.13,.3,.3s-.13,.3-.3,.3Z"/>
  <path d="M14.23,13.71h-1.71c-.17,0-.3-.13-.3-.3s.13-.3,.3-.3h1.71c.17,0,.3,.13,.3,.3s-.13,.3-.3,.3Z"/>
  <path d="M14.23,15.54h-1.71c-.17,0-.3-.13-.3-.3s.13-.3,.3-.3h1.71c.17,0,.3,.13,.3,.3s-.13,.3-.3,.3Z"/>
  <path d="M14.23,17.39h-1.71c-.17,0-.3-.13-.3-.3s.13-.3,.3-.3h1.71c.17,0,.3,.13,.3,.3s-.13,.3-.3,.3Z"/>
  <path d="M9.72,15.54h-1.71c-.17,0-.3-.13-.3-.3s.13-.3,.3-.3h1.71c.17,0,.3,.13,.3,.3s-.13,.3-.3,.3Z"/>
  <path d="M9.72,17.39h-1.71c-.17,0-.3-.13-.3-.3s.13-.3,.3-.3h1.71c.17,0,.3,.13,.3,.3s-.13,.3-.3,.3Z"/>
  <path d="M19.31,8.9h-5c-.09,0-.18-.04-.23-.11-.06-.07-.08-.16-.06-.25,.09-.4,.39-.69,.77-.78,.05-.77,.69-1.38,1.47-1.38,.55,0,1.05,.31,1.3,.79,.48-.09,.98,.11,1.27,.49,.45,0,.81,.37,.81,.82,0,.07-.02,.13-.03,.17-.04,.13-.16,.25-.3,.25Zm-4.08-.6h3.72s-.09-.05-.14-.05c-.14,.04-.34,0-.4-.14-.17-.32-.56-.47-.9-.32-.08,.04-.17,.04-.25,0-.08-.04-.14-.11-.16-.19-.11-.38-.45-.64-.84-.64-.48,0-.88,.39-.88,.88,0,.04,0,.08,.01,.12,.01,.09-.02,.19-.08,.26-.03,.03-.05,.05-.09,.07Z"/>
  <path d="M8.33,6.29h-3.67c-.09,0-.18-.04-.23-.11s-.08-.16-.06-.25c.07-.3,.29-.53,.57-.62,.07-.58,.56-1.03,1.16-1.03,.41,0,.79,.22,1,.57,.36-.05,.71,.1,.93,.37,.35,.03,.63,.32,.63,.68,0,.03-.02,.13-.02,.15-.04,.13-.16,.24-.29,.24Zm-2.81-.6h2.09v-.02c-.11-.2-.36-.29-.57-.2-.08,.04-.17,.04-.25,0-.08-.04-.14-.11-.16-.19-.07-.24-.29-.41-.54-.41-.31,0-.56,.25-.56,.56,0,.03,0,.06,0,.08,.01,.06,0,.12-.02,.17Z"/>
</svg>
