<svg xmlns="http://www.w3.org/2000/svg" viewBox="0 0 24 24" fill="#000000">
  <path d="M9.63,20.01c-.17,0-.3-.13-.3-.3v-6.72c0-.08,.03-.16,.09-.21l2.33-2.35c.12-.12,.31-.12,.42,0s.12,.31,0,.42l-2.25,2.26v6.59c0,.17-.13,.3-.3,.3Z"/>
  <path d="M9.63,13.63H4.3c-.1,0-.19-.05-.25-.13-.06-.08-.07-.18-.04-.27l1.18-3.36c.04-.12,.16-.2,.28-.2h4.18v-.71c0-.17,.13-.3,.3-.3s.3,.13,.3,.3v1.01c0,.17-.13,.3-.3,.3H5.69l-.97,2.76h4.91c.17,0,.3,.13,.3,.3s-.13,.3-.3,.3Z"/>
  <path d="M10.96,20.01c-.17,0-.3-.13-.3-.3v-3.69c0-.17,.13-.3,.3-.3h1c.17,0,.3,.13,.3,.3s-.13,.3-.3,.3h-.7v3.39c0,.17-.13,.3-.3,.3Z"/>
  <path d="M19.29,20.01H4.63c-.17,0-.3-.13-.3-.3v-5.37c0-.17,.13-.3,.3-.3s.3,.13,.3,.3v5.07h14.06v-5.07c0-.17,.13-.3,.3-.3s.3,.13,.3,.3v5.37c0,.17-.13,.3-.3,.3Z"/>
  <path d="M14.29,20.01c-.17,0-.3-.13-.3-.3v-6.59l-2.25-2.26c-.12-.12-.12-.31,0-.42,.12-.12,.31-.12,.42,0l2.33,2.35c.06,.06,.09,.13,.09,.21v6.72c0,.17-.13,.3-.3,.3Z"/>
  <path d="M19.63,13.63h-5.33c-.17,0-.3-.13-.3-.3s.13-.3,.3-.3h4.91l-.97-2.76h-4.27c-.17,0-.3-.13-.3-.3v-1.01c0-.17,.13-.3,.3-.3s.3,.13,.3,.3v.71h4.18c.13,0,.24,.08,.28,.2l1.18,3.36c.03,.09,.02,.19-.04,.27-.06,.08-.15,.13-.25,.13Z"/>
  <path d="M12.96,20.01c-.17,0-.3-.13-.3-.3v-3.39h-.7c-.17,0-.3-.13-.3-.3s.13-.3,.3-.3h1c.17,0,.3,.13,.3,.3v3.69c0,.17-.13,.3-.3,.3Z"/>
  <path d="M7.96,15.98c-.17,0-.3-.13-.3-.3v-.67c0-.17,.13-.3,.3-.3s.3,.13,.3,.3v.67c0,.17-.13,.3-.3,.3Z"/>
  <path d="M6.3,15.98c-.17,0-.3-.13-.3-.3v-.67c0-.17,.13-.3,.3-.3s.3,.13,.3,.3v.67c0,.17-.13,.3-.3,.3Z"/>
  <path d="M7.96,18.33c-.17,0-.3-.13-.3-.3v-.67c0-.17,.13-.3,.3-.3s.3,.13,.3,.3v.67c0,.17-.13,.3-.3,.3Z"/>
  <path d="M6.3,18.33c-.17,0-.3-.13-.3-.3v-.67c0-.17,.13-.3,.3-.3s.3,.13,.3,.3v.67c0,.17-.13,.3-.3,.3Z"/>
  <path d="M17.63,15.98c-.17,0-.3-.13-.3-.3v-.67c0-.17,.13-.3,.3-.3s.3,.13,.3,.3v.67c0,.17-.13,.3-.3,.3Z"/>
  <path d="M15.96,15.98c-.17,0-.3-.13-.3-.3v-.67c0-.17,.13-.3,.3-.3s.3,.13,.3,.3v.67c0,.17-.13,.3-.3,.3Z"/>
  <path d="M17.63,18.33c-.17,0-.3-.13-.3-.3v-.67c0-.17,.13-.3,.3-.3s.3,.13,.3,.3v.67c0,.17-.13,.3-.3,.3Z"/>
  <path d="M15.96,18.33c-.17,0-.3-.13-.3-.3v-.67c0-.17,.13-.3,.3-.3s.3,.13,.3,.3v.67c0,.17-.13,.3-.3,.3Z"/>
  <path d="M14.63,9.27h-5.33c-.12,0-.24-.08-.28-.19-.04-.12-.01-.25,.08-.33l2.67-2.35c.11-.1,.28-.1,.4,0l2.67,2.35c.09,.08,.13,.21,.08,.33-.04,.12-.16,.19-.28,.19Zm-4.54-.6h3.74l-1.87-1.65-1.87,1.65Z"/>
  <path d="M11.96,6.92c-.17,0-.3-.13-.3-.3v-2.35c0-.17,.13-.3,.3-.3s.3,.13,.3,.3v2.35c0,.17-.13,.3-.3,.3Z"/>
  <path d="M13.96,5.91h-2c-.17,0-.3-.13-.3-.3s.13-.3,.3-.3h1.7v-.74h-1.7c-.17,0-.3-.13-.3-.3s.13-.3,.3-.3h2c.17,0,.3,.13,.3,.3v1.34c0,.17-.13,.3-.3,.3Z"/>
</svg>
