<svg viewBox="0 0 24 24" fill="#000000" xmlns="http://www.w3.org/2000/svg">
  <path d="M18.42,11.02c-.06,0-.12-.02-.17-.06l-5.33-3.8c-.07-.05-.11-.12-.12-.21-.01-.08,.01-.17,.07-.23l2.15-2.59c.1-.13,.29-.15,.42-.04,.13,.11,.15,.29,.04,.42l-1.94,2.34,4.83,3.44,1.04-1.43c.1-.13,.28-.16,.42-.07,.13,.1,.16,.29,.07,.42l-1.21,1.67c-.06,.08-.15,.12-.24,.12Z"/>
  <path d="M16.6,12.46s-.02,0-.04,0c-.16-.02-.28-.17-.26-.33,0-.02,.21-1.84-.9-3.12-.71-.82-1.81-1.26-3.28-1.29-1,.04-1.79,.25-2.18,.43-.53,.24-1.51,.31-2.01,.27-.3-.02-.53,.03-.61,.13-.05,.07-.12,.29,.16,.88,.24,.45,.71,.5,1.22,.52,.09,0,.18,0,.24,.01l.15,.02c.52,.05,1.75,.18,2.64,.68,.14,.08,.2,.26,.11,.41s-.26,.19-.41,.11c-.78-.44-1.92-.56-2.41-.61l-.17-.02s-.11,0-.18,0c-.43-.01-1.31-.04-1.74-.85-.31-.67-.35-1.15-.11-1.5,.14-.21,.47-.45,1.15-.39,.48,.04,1.33-.05,1.71-.22,.58-.26,1.49-.44,2.43-.48,1.66,.04,2.91,.55,3.74,1.5,1.28,1.49,1.05,3.5,1.04,3.59-.02,.15-.15,.26-.3,.26Z"/>
  <path d="M7.1,12.63c-.06,0-.13-.02-.18-.06-.13-.1-.16-.29-.05-.42l1.53-1.98c.1-.13,.29-.15,.42-.05,.13,.1,.16,.29,.05,.42l-1.53,1.98c-.06,.08-.15,.12-.24,.12Z"/>
  <path d="M18.3,19.98c-.08,0-.16-.03-.21-.09-1.93-1.93-5.7-1.2-7.12-.92l-.26,.05c-5.22,.81-6.62-1.29-6.67-1.37-.04-.06-.06-.14-.04-.22l1.2-6.07c.02-.11,.11-.2,.22-.23,.11-.03,.23,0,.3,.09,1.62,1.84,4.59,1.32,5.86,1.09l.18-.03c6.01-1.3,7.97,.96,8.05,1.05,.06,.07,.08,.17,.06,.26,0,.04-.95,4.35-1.28,6.15-.02,.11-.1,.2-.21,.23-.03,0-.06,.01-.09,.01Zm-4.14-1.98c1.36,0,2.83,.25,3.94,1.11,.34-1.76,.99-4.76,1.15-5.49-.44-.39-2.47-1.82-7.38-.75l-.19,.03c-1.27,.23-4.13,.73-6.01-.88l-1.06,5.39c.32,.35,1.81,1.67,6,1.02l.24-.05c.7-.14,1.96-.38,3.31-.38Z"/>
  <path d="M6.85,15.93c-.23,0-.42-.19-.42-.42s.19-.42,.42-.42,.42,.19,.42,.42-.19,.42-.42,.42Zm0-.6c-.1,0-.18,.08-.18,.18,0,.19,.35,.19,.35,0,0-.1-.08-.18-.18-.18Z"/>
  <path d="M16.89,15.89c-.23,0-.42-.19-.42-.42s.19-.42,.42-.42,.42,.19,.42,.42-.19,.42-.42,.42Zm0-.6c-.1,0-.18,.08-.18,.18,0,.19,.35,.19,.35,0,0-.1-.08-.18-.18-.18Z"/>
  <path d="M11.43,17.8c-.15,0-.29-.02-.43-.05-.54-.12-.97-.44-1.22-.91-.29-.55-.29-1.24-.01-1.9,.52-1.23,1.89-2.03,3.04-1.78,.54,.12,.97,.44,1.22,.91,.29,.55,.29,1.24,0,1.9h0c-.46,1.08-1.56,1.83-2.61,1.83Zm.93-4.08c-.81,0-1.68,.6-2.04,1.46-.21,.5-.21,1-.01,1.39,.16,.31,.44,.52,.81,.6,.89,.19,1.95-.45,2.36-1.43h0c.21-.49,.21-1,.01-1.39-.16-.32-.44-.52-.81-.6-.11-.02-.21-.03-.32-.03Z"/>
  <path d="M11.63,16.66c-.21,0-.41-.06-.57-.19-.13-.1-.16-.29-.06-.42,.1-.13,.29-.16,.42-.06,.18,.13,.4,.05,.56-.03,.08-.04,.12-.08,.15-.1-.02,0-.04,0-.06,0-.14-.04-.33-.1-.49-.21-.22-.15-.33-.37-.31-.59,.03-.24,.21-.44,.5-.56,.46-.18,.88-.02,1.06,.11,.13,.1,.17,.28,.07,.42-.1,.13-.28,.17-.42,.07-.02,0-.23-.15-.49-.04-.06,.02-.09,.05-.11,.06,0,0,.02,.02,.04,.03,.07,.05,.22,.1,.32,.13,.06,.02,.11,.03,.14,.05,.21,.09,.36,.28,.37,.49,.01,.18-.06,.44-.48,.67-.21,.12-.43,.18-.64,.18Z"/>
  <path d="M12.22,14.99s-.06,0-.09-.01c-.16-.05-.25-.22-.2-.38l.11-.36c.05-.16,.21-.25,.38-.2,.16,.05,.25,.22,.2,.38l-.11,.36c-.04,.13-.16,.21-.29,.21Z"/>
  <path d="M11.53,17.08s-.06,0-.09-.01c-.16-.05-.25-.22-.2-.38l.11-.36c.05-.16,.21-.25,.38-.2,.16,.05,.25,.22,.2,.38l-.11,.36c-.04,.13-.16,.21-.29,.21Z"/>
</svg>
