<svg xmlns="http://www.w3.org/2000/svg" viewBox="0 0 24 24" fill="#000000">
  <g>
    <path d="M14.79,19.92c-.17,0-.3-.13-.3-.3v-1.11c0-.17,.13-.3,.3-.3s.3,.13,.3,.3v1.11c0,.17-.13,.3-.3,.3Z"/>
    <path d="M15.35,19.36h-1.11c-.17,0-.3-.13-.3-.3s.13-.3,.3-.3h1.11c.17,0,.3,.13,.3,.3s-.13,.3-.3,.3Z"/>
  </g>
  <g>
    <path d="M16.87,18.27c-.46,0-.83-.37-.83-.83s.37-.83,.83-.83,.83,.37,.83,.83-.37,.83-.83,.83Zm0-1.05c-.12,0-.23,.1-.23,.23s.1,.23,.23,.23,.23-.1,.23-.23-.1-.23-.23-.23Z"/>
    <path d="M19.12,18.08c-.46,0-.83-.37-.83-.83s.37-.83,.83-.83,.83,.37,.83,.83-.37,.83-.83,.83Zm0-1.05c-.12,0-.23,.1-.23,.23s.1,.23,.23,.23,.23-.1,.23-.23-.1-.23-.23-.23Z"/>
    <path d="M17.36,17.75c-.17,0-.3-.13-.3-.3v-2.7c0-.15,.11-.28,.26-.3l2.29-.3c.08-.01,.17,.02,.24,.07,.06,.06,.1,.14,.1,.23v2.79c0,.17-.13,.3-.3,.3s-.3-.13-.3-.3v-2.45l-1.69,.22v2.43c0,.17-.13,.3-.3,.3Z"/>
    <path d="M17.54,15.95c-.15,0-.28-.11-.3-.27-.02-.17,.1-.31,.27-.33l1.85-.2c.17-.02,.31,.1,.33,.27,.02,.17-.1,.31-.27,.33l-1.85,.2h-.03Z"/>
  </g>
  <g>
    <path d="M10.01,5.72c-.17,0-.3-.13-.3-.3v-1.11c0-.17,.13-.3,.3-.3s.3,.13,.3,.3v1.11c0,.17-.13,.3-.3,.3Z"/>
    <path d="M10.57,5.17h-1.11c-.17,0-.3-.13-.3-.3s.13-.3,.3-.3h1.11c.17,0,.3,.13,.3,.3s-.13,.3-.3,.3Z"/>
  </g>
  <g>
    <path d="M12.01,7.85c-.17,0-.3-.13-.3-.3v-1.11c0-.17,.13-.3,.3-.3s.3,.13,.3,.3v1.11c0,.17-.13,.3-.3,.3Z"/>
    <path d="M12.57,7.29h-1.11c-.17,0-.3-.13-.3-.3s.13-.3,.3-.3h1.11c.17,0,.3,.13,.3,.3s-.13,.3-.3,.3Z"/>
  </g>
  <g>
    <path d="M4.78,8.81c-.46,0-.83-.37-.83-.83s.37-.83,.83-.83,.83,.37,.83,.83-.37,.83-.83,.83Zm0-1.05c-.13,0-.23,.1-.23,.23s.1,.23,.23,.23,.23-.1,.23-.23-.1-.23-.23-.23Z"/>
    <path d="M7.02,8.61c-.46,0-.83-.37-.83-.83s.37-.83,.83-.83,.83,.37,.83,.83-.37,.83-.83,.83Zm0-1.05c-.12,0-.23,.1-.23,.23s.1,.23,.23,.23,.23-.1,.23-.23-.1-.23-.23-.23Z"/>
    <path d="M5.26,8.28c-.17,0-.3-.13-.3-.3v-2.69c0-.15,.11-.28,.26-.3l2.29-.3c.08-.02,.17,.01,.24,.07,.06,.06,.1,.14,.1,.23v2.79c0,.17-.13,.3-.3,.3s-.3-.13-.3-.3v-2.45l-1.69,.22v2.43c0,.17-.13,.3-.3,.3Z"/>
    <path d="M5.44,6.48c-.15,0-.28-.11-.3-.27-.02-.17,.1-.31,.27-.33l1.85-.2c.17-.02,.31,.1,.33,.27,.02,.17-.1,.31-.27,.33l-1.85,.2h-.03Z"/>
  </g>
  <g>
    <path d="M17.16,8.46c-.18,0-.38-.06-.57-.23-.31-.29-.81-.79-.81-.79-.18-.22-.39-.71-.02-1.13l1.34-1.61s.04-.04,.06-.05c.22-.16,.76-.33,1.21,.11,.38,.38,1,.99,1,.99,.02,.02,.25,.24,.24,.57,0,.15-.06,.38-.31,.59-.43,.37-1.7,1.44-1.7,1.44-.1,.06-.26,.12-.44,.12Zm-.93-1.42s.47,.48,.77,.75c.13,.12,.24,.07,.25,.06,0,0,1.24-1.04,1.66-1.4,.04-.03,.1-.09,.1-.15,0-.05-.04-.11-.06-.13,0,0-.62-.61-1.01-1-.16-.16-.33-.1-.41-.06l-1.32,1.58h0c-.12,.14-.02,.3,.02,.35Zm0,0h0Zm-.24-.54h0Z"/>
    <path d="M15.85,6.62c-.07,0-.15-.03-.2-.08l-.45-.42c-.12-.11-.13-.3-.02-.42,.11-.12,.3-.13,.42-.02l.45,.42c.12,.11,.13,.3,.02,.42-.06,.06-.14,.1-.22,.1Z"/>
    <path d="M16.45,5.8c-.08,0-.16-.03-.22-.09l-.47-.49c-.12-.12-.11-.31,0-.42,.12-.12,.31-.11,.42,0l.47,.49c.12,.12,.11,.31,0,.42-.06,.06-.13,.08-.21,.08Z"/>
    <path d="M17.22,5.02c-.08,0-.15-.03-.21-.09l-.35-.35c-.12-.12-.12-.31,0-.42s.31-.12,.42,0l.35,.35c.12,.12,.12,.31,0,.42-.06,.06-.14,.09-.21,.09Z"/>
    <path d="M19.54,7.38c-.08,0-.15-.03-.21-.09l-.35-.35c-.12-.12-.12-.31,0-.42s.31-.12,.42,0l.35,.35c.12,.12,.12,.31,0,.42-.06,.06-.14,.09-.21,.09Z"/>
    <path d="M18.05,8.84c-.07,0-.15-.03-.2-.08l-.45-.42c-.12-.11-.13-.3-.02-.42,.11-.12,.3-.13,.42-.02l.45,.42c.12,.11,.13,.3,.02,.42-.06,.06-.14,.1-.22,.1Z"/>
    <path d="M18.97,8.31c-.08,0-.16-.03-.22-.09l-.47-.49c-.12-.12-.11-.31,0-.42,.12-.12,.31-.11,.42,0l.47,.49c.12,.12,.11,.31,0,.42-.06,.06-.13,.08-.21,.08Z"/>
    <path d="M11.04,14.72c-.08,0-.16-.03-.21-.09l-1.44-1.44c-.06-.06-.09-.13-.09-.22,0-.08,.03-.16,.09-.21l6.2-5.91c.12-.11,.31-.11,.42,.01,.11,.12,.11,.31-.01,.42l-5.98,5.7,1.01,1.01,5.78-6.1c.11-.12,.3-.12,.42-.01,.12,.11,.12,.3,.01,.42l-5.99,6.32c-.06,.06-.13,.09-.21,.09h0Z"/>
    <path d="M7.09,18.4c-.08,0-.15-.03-.21-.08l-1.11-1.08c-.12-.12-.12-.31,0-.42,.12-.12,.31-.12,.42,0l1.11,1.08c.12,.12,.12,.31,0,.42-.06,.06-.14,.09-.21,.09Z"/>
    <path d="M11.99,13.47c-.08,0-.15-.03-.21-.08l-1.11-1.08c-.12-.12-.12-.31,0-.42,.12-.12,.31-.12,.42,0l1.11,1.08c.12,.12,.12,.31,0,.42-.06,.06-.14,.09-.21,.09Z"/>
    <path d="M8.66,19.93c-1,0-1.74-.33-1.75-.33-2.37-1.08-2.7-3.02-2.75-3.4-.06-2.99,1.28-4.71,3.98-5.16,1.27-2.77,4.1-2.09,4.13-2.08,.16,.04,.26,.2,.22,.36-.04,.16-.2,.26-.36,.22-.1-.03-2.47-.58-3.5,1.88-.04,.1-.13,.17-.23,.18h-.08c-.9,.15-3.64,.57-3.56,4.55,.03,.29,.32,1.95,2.41,2.9,.03,.02,2.35,1.02,4.15-.89,.11-.12,.3-.13,.42-.01,.12,.11,.12,.3,.01,.42-1.02,1.07-2.17,1.35-3.1,1.35Z"/>
    <path d="M12.17,17.86c-.06,0-.11-.02-.16-.05-.14-.09-.18-.27-.09-.41,0,0,.53-.85,.52-1.64,0-.12,.07-.23,.18-.28,.19-.09,1.34-.84,1.76-2.06,.27-.77,.19-1.57-.24-2.38-.08-.15-.02-.33,.13-.4,.15-.08,.33-.02,.4,.13,.5,.96,.6,1.92,.27,2.85-.43,1.23-1.45,2.03-1.91,2.31-.05,.91-.58,1.76-.61,1.79-.06,.09-.15,.14-.25,.14Z"/>
    <path d="M8.33,17.54c-.24,0-.46-.04-.68-.13-.15-.06-.23-.24-.17-.39,.06-.15,.24-.23,.39-.17,.14,.06,.3,.09,.46,.09,.67,0,1.22-.55,1.22-1.22s-.55-1.22-1.22-1.22-1.22,.55-1.22,1.22c0,.14,.02,.28,.07,.41,.05,.16-.03,.33-.18,.38-.16,.05-.33-.03-.38-.18-.07-.19-.1-.4-.1-.61,0-1,.82-1.82,1.82-1.82s1.82,.82,1.82,1.82-.82,1.82-1.82,1.82Z"/>
  </g>
</svg>
