<?xml version="1.0" encoding="UTF-8"?>
<svg xmlns="http://www.w3.org/2000/svg" viewBox="0 0 24 24" fill="#000000">
  <path d="M12.05,16.8c-2.63,0-4.76-2.14-4.76-4.76s2.14-4.76,4.76-4.76,4.76,2.14,4.76,4.76-2.14,4.76-4.76,4.76Zm0-8.93c-2.3,0-4.16,1.87-4.16,4.16s1.87,4.16,4.16,4.16,4.16-1.87,4.16-4.16-1.87-4.16-4.16-4.16Z"/>
  <path d="M12.05,14.23c-1.21,0-2.2-.99-2.2-2.2s.99-2.2,2.2-2.2,2.2,.99,2.2,2.2-.99,2.2-2.2,2.2Zm0-3.79c-.88,0-1.6,.72-1.6,1.6s.72,1.6,1.6,1.6,1.6-.72,1.6-1.6-.72-1.6-1.6-1.6Z"/>
  <path d="M12.02,17.38c-3.07,0-6.07-1.76-8.92-5.24-.09-.1-.09-.25-.01-.36,.14-.2,3.58-4.97,8.66-5.15,3.17-.11,6.26,1.61,9.15,5.14,.08,.1,.09,.25,.02,.36-.14,.21-3.5,5.04-8.54,5.26-.12,0-.23,0-.35,0ZM3.72,11.94c2.78,3.33,5.69,4.97,8.62,4.83,4.21-.18,7.29-3.94,7.95-4.81-2.72-3.25-5.6-4.83-8.51-4.74-4.23,.15-7.37,3.85-8.05,4.72Z"/>
</svg>
