<svg viewBox="0 0 24 24" fill="#000000" xmlns="http://www.w3.org/2000/svg">
  <path d="M17.86,19.54H6.14c-.9,0-1.64-.74-1.64-1.64V8.5c0-.9,.74-1.64,1.64-1.64h11.72c.9,0,1.64,.74,1.64,1.64v9.4c0,.9-.74,1.64-1.64,1.64ZM6.14,7.46c-.57,0-1.04,.47-1.04,1.04v9.4c0,.57,.47,1.04,1.04,1.04h11.72c.57,0,1.04-.47,1.04-1.04V8.5c0-.57-.47-1.04-1.04-1.04H6.14Z"/>
  <path d="M6.75,7.31c-.17,0-.3-.13-.3-.3v-1.39c0-.64,.5-1.15,1.12-1.15s1.12,.52,1.12,1.15v1.32c0,.17-.13,.3-.3,.3s-.3-.13-.3-.3v-1.32c0-.31-.24-.56-.53-.56s-.53,.25-.53,.56v1.39c0,.17-.13,.3-.3,.3Z"/>
  <path d="M17.26,7.37c-.17,0-.3-.13-.3-.3v-1.45c0-.31-.24-.56-.53-.56s-.52,.25-.52,.56v1.45c0,.17-.13,.3-.3,.3s-.3-.13-.3-.3v-1.45c0-.64,.5-1.15,1.12-1.15s1.12,.52,1.12,1.15v1.45c0,.17-.13,.3-.3,.3Z"/>
  <path d="M7.01,16.88c-.17,0-.3-.13-.3-.3v-1.21c0-.17,.13-.3,.3-.3s.3,.13,.3,.3v1.21c0,.17-.13,.3-.3,.3Z"/>
  <path d="M7.62,16.27h-1.21c-.17,0-.3-.13-.3-.3s.13-.3,.3-.3h1.21c.17,0,.3,.13,.3,.3s-.13,.3-.3,.3Z"/>
  <path d="M7.93,14.31c-.17,0-.3-.13-.3-.3v-1.21c0-.17,.13-.3,.3-.3s.3,.13,.3,.3v1.21c0,.17-.13,.3-.3,.3Z"/>
  <path d="M8.53,13.71h-1.21c-.17,0-.3-.13-.3-.3s.13-.3,.3-.3h1.21c.17,0,.3,.13,.3,.3s-.13,.3-.3,.3Z"/>
  <path d="M16.7,14.49c-.17,0-.3-.13-.3-.3v-1.21c0-.17,.13-.3,.3-.3s.3,.13,.3,.3v1.21c0,.17-.13,.3-.3,.3Z"/>
  <path d="M17.31,13.89h-1.21c-.17,0-.3-.13-.3-.3s.13-.3,.3-.3h1.21c.17,0,.3,.13,.3,.3s-.13,.3-.3,.3Z"/>
  <path d="M17.66,11.92c-.17,0-.3-.13-.3-.3v-1.21c0-.17,.13-.3,.3-.3s.3,.13,.3,.3v1.21c0,.17-.13,.3-.3,.3Z"/>
  <path d="M18.26,11.32h-1.21c-.17,0-.3-.13-.3-.3s.13-.3,.3-.3h1.21c.17,0,.3,.13,.3,.3s-.13,.3-.3,.3Z"/>
  <circle cx="9.86" cy="18.11" r=".32"/>
  <circle cx="8.82" cy="18.11" r=".32"/>
  <circle cx="7.79" cy="18.11" r=".32"/>
  <path d="M12.23,11.78c-.17,0-.32-.15-.32-.32s.15-.32,.32-.32,.32,.15,.32,.32-.15,.32-.32,.32Z"/>
  <circle cx="11.12" cy="15.76" r=".32"/>
  <circle cx="13.13" cy="15.45" r=".32"/>
  <path d="M11.38,13.78c-.17,0-.32-.15-.32-.32s.15-.32,.32-.32,.32,.15,.32,.32-.15,.32-.32,.32Z"/>
  <path d="M12.79,13.51c-.17,0-.32-.15-.32-.32s.15-.32,.32-.32,.32,.15,.32,.32-.15,.32-.32,.32Z"/>
  <path d="M13.5,17.17h-4.88c-.12,0-.22-.07-.27-.17s-.03-.23,.04-.32l1.7-2.09h-.89c-.12,0-.22-.07-.27-.17-.05-.1-.04-.23,.04-.32l1.45-1.81h-.44c-.11,0-.22-.06-.27-.17-.05-.1-.04-.23,.03-.32l2.09-2.69c.1-.13,.29-.16,.42-.05,.13,.1,.15,.29,.05,.42l-1.71,2.21h.45c.12,0,.22,.07,.27,.17,.05,.1,.04,.23-.04,.32l-1.45,1.81h.9c.12,0,.22,.07,.27,.17s.03,.23-.04,.32l-1.7,2.09h4.25c.17,0,.3,.13,.3,.3s-.13,.3-.3,.3Z"/>
  <path d="M15.5,17.17h-4.88c-.17,0-.3-.13-.3-.3s.13-.3,.3-.3h4.25l-1.7-2.09c-.07-.09-.09-.21-.04-.32s.16-.17,.27-.17h.9l-1.45-1.81c-.07-.09-.09-.21-.04-.32,.05-.1,.16-.17,.27-.17h.45l-1.71-2.21c-.1-.13-.08-.32,.05-.42,.13-.1,.32-.08,.42,.05l2.09,2.69c.07,.09,.08,.21,.03,.32-.05,.1-.15,.17-.27,.17h-.44l1.45,1.81c.07,.09,.09,.21,.04,.32-.05,.1-.16,.17-.27,.17h-.89l1.7,2.09c.07,.09,.09,.21,.04,.32s-.16,.17-.27,.17Z"/>
  <path d="M11.37,19.21c-.17,0-.3-.13-.3-.3v-1.98c0-.17,.13-.3,.3-.3s.3,.13,.3,.3v1.98c0,.17-.13,.3-.3,.3Z"/>
  <path d="M13.06,19.21c-.17,0-.3-.13-.3-.3v-1.98c0-.17,.13-.3,.3-.3s.3,.13,.3,.3v1.98c0,.17-.13,.3-.3,.3Z"/>
  <path d="M10.44,9.74H4.93c-.17,0-.3-.13-.3-.3s.13-.3,.3-.3h5.51c.17,0,.3,.13,.3,.3s-.13,.3-.3,.3Z"/>
  <path d="M18.98,9.74h-5.51c-.17,0-.3-.13-.3-.3s.13-.3,.3-.3h5.51c.17,0,.3,.13,.3,.3s-.13,.3-.3,.3Z"/>
</svg>
