<svg viewBox="0 0 24 24" fill="#000000" xmlns="http://www.w3.org/2000/svg">
  <path d="M19.13,5.84c-.17,0-.3-.13-.3-.3v-1.2c0-.17,.13-.3,.3-.3s.3,.13,.3,.3v1.2c0,.17-.13,.3-.3,.3Z"/>
  <path d="M19.72,5.24h-1.2c-.17,0-.3-.13-.3-.3s.13-.3,.3-.3h1.2c.17,0,.3,.13,.3,.3s-.13,.3-.3,.3Z"/>
  <path d="M19.14,17.83c-.17,0-.3-.13-.3-.3v-1.2c0-.17,.13-.3,.3-.3s.3,.13,.3,.3v1.2c0,.17-.13,.3-.3,.3Z"/>
  <path d="M19.74,17.23h-1.2c-.17,0-.3-.13-.3-.3s.13-.3,.3-.3h1.2c.17,0,.3,.13,.3,.3s-.13,.3-.3,.3Z"/>
  <path d="M4.96,12.38c-.17,0-.3-.13-.3-.3v-1.2c0-.17,.13-.3,.3-.3s.3,.13,.3,.3v1.2c0,.17-.13,.3-.3,.3Z"/>
  <path d="M5.55,11.78h-1.2c-.17,0-.3-.13-.3-.3s.13-.3,.3-.3h1.2c.17,0,.3,.13,.3,.3s-.13,.3-.3,.3Z"/>
  <path d="M13.81,4.68c-.17,0-.32-.15-.32-.32s.15-.32,.32-.32,.32,.15,.32,.32-.15,.32-.32,.32Z"/>
  <path d="M17.54,6.78c-.17,0-.32-.15-.32-.32s.15-.32,.32-.32,.32,.15,.32,.32-.15,.32-.32,.32Z"/>
  <circle cx="5.21" cy="18.85" r=".32"/>
  <path d="M4.85,17.6c-.49,0-.89-.4-.89-.89s.4-.89,.89-.89,.89,.4,.89,.89-.4,.89-.89,.89Zm0-1.19c-.16,0-.29,.13-.29,.29s.13,.29,.29,.29,.29-.13,.29-.29-.13-.29-.29-.29Z"/>
  <path d="M7.39,17.37c-.49,0-.89-.4-.89-.89s.4-.89,.89-.89,.89,.4,.89,.89-.4,.89-.89,.89Zm0-1.19c-.16,0-.29,.13-.29,.29s.13,.29,.29,.29,.29-.13,.29-.29-.13-.29-.29-.29Z"/>
  <path d="M5.4,17c-.17,0-.3-.13-.3-.3v-3.04c0-.15,.11-.28,.26-.3l2.58-.34c.09-.01,.17,.01,.24,.07,.06,.06,.1,.14,.1,.23v3.15c0,.17-.13,.3-.3,.3s-.3-.13-.3-.3v-2.81l-1.98,.26v2.77c0,.17-.13,.3-.3,.3Z"/>
  <path d="M5.6,14.97c-.15,0-.28-.11-.3-.27-.02-.17,.1-.31,.27-.33l2.08-.22c.17-.02,.31,.1,.33,.27,.02,.17-.1,.31-.27,.33l-2.08,.22h-.03Z"/>
  <path d="M7.9,6.41c-.06,0-.12-.02-.18-.06-.06-.05-.11-.12-.12-.2l-.24-1.53c-.03-.16,.09-.32,.25-.34l1.61-.26c.17-.02,.32,.09,.34,.25l.24,1.53c.01,.08,0,.16-.05,.22-.05,.06-.12,.11-.2,.12l-1.61,.26s-.03,0-.05,0Zm.1-1.58l.15,.94,1.02-.16-.15-.94-1.02,.16Z"/>
  <path d="M18.1,9.8s-.03,0-.04,0l-.72-.1c-2.55-.57-4-1.94-4.26-2.2-1.72-1.47-3.43-1.56-3.45-1.56-.17,0-.29-.15-.29-.31,0-.17,.15-.29,.31-.29,.08,0,1.92,.1,3.83,1.72,.26,.26,1.6,1.52,3.96,2.05l.69,.09c.16,.02,.28,.17,.26,.34-.02,.15-.15,.26-.3,.26Z"/>
  <path d="M18.95,8.82s-.03,0-.05,0l-1-.17c-2.67-.57-4.2-1.93-4.48-2.2-1.84-1.48-3.64-1.57-3.66-1.57-.17,0-.29-.15-.29-.31s.14-.29,.31-.29c.08,0,2.02,.1,4.03,1.72,.28,.26,1.7,1.52,4.2,2.06l.99,.17c.16,.03,.27,.18,.24,.35-.02,.15-.15,.25-.29,.25Z"/>
  <path d="M15.85,18.53s-.04,0-.06,0c-.16-.03-.27-.19-.24-.35,.71-3.79,2.99-7.94,3.58-8.67,.3-.37,.28-.49,.28-.49,0,0-.01-.02-.07-.07-.02-.02-.08-.07-.34,.19-.12,.12-.31,.12-.42,0-.12-.12-.12-.31,0-.42,.42-.43,.81-.51,1.15-.24,.42,.34,.39,.78-.12,1.4-.42,.52-2.73,4.51-3.46,8.41-.03,.14-.15,.25-.29,.25Z"/>
  <path d="M14,18.63s-.04,0-.06,0c-.16-.04-.26-.2-.23-.36,.04-.19,1.04-4.6,4.84-9.52,.1-.13,.29-.16,.42-.05,.13,.1,.16,.29,.05,.42-3.71,4.81-4.72,9.24-4.73,9.29-.03,.14-.15,.24-.29,.24Z"/>
  <path d="M17.2,19.98H8.03c-.16,0-.29-.13-.3-.29,0,0-.03-.55-.03-.9,0-.46,.53-.66,.98-.69h7.73c.91,0,1.07,.67,1.07,.7v.88c0,.17-.13,.3-.29,.3Zm-8.88-.6h8.58v-.51s-.08-.17-.48-.17h-7.71c-.16,.01-.37,.08-.41,.13,0,.16,.02,.38,.02,.55Z"/>
  <path d="M9.93,18.67c-.14,0-.27-.1-.3-.25l-.43-2.56c-.01-.08,0-.16,.05-.23,.05-.06,.12-.11,.2-.12l1.7-.26c.16-.02,.31,.08,.34,.25l.46,2.75c.03,.16-.08,.32-.25,.35-.16,.03-.32-.08-.35-.25l-.41-2.46-1.11,.17,.38,2.26c.03,.16-.08,.32-.25,.35-.02,0-.03,0-.05,0Z"/>
  <path d="M9.85,15.89c-.14,0-.27-.1-.29-.25l-1.67-9.51c-.03-.16,.08-.32,.24-.35,.16-.02,.32,.08,.35,.24l1.67,9.51c.03,.16-.08,.32-.24,.35-.02,0-.03,0-.05,0Z"/>
  <path d="M10.92,15.7c-.14,0-.27-.1-.29-.25l-1.67-9.51c-.03-.16,.08-.32,.24-.35,.17-.03,.32,.08,.35,.24l1.67,9.51c.03,.16-.08,.32-.24,.35-.02,0-.04,0-.05,0Z"/>
  <path d="M13.26,18.46c-.14,0-.27-.1-.29-.25l-2.21-12.05c-.03-.16,.08-.32,.24-.35,.16-.03,.32,.08,.35,.24l2.21,12.05c.03,.16-.08,.32-.24,.35-.02,0-.04,0-.05,0Z"/>
  <path d="M14.68,16.16c-.14,0-.27-.1-.29-.25l-1.59-8.69c-.03-.16,.08-.32,.24-.35,.16-.03,.32,.08,.35,.24l1.59,8.69c.03,.16-.08,.32-.24,.35-.02,0-.04,0-.05,0Z"/>
  <path d="M15.96,13.21c-.14,0-.27-.1-.29-.25l-.79-4.31c-.03-.16,.08-.32,.24-.35,.16-.03,.32,.08,.35,.24l.79,4.31c.03,.16-.08,.32-.24,.35-.02,0-.04,0-.05,0Z"/>
</svg>
