<svg xmlns="http://www.w3.org/2000/svg" viewBox="0 0 24 24" fill="#000000">
  <path d="M7.08,19.17c-.54,0-.98-.44-.98-.98v-4h.6v4c0,.21,.17,.38,.38,.38s.38-.17,.38-.38v-3.78h.6v3.78c0,.54-.44,.98-.98,.98Z"/>
  <path d="M16.67,18.11h-.2c-.48,0-.87-.39-.87-.87V5.7c0-.48,.39-.87,.87-.87h.2c.48,0,.87,.39,.87,.87v11.53c0,.48-.39,.87-.87,.87Zm-.2-12.68c-.15,0-.27,.12-.27,.27v11.53c0,.15,.12,.27,.27,.27h.2c.15,0,.27-.12,.27-.27V5.7c0-.15-.12-.27-.27-.27h-.2Z"/>
  <path d="M21.05,11.77h-1.38c-.17,0-.3-.13-.3-.3s.13-.3,.3-.3h1.38c.17,0,.3,.13,.3,.3s-.13,.3-.3,.3Z"/>
  <path d="M19.06,10.13c-.08,0-.15-.03-.21-.09-.12-.12-.12-.31,0-.42l.97-.97c.12-.12,.31-.12,.42,0,.12,.12,.12,.31,0,.42l-.97,.97c-.06,.06-.14,.09-.21,.09Z"/>
  <path d="M20.04,14.31c-.08,0-.15-.03-.21-.09l-.97-.97c-.12-.12-.12-.31,0-.42,.12-.12,.31-.12,.42,0l.97,.97c.12,.12,.12,.31,0,.42-.06,.06-.14,.09-.21,.09Z"/>
  <path d="M9.46,14.74h-2.23c-1.81,0-3.28-1.47-3.28-3.28s1.47-3.28,3.28-3.28h2.25c.17,0,.3,.13,.3,.3s-.13,.3-.3,.3h-2.25c-1.48,0-2.69,1.2-2.69,2.69s1.2,2.68,2.69,2.68h2.23c.17,0,.3,.13,.3,.3s-.13,.3-.3,.3Z"/>
  <path d="M4.26,13.06c-.88,0-1.6-.72-1.6-1.6s.72-1.6,1.6-1.6c.11,0,.22,.01,.32,.03,.16,.03,.27,.19,.23,.35-.03,.16-.19,.27-.35,.23-.06-.01-.13-.02-.2-.02-.55,0-1,.45-1,1s.45,1,1,1c.17,0,.3,.13,.3,.3s-.13,.3-.3,.3Z"/>
  <path d="M17.48,12.96c-.12,0-.23-.07-.28-.18-.06-.15,0-.33,.16-.39,.37-.16,.61-.52,.61-.93s-.26-.8-.66-.94c-.16-.06-.24-.23-.18-.39,.06-.16,.23-.23,.39-.18,.63,.23,1.05,.84,1.05,1.51s-.38,1.23-.98,1.48c-.04,.02-.08,.02-.12,.02Z"/>
  <path d="M15.59,16.93s-.07,0-.1-.02l-5.92-2.21c-.12-.04-.19-.16-.19-.28v-5.94c0-.13,.08-.24,.2-.28l5.97-2.21c.16-.06,.33,.02,.39,.18,.06,.16-.02,.33-.18,.39l-5.77,2.14v5.53l5.72,2.14c.16,.06,.23,.23,.18,.39-.04,.12-.16,.2-.28,.2Z"/>
</svg>
