<svg xmlns="http://www.w3.org/2000/svg" viewBox="0 0 24 24" fill="#000000">
  <path d="M12.17,19.94H7.1c-.88,0-1.59-.76-1.59-1.68V5.74c0-.93,.71-1.68,1.59-1.68h5.07c.88,0,1.59,.76,1.59,1.68v12.51c0,.93-.71,1.68-1.59,1.68ZM7.1,4.66c-.55,0-.99,.49-.99,1.08v12.51c0,.6,.44,1.08,.99,1.08h5.07c.55,0,.99-.49,.99-1.08V5.74c0-.6-.44-1.08-.99-1.08H7.1Z"/>
  <path d="M6.01 5.74H13.25V6.34H6.01z"/>
  <path d="M6.01 16.15H13.25V16.75H6.01z"/>
  <path d="M9.63,18.98c-.56,0-1.01-.45-1.01-1.01s.45-1.01,1.01-1.01,1.01,.45,1.01,1.01-.45,1.01-1.01,1.01Zm0-1.42c-.23,0-.41,.18-.41,.41s.18,.41,.41,.41,.41-.18,.41-.41-.18-.41-.41-.41Z"/>
  <path d="M16.42,14.75c-.1,0-.19-.05-.25-.13-.09-.14-.06-.32,.08-.42,1.03-.69,1.64-1.84,1.64-3.08s-.61-2.39-1.64-3.08c-.14-.09-.17-.28-.08-.42,.09-.14,.28-.17,.42-.08,1.19,.8,1.9,2.14,1.9,3.58s-.71,2.77-1.9,3.58c-.05,.03-.11,.05-.17,.05Z"/>
  <path d="M14.98,13.61c-.12,0-.24-.08-.28-.2-.06-.16,.02-.33,.18-.38,.8-.29,1.34-1.07,1.34-1.92s-.51-1.59-1.29-1.9c-.15-.06-.23-.24-.17-.39,.06-.15,.23-.23,.39-.17,1.02,.4,1.67,1.37,1.67,2.46s-.7,2.11-1.74,2.48c-.03,.01-.07,.02-.1,.02Z"/>
</svg>
