<?xml version="1.0" encoding="UTF-8"?>
<svg xmlns="http://www.w3.org/2000/svg" viewBox="0 0 24 24" fill="#000000">
  <path d="M17.35,19.92c-.1,0-.2-.05-.25-.14-1.54-2.41-2.46-4.32-2.46-5.12,0-1.5,1.22-2.72,2.72-2.72s2.72,1.22,2.72,2.72c0,.8-.92,2.71-2.46,5.12-.06,.09-.15,.14-.25,.14Zm0-7.38c-1.17,0-2.12,.95-2.12,2.12,0,.39,.45,1.75,2.12,4.4,1.66-2.65,2.12-4.01,2.12-4.4,0-1.17-.95-2.12-2.12-2.12Z"/>
  <path d="M17.35,16c-.72,0-1.3-.58-1.3-1.3s.58-1.3,1.3-1.3,1.3,.58,1.3,1.3-.58,1.3-1.3,1.3Zm0-2.01c-.39,0-.7,.32-.7,.7s.32,.7,.7,.7,.7-.32,.7-.7-.32-.7-.7-.7Z"/>
  <path d="M16.4,11.41h-2.8c-.17,0-.3-.13-.3-.3v-1.78c0-.17,.13-.3,.3-.3h2.8c.17,0,.3,.13,.3,.3v1.78c0,.17-.13,.3-.3,.3Zm-2.5-.6h2.2v-1.18h-2.2v1.18Z"/>
  <path d="M9.38,15.38c-1.56,0-2.84-1.27-2.84-2.84s1.27-2.84,2.84-2.84,2.84,1.27,2.84,2.84-1.27,2.84-2.84,2.84Zm0-5.08c-1.23,0-2.24,1-2.24,2.24s1,2.24,2.24,2.24,2.24-1,2.24-2.24-1-2.24-2.24-2.24Z"/>
  <path d="M15.6,17.62H5.63c-.93,0-1.68-.75-1.68-1.68v-6.51c0-.93,.75-1.68,1.68-1.68h11.67c.93,0,1.68,.75,1.68,1.68v3.07c0,.17-.13,.3-.3,.3s-.3-.13-.3-.3v-3.07c0-.6-.49-1.08-1.08-1.08H5.63c-.6,0-1.08,.49-1.08,1.08v6.51c0,.6,.49,1.08,1.08,1.08H15.6c.17,0,.3,.13,.3,.3s-.13,.3-.3,.3Z"/>
  <path d="M11.33,8.28c-.17,0-.3-.13-.3-.3v-.65c0-.44-.36-.8-.8-.8h-2.74c-.44,0-.8,.36-.8,.8v.54c0,.17-.13,.3-.3,.3s-.3-.13-.3-.3v-.54c0-.77,.63-1.4,1.4-1.4h2.74c.77,0,1.4,.63,1.4,1.4v.65c0,.17-.13,.3-.3,.3Z"/>
</svg>
