<?xml version="1.0" encoding="UTF-8"?>
<svg xmlns="http://www.w3.org/2000/svg" viewBox="0 0 24 24" fill="#000000">
  <path d="M18.37,18.43H5.63c-.89,0-1.62-.72-1.62-1.62v-6.88c0-.89,.72-1.62,1.62-1.62h12.73c.89,0,1.62,.72,1.62,1.62v6.88c0,.89-.72,1.62-1.62,1.62ZM5.63,8.92c-.56,0-1.02,.46-1.02,1.02v6.88c0,.56,.46,1.02,1.02,1.02h12.73c.56,0,1.02-.46,1.02-1.02v-6.88c0-.56-.46-1.02-1.02-1.02H5.63Z"/>
  <path d="M17.91,12.96h-4.11c-.17,0-.3-.13-.3-.3s.13-.3,.3-.3h4.11c.17,0,.3,.13,.3,.3s-.13,.3-.3,.3Z"/>
  <path d="M16.2,15.72h-2.56c-.17,0-.3-.13-.3-.3s.13-.3,.3-.3h2.56c.17,0,.3,.13,.3,.3s-.13,.3-.3,.3Z"/>
  <path d="M9.08,13.41c-.9,0-1.64-.74-1.64-1.64s.74-1.64,1.64-1.64,1.64,.74,1.64,1.64-.74,1.64-1.64,1.64Zm0-2.68c-.57,0-1.04,.47-1.04,1.04s.47,1.04,1.04,1.04,1.04-.47,1.04-1.04-.47-1.04-1.04-1.04Z"/>
  <path d="M12.17,16.65c-.17,0-.3-.13-.3-.3v-1.16s-.1-.6-.68-.6h-.71l-1.08,.8c-.13,.1-.32,.07-.42-.06-.1-.13-.07-.32,.06-.42l1.16-.86c.05-.04,.11-.06,.18-.06h.8c.9,0,1.23,.76,1.28,1.17v1.19c0,.17-.13,.3-.3,.3Z"/>
  <path d="M6.19,16.65c-.17,0-.3-.13-.3-.3v-1.16c.05-.44,.38-1.2,1.28-1.2h.8c.06,0,.13,.02,.18,.06l1.16,.86c.13,.1,.16,.29,.06,.42-.1,.13-.29,.16-.42,.06l-1.08-.8h-.71c-.6,0-.68,.61-.69,.64v1.12c0,.17-.13,.3-.3,.3Z"/>
  <path d="M12.04,8.86c-.17,0-.3-.13-.3-.3v-1.01c0-.17,.13-.3,.3-.3s.3,.13,.3,.3v1.01c0,.17-.13,.3-.3,.3Z"/>
  <path d="M14.33,8.8c-.17,0-.3-.13-.3-.3v-1.62c0-.4-.32-.72-.72-.72h-2.55c-.4,0-.72,.32-.72,.72v1.62c0,.17-.13,.3-.3,.3s-.3-.13-.3-.3v-1.62c0-.73,.59-1.32,1.32-1.32h2.55c.73,0,1.32,.59,1.32,1.32v1.62c0,.17-.13,.3-.3,.3Z"/>
</svg>
