<svg xmlns="http://www.w3.org/2000/svg" viewBox="0 0 24 24" fill="#000000">
  <path d="M16.77,17.82c-.06,0-.13-.02-.18-.06-.13-.1-.16-.29-.06-.42l2.62-3.41-6.61-1.76c-.16-.04-.26-.21-.21-.37,.04-.16,.21-.25,.37-.21l7.04,1.87c.1,.03,.17,.1,.21,.19,.03,.1,.01,.2-.05,.28l-2.9,3.77c-.06,.08-.15,.12-.24,.12Z"/>
  <path d="M9.62,11.23h0c-.83,0-1.62-.33-2.21-.92s-.91-1.38-.91-2.21c0-.5,.12-.97,.35-1.42,.08-.15,.26-.2,.4-.13,.15,.08,.21,.26,.13,.4-.19,.36-.28,.75-.28,1.15,0,.68,.26,1.31,.73,1.79,.48,.48,1.11,.74,1.78,.75h0c1.25,0,2.32-.93,2.5-2.16,.02-.16,.18-.28,.34-.25,.16,.02,.28,.18,.25,.34-.22,1.53-1.55,2.68-3.09,2.68Z"/>
  <path d="M12.71,8.71s-.06,0-.08-.01c-.16-.05-.25-.21-.2-.37,.46-1.58-.29-3.12-1.75-3.6-.25-.08-.51-.15-.78-.12-1.18,0-2.35,.87-2.67,1.98-.05,.16-.21,.25-.37,.21-.16-.05-.25-.21-.21-.37,.39-1.38,1.79-2.42,3.24-2.42,.3-.02,.65,.05,.97,.15,1.78,.57,2.7,2.44,2.15,4.33-.04,.13-.16,.22-.29,.22Z"/>
  <path d="M13.7,9.05s-.06,0-.09-.01l-7-2.24c-.16-.05-.25-.22-.19-.38,.05-.16,.22-.24,.38-.19l7,2.24c.16,.05,.25,.22,.19,.38-.04,.13-.16,.21-.29,.21Z"/>
  <path d="M14.38,19.93h-4.22c-.71,0-1.3-.4-1.65-1.12-.41-.84-1.11-2.28-1.55-3.19-.07-.15,0-.33,.14-.4,.15-.07,.33,0,.4,.14,.44,.91,1.14,2.35,1.55,3.19,.26,.52,.63,.79,1.11,.79h4.22c.66,0,1-.28,1-.84,0-.43-.17-.68-.53-.79l-3.63-.37c-.11-.01-.2-.08-.24-.18l-1.48-3.48c-.54-1.33-1.45-2.05-2.53-1.96-1.98,.16-2.29,1.79-2.31,2.76v5.16c.01,.17-.12,.3-.29,.3h0c-.17,0-.3-.13-.3-.3v-5.17c0-1.96,1.08-3.21,2.84-3.35,1.33-.09,2.5,.77,3.13,2.33l1.41,3.32,3.51,.37c.67,.2,1.01,.68,1.01,1.38,0,.9-.6,1.44-1.6,1.44Z"/>
  <path d="M15.09,17.75c-.07,0-.13-.02-.19-.06-.13-.1-.15-.29-.05-.42l.97-1.22c.1-.13,.29-.15,.42-.05,.13,.1,.15,.29,.05,.42l-.97,1.22c-.06,.07-.15,.11-.23,.11Z"/>
  <path d="M16.79,15.57c-.07,0-.13-.02-.19-.07-.13-.1-.15-.29-.04-.42l.31-.38-5.1-1.39-1.2,1.45c-.11,.13-.3,.14-.42,.04-.13-.11-.14-.29-.04-.42l1.33-1.59c.07-.09,.2-.13,.31-.1l5.73,1.56c.1,.03,.18,.1,.21,.2,.03,.1,.01,.2-.05,.28l-.59,.74c-.06,.07-.15,.11-.23,.11Z"/>
  <path d="M12.86,15.79s-.07,0-.1-.02l-.85-.29c-.16-.05-.24-.23-.19-.38,.05-.16,.22-.24,.38-.19l.65,.22,1.27-1.64c.1-.13,.29-.15,.42-.05,.13,.1,.15,.29,.05,.42l-1.41,1.81c-.06,.07-.15,.12-.24,.12Z"/>
</svg>
