<svg viewBox="0 0 24 24" fill="#000000" xmlns="http://www.w3.org/2000/svg">
  <path d="M9.3,8.9c-.17,0-.3-.13-.3-.3V4.37c0-.17,.13-.3,.3-.3s.3,.13,.3,.3v4.22c0,.17-.13,.3-.3,.3Z"/>
  <path d="M10.3,8.9c-.17,0-.3-.13-.3-.3V4.37c0-.17,.13-.3,.3-.3s.3,.13,.3,.3v4.22c0,.17-.13,.3-.3,.3Z"/>
  <path d="M9.73,20.08c-.24,0-.46-.09-.63-.25-.36-.35-.37-.93-.37-1V10.81c-.86-.17-1.1-.96-1.1-1.39V4.35c0-.17,.13-.3,.3-.3s.3,.13,.3,.3v5.07c0,.13,.05,.81,.8,.82,.16,0,.29,.14,.29,.3v8.3c0,.1,.04,.42,.19,.56,.04,.04,.11,.08,.24,.08,.52,0,.58-.35,.58-.62V10.49c0-.16,.13-.3,.29-.3,.13,0,.8-.08,.78-.97-.03-1.24,0-4.73,0-4.77,0-.17,.13-.3,.3-.3h0c.17,0,.3,.14,.3,.3,0,.04-.02,3.52,0,4.75,.02,1.01-.59,1.42-1.07,1.54v8.11c0,.92-.63,1.22-1.2,1.22Z"/>
  <path d="M15.18,20c-.62,0-1.12-.5-1.12-1.12v-5.09l-.84-.91c-.05-.06-.08-.13-.08-.2V5.64c0-.87,.71-1.58,1.58-1.58s1.58,.71,1.58,1.58v13.25c0,.62-.5,1.12-1.12,1.12Zm-1.44-7.44l.84,.91c.05,.06,.08,.13,.08,.2v5.21c0,.29,.23,.52,.52,.52s.52-.23,.52-.52V5.64c0-.54-.44-.98-.98-.98s-.98,.44-.98,.98v6.92Z"/>
</svg>
