<?xml version="1.0" encoding="UTF-8"?>
<svg xmlns="http://www.w3.org/2000/svg" viewBox="0 0 24 24" fill="#000000">
  <path d="M12.74,16.42h-1.49c-.47,0-.84-.38-.84-.84v-.86h-.86c-.46,0-.84-.38-.84-.84v-1.49c0-.46,.38-.84,.84-.84h.86v-.86c0-.47,.38-.84,.84-.84h1.49c.47,0,.84,.38,.84,.84v.86h.86c.47,0,.84,.38,.84,.84v1.49c0,.47-.38,.84-.84,.84h-.86v.86c0,.47-.38,.84-.84,.84Zm-3.2-4.29c-.13,0-.24,.11-.24,.24v1.49c0,.13,.11,.24,.24,.24h1.16c.17,0,.3,.13,.3,.3v1.16c0,.13,.11,.24,.24,.24h1.49c.13,0,.24-.11,.24-.24v-1.16c0-.17,.13-.3,.3-.3h1.16c.13,0,.24-.11,.24-.24v-1.49c0-.13-.11-.24-.24-.24h-1.16c-.17,0-.3-.13-.3-.3v-1.16c0-.13-.11-.24-.24-.24h-1.49c-.13,0-.24,.11-.24,.24v1.16c0,.17-.13,.3-.3,.3h-1.16Z"/>
  <path d="M18.71,18.73H5.29c-.67,0-1.21-.54-1.21-1.21V8.73c0-.67,.54-1.21,1.21-1.21h13.42c.67,0,1.21,.54,1.21,1.21v8.79c0,.67-.54,1.21-1.21,1.21ZM5.29,8.12c-.34,0-.61,.27-.61,.61v8.79c0,.34,.27,.61,.61,.61h13.42c.34,0,.61-.27,.61-.61V8.73c0-.34-.27-.61-.61-.61H5.29Z"/>
  <path d="M15.58,7.99c-.17,0-.3-.13-.3-.3v-1.37c0-.25-.21-.46-.46-.46h-5.65c-.25,0-.46,.2-.46,.46v1.37c0,.17-.13,.3-.3,.3s-.3-.13-.3-.3v-1.37c0-.58,.47-1.06,1.05-1.06h5.65c.58,0,1.06,.47,1.06,1.06v1.37c0,.17-.13,.3-.3,.3Z"/>
</svg>
