<svg xmlns="http://www.w3.org/2000/svg" viewBox="0 0 24 24" fill="#000000">
  <path d="M11.35,19.85H3.5c-.17,0-.3-.13-.3-.3v-1.34c0-.17,.13-.3,.3-.3h7.85c.17,0,.3,.13,.3,.3v1.34c0,.17-.13,.3-.3,.3Zm-7.55-.6h7.25v-.74H3.8v.74Z"/>
  <path d="M10.64,18.46c-.17,0-.3-.13-.3-.3,0-.32-.09-.56-.26-.73-.31-.29-.79-.27-.8-.27h-3.8c-.33,0-.58,.08-.73,.25-.22,.24-.19,.6-.19,.61,.02,.16-.1,.31-.27,.33-.17,.02-.31-.1-.33-.26,0-.02-.07-.62,.33-1.07,.27-.3,.67-.45,1.18-.45h3.78s.73-.04,1.23,.43c.3,.28,.45,.67,.45,1.17,0,.17-.13,.3-.3,.3Z"/>
  <path d="M9.86,13.52c-.08,0-.15-.03-.21-.09l-3.32-3.32c-.12-.12-.12-.31,0-.42l4.33-4.33c.11-.11,.31-.11,.42,0l3.32,3.32c.06,.06,.09,.13,.09,.21s-.03,.16-.09,.21l-4.33,4.33c-.06,.06-.14,.09-.21,.09Zm-2.9-3.62l2.9,2.9,3.91-3.91-2.9-2.9-3.91,3.91Z"/>
  <path d="M11.82,12.66c-.08,0-.15-.03-.21-.09l-.55-.55c-.06-.06-.09-.13-.09-.21s.03-.16,.09-.21l1.45-1.45c.12-.12,.31-.12,.42,0l.55,.55c.06,.06,.09,.13,.09,.21s-.03,.16-.09,.21l-1.45,1.45c-.06,.06-.14,.09-.21,.09Zm-.13-.85l.13,.13,1.03-1.03-.13-.13-1.03,1.03Z"/>
  <path d="M19.3,19.96s-.06,0-.08,0c-.27-.02-.66-.14-1.03-.61l-6.29-7.09c-.1-.12-.1-.3,.01-.41l.84-.84c.11-.11,.3-.12,.41,0l7.02,6.41h0s.55,.4,.6,1.02c.03,.38-.12,.74-.46,1.08-.14,.14-.52,.46-1.03,.46Zm-6.76-7.89l6.11,6.89v.02c.2,.24,.4,.37,.61,.39,.33,.03,.58-.21,.65-.28,.2-.2,.3-.41,.29-.6-.03-.34-.38-.6-.38-.6l-6.84-6.24-.44,.44Z"/>
  <path d="M9.09,14.79h-.02c-.42,0-.73-.33-.76-.37l-2.85-2.85c-.32-.32-.48-.64-.46-.96,.02-.35,.24-.54,.26-.56l.72-.72c.06-.06,.13-.09,.21-.09h0c.08,0,.16,.03,.21,.09l.44,.44c.12,.12,.12,.31,0,.42s-.31,.12-.42,0l-.23-.23-.52,.52s-.07,.07-.07,.16c0,.13,.1,.31,.29,.5l2.85,2.85c.05,.05,.2,.18,.34,.18,.05,0,.11,0,.2-.1l.51-.51-.6-.6c-.12-.12-.12-.31,0-.42,.12-.12,.31-.12,.42,0l.81,.81c.12,.12,.12,.31,0,.42l-.73,.73c-.18,.18-.39,.27-.62,.27Z"/>
  <path d="M14.55,9.55c-.08,0-.15-.03-.21-.09l-.81-.81c-.12-.12-.12-.31,0-.42,.12-.12,.31-.12,.42,0l.6,.6,.51-.51c.09-.09,.1-.15,.1-.2,0-.14-.13-.29-.18-.34l-2.86-2.86c-.19-.19-.36-.29-.49-.29h0c-.09,0-.14,.05-.15,.05l-.53,.54,.23,.23c.12,.12,.12,.31,0,.42-.12,.12-.31,.12-.42,0l-.44-.44c-.12-.12-.12-.31,0-.42l.73-.73s.2-.23,.55-.24c.31,0,.64,.14,.96,.46l2.85,2.85s.35,.34,.36,.76c0,.23-.09,.45-.27,.63l-.73,.73c-.06,.06-.14,.09-.21,.09Z"/>
</svg>
