<?xml version="1.0" encoding="UTF-8"?>
<svg xmlns="http://www.w3.org/2000/svg" viewBox="0 0 24 24" fill="#000000">
  <path d="M19.71,17.54H4.29c-.17,0-.3-.13-.3-.3v-3.37c0-.14,.09-.26,.23-.29,.76-.19,1.08-.67,1.08-1.6s-.32-1.41-1.08-1.6c-.13-.03-.23-.15-.23-.29v-3.33c0-.17,.13-.3,.3-.3h15.41c.17,0,.3,.13,.3,.3v3.3c0,.14-.1,.26-.24,.29-.8,.17-1.16,.68-1.16,1.63s.36,1.45,1.16,1.63c.14,.03,.24,.15,.24,.29v3.34c0,.17-.13,.3-.3,.3Zm-15.11-.6h14.81v-2.81c-.93-.29-1.4-1.01-1.4-2.15s.47-1.86,1.4-2.15v-2.77H4.59v2.8c.87,.31,1.31,1.02,1.31,2.12s-.44,1.81-1.31,2.12v2.84Z"/>
  <path d="M7.31,8.77c-.17,0-.3-.13-.3-.3v-1.62c0-.17,.13-.3,.3-.3s.3,.13,.3,.3v1.62c0,.17-.13,.3-.3,.3Z"/>
  <path d="M7.31,11.89c-.17,0-.3-.13-.3-.3v-2.12c0-.17,.13-.3,.3-.3s.3,.13,.3,.3v2.12c0,.17-.13,.3-.3,.3Z"/>
  <path d="M7.31,15.08c-.17,0-.3-.13-.3-.3v-2.12c0-.17,.13-.3,.3-.3s.3,.13,.3,.3v2.12c0,.17-.13,.3-.3,.3Z"/>
  <path d="M7.31,17.58c-.17,0-.3-.13-.3-.3v-1.51c0-.17,.13-.3,.3-.3s.3,.13,.3,.3v1.51c0,.17-.13,.3-.3,.3Z"/>
  <g>
    <path d="M10,15.49c-.08,0-.15-.03-.21-.09-.12-.12-.12-.31,0-.42l.77-.77c.12-.12,.31-.12,.42,0,.12,.12,.12,.31,0,.42l-.77,.77c-.06,.06-.14,.09-.21,.09Z"/>
    <path d="M16.51,10.44c-.08,0-.15-.03-.21-.09l-1.33-1.33c-.12-.12-.12-.31,0-.42,.12-.12,.31-.12,.42,0l1.33,1.33c.12,.12,.12,.31,0,.42-.06,.06-.14,.09-.21,.09Z"/>
    <path d="M12.34,13.03c-.08,0-.15-.03-.21-.09l-.81-.81c-.12-.12-.12-.31,0-.42,.12-.12,.31-.12,.42,0l.81,.81c.12,.12,.12,.31,0,.42-.06,.06-.14,.09-.21,.09Z"/>
    <path d="M13.04,12.33c-.08,0-.15-.03-.21-.09l-.81-.81c-.12-.12-.12-.31,0-.42,.12-.12,.31-.12,.42,0l.81,.81c.12,.12,.12,.31,0,.42-.06,.06-.14,.09-.21,.09Z"/>
    <path d="M13.74,11.63c-.08,0-.15-.03-.21-.09l-.81-.81c-.12-.12-.12-.31,0-.42,.12-.12,.31-.12,.42,0l.81,.81c.12,.12,.12,.31,0,.42-.06,.06-.14,.09-.21,.09Z"/>
    <path d="M12.49,14.91c-.08,0-.15-.03-.21-.09l-1.92-1.92c-.12-.12-.12-.31,0-.42l2.98-2.98c.12-.12,.31-.12,.42,0l1.92,1.92c.12,.12,.12,.31,0,.42l-2.98,2.98c-.06,.06-.14,.09-.21,.09Zm-1.49-2.22l1.49,1.49,2.55-2.55-1.49-1.49-2.55,2.55Z"/>
    <path d="M14.92,11.2c-.08,0-.15-.03-.21-.09l-.63-.63c-.12-.12-.12-.31,0-.42l1.13-1.13c.12-.12,.31-.12,.42,0l.63,.63c.12,.12,.12,.31,0,.42l-1.13,1.13c-.06,.06-.14,.09-.21,.09Zm-.21-.93l.21,.21,.71-.71-.21-.21-.71,.71Z"/>
    <path d="M11.45,15.11c-.08,0-.15-.03-.21-.09l-1.08-1.08c-.12-.12-.12-.31,0-.42l.61-.61c.12-.12,.31-.12,.42,0l1.08,1.08c.12,.12,.12,.31,0,.42l-.61,.61c-.06,.06-.14,.09-.21,.09Zm-.65-1.38l.65,.65,.19-.19-.65-.65-.19,.19Z"/>
  </g>
</svg>
