<svg viewBox="0 0 24 24" fill="#000000" xmlns="http://www.w3.org/2000/svg">
  <path d="M12.91,14.14c-.28,0-.55-.11-.75-.31l-2.51-2.51c-.41-.41-.41-1.08,0-1.49l.13-.13c.41-.41,1.08-.41,1.49,0l2.51,2.51c.2,.2,.31,.46,.31,.75s-.11,.55-.31,.75l-.13,.13c-.2,.2-.46,.31-.75,.31Zm-2.38-4.15c-.12,0-.23,.04-.32,.13l-.13,.13c-.18,.18-.18,.47,0,.65l2.51,2.51c.17,.17,.48,.17,.65,0l.13-.13c.18-.18,.18-.47,0-.65l-2.51-2.51c-.09-.09-.21-.13-.32-.13Z"/>
  <path d="M8.66,9.83c-.32,0-.61-.12-.83-.35s-.35-.52-.35-.83,.12-.61,.35-.83c.46-.46,1.21-.46,1.67,0h0c.46,.46,.46,1.21,0,1.67-.22,.22-.52,.35-.83,.35Zm0-1.76c-.15,0-.3,.06-.41,.17-.11,.11-.17,.26-.17,.41s.06,.3,.17,.41c.22,.22,.6,.22,.82,0,.23-.23,.23-.59,0-.82-.11-.11-.26-.17-.41-.17Z"/>
  <path d="M5.92,8.95c-.08,0-.15-.03-.21-.09-.12-.12-.12-.31,0-.42l2.85-2.85c.12-.12,.31-.12,.42,0,.12,.12,.12,.31,0,.42l-2.85,2.85c-.06,.06-.14,.09-.21,.09Z"/>
  <path d="M16.41,18.07c-.08,0-.15-.03-.21-.09-.12-.12-.12-.31,0-.42l1.18-1.18c.12-.12,.31-.12,.42,0,.12,.12,.12,.31,0,.42l-1.18,1.18c-.06,.06-.14,.09-.21,.09Z"/>
  <path d="M11.18,12.46c-.08,0-.15-.03-.21-.09-.12-.12-.12-.31,0-.42l1.02-1.02c.12-.12,.31-.12,.42,0,.12,.12,.12,.31,0,.42l-1.02,1.02c-.06,.06-.14,.09-.21,.09Z"/>
  <path d="M18.75,19.95c-.31,0-.59-.12-.81-.34l-1.58-1.58s-.1,0-.15-.03l-.27-.12-4.86-3.3-1.41-1.23-4.86-4.86c-.96-.96-.96-2.52,0-3.49l.27-.27c.96-.96,2.52-.96,3.49,0h0l4.85,4.85s.07,.08,.1,.12l1.1,1.32,3.34,5.31s.02,.04,.03,.06l1.57,1.57c.22,.22,.33,.5,.33,.81s-.12,.6-.34,.81c-.22,.22-.5,.33-.81,.33Zm-2.33-2.58c.08,0,.15,.03,.21,.09l1.73,1.73c.21,.21,.57,.21,.77,0,.1-.1,.16-.24,.16-.39s-.06-.28-.16-.39l-1.67-1.67s-.08-.11-.09-.18l-3.25-5.17-1.1-1.31s-.03-.04-.05-.06l-4.84-4.84c-.73-.73-1.91-.73-2.64,0l-.27,.27c-.73,.73-.73,1.91,0,2.64l4.85,4.85,1.37,1.19,4.84,3.27s.08-.03,.12-.03Z"/>
  <path d="M6,5.94c-.07,0-.14-.02-.2-.07-.12-.11-.14-.3-.03-.42,.27-.31,1.01-.75,1.9-.21,.14,.09,.19,.27,.1,.41-.09,.14-.27,.19-.41,.1-.68-.41-1.12,.07-1.13,.09-.06,.07-.14,.1-.23,.1Z"/>
</svg>
