<svg xmlns="http://www.w3.org/2000/svg" viewBox="0 0 24 24" fill="#000000">
  <path d="M10.6,10.89c-.16,0-.29-.12-.3-.29l-.2-4.04c0-.05,0-.11,.04-.16,.02-.04,.23-.39,.79-.39h1.95c.17,0,.3,.13,.3,.3s-.13,.3-.3,.3h-1.95c-.11,0-.18,.02-.22,.05l.19,3.91c0,.17-.12,.31-.29,.31h-.01Z"/>
  <path d="M9.15,9.85c-.16,0-.29-.12-.3-.28l-.12-2.3c0-.08,.02-.16,.08-.22,.06-.06,.14-.09,.22-.09h1.23c.17,0,.3,.13,.3,.3s-.13,.3-.3,.3h-.91l.11,1.99c0,.17-.12,.31-.28,.32h-.02Z"/>
  <path d="M12.25,16.09c-3.06,0-5.55-.36-6.05-.46-.33-.07-1.34-.43-1.48-.91-.4-5.15,4.01-7.08,4.05-7.1,.15-.06,.33,0,.39,.16,.07,.15,0,.33-.16,.39-.17,.07-4.02,1.78-3.7,6.38,.11,.13,.61,.4,1.02,.49,.04,0,4.41,.76,9.17,.3,.17-.01,.31,.1,.33,.27,.02,.17-.1,.31-.27,.33-1.13,.11-2.25,.15-3.3,.15Z"/>
  <path d="M13.45,10.89h-.01c-.17,0-.29-.15-.29-.31l.19-3.92s-.11-.05-.22-.05h-1.95c-.17,0-.3-.13-.3-.3s.13-.3,.3-.3h1.95c.56,0,.77,.35,.79,.39,.03,.05,.04,.1,.04,.16l-.2,4.04c0,.16-.14,.29-.3,.29Z"/>
  <path d="M14.9,9.85h-.02c-.17,0-.29-.15-.28-.32l.11-1.99h-.91c-.17,0-.3-.13-.3-.3s.13-.3,.3-.3h1.23c.08,0,.16,.03,.22,.09,.06,.06,.09,.14,.08,.22l-.12,2.3c0,.16-.14,.28-.3,.28Z"/>
  <path d="M17.78,15.64c-.14,0-.26-.1-.29-.24-.03-.16,.07-.32,.23-.35,.4-.08,.91-.35,1.02-.49,.32-4.6-3.54-6.31-3.7-6.38-.15-.07-.22-.24-.16-.39,.06-.15,.24-.22,.39-.16,.04,.02,4.45,1.96,4.06,7.04-.15,.54-1.16,.9-1.49,.97-.02,0-.04,0-.06,0Zm1.25-1h0Z"/>
  <path d="M11.65,17.99c-1.05,0-4.98-.12-7.12-1.86-.41-.42-.56-.83-.45-1.18,.07-.22,.28-.5,.89-.61,.16-.03,.32,.08,.35,.25,.03,.16-.08,.32-.25,.35-.28,.05-.4,.13-.42,.2-.03,.09,.05,.3,.29,.55,2.24,1.81,6.91,1.7,6.96,1.7,.15,0,.3,.12,.31,.29,0,.17-.13,.3-.29,.31-.02,0-.11,0-.26,0Z"/>
  <path d="M12.35,17.99c-.14,0-.23,0-.25,0-.17,0-.3-.14-.29-.31s.13-.29,.31-.29c.05,0,4.72,.11,6.99-1.72,.21-.22,.29-.43,.26-.53-.02-.07-.14-.15-.42-.2-.16-.03-.27-.18-.25-.35s.19-.28,.35-.25c.61,.1,.82,.39,.89,.61,.11,.34-.04,.75-.42,1.15-2.17,1.76-6.11,1.88-7.15,1.88Z"/>
  <path d="M6.57,13.1s-.03,0-.04,0c-.16-.02-.28-.17-.26-.34,.24-1.83,1.47-2.73,1.52-2.76,.13-.1,.32-.06,.42,.07,.1,.13,.07,.32-.07,.42-.01,0-1.07,.79-1.28,2.35-.02,.15-.15,.26-.3,.26Z"/>
</svg>
