<?xml version="1.0" encoding="UTF-8"?>
<svg xmlns="http://www.w3.org/2000/svg" viewBox="0 0 24 24" fill="#000000">
  <path d="M6.53,19.28h-.03c-.47,0-.91-.19-1.24-.53s-.52-.77-.53-1.24c0-.47,.17-.91,.49-1.23l6.8-6.85c-.41-1.31-.08-2.73,.86-3.67,.92-.92,2.28-1.26,3.56-.91,.16,.04,.25,.21,.21,.37-.04,.16-.21,.25-.37,.21-1.07-.3-2.21-.01-2.98,.75-.84,.84-1.09,2.07-.66,3.23,.04,.11,.01,.23-.07,.32l-6.94,6.98c-.21,.21-.32,.5-.32,.8,0,.31,.13,.6,.35,.82s.51,.35,.82,.35c.3,0,.59-.11,.8-.32l6.93-6.98c.08-.08,.21-.11,.32-.07,1.15,.43,2.39,.18,3.23-.66s1.08-2,.71-3.11c-.05-.16,.03-.33,.19-.38,.16-.05,.33,.03,.38,.19,.44,1.33,.11,2.76-.86,3.73-.95,.95-2.37,1.28-3.67,.86l-6.8,6.85c-.32,.32-.75,.49-1.21,.49Z"/>
  <path d="M16.01,9.8s-.04,0-.06,0c-.51-.02-.79-.35-.83-.38l-1.23-1.23c-.12-.12-.12-.31,0-.42,.12-.12,.31-.12,.42,0l1.24,1.24s.17,.18,.42,.19h.02c.27,0,.58-.17,.9-.49l1.55-1.55c.12-.12,.31-.12,.42,0,.12,.12,.12,.31,0,.42l-1.55,1.55c-.44,.44-.89,.67-1.32,.67Z"/>
</svg>
