<?xml version="1.0" encoding="UTF-8"?>
<svg xmlns="http://www.w3.org/2000/svg" viewBox="0 0 24 24" fill="#000000">
  <path d="M14.75,20.01c-1.07,0-1.93-.87-1.93-1.93s.87-1.93,1.93-1.93,1.93,.87,1.93,1.93-.87,1.93-1.93,1.93Zm0-3.26c-.73,0-1.33,.6-1.33,1.33s.6,1.33,1.33,1.33,1.33-.6,1.33-1.33-.6-1.33-1.33-1.33Z"/>
  <path d="M12.51,19.78h-3.68c-.38,0-.6-.15-.72-.28-.27-.29-.25-.67-.25-.71v-4.48c0-.15-.04-.21-.04-.21l-.43-.38c-.32-.29-.25-.78-.24-.84v-4.24c0-.31,.13-.5,.23-.6,.25-.23,.57-.21,.61-.2h5.94c.17,0,.3,.13,.3,.3s-.13,.3-.3,.3H7.98c-.06,0-.14,0-.18,.05-.04,.03-.04,.1-.04,.16v4.29c-.02,.14,0,.29,.05,.34l.44,.4s.22,.22,.22,.64v4.5c0,.06,.01,.2,.09,.28,.06,.06,.15,.09,.28,.09h3.23c-.23-.68-.47-2.02,.63-3.15,.12-.12,.31-.12,.42,0,.12,.12,.12,.31,0,.42-1.23,1.25-.39,2.81-.35,2.88,.05,.09,.05,.21,0,.3-.05,.09-.15,.15-.26,.15Z"/>
  <path d="M15.2,16.06c-.17,0-.3-.13-.3-.3v-1.32c0-.06,.04-.4,.36-.72l.25-.25s.22-.18,.23-.61c0-.3,0-1.66,0-1.66v-1.23s-.02-.32,.08-.56c.14-.33,.38-.75,.39-.78-.23-.16-.61-.37-.62-.37-.08-.06-.35-.31-.35-.64,0-.07,0-.13,0-.18l-4.19-2.52-.47,.14c-.14,.07-.36,.08-.6-.07-.13-.09-.43-.25-.58-.34-.15,.25-.37,.56-.46,.69,.41,.24,1.72,1.01,2.62,1.54,.14,.08,.19,.27,.11,.41-.08,.14-.27,.19-.41,.11-.44-.26-2.64-1.54-2.77-1.63-.21-.14-.25-.43-.09-.7,.02-.03,.36-.49,.5-.74,.13-.23,.29-.3,.4-.32,.14-.02,.25,.03,.33,.08,.11,.06,.52,.29,.69,.4l.69-.18c.08-.02,.17-.01,.24,.03l4.43,2.67c.08,.05,.13,.13,.14,.21,0,0,.02,.16,.02,.4,0,.04,.05,.12,.09,.15,0-.01,.43,.23,.67,.4,.18,.13,.23,.29,.24,.39,.01,.18-.07,.31-.12,.38-.05,.09-.24,.43-.35,.7-.04,.09-.04,.25-.04,.31v1.25s0,1.37,0,1.67c-.02,.74-.4,1.03-.44,1.06l-.21,.22c-.16,.16-.19,.32-.19,.32v1.29c0,.17-.13,.3-.3,.3ZM9.25,4.54h0Z"/>
</svg>
