<svg xmlns="http://www.w3.org/2000/svg" viewBox="0 0 24 24" fill="#000000">
  <g>
    <g>
      <path d="M12,21.4c-.17,0-.3-.13-.3-.3V10.61c0-.17,.13-.3,.3-.3s.3,.13,.3,.3v10.5c0,.17-.13,.3-.3,.3Z"/>
      <path d="M8.15,14.76c-2.29,0-4.15-1.86-4.15-4.15,0-.17,.13-.3,.3-.3h7.71c.08,0,.16,.03,.21,.09s.09,.13,.09,.21c0,2.29-1.86,4.15-4.15,4.15Zm-3.54-3.85c.15,1.82,1.68,3.25,3.54,3.25,1.86,0,3.39-1.44,3.54-3.25H4.61Z"/>
      <path d="M12,18.61c-.17,0-.3-.13-.3-.3v-7.71c0-.17,.13-.3,.3-.3,2.29,0,4.15,1.86,4.15,4.15,0,2.29-1.86,4.15-4.15,4.15Zm.3-7.69v7.08c1.82-.15,3.25-1.68,3.25-3.54,0-1.86-1.43-3.39-3.25-3.54Z"/>
      <path d="M19.71,10.91h-7.71c-.17,0-.3-.13-.3-.3,0-1.11,.43-2.15,1.21-2.94,.78-.78,1.83-1.22,2.94-1.22,2.29,0,4.16,1.86,4.16,4.15,0,.17-.13,.3-.3,.3Zm-7.39-.6h7.08c-.15-1.82-1.68-3.25-3.54-3.25-.95,0-1.84,.37-2.51,1.04-.6,.6-.96,1.38-1.03,2.21Z"/>
      <path d="M12,10.91c-2.29,0-4.15-1.86-4.15-4.15,0-1.11,.43-2.15,1.21-2.94,.78-.78,1.83-1.22,2.94-1.22,.08,0,.16,.03,.21,.09s.09,.13,.09,.21v7.71c0,.17-.13,.3-.3,.3Zm-.3-7.69c-.84,.07-1.61,.43-2.21,1.03-.67,.67-1.04,1.56-1.04,2.51,0,1.86,1.43,3.39,3.25,3.54V3.21Z"/>
    </g>
  </g>
</svg>
