<svg viewBox="0 0 24 24" fill="#000000" xmlns="http://www.w3.org/2000/svg">
  <path d="M14.46,17.82H5.17c-.55,0-1-.45-1-1V4.99c0-.55,.45-1,1-1H14.46c.55,0,1,.45,1,1v11.84c0,.55-.45,1-1,1ZM5.17,4.6c-.22,0-.4,.18-.4,.4v11.84c0,.22,.18,.4,.4,.4H14.46c.22,0,.4-.18,.4-.4V4.99c0-.22-.18-.4-.4-.4H5.17Z"/>
  <path d="M7.26,20h-1.95c-.17,0-.3-.13-.3-.3v-2.17c0-.17,.13-.3,.3-.3h1.95c.17,0,.3,.13,.3,.3v2.17c0,.17-.13,.3-.3,.3Zm-1.65-.6h1.35v-1.57h-1.35v1.57Z"/>
  <path d="M14.32,20h-1.95c-.17,0-.3-.13-.3-.3v-2.17c0-.17,.13-.3,.3-.3h1.95c.17,0,.3,.13,.3,.3v2.17c0,.17-.13,.3-.3,.3Zm-1.65-.6h1.35v-1.57h-1.35v1.57Z"/>
  <path d="M15.12,11.99H4.52c-.17,0-.3-.13-.3-.3s.13-.3,.3-.3H15.12c.17,0,.3,.13,.3,.3s-.13,.3-.3,.3Z"/>
  <path d="M15.12,6.57H4.52c-.17,0-.3-.13-.3-.3s.13-.3,.3-.3H15.12c.17,0,.3,.13,.3,.3s-.13,.3-.3,.3Z"/>
  <path d="M9.81,11.61c-.17,0-.3-.13-.3-.3V6.41c0-.17,.13-.3,.3-.3s.3,.13,.3,.3v4.9c0,.17-.13,.3-.3,.3Z"/>
  <path d="M6.58,14.64c-.65,0-1.18-.53-1.18-1.18s.53-1.18,1.18-1.18,1.18,.53,1.18,1.18-.53,1.18-1.18,1.18Zm0-1.75c-.32,0-.58,.26-.58,.58s.26,.58,.58,.58,.58-.26,.58-.58-.26-.58-.58-.58Z"/>
  <path d="M13.15,14.64c-.65,0-1.18-.53-1.18-1.18s.53-1.18,1.18-1.18,1.18,.53,1.18,1.18-.53,1.18-1.18,1.18Zm0-1.75c-.32,0-.58,.26-.58,.58s.26,.58,.58,.58,.58-.26,.58-.58-.26-.58-.58-.58Z"/>
  <path d="M17.85,12.12c-1.09,0-1.98-.89-1.98-1.98s.89-1.98,1.98-1.98,1.98,.89,1.98,1.98-.89,1.98-1.98,1.98Zm0-3.35c-.76,0-1.38,.62-1.38,1.38s.62,1.38,1.38,1.38,1.38-.62,1.38-1.38-.62-1.38-1.38-1.38Z"/>
  <path d="M11.87,16.07H7.76c-.17,0-.3-.13-.3-.3v-1.2c0-.17,.13-.3,.3-.3h4.11c.17,0,.3,.13,.3,.3v1.2c0,.17-.13,.3-.3,.3Zm-3.81-.6h3.51v-.6h-3.51v.6Z"/>
  <path d="M17.85,20c-.17,0-.3-.13-.3-.3v-7.83c0-.17,.13-.3,.3-.3s.3,.13,.3,.3v7.83c0,.17-.13,.3-.3,.3Z"/>
</svg>
