<?xml version="1.0" encoding="UTF-8"?>
<svg xmlns="http://www.w3.org/2000/svg" viewBox="0 0 24 24" fill="#000000">
  <path d="M16.67,17.86H7.33c-.55,0-1-.45-1-1V4.95c0-.55,.45-1,1-1h9.35c.55,0,1,.45,1,1v11.91c0,.55-.45,1-1,1ZM7.33,4.55c-.22,0-.4,.18-.4,.4v11.91c0,.22,.18,.4,.4,.4h9.35c.22,0,.4-.18,.4-.4V4.95c0-.22-.18-.4-.4-.4H7.33Z"/>
  <g>
    <path d="M9.43,20.05h-1.96c-.17,0-.3-.13-.3-.3v-2.18c0-.17,.13-.3,.3-.3h1.96c.17,0,.3,.13,.3,.3v2.18c0,.17-.13,.3-.3,.3Zm-1.66-.6h1.36v-1.58h-1.36v1.58Z"/>
    <path d="M16.53,20.05h-1.96c-.17,0-.3-.13-.3-.3v-2.18c0-.17,.13-.3,.3-.3h1.96c.17,0,.3,.13,.3,.3v2.18c0,.17-.13,.3-.3,.3Zm-1.66-.6h1.36v-1.58h-1.36v1.58Z"/>
  </g>
  <path d="M17.34,11.99H6.68c-.17,0-.3-.13-.3-.3s.13-.3,.3-.3h10.66c.17,0,.3,.13,.3,.3s-.13,.3-.3,.3Z"/>
  <path d="M17.34,6.54H6.68c-.17,0-.3-.13-.3-.3s.13-.3,.3-.3h10.66c.17,0,.3,.13,.3,.3s-.13,.3-.3,.3Z"/>
  <path d="M12,11.61c-.17,0-.3-.13-.3-.3V6.38c0-.17,.13-.3,.3-.3s.3,.13,.3,.3v4.93c0,.17-.13,.3-.3,.3Z"/>
  <path d="M8.75,14.66c-.65,0-1.18-.53-1.18-1.18s.53-1.18,1.18-1.18,1.18,.53,1.18,1.18-.53,1.18-1.18,1.18Zm0-1.76c-.32,0-.58,.26-.58,.58s.26,.58,.58,.58,.58-.26,.58-.58-.26-.58-.58-.58Z"/>
  <path d="M15.36,14.66c-.65,0-1.18-.53-1.18-1.18s.53-1.18,1.18-1.18,1.18,.53,1.18,1.18-.53,1.18-1.18,1.18Zm0-1.76c-.32,0-.58,.26-.58,.58s.26,.58,.58,.58,.58-.26,.58-.58-.26-.58-.58-.58Z"/>
  <path d="M14.07,16.09h-4.13c-.17,0-.3-.13-.3-.3v-1.21c0-.17,.13-.3,.3-.3h4.13c.17,0,.3,.13,.3,.3v1.21c0,.17-.13,.3-.3,.3Zm-3.83-.6h3.53v-.61h-3.53v.61Z"/>
</svg>
