<svg xmlns="http://www.w3.org/2000/svg" viewBox="0 0 24 24" fill="#000000">
  <path d="M16.7,18.5H7.3c-.55,0-1-.45-1-1V5.05c0-.55,.45-1,1-1h9.41c.55,0,1,.45,1,1v12.45c0,.55-.45,1-1,1ZM7.3,4.66c-.22,0-.4,.18-.4,.4v12.45c0,.22,.18,.4,.4,.4h9.41c.22,0,.4-.18,.4-.4V5.05c0-.22-.18-.4-.4-.4H7.3Z"/>
  <g>
    <path d="M9.41,19.94h-1.97c-.17,0-.3-.13-.3-.3v-1.43c0-.17,.13-.3,.3-.3h1.97c.17,0,.3,.13,.3,.3v1.43c0,.17-.13,.3-.3,.3Zm-1.67-.6h1.37v-.83h-1.37v.83Z"/>
    <path d="M16.56,19.94h-1.97c-.17,0-.3-.13-.3-.3v-1.43c0-.17,.13-.3,.3-.3h1.97c.17,0,.3,.13,.3,.3v1.43c0,.17-.13,.3-.3,.3Zm-1.67-.6h1.37v-.83h-1.37v.83Z"/>
  </g>
  <path d="M17.37,12.91H6.65c-.17,0-.3-.13-.3-.3s.13-.3,.3-.3h10.72c.17,0,.3,.13,.3,.3s-.13,.3-.3,.3Z"/>
  <g>
    <path d="M9.76,15.26h-1.44c-.17,0-.3-.13-.3-.3s.13-.3,.3-.3h1.44c.17,0,.3,.13,.3,.3s-.13,.3-.3,.3Z"/>
    <path d="M15.68,15.26h-1.44c-.17,0-.3-.13-.3-.3s.13-.3,.3-.3h1.44c.17,0,.3,.13,.3,.3s-.13,.3-.3,.3Z"/>
  </g>
  <path d="M17.37,6.66H6.65c-.17,0-.3-.13-.3-.3s.13-.3,.3-.3h10.72c.17,0,.3,.13,.3,.3s-.13,.3-.3,.3Z"/>
  <path d="M12,12.92c-.17,0-.3-.13-.3-.3V6.55c0-.17,.13-.3,.3-.3s.3,.13,.3,.3v6.07c0,.17-.13,.3-.3,.3Z"/>
  <g>
    <path d="M5.12,10.78c-.17,0-.3-.13-.3-.3v-2.41c0-.08,.03-.15,.08-.2l1.36-1.47c.11-.12,.3-.13,.42-.02,.12,.11,.13,.3,.02,.42l-1.28,1.38v2.29c0,.17-.13,.3-.3,.3Z"/>
    <path d="M18.88,10.78c-.17,0-.3-.13-.3-.3v-2.29l-1.28-1.38c-.11-.12-.1-.31,.02-.42,.12-.11,.31-.11,.42,.02l1.36,1.47c.05,.06,.08,.13,.08,.2v2.41c0,.17-.13,.3-.3,.3Z"/>
  </g>
</svg>
