<svg viewBox="0 0 24 24" fill="#000000" xmlns="http://www.w3.org/2000/svg">
  <path d="M17.05,18.19c-1.8,0-3.26-1.46-3.26-3.26s1.46-3.26,3.26-3.26,3.26,1.46,3.26,3.26-1.46,3.26-3.26,3.26Zm0-5.92c-1.47,0-2.66,1.19-2.66,2.66s1.19,2.66,2.66,2.66,2.66-1.19,2.66-2.66-1.19-2.66-2.66-2.66Z"/>
  <path d="M4.41,13.83s-.09,0-.13-.03c-.15-.07-.21-.25-.14-.4,.54-1.13,1.69-1.85,2.94-1.85s2.38,.7,2.93,1.84c.07,.15,.01,.33-.14,.4-.15,.07-.33,.01-.4-.14-.45-.92-1.37-1.5-2.39-1.5s-1.96,.59-2.4,1.51c-.05,.11-.16,.17-.27,.17Z"/>
  <path d="M7.08,18.19c-1.37,0-2.61-.87-3.07-2.16-.06-.16,.02-.33,.18-.38,.16-.06,.33,.03,.38,.18,.38,1.05,1.38,1.76,2.5,1.76s2.12-.7,2.5-1.75c.06-.16,.23-.24,.38-.18,.16,.06,.24,.23,.18,.38-.47,1.28-1.7,2.14-3.06,2.14Z"/>
  <path d="M11.31,16.15H3.45c-.48,0-.87-.39-.87-.87v-.96c0-.48,.39-.87,.87-.87h7.86c.48,0,.87,.39,.87,.87v.96c0,.48-.39,.87-.87,.87Zm-7.86-2.1c-.15,0-.27,.12-.27,.27v.96c0,.15,.12,.27,.27,.27h7.86c.15,0,.27-.12,.27-.27v-.96c0-.15-.12-.27-.27-.27H3.45Z"/>
  <path d="M13.76,12.15H7.06c-.17,0-.3-.13-.3-.3s.13-.3,.3-.3h6.7c.17,0,.3,.13,.3,.3s-.13,.3-.3,.3Z"/>
  <path d="M13.88,6.52h-4.97c-.17,0-.3-.13-.3-.3s.13-.3,.3-.3h4.97c.17,0,.3,.13,.3,.3s-.13,.3-.3,.3Z"/>
  <path d="M14.06,15.55h-2.07c-.17,0-.3-.13-.3-.3s.13-.3,.3-.3h2.07c.17,0,.3,.13,.3,.3s-.13,.3-.3,.3Z"/>
  <path d="M9.51,11.76s-.02,0-.04,0c-.16-.02-.28-.17-.26-.33l.58-4.78c.02-.16,.16-.28,.33-.26,.16,.02,.28,.17,.26,.33l-.58,4.78c-.02,.15-.15,.26-.3,.26Z"/>
  <path d="M16.38,9.41c-.17,0-.3-.13-.3-.3v-3c0-.17,.13-.3,.3-.3s.3,.13,.3,.3v3c0,.17-.13,.3-.3,.3Z"/>
  <path d="M14.02,15.37c-.17,0-.3-.13-.3-.3V6.29c0-.17,.13-.3,.3-.3s.3,.13,.3,.3V15.07c0,.17-.13,.3-.3,.3Z"/>
  <path d="M21,15.04h-.98c-.17,0-.3-.13-.3-.3s.13-.3,.3-.3h.78l.02-.06c-.12-4.6-3.94-4.77-4.1-4.77l-2.61,.04h0c-.16,0-.3-.13-.3-.3,0-.17,.13-.3,.3-.3l2.62-.04c.06,0,4.6,.18,4.7,5.42,0,.04,0,.08-.02,.12l-.12,.31c-.05,.11-.16,.19-.28,.19Z"/>
</svg>
