<svg xmlns="http://www.w3.org/2000/svg" viewBox="0 0 24 24" fill="#000000">
  <path d="M7.29,17.84c-1.11,0-2.02-.9-2.02-2.02s.9-2.02,2.02-2.02,2.02,.9,2.02,2.02-.9,2.02-2.02,2.02Zm0-3.43c-.78,0-1.42,.64-1.42,1.42s.64,1.42,1.42,1.42,1.42-.64,1.42-1.42-.64-1.42-1.42-1.42Z"/>
  <path d="M17.77,17.84c-1.11,0-2.02-.9-2.02-2.02s.9-2.02,2.02-2.02,2.02,.9,2.02,2.02-.9,2.02-2.02,2.02Zm0-3.43c-.78,0-1.42,.64-1.42,1.42s.64,1.42,1.42,1.42,1.42-.64,1.42-1.42-.64-1.42-1.42-1.42Z"/>
  <path d="M21.12,16.58h-1.46c-.17,0-.3-.13-.3-.3s.13-.3,.3-.3h1.32l.44-.53v-4.04l-1.16-2.77h-2.67c-.24,0-.4,.05-.49,.16-.12,.15-.08,.39-.08,.39v5.02c0,.17-.13,.3-.29,.3s-.3-.13-.3-.3v-4.96h0s-.09-.47,.2-.83c.21-.25,.53-.38,.96-.38h2.87c.12,0,.23,.07,.28,.18l1.26,3.01s.02,.08,.02,.12v4.21c0,.07-.02,.14-.07,.19l-.6,.72c-.06,.07-.14,.11-.23,.11Z"/>
  <path d="M21.49,11.51h-4.58c-.17,0-.3-.13-.3-.3s.13-.3,.3-.3h4.58c.17,0,.3,.13,.3,.3s-.13,.3-.3,.3Z"/>
  <path d="M19.56,12.54h-.7c-.17,0-.3-.13-.3-.3s.13-.3,.3-.3h.7c.17,0,.3,.13,.3,.3s-.13,.3-.3,.3Z"/>
  <path d="M12.35,16.56c-.17,0-.3-.13-.3-.3v-.45c0-.17,.13-.3,.3-.3s.3,.13,.3,.3v.45c0,.17-.13,.3-.3,.3Z"/>
  <path d="M9.15,12.56c-.08,0-.15-.03-.21-.09-.12-.12-.12-.31,0-.42l2.27-2.27c.12-.12,.31-.12,.42,0,.12,.12,.12,.31,0,.42l-2.27,2.27c-.06,.06-.13,.09-.21,.09Z"/>
  <path d="M11.39,12.56c-.08,0-.15-.03-.21-.09-.12-.12-.12-.31,0-.42l2.27-2.27c.12-.12,.31-.12,.42,0,.12,.12,.12,.31,0,.42l-2.27,2.27c-.06,.06-.13,.09-.21,.09Z"/>
  <path d="M21.5,14.83h-2.61c-.17,0-.3-.13-.3-.3s.13-.3,.3-.3h2.61c.17,0,.3,.13,.3,.3s-.13,.3-.3,.3Z"/>
  <path d="M14.95,16.58h-4.88c-.17,0-.3-.13-.3-.3s.13-.3,.3-.3h4.88c.17,0,.3,.13,.3,.3s-.13,.3-.3,.3Z"/>
  <path d="M5.34,16.12h-1.52c-.12,0-.23-.07-.28-.18l-.28-.66-1.15-.69c-.09-.05-.14-.15-.14-.26v-1.69c0-.17,.13-.3,.3-.3h3.44l3.03-3.84v-1.13c0-.17,.13-.3,.3-.3h6.58c.17,0,.3,.13,.3,.3v6.33c0,.09-.04,.17-.1,.23l-.95,.83c-.05,.05-.12,.07-.2,.07h-5.95c-.17,0-.3-.13-.3-.3s.13-.3,.3-.3h5.84l.76-.67V7.67h-5.98v.93c0,.07-.02,.13-.06,.19l-3.18,4.04c-.06,.07-.14,.11-.24,.11H2.58v1.22l1.09,.66c.05,.03,.1,.08,.12,.14l.24,.56h1.32c.17,0,.3,.13,.3,.3s-.13,.3-.3,.3Z"/>
  <path d="M3.36,12.61c-.06,0-.13-.02-.18-.06-.13-.1-.16-.29-.05-.42l3.44-4.46v-1.2c0-.17,.13-.3,.3-.3h1.06c.07,0,.14,.02,.19,.07l1.12,.9c.13,.1,.15,.29,.04,.42-.1,.13-.29,.15-.42,.04l-1.04-.84h-.66v1.01c0,.07-.02,.13-.06,.18l-3.5,4.54c-.06,.08-.15,.12-.24,.12Z"/>
</svg>
