<svg xmlns="http://www.w3.org/2000/svg" viewBox="0 0 24 24" fill="#000000">
  <g>
    <path d="M11.95,11.76c-.05,0-.11-.01-.16-.05-2.68-1.67-4.15-3.27-4.36-4.75-.13-.91,.25-1.51,.49-1.78,.6-.74,1.29-1.13,2.05-1.16,1.27-.05,2.23,.93,2.27,.97,.11,.12,.11,.31,0,.42-.12,.11-.31,.11-.42,0,0,0-.83-.82-1.82-.79-.58,.03-1.12,.34-1.61,.94-.18,.21-.45,.64-.36,1.31,.13,.89,.95,2.36,4.09,4.33,.14,.09,.18,.27,.1,.41-.06,.09-.15,.14-.25,.14Z"/>
    <path d="M12,11.76c-.1,0-.2-.05-.25-.14-.09-.14-.04-.33,.1-.41,3.18-1.99,4.01-3.48,4.14-4.37,.1-.69-.19-1.1-.32-1.25-.48-.59-1-.9-1.55-.95-.82-.06-1.52,.46-1.79,.69-.13,.11-.31,.1-.42-.03-.11-.12-.1-.31,.03-.42,.32-.28,1.17-.94,2.23-.84,.72,.06,1.38,.45,1.96,1.16,.18,.2,.59,.79,.45,1.73-.22,1.49-1.7,3.1-4.41,4.79-.05,.03-.1,.05-.16,.05Z"/>
  </g>
  <g>
    <path d="M6.56,19.44h-1.38c-.51,0-.92-.41-.92-.92v-5.24c0-.51,.41-.92,.92-.92h1.38c.51,0,.92,.41,.92,.92v5.24c0,.51-.41,.92-.92,.92Zm-1.38-6.49c-.18,0-.33,.15-.33,.33v5.24c0,.18,.15,.33,.33,.33h1.38c.18,0,.33-.15,.33-.33v-5.24c0-.18-.15-.33-.33-.33h-1.38Z"/>
    <path d="M11.18,19.94c-2.35-.11-4.01-1.71-4.08-1.77-.12-.12-.12-.31,0-.42,.11-.12,.3-.12,.42,0,.02,.01,1.57,1.51,3.68,1.6h1.73c.16-.01,.3,.12,.3,.28,0,.17-.13,.3-.3,.3h-1.74Z"/>
    <path d="M12.92,19.93c-.16,0-.3-.13-.3-.3,0-.17,.13-.3,.29-.3,.01,0,1.13-.03,2.44-.93,1.41-.97,3.42-2.38,3.42-2.38,.05-.04,.58-.46,.29-.89-.21-.21-.35-.34-.68-.18-.56,.28-3.13,1.47-3.24,1.52-.01,0-1.07,.64-3.68,.55-.17,0-.29-.15-.29-.31,0-.17,.12-.31,.31-.29,2.39,.09,3.36-.47,3.37-.48,.06-.03,2.71-1.25,3.25-1.53,.75-.37,1.19,.1,1.4,.33,.53,.79-.03,1.5-.4,1.77,0,0-2.02,1.42-3.43,2.39-1.47,1.01-2.72,1.04-2.77,1.04h0Z"/>
    <path d="M14.74,16.63h-.03c-.16-.02-.28-.17-.27-.33,.03-.3,0-.48-.07-.8-.12-.52-.98-.48-.98-.48h-2.24c-.27,0-.7-.04-.94-.08-1.5-.23-2.99-.91-3.06-.94-.15-.07-.22-.25-.15-.4,.07-.15,.25-.22,.4-.15,.01,0,1.48,.68,2.9,.89,.22,.04,.62,.08,.85,.08h2.22c.5-.03,1.4,.13,1.58,.94,.08,.31,.13,.58,.09,1-.02,.15-.15,.27-.3,.27Z"/>
  </g>
</svg>
