<svg viewBox="0 0 24 24" fill="#000000" xmlns="http://www.w3.org/2000/svg">
  <path d="M7.73,13.53s-.04,0-.06,0c-.69-.03-1.23-.62-1.2-1.31,.03-.69,.63-1.22,1.31-1.2,.33,.02,.64,.16,.87,.41s.34,.57,.33,.9c-.01,.33-.16,.64-.41,.87-.23,.21-.53,.33-.85,.33Zm0-1.91c-.35,0-.64,.28-.66,.63-.02,.36,.26,.67,.63,.69,.17,.01,.34-.05,.47-.17s.21-.28,.21-.45h0c0-.18-.05-.34-.17-.47-.12-.13-.28-.21-.46-.21h-.03Z"/>
  <path d="M15.1,13.87s-.04,0-.06,0c-.69-.03-1.23-.62-1.2-1.31,.03-.69,.64-1.23,1.31-1.2,.34,.02,.64,.16,.87,.41s.34,.57,.33,.9-.16,.65-.41,.87c-.23,.21-.53,.33-.85,.33Zm0-1.91c-.35,0-.64,.28-.66,.63-.02,.36,.26,.67,.63,.69,.18,.02,.34-.05,.47-.17,.13-.12,.21-.28,.21-.46h0c0-.18-.05-.34-.17-.47-.12-.13-.28-.21-.46-.21h-.03Z"/>
  <path d="M13.07,12.87h-.01l-3.32-.15c-.17,0-.29-.15-.29-.31,0-.16,.12-.27,.31-.29l3.32,.15c.17,0,.29,.15,.29,.31,0,.16-.14,.29-.3,.29Z"/>
  <path d="M6.5,16.49l-.54-.02c-1.1-.05-1.3-.89-1.29-1.2l.15-3.26c.04-.99,.21-1.33,.41-1.7-.62-.15-.68-.52-.64-1.21,0-.37,.1-.66,.32-.85,.29-.25,.65-.2,.69-.19l.57,.17c.13-.22,.36-.64,.6-1.22,.45-1.1,1.64-1.16,1.69-1.16l3.15,.14c.17,0,.29,.15,.29,.31,0,.16-.14,.29-.3,.29h-.01l-3.12-.14s-.83,.05-1.13,.79c-.39,.95-.76,1.49-.77,1.52-.07,.11-.21,.16-.34,.12l-.74-.23s-.1,0-.17,.06c-.07,.07-.11,.21-.11,.4q-.03,.63,.53,.67c.1,0,.19,.06,.24,.15,.05,.08,.05,.19,.01,.28-.06,.14-.12,.25-.18,.35-.19,.36-.32,.6-.36,1.48l-.15,3.26c0,.12,.04,.55,.72,.58l.51,.02s.49-.05,.51-.44l.03-.67c0-.08,.04-.15,.1-.21,.06-.05,.14-.08,.22-.08l5.06,.23c.17,0,.29,.15,.29,.31,0,.16-.14,.29-.3,.29h-.01l-4.76-.22-.02,.38c-.03,.75-.74,.99-1.1,1.01Z"/>
  <path d="M12.65,10.57l-4.92-.22c-.17,0-.69-.03-.87-.38-.1-.2-.04-.41,.03-.53h0s.42-.86,.79-1.69c.38-.85,1.19-.93,1.58-.85l3.19,.14c.17,0,.29,.15,.29,.31,0,.16-.14,.29-.3,.29h-.01l-3.23-.15c-.11-.02-.69-.11-.95,.5-.34,.76-.72,1.55-.8,1.72,.05,.02,.15,.04,.33,.05l4.92,.22-.03,.6Zm-5.24-.84h0Z"/>
  <path d="M15.34,10.69c-.05,0-.1,0-.13,0l-4.92-.22c-.17,0-.29-.15-.29-.31,0-.16,.12-.27,.31-.29l4.92,.22c.18,0,.28,0,.33-.02-.09-.24-.39-1.02-.64-1.78-.21-.63-.79-.59-.86-.58l-3.28-.15c-.17,0-.29-.15-.29-.31,0-.16,.11-.28,.31-.29l3.23,.15c.33-.04,1.15,.1,1.45,.99,.3,.88,.65,1.79,.65,1.79,.05,.09,.09,.31-.03,.5-.17,.27-.54,.31-.77,.31Zm.25-.56h0Z"/>
  <path d="M16.54,16.95s-.06,0-.1,0l-.51-.02c-.39-.06-1.07-.36-1.04-1.11l.02-.38-4.76-.22c-.17,0-.29-.15-.29-.31,0-.16,.12-.28,.31-.29l5.06,.23c.08,0,.15,.04,.21,.1,.05,.06,.08,.14,.08,.22l-.03,.67c-.02,.39,.45,.48,.5,.48l.47,.02c.66,.03,.76-.39,.77-.51l.15-3.26c.04-.88-.07-1.13-.22-1.5-.05-.11-.1-.23-.15-.37-.03-.09-.02-.19,.04-.27,.06-.08,.16-.15,.25-.13,.56,0,.55,0,.58-.6,.02-.21,0-.36-.07-.43-.07-.08-.2-.07-.2-.07l-.72,.16c-.13,.03-.26-.03-.32-.15-.01-.02-.33-.6-.63-1.58-.24-.77-1.07-.89-1.08-.89l-4.14-.19c-.17,0-.29-.15-.29-.31,0-.16,.12-.28,.31-.29l4.17,.19c.08,0,1.25,.18,1.6,1.31,.18,.6,.37,1.03,.48,1.27l.54-.11c.08,0,.44-.03,.71,.25,.2,.21,.28,.51,.24,.9-.03,.67-.12,1.04-.75,1.13,.16,.39,.3,.74,.25,1.73l-.15,3.26s-.02,.3-.2,.57c-.16,.24-.48,.51-1.09,.51Z"/>
  <path d="M16.47,18.16s-.09-.01-.13-.03l-1.16-.59-1.04,.23c-.12,.03-.24-.02-.31-.12l-.63-.89H3.86c-.17,0-.3-.13-.3-.3s.13-.3,.3-.3H13.36c.1,0,.19,.05,.25,.13l.6,.85,.94-.21c.07-.02,.14,0,.2,.02l1.12,.57,.67-.33s.09-.03,.13-.03h.83l.41-.86c.05-.1,.16-.17,.27-.17h1.29c.17,0,.3,.13,.3,.3s-.13,.3-.3,.3h-1.1l-.41,.86c-.05,.1-.16,.17-.27,.17h-.94l-.74,.36s-.09,.03-.13,.03Z"/>
  <path d="M18.79,16.08c-.09,0-.19-.04-.24-.13-.1-.13-.06-.32,.07-.42l1.35-.96c.13-.1,.32-.07,.42,.07,.1,.13,.06,.32-.07,.42l-1.35,.96c-.05,.04-.11,.06-.17,.06Z"/>
  <path d="M18.21,15.73s-.08,0-.12-.02c-.15-.06-.22-.24-.16-.39l.54-1.27c.07-.15,.24-.22,.39-.16,.15,.06,.22,.24,.16,.39l-.54,1.27c-.05,.11-.16,.18-.28,.18Z"/>
</svg>
