<svg viewBox="0 0 24 24" fill="#000000" xmlns="http://www.w3.org/2000/svg">
  <path d="M4.24,8.98c-.17,0-.3-.13-.3-.3s.13-.3,.3-.3h1.37c.17,0,.3,.13,.3,.29s-.13,.3-.3,.3h-1.37Z"/>
  <path d="M18.47,8.93c-.17,0-.3-.13-.3-.3,0-.17,.13-.3,.3-.3h1.28c.17,0,.3,.13,.3,.29,0,.17-.13,.3-.3,.3h-1.28Z"/>
  <path d="M4.25,13.16c-.17,0-.3-.13-.3-.3,0-.17,.13-.3,.3-.3h1.84c.17,0,.3,.13,.3,.29,0,.17-.13,.3-.3,.3h-1.84Z"/>
  <path d="M7.67,13.14c-.17,0-.3-.13-.3-.3,0-.17,.13-.3,.3-.3h1.84c.17,0,.3,.13,.3,.29,0,.17-.13,.3-.3,.3h-1.84Z"/>
  <path d="M11.09,13.13c-.17,0-.3-.13-.3-.3s.13-.3,.3-.3h1.84c.17,0,.3,.13,.3,.29s-.13,.3-.3,.3h-1.84Z"/>
  <path d="M14.5,13.12c-.17,0-.3-.13-.3-.3,0-.17,.13-.3,.3-.3h1.84c.17,0,.3,.13,.3,.29,0,.17-.13,.3-.3,.3h-1.84Z"/>
  <path d="M17.92,13.11c-.17,0-.3-.13-.3-.3s.13-.3,.3-.3h1.84c.17,0,.3,.13,.3,.29s-.13,.3-.3,.3h-1.84Z"/>
  <path d="M4.27,19.93c-.17,0-.3-.13-.3-.3,0-.17,.13-.3,.3-.3l15.5-.05h0c.17,0,.3,.13,.3,.3,0,.17-.13,.3-.3,.3l-15.5,.05h0Z"/>
  <path d="M4.27,16.72c-.17,0-.3-.13-.3-.3,0-.17,.13-.3,.3-.3l15.5-.05h0c.17,0,.3,.13,.3,.3,0,.17-.13,.3-.3,.3l-15.5,.05h0Z"/>
  <path d="M6.58,10.26c-.15,0-.29-.06-.39-.16l-.73-.73c-.1-.1-.16-.23-.16-.38v-1.72c0-.5,.37-.95,.86-1.03l.54-.1c.28-.27,1.38-1.29,2.07-1.72,.3-.19,.56-.35,1.14-.35h2.49c.77,0,1.17,.2,1.78,.7,.41,.33,1.61,1.29,1.85,1.49l1.91,.58c.45,.09,.81,.53,.81,1.01v1.29c0,.13-.04,.26-.13,.36l-.49,.54c-.1,.11-.25,.18-.4,.18h-.61c-.17,0-.3-.13-.3-.3,0-.17,.13-.3,.3-.3h.61l.45-.53-.02-1.24c0-.2-.16-.4-.36-.43l-1.99-.6s-.07-.03-.1-.05c0,0-1.44-1.15-1.9-1.52-.54-.44-.8-.56-1.4-.57h-2.49c-.41,.01-.56,.1-.8,.26-.61,.38-1.61,1.29-2.06,1.72-.04,.04-.1,.07-.16,.08l-.64,.11c-.2,.03-.37,.23-.37,.43v1.72l.72,.68,.63-.02c.16-.02,.3,.13,.3,.3,0,.17-.13,.3-.3,.3h-.67Z"/>
  <path d="M9.81,10.25c-.17,0-.3-.13-.3-.3,0-.17,.13-.3,.3-.3l4.59-.02h0c.17,0,.3,.13,.3,.3,0,.17-.13,.3-.3,.3l-4.59,.02h0Z"/>
  <path d="M8.85,7.31c-.18,0-.34-.08-.44-.22-.11-.15-.12-.35-.04-.51,.03-.06,.21-.4,.51-.77,.51-.63,.96-.75,1.04-.77h2.27c.49-.01,.65,.09,1.13,.41,.33,.22,1.26,.91,1.31,.94h0c.19,.14,.26,.38,.16,.59-.08,.19-.28,.31-.5,.31l-5.44,.02Zm5.42-.44h0Zm-4.27-1.24s-.29,.11-.65,.56c-.18,.23-.31,.43-.38,.56l1.82-.04h3.24c-.3-.23-.82-.61-1.04-.76-.46-.3-.48-.34-.81-.33h-2.19Z"/>
  <path d="M8.54,11.45c-.42,0-.82-.16-1.12-.45-.3-.29-.47-.68-.47-1.1,0-.42,.16-.81,.46-1.1,.3-.29,.7-.46,1.12-.46h0c.87,0,1.58,.69,1.59,1.55h0c0,.86-.71,1.56-1.58,1.56h0Zm0-2.51h0c-.26,0-.51,.1-.7,.29-.18,.18-.29,.42-.28,.67,0,.25,.1,.49,.29,.67,.19,.18,.43,.28,.7,.28h0c.54,0,.99-.43,.98-.96h0c0-.53-.44-.95-.99-.95Z"/>
  <path d="M15.85,11.43c-.87,0-1.58-.69-1.59-1.55,0-.42,.16-.81,.46-1.1,.3-.29,.7-.46,1.12-.46h0c.87,0,1.58,.69,1.59,1.55h0c0,.86-.71,1.56-1.58,1.56h0Zm0-2.51h0c-.27,0-.51,.1-.7,.29-.18,.18-.28,.42-.28,.67,0,.53,.44,.95,.99,.95h0c.54,0,.99-.43,.98-.96h0c0-.53-.44-.95-.99-.95Z"/>
  <path d="M11.85,8.21c-.17,0-.3-.13-.3-.3s.13-.3,.3-.3h.48c.17,0,.3,.13,.3,.3s-.13,.3-.3,.3h-.48Z"/>
  <path d="M11.06,6.84c-.17,0-.3-.13-.3-.3v-.99c0-.17,.13-.3,.3-.3h0c.17,0,.3,.13,.3,.3v.99c0,.17-.13,.3-.3,.3h0Z"/>
</svg>
