<svg xmlns="http://www.w3.org/2000/svg" viewBox="0 0 24 24" fill="#000000">
  <path d="M19.52,20c-.07,0-.14-.02-.19-.07l-1.86-1.59c-.07-.06-.1-.14-.1-.23s.04-.17,.1-.23l.91-.78c.11-.12,.19-.29,.19-.47,0-.16-.06-.32-.17-.43l-2.31-2.31c-.24-.24-.65-.23-.91,.03l-1.3,1.3c-.1,.09-.24,.12-.36,.05l-.49-.27c-.83-.46-1.79-1.03-2.82-2.06s-1.6-1.99-2.06-2.82l-.27-.49c-.06-.12-.04-.26,.05-.36l1.29-1.3c.26-.26,.27-.67,.03-.92l-2.3-2.3c-.24-.24-.64-.23-.9,.02l-.73,.89c-.25,.39-.31,.52-.32,.55-.11,.27-.17,.54-.21,.82,0,0,0,.07,0,.19,0,.82,.28,3.76,3.83,7.32,3,3,5.17,4.1,7.5,3.82,.48-.05,.74,.17,1.14,.51l.21,.18c.13,.11,.14,.29,.04,.42-.11,.13-.3,.15-.42,.04l-.22-.18c-.39-.33-.48-.39-.67-.37-2.54,.31-4.86-.85-8-3.99-3.72-3.72-4.01-6.87-4.01-7.74,0-.16,0-.25,0-.25,.04-.34,.12-.65,.24-.98,.05-.12,.17-.32,.4-.68l.78-.95c.53-.5,1.29-.5,1.76-.03l2.31,2.3c.48,.48,.46,1.27-.03,1.76l-1.13,1.14,.16,.29c.44,.79,.99,1.72,1.96,2.69,.97,.97,1.9,1.52,2.69,1.96l.29,.16,1.14-1.14c.49-.49,1.29-.51,1.76-.03l2.31,2.31c.22,.22,.35,.53,.35,.85,0,.34-.13,.67-.38,.91l-.66,.57,1.59,1.36c.13,.11,.14,.3,.03,.42-.06,.07-.14,.11-.23,.11Z"/>
</svg>
