<?xml version="1.0" encoding="UTF-8"?>
<svg xmlns="http://www.w3.org/2000/svg" viewBox="0 0 24 24" fill="#000000">
  <path d="M12,19.91c-1.5,0-2.96-.42-4.22-1.22l-2.83,1.17c-.23,.09-.5,.04-.67-.13-.18-.18-.23-.44-.13-.67l1.17-2.83c-.8-1.26-1.22-2.72-1.22-4.22,0-4.36,3.55-7.91,7.91-7.91s7.91,3.55,7.91,7.91-3.55,7.91-7.91,7.91Zm-4.16-1.9l.13,.09c1.2,.79,2.59,1.21,4.03,1.21,4.03,0,7.31-3.28,7.31-7.31s-3.28-7.31-7.31-7.31-7.31,3.28-7.31,7.31c0,1.44,.42,2.83,1.21,4.03l.09,.13-1.3,3.13,3.15-1.27Z"/>
  <path d="M13.62,15.79c-1.11,0-2.46-.63-3.62-1.79-1.78-1.78-2.32-4.02-1.23-5.11l.39-.39c.38-.38,1.04-.38,1.41,0l.74,.74c.19,.19,.29,.44,.29,.71s-.1,.52-.29,.71l-.57,.57c.25,.4,.56,.78,.91,1.13,.35,.35,.73,.66,1.13,.91l.57-.57c.38-.38,1.03-.38,1.41,0l.74,.74c.19,.19,.29,.44,.29,.71,0,.27-.1,.52-.29,.71l-.39,.39c-.38,.38-.9,.56-1.49,.56Zm-3.76-6.98c-.1,0-.2,.04-.28,.12l-.39,.39c-.82,.82-.26,2.77,1.23,4.26,1.49,1.49,3.44,2.05,4.26,1.23l.39-.39c.08-.07,.12-.17,.12-.28,0-.11-.04-.21-.12-.28l-.74-.74c-.15-.15-.41-.15-.56,0l-.9,.9-.2-.12c-.51-.3-1-.67-1.45-1.12-.45-.45-.83-.94-1.12-1.45l-.12-.2,.9-.9c.07-.07,.12-.17,.12-.28s-.04-.21-.12-.28l-.74-.74c-.08-.08-.18-.12-.28-.12Z"/>
</svg>
