<svg xmlns="http://www.w3.org/2000/svg" viewBox="0 0 24 24" fill="#000000">
  <path d="M15.27,19.88h-6.54c-1.41,0-2.55-1.14-2.55-2.55v-4.25c0-1.41,1.14-2.55,2.55-2.55h6.54c1.41,0,2.55,1.14,2.55,2.55v4.25c0,1.41-1.14,2.55-2.55,2.55Zm-6.54-8.76c-1.08,0-1.95,.88-1.95,1.95v4.25c0,1.08,.88,1.95,1.95,1.95h6.54c1.08,0,1.95-.88,1.95-1.95v-4.25c0-1.08-.88-1.95-1.95-1.95h-6.54Z"/>
  <path d="M9.35,11.12c-.17,0-.3-.13-.3-.3v-3.64c0-1.69,1.37-3.06,3.06-3.06s3.06,1.37,3.06,3.06v1.73c0,.17-.13,.3-.3,.3s-.3-.13-.3-.3v-1.73c0-1.36-1.1-2.46-2.46-2.46s-2.46,1.1-2.46,2.46v3.64c0,.17-.13,.3-.3,.3Z"/>
</svg>
