<svg xmlns="http://www.w3.org/2000/svg" viewBox="0 0 24 24" fill="#000000">
  <path d="M6.34,18.31c-.08,0-.15-.03-.21-.09-.12-.12-.12-.31,0-.42L17.76,6.17c.12-.12,.31-.12,.42,0,.12,.12,.12,.31,0,.42L6.55,18.23c-.06,.06-.14,.09-.21,.09Z"/>
  <path d="M17.44,16.43h-6.49c-.17,0-.3-.13-.3-.3s.13-.3,.3-.3h6.49c1.09,0,1.98-.87,1.98-1.93s-.89-1.93-1.98-1.93h-.15c-.11,0-.2-.06-.26-.15-.05-.09-.06-.21,0-.3,.16-.29,.25-.6,.25-.9,.02-.24,0-.7-.2-.85-.13-.1-.16-.29-.06-.42,.1-.13,.29-.16,.42-.06,.52,.4,.44,1.27,.43,1.37,0,.24-.04,.49-.13,.73,1.28,.15,2.28,1.22,2.28,2.51,0,1.4-1.16,2.53-2.58,2.53Z"/>
  <path d="M7.86,16.43h-.6c-1.81,0-3.28-1.44-3.28-3.21v-.35c0-1.28,.79-2.43,1.98-2.93,0-.08-.02-.16-.02-.24,0-2.22,1.84-4.02,4.11-4.02,1.62,0,3.1,.96,3.75,2.41h1.94c.17,0,.3,.13,.3,.3s-.13,.3-.3,.3h-2.14c-.12,0-.23-.08-.28-.19-.51-1.32-1.83-2.21-3.27-2.21-1.93,0-3.51,1.53-3.51,3.42,0,.09,.01,.18,.03,.27l.02,.12c.02,.14-.07,.27-.2,.32-1.08,.37-1.81,1.35-1.81,2.45v.35c0,1.44,1.2,2.61,2.68,2.61h.6c.17,0,.3,.13,.3,.3s-.13,.3-.3,.3Z"/>
</svg>
