<svg xmlns="http://www.w3.org/2000/svg" viewBox="0 0 24 24" fill="#000000">
  <path d="M12.11,15.21h-.22c-.44,0-.8-.36-.8-.8v-4.77c0-.44,.36-.8,.8-.8h.22c.44,0,.8,.36,.8,.8v4.77c0,.44-.36,.8-.8,.8Zm-.22-5.77c-.11,0-.2,.09-.2,.2v4.77c0,.11,.09,.2,.2,.2h.22c.11,0,.2-.09,.2-.2v-4.77c0-.11-.09-.2-.2-.2h-.22Z"/>
  <path d="M12,17.89c-.6,0-1.08-.49-1.08-1.08s.49-1.08,1.08-1.08,1.08,.49,1.08,1.08-.49,1.08-1.08,1.08Zm0-1.57c-.27,0-.48,.22-.48,.48s.22,.48,.48,.48,.48-.22,.48-.48-.22-.48-.48-.48Z"/>
  <path d="M19.54,19.56H4.46c-.38,0-.73-.2-.92-.53s-.19-.73,0-1.06L11.08,4.97c.19-.33,.53-.53,.92-.53s.72,.2,.92,.53h0l7.54,13.01c.19,.33,.19,.73,0,1.06s-.53,.53-.92,.53ZM12,5.04c-.17,0-.31,.09-.4,.23l-7.54,13.01c-.08,.14-.08,.32,0,.46,.08,.14,.23,.23,.4,.23h15.07c.17,0,.31-.09,.4-.23,.08-.14,.08-.32,0-.46L12.4,5.27c-.08-.14-.23-.23-.4-.23Z"/>
</svg>
