<?xml version="1.0" encoding="UTF-8"?>
<svg xmlns="http://www.w3.org/2000/svg" viewBox="0 0 24 24" fill="#000000">
  <path d="M12,19.9c-4.35,0-7.9-3.54-7.9-7.9s3.54-7.9,7.9-7.9,7.9,3.54,7.9,7.9-3.54,7.9-7.9,7.9Zm0-15.19c-4.02,0-7.3,3.27-7.3,7.3s3.27,7.3,7.3,7.3,7.3-3.27,7.3-7.3-3.27-7.3-7.3-7.3Z"/>
  <path d="M14.62,16.53h-5.37c-.17,0-.3-.13-.3-.3V7.77c0-.17,.13-.3,.3-.3h5.46c.17,0,.3,.13,.3,.3s-.13,.3-.3,.3h-5.16v7.85h5.07c.17,0,.3,.13,.3,.3s-.13,.3-.3,.3Z"/>
  <path d="M13.07,12.3h-3.64c-.17,0-.3-.13-.3-.3s.13-.3,.3-.3h3.64c.17,0,.3,.13,.3,.3s-.13,.3-.3,.3Z"/>
  <path d="M6.67,17.54c-.08,0-.15-.03-.21-.09-.12-.12-.12-.31,0-.42L17.05,6.5c.12-.12,.31-.12,.42,0,.12,.12,.12,.31,0,.42L6.88,17.45c-.06,.06-.13,.09-.21,.09Z"/>
</svg>
