<svg viewBox="0 0 24 24" fill="#000000" xmlns="http://www.w3.org/2000/svg">
  <path d="M16.33,12.06c-1.95,0-3.53-1.58-3.53-3.53s1.58-3.53,3.53-3.53,3.53,1.58,3.53,3.53-1.58,3.53-3.53,3.53Zm0-6.46c-1.61,0-2.93,1.31-2.93,2.93s1.31,2.93,2.93,2.93,2.93-1.31,2.93-2.93-1.31-2.93-2.93-2.93Z"/>
  <path d="M19.8,14.97c-.1,0-.2-.05-.25-.14l-1.91-3c-.09-.14-.05-.33,.09-.41,.14-.09,.32-.05,.41,.09l1.91,3c.09,.14,.05,.33-.09,.41-.05,.03-.11,.05-.16,.05Z"/>
  <path d="M10.43,19c-.07,0-.13-.02-.19-.07-.02-.02-2.49-1.97-4.36-1.97h-.05c-.16,0-.3-.13-.3-.29-.04-1.84,0-8.33,0-8.39,0-.08,.03-.16,.09-.22s.14-.08,.22-.08c.11,0,2.68,.13,4.77,1.69,.08,.06,.12,.15,.12,.24v8.79c0,.12-.07,.22-.17,.27-.04,.02-.09,.03-.13,.03Zm-4.3-2.63c1.5,.11,3.19,1.16,4,1.74V10.06c-1.51-1.07-3.29-1.38-4-1.46,0,1.27-.03,5.92,0,7.76Z"/>
  <path d="M10.39,18.98s-.09,0-.13-.03c-.1-.05-.17-.16-.17-.27V9.89c0-.09,.04-.18,.12-.24,.73-.54,1.6-.97,2.59-1.28,.16-.05,.33,.04,.38,.2,.05,.16-.04,.33-.2,.37-.87,.27-1.64,.64-2.29,1.1v8.04c.81-.57,2.5-1.63,4-1.74,.01-1.01,.01-3.07,0-4.77,0-.17,.13-.3,.3-.3h0c.17,0,.3,.13,.3,.3,0,1.89,0,4.21-.01,5.07,0,.17-.15,.28-.31,.29h-.05c-1.87,0-4.33,1.96-4.36,1.97-.05,.04-.12,.07-.19,.07Z"/>
  <path d="M10.45,18.99l-6.29-.56c-.16-.01-.27-.14-.27-.3V9.16c0-.09,.04-.17,.11-.23s.16-.08,.25-.07l1.45,.26c.16,.03,.27,.19,.24,.35-.03,.16-.18,.27-.35,.24l-1.09-.2v8.34l5.96,.53,5.98-.53v-5.96c0-.17,.13-.3,.3-.3s.3,.13,.3,.3v6.23c0,.16-.12,.29-.27,.3l-6.31,.56Z"/>
</svg>
