<?xml version="1.0" encoding="UTF-8"?>
<svg xmlns="http://www.w3.org/2000/svg" viewBox="0 0 24 24" fill="#000000">
  <path d="M14.41,7.6c-.08,0-.15-.03-.21-.09-.12-.12-.12-.31,0-.42l2.25-2.25c.12-.12,.31-.12,.42,0s.12,.31,0,.42l-2.25,2.25c-.06,.06-.14,.09-.21,.09Z"/>
  <path d="M18.82,12.01c-.08,0-.15-.03-.21-.09-.12-.12-.12-.31,0-.42l2.4-2.4c.12-.12,.31-.12,.42,0,.12,.12,.12,.31,0,.42l-2.4,2.4c-.06,.06-.14,.09-.21,.09Z"/>
  <path d="M18.72,11.94c-.08,0-.15-.03-.21-.09l-4.29-4.29c-.12-.12-.12-.31,0-.42,.12-.12,.31-.12,.42,0l4.29,4.29c.12,.12,.12,.31,0,.42-.06,.06-.14,.09-.21,.09Z"/>
  <path d="M5.17,12.22c-.08,0-.15-.03-.21-.09-.12-.12-.12-.31,0-.42l4.24-4.24c.12-.12,.31-.12,.42,0,.12,.12,.12,.31,0,.42l-4.24,4.24c-.06,.06-.14,.09-.21,.09Z"/>
  <path d="M9.58,7.87c-.08,0-.15-.03-.21-.09l-2.37-2.37c-.12-.12-.12-.31,0-.42,.12-.12,.31-.12,.42,0l2.37,2.37c.12,.12,.12,.31,0,.42-.06,.06-.14,.09-.21,.09Z"/>
  <path d="M5.14,12.24c-.08,0-.15-.03-.21-.09l-2.37-2.37c-.12-.12-.12-.31,0-.42,.12-.12,.31-.12,.42,0l2.37,2.37c.12,.12,.12,.31,0,.42-.06,.06-.14,.09-.21,.09Z"/>
  <path d="M10.55,20.11c-.3,0-.57-.12-.78-.32-.43-.43-.43-1.13,0-1.56l.71-.65c.12-.11,.31-.1,.42,.02,.11,.12,.1,.31-.02,.42l-.7,.64c-.19,.19-.19,.51,0,.71,.2,.2,.52,.2,.72,0l.73-.68c.12-.11,.31-.11,.42,.02,.11,.12,.1,.31-.02,.42l-.72,.67c-.2,.2-.48,.32-.77,.32Z"/>
  <path d="M16.29,15.7c-.29,0-.57-.11-.78-.32l-1.37-1.31c-.12-.12-.12-.3,0-.42,.12-.12,.31-.12,.42,0l1.37,1.32c.2,.2,.52,.19,.71,0,.09-.09,.15-.22,.15-.35s-.05-.26-.15-.35l-.95-.97c-.12-.12-.11-.31,0-.42,.12-.12,.31-.11,.42,0l.95,.97c.2,.2,.32,.48,.32,.78s-.11,.57-.32,.78c-.21,.21-.48,.32-.78,.32Z"/>
  <path d="M15.12,16.88c-.29,0-.57-.11-.78-.32l-1.37-1.31c-.12-.11-.12-.3,0-.42,.12-.12,.31-.12,.42,0l1.37,1.32c.2,.2,.52,.19,.71,0,.19-.2,.19-.51,0-.71l-.95-.97c-.12-.12-.11-.31,0-.42s.31-.11,.42,0l.95,.97c.43,.43,.43,1.12,0,1.55-.21,.21-.48,.32-.78,.32Z"/>
  <path d="M13.95,18.06c-.28,0-.56-.11-.78-.32l-1.37-1.31c-.12-.12-.12-.3,0-.42,.12-.12,.31-.12,.42,0l1.37,1.32c.2,.2,.52,.2,.71,0,.09-.09,.15-.22,.15-.35s-.05-.26-.15-.35l-.95-.97c-.12-.12-.11-.31,0-.42,.12-.12,.31-.11,.42,0l.95,.97c.2,.2,.32,.48,.32,.78s-.11,.57-.32,.78c-.21,.21-.5,.32-.78,.32Z"/>
  <path d="M12.8,19.25c-.28,0-.56-.11-.78-.32l-1.37-1.31c-.12-.11-.12-.3,0-.42,.12-.12,.31-.12,.42,0l1.37,1.32c.2,.2,.52,.2,.71,0,.19-.19,.19-.51,0-.71l-.95-.97c-.12-.12-.11-.31,0-.42,.12-.12,.31-.11,.42,0l.95,.97c.43,.43,.43,1.12,0,1.55-.21,.21-.5,.32-.78,.32Z"/>
  <path d="M9.41,18.97c-.3,0-.57-.12-.78-.32s-.32-.49-.32-.78,.12-.57,.32-.78l.71-.65c.12-.11,.31-.1,.42,.02,.11,.12,.1,.31-.02,.42l-.7,.64c-.09,.09-.14,.21-.14,.35s.05,.26,.15,.36c.19,.19,.53,.19,.72,0l.73-.68c.12-.11,.31-.11,.42,.02,.11,.12,.1,.31-.02,.42l-.72,.67c-.2,.2-.48,.32-.77,.32Z"/>
  <path d="M8.27,17.83c-.28,0-.57-.11-.79-.32-.21-.21-.32-.49-.32-.78s.12-.57,.32-.78l.71-.65c.12-.11,.31-.1,.42,.02,.11,.12,.1,.31-.02,.42l-.7,.64c-.19,.19-.19,.51,0,.71,.2,.2,.52,.2,.72,0l.73-.68c.12-.11,.31-.1,.42,.02s.1,.31-.02,.42l-.72,.67c-.21,.21-.49,.32-.77,.32Z"/>
  <path d="M7.09,16.7c-.3,0-.57-.12-.78-.32s-.32-.49-.32-.78,.12-.57,.32-.78l.71-.65c.12-.11,.31-.1,.42,.02,.11,.12,.1,.31-.02,.42l-.7,.64c-.19,.19-.19,.51,0,.71,.19,.19,.53,.19,.72,0l.73-.68c.12-.11,.31-.1,.42,.02,.11,.12,.1,.31-.02,.42l-.72,.67c-.2,.2-.48,.32-.77,.32Z"/>
  <path d="M10.78,12.77c-.32,0-.65-.14-.87-.36-.43-.43-.42-1.13,0-1.56l2.27-2.3s.06-.05,.09-.06c.06-.03,.4-.17,.68-.15,.14,0,.64-.02,.98-.04,.2-.14,.49-.36,.59-.52,.09-.14,.28-.18,.42-.08,.14,.09,.17,.28,.08,.42-.22,.33-.77,.69-.83,.73-.04,.03-.09,.04-.15,.05-.09,0-.91,.06-1.14,.04-.08,0-.24,.04-.35,.08l-2.23,2.25c-.2,.2-.2,.52-.01,.71,.19,.19,.56,.26,.75,.07l1.7-1.75c.06-.06,.14-.09,.23-.09l.69,.03c.09,0,.17,.04,.22,.11s.08,.15,.06,.24c0,0-.08,.51,.2,.86,.17,.21,.45,.34,.83,.36,.46,.03,1.04,.07,1.14-.98,.02-.17,.16-.29,.33-.27,.17,.02,.29,.16,.27,.33-.1,1.09-.68,1.61-1.71,1.53-.63-.04-1.06-.24-1.34-.6-.26-.33-.32-.72-.33-.99h-.25l-1.61,1.64c-.21,.21-.47,.3-.73,.3Z"/>
  <path d="M11.78,9.38c-.08,0-.17-.03-.23-.1-.11-.12-.3-.13-.3-.13-.02,0-.44-.03-.72-.03-.4,0-.59-.19-.62-.22l-.86-.81c-.12-.11-.13-.3-.01-.42,.11-.12,.3-.13,.42-.01l.88,.83s.06,.04,.19,.04c.3,0,.74,.03,.74,.03,.02,0,.44,0,.73,.33,.11,.12,.1,.31-.03,.42-.06,.05-.13,.07-.2,.07Z"/>
  <path d="M16.81,14.16c-.08,0-.15-.03-.21-.09-.12-.12-.12-.31,0-.42l.63-.63c.05-.06,.12-.19,.12-.24-.02-.24-.05-.67,.23-.94,.18-.18,.68-.61,.68-.61l.39,.46s-.47,.4-.64,.58c-.08,.08-.06,.37-.05,.47,.02,.3-.2,.6-.27,.69l-.66,.66c-.06,.06-.14,.09-.21,.09Z"/>
  <path d="M12.11,18.99c-.08,0-.15-.03-.21-.09l-5.37-5.37c-.32-.31-.38-.71-.39-.76h0s-.02-.14-.07-.53c0-.04,.09-.07,.1-.09-.04-.01-.08-.04-.12-.07l-.51-.49c-.12-.11-.12-.3,0-.42,.11-.12,.31-.12,.42,0l.46,.44c.18,.09,.22,.32,.25,.57,.05,.38,.07,.52,.07,.52,0,0,.04,.25,.21,.42l5.37,5.37c.12,.12,.12,.31,0,.42-.06,.06-.14,.09-.21,.09Z"/>
</svg>
