<svg xmlns="http://www.w3.org/2000/svg" viewBox="0 0 24 24" fill="#000000">
  <path d="M15.71,10.16h-7.49c-.17,0-.3-.13-.3-.3s.13-.3,.3-.3h7.49c.17,0,.3,.13,.3,.3s-.13,.3-.3,.3Z"/>
  <path d="M15.71,12.88h-7.49c-.17,0-.3-.13-.3-.3s.13-.3,.3-.3h7.49c.17,0,.3,.13,.3,.3s-.13,.3-.3,.3Z"/>
  <path d="M9.3,17.76c-.08,0-.16-.03-.21-.09l-.99-1.01c-.12-.12-.11-.31,0-.42,.12-.12,.31-.11,.42,0l.78,.8,1.53-1.44c.12-.11,.31-.11,.42,.01,.11,.12,.11,.31-.01,.42l-1.75,1.64c-.06,.05-.13,.08-.21,.08Z"/>
  <g>
    <path d="M15.79,17.95c-.08,0-.16-.03-.22-.09l-1.74-1.83c-.11-.12-.11-.31,.01-.42,.12-.11,.31-.11,.42,.01l1.74,1.83c.11,.12,.11,.31-.01,.42-.06,.05-.13,.08-.21,.08Z"/>
    <path d="M14.05,17.95c-.07,0-.15-.03-.21-.08-.12-.11-.12-.3-.01-.42l1.74-1.83c.12-.12,.3-.12,.42-.01,.12,.11,.12,.3,.01,.42l-1.74,1.83c-.06,.06-.14,.09-.22,.09Z"/>
  </g>
  <g>
    <path d="M16.39,19.99H7.79c-.7-.06-1.98-.52-1.98-1.83,0-1.38,.04-10.24,.04-10.24,0-.08,.03-.15,.09-.21l3.61-3.61c.06-.06,.13-.09,.21-.09h6.55c.64,0,1.86,.4,1.86,1.9v12.17s.03,.84-.5,1.41c-.31,.33-.75,.5-1.29,.5ZM6.45,8.05c0,1.07-.04,8.83-.04,10.11,0,1.08,1.35,1.22,1.4,1.23h8.57c.37,0,.65-.1,.85-.31,.36-.37,.34-.97,.34-.98V5.91c0-1.25-1.14-1.3-1.26-1.3h-6.43l-3.44,3.44Z"/>
    <path d="M6.56,8.26c-.17,0-.3-.13-.3-.3s.13-.3,.3-.3h1.83s1.04-.21,1.04-1.52c0-1.55,.03-1.83,.04-1.87,.03-.16,.17-.28,.34-.25,.16,.03,.27,.18,.25,.35,0,0-.03,.28-.03,1.78s-1.04,2.03-1.59,2.12h-1.88Z"/>
  </g>
</svg>
