<?xml version="1.0" encoding="UTF-8"?>
<svg xmlns="http://www.w3.org/2000/svg" viewBox="0 0 24 24" fill="#000000">
  <path d="M17.75,19.95H8.32c-.78,0-1.42-.63-1.42-1.42V5.46c0-.78,.63-1.42,1.42-1.42h9.43c.78,0,1.42,.64,1.42,1.42v13.07c0,.78-.63,1.42-1.42,1.42ZM8.32,4.65c-.45,0-.82,.37-.82,.82v13.07c0,.45,.37,.82,.82,.82h9.43c.45,0,.82-.37,.82-.82V5.46c0-.45-.37-.82-.82-.82H8.32Z"/>
  <path d="M7.14,18.69c-.14,0-.27-.1-.29-.24l-1.99-10.54c-.09-.5,.03-1.52,1.12-1.75,.79-.17,1.02-.2,1.15-.22,.16-.02,.31,.1,.33,.27,.02,.16-.1,.31-.27,.33-.16,.02-.5,.08-1.09,.21-.78,.17-.67,.96-.65,1.06l1.99,10.54c.03,.16-.08,.32-.24,.35-.02,0-.04,0-.06,0Z"/>
  <path d="M16.88,9.8h-7.69c-.37,0-.68-.3-.68-.68v-2.55c0-.37,.3-.68,.68-.68h7.69c.37,0,.68,.3,.68,.68v2.55c0,.37-.3,.68-.68,.68Zm-7.69-3.31s-.08,.03-.08,.08v2.55s.04,.08,.08,.08h7.69s.08-.04,.08-.08v-2.55s-.04-.08-.08-.08h-7.69Z"/>
  <path d="M13.6,13.19h-3.17c-.17,0-.3-.13-.3-.3s.13-.3,.3-.3h3.17c.17,0,.3,.13,.3,.3s-.13,.3-.3,.3Z"/>
  <path d="M9.44,13.19h-.46c-.17,0-.3-.13-.3-.3s.13-.3,.3-.3h.46c.17,0,.3,.13,.3,.3s-.13,.3-.3,.3Z"/>
  <path d="M9.44,14.88h-.46c-.17,0-.3-.13-.3-.3s.13-.3,.3-.3h.46c.17,0,.3,.13,.3,.3s-.13,.3-.3,.3Z"/>
  <path d="M17.06,14.88h-6.56c-.17,0-.3-.13-.3-.3s.13-.3,.3-.3h6.56c.17,0,.3,.13,.3,.3s-.13,.3-.3,.3Z"/>
  <path d="M9.44,11.38h-.46c-.17,0-.3-.13-.3-.3s.13-.3,.3-.3h.46c.17,0,.3,.13,.3,.3s-.13,.3-.3,.3Z"/>
  <path d="M17.06,11.38h-6.56c-.17,0-.3-.13-.3-.3s.13-.3,.3-.3h6.56c.17,0,.3,.13,.3,.3s-.13,.3-.3,.3Z"/>
  <path d="M9.44,16.47h-.46c-.17,0-.3-.13-.3-.3s.13-.3,.3-.3h.46c.17,0,.3,.13,.3,.3s-.13,.3-.3,.3Z"/>
  <path d="M17.06,16.47h-6.56c-.17,0-.3-.13-.3-.3s.13-.3,.3-.3h6.56c.17,0,.3,.13,.3,.3s-.13,.3-.3,.3Z"/>
  <path d="M9.44,18.06h-.46c-.17,0-.3-.13-.3-.3s.13-.3,.3-.3h.46c.17,0,.3,.13,.3,.3s-.13,.3-.3,.3Z"/>
  <path d="M17.06,18.06h-6.56c-.17,0-.3-.13-.3-.3s.13-.3,.3-.3h6.56c.17,0,.3,.13,.3,.3s-.13,.3-.3,.3Z"/>
</svg>
