<svg viewBox="0 0 24 24" fill="#000000" xmlns="http://www.w3.org/2000/svg">
  <path d="M12.99,13.26H6.84c-.84,0-1.53-.69-1.53-1.53v-1.62l-1.25-1.25c-.12-.12-.12-.31,0-.42l1.25-1.25v-1.59c0-.84,.69-1.53,1.53-1.53h6.15c.84,0,1.53,.69,1.53,1.53v6.14c0,.84-.69,1.53-1.53,1.53ZM4.69,8.65l1.13,1.13c.06,.06,.09,.13,.09,.21v1.75c0,.51,.42,.93,.93,.93h6.15c.51,0,.93-.42,.93-.93V5.59c0-.51-.42-.93-.93-.93H6.84c-.51,0-.93,.42-.93,.93v1.71c0,.08-.03,.16-.09,.21l-1.13,1.13Z"/>
  <path d="M14.55,19.94c-.08,0-.15-.03-.21-.09l-1.7-1.7h-2.09c-.83,0-1.5-.67-1.5-1.5v-7.02c0-.83,.67-1.5,1.5-1.5h7.99c.83,0,1.5,.67,1.5,1.5v7.02c0,.83-.67,1.5-1.5,1.5h-2.07l-1.7,1.7c-.06,.06-.13,.09-.21,.09Zm-4.01-11.21c-.5,0-.9,.4-.9,.9v7.02c0,.5,.4,.9,.9,.9h2.22c.08,0,.16,.03,.21,.09l1.58,1.58,1.58-1.58c.06-.06,.13-.09,.21-.09h2.19c.5,0,.9-.4,.9-.9v-7.02c0-.5-.4-.9-.9-.9h-7.99Z"/>
</svg>
