<svg viewBox="0 0 24 24" fill="#000000" xmlns="http://www.w3.org/2000/svg">
  <path d="M5.23,16.64c-.17,0-.3-.13-.3-.3V7.99c0-1.17,.95-2.12,2.12-2.12H15.07c1.17,0,2.12,.95,2.12,2.12v.32c0,.17-.13,.3-.3,.3s-.3-.13-.3-.3v-.32c0-.84-.68-1.52-1.52-1.52H7.05c-.84,0-1.52,.68-1.52,1.52v8.35c0,.17-.13,.3-.3,.3Z"/>
  <path d="M6.82,18.12c-.61,0-1.12-.23-1.46-.66-.33-.42-.44-.98-.3-1.56l1.37-5.73c.28-1.17,1.45-2.09,2.66-2.1l8.14-.04h.01c.61,0,1.13,.23,1.46,.66,.33,.42,.44,.98,.3,1.56l-1.37,5.73c-.28,1.15-1.47,2.09-2.66,2.1l-8.14,.04h-.01Zm10.42-9.49h0l-8.14,.04c-.93,0-1.87,.74-2.08,1.64l-1.37,5.73c-.1,.4-.03,.77,.19,1.05,.22,.28,.56,.4,1,.43l8.14-.04c.93,0,1.87-.74,2.08-1.64l1.37-5.73c.1-.4,.03-.77-.19-1.05-.22-.28-.57-.43-.99-.43Z"/>
</svg>
