<svg viewBox="0 0 24 24" fill="#000000" xmlns="http://www.w3.org/2000/svg">
  <path d="M16.76,20.01H7.24c-.84,0-1.52-.68-1.52-1.52v-5.62c0-.84,.68-1.52,1.52-1.52h9.51c.84,0,1.52,.68,1.52,1.52v5.62c0,.84-.68,1.52-1.52,1.52ZM7.24,11.96c-.51,0-.92,.41-.92,.92v5.62c0,.51,.41,.92,.92,.92h9.51c.51,0,.92-.41,.92-.92v-5.62c0-.51-.41-.92-.92-.92H7.24Z"/>
  <path d="M11.88,11.06c-.11,0-.21-.06-.27-.17-.08-.15-.02-.33,.13-.4l4.82-2.43-1.7-3.38-5.84,2.94,1.45,2.89c.08,.15,.02,.33-.13,.4-.15,.07-.33,.02-.4-.13l-1.59-3.15c-.04-.07-.04-.15-.02-.23,.03-.08,.08-.14,.15-.17l6.38-3.21c.07-.03,.15-.04,.23-.02,.08,.02,.14,.08,.17,.15l1.97,3.91c.08,.15,.02,.33-.13,.4l-5.09,2.56s-.09,.03-.13,.03Z"/>
  <path d="M14.51,11.02h-5.52c-.17,0-.3-.13-.3-.3s.13-.3,.3-.3h5.52c.17,0,.3,.13,.3,.3s-.13,.3-.3,.3Z"/>
  <path d="M17.69,12.17c-.12,0-.24-.08-.28-.2l-.81-2.29h0s-.26-.37-.99-.37c-.17,0-.3-.13-.3-.3s.13-.3,.3-.3c1.13,0,1.52,.7,1.54,.73l.83,2.33c.05,.16-.03,.33-.18,.38-.03,.01-.07,.02-.1,.02Z"/>
  <path d="M6.46,12.26l-.56-.2s.58-1.59,.89-2.38c.38-.96,1.36-.94,1.41-.94h1.16c.17,0,.3,.13,.3,.3s-.13,.3-.3,.3h-1.17s-.61,0-.84,.57c-.31,.78-.88,2.36-.88,2.36Z"/>
</svg>
