<?xml version="1.0" encoding="UTF-8"?>
<svg xmlns="http://www.w3.org/2000/svg" viewBox="0 0 24 24" fill="#000000">
  <path d="M19.31,18.09H4.69c-.39,0-.71-.34-.71-.76V7.72c0-.17,.13-.3,.3-.3h1.14c.17,0,.3,.13,.3,.3s-.13,.3-.3,.3h-.84v9.3c0,.1,.06,.16,.11,.16h14.62c.05,0,.11-.07,.11-.16V8.02h-.82c-.17,0-.3-.13-.3-.3s.13-.3,.3-.3h1.12c.17,0,.3,.13,.3,.3v9.6c0,.42-.32,.76-.71,.76Z"/>
  <g>
    <path d="M17.36,8.56s-.03,0-.05,0c-.01,0-1.27-.22-2.22-.27-.71-.04-1.3,0-1.62,.03-.27,.02-.47,.04-.54-.19-.04-.13,.01-.28,.13-.35,.07-.05,.16-.06,.24-.04,.03,0,.08,0,.13-.01,.33-.03,.94-.07,1.7-.04,.99,.05,2.24,.27,2.29,.28,.16,.03,.27,.18,.24,.35-.03,.15-.15,.25-.3,.25Z"/>
    <path d="M17.36,10.62s-.03,0-.05,0c-.01,0-1.27-.22-2.22-.27-.72-.04-1.3,0-1.62,.03-.27,.02-.46,.04-.54-.19-.04-.13,.01-.28,.13-.35,.07-.05,.16-.06,.24-.04,.03,0,.08,0,.13-.01,.33-.03,.94-.07,1.7-.04,.99,.05,2.24,.27,2.29,.28,.16,.03,.27,.18,.24,.35-.03,.15-.15,.25-.3,.25Z"/>
    <path d="M17.36,12.67s-.03,0-.05,0c-.01,0-1.27-.22-2.22-.27-.71-.04-1.3,0-1.62,.03-.27,.02-.47,.04-.54-.19-.04-.13,.01-.28,.13-.35,.07-.05,.16-.06,.24-.04,.03,0,.08,0,.13-.01,.33-.03,.94-.07,1.7-.04,.99,.05,2.24,.27,2.29,.28,.16,.03,.27,.18,.24,.35-.03,.15-.15,.25-.3,.25Z"/>
    <path d="M17.36,14.72s-.03,0-.05,0c-.01,0-1.27-.22-2.22-.27-.72-.04-1.3,0-1.62,.04-.27,.02-.46,.04-.54-.19-.04-.13,.01-.28,.13-.35,.07-.05,.16-.06,.24-.04,.03,0,.08,0,.13-.01,.33-.03,.94-.08,1.7-.04,.99,.05,2.24,.27,2.29,.28,.16,.03,.27,.18,.24,.35-.03,.15-.15,.25-.3,.25Z"/>
  </g>
  <g>
    <path d="M6.71,8.56c-.14,0-.27-.1-.3-.25-.03-.16,.08-.32,.24-.35,.05,0,1.3-.23,2.29-.28,.75-.04,1.37,0,1.7,.04,.06,0,.1,0,.13,.01,.08-.02,.16,0,.24,.04,.12,.07,.17,.22,.13,.35-.08,.23-.27,.22-.54,.19-.31-.03-.9-.07-1.62-.03-.95,.05-2.21,.27-2.22,.27-.02,0-.04,0-.05,0Z"/>
    <path d="M6.71,10.61c-.14,0-.27-.1-.3-.25-.03-.16,.08-.32,.24-.35,.05,0,1.3-.23,2.29-.28,.75-.04,1.37,.01,1.7,.04,.05,0,.1,0,.13,.01,.08-.02,.16,0,.24,.04,.12,.07,.17,.22,.13,.35-.08,.23-.27,.22-.54,.19-.31-.02-.9-.07-1.62-.03-.95,.05-2.21,.27-2.22,.27-.02,0-.04,0-.05,0Z"/>
    <path d="M6.71,12.67c-.14,0-.27-.1-.3-.25-.03-.16,.08-.32,.24-.35,.05,0,1.3-.23,2.29-.28,.75-.04,1.37,0,1.7,.04,.06,0,.1,0,.13,.01,.08-.02,.16,0,.24,.04,.12,.07,.17,.22,.13,.35-.08,.23-.27,.22-.54,.19-.31-.02-.9-.07-1.62-.03-.95,.05-2.21,.27-2.22,.27-.02,0-.04,0-.05,0Z"/>
    <path d="M6.71,14.72c-.14,0-.27-.1-.3-.25-.03-.16,.08-.32,.24-.35,.05,0,1.3-.23,2.29-.28,.75-.04,1.37,0,1.7,.04,.05,0,.1,0,.13,.01,.08-.02,.16,0,.24,.04,.12,.07,.17,.22,.13,.35-.08,.23-.27,.22-.54,.19-.31-.03-.9-.07-1.62-.04-.95,.05-2.21,.27-2.22,.27-.02,0-.04,0-.05,0Z"/>
  </g>
  <path d="M5.61,16.94c-.07,0-.13-.02-.19-.07-.07-.06-.11-.14-.11-.23-.02-6.54,0-9.99,0-9.99,0-.15,.1-.27,.25-.29,.95-.17,5.74-.96,6.67,.12,.11,.13,.09,.31-.03,.42-.12,.11-.31,.1-.42-.03-.5-.58-3.65-.34-5.87,.03,0,.88-.01,4.07,0,9.37,5.25-1.14,6.27-.09,6.37,.03,.1,.13,.08,.32-.05,.42-.13,.1-.32,.08-.42-.05h0s-1-.91-6.13,.26c-.02,0-.04,0-.07,0Z"/>
  <path d="M18.54,16.94s-.04,0-.07,0c-5.14-1.18-6.13-.26-6.14-.25-.1,.13-.29,.15-.42,.04s-.15-.3-.04-.43c.1-.12,1.11-1.18,6.37-.03,.01-5.29,0-8.48,0-9.37-2.22-.37-5.36-.61-5.87-.03-.11,.12-.3,.14-.42,.03-.12-.11-.14-.3-.03-.42,.93-1.08,5.72-.29,6.67-.12,.14,.03,.25,.15,.25,.29,0,0,.02,3.46,0,9.99,0,.09-.04,.18-.11,.23-.05,.04-.12,.07-.19,.07Z"/>
  <path d="M12.07,16.33c-.17,0-.3-.13-.3-.3v-7.44c0-.17,.13-.3,.3-.3s.3,.13,.3,.3v7.44c0,.17-.13,.3-.3,.3Z"/>
  <path d="M12.07,8.8c-.17,0-.3-.13-.3-.3v-1.83c0-.17,.13-.3,.3-.3s.3,.13,.3,.3v1.83c0,.17-.13,.3-.3,.3Z"/>
</svg>
