<svg xmlns="http://www.w3.org/2000/svg" viewBox="0 0 24 24" fill="#000000">
  <path d="M16.25,8.53h-3.49c-.17,0-.3-.13-.3-.3v-3.49c0-.17,.13-.3,.3-.3s.3,.13,.3,.3v3.19h3.19c.17,0,.3,.13,.3,.3s-.13,.3-.3,.3Z"/>
  <path d="M14.54,10.08h-5.4c-.17,0-.3-.13-.3-.3s.13-.3,.3-.3h5.4c.17,0,.3,.13,.3,.3s-.13,.3-.3,.3Z"/>
  <path d="M6.92,10.39h0c-.08,0-.16-.03-.21-.09l-.63-.64c-.12-.12-.12-.31,0-.42,.12-.12,.31-.12,.42,0l.42,.42,1.06-1.06c.12-.12,.31-.12,.42,0s.12,.31,0,.42l-1.27,1.27c-.06,.06-.13,.09-.21,.09Z"/>
  <path d="M14.54,13.25h-5.4c-.17,0-.3-.13-.3-.3s.13-.3,.3-.3h5.4c.17,0,.3,.13,.3,.3s-.13,.3-.3,.3Z"/>
  <path d="M6.92,13.57h0c-.08,0-.16-.03-.21-.09l-.63-.64c-.12-.12-.12-.31,0-.42,.12-.12,.31-.12,.42,0l.42,.42,1.06-1.06c.12-.12,.31-.12,.42,0s.12,.31,0,.42l-1.27,1.27c-.06,.06-.13,.09-.21,.09Z"/>
  <path d="M10.41,16.43h-1.27c-.17,0-.3-.13-.3-.3s.13-.3,.3-.3h1.27c.17,0,.3,.13,.3,.3s-.13,.3-.3,.3Z"/>
  <path d="M6.92,16.75h0c-.08,0-.16-.03-.21-.09l-.63-.64c-.12-.12-.12-.31,0-.42,.12-.12,.31-.12,.42,0l.42,.42,1.06-1.06c.12-.12,.31-.12,.42,0s.12,.31,0,.42l-1.27,1.27c-.06,.06-.13,.09-.21,.09Z"/>
  <path d="M10.41,19.92H6.18c-1.16,0-2.1-.94-2.1-2.1V6.18c0-1.16,.94-2.1,2.1-2.1h6.02c.56,0,1.09,.22,1.49,.62l2.44,2.44c.39,.39,.62,.93,.62,1.49v1.82c0,.17-.13,.3-.3,.3s-.3-.13-.3-.3v-1.82c0-.39-.16-.78-.44-1.06l-2.44-2.44c-.28-.28-.66-.44-1.06-.44H6.18c-.83,0-1.5,.67-1.5,1.5v11.64c0,.83,.67,1.5,1.5,1.5h4.23c.17,0,.3,.13,.3,.3s-.13,.3-.3,.3Z"/>
  <path d="M13.27,19.92h-1.91c-.17,0-.3-.13-.3-.3v-4.76c0-.17,.13-.3,.3-.3h1.91c.17,0,.3,.13,.3,.3v4.76c0,.17-.13,.3-.3,.3Zm-1.61-.6h1.31v-4.16h-1.31v4.16Z"/>
  <path d="M18.16,19.92h-2.01c-1.45,0-2.94-.63-3-.66-.15-.07-.22-.24-.16-.39,.07-.15,.24-.22,.39-.16,.01,0,1.43,.61,2.76,.61h2.01c.19,0,.35-.13,.38-.32l.77-4.13c.02-.11,0-.23-.08-.32s-.18-.14-.3-.14h-1.92c-.1,0-.19-.05-.25-.13-.06-.08-.07-.19-.03-.28,0,0,.31-.78,.34-1.41,.03-.6-.1-.8-.16-.86-.03-.03-.08-.07-.19-.07-.14,0-.17,0-.24,.3-.37,1.59-1.21,2.44-1.24,2.47l-1.8,1.29c-.13,.1-.32,.07-.42-.07-.1-.13-.07-.32,.07-.42l1.76-1.26h0s.72-.76,1.05-2.15c.06-.27,.18-.77,.82-.77,.25,0,.46,.09,.62,.26,.25,.26,.35,.69,.32,1.31-.02,.42-.14,.87-.24,1.19h1.5c.29,0,.57,.13,.76,.36,.19,.23,.26,.52,.21,.81l-.77,4.13c-.09,.47-.5,.81-.97,.81Z"/>
</svg>
