<svg viewBox="0 0 24 24" fill="#000000" xmlns="http://www.w3.org/2000/svg">
  <path d="M5.19,17.18h-.34c-.82,0-1.78-.65-1.78-1.49v-1.5c0-.17,.13-.3,.3-.3s.3,.13,.3,.3v1.5c0,.46,.66,.89,1.18,.89h.34c.17,0,.3,.13,.3,.3s-.13,.3-.3,.3Z"/>
  <path d="M3.37,15.62c-.17,0-.3-.13-.3-.3V7.89c0-.83,.67-1.5,1.5-1.5h7.87c.2,0,.4,.04,.58,.12,.15,.06,.23,.24,.16,.39-.06,.15-.24,.23-.39,.16-.11-.04-.23-.07-.35-.07H4.57c-.5,0-.9,.4-.9,.9v7.43c0,.17-.13,.3-.3,.3Z"/>
  <path d="M13.65,10.78c-.17,0-.3-.13-.3-.3v-2.59c0-.5-.4-.9-.9-.9H4.58c-.12,0-.24,.02-.35,.07-.15,.07-.33,0-.39-.16-.06-.15,0-.33,.16-.39,.18-.08,.38-.12,.58-.12h7.87c.83,0,1.5,.67,1.5,1.5v2.59c0,.17-.13,.3-.3,.3Z"/>
  <path d="M19.55,10.6c-.17,0-.3-.13-.3-.3V5.34c0-.38-.31-.69-.69-.69h-2.93c-.17,0-.3-.13-.3-.3s.13-.3,.3-.3h2.93c.71,0,1.29,.58,1.29,1.29v4.96c0,.17-.13,.3-.3,.3Z"/>
  <path d="M12.46,6.93c-.17,0-.3-.13-.3-.3v-1.29c0-.71,.58-1.29,1.29-1.29h2.99c.17,0,.3,.13,.3,.3s-.13,.3-.3,.3h-2.99c-.38,0-.69,.31-.69,.69v1.29c0,.17-.13,.3-.3,.3Z"/>
  <path d="M11.67,17.16H7.39c-.17,0-.3-.13-.3-.3s.13-.3,.3-.3h4.28c.17,0,.3,.13,.3,.3s-.13,.3-.3,.3Z"/>
  <path d="M5.04,18.85c-.05,0-.1-.01-.15-.04-.1-.06-.16-.17-.15-.29l.15-1.61c.02-.17,.16-.29,.33-.27,.17,.02,.29,.16,.27,.33l-.09,.95,1.81-1.3c.13-.1,.32-.07,.42,.07,.1,.13,.07,.32-.07,.42l-2.35,1.69c-.05,.04-.11,.06-.17,.06Z"/>
  <path d="M6.21,15.79h-1.03c-.17,0-.3-.13-.3-.3v-3.02c0-.17,.13-.3,.3-.3h1.03c.17,0,.3,.13,.3,.3v3.02c0,.17-.13,.3-.3,.3Zm-.73-.6h.43v-2.42h-.43v2.42Z"/>
  <path d="M8.34,15.79h-1.03c-.17,0-.3-.13-.3-.3v-4.74c0-.17,.13-.3,.3-.3h1.03c.17,0,.3,.13,.3,.3v4.74c0,.17-.13,.3-.3,.3Zm-.73-.6h.43v-4.14h-.43v4.14Z"/>
  <path d="M10.43,15.79h-1.03c-.17,0-.3-.13-.3-.3v-7.44c0-.17,.13-.3,.3-.3h1.03c.17,0,.3,.13,.3,.3v7.44c0,.17-.13,.3-.3,.3Zm-.73-.6h.43v-6.84h-.43v6.84Z"/>
  <path d="M5.24,10.95c-.08,0-.16-.03-.22-.1-.11-.12-.11-.31,.02-.42l2.74-2.54c.12-.11,.31-.11,.42,.02,.11,.12,.11,.31-.02,.42l-2.74,2.54c-.06,.05-.13,.08-.2,.08Z"/>
  <path d="M7.95,10.04h0c-.17,0-.3-.14-.3-.3l.02-1.54c0-.17,.1-.29,.3-.3,.17,0,.3,.14,.3,.3l-.02,1.54c0,.17-.14,.3-.3,.3Z"/>
  <path d="M7.87,8.41h0l-1.54-.02c-.17,0-.3-.14-.3-.3,0-.16,.14-.3,.3-.3h0l1.54,.02c.17,0,.3,.14,.3,.3,0,.16-.14,.3-.3,.3Z"/>
  <path d="M13.22,19.97c-.06,0-.12-.02-.17-.05-.1-.07-.14-.19-.12-.3l.2-1.04c-.82-.05-1.47-.74-1.47-1.57v-5.22c0-.87,.71-1.57,1.57-1.57h6.12c.87,0,1.57,.71,1.57,1.57v5.22c0,.87-.71,1.57-1.57,1.57h-3.71l-2.27,1.35s-.1,.04-.15,.04Zm.01-9.16c-.54,0-.97,.44-.97,.97v5.22c0,.54,.44,.97,.97,.97h.26c.09,0,.17,.04,.23,.11,.06,.07,.08,.16,.06,.25l-.14,.74,1.76-1.05s.1-.04,.15-.04h3.8c.54,0,.97-.44,.97-.97v-5.22c0-.54-.44-.97-.97-.97h-6.12Z"/>
  <path d="M16.9,16.61h-1.03c-.27,0-.48-.22-.48-.48v-.21c0-.09-.08-.22-.2-.37-.03-.03-.08-.09-.13-.15-.02-.02-.08-.1-.09-.13-.18-.22-.29-.56-.29-.9,0-.44,.18-.86,.51-1.17,.32-.31,.75-.48,1.2-.48h0c.45,0,.88,.17,1.2,.48,.32,.31,.5,.73,.5,1.18,0,.33-.1,.66-.3,.93-.01,.02-.02,.04-.04,.05,0,0-.06,.06-.06,.07-.06,.07-.09,.11-.13,.14-.11,.12-.18,.26-.19,.37v.15c0,.3-.22,.52-.48,.52Zm-.12-.48h0Zm-.79,0h0Zm0-.12h.79v-.09c.02-.26,.14-.5,.35-.75,.04-.04,.06-.06,.08-.08l.05-.06s.02-.02,.03-.04c.13-.18,.2-.39,.2-.6,0-.28-.11-.54-.32-.74-.21-.2-.5-.34-.79-.32-.3,0-.58,.11-.79,.31-.21,.2-.32,.46-.32,.74,0,.22,.07,.43,.2,.61h0c.06,.08,.09,.12,.13,.15,.24,.28,.35,.52,.37,.76v.11Z"/>
  <path d="M16.34,12.52c-.17,0-.3-.13-.3-.3v-.75c0-.17,.13-.3,.3-.3s.3,.13,.3,.3v.75c0,.17-.13,.3-.3,.3Z"/>
  <path d="M19.29,14.54h-.75c-.17,0-.3-.13-.3-.3s.13-.3,.3-.3h.75c.17,0,.3,.13,.3,.3s-.13,.3-.3,.3Z"/>
  <path d="M17.01,17.45h-1.27c-.17,0-.3-.13-.3-.3s.13-.3,.3-.3h1.27c.17,0,.3,.13,.3,.3s-.13,.3-.3,.3Z"/>
  <path d="M14.15,14.54h-.75c-.17,0-.3-.13-.3-.3s.13-.3,.3-.3h.75c.17,0,.3,.13,.3,.3s-.13,.3-.3,.3Z"/>
  <path d="M14.89,13.11c-.08,0-.15-.03-.21-.09l-.53-.53c-.12-.12-.12-.31,0-.42s.31-.12,.42,0l.53,.53c.12,.12,.12,.31,0,.42-.06,.06-.14,.09-.21,.09Z"/>
  <path d="M17.84,13.11c-.08,0-.15-.03-.21-.09-.12-.12-.12-.31,0-.42l.53-.53c.12-.12,.31-.12,.42,0s.12,.31,0,.42l-.53,.53c-.06,.06-.14,.09-.21,.09Z"/>
  <path d="M16.61,6.71c-.17,0-.3-.13-.3-.3v-.58c0-.17,.13-.3,.3-.3s.3,.13,.3,.3v.58c0,.17-.13,.3-.3,.3Z"/>
  <path d="M16.61,9.43c-.17,0-.3-.13-.3-.3v-.58c0-.17,.13-.3,.3-.3s.3,.13,.3,.3v.58c0,.17-.13,.3-.3,.3Z"/>
  <path d="M18.24,7.71h-.58c-.17,0-.3-.13-.3-.3s.13-.3,.3-.3h.58c.17,0,.3,.13,.3,.3s-.13,.3-.3,.3Z"/>
  <path d="M15.52,7.71h-.58c-.17,0-.3-.13-.3-.3s.13-.3,.3-.3h.58c.17,0,.3,.13,.3,.3s-.13,.3-.3,.3Z"/>
  <path d="M17.32,6.98c-.08,0-.15-.03-.21-.09-.12-.12-.12-.31,0-.42l.41-.41c.12-.12,.31-.12,.42,0s.12,.31,0,.42l-.41,.41c-.06,.06-.14,.09-.21,.09Z"/>
  <path d="M15.4,8.91c-.08,0-.15-.03-.21-.09-.12-.12-.12-.31,0-.42l.41-.41c.12-.12,.31-.12,.42,0s.12,.31,0,.42l-.41,.41c-.06,.06-.14,.09-.21,.09Z"/>
  <path d="M17.77,8.84c-.08,0-.15-.03-.21-.09l-.41-.41c-.12-.12-.12-.31,0-.42s.31-.12,.42,0l.41,.41c.12,.12,.12,.31,0,.42-.06,.06-.14,.09-.21,.09Z"/>
  <path d="M15.85,6.92c-.08,0-.15-.03-.21-.09l-.41-.41c-.12-.12-.12-.31,0-.42s.31-.12,.42,0l.41,.41c.12,.12,.12,.31,0,.42-.06,.06-.14,.09-.21,.09Z"/>
  <path d="M16.59,8.72c-.72,0-1.31-.59-1.31-1.31s.59-1.31,1.31-1.31,1.31,.59,1.31,1.31-.59,1.31-1.31,1.31Zm0-2.02c-.39,0-.71,.32-.71,.71s.32,.71,.71,.71,.71-.32,.71-.71-.32-.71-.71-.71Z"/>
</svg>
