<svg xmlns="http://www.w3.org/2000/svg" viewBox="0 0 24 24" fill="#000000">
  <path d="M12.02,18.94c-3.83,0-6.94-3.11-6.94-6.94s3.11-6.94,6.94-6.94,6.94,3.11,6.94,6.94-3.11,6.94-6.94,6.94Zm0-13.28c-3.5,0-6.34,2.84-6.34,6.34s2.84,6.34,6.34,6.34,6.34-2.84,6.34-6.34-2.84-6.34-6.34-6.34Z"/>
  <path d="M5.6,14.09s-.05,0-.07,0c-1.18-.29-1.88-1.11-1.88-2.2,.1-1.46,1.22-2,1.8-2.09,.16-.02,.32,.09,.34,.25,.02,.16-.09,.32-.25,.34h0s-1.2,.2-1.29,1.51c0,.47,.18,1.31,1.42,1.61,.16,.04,.26,.2,.22,.36-.03,.14-.16,.23-.29,.23Z"/>
  <path d="M18.4,14.09c-.14,0-.26-.09-.29-.23-.04-.16,.06-.32,.22-.36,1.24-.3,1.42-1.14,1.42-1.62-.09-1.31-1.24-1.49-1.29-1.5-.16-.02-.28-.18-.25-.34,.02-.16,.18-.28,.34-.25,.58,.09,1.7,.63,1.8,2.06,0,1.12-.7,1.94-1.88,2.23-.02,0-.05,0-.07,0Z"/>
  <path d="M12.54,9.54s-.07,0-.11-.02c-2.49-.97-3.52-3.22-3.56-3.31-.07-.15,0-.33,.15-.4,.15-.07,.33,0,.4,.15,0,.02,.98,2.12,3.24,3,.15,.06,.23,.23,.17,.39-.05,.12-.16,.19-.28,.19Z"/>
  <path d="M14.06,7.65s-.08,0-.12-.02c-1.61-.68-2.19-2.1-2.21-2.16-.06-.15,.02-.33,.17-.39,.15-.06,.33,.01,.39,.17,0,.01,.51,1.25,1.88,1.83,.15,.06,.22,.24,.16,.39-.05,.11-.16,.18-.28,.18Z"/>
  <path d="M10.41,13.37c-.15,0-.28-.12-.3-.27-.07-.74-.5-.89-.85-.89-.65,.05-.72,.77-.73,.85-.01,.16-.14,.27-.32,.28-.17-.01-.29-.15-.28-.32,.03-.46,.33-1.34,1.3-1.42,.67-.02,1.37,.38,1.47,1.44,.02,.17-.11,.31-.27,.33h-.03Z"/>
  <path d="M13.44,13.37h-.03c-.17-.02-.29-.16-.27-.33,.1-1.06,.81-1.44,1.45-1.44,1,.08,1.3,.96,1.33,1.42,0,.17-.12,.31-.28,.32-.17,0-.31-.12-.32-.28h0c0-.08-.07-.8-.75-.85-.33,0-.76,.16-.83,.89-.01,.16-.15,.27-.3,.27Z"/>
  <path d="M12.07,16.18h0c-1.15,0-1.98-.85-2.02-.89-.11-.12-.11-.31,0-.42,.12-.12,.31-.11,.42,0,0,0,.7,.71,1.59,.71h0c.52,0,1.02-.24,1.48-.71,.12-.12,.31-.12,.42,0,.12,.12,.12,.31,0,.42-.58,.59-1.22,.89-1.91,.89Z"/>
</svg>
