<svg xmlns="http://www.w3.org/2000/svg" viewBox="0 0 24 24" fill="#000000">
  <path d="M18.05,11.49s-.1-.01-.15-.04c-.14-.08-.2-.26-.12-.41,.18-.32,.27-.68,.27-1.05,0-1.19-.97-2.17-2.17-2.17-.88,0-1.66,.52-2,1.33-.06,.15-.24,.23-.39,.16-.15-.06-.22-.24-.16-.39,.43-1.03,1.43-1.7,2.55-1.7,1.53,0,2.77,1.24,2.77,2.77,0,.47-.12,.94-.35,1.34-.05,.1-.16,.15-.26,.15Z"/>
  <path d="M16.47,18.27H7.38c-1.9,0-3.45-1.55-3.45-3.45,0-1.41,.87-2.67,2.18-3.19,.12-2,1.79-3.6,3.82-3.6,1.39,0,2.67,.77,3.34,1.97,1.45-.53,3.07,.11,3.79,1.43,1.64,.29,2.86,1.71,2.86,3.38,0,1.9-1.55,3.45-3.45,3.45Zm-6.54-9.64c-1.77,0-3.22,1.44-3.23,3.21v.21l-.21,.07c-1.18,.39-1.97,1.47-1.97,2.69,0,1.57,1.28,2.85,2.85,2.85h9.09c1.57,0,2.85-1.28,2.85-2.85,0-1.42-1.07-2.63-2.49-2.81l-.16-.02-.07-.15c-.59-1.21-2.06-1.79-3.34-1.18l-.27,.13-.13-.27c-.53-1.14-1.68-1.88-2.93-1.88Z"/>
  <path d="M13.81,8.58c-.06,0-.12-.02-.17-.05l-1.15-.81c-.14-.1-.17-.28-.07-.42,.09-.14,.28-.17,.42-.07l1.15,.81c.14,.1,.17,.28,.07,.42-.06,.08-.15,.13-.25,.13Z"/>
  <path d="M15.33,7.69c-.14,0-.26-.09-.29-.23l-.33-1.37c-.04-.16,.06-.32,.22-.36,.16-.04,.32,.06,.36,.22l.33,1.37c.04,.16-.06,.32-.22,.36-.02,0-.05,0-.07,0Z"/>
  <path d="M17.06,7.9s-.09,0-.14-.03c-.15-.08-.21-.25-.13-.4l.64-1.25c.07-.15,.26-.21,.4-.13,.15,.08,.21,.25,.13,.4l-.64,1.25c-.05,.1-.16,.16-.27,.16Z"/>
  <path d="M18.35,9.16c-.11,0-.22-.07-.27-.18-.07-.15,0-.33,.15-.4l1.28-.58c.15-.07,.33,0,.4,.15,.07,.15,0,.33-.15,.4l-1.28,.58s-.08,.03-.12,.03Z"/>
  <path d="M19.77,11.35s-.05,0-.08-.01l-1.35-.38c-.16-.04-.25-.21-.21-.37,.04-.16,.21-.25,.37-.21l1.35,.38c.16,.04,.25,.21,.21,.37-.04,.13-.16,.22-.29,.22Z"/>
</svg>
