<svg xmlns="http://www.w3.org/2000/svg" viewBox="0 0 24 24" fill="#000000">
  <path d="M13.13,20.01h-2.26c-.86,0-1.57-.7-1.57-1.57v-3.75h-3.75c-.86,0-1.57-.7-1.57-1.57v-2.26c0-.86,.7-1.57,1.57-1.57h3.75v-3.75c0-.86,.7-1.57,1.57-1.57h2.26c.86,0,1.57,.7,1.57,1.57v3.75h3.75c.86,0,1.57,.7,1.57,1.57v2.26c0,.86-.7,1.57-1.57,1.57h-3.75v3.75c0,.86-.7,1.57-1.57,1.57ZM5.56,9.9c-.53,0-.97,.43-.97,.97v2.26c0,.53,.43,.97,.97,.97h3.89c.25,0,.46,.21,.46,.46v3.89c0,.53,.43,.97,.97,.97h2.26c.53,0,.97-.43,.97-.97v-3.89c0-.25,.21-.46,.46-.46h3.89c.53,0,.97-.43,.97-.97v-2.26c0-.53-.43-.97-.97-.97h-3.89c-.25,0-.46-.21-.46-.46v-3.89c0-.53-.43-.97-.97-.97h-2.26c-.53,0-.97,.43-.97,.97v3.89c0,.25-.21,.46-.46,.46h-3.89Z"/>
</svg>
