<?xml version="1.0" encoding="UTF-8"?>
<svg xmlns="http://www.w3.org/2000/svg" viewBox="0 0 24 24" fill="#000000">
  <path d="M12,16.6c-2.54,0-4.6-2.06-4.6-4.6s2.06-4.6,4.6-4.6,4.6,2.06,4.6,4.6-2.06,4.6-4.6,4.6Zm0-8.6c-2.21,0-4,1.79-4,4s1.79,4,4,4,4-1.79,4-4-1.79-4-4-4Z"/>
  <g>
    <path d="M18.7,13.28c-.7,0-1.28-.57-1.28-1.28s.57-1.28,1.28-1.28,1.28,.57,1.28,1.28-.57,1.28-1.28,1.28Zm0-1.95c-.37,0-.68,.3-.68,.68s.3,.68,.68,.68,.68-.3,.68-.68-.3-.68-.68-.68Z"/>
    <path d="M5.3,13.28c-.7,0-1.28-.57-1.28-1.28s.57-1.28,1.28-1.28,1.28,.57,1.28,1.28-.57,1.28-1.28,1.28Zm0-1.95c-.37,0-.68,.3-.68,.68s.3,.68,.68,.68,.68-.3,.68-.68-.3-.68-.68-.68Z"/>
  </g>
  <g>
    <path d="M12,6.58c-.7,0-1.28-.57-1.28-1.28s.57-1.28,1.28-1.28,1.28,.57,1.28,1.28-.57,1.28-1.28,1.28Zm0-1.95c-.37,0-.68,.3-.68,.68s.3,.68,.68,.68,.68-.3,.68-.68-.3-.68-.68-.68Z"/>
    <path d="M12,19.97c-.7,0-1.28-.57-1.28-1.28s.57-1.28,1.28-1.28,1.28,.57,1.28,1.28-.57,1.28-1.28,1.28Zm0-1.95c-.37,0-.68,.3-.68,.68s.3,.68,.68,.68,.68-.3,.68-.68-.3-.68-.68-.68Z"/>
  </g>
  <g>
    <path d="M16.74,8.54c-.34,0-.66-.13-.9-.37s-.37-.56-.37-.9,.13-.66,.37-.9c.5-.5,1.31-.5,1.8,0,.5,.5,.5,1.31,0,1.8-.24,.24-.56,.37-.9,.37Zm0-1.95c-.17,0-.35,.07-.48,.2s-.2,.3-.2,.48,.07,.35,.2,.48c.25,.26,.7,.26,.96,0,.26-.26,.26-.69,0-.96-.13-.13-.3-.2-.48-.2Z"/>
    <path d="M7.27,18.01c-.33,0-.65-.12-.9-.37-.5-.5-.5-1.31,0-1.8,.48-.48,1.32-.48,1.8,0,.24,.24,.37,.56,.37,.9s-.13,.66-.37,.9c-.25,.25-.58,.37-.9,.37Zm0-1.95c-.18,0-.35,.07-.48,.2-.26,.26-.26,.69,0,.96s.69,.26,.96,0c.13-.13,.2-.3,.2-.48s-.07-.35-.2-.48h0c-.13-.13-.3-.2-.48-.2Z"/>
  </g>
  <g>
    <path d="M16.74,18.01c-.33,0-.65-.12-.9-.37-.24-.24-.37-.56-.37-.9s.13-.66,.37-.9c.48-.48,1.32-.48,1.8,0,.5,.5,.5,1.31,0,1.8-.25,.25-.58,.37-.9,.37Zm0-1.95c-.18,0-.35,.07-.48,.2-.13,.13-.2,.3-.2,.48s.07,.35,.2,.48c.26,.26,.69,.26,.96,0,.26-.26,.26-.69,0-.96-.13-.13-.3-.2-.48-.2Z"/>
    <path d="M7.26,8.54c-.34,0-.66-.13-.9-.37-.5-.5-.5-1.31,0-1.8,.5-.5,1.31-.5,1.8,0,.24,.24,.37,.56,.37,.9s-.13,.66-.37,.9c-.24,.24-.56,.37-.9,.37Zm0-1.95c-.17,0-.35,.07-.48,.2-.26,.26-.26,.69,0,.96s.7,.26,.96,0h0c.13-.13,.2-.3,.2-.48s-.07-.35-.2-.48-.3-.2-.48-.2Z"/>
  </g>
  <path d="M12,7.88c-.17,0-.3-.13-.3-.3v-1.11c0-.17,.13-.3,.3-.3s.3,.13,.3,.3v1.11c0,.17-.13,.3-.3,.3Z"/>
  <path d="M12,17.88c-.17,0-.3-.13-.3-.3v-1.11c0-.17,.13-.3,.3-.3s.3,.13,.3,.3v1.11c0,.17-.13,.3-.3,.3Z"/>
  <path d="M17.62,12.3h-1.11c-.17,0-.3-.13-.3-.3s.13-.3,.3-.3h1.11c.17,0,.3,.13,.3,.3s-.13,.3-.3,.3Z"/>
  <path d="M7.49,12.3h-1.11c-.17,0-.3-.13-.3-.3s.13-.3,.3-.3h1.11c.17,0,.3,.13,.3,.3s-.13,.3-.3,.3Z"/>
  <path d="M8.81,9.12c-.08,0-.15-.03-.21-.09l-.78-.78c-.12-.12-.12-.31,0-.42s.31-.12,.42,0l.78,.78c.12,.12,.12,.31,0,.42-.06,.06-.13,.09-.21,.09Z"/>
  <path d="M16,16.24c-.08,0-.15-.03-.21-.09l-.78-.78c-.12-.12-.12-.31,0-.42s.31-.12,.42,0l.78,.78c.12,.12,.12,.31,0,.42-.06,.06-.13,.09-.21,.09Z"/>
  <path d="M15.14,9.14c-.08,0-.15-.03-.21-.09-.12-.12-.12-.31,0-.42l.78-.78c.12-.12,.31-.12,.42,0s.12,.31,0,.42l-.78,.78c-.06,.06-.13,.09-.21,.09Z"/>
  <path d="M8.07,16.22c-.08,0-.15-.03-.21-.09-.12-.12-.12-.31,0-.42l.78-.78c.12-.12,.31-.12,.42,0s.12,.31,0,.42l-.78,.78c-.06,.06-.13,.09-.21,.09Z"/>
</svg>
