<?xml version="1.0" encoding="UTF-8"?>
<svg xmlns="http://www.w3.org/2000/svg" viewBox="0 0 24 24" fill="#000000">
  <path d="M15.35,9.69h-.01c-1.18,0-1.71-1.12-1.84-1.77-.14-.72-.12-1.18-.11-1.76,.03-1.12,.86-1.88,1.96-1.88h.01c1.11,0,1.93,.78,1.95,1.83l-.3,.09h.3c.01,.57,.02,1.03-.12,1.74-.14,.65-.68,1.75-1.84,1.75Zm0-4.82c-.79,0-1.33,.49-1.36,1.23-.02,.64-.03,1.05,.09,1.7,0,.05,.26,1.28,1.25,1.29h0c.98,0,1.25-1.22,1.26-1.27,.13-.64,.12-1.05,.11-1.61v-.09c-.02-.74-.56-1.24-1.35-1.25h0Z"/>
  <path d="M8.59,9.77h-.01c-1.24,0-1.8-1.18-1.93-1.87-.15-.76-.13-1.25-.11-1.87v-.07c.04-1.12,.88-1.91,2.06-1.91h.01c1.18,0,2.03,.8,2.05,1.93v.07c.01,.63,.02,1.12-.13,1.87-.14,.69-.71,1.84-1.94,1.84Zm0-5.11c-.85,0-1.43,.53-1.46,1.32v.07c-.02,.6-.04,1.04,.1,1.73,.01,.06,.28,1.38,1.34,1.38h0c1.06,0,1.34-1.31,1.35-1.37,.14-.69,.13-1.12,.12-1.72v-.08c-.02-.8-.6-1.34-1.46-1.34h-.01Z"/>
  <path d="M17.97,19.92c-.17,0-.3-.13-.3-.3v-6.51c0-.17,.13-.3,.3-.3s.3,.13,.3,.3v6.51c0,.17-.13,.3-.3,.3Z"/>
  <path d="M9.84,15.33h-3.81c-.17,0-.3-.13-.3-.3v-1.99c0-.17,.13-.3,.3-.3s.3,.13,.3,.3v1.69h3.51c.17,0,.3,.13,.3,.3s-.13,.3-.3,.3Z"/>
  <path d="M9.78,14.94c-.08,0-.16-.03-.22-.09l-1.18-1.23c-.12-.12-.11-.31,0-.42s.31-.11,.42,0l1.18,1.23c.12,.12,.11,.31,0,.42-.06,.06-.13,.08-.21,.08Z"/>
  <path d="M6.05,19.92c-.17,0-.3-.13-.3-.3v-2.85c0-.17,.13-.3,.3-.3s.3,.13,.3,.3v2.85c0,.17-.13,.3-.3,.3Z"/>
  <path d="M11.52,18.6h-2.53c-.09,0-.18-.04-.24-.12-.06-.08-.07-.18-.05-.27l1.54-5.06c.04-.13,.16-.21,.29-.21h3.89c.09,0,.18,.04,.24,.12,.06,.07,.08,.17,.05,.26l-1.05,3.74c-.04,.16-.21,.26-.37,.21-.16-.04-.25-.21-.21-.37l.94-3.36h-3.28l-1.36,4.46h2.12c.17,0,.3,.13,.3,.3s-.13,.3-.3,.3Z"/>
  <path d="M13.43,18.63h-1.26c-.08,0-.16-.03-.22-.09-.06-.06-.09-.14-.08-.22l.03-1.01c0-.09,.05-.17,.12-.23l.35-.27c.05-.04,.12-.06,.18-.06h1.31c.14,0,.27,.1,.29,.24l.11,.53c.02,.08,0,.17-.05,.24l-.55,.75c-.06,.08-.15,.12-.24,.12Zm-.95-.6h.79l.38-.52-.03-.16h-.96l-.16,.12-.02,.56Z"/>
  <path d="M5.28,16.98c-.21,0-.61-.04-.92-.32-.26-.23-.4-.56-.4-.99,0-1.15,.2-3.69,.3-4.08,.05-.2,.2-.83,.98-1.04,.44-.12,1.5-.48,1.77-.57,.07-.07,.17-.2,.17-.3v-.78c0-.17,.13-.3,.3-.3s.3,.13,.3,.3v.78c0,.43-.37,.76-.41,.79-.03,.02-.06,.04-.1,.06-.05,.02-1.35,.46-1.87,.6-.31,.08-.46,.26-.55,.61-.08,.32-.28,2.8-.28,3.93,0,.25,.06,.42,.19,.53,.24,.21,.63,.16,.63,.16h4.01c.17,0,.3,.13,.3,.3s-.13,.3-.3,.3h-3.97s-.06,0-.14,0Z"/>
  <path d="M12.7,12.68c-.15,0-.27-.11-.3-.25-.13-.84-.24-1.04-.42-1.15-.33-.17-1.58-.61-1.96-.72-.49-.14-.59-.61-.57-.85v-.82c0-.17,.13-.3,.3-.3s.3,.13,.3,.3v.84c0,.06,0,.21,.13,.25,.36,.1,1.67,.55,2.09,.77,.45,.27,.59,.71,.72,1.58,.02,.16-.09,.32-.25,.34-.02,0-.03,0-.05,0Z"/>
  <path d="M12.03,11.2c-.1,0-.2-.05-.25-.15-.09-.14-.03-.33,.11-.42,.06-.03,.18-.08,.85-.32,.33-.12,.67-.24,.89-.33,.25-.1,.27-.29,.27-.33v-.88c0-.17,.13-.3,.3-.3s.3,.13,.3,.3v.88c0,.23-.12,.69-.65,.89-.22,.08-.57,.21-.9,.33-.36,.13-.69,.25-.76,.28-.05,.03-.1,.04-.15,.04Z"/>
  <path d="M19.57,19.89h-.02c-.17,0-.29-.15-.28-.32,.16-3.08-.08-6.97-.17-7.62-.04-.35-.21-.6-.5-.75-.18-.09-1.47-.54-1.9-.66-.49-.15-.6-.57-.56-.81v-.82c0-.17,.13-.3,.3-.3s.3,.13,.3,.3v.87c-.01,.13,.07,.17,.14,.19,.39,.12,1.74,.58,2,.7,.48,.25,.76,.67,.83,1.21,.08,.66,.34,4.61,.17,7.73,0,.16-.14,.28-.3,.28Z"/>
</svg>
