<svg xmlns="http://www.w3.org/2000/svg" viewBox="0 0 24 24" fill="#000000">
  <path d="M12,20c-.26,0-.52-.01-.77-.04-.16-.02-.29-.16-.27-.33s.16-.29,.33-.27c.23,.02,.47,.03,.71,.03,4.08,0,7.4-3.32,7.4-7.4s-3.32-7.4-7.4-7.4-7.4,3.32-7.4,7.4c0,.14,0,.28,.01,.42,0,.17-.12,.31-.28,.32-.15,0-.31-.12-.32-.28,0-.15-.01-.3-.01-.45,0-4.41,3.59-8,8-8s8,3.59,8,8-3.59,8-8,8Z"/>
  <g>
    <path d="M12.21,16.12c-.3,0-.55-.25-.55-.55s.25-.55,.55-.55,.55,.25,.55,.55-.25,.55-.55,.55Zm0-.6v.1l.05-.05s-.02-.05-.05-.05Z"/>
    <path d="M12.25,13.8c-.17,0-.3-.13-.3-.3v-.84s-.05-.72,.61-1.14c.73-.48,1.05-1.15,.98-2.06-.02-.29-.18-.56-.43-.77-.3-.24-.7-.36-1.1-.31-.17,0-.87,.03-1.18,.52-.09,.14-.27,.18-.41,.09-.14-.09-.18-.28-.09-.42,.47-.73,1.38-.79,1.65-.79,.52-.07,1.09,.09,1.51,.44,.38,.31,.61,.73,.65,1.19,.08,1.13-.34,2.01-1.25,2.61-.35,.22-.33,.6-.33,.61v.86c0,.17-.13,.3-.3,.3Z"/>
  </g>
</svg>
