<?xml version="1.0" encoding="UTF-8"?>
<svg xmlns="http://www.w3.org/2000/svg" viewBox="0 0 24 24" fill="#000000">
  <path d="M12,19.91c-4.36,0-7.91-3.55-7.91-7.91s3.55-7.91,7.91-7.91,7.91,3.55,7.91,7.91-3.55,7.91-7.91,7.91Zm0-15.22c-4.03,0-7.31,3.28-7.31,7.31s3.28,7.31,7.31,7.31,7.31-3.28,7.31-7.31-3.28-7.31-7.31-7.31Z"/>
  <g>
    <path d="M15.28,12.3h-6.56c-.17,0-.3-.13-.3-.3s.13-.3,.3-.3h6.56c.17,0,.3,.13,.3,.3s-.13,.3-.3,.3Z"/>
    <path d="M12,15.58c-.17,0-.3-.13-.3-.3v-6.56c0-.17,.13-.3,.3-.3s.3,.13,.3,.3v6.56c0,.17-.13,.3-.3,.3Z"/>
  </g>
</svg>
