<svg xmlns="http://www.w3.org/2000/svg" viewBox="0 0 24 24" fill="#000000">
  <path d="M12.03,15.17h-.06c-.44,0-.8-.36-.8-.8v-4.03c0-.44,.36-.8,.8-.8,.5,0,.86,.36,.86,.8v4.03c0,.44-.36,.8-.8,.8Zm0-5.03c-.17,0-.26,.09-.26,.2v4.03c0,.11,.09,.2,.2,.2h.06c.11,0,.2-.09,.2-.2v-4.03c0-.11-.09-.2-.2-.2Z"/>
  <path d="M12,17.5c-.54,0-.98-.44-.98-.98s.44-.98,.98-.98,.98,.44,.98,.98-.44,.98-.98,.98Zm0-1.37c-.21,0-.38,.17-.38,.38s.17,.38,.38,.38,.38-.17,.38-.38-.17-.38-.38-.38Z"/>
  <path d="M19.71,18.96H4.29c-.11,0-.21-.06-.26-.15-.05-.09-.05-.21,0-.3L11.74,5.19c.11-.19,.41-.19,.52,0l7.71,13.31c.05,.09,.05,.21,0,.3-.05,.09-.15,.15-.26,.15Zm-14.91-.6h14.38L12,5.94l-7.19,12.41Z"/>
</svg>
