<?xml version="1.0" encoding="UTF-8"?>
<svg xmlns="http://www.w3.org/2000/svg" viewBox="0 0 24 24">
  <path d="M18.06,9.99c-.63,0-1.24,.16-1.83,.47l-1.06-1.67,.53-1.29h.66c.18,0,.32-.14,.32-.32s-.14-.32-.32-.32h-2.18c-.18,0-.32,.14-.32,.32s.14,.32,.32,.32h.83l-.39,.97h-6.14l.74-1.68h1.4c.18,0,.32-.14,.32-.32s-.14-.32-.32-.32h-1.81l-.31,.71h-2.06c-.18,0-.32,.14-.32,.32s.14,.32,.32,.32h1.78l-1.17,2.66c-.4-.12-.75-.17-1.1-.17-2.17,0-3.93,1.76-3.93,3.93s1.76,3.93,3.93,3.93,3.93-1.76,3.93-3.93c0-1.49-.87-2.88-2.23-3.53l.57-1.28,3.8,5.73,.26,.37,2-.35c.43,1.76,1.99,2.99,3.81,2.99,2.17,0,3.93-1.76,3.93-3.93s-1.76-3.93-3.93-3.93Zm.42,4.13h.06l-1.97-3.11c.48-.25,.98-.37,1.49-.37,1.81,0,3.29,1.48,3.29,3.29s-1.48,3.29-3.29,3.29c-1.5,0-2.8-1.01-3.17-2.46l3.59-.63Zm-2.44-2.77l1.46,2.3-2.7,.47v-.06s-.02-.09-.02-.14c0-1.01,.46-1.94,1.26-2.57Zm-1.88,2.8s0,.06,.01,.08l-1.29,.23h0l2.01-4.93,.81,1.28c-.99,.75-1.56,1.89-1.56,3.11,0,.08,0,.15,.02,.22Zm.21-5.03l-2.05,5.03-3.33-5.03h5.38ZM5.34,14.01c-.07,.16,0,.35,.16,.42,.04,.02,.08,.03,.13,.03,.13,0,.24-.07,.29-.19l1.46-3.3c1.13,.55,1.85,1.7,1.85,2.95,0,1.81-1.48,3.29-3.29,3.29s-3.29-1.48-3.29-3.29,1.48-3.29,3.29-3.29c.26,0,.53,.04,.84,.12l-1.44,3.26Z"/>
</svg>
