<?xml version="1.0" encoding="UTF-8"?>
<svg xmlns="http://www.w3.org/2000/svg" viewBox="0 0 24 24" fill="currentColor" aria-hidden="true">
  <path d="M16.4,18.03l-1.13-.65-1.27,.22-.75-1.02H3.98c-.16,0-.28-.13-.28-.28s.13-.28,.28-.28H13.53l.71,.97,1.13-.2,1.06,.61,.75-.33,.88-.05,.47-1h1.49c.16,0,.28,.13,.28,.28s-.13,.28-.28,.28h-1.13l-.47,.98-1.11,.06-.92,.4Z"/>
  <g>
    <path d="M16.79,16.87s-.03,0-.05,0l-.91-.05c-.54-.03-.96-.49-.93-1.03l.03-.54-7.23-.36-.03,.54c-.03,.54-.49,.96-1.03,.93l-.91-.05c-.54-.03-.96-.49-.93-1.03l.17-3.31c.02-.49,.2-1.21,.41-1.68-.37-.15-.63-.53-.61-.95l.02-.39c.02-.48,.4-.83,.86-.81,.08,0,.17,.02,.25,.05l.4,.13,.66-1.4c.27-.57,.97-.99,1.59-.96l6.4,.32c.63,.03,1.28,.52,1.49,1.11l.52,1.46,.42-.09c.08-.02,.17-.03,.25-.02h0c.23,.01,.43,.11,.58,.28,.14,.16,.21,.38,.2,.61l-.02,.39c-.02,.43-.32,.78-.71,.89,.16,.49,.26,1.22,.24,1.71l-.17,3.31c-.01,.26-.13,.5-.32,.68-.18,.16-.41,.25-.66,.25Zm-9.62-2.57l8.36,.42-.06,1.11c-.01,.23,.16,.42,.39,.43l.91,.05c.11,0,.21-.03,.3-.11,.08-.07,.13-.17,.13-.28l.17-3.31c.02-.44-.08-1.15-.23-1.56l-.24-.67,.51,.03c.23,.01,.42-.16,.43-.39l.02-.39c0-.09-.02-.16-.06-.21-.04-.05-.1-.08-.18-.08-.03,0-.06,0-.1,0l-.91,.2-.68-1.94c-.13-.38-.58-.71-.98-.73l-6.4-.32c-.4-.02-.88,.27-1.05,.63l-.87,1.86-.88-.29s-.07-.02-.1-.02c-.16,0-.26,.1-.27,.27l-.02,.39c-.01,.23,.16,.42,.39,.43l.5,.02-.3,.65c-.19,.39-.36,1.1-.38,1.53l-.17,3.31c-.01,.23,.16,.42,.39,.43l.91,.05c.23,0,.42-.16,.43-.39l.06-1.11Z"/>
    <path d="M15.59,10.76h-.04l-8.02-.4c-.21-.01-.39-.11-.49-.27-.1-.16-.1-.37-.01-.56h0l.94-2.01c.16-.33,.55-.57,.92-.55l5.65,.28c.37,.02,.73,.29,.86,.64l.74,2.09c.07,.2,.05,.41-.07,.56-.11,.14-.28,.22-.48,.22Zm-8.05-.97h.03l8.02,.4s.02,0,.03,0c0,0,0-.01,0-.02l-.74-2.09c-.04-.13-.21-.25-.35-.26l-5.65-.28c-.13,0-.32,.1-.37,.22l-.94,2.01s0,.02,0,.02Zm0,.02h0Z"/>
    <g>
      <path d="M7.81,13.51s-.04,0-.06,0c-.7-.04-1.24-.63-1.21-1.34,.04-.7,.63-1.25,1.34-1.21,.7,.04,1.24,.63,1.21,1.34h0c-.03,.68-.6,1.21-1.27,1.21Zm0-1.98c-.37,0-.69,.29-.7,.67-.02,.39,.28,.72,.67,.74,.39,.02,.72-.28,.74-.67h0c.02-.39-.28-.72-.67-.74h-.04Zm.99,.75h0Z"/>
      <path d="M15.09,13.88s-.04,0-.06,0c-.7-.04-1.24-.63-1.21-1.34,.04-.7,.64-1.24,1.34-1.21,.7,.04,1.24,.63,1.21,1.34h0c-.03,.68-.6,1.21-1.27,1.21Zm0-1.98c-.37,0-.69,.29-.7,.67-.02,.39,.28,.72,.67,.74,.39,.02,.72-.28,.74-.67h0c.02-.39-.28-.72-.67-.74h-.04Zm.99,.75h0Z"/>
    </g>
    <path d="M13.15,12.88h-.01l-3.41-.17c-.16,0-.28-.14-.27-.3,0-.16,.14-.28,.3-.27l3.41,.17c.16,0,.28,.14,.27,.3,0,.15-.13,.27-.28,.27Z"/>
  </g>
  <path d="M18.72,15.93c-.09,0-.18-.05-.24-.13-.09-.13-.05-.31,.08-.39l1.23-.81c.13-.09,.31-.05,.39,.08,.09,.13,.05,.31-.08,.39l-1.23,.81s-.1,.05-.16,.05Z"/>
  <path d="M18.25,15.54s-.07,0-.11-.02c-.15-.06-.22-.22-.16-.37l.42-1.04c.06-.15,.22-.22,.37-.16,.15,.06,.22,.22,.16,.37l-.42,1.04c-.04,.11-.15,.18-.26,.18Z"/>
</svg>
