<?xml version="1.0" encoding="UTF-8"?>
<svg xmlns="http://www.w3.org/2000/svg" viewBox="0 0 24 24" fill="currentColor" aria-hidden="true">
  <path d="M14.81,19.25h-5.62c-1.41,0-2.55-1.14-2.55-2.55v-3.53c0-1.41,1.14-2.55,2.55-2.55h5.62c1.41,0,2.55,1.14,2.55,2.55v3.53c0,1.41-1.14,2.55-2.55,2.55Zm-5.62-8.03c-1.08,0-1.95,.88-1.95,1.95v3.53c0,1.08,.88,1.95,1.95,1.95h5.62c1.08,0,1.95-.88,1.95-1.95v-3.53c0-1.08-.88-1.95-1.95-1.95h-5.62Z"/>
  <path d="M9.57,11.22c-.17,0-.3-.13-.3-.3v-3.34c0-1.56,1.27-2.83,2.83-2.83s2.83,1.27,2.83,2.83v1.58c0,.17-.13,.3-.3,.3s-.3-.13-.3-.3v-1.58c0-1.23-1-2.23-2.23-2.23s-2.23,1-2.23,2.23v3.34c0,.17-.13,.3-.3,.3Z"/>
</svg>
