<?xml version="1.0" encoding="UTF-8"?>
<svg xmlns="http://www.w3.org/2000/svg" viewBox="0 0 24 24" fill="currentColor" aria-hidden="true">
  <path d="M17.75,19.75H6.25c-.9,0-1.64-.74-1.64-1.64V8.36c0-.9,.74-1.64,1.64-1.64h11.51c.9,0,1.64,.74,1.64,1.64v9.75c0,.9-.74,1.64-1.64,1.64ZM6.25,7.32c-.57,0-1.04,.47-1.04,1.04v9.75c0,.57,.47,1.04,1.04,1.04h11.51c.57,0,1.04-.47,1.04-1.04V8.36c0-.57-.47-1.04-1.04-1.04H6.25Z"/>
  <g>
    <path d="M6.96,7.16c-.17,0-.3-.13-.3-.3v-1.43c0-.65,.53-1.18,1.18-1.18s1.18,.53,1.18,1.18v1.36c0,.17-.13,.3-.3,.3s-.3-.13-.3-.3v-1.36c0-.32-.26-.58-.58-.58s-.58,.26-.58,.58v1.43c0,.17-.13,.3-.3,.3Z"/>
    <path d="M17.04,7.23c-.17,0-.3-.13-.3-.3v-1.5c0-.32-.26-.58-.58-.58s-.58,.26-.58,.58v1.5c0,.17-.13,.3-.3,.3s-.3-.13-.3-.3v-1.5c0-.65,.53-1.18,1.18-1.18s1.18,.53,1.18,1.18v1.5c0,.17-.13,.3-.3,.3Z"/>
  </g>
</svg>
