<?xml version="1.0" encoding="UTF-8"?>
<svg xmlns="http://www.w3.org/2000/svg" viewBox="0 0 24 24">
  <path d="M16.84,11.64h-2.74c-.17,0-.3-.13-.3-.3v-1.75c0-.17,.13-.3,.3-.3h2.74c.17,0,.3,.13,.3,.3v1.75c0,.17-.13,.3-.3,.3Zm-2.44-.6h2.14v-1.15h-2.14v1.15Z"/>
  <path d="M9.95,15.54c-1.54,0-2.79-1.25-2.79-2.79s1.25-2.79,2.79-2.79,2.79,1.25,2.79,2.79-1.25,2.79-2.79,2.79Zm0-4.98c-1.21,0-2.19,.98-2.19,2.19s.98,2.19,2.19,2.19,2.19-.98,2.19-2.19-.98-2.19-2.19-2.19Z"/>
  <path d="M18.98,17.74H6.28c-.91,0-1.65-.74-1.65-1.65v-6.38c0-.91,.74-1.66,1.65-1.66h11.44c.91,0,1.65,.74,1.65,1.66v6.64c0,.17-.13,.3-.3,.3s-.3-.13-.3-.3v-6.64c0-.58-.47-1.06-1.06-1.06H6.28c-.58,0-1.06,.47-1.06,1.06v6.38c0,.58,.47,1.06,1.06,1.06h12.71c.17,0,.3,.13,.3,.3s-.13,.3-.3,.3Z"/>
  <path d="M11.86,8.57c-.17,0-.3-.13-.3-.3v-.64c0-.43-.35-.78-.78-.78h-2.69c-.43,0-.78,.35-.78,.78v.53c0,.17-.13,.3-.3,.3s-.3-.13-.3-.3v-.53c0-.76,.62-1.38,1.38-1.38h2.69c.76,0,1.38,.62,1.38,1.38v.64c0,.17-.13,.3-.3,.3Z"/>
</svg>
