<?xml version="1.0" encoding="UTF-8"?>
<svg xmlns="http://www.w3.org/2000/svg" viewBox="0 0 24 24">
  <path d="M15.25,14.69c.08,0,.15-.03,.2-.08l.84-.84c.06-.05,.09-.13,.09-.21V7.44c0-.16-.13-.29-.29-.29h-7.96l-.65-.74c-.06-.06-.14-.1-.22-.1h-1.04c-.16,0-.29,.13-.29,.29v1.26l-3.38,4.38h-.52c-.16,0-.29,.13-.29,.29v1.7c0,.11,.06,.21,.15,.26l1.09,.58,.26,.68c.04,.11,.15,.18,.27,.18h1.38c.13,1,.98,1.76,2,1.76,1.11,0,2.01-.9,2.01-2.01,0-.35-.09-.68-.26-.98h6.58Zm.55-6.96v5.71l-.67,.67h-6.95c-.36-.29-.81-.45-1.27-.45-.98,0-1.83,.72-1.99,1.69h-1.19l-.23-.6c-.03-.06-.07-.12-.13-.15l-1.03-.55v-1.24h2.63c.09,0,.17-.04,.23-.11l3.04-3.94c.04-.05,.06-.11,.06-.18v-.86h7.51ZM6.9,14.24c.79,0,1.44,.64,1.44,1.44s-.64,1.44-1.44,1.44-1.43-.64-1.43-1.44,.64-1.44,1.43-1.44Zm-.45-6.1c.04-.05,.06-.11,.06-.18v-1.07h.62l.57,.66v.94l-2.89,3.75h-1.52l3.17-4.1h0Z"/>
  <path d="M8.64,12.19c.09,0,.17-.04,.23-.11l1.52-1.97c.1-.13,.07-.31-.05-.41-.06-.05-.14-.07-.21-.06-.08,.01-.14,.05-.19,.11l-1.52,1.97c-.05,.06-.07,.14-.06,.21,.01,.08,.05,.15,.11,.19,.05,.04,.11,.06,.18,.06Z"/>
  <path d="M10.29,12.13c.05,.04,.11,.06,.18,.06,.09,0,.17-.04,.23-.11l1.52-1.97c.05-.06,.07-.14,.06-.21,0-.08-.05-.15-.11-.19-.13-.1-.31-.07-.41,.05l-1.52,1.97c-.1,.13-.07,.31,.05,.41Z"/>
  <path d="M12.01,11.94c0,.08,.05,.15,.11,.19,.05,.04,.11,.06,.18,.06,.09,0,.17-.04,.23-.11l1.52-1.97c.1-.13,.07-.31-.05-.41-.06-.05-.14-.07-.21-.06-.08,.01-.14,.05-.19,.11l-1.52,1.97c-.05,.06-.07,.14-.06,.21Z"/>
  <path d="M15.29,15.8h-1.34v-.3c0-.16-.13-.29-.29-.29s-.29,.13-.29,.29v.3h-1.72v-.3c0-.16-.13-.29-.29-.29s-.29,.13-.29,.29v.3h-1.34c-.16,0-.29,.13-.29,.29s.13,.29,.29,.29h5.56c.16,0,.29-.13,.29-.29s-.13-.29-.29-.29Z"/>
  <path d="M22.23,11.15h0c-.02-.05-.15-.39-1.16-2.87-.04-.11-.15-.18-.27-.18h-2.98c-.52,0-.93,.42-.93,.93v5.04c-.49,.38-.79,.98-.79,1.6,0,1.11,.9,2.01,2.01,2.01,.86,0,1.62-.54,1.9-1.35h1.4c.09,0,.18-.04,.23-.12l.55-.75s.06-.11,.06-.17v-4.05s0-.01-.02-.1Zm-2.37,3.53h1.81v.53l-.41,.55h-1.14s0-.06,0-.09c0-.35-.09-.69-.26-.99Zm-1.87-3.14v2.12c-.18,.01-.36,.05-.53,.1v-2.22h.53Zm-.53-2.51c0-.2,.16-.36,.35-.36h.17v2.29h-.53v-1.93Zm1.11,1.93v-2.29h2.03l.93,2.29h-2.96Zm.98,4.71c0,.79-.64,1.44-1.44,1.44s-1.43-.64-1.43-1.44,.64-1.44,1.43-1.44,1.44,.64,1.44,1.44Zm2.13-4.13v2.56h-2.3c-.23-.19-.51-.32-.8-.39v-2.17h3.1Z"/>
  <path d="M18.11,14.66c-.56,0-1.02,.46-1.02,1.02s.46,1.02,1.02,1.02,1.02-.46,1.02-1.02-.46-1.02-1.02-1.02Zm.44,1.02c0,.24-.2,.44-.44,.44s-.44-.2-.44-.44,.2-.44,.44-.44,.44,.2,.44,.44Z"/>
  <path d="M19.18,12.48h.65c.16,0,.29-.13,.29-.29s-.13-.29-.29-.29h-.65c-.16,0-.29,.13-.29,.29s.13,.29,.29,.29Z"/>
  <path d="M6.9,16.69c.56,0,1.02-.46,1.02-1.02s-.46-1.02-1.02-1.02-1.02,.46-1.02,1.02,.46,1.02,1.02,1.02Zm-.44-1.02c0-.24,.2-.44,.44-.44s.44,.2,.44,.44-.2,.44-.44,.44-.44-.2-.44-.44Z"/>
</svg>
