<?xml version="1.0" encoding="UTF-8"?>
<svg xmlns="http://www.w3.org/2000/svg" viewBox="0 0 24 24">
  <path d="M16.04,19.57H7.96c-.86,0-1.56-.7-1.56-1.56v-5.31h-2.25l6.66-7.78c.32-.32,.74-.5,1.2-.5s.88,.18,1.2,.5l.02,.02,6.65,7.76h-2.25v5.31c0,.86-.7,1.56-1.56,1.56ZM5.41,12.11h1.57v5.9c0,.54,.44,.98,.98,.98h8.09c.54,0,.98-.44,.98-.98v-5.9h1.57l-5.81-6.78c-.21-.2-.48-.32-.77-.32s-.57,.11-.77,.32l-5.81,6.78Z"/>
  <g>
    <path d="M14.66,16.34c-.08,0-.15-.03-.21-.09l-5.31-5.31c-.11-.11-.11-.3,0-.41,.11-.11,.3-.11,.41,0l5.31,5.31c.11,.11,.11,.3,0,.41-.06,.06-.13,.09-.21,.09Z"/>
    <path d="M9.34,16.34c-.08,0-.15-.03-.21-.09-.11-.11-.11-.3,0-.41l5.31-5.31c.11-.11,.3-.11,.41,0,.11,.11,.11,.3,0,.41l-5.31,5.31c-.06,.06-.13,.09-.21,.09Z"/>
  </g>
</svg>
