<?xml version="1.0" encoding="UTF-8"?>
<svg xmlns="http://www.w3.org/2000/svg" viewBox="0 0 24 24">
  <path d="M12.61,4.9H7.52c-.88,0-1.59,.71-1.59,1.59v11.02c0,.88,.71,1.59,1.59,1.59h5.09c.88,0,1.59-.71,1.59-1.59V6.49c0-.88-.71-1.59-1.59-1.59Zm-5.09,.6h5.09c.55,0,.99,.45,.99,.99v.4H6.53v-.4c0-.55,.45-.99,.99-.99Zm6.08,1.99v7.84H6.53V7.49h7.07Zm-.99,11.01H7.52c-.55,0-.99-.45-.99-.99v-1.58h7.07v1.58c0,.55-.45,.99-.99,.99Z"/>
  <path d="M10.06,16.28c-.53,0-.96,.43-.96,.96s.43,.96,.96,.96,.96-.43,.96-.96-.43-.96-.96-.96Zm0,1.33c-.2,0-.36-.16-.36-.36s.16-.36,.36-.36,.36,.16,.36,.36-.16,.36-.36,.36Z"/>
  <path d="M16.29,8.64c-.14-.09-.32-.06-.42,.08-.09,.14-.06,.32,.08,.42,.95,.64,1.52,1.71,1.52,2.86s-.57,2.22-1.52,2.86c-.14,.09-.17,.28-.08,.42,.06,.09,.15,.13,.25,.13,.06,0,.12-.02,.17-.05,1.12-.76,1.78-2.01,1.78-3.36s-.67-2.6-1.79-3.36Z"/>
  <path d="M14.94,9.67c-.15-.06-.33,.02-.39,.17-.06,.15,.02,.33,.17,.39,.73,.29,1.2,.98,1.2,1.76s-.5,1.5-1.24,1.77c-.16,.06-.24,.23-.18,.38,.04,.12,.16,.2,.28,.2,.03,0,.07,0,.1-.02,.98-.36,1.64-1.3,1.64-2.34s-.62-1.94-1.58-2.32Z"/>
</svg>
