<?xml version="1.0" encoding="UTF-8"?>
<svg xmlns="http://www.w3.org/2000/svg" viewBox="0 0 24 24">
  <path d="M7.07,18.77c-.47,0-.94-.18-1.3-.54-.71-.71-.72-1.84-.03-2.53l5.62-5.62c-.42-1.34-.09-2.81,.88-3.78,.94-.94,2.34-1.3,3.66-.93,.16,.04,.25,.21,.21,.37-.04,.16-.21,.26-.37,.21-1.1-.31-2.28-.01-3.07,.78-.86,.86-1.12,2.14-.68,3.33,.04,.11,.01,.23-.07,.32l-5.75,5.75c-.45,.46-.44,1.21,.03,1.69,.48,.47,1.23,.49,1.69,.03l5.75-5.75c.08-.08,.21-.11,.32-.07,1.19,.44,2.47,.18,3.33-.68,.83-.83,1.11-2.06,.73-3.21-.05-.16,.03-.33,.19-.38,.16-.05,.33,.03,.38,.19,.45,1.37,.11,2.83-.88,3.83-.97,.97-2.44,1.31-3.78,.88l-5.62,5.62c-.34,.34-.78,.51-1.23,.51Z"/>
  <path d="M15.43,10.44h-.06c-.52-.02-.81-.36-.84-.39l-1.26-1.26c-.12-.12-.12-.31,0-.42s.31-.12,.42,0l1.28,1.28s.17,.19,.44,.2h.02c.28,0,.6-.18,.93-.51l1.59-1.59c.12-.12,.31-.12,.42,0,.12,.12,.12,.31,0,.42l-1.59,1.59c-.46,.46-.91,.69-1.36,.69Z"/>
</svg>
