<?xml version="1.0" encoding="UTF-8"?>
<svg xmlns="http://www.w3.org/2000/svg" viewBox="0 0 24 24" fill="currentColor" aria-hidden="true">
  <path d="M12,19.95c-4.38,0-7.95-3.57-7.95-7.95s3.57-7.95,7.95-7.95,7.95,3.57,7.95,7.95-3.57,7.95-7.95,7.95Zm0-15.3c-4.05,0-7.35,3.3-7.35,7.35s3.3,7.35,7.35,7.35,7.35-3.3,7.35-7.35-3.3-7.35-7.35-7.35Z"/>
  <path d="M11.6,14.52c-.07,0-.15-.03-.2-.08l-4.15-3.87c-.12-.11-.13-.3-.01-.42,.11-.12,.3-.13,.42-.01l3.96,3.7L21.81,5.74c.13-.1,.32-.08,.42,.05,.1,.13,.08,.32-.05,.42L11.78,14.45c-.06,.04-.12,.06-.19,.06Z"/>
</svg>
