<?xml version="1.0" encoding="UTF-8"?>
<svg xmlns="http://www.w3.org/2000/svg" viewBox="0 0 24 24">
  <path d="M13.22,13.7H6.53c-.9,0-1.63-.73-1.63-1.64v-1.77l-1.37-1.37c-.06-.06-.09-.13-.09-.21s.03-.16,.09-.21l1.37-1.37v-1.74c0-.9,.73-1.63,1.63-1.63h6.69c.9,0,1.63,.73,1.63,1.63v6.67c0,.9-.73,1.64-1.63,1.64ZM4.16,8.71l1.25,1.25c.06,.06,.09,.13,.09,.21v1.9c0,.57,.46,1.04,1.04,1.04h6.69c.57,0,1.04-.46,1.04-1.04V5.39c0-.57-.46-1.04-1.04-1.04H6.53c-.57,0-1.04,.46-1.04,1.04v1.86c0,.08-.03,.16-.09,.21l-1.25,1.25Z"/>
  <path d="M14.49,20.25c-.08,0-.15-.03-.21-.09l-1.91-1.91h-2.34c-.9,0-1.63-.73-1.63-1.63V7.59c0-.9,.73-1.63,1.63-1.63h8.9c.9,0,1.63,.73,1.63,1.63v9.03c0,.9-.73,1.63-1.63,1.63h-2.32l-1.91,1.91c-.06,.06-.14,.09-.21,.09ZM10.03,6.55c-.57,0-1.04,.46-1.04,1.04v9.03c0,.57,.46,1.04,1.04,1.04h2.47c.08,0,.16,.03,.21,.09l1.78,1.78,1.78-1.78c.06-.06,.13-.09,.21-.09h2.44c.57,0,1.04-.46,1.04-1.04V7.59c0-.57-.46-1.04-1.04-1.04H10.03Z"/>
</svg>
