<?xml version="1.0" encoding="UTF-8"?>
<svg xmlns="http://www.w3.org/2000/svg" viewBox="0 0 24 24" fill="currentColor" aria-hidden="true">
  <path d="M18.24,9.38h-3.62v-3.62c0-.84-.68-1.53-1.53-1.53h-2.19c-.84,0-1.53,.68-1.53,1.53v3.62h-3.62c-.84,0-1.53,.68-1.53,1.53v2.19c0,.84,.68,1.53,1.53,1.53h3.62v3.62c0,.84,.68,1.52,1.53,1.52h2.19c.84,0,1.53-.68,1.53-1.52v-3.62h3.62c.84,0,1.53-.68,1.53-1.53v-2.19c0-.84-.68-1.53-1.53-1.53Zm.93,3.72c0,.51-.42,.93-.93,.93h-3.76c-.25,0-.45,.2-.45,.45v3.76c0,.51-.42,.92-.93,.92h-2.19c-.51,0-.93-.42-.93-.92v-3.76c0-.25-.2-.45-.45-.45h-3.76c-.51,0-.93-.42-.93-.93v-2.19c0-.51,.42-.93,.93-.93h3.76c.25,0,.45-.2,.45-.45v-3.76c0-.51,.42-.93,.93-.93h2.19c.51,0,.93,.42,.93,.93v3.76c0,.25,.2,.45,.45,.45h3.76c.51,0,.93,.42,.93,.93v2.19Z"/>
</svg>
