<?xml version="1.0" encoding="UTF-8"?>
<svg xmlns="http://www.w3.org/2000/svg" viewBox="0 0 24 24">
  <path d="M12,19.85c-4.33,0-7.85-3.52-7.85-7.85s3.52-7.85,7.85-7.85,7.85,3.52,7.85,7.85-3.52,7.85-7.85,7.85Zm0-15.1c-4,0-7.25,3.25-7.25,7.25s3.25,7.25,7.25,7.25,7.25-3.25,7.25-7.25-3.25-7.25-7.25-7.25Z"/>
  <g>
    <path d="M9.64,12.2c-.62,0-1.13-.51-1.13-1.13s.51-1.13,1.13-1.13,1.13,.51,1.13,1.13-.51,1.13-1.13,1.13Zm0-1.66c-.29,0-.53,.24-.53,.53s.24,.53,.53,.53,.53-.24,.53-.53-.24-.53-.53-.53Z"/>
    <path d="M14.36,12.2c-.62,0-1.13-.51-1.13-1.13s.51-1.13,1.13-1.13,1.13,.51,1.13,1.13-.51,1.13-1.13,1.13Zm0-1.66c-.29,0-.53,.24-.53,.53s.24,.53,.53,.53,.53-.24,.53-.53-.24-.53-.53-.53Z"/>
  </g>
  <path d="M15.55,15.48h-7.11c-.17,0-.3-.13-.3-.3s.13-.3,.3-.3h7.11c.17,0,.3,.13,.3,.3s-.13,.3-.3,.3Z"/>
</svg>
