<?xml version="1.0" encoding="UTF-8"?>
<svg xmlns="http://www.w3.org/2000/svg" viewBox="0 0 24 24">
  <path d="M12,19.85c-4.33,0-7.85-3.52-7.85-7.85s3.52-7.85,7.85-7.85,7.85,3.52,7.85,7.85-3.52,7.85-7.85,7.85Zm0-15.1c-4,0-7.25,3.25-7.25,7.25s3.25,7.25,7.25,7.25,7.25-3.25,7.25-7.25-3.25-7.25-7.25-7.25Z"/>
  <g>
    <path d="M9.64,12.2c-.62,0-1.13-.51-1.13-1.13s.51-1.13,1.13-1.13,1.13,.51,1.13,1.13-.51,1.13-1.13,1.13Zm0-1.66c-.29,0-.53,.24-.53,.53s.24,.53,.53,.53,.53-.24,.53-.53-.24-.53-.53-.53Z"/>
    <path d="M14.36,12.2c-.62,0-1.13-.51-1.13-1.13s.51-1.13,1.13-1.13,1.13,.51,1.13,1.13-.51,1.13-1.13,1.13Zm0-1.66c-.29,0-.53,.24-.53,.53s.24,.53,.53,.53,.53-.24,.53-.53-.24-.53-.53-.53Z"/>
  </g>
  <path d="M12.09,17.04s-.04,0-.07,0c-1.97-.04-3.33-1.99-3.39-2.07-.09-.14-.06-.32,.08-.42s.32-.06,.42,.08c.01,.02,1.25,1.78,2.91,1.81,1.01,.02,1.97-.58,2.89-1.8,.1-.13,.29-.16,.42-.06,.13,.1,.16,.29,.06,.42-1.02,1.35-2.14,2.04-3.31,2.04Z"/>
</svg>
