<?xml version="1.0" encoding="UTF-8"?>
<svg xmlns="http://www.w3.org/2000/svg" viewBox="0 0 24 24" fill="currentColor" aria-hidden="true">
  <path d="M12,19.85c-4.33,0-7.85-3.52-7.85-7.85s3.52-7.85,7.85-7.85,7.85,3.52,7.85,7.85-3.52,7.85-7.85,7.85Zm0-15.1c-4,0-7.25,3.25-7.25,7.25s3.25,7.25,7.25,7.25,7.25-3.25,7.25-7.25-3.25-7.25-7.25-7.25Z"/>
  <path d="M15.14,16.27c-.1,0-.19-.04-.25-.13-.01-.02-1.25-1.78-2.91-1.81-1-.02-1.97,.58-2.89,1.8-.1,.13-.29,.16-.42,.06-.13-.1-.16-.29-.06-.42,1.04-1.38,2.17-2.04,3.38-2.04,1.97,.04,3.33,1.99,3.39,2.07,.09,.14,.06,.32-.08,.42-.05,.04-.11,.05-.17,.05Z"/>
  <g>
    <g>
      <path d="M9.64,12.2c-.62,0-1.13-.51-1.13-1.13s.51-1.13,1.13-1.13,1.13,.51,1.13,1.13-.51,1.13-1.13,1.13Zm0-1.66c-.29,0-.53,.24-.53,.53s.24,.53,.53,.53,.53-.24,.53-.53-.24-.53-.53-.53Z"/>
      <path d="M14.36,12.2c-.62,0-1.13-.51-1.13-1.13s.51-1.13,1.13-1.13,1.13,.51,1.13,1.13-.51,1.13-1.13,1.13Zm0-1.66c-.29,0-.53,.24-.53,.53s.24,.53,.53,.53,.53-.24,.53-.53-.24-.53-.53-.53Z"/>
    </g>
    <path d="M10.37,10.97c-.1,0-.2-.05-.25-.14l-1.38-2.16c-.09-.14-.05-.33,.09-.42,.14-.09,.33-.05,.41,.09l1.38,2.16c.09,.14,.05,.33-.09,.42-.05,.03-.11,.05-.16,.05Z"/>
    <path d="M13.6,10.97c-.06,0-.11-.01-.16-.05-.14-.09-.18-.28-.09-.42l1.38-2.16c.09-.14,.27-.18,.41-.09,.14,.09,.18,.28,.09,.42l-1.38,2.16c-.06,.09-.15,.14-.25,.14Z"/>
  </g>
</svg>
