<?xml version="1.0" encoding="UTF-8"?>
<svg xmlns="http://www.w3.org/2000/svg" viewBox="0 0 24 24" fill="currentColor" aria-hidden="true">
  <path d="M21.4,19.34H2.6c-.13,0-.25-.06-.32-.16-.07-.1-.1-.24-.06-.36l.52-1.62c.04-.11,.11-.2,.22-.24l.75-.33,.24-1.17c.03-.17,.17-.29,.34-.31l1.17-.15,.72-.68c.08-.07,.18-.11,.29-.11,.11,0,.21,.05,.28,.14l.53,.6,.34-.37c.05-.05,.11-.09,.18-.11l.78-.24,.67-1.45c.06-.14,.21-.23,.36-.23h1.14l.74-.78c.11-.12,.29-.16,.44-.09l1.01,.42c.08,.03,.14,.09,.18,.16l.14,.22,.73-.33c.18-.08,.38-.02,.49,.14l.63,.93,4.06,.56c.13,.02,.25,.1,.3,.22l.65,1.35h.77c.2,0,.36,.14,.39,.34l.49,3.22c.02,.11-.02,.23-.09,.32-.08,.09-.19,.14-.3,.14Zm-18.53-.59H21.18l-.43-2.84h-.73c-.15,0-.29-.09-.36-.22l-.66-1.37-4.04-.55c-.11-.02-.21-.08-.27-.17l-.59-.86-.74,.33c-.18,.08-.39,.01-.5-.15l-.19-.31-.83-.35-.7,.75c-.07,.08-.18,.13-.29,.13h-1.1l-.66,1.42c-.05,.1-.13,.18-.24,.21l-.81,.25-.45,.49c-.08,.08-.18,.13-.29,.13h0c-.11,0-.22-.05-.29-.14l-.54-.61-.63,.58c-.06,.06-.14,.09-.22,.1l-1.1,.14-.24,1.14c-.03,.13-.11,.23-.23,.28l-.76,.33-.42,1.29Zm5.12-3.73h0Zm-2.45-.04h0Zm3.02-.69h0Zm6.62-1.03h0Z"/>
  <path d="M7.9,19.34c-.09,0-.18-.04-.24-.12-.09-.13-.06-.32,.07-.41l1.85-1.31-1.74-1.01-.79-.91c-.11-.12-.09-.31,.03-.41s.31-.09,.41,.03l.72,.83,2.44,1.43-2.6,1.83c-.05,.04-.11,.05-.17,.05Z"/>
  <path d="M10.13,17.77c-.1,0-.19-.05-.25-.14-.09-.14-.05-.32,.09-.41l1.34-.85-2.73-1.67c-.14-.08-.18-.27-.1-.4,.08-.14,.27-.18,.4-.1l3.54,2.16-2.14,1.36s-.1,.05-.16,.05Z"/>
  <path d="M20.74,19.34c-.09,0-.17-.04-.23-.11l-2.61-3.23s-.09-.06-.14-.06l-5.95,.72c-.16,.02-.31-.1-.33-.26s.1-.31,.26-.33l5.95-.72c.26-.03,.51,.07,.67,.27l2.61,3.23c.1,.13,.08,.31-.04,.41-.05,.04-.12,.07-.18,.07Z"/>
  <path d="M4.78,18.12s-.1-.01-.15-.04c-.14-.08-.19-.26-.11-.4l.52-.89c.15-.25,.47-.35,.73-.22l.48,.24c.15,.07,.2,.25,.13,.39-.07,.14-.25,.2-.39,.13l-.45-.23-.5,.86c-.05,.09-.15,.15-.25,.15Z"/>
  <path d="M11.64,18.53c-.08,0-.15-.03-.21-.09-.11-.11-.11-.3,0-.42l.51-.51c.15-.15,.37-.21,.58-.16l.7,.19c.16,.04,.25,.2,.21,.36-.04,.16-.2,.25-.36,.21l-.7-.19s0,0-.01,0l-.51,.51c-.06,.06-.13,.09-.21,.09Z"/>
  <path d="M18.21,18.41c-.09,0-.18-.04-.23-.12l-.77-1.01s-.05-.03-.08-.02l-2.02,.67c-.15,.05-.32-.03-.37-.19-.05-.15,.03-.32,.19-.37l2.02-.67c.27-.09,.56,0,.73,.23l.77,1.01c.1,.13,.07,.31-.06,.41-.05,.04-.12,.06-.18,.06Z"/>
  <path d="M10.19,14.75c-.08,0-.16-.03-.22-.09-.11-.12-.1-.3,.02-.41l.64-.6c.2-.18,.5-.21,.73-.05l.57,.39c.13,.09,.17,.28,.07,.41-.09,.13-.28,.17-.41,.07l-.57-.39-.64,.6c-.06,.05-.13,.08-.2,.08Z"/>
  <path d="M14.02,15.27c-.08,0-.16-.03-.21-.09l-.99-1.05c-.11-.12-.11-.3,.01-.41,.12-.11,.3-.11,.41,.01l.99,1.05c.11,.12,.11,.3-.01,.41-.06,.05-.13,.08-.2,.08Z"/>
  <path d="M14.76,16.3s-.03,0-.05,0c-.16-.03-.27-.18-.24-.34l.6-3.68v-.55l3.88,.56-.16,.48-.48,2.98c-.03,.16-.18,.27-.34,.24-.16-.03-.27-.18-.24-.34l.46-2.88-2.55-.37-.59,3.64c-.02,.14-.15,.25-.29,.25Z"/>
  <path d="M18.05,15.78s-.03,0-.04,0l-3.22-.45c-.16-.02-.27-.17-.25-.33,.02-.16,.17-.27,.33-.25l3.22,.45c.16,.02,.27,.17,.25,.33-.02,.15-.15,.25-.29,.25Z"/>
  <path d="M3.04,15.33c-.1,0-.2-.05-.25-.15-.02-.03-.47-.83-.14-1.71,.25-.66,.1-1.34,.01-1.51-.07-.15-.01-.32,.13-.39,.15-.07,.32-.01,.39,.13,.17,.34,.32,1.17,.01,1.98-.24,.62,.09,1.19,.1,1.2,.08,.14,.03,.32-.11,.4-.05,.03-.1,.04-.15,.04Z"/>
  <path d="M5.19,14.05c-.1,0-.2-.05-.25-.15-.02-.03-.47-.83-.14-1.71,.25-.66,.1-1.33,.01-1.51-.07-.15-.01-.32,.13-.39,.15-.07,.32-.01,.39,.13,.17,.34,.32,1.17,.01,1.98-.24,.62,.09,1.19,.1,1.2,.08,.14,.03,.32-.11,.4-.05,.03-.1,.04-.15,.04Z"/>
  <path d="M10.35,11.9c-.05,0-.1-.01-.15-.04-.14-.08-.19-.26-.11-.4,0-.01,.45-.8,.13-1.62-.39-1.01-.2-2.06,.01-2.49,.07-.14,.25-.2,.39-.13,.15,.07,.2,.25,.13,.39-.14,.27-.32,1.15,.01,2.01,.42,1.09-.15,2.09-.17,2.13-.05,.09-.15,.15-.25,.15Z"/>
  <path d="M14.24,11.38c-.05,0-.1-.01-.15-.04-.14-.08-.19-.26-.11-.4,0,0,.38-.68,.11-1.39-.35-.9-.18-1.83,.01-2.2,.07-.15,.25-.2,.39-.13s.2,.25,.13,.39c-.07,.15-.3,.92,.01,1.73,.37,.97-.13,1.86-.15,1.89-.05,.09-.15,.15-.25,.15Z"/>
  <path d="M12.4,11.35s-.09-.01-.13-.03c-.14-.07-.2-.25-.13-.39,0-.02,.62-1.28,.05-2.53-.67-1.47-.42-3.03-.2-3.56,.06-.15,.24-.22,.39-.15,.15,.06,.22,.24,.15,.39-.18,.43-.39,1.8,.2,3.08,.69,1.52-.03,2.97-.06,3.04-.05,.1-.16,.16-.26,.16Z"/>
</svg>
