<?xml version="1.0" encoding="UTF-8"?>
<svg xmlns="http://www.w3.org/2000/svg" viewBox="0 0 24 24" fill="currentColor" aria-hidden="true">
  <path d="M11.7,19.72V2.52l.43,.2c3.25,1.52,5.35,4.82,5.35,8.4s-2.1,6.89-5.35,8.4l-.43,.2Zm.6-16.25v15.3c2.8-1.5,4.58-4.45,4.58-7.65s-1.78-6.15-4.58-7.65Z"/>
  <path d="M12.3,19.72l-.43-.2c-3.25-1.52-5.35-4.82-5.35-8.4s2.1-6.89,5.35-8.4l.43-.2V19.72Zm-.6-16.25c-2.8,1.5-4.58,4.45-4.58,7.65s1.78,6.15,4.58,7.65V3.47Z"/>
  <path d="M12,21.69c-.17,0-.3-.13-.3-.3V2.61c0-.17,.13-.3,.3-.3s.3,.13,.3,.3V21.39c0,.17-.13,.3-.3,.3Z"/>
  <path d="M14.5,12.07h-5.09c-.17,0-.3-.13-.3-.3s.13-.3,.3-.3h5.09c.17,0,.3,.13,.3,.3s-.13,.3-.3,.3Z"/>
  <path d="M13.39,15.21h-2.87c-.17,0-.3-.13-.3-.3s.13-.3,.3-.3h2.87c.17,0,.3,.13,.3,.3s-.13,.3-.3,.3Z"/>
  <path d="M13.48,8.74h-3.05c-.17,0-.3-.13-.3-.3s.13-.3,.3-.3h3.05c.17,0,.3,.13,.3,.3s-.13,.3-.3,.3Z"/>
</svg>
