<?xml version="1.0" encoding="UTF-8"?>
<svg xmlns="http://www.w3.org/2000/svg" viewBox="0 0 24 24" fill="currentColor" aria-hidden="true">
  <g>
    <path d="M16.96,19.55c-.17,0-.3-.13-.3-.3v-1.24c0-.17,.13-.3,.3-.3s.3,.13,.3,.3v1.24c0,.17-.13,.3-.3,.3Z"/>
    <path d="M17.58,18.93h-1.24c-.17,0-.3-.13-.3-.3s.13-.3,.3-.3h1.24c.17,0,.3,.13,.3,.3s-.13,.3-.3,.3Z"/>
  </g>
  <g>
    <path d="M18.37,7.24c-.17,0-.3-.13-.3-.3v-1.24c0-.17,.13-.3,.3-.3s.3,.13,.3,.3v1.24c0,.17-.13,.3-.3,.3Z"/>
    <path d="M18.99,6.62h-1.24c-.17,0-.3-.13-.3-.3s.13-.3,.3-.3h1.24c.17,0,.3,.13,.3,.3s-.13,.3-.3,.3Z"/>
  </g>
  <g>
    <path d="M11.35,5.4c-.17,0-.3-.13-.3-.3v-1.24c0-.17,.13-.3,.3-.3s.3,.13,.3,.3v1.24c0,.17-.13,.3-.3,.3Z"/>
    <path d="M11.98,4.78h-1.24c-.17,0-.3-.13-.3-.3s.13-.3,.3-.3h1.24c.17,0,.3,.13,.3,.3s-.13,.3-.3,.3Z"/>
  </g>
  <circle cx="14.46" cy="2.17" r=".32"/>
  <circle cx="19.01" cy="4.21" r=".32"/>
  <circle cx="15.68" cy="19.43" r=".32"/>
  <g>
    <path d="M13.51,7.3c-.41,0-.74-.33-.74-.74s.33-.74,.74-.74,.74,.33,.74,.74-.33,.74-.74,.74Zm0-.89c-.08,0-.14,.06-.14,.14,0,.16,.29,.16,.29,0,0-.08-.07-.14-.14-.14Z"/>
    <path d="M15.41,7.13c-.41,0-.74-.33-.74-.74s.33-.74,.74-.74,.74,.33,.74,.74-.33,.74-.74,.74Zm0-.89c-.08,0-.14,.06-.14,.14,0,.16,.29,.16,.29,0,0-.08-.06-.14-.14-.14Z"/>
    <path d="M13.92,6.85c-.17,0-.3-.13-.3-.3v-2.27c0-.15,.11-.28,.26-.3l1.93-.25c.09,0,.17,.02,.24,.07,.06,.06,.1,.14,.1,.23v2.35c0,.17-.13,.3-.3,.3s-.3-.13-.3-.3v-2.01l-1.33,.17v2c0,.17-.13,.3-.3,.3Z"/>
    <path d="M14.07,5.34c-.15,0-.28-.11-.3-.27-.02-.17,.1-.31,.27-.33l1.56-.17c.16-.03,.31,.1,.33,.27,.02,.17-.1,.31-.27,.33l-1.56,.17s-.02,0-.03,0Z"/>
  </g>
  <path d="M15.18,10.75s-.05,0-.07,0c-2.64-.63-4.16-2.14-4.44-2.44-1.81-1.63-3.6-1.74-3.62-1.74-.17,0-.29-.15-.29-.31s.15-.29,.31-.29c.08,0,2.02,.11,4.02,1.91,.27,.29,1.68,1.69,4.16,2.28,.16,.04,.26,.2,.22,.36-.03,.14-.16,.23-.29,.23Z"/>
  <path d="M15.77,9.57s-.04,0-.07,0c-2.79-.63-4.39-2.14-4.68-2.43-1.92-1.64-3.83-1.74-3.84-1.74-.17,0-.29-.15-.29-.31,0-.16,.14-.29,.3-.29h.01c.08,0,2.12,.11,4.23,1.9,.29,.29,1.78,1.7,4.41,2.29,.16,.04,.26,.2,.23,.36-.03,.14-.16,.23-.29,.23Z"/>
  <path d="M13.57,20.54s-.03,0-.05,0c-.16-.03-.27-.18-.24-.35,.64-3.64,2.67-7.66,3.53-9.37,.17-.33,.29-.57,.34-.7,.23-.55,.12-.64-.02-.77-.07-.06-.34-.08-.63,.08-1.56,1.39-6.99,10.3-7.05,10.39-.09,.14-.27,.19-.41,.1-.14-.09-.19-.27-.1-.41,.22-.37,5.54-9.08,7.22-10.57,.53-.29,1.06-.3,1.35-.06,.29,.25,.57,.58,.19,1.47-.06,.13-.18,.38-.36,.73-.85,1.69-2.85,5.66-3.48,9.21-.03,.15-.15,.25-.29,.25Z"/>
  <path d="M11.63,20.65s-.05,0-.08,0c-.16-.04-.26-.21-.21-.37,.01-.05,1.45-5.48,5.43-10.93,.22-.22,.26-.32,.26-.32,.03-.16,.19-.26,.35-.22,.16,.03,.26,.2,.23,.37-.02,.08-.09,.27-.38,.56-3.88,5.32-5.29,10.64-5.31,10.69-.04,.14-.16,.22-.29,.22Z"/>
  <path d="M14.99,22.15H5.37c-.16,0-.29-.13-.3-.29,0,0-.03-.61-.03-1,0-.49,.55-.7,1.01-.74H14.17c.75,0,1.06,.49,1.11,.76v.96c0,.17-.13,.3-.29,.3Zm-9.33-.6H14.69v-.6h0s-.11-.22-.52-.22H6.08c-.19,.02-.41,.1-.44,.15,0,.2,.01,.47,.02,.67Z"/>
  <path d="M5.24,7.08c-.15,0-.27-.11-.3-.25l-.27-1.7c-.03-.16,.08-.32,.25-.34l1.79-.29c.08-.01,.16,0,.22,.05,.06,.05,.11,.12,.12,.2l.27,1.7c.03,.16-.08,.32-.25,.34l-1.79,.28s-.03,0-.05,0Zm.07-1.75l.18,1.11,1.19-.19-.18-1.11-1.19,.19Z"/>
  <path d="M7.37,20.7c-.15,0-.27-.1-.3-.25l-.45-2.85c-.03-.16,.08-.32,.25-.34l1.79-.29c.08-.02,.16,0,.22,.05,.06,.05,.11,.12,.12,.2l.49,3.05c.03,.16-.08,.32-.25,.34-.16,.03-.32-.08-.34-.25l-.44-2.75-1.19,.19,.41,2.55c.03,.16-.08,.32-.25,.34-.02,0-.03,0-.05,0Z"/>
  <path d="M7.29,17.61c-.14,0-.27-.1-.3-.25l-1.75-10.55c-.03-.16,.08-.32,.25-.34,.17-.03,.32,.08,.34,.25l1.75,10.55c.03,.16-.08,.32-.25,.34-.02,0-.03,0-.05,0Z"/>
  <path d="M8.41,17.39c-.14,0-.27-.1-.3-.25l-1.75-10.55c-.03-.16,.08-.32,.25-.34,.17-.03,.32,.08,.34,.25l1.75,10.55c.03,.16-.08,.32-.25,.34-.02,0-.03,0-.05,0Z"/>
  <path d="M10.21,18.1c-.14,0-.27-.1-.29-.25L7.89,6.73c-.03-.16,.08-.32,.24-.35,.17-.03,.32,.08,.35,.24l2.02,11.13c.03,.16-.08,.32-.24,.35-.02,0-.04,0-.05,0Z"/>
  <path d="M11.11,16.6c-.14,0-.27-.1-.29-.25l-1.64-9.1c-.03-.16,.08-.32,.24-.35,.16-.03,.32,.08,.35,.24l1.64,9.1c.03,.16-.08,.32-.24,.35-.02,0-.04,0-.05,0Z"/>
  <path d="M12.01,15.15c-.14,0-.27-.1-.29-.25l-1.23-6.89c-.03-.16,.08-.32,.24-.35,.16-.03,.32,.08,.35,.24l1.23,6.89c.03,.16-.08,.32-.24,.35-.02,0-.04,0-.05,0Z"/>
  <path d="M12.92,13.67c-.14,0-.27-.1-.3-.25l-.74-4.21c-.03-.16,.08-.32,.24-.35,.17-.03,.32,.08,.35,.24l.74,4.21c.03,.16-.08,.32-.24,.35-.02,0-.04,0-.05,0Z"/>
  <path d="M13.87,12.31c-.14,0-.27-.1-.29-.25l-.36-2c-.03-.16,.08-.32,.24-.35,.16-.04,.32,.08,.35,.24l.36,2c.03,.16-.08,.32-.24,.35-.02,0-.04,0-.05,0Z"/>
</svg>
