<?xml version="1.0" encoding="UTF-8"?>
<svg xmlns="http://www.w3.org/2000/svg" viewBox="0 0 24 24" fill="currentColor" aria-hidden="true">
  <path d="M12,10.78c1.85,0,3.35-1.5,3.35-3.35s-1.5-3.35-3.35-3.35-3.35,1.5-3.35,3.35,1.5,3.35,3.35,3.35Zm0-6.1c1.52,0,2.75,1.23,2.75,2.75s-1.23,2.75-2.75,2.75-2.75-1.23-2.75-2.75,1.23-2.75,2.75-2.75Z"/>
  <path d="M16.33,11.63H7.67c-.94,0-1.71,.77-1.71,1.71v6.58h12.08v-6.58c0-.94-.77-1.71-1.71-1.71Zm-4.13,.79l1.09,4.34-1.29,.98-1.26-.83,1.05-4.49h.42Zm5.25,6.9H6.56v-5.98c0-.61,.5-1.11,1.11-1.11h3.52l-1.15,4.96,1.97,1.29,1.94-1.48-1.19-4.77h3.56c.61,0,1.11,.5,1.11,1.11v5.98Z"/>
</svg>
