<?xml version="1.0" encoding="UTF-8"?>
<svg xmlns="http://www.w3.org/2000/svg" viewBox="0 0 24 24">
  <path d="M12,15.99c-.17,0-.3-.13-.3-.3v-5.05c0-.17,.13-.3,.3-.3s.3,.13,.3,.3v5.05c0,.17-.13,.3-.3,.3Z"/>
  <path d="M12,19.97c-.26,0-.52-.01-.77-.04-.17-.02-.29-.16-.27-.33,.02-.17,.16-.29,.33-.27,.23,.02,.47,.03,.71,.03,4.07,0,7.37-3.31,7.37-7.37s-3.31-7.37-7.37-7.37-7.37,3.31-7.37,7.37c0,.14,0,.28,.01,.42,0,.17-.12,.31-.28,.32-.16,0-.31-.12-.32-.28,0-.15-.01-.3-.01-.45,0-4.4,3.58-7.97,7.97-7.97s7.97,3.58,7.97,7.97-3.58,7.97-7.97,7.97Z"/>
  <path d="M12,9.15c-.29,0-.52-.23-.52-.52s.23-.52,.52-.52,.52,.23,.52,.52-.23,.52-.52,.52Zm0-.6s-.08,.04-.08,.08c0,.09,.16,.09,.16,0,0-.04-.04-.08-.08-.08Z"/>
</svg>
