<?xml version="1.0" encoding="UTF-8"?>
<svg xmlns="http://www.w3.org/2000/svg" viewBox="0 0 24 24">
  <path d="M17.98,5.72H7.96c-.72,0-1.31,.54-1.4,1.24-.16,.04-.42,.12-.97,.29-1.06,.34-1.08,1.36-.94,1.85l1.86,6.86s.02,.03,.03,.04v.86c0,.78,.64,1.42,1.42,1.42h10.02c.78,0,1.42-.63,1.42-1.42V7.13c0-.78-.64-1.42-1.42-1.42Zm-12.75,3.22c-.02-.09-.21-.87,.54-1.12,.34-.11,.59-.19,.77-.24v6.19l-1.31-4.84Zm13.56,7.93c0,.45-.37,.82-.82,.82H7.96c-.45,0-.82-.37-.82-.82V7.13c0-.45,.37-.82,.82-.82h10.02c.45,0,.82,.37,.82,.82v9.74Z"/>
  <path d="M16.84,7.8h-7.73c-.37,0-.68,.3-.68,.68v1.57c0,.37,.3,.68,.68,.68h7.73c.37,0,.68-.3,.68-.68v-1.57c0-.37-.3-.68-.68-.68Zm.08,2.25s-.04,.08-.08,.08h-7.73s-.08-.04-.08-.08v-1.57s.04-.08,.08-.08h7.73s.08,.04,.08,.08v1.57Z"/>
  <path d="M17.14,11.74H8.88c-.17,0-.3,.13-.3,.3s.13,.3,.3,.3h8.25c.17,0,.3-.13,.3-.3s-.13-.3-.3-.3Z"/>
  <path d="M17.14,13.38H8.88c-.17,0-.3,.13-.3,.3s.13,.3,.3,.3h8.25c.17,0,.3-.13,.3-.3s-.13-.3-.3-.3Z"/>
  <path d="M17.14,15.22H8.88c-.17,0-.3,.13-.3,.3s.13,.3,.3,.3h8.25c.17,0,.3-.13,.3-.3s-.13-.3-.3-.3Z"/>
</svg>
