<?xml version="1.0" encoding="UTF-8"?>
<svg xmlns="http://www.w3.org/2000/svg" viewBox="0 0 24 24" fill="currentColor" aria-hidden="true">
  <path d="M12.01,6.27c-.17,0-.3-.13-.3-.3v-1.87c0-.17,.13-.3,.3-.3s.3,.13,.3,.3v1.87c0,.17-.13,.3-.3,.3Z"/>
  <path d="M16.01,7.98c-.08,0-.16-.03-.21-.09-.12-.12-.11-.31,0-.42l1.34-1.31c.12-.12,.31-.11,.42,0,.12,.12,.11,.31,0,.42l-1.34,1.31c-.06,.06-.13,.09-.21,.09Z"/>
  <path d="M17.55,11.25c-.15,0-.28-.11-.3-.26-.02-.16,.1-.31,.26-.33l1.86-.22c.16-.02,.31,.1,.33,.26,.02,.16-.1,.31-.26,.33l-1.86,.22s-.02,0-.04,0Z"/>
  <path d="M7.99,7.98c-.08,0-.15-.03-.21-.09l-1.34-1.31c-.12-.12-.12-.31,0-.42,.12-.12,.31-.12,.42,0l1.34,1.31c.12,.12,.12,.31,0,.42-.06,.06-.14,.09-.21,.09Z"/>
  <path d="M6.45,11.25s-.02,0-.04,0l-1.86-.22c-.16-.02-.28-.17-.26-.33,.02-.16,.17-.28,.33-.26l1.86,.22c.16,.02,.28,.17,.26,.33-.02,.15-.15,.26-.3,.26Z"/>
  <path d="M13.18,17.62s-.07,0-.09,0h-2.23c-.22,0-.59,.01-.85-.24-.16-.16-.24-.37-.24-.65,0-.79-.11-1.11-.58-1.64l-.05-.06c-.54-.6-1.53-1.72-1.53-3.42s1.19-4.43,4.37-4.43,4.37,2.72,4.37,4.43-1,2.82-1.53,3.42l-.05,.06c-.47,.52-.58,.85-.58,1.64,0,.27-.08,.49-.24,.65-.23,.22-.53,.25-.76,.25Zm-2.26-.6h2.17c.14,0,.34,0,.42-.07,.05-.05,.06-.15,.06-.22,0-.94,.16-1.4,.73-2.04l.05-.06c.52-.58,1.38-1.55,1.38-3.02s-1.02-3.83-3.77-3.83-3.77,2.35-3.77,3.83,.86,2.44,1.38,3.02l.05,.06c.57,.64,.73,1.1,.73,2.04,0,.07,.01,.17,.06,.22,.08,.08,.28,.07,.42,.07h.07Z"/>
  <path d="M13.37,20.2h-2.72c-.48,0-.87-.39-.87-.87v-.56c0-.48,.39-.87,.87-.87h2.72c.48,0,.87,.39,.87,.87v.56c0,.48-.39,.87-.87,.87Zm-2.72-1.71c-.15,0-.27,.12-.27,.27v.56c0,.15,.12,.27,.27,.27h2.72c.15,0,.27-.12,.27-.27v-.56c0-.15-.12-.27-.27-.27h-2.72Z"/>
</svg>
