<?xml version="1.0" encoding="UTF-8"?>
<svg xmlns="http://www.w3.org/2000/svg" viewBox="0 0 24 24" fill="currentColor" aria-hidden="true">
  <path d="M19.06,7.84v-.99l-.25-.03s-1.94-.23-2.89-.34c-1.53-.18-2.88-.27-3.94,.3-1.06-.57-2.42-.48-3.94-.3-.95,.11-2.89,.34-2.89,.34l-.25,.03v.99h-.96v9.31c0,.28,.22,.5,.5,.5h15.16c.28,0,.5-.22,.5-.5V7.84h-1.02Zm-13.61-.48c.56-.07,1.9-.22,2.64-.31,1.42-.16,2.67-.26,3.59,.22v.03s0,.01,0,.02v1.54c0,.16,.13,.29,.29,.29s.29-.13,.29-.29v-.67h0v-.91c.92-.48,2.18-.39,3.6-.22,.74,.09,2.08,.24,2.64,.31v8.84c-.59-.07-1.86-.22-2.57-.3-1.4-.16-2.65-.25-3.67,.17,0,0,0,0,0-.01v-4.86c0-.16-.13-.29-.29-.29s-.29,.13-.29,.29v4.86h0c-1.02-.41-2.26-.32-3.66-.16-.71,.08-1.98,.23-2.57,.3V7.36Zm14.06,9.38c0,.19-.16,.35-.35,.35H4.74c-.14,0-.25-.11-.25-.25V8.41h.39v8.43l.32-.04s1.94-.23,2.89-.34c1.49-.17,2.8-.27,3.73,.3h.3c.93-.57,2.24-.47,3.73-.3,.95,.11,2.89,.34,2.89,.34l.32,.04V8.41h.45v8.32Z"/>
  <path d="M6.13,8.86s.02,0,.04,0l3.18-.4s.79-.1,1.57,.16c.15,.05,.31-.03,.36-.18,.05-.15-.03-.31-.18-.36-.9-.3-1.79-.19-1.83-.18l-3.17,.4c-.16,.02-.27,.16-.25,.32,.02,.14,.14,.25,.28,.25Z"/>
  <path d="M6.13,10.23s.02,0,.04,0l3.18-.4s.79-.1,1.57,.16c.15,.05,.31-.03,.36-.18,.05-.15-.03-.31-.18-.36-.9-.3-1.79-.19-1.83-.18l-3.17,.4c-.16,.02-.27,.16-.25,.32,.02,.14,.14,.25,.28,.25Z"/>
  <path d="M6.13,11.59s.02,0,.04,0l3.18-.4s.79-.1,1.57,.16c.15,.05,.31-.03,.36-.18,.05-.15-.03-.31-.18-.36-.9-.3-1.79-.19-1.83-.18l-3.17,.4c-.16,.02-.27,.16-.25,.32,.02,.14,.14,.25,.28,.25Z"/>
  <path d="M6.13,12.95s.02,0,.04,0l3.18-.4s.79-.1,1.57,.16c.15,.05,.31-.03,.36-.18,.05-.15-.03-.31-.18-.36-.9-.3-1.79-.19-1.83-.18l-3.17,.4c-.16,.02-.27,.16-.25,.32,.02,.14,.14,.25,.28,.25Z"/>
  <path d="M6.13,14.31s.02,0,.04,0l3.18-.4s.79-.1,1.57,.16c.15,.05,.31-.03,.36-.18s-.03-.31-.18-.36c-.9-.3-1.79-.19-1.83-.18l-3.17,.4c-.16,.02-.27,.16-.25,.32,.02,.14,.14,.25,.28,.25Z"/>
  <path d="M13.03,8.62c.77-.26,1.57-.16,1.58-.16l3.17,.4s.02,0,.04,0c.14,0,.26-.11,.28-.25,.02-.16-.09-.3-.25-.32l-3.17-.4s-.93-.12-1.83,.18c-.15,.05-.23,.21-.18,.36,.05,.15,.21,.23,.36,.18Z"/>
  <path d="M13.03,9.98c.77-.26,1.57-.16,1.58-.16l3.17,.4s.02,0,.04,0c.14,0,.26-.11,.28-.25,.02-.16-.09-.3-.25-.32l-3.17-.4s-.93-.12-1.83,.18c-.15,.05-.23,.21-.18,.36,.05,.15,.21,.23,.36,.18Z"/>
  <path d="M13.03,11.34c.77-.26,1.57-.16,1.58-.16l3.17,.4s.02,0,.04,0c.14,0,.26-.11,.28-.25,.02-.16-.09-.3-.25-.32l-3.17-.4s-.93-.12-1.83,.18c-.15,.05-.23,.21-.18,.36,.05,.15,.21,.23,.36,.18Z"/>
  <path d="M13.03,12.71c.77-.26,1.57-.16,1.58-.16l3.17,.4s.02,0,.04,0c.14,0,.26-.11,.28-.25,.02-.16-.09-.3-.25-.32l-3.17-.4s-.93-.12-1.83,.18c-.15,.05-.23,.21-.18,.36,.05,.15,.21,.23,.36,.18Z"/>
  <path d="M13.03,14.07c.77-.26,1.57-.16,1.58-.16l3.17,.4s.02,0,.04,0c.14,0,.26-.11,.28-.25,.02-.16-.09-.3-.25-.32l-3.17-.4s-.93-.12-1.83,.18c-.15,.05-.23,.21-.18,.36,.05,.15,.21,.23,.36,.18Z"/>
</svg>
