<?xml version="1.0" encoding="UTF-8"?>
<svg xmlns="http://www.w3.org/2000/svg" viewBox="0 0 24 24">
  <path d="M15.9,19.54h-7.81c-.17,0-.3-.13-.3-.3s.13-.3,.3-.3h7.81c.17,0,.3,.13,.3,.3s-.13,.3-.3,.3Z"/>
  <g>
    <path d="M12,17.79c-.14,0-.27-.07-.36-.19-.99-1.46-4.22-6.4-4.22-8.56,0-2.52,2.05-4.58,4.58-4.58s4.58,2.05,4.58,4.58c0,2.16-3.23,7.1-4.22,8.56-.08,.12-.21,.19-.36,.19Zm0-12.73c-2.19,0-3.98,1.78-3.98,3.98,0,1.54,2.11,5.23,3.98,8.02,1.87-2.78,3.98-6.47,3.98-8.02,0-2.19-1.78-3.98-3.98-3.98Z"/>
    <path d="M12,11.48c-1.34,0-2.44-1.09-2.44-2.44s1.09-2.44,2.44-2.44,2.44,1.09,2.44,2.44-1.09,2.44-2.44,2.44Zm0-4.28c-1.01,0-1.84,.83-1.84,1.84s.82,1.84,1.84,1.84,1.84-.82,1.84-1.84-.82-1.84-1.84-1.84Z"/>
  </g>
</svg>
