<?xml version="1.0" encoding="UTF-8"?>
<svg xmlns="http://www.w3.org/2000/svg" viewBox="0 0 24 24" fill="currentColor" aria-hidden="true">
  <path d="M10.13,15.1c-2.72,0-4.93-2.21-4.93-4.92s2.21-4.93,4.93-4.93,4.92,2.21,4.92,4.93-2.21,4.92-4.92,4.92Zm0-9.25c-2.39,0-4.33,1.94-4.33,4.33s1.94,4.33,4.33,4.33,4.33-1.94,4.33-4.33-1.94-4.33-4.33-4.33Z"/>
  <path d="M17.82,18.75c-.26,0-.5-.1-.69-.28l-3.89-3.74,.26-.21c.33-.28,.63-.59,.9-.92l.21-.25,3.91,3.75c.18,.18,.28,.43,.28,.69s-.1,.5-.28,.69c-.18,.18-.43,.29-.69,.29Zm-3.69-4l3.42,3.29c.15,.15,.39,.15,.53,0,.07-.07,.11-.16,.11-.26s-.04-.19-.11-.26l-3.43-3.3c-.16,.19-.34,.36-.52,.53Z"/>
</svg>
