<?xml version="1.0" encoding="UTF-8"?>
<svg xmlns="http://www.w3.org/2000/svg" viewBox="0 0 24 24" fill="currentColor" aria-hidden="true">
  <path d="M12,19.95c-4.38,0-7.95-3.57-7.95-7.95s3.57-7.95,7.95-7.95,7.95,3.57,7.95,7.95-3.57,7.95-7.95,7.95Zm0-15.3c-4.05,0-7.35,3.3-7.35,7.35s3.3,7.35,7.35,7.35,7.35-3.3,7.35-7.35-3.3-7.35-7.35-7.35Z"/>
  <g>
    <path d="M15.3,12.3h-6.6c-.17,0-.3-.13-.3-.3s.13-.3,.3-.3h6.6c.17,0,.3,.13,.3,.3s-.13,.3-.3,.3Z"/>
    <path d="M12,15.6c-.17,0-.3-.13-.3-.3v-6.59c0-.17,.13-.3,.3-.3s.3,.13,.3,.3v6.59c0,.17-.13,.3-.3,.3Z"/>
  </g>
</svg>
