<?xml version="1.0" encoding="UTF-8"?>
<svg xmlns="http://www.w3.org/2000/svg" viewBox="0 0 24 24">
  <path d="M18.72,18.88H5.28c-.59,0-1.08-.48-1.08-1.08V8.71c0-.59,.48-1.08,1.08-1.08h13.45c.59,0,1.08,.48,1.08,1.08v9.09c0,.59-.48,1.08-1.08,1.08ZM5.28,8.24c-.26,0-.47,.21-.47,.47v9.09c0,.26,.21,.47,.47,.47h13.45c.26,0,.47-.21,.47-.47V8.71c0-.26-.21-.47-.47-.47H5.28Z"/>
  <path d="M16.17,8.24H7.83v-2.04c0-.59,.48-1.08,1.08-1.08h6.19c.59,0,1.08,.48,1.08,1.08v2.04Zm-7.74-.61h7.13v-1.44c0-.26-.21-.47-.47-.47h-6.19c-.26,0-.47,.21-.47,.47v1.44Z"/>
  <path d="M13.07,16.72h-2.15c-.32,0-.58-.26-.58-.58v-1.22h-1.22c-.32,0-.58-.26-.58-.58v-2.15c0-.32,.26-.58,.58-.58h1.22v-1.22c0-.32,.26-.58,.58-.58h2.15c.32,0,.58,.26,.58,.58v1.22h1.22c.32,0,.58,.26,.58,.58v2.15c0,.32-.26,.58-.58,.58h-1.22v1.22c0,.32-.26,.58-.58,.58Zm-2.12-.61h2.1v-1.81h1.81v-2.1h-1.81v-1.81h-2.1v1.81h-1.81v2.1h1.81v1.81Zm3.93-3.91h0Z"/>
</svg>
