<?xml version="1.0" encoding="UTF-8"?>
<svg xmlns="http://www.w3.org/2000/svg" viewBox="0 0 24 24">
  <path d="M21.47,9.08c-.12-.12-.31-.12-.42,0l-2.22,2.22-4-4,2.07-2.07c.12-.12,.12-.31,0-.42-.12-.12-.31-.12-.42,0l-2.26,2.26c-.07,.07-.08,.16-.07,.26,0,.08,.02,.16,.09,.22l.27,.27c-.12,.15-.37,.35-.55,.47-.34,.02-.85,.05-.99,.04-.29-.02-.61,.12-.68,.15-.04,.02-.07,.04-.09,.06l-.26,.27c-.28-.25-.62-.28-.65-.27,0,0-.44-.03-.74-.03-.14,0-.19-.04-.2-.04l-.69-.65s.09-.02,.13-.05c.12-.12,.12-.31,0-.42l-2.38-2.38c-.12-.12-.31-.12-.42,0s-.12,.31,0,.42l2.14,2.14-4,4-2.17-2.17c-.12-.12-.31-.12-.42,0-.12,.12-.12,.31,0,.42l2.38,2.38c.06,.06,.13,.09,.21,.09s.15-.03,.21-.09h0s.02-.02,.02-.02l.35-.35,.31,.3s.02,.09,.03,.17c.05,.39,.07,.53,.07,.53,0,.05,.07,.45,.39,.76l.58,.58-.36,.33c-.37,.36-.37,.96,0,1.32,.18,.18,.42,.27,.66,.27,.01,.22,.09,.44,.26,.61,.18,.17,.4,.26,.63,.27,0,.24,.1,.46,.27,.63,.17,.17,.4,.26,.63,.27,0,.23,.09,.46,.27,.63,.18,.18,.42,.27,.66,.27s.47-.09,.65-.27l.35-.32,.79,.79c.06,.06,.13,.09,.21,.09h0c.2,.16,.44,.26,.68,.26,.28,0,.57-.11,.78-.32,.21-.21,.32-.48,.32-.78,0-.04-.02-.07-.02-.1,.03,0,.05,.02,.08,.02,.28,0,.56-.11,.78-.32s.32-.48,.32-.78c0-.04-.02-.07-.02-.1,.03,0,.06,.02,.09,.02,.28,0,.57-.11,.78-.32,.24-.24,.33-.57,.3-.88,.03,0,.06,.02,.09,.02,.28,0,.57-.11,.78-.32,.21-.21,.32-.48,.32-.78,0-.25-.1-.47-.24-.66l.53-.53c.07-.09,.29-.39,.27-.69,0-.11-.03-.39,.05-.47,.11-.11,.33-.3,.48-.43l.04,.04s.06,.02,.09,.04c0,0,0,.02,.01,.03,.06,.06,.13,.09,.21,.09s.15-.03,.21-.09l2.41-2.41c.12-.12,.12-.31,0-.42ZM7.14,14.89l.37-.34,.47,.47-.36,.33c-.13,.13-.34,.13-.47,0-.13-.13-.13-.34,0-.47Zm.93,.88l.35-.32,.47,.47-.34,.31c-.13,.13-.34,.13-.47,0-.13-.13-.13-.34,0-.47Zm.81,1.13c0-.09,.04-.17,.09-.23h0l.32-.3,.03-.03,.47,.47-.34,.31c-.13,.13-.34,.13-.47,0-.06-.06-.1-.15-.1-.24Zm1.47,1.14c-.13,.13-.34,.13-.47,0s-.13-.34,0-.47l.35-.32,.47,.47-.34,.31Zm7.25-6.21c-.27,.27-.24,.71-.23,.95,0,.05-.07,.18-.12,.24l-.48,.48-.63-.64c-.11-.12-.31-.12-.42,0-.12,.12-.12,.31,0,.42l.95,.98c.2,.2,.2,.52,0,.71-.2,.2-.52,.2-.72,0l-1.38-1.32c-.12-.12-.31-.11-.42,0-.12,.12-.11,.31,0,.42l.36,.35s0,.03,.02,.05l.95,.98c.2,.2,.2,.52,0,.71s-.52,.19-.72,0l-1.38-1.32c-.12-.12-.31-.11-.42,0-.12,.12-.11,.31,0,.42l.36,.35s0,.03,.02,.05l.95,.98c.2,.2,.2,.52,0,.71-.19,.19-.52,.19-.72,0l-1.38-1.32c-.12-.12-.31-.11-.42,0-.12,.12-.11,.31,0,.42l.38,.37s0,.02,0,.02l.95,.98c.2,.2,.2,.52,0,.71-.2,.2-.52,.2-.72,0l-1.38-1.32s-.05-.02-.08-.03l-.52-.52s0-.02-.01-.03c0-.01-.03,0-.04-.02l-.85-.85s0-.02-.01-.03c-.01-.01-.03,0-.04-.02l-2.59-2.59c-.18-.17-.22-.42-.22-.42,0,0-.02-.14-.07-.52-.03-.25-.08-.48-.25-.57l-.26-.25,3.11-3.11,.67,.63s.22,.23,.62,.23c.28,0,.7,.03,.71,.03,0,0,.15,0,.26,.1l-1.6,1.62c-.43,.43-.44,1.13,0,1.56,.22,.22,.55,.36,.88,.36,.26,0,.53-.09,.74-.3l1.62-1.66h.26c0,.28,.08,.67,.33,1,.28,.36,.71,.56,1.34,.6,1.04,.07,1.61-.44,1.71-1.53,.02-.17-.11-.31-.27-.33-.18-.02-.31,.11-.33,.27-.1,1.06-.68,1.02-1.14,.99-.39-.03-.67-.15-.84-.37-.28-.35-.2-.86-.2-.86,.01-.08,0-.17-.06-.24-.05-.07-.14-.11-.22-.11l-.69-.03c-.08,0-.17,.03-.23,.09l-1.71,1.75c-.2,.2-.57,.13-.76-.06s-.19-.52,.01-.72l2.24-2.26c.11-.04,.26-.08,.35-.08,.23,.02,1.05-.04,1.14-.04,.05,0,.1-.02,.14-.05,.05-.03,.46-.31,.71-.59l3.15,3.15c-.16,.14-.37,.33-.48,.43Z"/>
</svg>
