<?xml version="1.0" encoding="UTF-8"?>
<svg xmlns="http://www.w3.org/2000/svg" viewBox="0 0 24 24" fill="currentColor" aria-hidden="true">
  <path d="M18.85,11.59h0v-3.01c0-.91-.74-1.66-1.66-1.66h-5.56v-.41c0-.76-.62-1.38-1.38-1.38h-2.69c-.76,0-1.38,.62-1.38,1.38v.41h-.44c-.91,0-1.66,.74-1.66,1.66v6.38c0,.91,.74,1.66,1.66,1.66H15.52c.06,0,.11-.03,.16-.07,.36,.66,.79,1.39,1.3,2.18,.06,.09,.15,.14,.25,.14s.2-.05,.25-.14c1.51-2.36,2.42-4.24,2.42-5.02,0-.86-.42-1.63-1.06-2.11ZM6.79,6.51c0-.43,.35-.78,.78-.78h2.69c.43,0,.78,.35,.78,.78v.41H6.79v-.41Zm-1.04,9.5c-.58,0-1.06-.47-1.06-1.06v-6.38c0-.58,.47-1.06,1.06-1.06h11.44c.58,0,1.06,.47,1.06,1.06v2.66c-.31-.13-.65-.2-1.01-.2-1.47,0-2.67,1.2-2.67,2.67,0,.45,.3,1.26,.84,2.31H5.75Zm11.49,1.99c-1.63-2.6-2.07-3.92-2.07-4.3,0-1.14,.93-2.07,2.07-2.07s2.07,.93,2.07,2.07c0,.38-.44,1.71-2.07,4.3Z"/>
  <path d="M17.24,12.45c-.71,0-1.28,.58-1.28,1.28s.58,1.28,1.28,1.28,1.28-.58,1.28-1.28-.58-1.28-1.28-1.28Zm0,1.97c-.38,0-.68-.31-.68-.68s.31-.68,.68-.68,.68,.31,.68,.68-.31,.68-.68,.68Z"/>
  <path d="M16.61,10.22v-1.75c0-.17-.13-.3-.3-.3h-2.74c-.17,0-.3,.13-.3,.3v1.75c0,.17,.13,.3,.3,.3h2.74c.17,0,.3-.13,.3-.3Zm-.6-.3h-2.14v-1.15h2.14v1.15Z"/>
  <path d="M9.42,8.84c-1.54,0-2.79,1.25-2.79,2.79s1.25,2.79,2.79,2.79,2.79-1.25,2.79-2.79-1.25-2.79-2.79-2.79Zm0,4.98c-1.21,0-2.19-.98-2.19-2.19s.98-2.19,2.19-2.19,2.19,.98,2.19,2.19-.98,2.19-2.19,2.19Z"/>
</svg>
