<?xml version="1.0" encoding="UTF-8"?>
<svg xmlns="http://www.w3.org/2000/svg" viewBox="0 0 24 24" fill="currentColor" aria-hidden="true">
  <path d="M9.76,14.66h-1.44c-.17,0-.3,.13-.3,.3s.13,.3,.3,.3h1.44c.17,0,.3-.13,.3-.3s-.13-.3-.3-.3Z"/>
  <path d="M15.68,14.66h-1.44c-.17,0-.3,.13-.3,.3s.13,.3,.3,.3h1.44c.17,0,.3-.13,.3-.3s-.13-.3-.3-.3Z"/>
  <path d="M19.09,7.87l-1.35-1.47s-.03-.01-.04-.02v-1.32c0-.55-.45-1-1-1H7.3c-.55,0-1,.45-1,1v1.32s-.03,0-.04,.02l-1.35,1.47c-.05,.06-.08,.13-.08,.2v2.41c0,.17,.13,.3,.3,.3s.3-.13,.3-.3v-2.29l.88-.95v10.25c0,.49,.37,.89,.84,.96v1.17c0,.17,.13,.3,.3,.3h1.97c.17,0,.3-.13,.3-.3v-1.14h4.57v1.14c0,.17,.13,.3,.3,.3h1.97c.17,0,.3-.13,.3-.3v-1.17c.47-.08,.84-.47,.84-.96V7.24l.88,.95v2.29c0,.17,.13,.3,.3,.3s.3-.13,.3-.3v-2.41c0-.08-.03-.15-.08-.2ZM6.91,12.31V6.66h4.79v5.65H6.91Zm5.39-5.65h4.79v5.65h-4.79V6.66Zm-5-1.99h9.39c.22,0,.4,.18,.4,.4v1H6.91v-1c0-.22,.18-.4,.4-.4Zm1.81,14.66h-1.37v-.83h1.37v.83Zm7.13,0h-1.37v-.83h1.37v.83Zm.45-1.44H7.3c-.22,0-.4-.18-.4-.4v-4.59h5.07s.01,0,.02,0,.01,0,.02,0h5.07v4.59c0,.22-.18,.4-.4,.4Z"/>
</svg>
