<?xml version="1.0" encoding="UTF-8"?>
<svg xmlns="http://www.w3.org/2000/svg" viewBox="0 0 24 24">
  <path d="M14.49,3.92H5.09c-.55,0-1,.45-1,1v11.97c0,.49,.37,.89,.84,.96v1.93c0,.17,.13,.3,.3,.3h1.97c.17,0,.3-.13,.3-.3v-1.9h4.57v1.9c0,.17,.13,.3,.3,.3h1.97c.17,0,.3-.13,.3-.3v-1.93c.47-.08,.84-.47,.84-.96V4.92c0-.55-.45-1-1-1ZM4.7,6.51h4.79v4.79s.02,.05,.03,.08H4.7V6.51Zm5.39,4.79V6.51h4.79v4.88h-4.83s.03-.05,.03-.08ZM5.09,4.52H14.49c.22,0,.4,.18,.4,.4v1H4.7v-1c0-.22,.18-.4,.4-.4Zm1.81,14.96h-1.37v-1.59h1.37v1.59Zm7.13,0h-1.37v-1.59h1.37v1.59Zm.45-2.2H5.09c-.22,0-.4-.18-.4-.4v-4.9H14.88v4.9c0,.22-.18,.4-.4,.4Z"/>
  <path d="M6.53,12.3c-.65,0-1.18,.53-1.18,1.18s.53,1.18,1.18,1.18,1.19-.53,1.19-1.18-.53-1.18-1.19-1.18Zm0,1.77c-.32,0-.58-.26-.58-.58s.26-.58,.58-.58,.59,.26,.59,.58-.26,.58-.59,.58Z"/>
  <path d="M13.16,12.3c-.65,0-1.18,.53-1.18,1.18s.53,1.18,1.18,1.18,1.18-.53,1.18-1.18-.53-1.18-1.18-1.18Zm0,1.77c-.32,0-.58-.26-.58-.58s.26-.58,.58-.58,.58,.26,.58,.58-.26,.58-.58,.58Z"/>
  <path d="M19.9,10.13c0-1.1-.89-1.99-1.99-1.99s-1.99,.89-1.99,1.99c0,1,.74,1.82,1.69,1.96v7.69c0,.17,.13,.3,.3,.3s.3-.13,.3-.3v-7.69c.96-.15,1.69-.97,1.69-1.96Zm-1.99,1.39c-.77,0-1.39-.62-1.39-1.39s.62-1.39,1.39-1.39,1.39,.62,1.39,1.39-.62,1.39-1.39,1.39Z"/>
  <path d="M11.86,14.29H7.72c-.17,0-.3,.13-.3,.3v1.22c0,.17,.13,.3,.3,.3h4.15c.17,0,.3-.13,.3-.3v-1.22c0-.17-.13-.3-.3-.3Zm-.3,1.22h-3.55v-.62h3.55v.62Z"/>
</svg>
