<?xml version="1.0" encoding="UTF-8"?>
<svg xmlns="http://www.w3.org/2000/svg" viewBox="0 0 24 24">
  <path d="M17.84,11.48c-.06,0-.12-.02-.17-.06l-5.27-3.76c-.07-.05-.12-.13-.12-.23,0-.09,.03-.18,.1-.24l3.76-3.47c.12-.11,.31-.11,.42,.02,.11,.12,.1,.31-.02,.42l-3.49,3.22,4.77,3.4,2.11-2.03c.12-.12,.31-.11,.42,0,.12,.12,.11,.31,0,.42l-2.29,2.21c-.06,.06-.13,.08-.21,.08Z"/>
  <path d="M16.04,12.91s-.02,0-.04,0c-.16-.02-.28-.17-.26-.33,0-.02,.21-1.82-.89-3.08-.7-.81-1.79-1.24-3.23-1.28-.99,.04-1.76,.25-2.16,.42-.53,.24-1.49,.31-1.99,.27-.3-.02-.52,.02-.6,.13-.05,.07-.12,.28,.16,.87,.23,.44,.7,.49,1.2,.51,.09,0,.17,0,.24,.01l.14,.02c.52,.05,1.73,.17,2.62,.67,.14,.08,.2,.26,.11,.41-.08,.14-.26,.2-.41,.11-.78-.44-1.9-.55-2.38-.6l-.16-.02s-.11,0-.18,0c-.42-.01-1.3-.04-1.72-.84-.31-.66-.35-1.14-.11-1.48,.14-.21,.45-.44,1.14-.39,.47,.04,1.31-.05,1.69-.22,.57-.26,1.47-.44,2.4-.48,1.64,.04,2.88,.54,3.7,1.49,1.27,1.47,1.03,3.46,1.02,3.55-.02,.15-.15,.26-.3,.26Z"/>
  <path d="M6.65,13.08c-.06,0-.13-.02-.18-.06-.13-.1-.16-.29-.05-.42l1.51-1.96c.1-.13,.29-.16,.42-.05,.13,.1,.16,.29,.05,.42l-1.51,1.96c-.06,.08-.15,.12-.24,.12Z"/>
  <path d="M17.72,20.35c-.08,0-.16-.03-.21-.09-1.91-1.91-5.63-1.18-7.03-.91l-.26,.05c-5.17,.8-6.54-1.27-6.6-1.36-.04-.06-.06-.14-.04-.22l1.18-6c.02-.11,.11-.2,.22-.23,.11-.03,.23,0,.3,.09,1.6,1.82,4.54,1.3,5.79,1.08l.18-.03c5.94-1.29,7.88,.95,7.96,1.04,.06,.07,.08,.17,.06,.26,0,.04-.94,4.3-1.26,6.08-.02,.11-.1,.2-.21,.23-.03,0-.06,.01-.09,.01Zm-4.09-1.96c1.34,0,2.79,.25,3.89,1.09,.34-1.74,.98-4.69,1.14-5.42-.44-.39-2.44-1.79-7.29-.74l-.19,.03c-1.26,.22-4.08,.72-5.94-.87l-1.05,5.32c.31,.35,1.8,1.65,5.92,1.01l.24-.05c.7-.14,1.93-.38,3.27-.38Z"/>
  <path d="M6.4,16.34c-.23,0-.42-.19-.42-.42s.19-.42,.42-.42,.42,.19,.42,.42-.19,.42-.42,.42Zm0-.6c-.1,0-.18,.08-.18,.18,0,.2,.35,.2,.35,0,0-.1-.08-.18-.18-.18Z"/>
  <path d="M16.33,16.3c-.23,0-.42-.19-.42-.42s.19-.42,.42-.42,.42,.19,.42,.42-.19,.42-.42,.42Zm0-.6c-.1,0-.18,.08-.18,.18,0,.2,.35,.2,.35,0,0-.1-.08-.18-.18-.18Z"/>
  <path d="M10.93,18.19c-.15,0-.29-.01-.43-.04-.53-.11-.96-.43-1.21-.9-.28-.54-.29-1.23,0-1.88,.51-1.22,1.87-2,3.01-1.76,.53,.11,.96,.43,1.21,.9,.28,.54,.29,1.23,0,1.88-.45,1.07-1.54,1.81-2.58,1.81Zm.92-4.04c-.8,0-1.65,.59-2.01,1.44-.21,.49-.21,.99-.01,1.37,.16,.31,.44,.52,.8,.59,.89,.19,1.93-.44,2.33-1.41h0c.21-.49,.21-.99,.01-1.37-.16-.31-.44-.52-.8-.59-.1-.02-.21-.03-.32-.03Z"/>
  <path d="M11.13,17.06c-.21,0-.4-.06-.57-.19-.13-.1-.16-.29-.06-.42,.1-.13,.29-.16,.42-.06,.17,.13,.39,.05,.55-.03,.07-.04,.11-.07,.14-.09-.01,0-.03,0-.05,0-.14-.04-.33-.1-.48-.21-.22-.15-.33-.37-.3-.59,.03-.24,.21-.44,.5-.55,.46-.18,.88-.02,1.05,.11,.13,.1,.17,.28,.07,.42-.1,.13-.28,.17-.42,.07-.01,0-.22-.14-.49-.04-.1,.04-.12,.08-.12,.08,.13,.06,.27,.1,.37,.13,.06,.02,.11,.03,.14,.05,.21,.09,.36,.28,.37,.48,.01,.18-.06,.44-.48,.67-.21,.12-.43,.18-.63,.18Z"/>
  <path d="M11.71,15.41s-.06,0-.09-.01c-.16-.05-.25-.22-.2-.38l.11-.36c.05-.16,.21-.25,.38-.2,.16,.05,.25,.22,.2,.38l-.11,.36c-.04,.13-.16,.21-.29,.21Z"/>
  <path d="M11.03,17.48s-.06,0-.09-.01c-.16-.05-.25-.22-.2-.38l.11-.36c.05-.16,.22-.25,.38-.2,.16,.05,.25,.22,.2,.38l-.11,.36c-.04,.13-.16,.21-.29,.21Z"/>
</svg>
