<?xml version="1.0" encoding="UTF-8"?>
<svg xmlns="http://www.w3.org/2000/svg" viewBox="0 0 24 24" fill="currentColor" aria-hidden="true">
  <path d="M5.66,16.04c-.17,0-.3-.13-.3-.3v-7.48c0-1.1,.89-1.99,1.99-1.99h7.48c1.1,0,1.99,.89,1.99,1.99v.29c0,.17-.13,.3-.3,.3s-.3-.13-.3-.3v-.29c0-.77-.62-1.39-1.39-1.39H7.35c-.77,0-1.39,.63-1.39,1.39v7.48c0,.17-.13,.3-.3,.3Z"/>
  <path d="M14.68,17.73h-.03l-7.59-.11c-.58,0-1.07-.24-1.38-.65-.31-.4-.4-.93-.26-1.48l1.39-5.32c.28-1.08,1.38-1.92,2.51-1.92h.03l7.59,.11c.58,0,1.07,.24,1.38,.65,.31,.4,.4,.93,.26,1.48l-1.39,5.32c-.28,1.08-1.38,1.92-2.51,1.92Zm-5.36-8.88c-.85,0-1.71,.66-1.93,1.47l-1.39,5.32c-.09,.37-.04,.71,.15,.96,.2,.26,.52,.41,.91,.41l7.59,.11h.03c.85,0,1.71-.66,1.93-1.47l1.39-5.32c.1-.37,.04-.71-.15-.96-.2-.26-.52-.4-.91-.41l-7.59-.11h-.03Z"/>
</svg>
