<?xml version="1.0" encoding="UTF-8"?>
<svg xmlns="http://www.w3.org/2000/svg" viewBox="0 0 24 24">
  <path d="M12,19.51c-4.14,0-7.51-3.37-7.51-7.51s3.37-7.51,7.51-7.51,7.51,3.37,7.51,7.51-3.37,7.51-7.51,7.51Zm0-14.44c-3.82,0-6.93,3.11-6.93,6.93s3.11,6.93,6.93,6.93,6.93-3.11,6.93-6.93-3.11-6.93-6.93-6.93Z"/>
  <g>
    <path d="M14.58,16.3h-5.45V7.7h5.45c.16,0,.29,.13,.29,.29s-.13,.29-.29,.29h-4.88v7.45h4.88c.16,0,.29,.13,.29,.29s-.13,.29-.29,.29Z"/>
    <path d="M13.06,12.29h-3.65c-.16,0-.29-.13-.29-.29s.13-.29,.29-.29h3.65c.16,0,.29,.13,.29,.29s-.13,.29-.29,.29Z"/>
  </g>
  <path d="M6.95,17.34c-.07,0-.15-.03-.2-.08-.11-.11-.11-.29,0-.4L16.85,6.75c.11-.11,.29-.11,.4,0,.11,.11,.11,.29,0,.4L7.15,17.25c-.06,.06-.13,.08-.2,.08Z"/>
</svg>
