<?xml version="1.0" encoding="UTF-8"?>
<svg xmlns="http://www.w3.org/2000/svg" viewBox="0 0 24 24">
  <path d="M16.67,12.38c-2.09,0-3.79-1.7-3.79-3.79s1.7-3.79,3.79-3.79,3.78,1.7,3.78,3.79-1.7,3.79-3.78,3.79Zm0-6.97c-1.76,0-3.19,1.43-3.19,3.19s1.43,3.19,3.19,3.19,3.19-1.43,3.19-3.19-1.43-3.19-3.19-3.19Z"/>
  <path d="M20.43,15.52c-.1,0-.2-.05-.25-.14l-2.07-3.24c-.09-.14-.05-.33,.09-.41,.14-.09,.32-.05,.41,.09l2.07,3.24c.09,.14,.05,.33-.09,.41-.05,.03-.11,.05-.16,.05Z"/>
  <path d="M10.3,19.19c-.07,0-.13-.02-.19-.07-.03-.02-2.7-2.14-4.72-2.14-.02,0-.04,0-.06,0-.16,0-.3-.13-.3-.29-.04-1.98,0-8.32,0-8.38,0-.08,.03-.16,.09-.22,.06-.06,.14-.09,.22-.08,.12,0,2.88,.14,5.13,1.82,.08,.06,.12,.15,.12,.24v8.81c0,.12-.07,.22-.17,.27-.04,.02-.09,.03-.13,.03Zm-4.67-2.8c1.65,.11,3.51,1.29,4.37,1.9V10.23c-1.65-1.18-3.62-1.5-4.37-1.59,0,1.26-.03,5.82,0,7.75Z"/>
  <path d="M10.27,19.17s-.09,0-.13-.03c-.1-.05-.17-.16-.17-.27V10.06c0-.09,.04-.18,.12-.24,.79-.59,1.73-1.05,2.79-1.38,.16-.05,.33,.04,.37,.2s-.04,.33-.2,.38c-.94,.29-1.78,.69-2.49,1.2v8.06c.87-.61,2.72-1.79,4.37-1.9,.02-1.1,.01-3.01,.01-4.49,0-.17,.13-.3,.3-.3h0c.17,0,.3,.13,.3,.3,0,1.62,0,3.77-.02,4.79,0,.17-.14,.27-.31,.29h-.05c-2.02,0-4.69,2.12-4.72,2.14-.05,.04-.12,.07-.19,.07Z"/>
  <path d="M10.33,19.19l-6.78-.6c-.15-.01-.27-.14-.27-.3V9.28c0-.09,.04-.17,.11-.23,.07-.06,.16-.08,.25-.06l1.56,.28c.16,.03,.27,.18,.24,.35s-.19,.28-.35,.24l-1.21-.22v8.38l6.46,.58,6.48-.58v-5.77c0-.17,.13-.3,.3-.3s.3,.13,.3,.3v6.05c0,.16-.12,.29-.27,.3l-6.81,.6Z"/>
</svg>
