<?xml version="1.0" encoding="UTF-8"?>
<svg xmlns="http://www.w3.org/2000/svg" viewBox="0 0 24 24">
  <path d="M6.75,18c-.08,0-.15-.03-.21-.09-.12-.12-.12-.31,0-.42L17.32,6.46c.12-.12,.31-.12,.42,0,.12,.12,.12,.31,0,.42L6.97,17.91c-.06,.06-.14,.09-.21,.09Z"/>
  <path d="M17.04,16.22h-6.01c-.17,0-.3-.13-.3-.3s.13-.3,.3-.3h6.01c1,0,1.82-.81,1.82-1.82s-.81-1.82-1.82-1.82h-.14c-.11,0-.2-.06-.26-.15s-.06-.2,0-.3c.15-.28,.23-.56,.23-.85,.02-.22,0-.66-.17-.8-.13-.1-.15-.29-.05-.42,.1-.13,.29-.15,.42-.05,.49,.38,.41,1.21,.4,1.31,0,.22-.04,.45-.11,.68,1.19,.15,2.1,1.17,2.1,2.4,0,1.33-1.08,2.42-2.42,2.42Z"/>
  <path d="M8.16,16.22h-.56c-1.69,0-3.06-1.37-3.06-3.06v-.33c0-1.21,.73-2.3,1.84-2.79,0-.07-.01-.14-.01-.22,0-2.11,1.72-3.83,3.83-3.83,1.5,0,2.88,.91,3.49,2.28h1.78c.17,0,.3,.13,.3,.3s-.13,.3-.3,.3h-1.98c-.12,0-.24-.08-.28-.19-.47-1.25-1.68-2.09-3.01-2.09-1.78,0-3.23,1.45-3.23,3.23,0,.09,.01,.17,.02,.26l.02,.11c.02,.14-.07,.27-.2,.32-.99,.35-1.66,1.27-1.66,2.31v.33c0,1.36,1.1,2.46,2.46,2.46h.56c.17,0,.3,.13,.3,.3s-.13,.3-.3,.3Z"/>
</svg>
