<?xml version="1.0" encoding="UTF-8"?>
<svg xmlns="http://www.w3.org/2000/svg" viewBox="0 0 24 24" fill="currentColor" aria-hidden="true">
  <path d="M11.24,14.46h-3.75l.85-1.41,1.05,.61c.12,.07,.27,.05,.37-.04,.1-.1,.12-.25,.06-.37l-1.97-3.69c-.05-.1-.16-.16-.27-.16H3.18c-.14,0-.26,.09-.3,.22-.04,.13,.02,.27,.13,.35l1.13,.69-1.09,1.64c-.33,.55-.34,1.24-.04,1.8l2.38,4.37s.03,.05,.06,.07c.33,.52,.89,.82,1.51,.82h4.28c.17,0,.31-.14,.31-.31v-4.29c0-.17-.14-.31-.31-.31Zm-.31,.62v3.67h-3.97c-.42,0-.8-.22-1.01-.59-.21-.37-.2-.8,.02-1.17l1.15-1.92h3.82Zm-6.09-4.34c.05-.07,.06-.16,.05-.24-.02-.08-.07-.15-.14-.2l-.47-.29h3.11l1.37,2.57-.38-.22c-.14-.08-.33-.04-.42,.11l-2.53,4.2c-.06,.1-.11,.19-.15,.3l-1.73-3.17c-.2-.37-.19-.82,.02-1.18l1.26-1.88Z"/>
  <path d="M16.56,9.25l1.9-3.75c.06-.12,.04-.27-.06-.36-.1-.1-.25-.11-.37-.05l-1.11,.62-1.05-1.79c-.32-.55-.92-.9-1.56-.9h-4.98s-.06,0-.08,.01c-.61,.04-1.16,.39-1.45,.93l-2.05,3.75c-.04,.07-.05,.16-.03,.24,.02,.08,.08,.15,.15,.18l3.76,2.05s.1,.04,.15,.04c.11,0,.22-.06,.27-.16l1.8-3.29,.83,1.42-1.06,.65c-.12,.07-.17,.21-.14,.35,.04,.13,.16,.23,.3,.23h4.5c.12,0,.22-.06,.28-.17Zm-5.06-3.09l-1.83,3.35-3.22-1.76,1.9-3.48c.2-.38,.58-.6,1-.61,.41,0,.8,.21,1.02,.57l1.13,1.93Zm1.88,1.99l-2.48-4.23c-.06-.1-.12-.19-.19-.27h3.61c.42,0,.82,.23,1.03,.59l1.2,2.05c.08,.14,.27,.19,.42,.11l.48-.27-1.36,2.67h-3.21l.38-.23c.15-.09,.19-.27,.11-.42Z"/>
  <path d="M20.94,12.39l-2.2-3.67c-.04-.07-.11-.12-.19-.14-.08-.02-.16,0-.24,.03l-3.68,2.2c-.15,.09-.19,.28-.11,.42l1.93,3.22h-1.63v-1.24c0-.14-.09-.26-.22-.3-.13-.04-.27,.01-.35,.13l-2.42,3.72c-.07,.1-.07,.24,0,.34l2.41,3.72c.06,.09,.15,.14,.26,.14,.03,0,.06,0,.09-.01,.13-.04,.22-.16,.22-.3v-1.29h2.07c.64,0,1.24-.34,1.56-.89l2.52-4.29s.03-.05,.03-.08c.27-.55,.25-1.19-.07-1.72Zm-3.76,2.08l-1.96-3.27,3.15-1.89,2.04,3.4c.22,.37,.23,.8,.02,1.17-.21,.37-.58,.59-1.01,.59h-2.24Zm-2.89,.52c.06,.06,.14,.09,.22,.09h4.9c.11,0,.22,0,.33-.02l-1.83,3.11c-.21,.36-.61,.59-1.03,.59h-2.38c-.17,0-.31,.14-.31,.31v.56l-1.74-2.68,1.74-2.67v.5c0,.08,.03,.16,.09,.22Z"/>
</svg>
