<?xml version="1.0" encoding="UTF-8"?>
<svg xmlns="http://www.w3.org/2000/svg" viewBox="0 0 24 24">
  <path d="M19.1,18.62H4.9c-.17,0-.32-.09-.41-.23-.08-.14-.08-.32,0-.47h0L11.59,5.62c.08-.14,.24-.23,.41-.23s.32,.09,.41,.23l7.1,12.3c.08,.14,.08,.32,0,.47-.08,.14-.24,.23-.41,.23Zm-13.98-.59h13.77L12,6.1l-6.88,11.92Z"/>
  <path d="M12,14.85c-.44,0-.81-.37-.81-.81v-3.62c0-.44,.37-.81,.81-.81s.81,.37,.81,.81v3.62c0,.44-.37,.81-.81,.81Zm0-4.65c-.12,0-.22,.1-.22,.22v3.62c0,.12,.1,.22,.22,.22s.22-.1,.22-.22v-3.62c0-.11-.1-.22-.22-.22Z"/>
  <path d="M12,17.14c-.49,0-.9-.43-.9-.94s.4-.9,.9-.9,.9,.4,.9,.9-.41,.94-.9,.94Zm0-1.25c-.18,0-.31,.13-.31,.31s.14,.35,.31,.35,.31-.16,.31-.35-.13-.31-.31-.31Z"/>
</svg>
