<?xml version="1.0" encoding="UTF-8"?>
<svg xmlns="http://www.w3.org/2000/svg" viewBox="0 0 24 24">
  <g>
    <g>
      <path d="M15.49,20.54s-.08,0-.12,0c-.56-.05-.98-.47-1.04-1.04,0-.09-.01-.18-.01-.29,0-1.43,0-2.86,0-4.29v-.89h-.91l-.02-.33s0-.09,0-.14c0-2.76,0-5.51,0-8.27,0-.68,.22-1.17,.67-1.51,.45-.34,1.03-.41,1.56-.2,.54,.22,.91,.69,1,1.26,0,.02,0,.03,.01,.05v.05l.02,.04v14.6l-.02,.05-.02,.04s-.01,.03-.02,.04c-.15,.52-.59,.85-1.11,.85Zm-1.54-7.09h.94v1.46c0,1.43,0,2.86,0,4.29,0,.09,0,.16,.01,.23,.03,.3,.23,.51,.53,.53,.3,.03,.54-.14,.62-.43,0-.03,.02-.05,.03-.08V5.05s-.02-.07-.03-.12c-.06-.37-.3-.68-.65-.82-.34-.14-.71-.09-1,.13-.31,.23-.44,.55-.44,1.05,0,2.72,0,5.44,0,8.17Zm2.41,6.06h0Z"/>
      <path d="M9.43,20.54h-.05l-.05-.02c-.18-.07-.41-.18-.58-.42-.22-.3-.24-.63-.24-.85,0-2.31,0-4.62,0-6.93v-1.82c-.53-.11-.91-.44-1.08-.98-.02-.05-.03-.1-.05-.15v-.04s-.03-.09-.03-.13V4.03c0-.16,.13-.29,.29-.29s.29,.13,.29,.29v5.2s.03,.08,.04,.13c.12,.37,.36,.56,.75,.61h.01s.05,0,.07,.01c.05,.01,.09,.03,.11,.04l.17,.09v2.22c0,2.31,0,4.62,0,6.94,0,.23,.04,.39,.13,.52,.06,.08,.14,.14,.27,.2h.37s.08-.03,.11-.05c.21-.13,.3-.32,.3-.65,0-2.24,0-4.48,0-6.72v-2.51l.21-.06h.02s.07-.03,.12-.03c.35,0,.78-.43,.78-.91-.01-1.15-.01-2.32,0-3.46,0-.47,0-.94,0-1.41,0-.16,.13-.29,.29-.29s.29,.13,.29,.29c0,.47,0,.94,0,1.41,0,1.13,0,2.3,0,3.45,0,.69-.51,1.34-1.13,1.47v2.04c0,2.24,0,4.48,0,6.72,0,.53-.19,.91-.58,1.14-.08,.05-.16,.08-.23,.11l-.06,.02h-.53Zm-1.51-11.36h0Z"/>
      <path d="M9.1,8.5c-.16,0-.29-.13-.29-.29V4.02c0-.16,.13-.29,.29-.29s.29,.13,.29,.29v4.19c0,.16-.13,.29-.29,.29Z"/>
      <path d="M10.24,8.5c-.16,0-.29-.13-.29-.29V4.02c0-.16,.13-.29,.29-.29s.29,.13,.29,.29v4.19c0,.16-.13,.29-.29,.29Z"/>
    </g>
  </g>
</svg>
