<?xml version="1.0" encoding="UTF-8"?>
<svg xmlns="http://www.w3.org/2000/svg" viewBox="0 0 24 24">
  <g>
    <path d="M18.77,13.26c-.17,0-.3-.13-.3-.3v-1.26c0-.17,.13-.3,.3-.3s.3,.13,.3,.3v1.26c0,.17-.13,.3-.3,.3Z"/>
    <path d="M19.4,12.63h-1.26c-.17,0-.3-.13-.3-.3s.13-.3,.3-.3h1.26c.17,0,.3,.13,.3,.3s-.13,.3-.3,.3Z"/>
  </g>
  <g>
    <path d="M12.02,7.4c-.17,0-.3-.13-.3-.3v-1.26c0-.17,.13-.3,.3-.3s.3,.13,.3,.3v1.26c0,.17-.13,.3-.3,.3Z"/>
    <path d="M12.65,6.78h-1.26c-.17,0-.3-.13-.3-.3s.13-.3,.3-.3h1.26c.17,0,.3,.13,.3,.3s-.13,.3-.3,.3Z"/>
  </g>
  <g>
    <path d="M4.43,5.41c-.17,0-.3-.13-.3-.3v-1.26c0-.17,.13-.3,.3-.3s.3,.13,.3,.3v1.26c0,.17-.13,.3-.3,.3Z"/>
    <path d="M5.06,4.78h-1.26c-.17,0-.3-.13-.3-.3s.13-.3,.3-.3h1.26c.17,0,.3,.13,.3,.3s-.13,.3-.3,.3Z"/>
  </g>
  <path d="M8.42,4.23c-.17,0-.32-.15-.32-.32s.15-.32,.32-.32,.32,.15,.32,.32-.15,.32-.32,.32Z"/>
  <path d="M10.05,7.1c-.17,0-.32-.15-.32-.32s.15-.32,.32-.32,.32,.15,.32,.32-.15,.32-.32,.32Z"/>
  <path d="M12.64,4.79c-.17,0-.32-.15-.32-.32s.15-.32,.32-.32,.32,.15,.32,.32-.15,.32-.32,.32Z"/>
  <path d="M19.33,10.7c-.17,0-.32-.15-.32-.32s.15-.32,.32-.32,.32,.15,.32,.32-.15,.32-.32,.32Z"/>
  <path d="M18.23,5.41c-.17,0-.32-.15-.32-.32s.15-.32,.32-.32,.32,.15,.32,.32-.15,.32-.32,.32Z"/>
  <path d="M17.64,6.05c-.17,0-.32-.15-.32-.32s.15-.32,.32-.32,.32,.15,.32,.32-.15,.32-.32,.32Z"/>
  <path d="M17.05,6.69c-.17,0-.32-.15-.32-.32s.15-.32,.32-.32,.32,.15,.32,.32-.15,.32-.32,.32Z"/>
  <path d="M17.77,7.4c-.17,0-.32-.15-.32-.32s.15-.32,.32-.32,.32,.15,.32,.32-.15,.32-.32,.32Z"/>
  <path d="M18.42,6.84c-.17,0-.32-.15-.32-.32s.15-.32,.32-.32,.32,.15,.32,.32-.15,.32-.32,.32Z"/>
  <path d="M19.02,6.26c-.17,0-.32-.15-.32-.32s.15-.32,.32-.32,.32,.15,.32,.32-.15,.32-.32,.32Z"/>
  <path d="M17.14,12.72c-.17,0-.32-.15-.32-.32s.15-.32,.32-.32,.32,.15,.32,.32-.15,.32-.32,.32Z"/>
  <g>
    <path d="M16.21,18.85c-.49,0-.9-.4-.9-.9s.4-.89,.9-.89,.89,.4,.89,.89-.4,.9-.89,.9Zm0-1.19c-.16,0-.3,.13-.3,.29s.13,.3,.3,.3,.29-.13,.29-.3-.13-.29-.29-.29Z"/>
    <path d="M18.75,18.63c-.49,0-.9-.4-.9-.9s.4-.89,.9-.89,.89,.4,.89,.89-.4,.9-.89,.9Zm0-1.19c-.16,0-.3,.13-.3,.29s.13,.3,.3,.3,.29-.13,.29-.3-.13-.29-.29-.29Z"/>
    <path d="M16.76,18.26c-.17,0-.3-.13-.3-.3v-3.04c0-.15,.11-.28,.26-.3l2.58-.34c.09,0,.17,.02,.24,.07,.06,.06,.1,.14,.1,.23v3.15c0,.17-.13,.3-.3,.3s-.3-.13-.3-.3v-2.81l-1.98,.26v2.78c0,.17-.13,.3-.3,.3Z"/>
    <path d="M16.96,16.23c-.15,0-.28-.11-.3-.27-.02-.17,.1-.31,.27-.33l2.09-.22c.17-.03,.31,.1,.33,.27,.02,.17-.1,.31-.27,.33l-2.09,.22s-.02,0-.03,0Z"/>
  </g>
  <g>
    <path d="M5.26,9.78c-.49,0-.89-.4-.89-.89s.4-.89,.89-.89,.89,.4,.89,.89-.4,.89-.89,.89Zm0-1.19c-.16,0-.29,.13-.29,.29s.13,.29,.29,.29,.29-.13,.29-.29-.13-.29-.29-.29Z"/>
    <path d="M7.79,9.56c-.49,0-.89-.4-.89-.89s.4-.89,.89-.89,.89,.4,.89,.89-.4,.89-.89,.89Zm0-1.19c-.16,0-.29,.13-.29,.29s.13,.29,.29,.29,.29-.13,.29-.29-.13-.29-.29-.29Z"/>
    <path d="M5.81,9.19c-.17,0-.3-.13-.3-.3v-3.04c0-.15,.11-.28,.26-.3l2.58-.34c.09,0,.17,.02,.24,.07,.06,.06,.1,.14,.1,.23v3.15c0,.17-.13,.3-.3,.3s-.3-.13-.3-.3v-2.81l-1.98,.26v2.78c0,.17-.13,.3-.3,.3Z"/>
    <path d="M6.01,7.16c-.15,0-.28-.11-.3-.27-.02-.17,.1-.31,.27-.33l2.09-.22c.17-.03,.31,.1,.33,.27,.02,.17-.1,.31-.27,.33l-2.09,.22s-.02,0-.03,0Z"/>
  </g>
  <path d="M17.64,8.16c-.19,0-.4-.06-.6-.25-.33-.31-.87-.86-.87-.86-.19-.23-.41-.75-.02-1.19l1.45-1.74s.04-.04,.06-.05c.23-.16,.8-.35,1.27,.12,.41,.41,1.08,1.07,1.08,1.07,.02,.02,.26,.25,.25,.6,0,.16-.06,.4-.33,.62-.47,.4-1.84,1.55-1.84,1.55-.11,.07-.27,.13-.46,.13Zm-1.03-1.5s.51,.52,.83,.81c.15,.14,.27,.09,.31,.07,0,0,1.33-1.12,1.79-1.51,.05-.04,.12-.11,.12-.18,0-.07-.05-.14-.07-.16,0,0-.67-.66-1.08-1.08-.19-.19-.39-.12-.48-.07l-1.42,1.7h0c-.16,.18,0,.39,.02,.4h0Zm0,0h0Zm-.24-.6h0Z"/>
  <path d="M16.22,6.17c-.07,0-.15-.03-.2-.08l-.49-.46c-.12-.11-.13-.3-.02-.42,.11-.12,.3-.13,.42-.02l.49,.46c.12,.11,.13,.3,.02,.42-.06,.06-.14,.1-.22,.1Z"/>
  <path d="M16.87,5.29c-.08,0-.16-.03-.22-.09l-.51-.52c-.12-.12-.11-.31,0-.42,.12-.11,.31-.11,.42,0l.51,.52c.12,.12,.11,.31,0,.42-.06,.06-.13,.08-.21,.08Z"/>
  <path d="M17.7,4.45c-.08,0-.15-.03-.21-.09l-.38-.38c-.12-.12-.12-.31,0-.42s.31-.12,.42,0l.38,.38c.12,.12,.12,.31,0,.42-.06,.06-.14,.09-.21,.09Z"/>
  <path d="M20.2,7c-.08,0-.15-.03-.21-.09l-.38-.38c-.12-.12-.12-.31,0-.42s.31-.12,.42,0l.38,.38c.12,.12,.12,.31,0,.42-.06,.06-.14,.09-.21,.09Z"/>
  <path d="M18.59,8.57c-.07,0-.15-.03-.2-.08l-.49-.46c-.12-.11-.13-.3-.01-.42,.11-.12,.3-.13,.42-.02l.49,.46c.12,.11,.13,.3,.01,.42-.06,.06-.14,.1-.22,.1Z"/>
  <path d="M19.59,8c-.08,0-.16-.03-.22-.09l-.51-.52c-.12-.12-.11-.31,0-.42,.12-.11,.31-.11,.42,0l.51,.52c.12,.12,.11,.31,0,.42-.06,.06-.13,.08-.21,.08Z"/>
  <path d="M11.04,14.91c-.08,0-.16-.03-.21-.09l-1.56-1.56c-.06-.06-.09-.13-.09-.22,0-.08,.03-.16,.09-.21l6.69-6.38c.12-.11,.31-.11,.42,0s.11,.31-.01,.42l-6.47,6.16,1.12,1.12,5.17-5.46-.34-.33c-.12-.12-.12-.31,0-.42,.11-.12,.3-.12,.42,0l.55,.54c.12,.11,.12,.3,0,.42l-5.58,5.9c-.06,.06-.13,.09-.21,.09h0Z"/>
  <path d="M15.77,9.67c-.08,0-.15-.03-.21-.08l-1.2-1.17c-.12-.12-.12-.31,0-.42,.12-.12,.31-.12,.42,0l1.2,1.17c.12,.12,.12,.31,0,.42-.06,.06-.14,.09-.21,.09Z"/>
  <path d="M15.06,10.55c-.08,0-.15-.03-.21-.08l-1.2-1.17c-.12-.12-.12-.31,0-.42,.12-.12,.31-.12,.42,0l1.2,1.17c.12,.12,.12,.31,0,.42-.06,.06-.14,.09-.21,.09Z"/>
  <path d="M14.04,11.6c-.08,0-.15-.03-.21-.08l-1.2-1.17c-.12-.12-.12-.31,0-.42,.12-.12,.31-.12,.42,0l1.2,1.17c.12,.12,.12,.31,0,.42-.06,.06-.14,.09-.21,.09Z"/>
  <path d="M6.77,18.88c-.08,0-.15-.03-.21-.08l-1.2-1.17c-.12-.12-.12-.31,0-.42,.12-.12,.31-.12,.42,0l1.2,1.17c.12,.12,.12,.31,0,.42-.06,.06-.14,.09-.21,.09Z"/>
  <path d="M13.06,12.56c-.08,0-.15-.03-.21-.08l-1.2-1.17c-.12-.12-.12-.31,0-.42,.12-.12,.31-.12,.42,0l1.2,1.17c.12,.12,.12,.31,0,.42-.06,.06-.14,.09-.21,.09Z"/>
  <path d="M11.41,12.95c-.07,0-.15-.03-.21-.08l-.7-.67c-.12-.12-.12-.3,0-.42,.11-.12,.3-.12,.42,0l.7,.67c.12,.12,.12,.3,0,.42-.06,.06-.14,.09-.22,.09Z"/>
  <path d="M8.47,20.53c-1.07,0-1.86-.35-1.88-.36-2.55-1.16-2.9-3.24-2.95-3.65-.06-3.21,1.38-5.06,4.29-5.53,1.35-2.99,4.4-2.25,4.44-2.24,.16,.04,.26,.2,.22,.36-.04,.16-.2,.26-.36,.22-.11-.03-2.69-.63-3.8,2.05-.04,.1-.13,.17-.23,.18h-.08c-.98,.16-3.94,.62-3.86,4.93,.04,.32,.35,2.11,2.61,3.14,.03,.02,2.54,1.11,4.51-.97,.11-.12,.3-.12,.42-.01,.12,.11,.12,.3,.01,.42-1.09,1.15-2.33,1.45-3.32,1.45Z"/>
  <path d="M12.25,18.29c-.06,0-.11-.01-.16-.05-.14-.09-.18-.27-.09-.41,0,0,.58-.93,.56-1.79,0-.12,.07-.23,.18-.28,.21-.09,1.45-.91,1.91-2.23,.29-.83,.2-1.7-.26-2.59-.08-.15-.02-.33,.13-.4,.15-.08,.33-.02,.4,.13,.54,1.03,.64,2.06,.29,3.06-.44,1.27-1.52,2.17-2.06,2.49-.05,.98-.62,1.89-.65,1.93-.06,.09-.15,.14-.25,.14Z"/>
  <path d="M8.12,17.96c-.25,0-.49-.05-.72-.14-.15-.06-.23-.24-.17-.39,.06-.15,.24-.23,.39-.17,.16,.06,.33,.1,.5,.1,.74,0,1.34-.6,1.34-1.34s-.6-1.34-1.34-1.34-1.34,.6-1.34,1.34c0,.15,.03,.3,.08,.45,.05,.16-.03,.33-.18,.38-.16,.06-.33-.03-.38-.18-.07-.21-.11-.43-.11-.65,0-1.07,.87-1.94,1.94-1.94s1.94,.87,1.94,1.94-.87,1.94-1.94,1.94Z"/>
</svg>
