<?xml version="1.0" encoding="UTF-8"?>
<svg xmlns="http://www.w3.org/2000/svg" viewBox="0 0 24 24">
  <path d="M12,19.93c-1.51,0-2.97-.42-4.23-1.22l-2.84,1.18c-.23,.09-.5,.04-.67-.13-.18-.18-.23-.44-.13-.67l1.18-2.84c-.8-1.27-1.22-2.73-1.22-4.23,0-4.38,3.56-7.93,7.93-7.93s7.93,3.56,7.93,7.93-3.56,7.93-7.93,7.93Zm-4.17-1.9l.13,.09c1.2,.79,2.6,1.21,4.04,1.21,4.04,0,7.33-3.29,7.33-7.33s-3.29-7.33-7.33-7.33-7.33,3.29-7.33,7.33c0,1.44,.42,2.84,1.21,4.04l.09,.13-1.3,3.14,3.16-1.27Z"/>
  <path d="M13.62,15.8c-1.11,0-2.47-.64-3.63-1.8-.83-.83-1.42-1.8-1.67-2.74-.26-1-.11-1.84,.43-2.38l.39-.39c.39-.39,1.02-.39,1.41,0l.74,.74c.19,.19,.29,.44,.29,.71,0,.27-.1,.52-.29,.71l-.58,.58c.25,.4,.56,.78,.91,1.14,.35,.35,.73,.66,1.14,.91l.58-.58c.39-.39,1.02-.39,1.41,0l.74,.74c.39,.39,.39,1.02,0,1.41l-.39,.39c-.38,.38-.9,.56-1.49,.56Zm-3.77-7c-.1,0-.21,.04-.28,.12l-.39,.39c-.38,.38-.48,1.02-.28,1.8,.22,.84,.76,1.71,1.51,2.47,1.49,1.49,3.45,2.06,4.28,1.24l.39-.39c.16-.16,.16-.41,0-.57l-.74-.74c-.16-.15-.41-.16-.57,0l-.9,.9-.2-.12c-.52-.3-1.01-.68-1.46-1.13-.45-.45-.83-.94-1.13-1.46l-.12-.2,.91-.9c.08-.08,.12-.18,.12-.28s-.04-.21-.12-.28l-.74-.74c-.08-.08-.18-.12-.28-.12Z"/>
</svg>
